<?xml version="1.0" encoding="utf-8"?>
<!-- Generator: Adobe Illustrator 21.0.0, SVG Export Plug-In . SVG Version: 6.00 Build 0)  -->
<svg version="1.1" id="레이어_1" xmlns="http://www.w3.org/2000/svg" xmlns:xlink="http://www.w3.org/1999/xlink" x="0px"
	 y="0px" viewBox="0 0 573 179.8" style="enable-background:new 0 0 573 179.8;" xml:space="preserve">
<style type="text/css">
	.st0{enable-background:new    ;}
	.st1{fill:#080808;}
</style>
<g class="st0">
	<path class="st1" d="M215.2,15.3c-2.5,0.4-4.7,0.5-8.3,0.5h-1.5V7.1h8.4v2h-5.9v1.3h5.4v1.9h-5.4v1.4c3,0,4.9-0.1,7.1-0.4
		L215.2,15.3z M207.3,17.3h11.6v6.2h-11.6V17.3z M209.8,21.5h6.7v-2.3h-6.7V21.5z M219,6.2v10.4h-2.5V6.2H219z"/>
	<path class="st1" d="M230.9,15.4h-8.2v-8h8.2v1.3h3.2V6.1h2.5v10.3h-2.5v-2.2h-3.2V15.4z M236.6,20.2c0,2.1-2.3,3.4-6,3.4
		s-6-1.3-6-3.4s2.3-3.4,6-3.4C234.3,16.8,236.6,18.1,236.6,20.2z M228.4,9.4h-3.3v4.1h3.3V9.4z M234.1,20.2c0-1-1.2-1.5-3.5-1.5
		s-3.5,0.5-3.5,1.5s1.2,1.5,3.5,1.5S234.1,21.2,234.1,20.2z M230.9,10.7v1.5h3.2v-1.5H230.9z"/>
	<path class="st1" d="M244.2,13.2c0-1,0.7-1.8,1.7-1.8s1.7,0.8,1.7,1.8s-0.7,1.8-1.7,1.8C245,15,244.2,14.3,244.2,13.2z M244.2,20.4
		c0-1,0.7-1.8,1.7-1.8s1.7,0.8,1.7,1.8s-0.7,1.8-1.7,1.8C245,22.3,244.2,21.5,244.2,20.4z"/>
	<path class="st1" d="M263.4,7.4c0,4.7-2.9,8.2-8,9.8l-1-2c3.6-1.1,5.9-3.2,6.4-5.8h-5.5v-2C255.3,7.4,263.4,7.4,263.4,7.4z
		 M269.3,21.3v2h-11.9v-5.7h2.5v3.7H269.3z M266.3,11.2V6.1h2.5v12.8h-2.5v-5.7h-3v-2H266.3z"/>
	<path class="st1" d="M280.6,7.3c0,4.7-2.9,8-8.1,9.4l-1-2c3.8-1,6-3,6.3-5.4h-5.5v-2C272.3,7.3,280.6,7.3,280.6,7.3z M285.6,20.1
		c0,2.2-2.3,3.6-5.9,3.6c-3.5,0-5.9-1.4-5.9-3.6s2.3-3.6,5.9-3.6S285.6,17.9,285.6,20.1z M283.2,20.1c0-1.1-1.3-1.6-3.4-1.6
		s-3.4,0.6-3.4,1.6s1.3,1.6,3.4,1.6C281.9,21.7,283.2,21.1,283.2,20.1z M287.8,10.2v2.1h-2.3v4H283V6.1h2.5v4.1H287.8z"/>
	<path class="st1" d="M299.4,9.9h-10.3V8h3.9V6.1h2.5V8h3.9V9.9z M294.3,17.3c-2.5,0-4.3-1.4-4.3-3.4s1.8-3.4,4.3-3.4
		s4.3,1.4,4.3,3.4S296.8,17.3,294.3,17.3z M294.1,21.3h9.4v2h-11.9v-5.1h2.5V21.3z M294.3,15.4c1.1,0,1.9-0.5,1.9-1.5
		c0-0.9-0.8-1.5-1.9-1.5s-1.9,0.5-1.9,1.5C292.4,14.9,293.2,15.4,294.3,15.4z M305.2,11.5v2.1h-2.3v5.7h-2.5V6.1h2.5v5.3h2.3V11.5z"
		/>
	<path class="st1" d="M320.1,14.8c-1.8-0.6-3.1-1.7-3.9-3.2c-0.8,1.6-2.1,2.9-4.1,3.6l-1.3-2c2.9-0.9,4.1-3,4.1-5.2V6.7h2.5V8
		c0,2.1,1.2,4.1,3.9,4.9L320.1,14.8z M326.1,21.5v2h-12v-4.8h9v-1H314v-1.9h11.5v4.7h-9v1H326.1z M323.1,10.7h-3.2v-2h3.2V6.1h2.5
		V15h-2.5V10.7z"/>
	<path class="st1" d="M335.2,11.6c0,2.5,1.4,5.4,4.3,6.6l-1.3,1.9c-2-0.8-3.4-2.5-4.1-4.5c-0.8,2.1-2.2,3.9-4.2,4.8l-1.3-1.9
		c2.9-1.3,4.2-4.3,4.2-6.9V11h-3.7V9h3.6V6.6h2.5V9h3.6v2h-3.6V11.6z M342.9,6.1v17.5h-2.5V6.1H342.9z"/>
	<path class="st1" d="M356.7,15.3c-2.5,0.4-4.7,0.5-8.3,0.5h-1.5V7.1h8.4v2h-5.9v1.3h5.4v1.9h-5.4v1.4c3,0,4.9-0.1,7.1-0.4
		L356.7,15.3z M348.8,17.3h11.6v6.2h-11.6V17.3z M351.3,21.5h6.7v-2.3h-6.7V21.5z M360.4,6.2v10.4h-2.5V6.2H360.4z"/>
	<path class="st1" d="M364.3,20.4c0-1,0.7-1.8,1.7-1.8s1.7,0.8,1.7,1.8s-0.8,1.8-1.7,1.8C365.1,22.3,364.3,21.5,364.3,20.4z
		 M364.8,10.2l-0.1-2.6h2.8l-0.1,2.6l-0.4,7h-1.8L364.8,10.2z"/>
</g>
<g class="st0">
	<path class="st1" d="M47.9,44.2c-2.5,0.4-4.7,0.5-8.3,0.5h-1.5v-8.6h8.4v2h-6v1.3h5.4v1.9h-5.4v1.4c3,0,4.9-0.1,7.1-0.4L47.9,44.2z
		 M40,46.2h11.6v6.2H40V46.2z M42.4,50.4h6.7v-2.3h-6.7V50.4z M51.6,35.1v10.4h-2.5V35.1H51.6z"/>
	<path class="st1" d="M69.7,50.3v2h-13v-5.2h2.4v-2.3c-1.5,0.1-3,0.1-4.3,0.1l-0.3-2c3.2,0,7.4-0.1,11.1-0.5l0.2,1.8
		c-1.4,0.2-2.8,0.4-4.2,0.5V48h-2.4v2.4L69.7,50.3L69.7,50.3z M55.8,38.8c0-1.9,1.8-3.1,4.4-3.1c2.5,0,4.4,1.3,4.4,3.1
		c0,1.9-1.8,3.1-4.4,3.1C57.6,41.9,55.8,40.7,55.8,38.8z M58.1,38.8c0,0.9,0.8,1.3,2,1.3s2-0.4,2-1.3c0-0.9-0.8-1.3-2-1.3
		C59,37.5,58.1,38,58.1,38.8z M66.8,45.3V35.1h2.5v13.3h-2.5V47h-3.3v-1.7H66.8z"/>
	<path class="st1" d="M76.9,42.2c0-1,0.7-1.8,1.7-1.8s1.7,0.8,1.7,1.8S79.6,44,78.6,44S76.9,43.2,76.9,42.2z M76.9,49.4
		c0-1,0.7-1.8,1.7-1.8s1.7,0.8,1.7,1.8s-0.7,1.8-1.7,1.8S76.9,50.4,76.9,49.4z"/>
	<path class="st1" d="M97,43.3c-2.8,0.6-5.5,0.7-8,0.7h-1.5v-8.2H90V42c2.1,0,4.3-0.2,6.7-0.7L97,43.3z M89.2,45.7h11.4v6.6H89.2
		V45.7z M91.7,50.4h6.5v-2.7h-6.5V50.4z M102.9,40.8h-2.3v4.1h-2.5v-9.8h2.5v3.7h2.3V40.8z"/>
	<path class="st1" d="M120.1,46.8h-6.7v5.9h-2.5v-5.9h-6.6v-2h15.8C120.1,44.8,120.1,46.8,120.1,46.8z M105.1,41.8
		c3.6-0.4,5.4-2.1,5.7-3.8h-5v-2h13v2h-5c0.2,1.7,2.1,3.4,5.6,3.8l-0.9,2c-3.1-0.4-5.2-1.7-6.2-3.5c-1,1.8-3.2,3.1-6.2,3.5
		L105.1,41.8z"/>
	<path class="st1" d="M130.1,43.8c-0.9,0.9-2.1,1.4-3.4,1.4c-2.6,0-4.6-1.9-4.6-4.5s2-4.5,4.6-4.5c1.4,0,2.5,0.5,3.4,1.4h3.9v-2.4
		h2.5V48H134v-4.1h-3.9V43.8z M126.6,43c1.3,0,2.2-0.9,2.2-2.4c0-1.4-0.9-2.3-2.2-2.3c-1.3,0-2.2,0.9-2.2,2.3
		C124.4,42.1,125.4,43,126.6,43z M136.8,50.3v2h-11.9v-5.6h2.5v3.6H136.8z M131.1,39.5c0.1,0.4,0.1,0.7,0.1,1.1c0,0.4,0,0.8-0.1,1.1
		h2.8v-2.3h-2.8V39.5z"/>
	<path class="st1" d="M158.8,50.3v2h-13V47h2.2v-3.4c-1.5,0.1-3,0.1-4.3,0.1l-0.3-2c2.1,0,4.6,0,7.1-0.2c0.2-1.5,0.3-2.6,0.3-3.6
		h-5.9v-2h8.3v0.6c0,0.9,0,2.5-0.3,4.7c0.6-0.1,1.1-0.1,1.6-0.2l0.2,1.8c-1.4,0.3-2.9,0.4-4.3,0.6v3.8h-2.2v3.1
		C148.2,50.3,158.8,50.3,158.8,50.3z M155.9,44.4v-9.3h2.5v13.2h-2.5v-1.9h-3.4v-1.9L155.9,44.4L155.9,44.4z"/>
	<path class="st1" d="M176.9,46.6h-6.7v6h-2.5v-6h-6.6v-2h15.8V46.6z M175.4,43.3c-3.1-0.5-5.2-1.9-6.4-3.8
		c-1.1,1.9-3.3,3.3-6.4,3.8l-0.9-2c4-0.6,6-2.8,6-4.9v-0.8h2.7v0.8c0,2,2,4.3,6,4.9L175.4,43.3z"/>
	<path class="st1" d="M188.2,45.6c-1.9-0.6-3.3-1.9-4.1-3.4c-0.8,1.7-2.2,3.1-4.2,3.7l-1.3-2c2.9-0.9,4.2-3.2,4.2-5.4v-0.2h-3.5v-2
		h9.5v2h-3.5v0.2c0,2.1,1.3,4.2,4.1,5.1L188.2,45.6z M193.5,50.3v2h-12.1v-5.7h2.5v3.7H193.5z M193.1,47.7h-2.5V35.1h2.5V47.7z"/>
	<path class="st1" d="M209.2,44.7h-8.4v-8.5h2.5v2.3h3.4v-2.3h2.5V44.7z M202.4,46.4h11.7v6.2h-2.5v-4.3h-9.2V46.4z M206.8,40.4
		h-3.4v2.3h3.4V40.4z M216.4,41.4h-2.3v4.2h-2.5V35.1h2.5v4.3h2.3V41.4z"/>
	<path class="st1" d="M227.2,45c-1.9-0.6-3.2-1.9-4-3.4c-0.8,1.8-2.1,3.2-4.2,3.9l-1.3-2c2.8-1,4-3.2,4.1-5.4h-3.4v-2h9.4v2h-3.4
		c0.1,2,1.3,4,4,4.9L227.2,45z M232.5,49.2c0,2.1-2.3,3.4-6,3.4s-6-1.2-6-3.4s2.3-3.4,6-3.4C230.3,45.9,232.5,47.1,232.5,49.2z
		 M230,49.2c0-1-1.2-1.5-3.5-1.5s-3.5,0.5-3.5,1.5s1.2,1.5,3.5,1.5S230,50.2,230,49.2z M229.9,39.3v-4.2h2.5v10.4h-2.5v-4.2h-2.6v-2
		H229.9z"/>
	<path class="st1" d="M235.4,47.6c3.2,0,7.4,0,11.1-0.5l0.2,1.8c-3.9,0.7-7.9,0.7-11,0.7L235.4,47.6z M246.3,39.2h-10.5v-2h4v-1.9
		h2.5v1.9h4V39.2z M241,39.9c2.5,0,4.3,1.3,4.3,3.3s-1.8,3.3-4.3,3.3s-4.3-1.3-4.3-3.3S238.5,39.9,241,39.9z M241,41.8
		c-1.2,0-1.9,0.5-1.9,1.4s0.8,1.4,1.9,1.4c1.1,0,1.9-0.5,1.9-1.4S242.2,41.8,241,41.8z M249.9,35.1v17.5h-2.5V35.1H249.9z"/>
	<path class="st1" d="M266,44.7h-8.4v-8.5h2.5v2.3h3.4v-2.3h2.5V44.7z M259.2,46.4h11.7v6.2h-2.5v-4.3h-9.2V46.4z M263.5,40.4h-3.4
		v2.3h3.4V40.4z M273.2,41.4h-2.3v4.2h-2.5V35.1h2.5v4.3h2.3V41.4z"/>
	<path class="st1" d="M290.4,46.8h-3.7v5.7h-2.5v-5.7h-3.5v5.7h-2.5v-5.7h-3.6v-2h15.8L290.4,46.8L290.4,46.8z M276.1,39.6
		c0-2.4,2.6-3.9,6.3-3.9c3.7,0,6.3,1.5,6.3,3.9s-2.6,3.9-6.3,3.9S276.1,42,276.1,39.6z M278.7,39.6c0,1.3,1.5,1.9,3.8,1.9
		s3.7-0.7,3.7-1.9s-1.5-1.9-3.7-1.9C280.2,37.7,278.7,38.4,278.7,39.6z"/>
	<path class="st1" d="M301.7,45.6c-1.9-0.6-3.3-1.9-4.1-3.4c-0.8,1.7-2.2,3.1-4.2,3.7l-1.3-2c2.9-0.9,4.2-3.2,4.2-5.4v-0.2h-3.5v-2
		h9.5v2h-3.5v0.2c0,2.1,1.3,4.2,4.1,5.1L301.7,45.6z M307,50.3v2h-12.1v-5.7h2.5v3.7H307z M306.6,47.7h-2.5V35.1h2.5V47.7z"/>
	<path class="st1" d="M323,36.1c0,4.7-2.9,7.8-8.2,9.1l-1-2c3.9-1,6.1-2.9,6.4-5.2h-5.4v-2h8.2V36.1z M316.8,45.6h11.6v6.8h-11.6
		V45.6z M319.3,50.4h6.6v-2.9h-6.6V50.4z M328.4,35.1v9.7h-2.5v-9.7H328.4z"/>
	<path class="st1" d="M347.2,43.5v2h-3.7v3.1H341v-3.1h-1.7v3.1h-2.5v-3.1h-5.4v-2H347.2z M332.9,39c0-2.2,2.5-3.6,6.3-3.6
		s6.3,1.4,6.3,3.6c0,2.2-2.5,3.6-6.3,3.6C335.5,42.7,332.9,41.2,332.9,39z M335.6,50.3h10v2h-12.5v-5.1h2.5V50.3z M335.7,39
		c0,1.1,1.4,1.6,3.6,1.6s3.6-0.6,3.6-1.6c0-1.1-1.4-1.6-3.6-1.6S335.7,38,335.7,39z"/>
	<path class="st1" d="M355.6,39.8c0,2.8,1.4,5.9,4.3,7.1l-1.4,2c-2-0.9-3.4-2.6-4.2-4.7c-0.8,2.3-2.2,4.2-4.2,5.1l-1.4-2
		c2.9-1.3,4.4-4.5,4.4-7.5v-1h-3.6v-2.1h9.8v2.1h-3.6L355.6,39.8L355.6,39.8z M363.3,35.1v17.5h-2.5V35.1H363.3z"/>
	<path class="st1" d="M377.6,47.2c1.4-0.1,2.8-0.2,4.1-0.4l0.2,1.8c-3.8,0.8-7.9,0.8-10.9,0.8l-0.3-2c1.3,0,2.8,0,4.4-0.1v-2.7h2.5
		L377.6,47.2L377.6,47.2z M371.1,43.2c2.6-0.7,3.8-2.3,4-4.1h-3.5v-2h3.5v-1.9h2.5v1.9h3.6v2h-3.5c0.2,1.7,1.4,3.2,4,3.9l-1.2,2
		c-2-0.5-3.4-1.6-4.2-3.1c-0.8,1.5-2.2,2.7-4.2,3.2L371.1,43.2z M385.2,35.1v17.6h-2.5V35.1H385.2z"/>
	<path class="st1" d="M403.9,46.8h-3.7v5.7h-2.5v-5.7h-3.5v5.7h-2.5v-5.7h-3.6v-2h15.8L403.9,46.8L403.9,46.8z M389.6,39.6
		c0-2.4,2.6-3.9,6.3-3.9c3.7,0,6.3,1.5,6.3,3.9s-2.6,3.9-6.3,3.9S389.6,42,389.6,39.6z M392.2,39.6c0,1.3,1.5,1.9,3.8,1.9
		s3.7-0.7,3.7-1.9s-1.5-1.9-3.7-1.9C393.7,37.7,392.2,38.4,392.2,39.6z"/>
	<path class="st1" d="M409.1,46.5c2.7,0,4.9-0.2,7.3-0.6l0.3,2c-2.8,0.5-5.4,0.6-8.6,0.6h-1.6v-7.2h5.7v-2.8h-5.7v-2h8.3v6.8h-5.7
		L409.1,46.5L409.1,46.5z M420.1,35.1v17.6h-2.5V35.1H420.1z"/>
	<path class="st1" d="M436.6,36.1c0,4.7-2.9,7.8-8.2,9.1l-0.9-2c3.9-1,6.1-2.9,6.4-5.2h-5.4v-2h8.1V36.1z M430.3,45.6h11.6v6.8
		h-11.6V45.6z M432.8,50.4h6.6v-2.9h-6.6V50.4z M441.9,35.1v9.7h-2.5v-9.7H441.9z"/>
	<path class="st1" d="M451.6,39.8c0,2.8,1.4,5.9,4.3,7.1l-1.4,2c-2-0.9-3.4-2.6-4.2-4.7c-0.8,2.3-2.2,4.2-4.2,5.1l-1.4-2
		c2.9-1.3,4.4-4.5,4.4-7.5v-1h-3.6v-2.1h9.8v2.1h-3.6L451.6,39.8L451.6,39.8z M459.3,35.1v17.5h-2.5V35.1H459.3z"/>
	<path class="st1" d="M478.2,43.5v2h-3.7v3.1H472v-3.1h-1.7v3.1h-2.5v-3.1h-5.4v-2H478.2z M463.9,39c0-2.2,2.5-3.6,6.3-3.6
		s6.3,1.4,6.3,3.6c0,2.2-2.5,3.6-6.3,3.6C466.5,42.7,463.9,41.2,463.9,39z M466.6,50.3h10v2h-12.5v-5.1h2.5V50.3z M466.7,39
		c0,1.1,1.4,1.6,3.6,1.6s3.6-0.6,3.6-1.6c0-1.1-1.4-1.6-3.6-1.6C468,37.4,466.7,38,466.7,39z"/>
	<path class="st1" d="M500,46.8h-3.7v5.7h-2.5v-5.7h-3.5v5.7h-2.5v-5.7h-3.6v-2H500L500,46.8L500,46.8z M485.7,39.6
		c0-2.4,2.6-3.9,6.3-3.9c3.7,0,6.3,1.5,6.3,3.9s-2.6,3.9-6.3,3.9C488.3,43.5,485.7,42,485.7,39.6z M488.2,39.6
		c0,1.3,1.5,1.9,3.8,1.9s3.7-0.7,3.7-1.9s-1.5-1.9-3.7-1.9C489.7,37.7,488.2,38.4,488.2,39.6z"/>
	<path class="st1" d="M510.7,45.5c-1.8-0.7-3.1-1.9-3.8-3.6c-0.7,1.8-2.1,3.2-4.1,4l-1.3-2c2.9-1,4.1-3.4,4.1-5.9v-1.9h2.5V38
		c0,2.3,1.2,4.5,3.9,5.5L510.7,45.5z M516.6,50.3v2h-11.9v-5.6h2.5v3.6H516.6z M513.7,40.8h-3.2v-2h3.2v-3.7h2.5V48h-2.5V40.8z"/>
	<path class="st1" d="M534.9,46.8h-6.7v5.9h-2.5v-5.9h-6.6v-2h15.8V46.8z M519.8,41.8c3.6-0.4,5.4-2.1,5.7-3.8h-5v-2h13v2h-5
		c0.2,1.7,2.1,3.4,5.6,3.8l-0.9,2c-3.1-0.4-5.2-1.7-6.3-3.5c-1,1.8-3.2,3.1-6.2,3.5L519.8,41.8z"/>
</g>
<g class="st0">
	<path class="st1" d="M11.2,104.9c-2.5,0.4-4.7,0.5-8.3,0.5H1.4v-8.6h8.4v2H3.9v1.3h5.4v1.9H3.9v1.4c3,0,4.9-0.1,7.1-0.4L11.2,104.9
		z M3.3,106.8H15v6.2H3.3V106.8z M5.8,111h6.7v-2.3H5.8V111z M15,95.7v10.4h-2.6V95.7H15z"/>
	<path class="st1" d="M27.1,105.6c-1.9-0.6-3.2-1.7-4-3.2c-0.8,1.7-2.2,3.1-4.2,3.8l-1.3-2c2.8-1,4.1-3.2,4.1-5.4h-3.5v-2h9.5v2
		h-3.4c0,2,1.2,4,4,4.8L27.1,105.6z M31.9,109.8c0,2.1-2.3,3.4-5.9,3.4s-5.9-1.3-5.9-3.4s2.3-3.4,5.9-3.4S31.9,107.7,31.9,109.8z
		 M29.4,109.8c0-1-1.2-1.5-3.4-1.5s-3.4,0.5-3.4,1.5s1.2,1.5,3.4,1.5S29.4,110.8,29.4,109.8z M34,99.7v2.1h-2.3v4.3h-2.5V95.7h2.5v4
		H34z"/>
	<path class="st1" d="M40.8,107.6c1.7-0.1,3.4-0.2,5-0.4l0.1,1.8c-3.6,0.6-7.5,0.7-10.5,0.7l-0.2-2.1c1,0,2,0,3.1,0v-5.2h2.5
		C40.8,102.4,40.8,107.6,40.8,107.6z M42.2,105.4c0.4-2.5,0.5-4.4,0.5-5.9h-6.5v-2h9v1.4c0,1.7,0,3.8-0.5,6.7L42.2,105.4z
		 M51.5,104.8h-2.4v8.4h-2.5V95.7h2.5v7h2.4V104.8z"/>
	<path class="st1" d="M73,107.8h-6.7v5.5h-2.5v-5.5h-6.6v-2H73V107.8z M71.1,104.1H59v-7.8h2.5v2h7.2v-2h2.5L71.1,104.1L71.1,104.1z
		 M68.7,100.3h-7.2v1.8h7.2V100.3z"/>
	<path class="st1" d="M85.4,104.9c-2.5,0.4-4.7,0.5-8.3,0.5h-1.5v-8.6H84v2h-5.9v1.3h5.4v1.9h-5.4v1.4c3,0,4.9-0.1,7.1-0.4
		L85.4,104.9z M77.5,106.8h11.6v6.2H77.5V106.8z M80,111h6.7v-2.3H80V111z M89.2,95.7v10.4h-2.5V95.7H89.2z"/>
	<path class="st1" d="M101.4,105.6c-1.9-0.6-3.2-1.7-4-3.2c-0.8,1.7-2.2,3.1-4.2,3.8l-1.3-2c2.8-1,4.1-3.2,4.1-5.4h-3.5v-2h9.5v2
		h-3.4c0,2,1.2,4,4,4.8L101.4,105.6z M106.1,109.8c0,2.1-2.3,3.4-5.9,3.4s-5.9-1.3-5.9-3.4s2.3-3.4,5.9-3.4S106.1,107.7,106.1,109.8
		z M103.6,109.8c0-1-1.2-1.5-3.4-1.5c-2.2,0-3.4,0.5-3.4,1.5s1.2,1.5,3.4,1.5C102.4,111.3,103.6,110.8,103.6,109.8z M108.2,99.7v2.1
		h-2.3v4.3h-2.5V95.7h2.5v4H108.2z"/>
	<path class="st1" d="M125.4,102.8v2h-15.8v-2H125.4z M111.2,98.9c0-1.9,2.3-3,6.3-3s6.3,1.1,6.3,3s-2.3,3-6.3,3
		S111.2,100.9,111.2,98.9z M113.9,111.2h10v1.9h-12.5v-4.6h9.6v-0.9h-9.6v-1.8h12.1v4.5h-9.6V111.2z M113.8,98.9
		c0,0.8,1.2,1.2,3.7,1.2s3.7-0.3,3.7-1.2c0-0.8-1.2-1.1-3.7-1.1C115,97.8,113.8,98.2,113.8,98.9z"/>
	<path class="st1" d="M147.2,107.4h-6.7v5.9H138v-5.9h-6.6v-2h15.8V107.4z M132.2,102.4c3.6-0.4,5.4-2.1,5.7-3.8h-5v-2h13v2h-5
		c0.2,1.7,2.1,3.4,5.6,3.8l-0.9,2c-3.1-0.4-5.2-1.7-6.2-3.5c-1,1.8-3.2,3.1-6.2,3.5L132.2,102.4z"/>
	<path class="st1" d="M162.3,106.3v1.5h4.8v5.4h-2.5v-3.4h-9.7v-2h4.9v-1.5h-6.6v-2H169v2H162.3z M153.9,101.8
		c3.8-0.2,5.5-1.4,5.8-2.6h-5v-1.9h5.1v-1.6h2.5v1.6h5.1v1.9h-5c0.3,1.2,2,2.3,5.8,2.6l-0.7,1.9c-3.2-0.2-5.4-1.1-6.5-2.5
		c-1.1,1.4-3.3,2.3-6.5,2.5L153.9,101.8z"/>
	<path class="st1" d="M186.5,109.1v2.1h-15.8v-2.1H186.5z M185.1,101.7c0,3-2.8,5.1-6.5,5.1s-6.5-2-6.5-5.1s2.8-5.1,6.5-5.1
		C182.3,96.6,185.1,98.6,185.1,101.7z M174.5,101.7c0,1.9,1.7,3,4.1,3c2.4,0,4.1-1.1,4.1-3s-1.7-3-4.1-3
		C176.2,98.6,174.5,99.8,174.5,101.7z"/>
	<path class="st1" d="M204,109.2v2.1h-15.8v-2.1h6.6v-2.6H190v-5.9h9.8v-1.9H190v-2h12.3v5.8h-9.7v2h10.1v2h-5.3v2.6H204z"/>
	<path class="st1" d="M219.3,97.5c0,5.4-1.8,9.7-8,12.7l-1.3-2c4.5-2.1,6.4-4.9,6.8-8.8H211v-2h8.3V97.5z M224.5,95.7v17.5H222V95.7
		H224.5z"/>
	<path class="st1" d="M233.8,100.4c0,2.7,1.4,5.8,4.3,7.1l-1.4,2c-1.9-0.9-3.3-2.6-4.1-4.7c-0.8,2.3-2.2,4.2-4.2,5.1l-1.4-2
		c2.9-1.3,4.3-4.6,4.3-7.5v-1h-3.6v-2.1h9.6v2.1h-3.5V100.4z M243.7,104.5h-2.5v8.8h-2.5V95.7h2.5v6.7h2.5V104.5z"/>
	<path class="st1" d="M260,95.7v17.5h-2.3v-8.7h-1.4v8H254v-5.1l-1.4,1.9c-1.6-0.8-2.6-2.2-3.2-4c-0.6,2-1.6,3.7-3.2,4.6l-1.5-1.9
		c2.6-1.5,3.4-4.6,3.4-8v-0.5h-2.9v-2h7.9v2h-2.6v0.5c0,3.1,0.9,6,3.5,7.3V96h2.3v6.4h1.4v-6.7C257.7,95.7,260,95.7,260,95.7z"/>
	<path class="st1" d="M277.5,104.9c-2.5,0.4-4.7,0.5-8.3,0.5h-1.5v-8.6h8.4v2h-5.9v1.3h5.4v1.9h-5.4v1.4c3,0,4.9-0.1,7.1-0.4
		L277.5,104.9z M269.6,106.8h11.6v6.2h-11.6V106.8z M272.1,111h6.7v-2.3h-6.7V111z M281.2,95.7v10.4h-2.5V95.7H281.2z"/>
	<path class="st1" d="M284.4,114.1c1.5-0.6,2.3-1.5,2.3-2.6c-0.1,0-0.1,0-0.2,0c-0.9,0-1.7-0.6-1.7-1.7c0-1,0.8-1.7,1.8-1.7
		c1.3,0,2,1,2,2.8c0,2.2-1.3,3.9-3.6,4.7L284.4,114.1z"/>
	<path class="st1" d="M301.5,107.6c1.4-0.1,2.9-0.2,4.3-0.4l0.2,1.8c-3.8,0.8-7.9,0.8-10.9,0.8l-0.3-2c1.3,0,2.8,0,4.3,0v-2.5
		c-2.1-0.5-3.6-2.1-3.6-4.2c0-2.5,2.1-4.3,4.8-4.3c2.7,0,4.8,1.8,4.8,4.3c0,2.1-1.5,3.7-3.6,4.2L301.5,107.6L301.5,107.6z
		 M300.3,103.2c1.3,0,2.4-0.8,2.4-2.2c0-1.4-1-2.2-2.4-2.2c-1.3,0-2.4,0.8-2.4,2.2C297.9,102.4,298.9,103.2,300.3,103.2z
		 M309.3,95.7v17.6h-2.5V95.7H309.3z"/>
	<path class="st1" d="M328,107.8h-6.7v5.5h-2.5v-5.5h-6.6v-2H328L328,107.8L328,107.8z M326.1,104.1h-12.2v-7.8h2.5v2h7.2v-2h2.5
		V104.1z M323.6,100.3h-7.2v1.8h7.2V100.3z"/>
	<path class="st1" d="M344.3,95.7v9.4h-2.6v-3.5h-2.8c-0.5,1.9-2.3,3.2-4.5,3.2c-2.6,0-4.6-1.7-4.6-4.2s2-4.2,4.6-4.2
		c2.2,0,4,1.3,4.5,3.1h2.8v-3.9L344.3,95.7L344.3,95.7z M336.7,100.6c0-1.3-0.9-2.1-2.2-2.1c-1.3,0-2.2,0.8-2.2,2.1
		c0,1.3,0.9,2.1,2.2,2.1C335.7,102.7,336.7,101.9,336.7,100.6z M341.8,105.9h2.5v7.1h-11.6v-7.1h2.5v1.7h6.6V105.9z M341.8,109.5
		h-6.6v1.6h6.6V109.5z"/>
	<path class="st1" d="M352.5,101c0,2.6,0.9,5.3,3.4,6.6l-1.3,1.9c-1.5-0.8-2.5-2.2-3.2-3.9c-0.6,1.8-1.6,3.4-3.2,4.3l-1.4-1.9
		c2.5-1.5,3.4-4.3,3.4-7v-0.4h-2.7v-2h2.7v-2.4h2.4v2.4h2.7v2h-2.7L352.5,101L352.5,101z M356.2,96h2.3v16.4h-2.3v-8.1h-2v-2h2V96z
		 M362.1,95.7v17.5h-2.4V95.7H362.1z"/>
	<path class="st1" d="M379.7,104.9c-2.5,0.4-4.7,0.5-8.3,0.5h-1.5v-8.6h8.4v2h-5.9v1.3h5.4v1.9h-5.4v1.4c3,0,4.9-0.1,7.1-0.4
		L379.7,104.9z M371.8,106.8h11.6v6.2h-11.6V106.8z M374.3,111h6.7v-2.3h-6.7V111z M383.4,95.7v10.4h-2.5V95.7H383.4z"/>
	<path class="st1" d="M386.6,114.1c1.5-0.6,2.3-1.5,2.3-2.6c-0.1,0-0.1,0-0.2,0c-0.9,0-1.7-0.6-1.7-1.7c0-1,0.8-1.7,1.8-1.7
		c1.3,0,2,1,2,2.8c0,2.2-1.3,3.9-3.6,4.7L386.6,114.1z"/>
	<path class="st1" d="M406.5,99.5h-9.6v-2h3.7v-1.9h2.5v1.9h3.4V99.5z M401.8,107c-2.4,0-4.1-1.4-4.1-3.5c0-2,1.7-3.4,4.1-3.4
		s4.1,1.4,4.1,3.4C405.9,105.6,404.2,107,401.8,107z M411.9,110.9v2H400V108h2.5v2.9H411.9z M401.8,105.1c1,0,1.7-0.5,1.7-1.5
		s-0.7-1.5-1.7-1.5s-1.7,0.6-1.7,1.5C400.1,104.6,400.8,105.1,401.8,105.1z M409,105.8h-2.3v-2h2.3v-1.7h-2.3v-2h2.3v-4.3h2.5v13.3
		H409V105.8z"/>
	<path class="st1" d="M430.2,107.3h-6.7v6H421v-6h-6.6v-2h15.8L430.2,107.3L430.2,107.3z M428.7,103.9c-3.1-0.5-5.2-1.9-6.4-3.8
		c-1.1,1.9-3.3,3.3-6.4,3.8l-1-2c4-0.6,6-2.8,6-4.9v-0.8h2.7V97c0,2,2,4.3,6,4.9L428.7,103.9z"/>
	<path class="st1" d="M440.7,105.1h-8.3V97h8.3V105.1z M433.9,106.9h11.7v6.4h-2.5v-4.4h-9.2V106.9z M438.2,98.9h-3.4v4.2h3.4V98.9z
		 M447.9,101.9h-2.3v4.2h-2.5V95.7h2.5v4.2h2.3V101.9z"/>
	<path class="st1" d="M464.4,104.9c-2.5,0.4-4.7,0.5-8.3,0.5h-1.5v-8.6h8.4v2h-5.9v1.3h5.4v1.9h-5.4v1.4c3,0,4.9-0.1,7.1-0.4
		L464.4,104.9z M456.5,106.8h11.6v6.2h-11.6V106.8z M459,111h6.7v-2.3H459V111z M468.2,95.7v10.4h-2.5V95.7H468.2z"/>
	<path class="st1" d="M471.3,114.1c1.5-0.6,2.3-1.5,2.3-2.6c-0.1,0-0.1,0-0.2,0c-0.9,0-1.7-0.6-1.7-1.7c0-1,0.8-1.7,1.8-1.7
		c1.3,0,2,1,2,2.8c0,2.2-1.3,3.9-3.6,4.7L471.3,114.1z"/>
	<path class="st1" d="M497.4,104v2h-15.8v-2h3.6v-2.1c-1.3-0.6-2-1.4-2-2.6c0-2.1,2.5-3.4,6.3-3.4c3.9,0,6.3,1.3,6.3,3.4
		c0,1.1-0.7,2-2,2.6v2.1H497.4z M495.5,110c0,2-2.3,3.2-6.1,3.2s-6.1-1.2-6.1-3.2s2.3-3.2,6.1-3.2S495.5,108,495.5,110z M485.8,99.3
		c0,1,1.4,1.4,3.7,1.4c2.4,0,3.8-0.5,3.8-1.4c0-1-1.4-1.5-3.8-1.5C487.1,97.9,485.8,98.4,485.8,99.3z M493,110
		c0-0.9-1.2-1.3-3.5-1.3s-3.5,0.4-3.5,1.3s1.2,1.3,3.5,1.3S493,110.9,493,110z M487.7,104h3.6v-1.4c-0.6,0.1-1.2,0.1-1.8,0.1
		c-0.7,0-1.3,0-1.8-0.1L487.7,104L487.7,104z"/>
	<path class="st1" d="M509.2,103.5c-2.3,0.5-4.4,0.6-8.1,0.6h-1.4v-7.4h7.8v2h-5.3v3.5c3,0,4.8-0.2,6.8-0.6L509.2,103.5z M503.8,111
		h9.5v2h-12v-4.9h9.1v-1h-9.1v-2h11.5v4.8h-9V111z M515.2,99v2h-2.3v3.3h-2.5v-8.7h2.5V99H515.2z"/>
	<path class="st1" d="M531.7,104.9c-2.5,0.4-4.7,0.5-8.3,0.5h-1.5v-8.6h8.4v2h-5.9v1.3h5.4v1.9h-5.4v1.4c3,0,4.9-0.1,7.1-0.4
		L531.7,104.9z M523.8,106.8h11.6v6.2h-11.6V106.8z M526.2,111h6.7v-2.3h-6.7V111z M535.4,95.7v10.4h-2.5V95.7H535.4z"/>
	<path class="st1" d="M554.2,109.1v2.1h-15.8v-2.1H554.2z M552.8,101.7c0,3-2.8,5.1-6.5,5.1s-6.5-2-6.5-5.1s2.8-5.1,6.5-5.1
		C549.9,96.6,552.8,98.6,552.8,101.7z M542.2,101.7c0,1.9,1.7,3,4.1,3c2.4,0,4.1-1.1,4.1-3s-1.7-3-4.1-3
		C543.9,98.6,542.2,99.8,542.2,101.7z"/>
	<path class="st1" d="M571.7,109.2v2.1h-15.8v-2.1h6.6v-2.6h-4.8v-5.9h9.8v-1.9h-9.8v-2H570v5.8h-9.7v2h10.1v2h-5.3v2.6H571.7z"/>
</g>
<g class="st0">
	<path class="st1" d="M151.6,137.2h-6.7v7h-2.5v-7h-6.5v-2h11c0.4-2.2,0.5-3.9,0.5-5.4h-9.8v-2h12.1v1.6c0,1.6,0,3.4-0.4,5.9h2.3
		L151.6,137.2L151.6,137.2z"/>
	<path class="st1" d="M162.5,136.4c-1.8-0.6-3.1-1.8-3.8-3.4c-0.8,1.8-2.2,3.2-4.2,3.9l-1.3-2c3-0.9,4.2-3.3,4.2-5.7v-1.6h2.5v1.4
		c0,2.4,1.1,4.5,3.9,5.4L162.5,136.4z M168,140.8c0,2.1-2.3,3.4-6,3.4s-6-1.3-6-3.4c0-2.2,2.3-3.4,6-3.4
		C165.7,137.4,168,138.7,168,140.8z M165.5,140.8c0-1-1.2-1.5-3.5-1.5s-3.5,0.5-3.5,1.5s1.2,1.5,3.5,1.5S165.5,141.8,165.5,140.8z
		 M165.4,131.9h-3.2v-2h3.2v-3.2h2.5V137h-2.5V131.9z"/>
	<path class="st1" d="M176.2,129.4h2.9v2h-8.4v-2h3v-2.2h2.5V129.4z M178.8,136.3c0,2.4-1.6,4.2-3.8,4.2s-3.8-1.7-3.8-4.2
		s1.6-4.2,3.8-4.2S178.8,133.8,178.8,136.3z M176.6,136.3c0-1.3-0.7-2.1-1.6-2.1c-0.9,0-1.6,0.8-1.6,2.1s0.7,2.1,1.6,2.1
		C175.9,138.4,176.6,137.6,176.6,136.3z M185.7,126.7v17.5h-2.4v-8.3H182v7.6h-2.3V127h2.3v6.8h1.3v-7.1
		C183.3,126.7,185.7,126.7,185.7,126.7z"/>
	<path class="st1" d="M201.9,137.2c-1.9-0.6-3.2-1.9-4-3.5c-0.8,1.7-2.1,3.1-4.2,3.8l-1.3-2c2.9-0.9,4.1-3.2,4.1-5.4v-0.2h-3.4v-2
		h9.4v2h-3.4v0.2c0,2.1,1.2,4.2,4,5.1L201.9,137.2z M207.6,141.9v2h-12v-5.5h2.5v3.5H207.6z M204.7,131.2v-4.5h2.5v12.8h-2.5v-6.2
		H202v-2h2.7V131.2z"/>
	<path class="st1" d="M216.8,130.6c0,3.2,1.4,6.4,4.4,7.7l-1.4,2c-2-0.9-3.4-2.6-4.1-4.8c-0.8,2.3-2.2,4.2-4.3,5.2l-1.5-2.1
		c3.1-1.3,4.5-4.7,4.5-8.1V128h2.5L216.8,130.6L216.8,130.6z M224.5,126.7v17.6H222v-17.6C222,126.7,224.5,126.7,224.5,126.7z"/>
	<path class="st1" d="M241,135.4c-1.8-0.6-3.1-1.7-3.9-3.2c-0.8,1.6-2.1,2.9-4.1,3.6l-1.3-2c2.9-0.9,4.1-3,4.1-5.2v-1.3h2.5v1.3
		c0,2.1,1.2,4.1,3.9,4.9L241,135.4z M246.9,142.1v2h-12v-4.8h9v-1h-9.1v-1.9h11.5v4.7h-9v1H246.9z M243.9,131.3h-3.2v-2h3.2v-2.6
		h2.5v8.9h-2.5V131.3z"/>
	<path class="st1" d="M256.1,132.2c0,2.5,1.4,5.4,4.3,6.6l-1.3,1.9c-2-0.8-3.4-2.5-4.1-4.5c-0.8,2.1-2.2,3.9-4.2,4.8l-1.3-1.9
		c2.9-1.3,4.2-4.3,4.2-6.9v-0.6h-3.6v-2h3.6v-2.4h2.5v2.4h3.6v2h-3.6v0.6H256.1z M263.8,126.7v17.5h-2.5v-17.5H263.8z"/>
	<path class="st1" d="M282.6,134.6v1.8h-15.8v-1.8H282.6z M271.1,142.4h10.1v1.7h-12.6v-4.2h9.7V139h-9.7v-1.7h12.2v4.2h-9.7V142.4z
		 M278.2,128.7h-9.5V127h12v4.1h-9.5v0.9h9.8v1.7h-12.2v-4.2h9.5L278.2,128.7L278.2,128.7z"/>
	<path class="st1" d="M304.4,135.4v2h-6.5v3h-2.5v-3h-6.9v-2H304.4z M289.3,132.6c3.4-0.4,5.1-1.8,5.4-3.2H290v-2h13v2h-4.7
		c0.3,1.4,2,2.8,5.4,3.2l-0.9,2c-3.2-0.4-5.4-1.7-6.3-3.5c-0.9,1.8-3,3.1-6.3,3.5L289.3,132.6z M292.9,141.9h9.7v2h-12.3v-5h2.5
		L292.9,141.9L292.9,141.9z"/>
	<path class="st1" d="M309.4,128.1v4.2h3.6v-4.2h2.5v12.1h-8.6v-12.1H309.4z M309.4,138.2h3.6v-3.9h-3.6V138.2z M320.5,126.7v17.6
		H318v-17.6C318,126.7,320.5,126.7,320.5,126.7z"/>
	<path class="st1" d="M329.8,129.3h3.8v2h-10.2v-2h3.9V127h2.5L329.8,129.3L329.8,129.3z M333,136.4c0,2.5-1.9,4.2-4.4,4.2
		s-4.4-1.7-4.4-4.2c0-2.4,1.9-4.2,4.4-4.2C331.1,132.3,333,134,333,136.4z M330.6,136.4c0-1.3-0.9-2.1-2-2.1s-2.1,0.8-2.1,2.1
		s0.9,2.1,2.1,2.1S330.6,137.8,330.6,136.4z M339.8,135.6h-2.5v8.6h-2.5v-17.5h2.5v6.8h2.5V135.6z"/>
	<path class="st1" d="M356.8,140.1v2H341v-2h5.6v-6h2.5v6H356.8z M352.1,138c0.7-3.3,0.7-5.7,0.7-7.8h-10.2v-2h12.7v1.7
		c0,2.2,0,4.7-0.7,8.4L352.1,138z"/>
	<path class="st1" d="M363,131.8c0-2.5,2.1-4.2,4.8-4.2c2.7,0,4.8,1.7,4.8,4.2s-2,4.2-4.8,4.2C365.1,136,363,134.3,363,131.8z
		 M375.6,137.9c0,1.8,1,3.5,3.3,4.2l-1.3,1.9c-1.7-0.6-2.7-1.6-3.3-2.9c-0.6,1.3-1.6,2.5-3.2,3.1c-1.6-0.6-2.6-1.7-3.2-3.1
		c-0.6,1.3-1.7,2.3-3.2,2.9l-1.2-1.8c2.3-0.8,3.3-2.5,3.3-4.2v-0.6h2.4v0.6c0,1.4,0.6,2.8,1.9,3.8c1.4-1,2-2.5,2-3.8v-0.6h2.5
		L375.6,137.9L375.6,137.9z M365.5,131.8c0,1.3,1,2.1,2.3,2.1s2.3-0.8,2.3-2.1s-1-2.1-2.3-2.1S365.5,130.5,365.5,131.8z
		 M377.3,136.6h-2.5v-9.9h2.5V136.6z"/>
	<path class="st1" d="M396.1,134.4v2h-15.8v-2H396.1z M394.4,133.6c-3-0.4-5.1-1.6-6.2-3.3c-1.1,1.7-3.3,2.9-6.2,3.3l-0.9-1.9
		c3.9-0.5,5.8-2.4,5.8-4.2V127h2.6v0.5c0,1.8,1.9,3.7,5.8,4.2L394.4,133.6z M391.6,137.2h2.5v6.8h-12v-6.8h2.5v1.5h7V137.2z
		 M391.6,140.5h-7v1.5h7V140.5z"/>
	<path class="st1" d="M401.2,137.8c2.3-0.1,4.8-0.2,7.4-0.8l0.3,2.1c-3,0.6-5.9,0.8-8.5,0.8h-1.6v-11.5h2.5L401.2,137.8L401.2,137.8
		z M412.4,126.7v17.5h-2.5v-17.5H412.4z"/>
	<path class="st1" d="M418.4,138c2.5,0,4.6-0.2,6.8-0.6l0.2,2.1c-2.6,0.5-5,0.6-8.1,0.6h-1.5v-11.7h8.2v2h-5.7v7.6H418.4z
		 M431.5,135.2H429v9h-2.5v-17.5h2.5v6.5h2.5V135.2z"/>
	<path class="st1" d="M433.7,141c0-1,0.7-1.8,1.7-1.8s1.7,0.8,1.7,1.8s-0.8,1.8-1.7,1.8C434.4,142.8,433.7,142,433.7,141z
		 M434.1,130.8l-0.1-2.6h2.8l-0.1,2.6l-0.4,7h-1.8L434.1,130.8z"/>
</g>
<g class="st0">
	<path class="st1" d="M133.5,171.6v2h-15.9v-2h6.7v-4h-4.9v-8.2h2.5v6.2h9.9v2h-5v4H133.5z"/>
	<path class="st1" d="M144.3,168c-2,0.4-3.8,0.4-7.2,0.4h-1.3v-5.7h5.2V161h-5.2v-2h7.7v5.5h-5.1v1.8c2.5,0,4-0.1,5.8-0.4L144.3,168
		z M137.8,169.6h12v5.9h-2.5v-4h-9.5V169.6z M149.7,158.1v10.8h-2.5v-2.6h-2.8v-2h2.8v-1.7h-2.8v-2h2.8v-2.4L149.7,158.1z"/>
	<path class="st1" d="M162.9,161.9h-10.3v-2h3.9V158h2.5v1.9h3.9L162.9,161.9z M157.7,169.2c-2.5,0-4.3-1.4-4.3-3.4s1.8-3.4,4.3-3.4
		s4.3,1.4,4.3,3.4C162,167.9,160.3,169.2,157.7,169.2z M157.6,173.3h9.4v2h-11.9v-5.1h2.5V173.3z M157.7,167.3
		c1.1,0,1.9-0.5,1.9-1.5c0-0.9-0.8-1.5-1.9-1.5c-1.1,0-1.9,0.5-1.9,1.5C155.8,166.8,156.6,167.3,157.7,167.3z M168.7,163.4v2.1h-2.3
		v5.7h-2.5v-13.1h2.5v5.3H168.7z"/>
	<path class="st1" d="M183.2,167.9h-8.3v-8.4h8.3V167.9z M179.4,173.3h9.4v2h-11.9v-5.7h2.5V173.3z M180.8,161.5h-3.4v4.5h3.4V161.5
		z M190.5,163.1v2.1h-2.3v5.7h-2.5v-12.8h2.5v5.1h2.3V163.1z"/>
	<path class="st1" d="M207.7,165.8v2h-15.8v-2h11c0.2-0.7,0.2-1.3,0.3-1.9l-9.6,0.4l-0.3-2l10-0.2c0-0.5,0-1,0-1.4h-9.6v-2h12v1.6
		c0,1.6,0,3.3-0.4,5.6h2.4V165.8z M193.7,169.2h12v6.1h-12V169.2z M196.2,173.4h7.1v-2.2h-7.1V173.4z"/>
	<path class="st1" d="M222.6,167.3h-8.2v-8h8.2v2.9h3.2v-4.1h2.5v11.7h-2.5v-5.5h-3.2V167.3z M223.7,169.2c0,1.8,1.8,3.8,5.5,4.3
		l-0.9,2c-2.8-0.4-4.9-1.7-5.9-3.4c-1,1.7-3,2.9-5.9,3.4l-0.9-2c3.7-0.5,5.5-2.6,5.5-4.3v-0.5h2.6L223.7,169.2L223.7,169.2z
		 M220.2,161.3h-3.3v4.1h3.3V161.3z"/>
	<path class="st1" d="M240.8,168.5c-1.9-0.6-3.3-1.9-4.1-3.4c-0.8,1.7-2.2,3.1-4.2,3.7l-1.3-2c2.9-0.9,4.2-3.2,4.2-5.4v-0.2h-3.5v-2
		h9.5v2h-3.5v0.2c0,2.1,1.3,4.2,4.1,5.1L240.8,168.5z M246.1,173.3v2H234v-5.7h2.5v3.7H246.1z M245.7,170.7h-2.5V158h2.5V170.7z"/>
	<path class="st1" d="M262.3,168.6c-1.9-0.6-3.2-1.9-4-3.5c-0.8,1.7-2.1,3.1-4.2,3.8l-1.3-2c2.9-0.9,4.1-3.2,4.1-5.4v-0.2h-3.4v-2
		h9.4v2h-3.4v0.2c0,2.1,1.2,4.2,4,5.1L262.3,168.6z M268,173.3v2h-11.9v-5.5h2.5v3.5H268z M265.1,162.6v-4.5h2.5v12.8h-2.5v-6.2
		h-2.7v-2h2.7V162.6z"/>
	<path class="st1" d="M277.2,162c0,3.2,1.4,6.4,4.4,7.7l-1.4,2c-2-0.9-3.4-2.6-4.1-4.8c-0.8,2.3-2.2,4.2-4.3,5.2l-1.5-2.1
		c3.1-1.3,4.5-4.7,4.5-8.1v-2.5h2.5v2.6H277.2z M284.9,158v17.6h-2.5V158H284.9z"/>
	<path class="st1" d="M296.9,159.8c0,5.2-2,9.7-7.8,12.7l-1.4-1.9c4.1-2.1,6.2-4.9,6.7-8.7h-5.7v-2h8.2V159.8z M304,166.8h-2.4v8.7
		h-2.5V158h2.5v6.7h2.5v2.1H304z"/>
	<path class="st1" d="M321,166.5c-3.7,0.5-7.6,0.6-10.9,0.6l-0.3-1.9c1.4,0,2.9,0,4.4-0.1V164h-2.9v-5.3h8.3v1.9h-5.8v1.5h5.9v1.9
		h-3v1.1c1.4-0.1,2.8-0.2,4.1-0.3L321,166.5z M324.7,173.5v1.9h-12.3v-4.7h9.4v-0.9h-9.4v-1.9h11.9v4.7h-9.4v1h9.8V173.5z
		 M324.3,167.2h-2.5V158h2.5V167.2z"/>
	<path class="st1" d="M347.3,169.6h-6.7v6h-2.5v-6h-6.6v-2h15.8L347.3,169.6L347.3,169.6z M345.8,166.3c-3.1-0.5-5.2-1.9-6.4-3.8
		c-1.1,1.9-3.3,3.3-6.4,3.8l-1-2c4-0.6,6-2.8,6-4.9v-0.8h2.7v0.8c0,2,2,4.3,6,4.9L345.8,166.3z"/>
	<path class="st1" d="M353.5,163.1c0-2.5,2.1-4.2,4.8-4.2c2.7,0,4.8,1.7,4.8,4.2s-2,4.2-4.8,4.2
		C355.6,167.3,353.5,165.6,353.5,163.1z M366,169.3c0,1.8,1,3.5,3.3,4.2l-1.2,1.8c-1.7-0.6-2.7-1.6-3.3-2.9
		c-0.6,1.3-1.6,2.5-3.2,3.1c-1.6-0.6-2.6-1.7-3.2-3.1c-0.6,1.3-1.7,2.3-3.2,2.9l-1.2-1.8c2.3-0.8,3.3-2.5,3.3-4.2v-0.6h2.4v0.6
		c0,1.4,0.6,2.8,1.9,3.8c1.4-1,2-2.5,2-3.8v-0.6h2.5L366,169.3L366,169.3z M356,163.1c0,1.3,1,2.1,2.3,2.1s2.3-0.8,2.3-2.1
		s-1-2.1-2.3-2.1C356.9,161,356,161.8,356,163.1z M367.8,168h-2.5v-9.9h2.5V168z"/>
	<path class="st1" d="M380,158.7c0,4.8-2.6,7.4-8.2,8.5l-0.9-2c4.3-0.8,6-2.4,6.2-4.5h-5.3v-2H380z M385.7,173.4v1.9h-12.1v-4.9h9.1
		v-1h-9.1v-1.9h11.7v4.7h-9.1v1.1L385.7,173.4L385.7,173.4z M385.3,166.8h-2.5V158h2.5V166.8z"/>
	<path class="st1" d="M388.4,176.4c1.5-0.6,2.3-1.5,2.3-2.6c-0.1,0-0.1,0-0.2,0c-0.9,0-1.7-0.6-1.7-1.7c0-1,0.8-1.7,1.8-1.7
		c1.3,0,2,1,2,2.8c0,2.2-1.3,3.9-3.6,4.7L388.4,176.4z"/>
	<path class="st1" d="M407.1,169.2c0.7-0.1,1.4-0.1,2-0.2l0.2,1.8c-3.6,0.6-7.5,0.7-10.5,0.7l-0.3-2.1c0.6,0,1.3,0,2,0v-7.8H399v-2
		h9.7v2h-1.5v7.6H407.1z M402.9,169.5c0.6,0,1.2,0,1.8-0.1v-7.7h-1.8V169.5z M415,166.7h-2.5v8.8H410V158h2.5v6.6h2.5V166.7z"/>
	<path class="st1" d="M425.9,165.5c0,3.9-2,6.3-4.6,6.3s-4.6-2.4-4.6-6.3c0-3.8,2-6.2,4.6-6.2S425.9,161.7,425.9,165.5z
		 M419.1,165.5c0,2.6,0.9,4,2.2,4s2.2-1.4,2.2-4s-0.9-4-2.2-4S419.1,162.9,419.1,165.5z M430.7,158v17.6h-2.5V158H430.7z"/>
	<path class="st1" d="M444.5,167.4c-2.5,0.4-4.7,0.5-8.3,0.5h-1.6v-8.6h8.4v2h-5.9v1.3h5.4v1.9h-5.4v1.4c3,0,4.9-0.1,7.1-0.4
		L444.5,167.4z M448.3,172.2c0,2.1-2.3,3.3-6,3.3s-6-1.2-6-3.3s2.3-3.3,6-3.3C446,168.9,448.3,170.1,448.3,172.2z M445.8,172.2
		c0-1-1.2-1.4-3.5-1.4s-3.5,0.5-3.5,1.4c0,1,1.2,1.4,3.5,1.4C444.6,173.6,445.8,173.2,445.8,172.2z M448.2,168.7h-2.5v-10.6h2.5
		V168.7z"/>
	<path class="st1" d="M452.1,172.4c0-1,0.7-1.8,1.7-1.8s1.7,0.8,1.7,1.8s-0.8,1.8-1.7,1.8S452.1,173.4,452.1,172.4z M452.6,162.1
		l-0.1-2.6h2.8l-0.1,2.6l-0.4,7H453L452.6,162.1z"/>
</g>
</svg>
