<?xml version="1.0" encoding="utf-8"?>
<!-- Generator: Adobe Illustrator 21.0.0, SVG Export Plug-In . SVG Version: 6.00 Build 0)  -->
<svg version="1.1" id="레이어_1" xmlns="http://www.w3.org/2000/svg" xmlns:xlink="http://www.w3.org/1999/xlink" x="0px"
	 y="0px" viewBox="0 0 565 239.6" style="enable-background:new 0 0 565 239.6;" xml:space="preserve">
<style type="text/css">
	.st0{enable-background:new    ;}
	.st1{fill:#080808;}
</style>
<g class="st0">
	<path class="st1" d="M243,15.3c-2.5,0.4-4.7,0.5-8.3,0.5h-1.5V7.1h8.4v2h-5.9v1.3h5.4v1.9h-5.4v1.4c3,0,4.9-0.1,7.1-0.4L243,15.3z
		 M235.1,17.3h11.6v6.2h-11.6V17.3z M237.6,21.5h6.7v-2.3h-6.7V21.5z M246.8,6.2v10.4h-2.5V6.2H246.8z"/>
	<path class="st1" d="M258.7,15.4h-8.2V7.4h8.2v1.3h3.2V6.1h2.5v10.3h-2.5v-2.2h-3.2V15.4z M264.4,20.2c0,2.1-2.3,3.4-6,3.4
		c-3.7,0-6-1.3-6-3.4s2.3-3.4,6-3.4C262.1,16.8,264.4,18.1,264.4,20.2z M256.2,9.4h-3.3v4.1h3.3V9.4z M261.9,20.2
		c0-1-1.2-1.5-3.5-1.5c-2.3,0-3.5,0.5-3.5,1.5s1.2,1.5,3.5,1.5C260.7,21.7,261.9,21.2,261.9,20.2z M258.7,10.7v1.5h3.2v-1.5H258.7z"
		/>
	<path class="st1" d="M272,13.2c0-1,0.7-1.8,1.7-1.8c1,0,1.7,0.8,1.7,1.8c0,1-0.7,1.8-1.7,1.8C272.8,15,272,14.3,272,13.2z
		 M272,20.4c0-1,0.7-1.8,1.7-1.8c1,0,1.7,0.8,1.7,1.8c0,1-0.7,1.8-1.7,1.8C272.8,22.3,272,21.5,272,20.4z"/>
	<path class="st1" d="M297.8,19.6v2.1H282v-2.1h6.6V16h-4.8V7.3H296v2h-9.7v4.6h9.8v2h-5v3.6H297.8z"/>
	<path class="st1" d="M315.3,19.7v2.1h-15.8v-2.1h6.6v-2.6h-4.8v-5.9h9.8V9.3h-9.8v-2h12.3v5.8h-9.7v2h10.1v2h-5.3v2.6H315.3z"/>
	<path class="st1" d="M332.8,15.5v2h-15.8v-2h6.7v-1.3h-4.7V9.4h9.5V8.4h-9.5V6.5h12v4.7h-9.5v1.1h9.8v1.9h-5.1v1.3H332.8z
		 M318.7,18.5H331v5.1h-2.5v-3.1h-9.8V18.5z"/>
</g>
<g class="st0">
	<path class="st1" d="M157.9,44.2c-2.5,0.4-4.7,0.5-8.3,0.5H148v-8.6h8.4v2h-5.9v1.3h5.4v1.9h-5.4v1.4c3,0,4.9-0.1,7.1-0.4
		L157.9,44.2z M150,46.2h11.6v6.2H150V46.2z M152.4,50.4h6.7v-2.3h-6.7V50.4z M161.6,35.1v10.4h-2.5V35.1H161.6z"/>
	<path class="st1" d="M179.7,50.3v2h-13v-5.2h2.4v-2.3c-1.5,0.1-3,0.1-4.3,0.1l-0.3-2c3.2,0,7.4-0.1,11.1-0.5l0.2,1.8
		c-1.4,0.2-2.8,0.4-4.2,0.5v3.3h-2.4v2.4H179.7z M165.8,38.8c0-1.9,1.8-3.1,4.4-3.1c2.5,0,4.4,1.3,4.4,3.1c0,1.9-1.8,3.1-4.4,3.1
		C167.6,41.9,165.8,40.7,165.8,38.8z M168.1,38.8c0,0.9,0.8,1.3,2,1.3c1.2,0,2-0.4,2-1.3c0-0.9-0.8-1.3-2-1.3
		C169,37.5,168.1,38,168.1,38.8z M176.8,45.3V35.1h2.5v13.3h-2.5V47h-3.3v-1.7H176.8z"/>
	<path class="st1" d="M186.9,42.2c0-1,0.7-1.8,1.7-1.8c1,0,1.7,0.8,1.7,1.8c0,1-0.7,1.8-1.7,1.8C187.6,44,186.9,43.2,186.9,42.2z
		 M186.9,49.4c0-1,0.7-1.8,1.7-1.8c1,0,1.7,0.8,1.7,1.8c0,1-0.7,1.8-1.7,1.8C187.6,51.2,186.9,50.4,186.9,49.4z"/>
	<path class="st1" d="M207.1,38.9h-10.3v-2h3.9v-1.9h2.5v1.9h3.9L207.1,38.9z M202,46.3c-2.5,0-4.3-1.4-4.3-3.4c0-2,1.8-3.4,4.3-3.4
		c2.5,0,4.3,1.4,4.3,3.4C206.3,44.9,204.5,46.3,202,46.3z M201.8,50.3h9.4v2h-11.9v-5.1h2.5V50.3z M202,44.4c1.1,0,1.9-0.5,1.9-1.5
		c0-0.9-0.8-1.5-1.9-1.5c-1.1,0-1.9,0.5-1.9,1.5C200.1,43.8,200.9,44.4,202,44.4z M212.9,40.4v2.1h-2.3v5.7h-2.5V35.1h2.5v5.3H212.9
		z"/>
	<path class="st1" d="M221.1,39.8c0,2.8,1.4,5.9,4.3,7.1l-1.4,2c-2-0.9-3.4-2.6-4.2-4.7c-0.8,2.3-2.2,4.2-4.2,5.1l-1.4-2
		c2.9-1.3,4.4-4.5,4.4-7.5v-1h-3.6v-2.1h9.8v2.1h-3.6V39.8z M228.8,35.1v17.5h-2.5V35.1H228.8z"/>
	<path class="st1" d="M247.7,43.5v2H244v3.1h-2.5v-3.1h-1.7v3.1h-2.5v-3.1h-5.4v-2H247.7z M233.4,39c0-2.2,2.5-3.6,6.3-3.6
		c3.8,0,6.3,1.4,6.3,3.6c0,2.2-2.5,3.6-6.3,3.6C235.9,42.7,233.4,41.2,233.4,39z M236.1,50.3h10v2h-12.5v-5.1h2.5V50.3z M236.1,39
		c0,1.1,1.4,1.6,3.6,1.6c2.2,0,3.6-0.6,3.6-1.6c0-1.1-1.4-1.6-3.6-1.6C237.5,37.4,236.1,38,236.1,39z"/>
	<path class="st1" d="M260.6,47.2c1.4-0.1,2.8-0.2,4.1-0.4l0.2,1.8c-3.8,0.8-7.9,0.8-10.9,0.8l-0.3-2c1.3,0,2.8,0,4.4-0.1v-2.7h2.5
		V47.2z M254.1,43.2c2.6-0.7,3.8-2.3,4-4.1h-3.5v-2h3.5v-1.9h2.5v1.9h3.6v2h-3.5c0.2,1.7,1.4,3.2,4,3.9l-1.1,1.9
		c-2-0.5-3.4-1.6-4.2-3.1c-0.8,1.5-2.2,2.7-4.2,3.2L254.1,43.2z M268.2,35.1v17.6h-2.5V35.1H268.2z"/>
	<path class="st1" d="M277.8,39.8c0,2.8,1.4,5.9,4.3,7.1l-1.4,2c-2-0.9-3.4-2.6-4.2-4.7c-0.8,2.3-2.2,4.2-4.2,5.1l-1.4-2
		c2.9-1.3,4.4-4.5,4.4-7.5v-1h-3.6v-2.1h9.8v2.1h-3.6V39.8z M285.6,35.1v17.5h-2.5V35.1H285.6z"/>
	<path class="st1" d="M303.7,50.3v2h-13v-5.2h2.4v-2.3c-1.5,0.1-3,0.1-4.3,0.1l-0.3-2c3.2,0,7.4-0.1,11.1-0.5l0.2,1.8
		c-1.4,0.2-2.8,0.4-4.2,0.5v3.3h-2.4v2.4H303.7z M289.8,38.8c0-1.9,1.8-3.1,4.4-3.1c2.5,0,4.4,1.3,4.4,3.1c0,1.9-1.8,3.1-4.4,3.1
		C291.6,41.9,289.8,40.7,289.8,38.8z M292.1,38.8c0,0.9,0.8,1.3,2,1.3c1.2,0,2-0.4,2-1.3c0-0.9-0.8-1.3-2-1.3
		C292.9,37.5,292.1,38,292.1,38.8z M300.8,45.3V35.1h2.5v13.3h-2.5V47h-3.3v-1.7H300.8z"/>
	<path class="st1" d="M319.5,36.1c0,4.7-2.9,7.8-8.2,9.1l-1-2c3.9-1,6.1-2.9,6.4-5.2h-5.4v-2H319.5z M313.3,45.6h11.6v6.8h-11.6
		V45.6z M315.8,50.4h6.6v-2.9h-6.6V50.4z M324.9,35.1v9.7h-2.5v-9.7H324.9z"/>
	<path class="st1" d="M334.6,39.8c0,2.8,1.4,5.9,4.3,7.1l-1.4,2c-2-0.9-3.4-2.6-4.2-4.7c-0.8,2.3-2.2,4.2-4.2,5.1l-1.4-2
		c2.9-1.3,4.3-4.5,4.3-7.5v-1h-3.6v-2.1h9.8v2.1h-3.6V39.8z M342.3,35.1v17.5h-2.5V35.1H342.3z"/>
	<path class="st1" d="M355,38.9h-9.6v-2h3.7V35h2.5v1.9h3.4V38.9z M350.3,46.4c-2.4,0-4.1-1.4-4.1-3.5c0-2,1.7-3.4,4.1-3.4
		c2.4,0,4.1,1.4,4.1,3.4C354.4,45,352.7,46.4,350.3,46.4z M360.3,50.3v2h-11.9v-4.9h2.5v2.9H360.3z M350.3,44.5c1,0,1.7-0.5,1.7-1.5
		c0-1-0.7-1.5-1.7-1.5c-1,0-1.7,0.6-1.7,1.5C348.5,43.9,349.3,44.5,350.3,44.5z M357.4,45.2h-2.3v-2h2.3v-1.7h-2.3v-2h2.3v-4.3h2.5
		v13.3h-2.5V45.2z"/>
	<path class="st1" d="M382.9,44.2v2h-15.8v-2h6.6v-2.5h2.5v2.5H382.9z M381.1,42.8c-2.9-0.5-5-1.7-6.1-3.5c-1.1,1.8-3.2,3.1-6.1,3.5
		l-1-2c3.9-0.5,5.8-2.6,5.8-4.7v-0.5h2.6v0.5c0,2.1,1.8,4.2,5.8,4.7L381.1,42.8z M371.5,50.3h9.6v2H369v-5.1h2.5V50.3z"/>
	<path class="st1" d="M400.4,46.8h-3.7v5.7h-2.5v-5.7h-3.5v5.7h-2.5v-5.7h-3.6v-2h15.8V46.8z M386.1,39.6c0-2.4,2.6-3.9,6.3-3.9
		c3.7,0,6.3,1.5,6.3,3.9c0,2.4-2.6,3.9-6.3,3.9C388.7,43.5,386.1,42,386.1,39.6z M388.7,39.6c0,1.3,1.5,1.9,3.8,1.9
		c2.3,0,3.7-0.7,3.7-1.9c0-1.2-1.5-1.9-3.7-1.9C390.2,37.7,388.7,38.4,388.7,39.6z"/>
	<path class="st1" d="M411.7,45.6c-1.9-0.6-3.3-1.9-4.1-3.4c-0.8,1.7-2.2,3.1-4.2,3.7l-1.3-2c2.9-0.9,4.2-3.2,4.2-5.4v-0.2h-3.5v-2
		h9.5v2h-3.5v0.2c0,2.1,1.3,4.2,4.1,5.1L411.7,45.6z M417,50.3v2H405v-5.7h2.5v3.7H417z M416.6,47.7h-2.5V35.1h2.5V47.7z"/>
</g>
<g class="st0">
	<path class="st1" d="M142.4,109.2v2.1h-15.8v-2.1h6.6v-3.6h-4.8v-8.6h12.2v2h-9.7v4.6h9.8v2h-5v3.6H142.4z"/>
	<path class="st1" d="M159.8,105.1v2H144v-2h6.7v-1.3H146V99h9.5V98h-9.5v-1.9h12v4.7h-9.5v1.1h9.8v1.9h-5.1v1.3H159.8z
		 M145.7,108.1H158v5.1h-2.5V110h-9.8V108.1z"/>
	<path class="st1" d="M161.7,114.1c1.5-0.6,2.3-1.5,2.3-2.6c-0.1,0-0.1,0-0.2,0c-0.9,0-1.7-0.6-1.7-1.7c0-1,0.8-1.7,1.8-1.7
		c1.3,0,2,1,2,2.8c0,2.2-1.3,3.9-3.6,4.7L161.7,114.1z"/>
	<path class="st1" d="M175.5,107.1c2.7,0,4.9-0.2,7.3-0.6l0.3,2c-2.8,0.5-5.4,0.6-8.6,0.6h-1.6V102h5.7v-2.8h-5.7v-2h8.3v6.8h-5.7
		V107.1z M186.5,95.7v17.6H184V95.7H186.5z"/>
	<path class="st1" d="M205.3,103.1v2h-15.8v-2H205.3z M193.1,98.1h-2.2v-1.9h13v1.9h-2.2v2.2h2.1v1.9h-12.8v-1.9h2.1V98.1z
		 M193.8,111.3h10v1.8h-12.5v-4.4h9.6v-0.9h-9.6V106h12.1v4.3h-9.6V111.3z M199.1,98.1h-3.6v2.2h3.6V98.1z"/>
	<path class="st1" d="M215.1,105.6c-2,0.4-3.7,0.4-6.3,0.4h-1.2v-5.5h3.7v-1.6h-3.7v-2h6.2v5.4H210v1.7c1.8,0,3.2-0.1,4.8-0.4
		L215.1,105.6z M217.1,107.1c0,1.8,1.8,3.7,5.6,4.1l-1,1.9c-2.8-0.4-4.8-1.6-5.9-3.1c-1.1,1.6-3.1,2.7-5.9,3.1l-0.9-1.9
		c3.8-0.5,5.5-2.4,5.5-4.1v-0.3h2.5V107.1z M215.9,101.6h-1.6v-2h1.6V96h2.3v10.1h-2.3V101.6z M221.8,107.6h-2.4V95.7h2.4V107.6z"/>
	<path class="st1" d="M244.6,103.7v2.1h-15.8v-2.1H244.6z M242.7,110c0,2.1-2.3,3.2-6.1,3.2s-6.1-1.2-6.1-3.2c0-2.1,2.3-3.2,6.1-3.2
		S242.7,107.9,242.7,110z M242.8,102.5h-12.1v-6.3h12v2h-9.5v2.3h9.6V102.5z M240.1,110c0-0.9-1.2-1.3-3.5-1.3
		c-2.3,0-3.5,0.4-3.5,1.3c0,0.9,1.2,1.3,3.5,1.3C238.9,111.3,240.1,110.9,240.1,110z"/>
	<path class="st1" d="M259.7,105v1h4.7v4.3h-9.6v0.9h10v1.8h-12.5v-4.4h9.6v-0.8h-9.6V106h4.8v-1h-6.6v-1.8h15.7v1.8H259.7z
		 M251.2,100.9c3.5-0.2,5.2-1,5.7-2H252v-1.8h5.1v-1.4h2.5v1.4h5.1v1.8h-4.9c0.5,1,2.2,1.8,5.7,2l-0.7,1.8c-3.2-0.2-5.5-1-6.6-2.3
		c-1.1,1.3-3.3,2.1-6.6,2.3L251.2,100.9z"/>
	<path class="st1" d="M278.5,105.6c-3.4,0.6-7.4,0.7-10.3,0.7l-0.3-2l1.8,0v-5.1h-1.4v-2h9.3v2h-1.4v4.8c0.7-0.1,1.3-0.1,2-0.2
		L278.5,105.6z M273,110.9h9.4v2h-11.9v-5.5h2.5V110.9z M272.1,104.2c0.6,0,1.2,0,1.8-0.1v-5h-1.8V104.2z M284.1,100.7v2.1h-2.3v5.9
		h-2.5V95.7h2.5v4.9H284.1z"/>
	<path class="st1" d="M294.6,104.6v1.1h4.7v4.5h-9.6v1h10v1.9h-12.5v-4.6h9.6v-0.9h-9.6v-1.8h4.8v-1.1h-6.6v-2h15.8v2H294.6z
		 M299.3,101.7h-11.8v-5.5h11.8V101.7z M296.8,98.2h-6.9v1.7h6.9V98.2z"/>
	<path class="st1" d="M318.8,102.8v2H303v-2H318.8z M304.5,98.9c0-1.9,2.3-3,6.3-3c4,0,6.3,1.1,6.3,3c0,1.9-2.3,3-6.3,3
		C306.9,101.9,304.5,100.9,304.5,98.9z M307.3,111.2h10v1.9h-12.5v-4.6h9.6v-0.9h-9.6v-1.8h12.1v4.5h-9.6V111.2z M307.1,98.9
		c0,0.8,1.2,1.2,3.7,1.2c2.5,0,3.7-0.3,3.7-1.2c0-0.8-1.2-1.1-3.7-1.1C308.3,97.8,307.1,98.2,307.1,98.9z"/>
	<path class="st1" d="M333.6,104.3h-8.3v-7.4h8.3V104.3z M329.6,111.3h9.3v1.7h-11.8v-7.2h11.5v1.7h-9v1h8.8v1.7h-8.8V111.3z
		 M331.1,98.9h-3.4v3.5h3.4V98.9z M340.8,99.3v2.1h-2.3v3.6H336v-9.3h2.5v3.6H340.8z"/>
	<path class="st1" d="M358.1,109.1v2h-15.8v-2h5.6v-6h2.5v6H358.1z M353.3,107c0.7-3.3,0.7-5.7,0.7-7.8h-10.2v-2h12.7v1.7
		c0,2.2,0,4.7-0.7,8.4L353.3,107z"/>
	<path class="st1" d="M364.3,100.8c0-2.5,2.1-4.2,4.8-4.2c2.7,0,4.8,1.7,4.8,4.2c0,2.5-2,4.2-4.8,4.2
		C366.3,105,364.3,103.3,364.3,100.8z M376.8,106.9c0,1.8,1,3.5,3.3,4.2l-1.2,1.8c-1.7-0.6-2.7-1.6-3.3-2.9
		c-0.6,1.3-1.6,2.5-3.2,3.1c-1.6-0.6-2.6-1.7-3.2-3.1c-0.6,1.3-1.7,2.3-3.2,2.9l-1.2-1.8c2.3-0.8,3.3-2.5,3.3-4.2v-0.6h2.4v0.6
		c0,1.4,0.6,2.8,1.9,3.8c1.4-1,2-2.5,2-3.8v-0.6h2.5V106.9z M366.7,100.8c0,1.3,1,2.1,2.3,2.1c1.3,0,2.3-0.8,2.3-2.1s-1-2.1-2.3-2.1
		C367.7,98.7,366.7,99.5,366.7,100.8z M378.6,105.6H376v-9.9h2.5V105.6z"/>
	<path class="st1" d="M397.3,103.4v2h-15.8v-2H397.3z M395.6,102.6c-3-0.4-5.1-1.6-6.2-3.3c-1.1,1.7-3.3,2.9-6.2,3.3l-0.9-1.9
		c3.9-0.5,5.8-2.4,5.8-4.2v-0.5h2.6v0.5c0,1.8,1.9,3.7,5.8,4.2L395.6,102.6z M392.8,106.2h2.5v6.8h-12v-6.8h2.5v1.5h7V106.2z
		 M392.8,109.5h-7v1.5h7V109.5z"/>
	<path class="st1" d="M402.4,106.8c2.3-0.1,4.8-0.2,7.4-0.8l0.3,2.1c-3,0.6-5.9,0.8-8.5,0.8h-1.6V97.4h2.5V106.8z M413.6,95.7v17.5
		h-2.5V95.7H413.6z"/>
	<path class="st1" d="M419.6,107c2.5,0,4.6-0.2,6.8-0.6l0.2,2.1c-2.6,0.5-5,0.6-8.1,0.6h-1.5V97.3h8.2v2h-5.7V107z M432.7,104.2
		h-2.5v9h-2.5V95.7h2.5v6.5h2.5V104.2z"/>
	<path class="st1" d="M434.5,110c0-1,0.7-1.8,1.7-1.8c1,0,1.7,0.8,1.7,1.8c0,1-0.7,1.8-1.7,1.8C435.2,111.8,434.5,111,434.5,110z"/>
</g>
<g class="st0">
	<path class="st1" d="M186.9,140.2v2.1H171v-2.1h6.6v-3.6h-4.8v-8.6h12.2v2h-9.7v4.6h9.8v2h-5v3.6H186.9z"/>
	<path class="st1" d="M204.4,136.1v2h-15.8v-2h6.7v-1.3h-4.7V130h9.5V129h-9.5v-1.9h12v4.7H193v1.1h9.8v1.9h-5.1v1.3H204.4z
		 M190.3,139.1h12.3v5.1H200V141h-9.8V139.1z"/>
	<path class="st1" d="M221.8,135.6v2H206v-2H221.8z M207.6,130.8c0-2.2,2.5-3.6,6.3-3.6c3.8,0,6.3,1.4,6.3,3.6s-2.5,3.6-6.3,3.6
		C210.1,134.5,207.6,133.1,207.6,130.8z M210.4,141.9h9.6v2h-12.1v-5.1h2.5V141.9z M210.2,130.8c0,1.1,1.4,1.6,3.7,1.6
		c2.4,0,3.8-0.5,3.8-1.6c0-1.1-1.4-1.6-3.8-1.6C211.6,129.2,210.2,129.8,210.2,130.8z"/>
	<path class="st1" d="M243.6,140.2v2.1h-15.8v-2.1h6.6v-3.6h-4.8v-8.6h12.2v2h-9.7v4.6h9.8v2h-5v3.6H243.6z"/>
	<path class="st1" d="M261.1,136.1v2h-15.8v-2h6.7v-1.3h-4.7V130h9.5V129h-9.5v-1.9h12v4.7h-9.5v1.1h9.8v1.9h-5.1v1.3H261.1z
		 M247,139.1h12.3v5.1h-2.5V141H247V139.1z"/>
	<path class="st1" d="M278.6,140.2v2.1h-15.8v-2.1h6.6v-3.6h-4.8v-8.6h12.2v2h-9.7v4.6h9.8v2h-5v3.6H278.6z"/>
	<path class="st1" d="M296.1,136.1v2h-15.8v-2h6.7v-1.3h-4.7V130h9.5V129h-9.5v-1.9h12v4.7h-9.5v1.1h9.8v1.9h-5.1v1.3H296.1z
		 M282,139.1h12.3v5.1h-2.5V141H282V139.1z"/>
	<path class="st1" d="M304,129.3h3.8v2h-10.2v-2h3.9V127h2.5V129.3z M307.2,136.4c0,2.5-1.9,4.2-4.4,4.2c-2.5,0-4.4-1.7-4.4-4.2
		c0-2.4,1.9-4.2,4.4-4.2C305.3,132.3,307.2,134,307.2,136.4z M304.8,136.4c0-1.3-0.9-2.1-2-2.1s-2.1,0.8-2.1,2.1s0.9,2.1,2.1,2.1
		S304.8,137.8,304.8,136.4z M314,135.6h-2.5v8.6h-2.5v-17.5h2.5v6.8h2.5V135.6z"/>
	<path class="st1" d="M331,140.1v2h-15.8v-2h5.6v-6h2.5v6H331z M326.3,138c0.7-3.3,0.7-5.7,0.7-7.8h-10.2v-2h12.7v1.7
		c0,2.2,0,4.7-0.7,8.4L326.3,138z"/>
	<path class="st1" d="M352.8,134.4v2h-6.7v1.6h-2.5v-1.6H337v-2H352.8z M338.6,130.2c0-2.1,2.5-3.3,6.3-3.3s6.3,1.3,6.3,3.3
		s-2.5,3.3-6.3,3.3S338.6,132.3,338.6,130.2z M348.4,137.2h2.5v6.7h-12v-6.7h2.5v1.5h7V137.2z M341.1,130.2c0,0.9,1.3,1.4,3.7,1.4
		c2.4,0,3.8-0.5,3.8-1.4c0-1-1.3-1.4-3.8-1.4C342.5,128.8,341.1,129.2,341.1,130.2z M348.4,140.6h-7v1.3h7V140.6z"/>
	<path class="st1" d="M357.9,137.8c2.3-0.1,4.8-0.2,7.4-0.8l0.3,2.1c-3,0.6-5.9,0.8-8.5,0.8h-1.6v-11.5h2.5V137.8z M369.1,126.7
		v17.5h-2.5v-17.5H369.1z"/>
	<path class="st1" d="M375.1,138c2.5,0,4.6-0.2,6.8-0.6l0.2,2.1c-2.6,0.5-5,0.6-8.1,0.6h-1.5v-11.7h8.2v2h-5.7V138z M388.2,135.2
		h-2.5v9h-2.5v-17.5h2.5v6.5h2.5V135.2z"/>
	<path class="st1" d="M390,141c0-1,0.7-1.8,1.7-1.8c1,0,1.7,0.8,1.7,1.8c0,1-0.7,1.8-1.7,1.8C390.7,142.8,390,142,390,141z"/>
</g>
<g class="st0">
	<path class="st1" d="M80.3,169.2c1.6,0,3-0.2,4.7-0.5l0.3,2.1c-2.1,0.4-4,0.5-6.2,0.5h-1.2v-11.6h2.5V169.2z M86.1,158.3h2.3v16.4
		h-2.3v-9.2h-3.4v-2h3.4V158.3z M92.2,158v17.5h-2.4V158H92.2z"/>
	<path class="st1" d="M103.6,167.4h-8.2v-8.1h8.2v1.3h3.2v-2.5h2.5v10.3h-2.5v-2.2h-3.2V167.4z M109.4,172.2c0,2.1-2.3,3.4-6,3.4
		c-3.7,0-6-1.3-6-3.4s2.3-3.4,6-3.4C107.1,168.8,109.4,170,109.4,172.2z M101.2,161.3h-3.3v4.1h3.3V161.3z M106.8,172.2
		c0-1-1.2-1.5-3.5-1.5c-2.3,0-3.5,0.5-3.5,1.5s1.2,1.5,3.5,1.5C105.6,173.6,106.8,173.2,106.8,172.2z M103.6,162.6v1.5h3.2v-1.5
		H103.6z"/>
	<path class="st1" d="M121.8,165.5c0,3.9-2,6.3-4.6,6.3s-4.6-2.4-4.6-6.3c0-3.8,2-6.2,4.6-6.2S121.8,161.7,121.8,165.5z M115,165.5
		c0,2.6,0.9,4,2.2,4c1.3,0,2.2-1.4,2.2-4c0-2.6-0.9-4-2.2-4C115.9,161.5,115,162.9,115,165.5z M126.6,158v17.6h-2.5V158H126.6z"/>
	<path class="st1" d="M136.2,161.9c0,3.3,1.3,6.5,4.2,7.8l-1.5,2c-1.9-0.9-3.2-2.6-3.9-4.7c-0.8,2.2-2.1,4.1-4,5.1l-1.6-2
		c3-1.4,4.3-4.8,4.3-8.1v-2.5h2.5V161.9z M144.3,158v17.6h-2.5v-10h-3.4v-2h3.4V158H144.3z"/>
	<path class="st1" d="M161.7,161.6h-10.3v-2h3.9v-1.7h2.5v1.7h3.9V161.6z M156.5,168.4c-2.5,0-4.3-1.3-4.3-3.2
		c0-1.9,1.8-3.1,4.3-3.1c2.5,0,4.3,1.3,4.3,3.1C160.8,167.2,159.1,168.4,156.5,168.4z M153.8,169.4h11.4v6h-11.4V169.4z
		 M156.5,166.6c1.1,0,1.9-0.4,1.9-1.3c0-0.9-0.8-1.3-1.9-1.3c-1.1,0-1.9,0.4-1.9,1.3C154.6,166.1,155.4,166.6,156.5,166.6z
		 M156.3,173.4h6.5v-2.1h-6.5V173.4z M167.5,164.4h-2.3v4.2h-2.5v-10.5h2.5v4.3h2.3V164.4z"/>
	<path class="st1" d="M173.1,160c0,4.4-0.4,8.4-2.6,11.9l-1.9-1.1c1.7-2.7,2.3-5.4,2.4-8.8h-1.8v-2H173.1z M178.3,158.4h2.3v16.4
		h-2.3v-8.2h-1.7c-0.4,2.1-1,4.2-2.2,6.1l-1.9-1.1c1.9-3,2.3-6,2.4-9.6h-1.3v-2h3.4c0,1.6,0,3.1-0.2,4.6h1.4V158.4z M184.1,158.1
		v17.5h-2.4v-17.5H184.1z"/>
	<path class="st1" d="M206.5,171.5v2.1h-15.8v-2.1h6.6v-3.6h-4.8v-8.6h12.2v2H195v4.6h9.8v2h-5v3.6H206.5z"/>
	<path class="st1" d="M224,167.4v2h-15.8v-2h6.7v-1.3h-4.7v-4.8h9.5v-1.1h-9.5v-1.9h12v4.7h-9.5v1.1h9.8v1.9h-5.1v1.3H224z
		 M209.9,170.4h12.3v5.1h-2.5v-3.1h-9.8V170.4z"/>
	<path class="st1" d="M233.3,159.2c0,4.5-1.8,7.7-6.6,9.7l-1.2-1.8c1.9-0.8,3.2-1.7,4.1-2.8l-3.6,0.4l-0.3-2l4.8-0.2
		c0.1-0.4,0.2-0.8,0.3-1.2h-4.4v-2H233.3z M228.7,169h11.9v6.4h-11.9V169z M231.2,173.4h6.9V171h-6.9V173.4z M240.5,158.1v10.2h-2.4
		v-4.1h-1.5v4h-2.3v-9.8h2.3v3.8h1.5v-4.1H240.5z"/>
	<path class="st1" d="M259,171.5v2h-15.8v-2H259z M246.7,161.6h-2.4v-2h13.3v2h-2.4v5.2h2.3v2h-13.1v-2h2.3V161.6z M252.8,161.6
		h-3.6v5.2h3.6V161.6z"/>
	<path class="st1" d="M276.4,171.5v2.1h-15.8v-2.1h6.6v-3.6h-4.8v-8.6h12.2v2H265v4.6h9.8v2h-5v3.6H276.4z"/>
	<path class="st1" d="M292,168.5c-1.9-0.6-3.3-1.9-4.1-3.4c-0.8,1.7-2.2,3.1-4.2,3.7l-1.3-2c2.9-0.9,4.2-3.2,4.2-5.4v-0.2h-3.5v-2
		h9.5v2h-3.5v0.2c0,2.1,1.3,4.2,4.1,5.1L292,168.5z M297.4,173.3v2h-12.1v-5.7h2.5v3.7H297.4z M296.9,170.7h-2.5v-12.7h2.5V170.7z"
		/>
	<path class="st1" d="M308.3,161.8h-8.5v-1.9h3v-1.6h2.5v1.6h3V161.8z M304.1,168.4c-2.2,0-3.8-1.3-3.8-3.1s1.6-3,3.8-3
		c2.2,0,3.8,1.2,3.8,3S306.3,168.4,304.1,168.4z M304.1,166.7c0.9,0,1.5-0.5,1.5-1.3c0-0.8-0.6-1.3-1.5-1.3c-0.9,0-1.6,0.4-1.6,1.3
		C302.5,166.2,303.1,166.7,304.1,166.7z M314.9,172.4c0,2-2.3,3.2-6,3.2c-3.8,0-6-1.1-6-3.2c0-2,2.3-3.2,6-3.2
		C312.6,169.2,314.9,170.3,314.9,172.4z M312.4,172.4c0-0.9-1.2-1.3-3.5-1.3c-2.3,0-3.5,0.4-3.5,1.3c0,0.9,1.2,1.3,3.5,1.3
		C311.2,173.7,312.4,173.3,312.4,172.4z M311.1,168.4h-2.3v-10.1h2.3v4h1.3v-4.3h2.4V169h-2.4v-4.6h-1.3V168.4z"/>
	<path class="st1" d="M323.6,160.6h3.8v2h-10.2v-2h3.9v-2.3h2.5V160.6z M326.8,167.8c0,2.5-1.9,4.2-4.4,4.2c-2.5,0-4.4-1.7-4.4-4.2
		c0-2.4,1.9-4.2,4.4-4.2C324.9,163.6,326.8,165.4,326.8,167.8z M324.4,167.8c0-1.3-0.9-2.1-2-2.1s-2.1,0.8-2.1,2.1s0.9,2.1,2.1,2.1
		S324.4,169.1,324.4,167.8z M333.6,167h-2.5v8.6h-2.5v-17.5h2.5v6.8h2.5V167z"/>
	<path class="st1" d="M350.7,166.6v2h-15.8v-2H350.7z M339.1,173.2h9.9v2h-12.4V170h2.5V173.2z M348.9,164.8h-12.1v-6.1h2.5v4.1h9.6
		V164.8z"/>
	<path class="st1" d="M355.3,169.6c1.8,0,3.2-0.2,4.8-0.5l0.2,2.1c-2,0.4-3.7,0.5-6.2,0.5h-1.2V160h6.7v2h-4.2V169.6z M361.3,158.4
		h2.3v16.4h-2.3v-8.3h-3v-2h3V158.4z M367.3,158v17.5H365V158H367.3z"/>
	<path class="st1" d="M389.9,171.5v2h-15.8v-2h6.6v-3c-3.1-0.4-5.3-2.1-5.3-4.7c0-2.9,2.8-4.8,6.5-4.8c3.7,0,6.5,1.9,6.5,4.8
		c0,2.6-2.2,4.4-5.3,4.7v3H389.9z M382,166.6c2.4,0,4.1-1,4.1-2.8s-1.7-2.8-4.1-2.8c-2.4,0-4,1-4,2.8S379.6,166.6,382,166.6z"/>
	<path class="st1" d="M398.2,161.9c0,3.4,1.3,6.6,4.2,7.9l-1.5,2c-1.9-1-3.2-2.7-3.9-4.9c-0.8,2.3-2.1,4.1-4,5l-1.6-2
		c3-1.3,4.3-4.7,4.3-8.1v-2.5h2.5V161.9z M406.3,158.1v17.5h-2.6v-7.7h-3.1v-2.1h3.1v-2.2h-3.1v-2.1h3.1v-3.5H406.3z"/>
	<path class="st1" d="M424.9,171.5v2.1h-15.8v-2.1h6.6v-3.6h-4.8v-8.6h12.2v2h-9.7v4.6h9.8v2h-5v3.6H424.9z"/>
	<path class="st1" d="M442,167.3c-3.7,0.7-7.8,0.7-10.8,0.7l-0.3-1.9c1.3,0,2.9,0,4.5-0.1v-1.3h-3v-5.8h8.4v2h-5.9v1.8h6v2h-3v1.2
		c1.4-0.1,2.7-0.2,4-0.4L442,167.3z M443,168.9h2.5v6.4h-11.8v-6.4h2.5v1.3h6.9V168.9z M443,172.1h-6.9v1.3h6.9V172.1z M445.4,158.1
		v10.1h-2.5v-10.1H445.4z"/>
	<path class="st1" d="M451.7,169.1c2.3-0.1,4.8-0.2,7.4-0.8l0.3,2.1c-3,0.6-5.9,0.8-8.5,0.8h-1.6v-11.5h2.5V169.1z M462.9,158v17.5
		h-2.5V158H462.9z"/>
	<path class="st1" d="M469,169.3c2.5,0,4.6-0.2,6.8-0.6l0.2,2.1c-2.6,0.5-5,0.6-8.1,0.6h-1.5v-11.7h8.2v2H469V169.3z M482.1,166.6
		h-2.5v9H477v-17.5h2.5v6.5h2.5V166.6z"/>
	<path class="st1" d="M483.8,172.4c0-1,0.7-1.8,1.7-1.8c1,0,1.7,0.8,1.7,1.8c0,1-0.7,1.8-1.7,1.8
		C484.6,174.2,483.8,173.4,483.8,172.4z"/>
</g>
<g class="st0">
	<path class="st1" d="M141.4,190H135v-2.3h9.3v1.7c-3.3,4-3.7,6.9-3.9,12.4h-2.8C137.9,196.9,138.7,193.8,141.4,190z"/>
	<path class="st1" d="M150.3,193.8c-1.4,0-2.7,0-4,0l-0.2-1.7c3.3,0,7.5,0,11.2-0.4l0.2,1.6c-1.5,0.2-3.1,0.3-4.6,0.4v2.4h-2.5
		V193.8z M147.3,188.8c0-1.6,1.7-2.6,4.4-2.6c2.6,0,4.4,1,4.4,2.6c0,1.6-1.8,2.6-4.4,2.6C149,191.4,147.3,190.4,147.3,188.8z
		 M161.2,201.6v1.7h-12.6v-4.2h9.7v-0.8h-9.7v-1.7h12.2v4.1h-9.7v0.9H161.2z M149.6,188.8c0,0.6,0.8,1,2.1,1c1.3,0,2-0.3,2-1
		c0-0.7-0.8-1-2-1C150.4,187.8,149.6,188.1,149.6,188.8z M158.3,194v-8.1h2.5V196h-2.5v-0.5h-3.1V194H158.3z"/>
	<path class="st1" d="M172.8,195.9c-2.7,0-4.7-1.9-4.7-4.4c0-2.6,2.1-4.4,4.7-4.4c2.7,0,4.7,1.9,4.7,4.4
		C177.5,194,175.4,195.9,172.8,195.9z M172.9,201.1h9.4v2h-11.9v-5.8h2.5V201.1z M172.8,193.7c1.3,0,2.3-0.9,2.3-2.3s-1-2.3-2.3-2.3
		c-1.3,0-2.3,0.9-2.3,2.3S171.5,193.7,172.8,193.7z M184,190.9v2.1h-2.3v5.7h-2.5v-12.7h2.5v5H184z"/>
	<path class="st1" d="M194.5,186.2h2.3v16.4h-2.3v-8.2h-1.4c-0.2,3.4-1.7,5.5-3.8,5.5c-2.3,0-3.8-2.4-3.8-6.4c0-4,1.5-6.3,3.8-6.3
		c2.1,0,3.5,1.9,3.8,5.2h1.4V186.2z M190.8,193.5c0-2.7-0.6-4-1.5-4c-1,0-1.5,1.3-1.5,4c0,2.7,0.6,4,1.5,4
		C190.3,197.5,190.8,196.2,190.8,193.5z M200.4,185.9v17.5H198v-17.5H200.4z"/>
	<path class="st1" d="M223,199.3v2h-15.8v-2h6.6v-3.6h-5v-8.6h12.4v8.6h-5v3.6H223z M211.3,193.8h7.5v-4.6h-7.5V193.8z"/>
	<path class="st1" d="M240.5,194.5v2h-15.8v-2H240.5z M229,201.1h9.8v2h-12.3v-5.2h2.5V201.1z M238.7,193.1h-12.2v-6.6h12v2h-9.5
		v2.6h9.7V193.1z"/>
	<path class="st1" d="M251,186.5c0,4.6-2.7,7.3-7.8,8.5l-0.8-2c3.8-0.9,5.6-2.5,6-4.6h-5v-2H251z M257.1,201.3v2h-11.9v-4.9h9v-1h-9
		v-2h11.5v4.8h-9v1.1H257.1z M254.2,191.6h-3.1v-2h3.1v-3.7h2.5v8.8h-2.5V191.6z"/>
	<path class="st1" d="M279.7,192.3v2h-15.8v-2h4.1c0.5-1.6,0.6-2.9,0.7-3.9h-3.3v-2h5.8v0.9c0,1.1,0,2.7-0.6,4.9h4.4
		c0.4-1.6,0.5-2.8,0.6-3.9h-3.3v-2h5.8v1.2c0,1.2,0,2.7-0.5,4.6H279.7z M268.4,201.3h9.7v1.9h-12.2v-7.7h12.1v1.8h-9.5v1.1h9.1v1.8
		h-9.1V201.3z"/>
	<path class="st1" d="M284.6,197c1.4,0,2.9-0.2,4.5-0.5l0.2,2.1c-2.3,0.4-4.3,0.5-6,0.5h-1.2v-11.3h2.5V197z M296.4,185.9v17.5H294
		v-8.7h-1.6v7.9h-2.3v-16.4h2.3v6.4h1.6v-6.7H296.4z"/>
	<path class="st1" d="M314.7,194.4v2h-15.8v-2H314.7z M303.2,201h9.9v2h-12.4v-5.2h2.5V201z M313,192.6h-12.1v-6.1h2.5v4.1h9.6
		V192.6z"/>
	<path class="st1" d="M325.3,186.3h2.3v16.3h-2.3v-8h-2.7c-1,2-2.6,3.7-5.1,5.2l-1.4-1.8c3.5-2.1,5-4.6,5.3-8h-4.4v-2h6.9
		c0,1.7-0.2,3.2-0.6,4.6h2V186.3z M331.4,185.9v17.5H329v-17.5H331.4z"/>
	<path class="st1" d="M354,194.4v2h-15.8v-2h6.6v-1.6h-4.7v-6.2H352v6.2h-4.7v1.6H354z M339.9,197.7h12.2v5.8h-2.5v-3.8h-9.7V197.7z
		 M342.6,190.8h6.9v-2.3h-6.9V190.8z"/>
	<path class="st1" d="M371.5,199.5v2h-15.9v-2h3.9v-3.3H357v-2h2.3v-4.9h-2.4v-2h13.3v2h-2.4v4.9h2.3v2h-2.6v3.3H371.5z
		 M361.7,194.2h3.6v-4.9h-3.6V194.2z M362,199.5h3v-3.3h-3V199.5z"/>
	<path class="st1" d="M382.9,190.7c0,2.4-2,4.1-4.7,4.1s-4.8-1.7-4.8-4.1c0-2.4,2.1-4.1,4.8-4.1S382.9,188.4,382.9,190.7z
		 M375.8,190.7c0,1.3,1,2.1,2.3,2.1s2.3-0.8,2.3-2.1c0-1.3-1-2.1-2.3-2.1S375.8,189.5,375.8,190.7z M378.5,196.1v1.6h6.6v-1.6h2.5
		v7.1H376v-7.1H378.5z M378.5,201.2h6.6v-1.6h-6.6V201.2z M387.6,185.9v9.4h-2.5v-9.4H387.6z"/>
	<path class="st1" d="M394,196.9c2.3-0.1,4.8-0.2,7.4-0.8l0.3,2.1c-3,0.6-5.9,0.8-8.5,0.8h-1.6v-11.5h2.5V196.9z M405.2,185.9v17.5
		h-2.5v-17.5H405.2z"/>
	<path class="st1" d="M411.2,197.1c2.5,0,4.6-0.2,6.8-0.6l0.2,2.1c-2.6,0.5-5,0.6-8.1,0.6h-1.5v-11.7h8.2v2h-5.7V197.1z
		 M424.3,194.4h-2.5v9h-2.5v-17.5h2.5v6.5h2.5V194.4z"/>
	<path class="st1" d="M426.1,200.2c0-1,0.7-1.8,1.7-1.8c1,0,1.7,0.8,1.7,1.8c0,1-0.7,1.8-1.7,1.8C426.8,202,426.1,201.2,426.1,200.2
		z"/>
</g>
<g class="st0">
	<path class="st1" d="M16.6,213.7v17.6h-2.5v-6.5h-3.6c-0.8,1.7-2.1,2.7-3.8,2.7c-2.6,0-4.5-2.4-4.5-6.3c0-3.8,1.9-6.2,4.5-6.2
		c1.6,0,2.9,0.9,3.7,2.4h3.7v-3.6H16.6z M8.9,221.2c0-2.6-0.9-4-2.2-4c-1.3,0-2.1,1.4-2.1,4c0,2.6,0.9,4,2.1,4
		C8,225.2,8.9,223.8,8.9,221.2z M14.1,222.7v-3.4h-3c0.1,0.6,0.2,1.2,0.2,1.9c0,0.6,0,1.1-0.1,1.6H14.1z"/>
	<path class="st1" d="M35.2,222.6v2H19.4v-2H35.2z M30.8,216h-9.5v-1.9h12v4.7h-9.5v1h9.8v1.9H21.4V217h9.5V216z M21.4,225.6h12v5.5
		h-12V225.6z M23.9,229.1h7.1v-1.5h-7.1V229.1z"/>
	<path class="st1" d="M45.8,223.1h-8.4v-8.2h2.5v2.2h3.4v-2.2h2.5V223.1z M50.8,227.9c0,2.1-2.3,3.4-5.9,3.4c-3.6,0-5.9-1.3-5.9-3.4
		c0-2.1,2.3-3.4,5.9-3.4C48.6,224.4,50.8,225.7,50.8,227.9z M43.3,219h-3.4v2.2h3.4V219z M48.3,227.9c0-1-1.2-1.5-3.4-1.5
		c-2.2,0-3.4,0.5-3.4,1.5c0,1,1.2,1.5,3.4,1.5C47.1,229.3,48.3,228.8,48.3,227.9z M53,217.8v2.1h-2.3v4.2h-2.5v-10.3h2.5v4.1H53z"/>
	<path class="st1" d="M64.6,217.3H54.3v-2h3.9v-1.6h2.5v1.6h3.9V217.3z M59.5,224.3c-2.5,0-4.3-1.3-4.3-3.2c0-1.9,1.8-3.2,4.3-3.2
		c2.5,0,4.3,1.3,4.3,3.2C63.8,222.9,62,224.3,59.5,224.3z M56.5,225.4h11.7v5.8h-2.5v-3.8h-9.2V225.4z M59.5,222.4
		c1.1,0,1.9-0.4,1.9-1.3c0-0.9-0.8-1.3-1.9-1.3c-1.1,0-1.9,0.4-1.9,1.3C57.6,221.9,58.4,222.4,59.5,222.4z M70.4,220.3h-2.3v4.4
		h-2.5v-11h2.5v4.5h2.3V220.3z"/>
	<path class="st1" d="M87.6,220.8v2H71.8v-2H87.6z M73.4,217c0-1.9,2.3-3,6.3-3c4,0,6.3,1.1,6.3,3c0,1.9-2.3,3-6.3,3
		C75.7,220,73.4,218.9,73.4,217z M76.1,229.2h10v1.9H73.7v-4.6h9.6v-0.9h-9.6v-1.8h12.1v4.5h-9.6V229.2z M76,217
		c0,0.8,1.2,1.2,3.7,1.2c2.5,0,3.7-0.3,3.7-1.2c0-0.8-1.2-1.1-3.7-1.1C77.2,215.8,76,216.2,76,217z"/>
	<path class="st1" d="M102.5,223.9h-8.4V215h2.5v2.5h3.4V215h2.5V223.9z M98.6,228.9h9.4v2H96.1v-5.6h2.5V228.9z M100,219.4h-3.4
		v2.5h3.4V219.4z M109.7,218.7v2.1h-2.3v5.9h-2.5v-12.9h2.5v4.9H109.7z"/>
	<path class="st1" d="M121.3,221.7c-2.8,0.6-5.5,0.7-8,0.7h-1.5v-7.9h2.5v5.9c2.1,0,4.3-0.2,6.7-0.7L121.3,221.7z M122.4,223.8h2.5
		v7.3h-11.5v-7.3h2.5v1.7h6.5V223.8z M122.4,227.4h-6.5v1.6h6.5V227.4z M127.2,219.4h-2.3v3.6h-2.5v-9.2h2.5v3.6h2.3V219.4z"/>
	<path class="st1" d="M134,216.4h2.9v2h-8.4v-2h3v-2.2h2.5V216.4z M136.6,223.3c0,2.4-1.6,4.2-3.8,4.2s-3.8-1.7-3.8-4.2
		c0-2.5,1.6-4.2,3.8-4.2S136.6,220.9,136.6,223.3z M134.4,223.3c0-1.3-0.7-2.1-1.6-2.1c-0.9,0-1.6,0.8-1.6,2.1s0.7,2.1,1.6,2.1
		C133.7,225.4,134.4,224.6,134.4,223.3z M143.6,213.7v17.5h-2.4v-8.3h-1.3v7.6h-2.3v-16.4h2.3v6.8h1.3v-7.1H143.6z"/>
	<path class="st1" d="M152.6,217.6c0,3.3,1.3,6.5,4.2,7.8l-1.5,2c-1.9-0.9-3.2-2.6-3.9-4.7c-0.8,2.2-2.1,4.1-4,5.1l-1.6-2
		c3-1.4,4.3-4.8,4.3-8.1v-2.5h2.5V217.6z M160.7,213.7v17.6h-2.5v-10h-3.4v-2h3.4v-5.5H160.7z"/>
	<path class="st1" d="M183.7,227.2v2.1h-15.8v-2.1h6.6v-3.6h-4.8v-8.6h12.2v2h-9.7v4.6h9.8v2h-5v3.6H183.7z"/>
	<path class="st1" d="M201.2,227.3v2.1h-15.8v-2.1h6.6v-2.6h-4.8v-5.9h9.8v-1.9h-9.8v-2h12.3v5.8h-9.7v2h10.1v2h-5.3v2.6H201.2z"/>
	<path class="st1" d="M218.7,223.1v2h-15.8v-2h6.7v-1.3h-4.7v-4.8h9.5V216h-9.5v-1.9h12v4.7h-9.5v1.1h9.8v1.9H212v1.3H218.7z
		 M204.6,226.1h12.3v5.1h-2.5v-3.1h-9.8V226.1z"/>
	<path class="st1" d="M221.1,223.6c0-3.8,1-6.9,2.8-9.8l1.7,0.7c-1.6,2.8-2.3,6-2.3,9.1c0,3.1,0.7,6.3,2.3,9.1l-1.7,0.7
		C222.1,230.5,221.1,227.4,221.1,223.6z"/>
	<path class="st1" d="M235.6,215.9l3.2-3.9l1.9,1.9l-3.8,3.3L235.6,215.9z"/>
	<path class="st1" d="M256.8,227.3v1.7l-0.2,4.7H254v-4H246v4h-2.5l-0.2-4.7v-1.7h0.6c0.6-0.2,1.3-1.4,2-4.9c0.5-2.6,0.7-4,1.2-6.8
		h8v11.7H256.8z M249.2,217.9c-0.3,1.9-0.5,2.9-0.8,4.8c-0.4,2-0.9,3.5-1.5,4.5h5.4v-9.4H249.2z"/>
	<path class="st1" d="M259.2,213.9l1.9-1.9l3.2,3.9l-1.4,1.3L259.2,213.9z"/>
	<path class="st1" d="M270,232.7c1.6-2.8,2.3-6,2.3-9.1c0-3.1-0.7-6.3-2.3-9.1l1.7-0.7c1.8,2.9,2.8,6,2.8,9.8c0,3.8-1,6.9-2.8,9.8
		L270,232.7z"/>
	<path class="st1" d="M297.2,225.5h-6.7v5.7h-2.5v-5.7h-6.6v-2h15.8V225.5z M282.9,218.3c0-2.4,2.6-3.9,6.3-3.9
		c3.7,0,6.3,1.6,6.3,3.9c0,2.4-2.6,4-6.3,4C285.5,222.2,282.9,220.7,282.9,218.3z M285.4,218.3c0,1.3,1.5,2,3.8,2
		c2.3,0,3.7-0.7,3.7-2c0-1.3-1.5-1.9-3.7-1.9C286.9,216.3,285.4,217,285.4,218.3z"/>
	<path class="st1" d="M314.6,222.3v2h-15.8v-2H314.6z M303.1,228.9h9.9v2h-12.4v-5.2h2.5V228.9z M312.9,220.5h-12.1v-6.1h2.5v4.1
		h9.6V220.5z"/>
	<path class="st1" d="M325.1,215.6c0,5.3-1.7,9.6-7.7,12.7l-1.3-1.9c4.4-2.2,6.2-4.9,6.5-8.7h-5.7v-2H325.1z M330.9,213.7v17.5h-2.5
		v-8.8H325v-2h3.4v-6.7H330.9z"/>
	<path class="st1" d="M347.4,221.2c0,3.9-2,6.3-4.6,6.3c-2.7,0-4.6-2.4-4.6-6.3c0-3.8,1.9-6.2,4.6-6.2
		C345.4,215,347.4,217.4,347.4,221.2z M345,221.2c0-2.6-0.9-4-2.2-4c-1.3,0-2.2,1.4-2.2,4c0,2.6,0.9,4,2.2,4
		C344.1,225.2,345,223.8,345,221.2z M354.3,222.4h-2.5v8.8h-2.5v-17.5h2.5v6.6h2.5V222.4z"/>
	<path class="st1" d="M366.4,221.7c-2.7,0.6-5.2,0.8-8.4,0.8h-1.5v-7.9h2.5v5.8c2.6,0,4.8-0.2,7.1-0.7L366.4,221.7z M367.6,223.8
		h2.5v7.2h-11.6v-7.2h2.5v1.7h6.6V223.8z M367.6,227.5H361v1.6h6.6V227.5z M370.1,213.7v9.3h-2.5v-9.3H370.1z"/>
	<path class="st1" d="M373.6,228c0-1,0.7-1.8,1.7-1.8c1,0,1.7,0.8,1.7,1.8c0,1-0.7,1.8-1.7,1.8C374.3,229.9,373.6,229.1,373.6,228z"
		/>
	<path class="st1" d="M379.7,228c0-1,0.7-1.8,1.7-1.8c1,0,1.7,0.8,1.7,1.8c0,1-0.7,1.8-1.7,1.8C380.5,229.9,379.7,229.1,379.7,228z"
		/>
	<path class="st1" d="M401.2,222.7v1.9h-15.8v-1.9H401.2z M400.4,216.8h-14.2v-1.9h5.9v-1.3h2.5v1.3h5.8V216.8z M396.8,225.4h2.5
		v5.7h-12.1v-5.7h2.5v1.1h7.1V225.4z M393.3,217.2c3.8,0,5.9,0.8,5.9,2.4c0,1.6-2.1,2.4-5.9,2.4c-3.8,0-5.9-0.8-5.9-2.4
		C387.4,218.1,389.5,217.2,393.3,217.2z M396.8,228.2h-7.1v1h7.1V228.2z M393.3,218.9c-2.2,0-3.2,0.2-3.2,0.8c0,0.5,1,0.8,3.2,0.8
		c2.2,0,3.2-0.2,3.2-0.8C396.5,219.1,395.5,218.9,393.3,218.9z"/>
	<path class="st1" d="M423,227.4v2h-15.9v-2H423z M422.3,218h-14.4v-2h5.9V214h2.5v2.1h6V218z M415,218.8c3.6,0,5.9,1.3,5.9,3.6
		s-2.3,3.6-5.9,3.6c-3.6,0-5.9-1.3-5.9-3.6S411.4,218.8,415,218.8z M415,220.8c-2.1,0-3.4,0.5-3.4,1.6c0,1,1.2,1.6,3.4,1.6
		c2.2,0,3.4-0.5,3.4-1.6C418.4,221.3,417.2,220.8,415,220.8z"/>
	<path class="st1" d="M440.5,223.4v1.9h-15.8v-1.9H440.5z M439.6,217h-14.2v-1.9h5.9v-1.5h2.5v1.5h5.8V217z M426.4,226.4h12.1v4.9
		H436v-3h-9.6V226.4z M432.6,217.4c3.7,0,5.9,0.9,5.9,2.6s-2.1,2.6-5.9,2.6c-3.7,0-5.9-0.9-5.9-2.6S428.8,217.4,432.6,217.4z
		 M432.6,219.1c-2.3,0-3.3,0.3-3.3,0.9c0,0.6,1,0.9,3.3,0.9c2.3,0,3.3-0.3,3.3-0.9C435.9,219.4,434.8,219.1,432.6,219.1z"/>
	<path class="st1" d="M442.7,228c0-1,0.7-1.8,1.7-1.8c1,0,1.7,0.8,1.7,1.8c0,1-0.7,1.8-1.7,1.8C443.4,229.9,442.7,229.1,442.7,228z"
		/>
	<path class="st1" d="M448.8,228c0-1,0.7-1.8,1.7-1.8c1,0,1.7,0.8,1.7,1.8c0,1-0.7,1.8-1.7,1.8C449.6,229.9,448.8,229.1,448.8,228z"
		/>
	<path class="st1" d="M470.3,227.2v2h-15.8v-2h6.7v-3.9h2.5v3.9H470.3z M455.1,222.1c3.7-0.6,5.7-2.8,5.9-5h-5.2v-2H469v2h-5.2
		c0.2,2.3,2.3,4.4,6,4.9l-1,2c-3.1-0.6-5.3-2-6.4-4.1c-1.1,2.1-3.3,3.6-6.3,4.2L455.1,222.1z"/>
	<path class="st1" d="M481.3,221.2c0,3.9-2,6.3-4.6,6.3c-2.7,0-4.6-2.4-4.6-6.3c0-3.8,1.9-6.2,4.6-6.2
		C479.3,215,481.3,217.4,481.3,221.2z M478.8,221.2c0-2.6-0.9-4-2.2-4c-1.3,0-2.2,1.4-2.2,4c0,2.6,0.9,4,2.2,4
		C478,225.2,478.8,223.8,478.8,221.2z M488.2,222.4h-2.5v8.8h-2.5v-17.5h2.5v6.6h2.5V222.4z"/>
	<path class="st1" d="M505.3,227.2v2h-15.8v-2h3.5v-4.3c-1.3-0.8-2.1-2.1-2.1-3.6c0-2.9,2.8-4.7,6.5-4.7c3.8,0,6.5,1.8,6.5,4.7
		c0,1.5-0.8,2.8-2.1,3.6v4.3H505.3z M493.3,219.3c0,1.7,1.6,2.7,4,2.7s4.1-1,4.1-2.7c0-1.7-1.6-2.7-4.1-2.7S493.3,217.6,493.3,219.3
		z M495.4,227.2h3.9v-3.3c-0.6,0.1-1.3,0.2-1.9,0.2s-1.3-0.1-1.9-0.2V227.2z"/>
	<path class="st1" d="M527,220.9v2h-15.8v-2h6.6v-1.6h2.5v1.6H527z M511.9,218.4c3.2-0.2,4.9-1.2,5.4-2.3h-4.6v-1.9h12.9v1.9H521
		c0.5,1.1,2.2,2.1,5.4,2.3l-0.8,1.9c-3.3-0.3-5.5-1.4-6.4-3c-0.9,1.6-3.1,2.8-6.4,3L511.9,218.4z M515.6,229.2h10v1.9h-12.5v-4.6
		h9.6v-1H513v-1.8h12.1v4.5h-9.6V229.2z"/>
	<path class="st1" d="M538,224.3c-1.9-0.6-3.2-1.9-4-3.5c-0.8,1.7-2.1,3.1-4.2,3.8l-1.3-2c2.9-0.9,4.1-3.2,4.1-5.4v-0.2h-3.4v-2h9.4
		v2h-3.4v0.2c0,2.1,1.2,4.2,4,5.1L538,224.3z M543.7,228.9v2h-11.9v-5.5h2.5v3.5H543.7z M540.8,218.3v-4.5h2.5v12.8h-2.5v-6.2h-2.7
		v-2H540.8z"/>
	<path class="st1" d="M546.7,228c0-1,0.7-1.8,1.7-1.8c1,0,1.7,0.8,1.7,1.8c0,1-0.7,1.8-1.7,1.8C547.5,229.9,546.7,229.1,546.7,228z"
		/>
	<path class="st1" d="M552.9,228c0-1,0.7-1.8,1.7-1.8c1,0,1.7,0.8,1.7,1.8c0,1-0.7,1.8-1.7,1.8C553.6,229.9,552.9,229.1,552.9,228z"
		/>
	<path class="st1" d="M559.1,228c0-1,0.7-1.8,1.7-1.8c1,0,1.7,0.8,1.7,1.8c0,1-0.7,1.8-1.7,1.8C559.8,229.9,559.1,229.1,559.1,228z"
		/>
</g>
</svg>
