<?xml version="1.0" encoding="utf-8"?>
<!-- Generator: Adobe Illustrator 21.0.0, SVG Export Plug-In . SVG Version: 6.00 Build 0)  -->
<svg version="1.1" id="레이어_1" xmlns="http://www.w3.org/2000/svg" xmlns:xlink="http://www.w3.org/1999/xlink" x="0px"
	 y="0px" viewBox="0 0 565 185.3" style="enable-background:new 0 0 565 185.3;" xml:space="preserve">
<style type="text/css">
	.st0{enable-background:new    ;}
	.st1{fill:#080808;}
</style>
<g class="st0">
	<path class="st1" d="M175.4,15.3c-2.5,0.4-4.7,0.5-8.3,0.5h-1.5V7.1h8.4v2H168v1.3h5.4v1.9H168v1.4c3,0,4.9-0.1,7.1-0.4L175.4,15.3
		z M167.5,17.3h11.6v6.2h-11.6V17.3z M169.9,21.5h6.7v-2.3h-6.7V21.5z M179.1,6.2v10.4h-2.5V6.2H179.1z"/>
	<path class="st1" d="M191,15.4h-8.2V7.4h8.2v1.3h3.2V6.1h2.5v10.3h-2.5v-2.2H191V15.4z M196.8,20.2c0,2.1-2.3,3.4-6,3.4
		c-3.7,0-6-1.3-6-3.4s2.3-3.4,6-3.4C194.5,16.8,196.8,18.1,196.8,20.2z M188.6,9.4h-3.3v4.1h3.3V9.4z M194.2,20.2
		c0-1-1.2-1.5-3.5-1.5c-2.3,0-3.5,0.5-3.5,1.5s1.2,1.5,3.5,1.5C193,21.7,194.2,21.2,194.2,20.2z M191,10.7v1.5h3.2v-1.5H191z"/>
	<path class="st1" d="M204.4,13.2c0-1,0.7-1.8,1.7-1.8c1,0,1.7,0.8,1.7,1.8c0,1-0.7,1.8-1.7,1.8C205.1,15,204.4,14.3,204.4,13.2z
		 M204.4,20.4c0-1,0.7-1.8,1.7-1.8c1,0,1.7,0.8,1.7,1.8c0,1-0.7,1.8-1.7,1.8C205.1,22.3,204.4,21.5,204.4,20.4z"/>
	<path class="st1" d="M230.1,13.3v2h-15.8v-2h6.6v-1.6h2.5v1.6H230.1z M215,10.8c3.2-0.2,4.9-1.2,5.4-2.3h-4.6V6.6h12.9v1.9h-4.6
		c0.5,1.1,2.2,2.1,5.4,2.3l-0.8,1.9c-3.3-0.3-5.5-1.4-6.4-3c-0.9,1.6-3.1,2.8-6.4,3L215,10.8z M218.6,21.6h10v1.9h-12.5v-4.6h9.6v-1
		h-9.6v-1.8h12.1v4.5h-9.6V21.6z"/>
	<path class="st1" d="M241.1,16.6c-1.9-0.6-3.2-1.9-4-3.5c-0.8,1.7-2.1,3.1-4.2,3.8l-1.3-2c2.9-0.9,4.1-3.2,4.1-5.4V9.3h-3.4v-2h9.4
		v2h-3.4v0.2c0,2.1,1.2,4.2,4,5.1L241.1,16.6z M246.8,21.3v2h-11.9v-5.5h2.5v3.5H246.8z M243.9,10.7V6.1h2.5v12.8h-2.5v-6.2h-2.7v-2
		H243.9z"/>
	<path class="st1" d="M263,7.9c0,5.4-1.8,9.7-8,12.7l-1.3-2c4.5-2.1,6.4-4.9,6.8-8.8h-5.8v-2H263z M268.2,6.1v17.5h-2.5V6.1H268.2z"
		/>
	<path class="st1" d="M282.3,17c-3.7,0.6-7.7,0.7-10.8,0.7l-0.3-1.9c1.3,0,2.8,0,4.4,0v-0.9c-1.9-0.3-3.1-1.2-3.1-2.5
		c0-1.6,1.7-2.6,4.4-2.6c2.6,0,4.3,1,4.3,2.6c0,1.3-1.2,2.3-3.1,2.5v0.8c1.4-0.1,2.7-0.2,4-0.3L282.3,17z M281.9,9.2h-10.3V7.4h3.9
		V6h2.5v1.4h3.9V9.2z M273.6,18.7h12.1v5h-2.5v-3h-9.6V18.7z M276.8,13.2c1.2,0,1.9-0.4,1.9-1c0-0.6-0.7-1-1.9-1c-1.2,0-2,0.3-2,1
		C274.9,12.9,275.6,13.2,276.8,13.2z M285.7,6.2V18h-2.5V6.2H285.7z"/>
	<path class="st1" d="M299.4,15.3c-2.5,0.4-4.7,0.5-8.3,0.5h-1.5V7.1h8.4v2H292v1.3h5.4v1.9H292v1.4c3,0,4.9-0.1,7.1-0.4L299.4,15.3
		z M291.4,17.3h11.6v6.2h-11.6V17.3z M293.9,21.5h6.7v-2.3h-6.7V21.5z M303.1,6.2v10.4h-2.5V6.2H303.1z"/>
	<path class="st1" d="M326.2,13.3v2h-15.8v-2h6.6v-1.6h2.5v1.6H326.2z M311,10.8c3.2-0.2,4.9-1.2,5.4-2.3h-4.6V6.6h12.9v1.9h-4.6
		c0.5,1.1,2.2,2.1,5.4,2.3l-0.8,1.9c-3.3-0.3-5.5-1.4-6.4-3c-0.9,1.6-3.1,2.8-6.4,3L311,10.8z M314.7,21.6h10v1.9h-12.5v-4.6h9.6v-1
		h-9.6v-1.8h12.1v4.5h-9.6V21.6z"/>
	<path class="st1" d="M337.2,16.6c-1.9-0.6-3.2-1.9-4-3.5c-0.8,1.7-2.1,3.1-4.2,3.8l-1.3-2c2.9-0.9,4.1-3.2,4.1-5.4V9.3h-3.4v-2h9.4
		v2h-3.4v0.2c0,2.1,1.2,4.2,4,5.1L337.2,16.6z M342.9,21.3v2h-11.9v-5.5h2.5v3.5H342.9z M340,10.7V6.1h2.5v12.8H340v-6.2h-2.7v-2
		H340z"/>
	<path class="st1" d="M365.5,18.2h-6.7v5.5h-2.5v-5.5h-6.6v-2h15.8V18.2z M363.6,14.6h-12.2V6.8h2.5v2h7.2v-2h2.5V14.6z M361.1,10.8
		h-7.2v1.8h7.2V10.8z"/>
	<path class="st1" d="M382.9,17.7h-6.7v6h-2.5v-6h-6.6v-2h15.8V17.7z M381.4,14.4c-3.1-0.5-5.2-1.9-6.4-3.8
		c-1.1,1.9-3.3,3.3-6.4,3.8l-1-2c4-0.6,6-2.8,6-4.9V6.7h2.7v0.8c0,2,2,4.3,6,4.9L381.4,14.4z"/>
	<path class="st1" d="M391,10.8c0,2.7,1.4,5.8,4.3,7.1l-1.4,2c-1.9-0.9-3.3-2.6-4.1-4.7c-0.8,2.3-2.2,4.2-4.2,5.1l-1.4-2
		c2.9-1.3,4.3-4.6,4.3-7.5v-1h-3.6V7.8h9.6v2.1H391V10.8z M400.8,14.9h-2.5v8.8h-2.5V6.1h2.5v6.7h2.5V14.9z"/>
</g>
<g class="st0">
	<path class="st1" d="M16,44.2c-2.5,0.4-4.7,0.5-8.3,0.5H6.2v-8.6h8.4v2H8.6v1.3h5.4v1.9H8.6v1.4c3,0,4.9-0.1,7.1-0.4L16,44.2z
		 M8.1,46.2h11.6v6.2H8.1V46.2z M10.6,50.4h6.7v-2.3h-6.7V50.4z M19.7,35.1v10.4h-2.5V35.1H19.7z"/>
	<path class="st1" d="M37.8,50.3v2h-13v-5.2h2.4v-2.3c-1.5,0.1-3,0.1-4.3,0.1l-0.3-2c3.2,0,7.4-0.1,11.1-0.5l0.2,1.8
		c-1.4,0.2-2.8,0.4-4.2,0.5v3.3h-2.4v2.4H37.8z M23.9,38.8c0-1.9,1.8-3.1,4.4-3.1c2.5,0,4.4,1.3,4.4,3.1c0,1.9-1.8,3.1-4.4,3.1
		C25.7,41.9,23.9,40.7,23.9,38.8z M26.3,38.8c0,0.9,0.8,1.3,2,1.3c1.2,0,2-0.4,2-1.3c0-0.9-0.8-1.3-2-1.3
		C27.1,37.5,26.3,38,26.3,38.8z M34.9,45.3V35.1h2.5v13.3h-2.5V47h-3.3v-1.7H34.9z"/>
	<path class="st1" d="M45,42.2c0-1,0.7-1.8,1.7-1.8c1,0,1.7,0.8,1.7,1.8c0,1-0.7,1.8-1.7,1.8C45.8,44,45,43.2,45,42.2z M45,49.4
		c0-1,0.7-1.8,1.7-1.8c1,0,1.7,0.8,1.7,1.8c0,1-0.7,1.8-1.7,1.8C45.8,51.2,45,50.4,45,49.4z"/>
	<path class="st1" d="M63.9,44.7h-8.4v-8.5h2.5v2.3h3.4v-2.3h2.5V44.7z M57.1,46.4h11.7v6.2h-2.5v-4.3h-9.2V46.4z M61.4,40.4h-3.4
		v2.3h3.4V40.4z M71.1,41.4h-2.3v4.2h-2.5V35.1h2.5v4.3h2.3V41.4z"/>
	<path class="st1" d="M88.3,46.6h-6.7v6h-2.5v-6h-6.6v-2h15.8V46.6z M86.8,43.3c-3.1-0.5-5.2-1.9-6.4-3.8c-1.1,1.9-3.3,3.3-6.4,3.8
		l-0.9-2c4-0.6,6-2.8,6-4.9v-0.8h2.7v0.8c0,2,2,4.3,6,4.9L86.8,43.3z"/>
	<path class="st1" d="M99.6,38.9H90v-2h3.7V35h2.5v1.9h3.4V38.9z M94.9,46.4c-2.4,0-4.1-1.4-4.1-3.5c0-2,1.7-3.4,4.1-3.4
		c2.4,0,4.1,1.4,4.1,3.4C99,45,97.3,46.4,94.9,46.4z M104.9,50.3v2H93v-4.9h2.5v2.9H104.9z M94.9,44.5c1,0,1.7-0.5,1.7-1.5
		c0-1-0.7-1.5-1.7-1.5c-1,0-1.7,0.6-1.7,1.5C93.2,43.9,93.9,44.5,94.9,44.5z M102,45.2h-2.3v-2h2.3v-1.7h-2.3v-2h2.3v-4.3h2.5v13.3
		H102V45.2z"/>
	<path class="st1" d="M121,45.6c-1.9-0.6-3.2-1.9-4-3.5c-0.8,1.7-2.1,3.1-4.2,3.8l-1.3-2c2.9-0.9,4.1-3.2,4.1-5.4v-0.2h-3.4v-2h9.4
		v2h-3.4v0.2c0,2.1,1.2,4.2,4,5.1L121,45.6z M126.7,50.3v2h-11.9v-5.5h2.5v3.5H126.7z M123.8,39.6v-4.5h2.5v12.8h-2.5v-6.2h-2.7v-2
		H123.8z"/>
	<path class="st1" d="M138.6,44.9h-8.5v-8.5h8.5V44.9z M144.2,50.2v2h-12.1v-5.8h2.5v3.8H144.2z M136.1,38.5h-3.6V43h3.6V38.5z
		 M143.7,47.5h-2.5V35.1h2.5V47.5z"/>
	<path class="st1" d="M155.2,39.9c-1.1,2.8-3.5,4.6-7.4,5.7l-1-2c4-1.1,5.9-2.9,6.2-5.3h-5.3v-2h8c0,0.6,0,1.1-0.1,1.6h3.1v-2.8h2.5
		v10.1h-2.5v-1.7h-3.9v-2h3.9v-1.6H155.2z M161.4,48.9c0,2.2-2.3,3.6-5.9,3.6c-3.6,0-5.9-1.4-5.9-3.6s2.3-3.6,5.9-3.6
		C159.1,45.4,161.4,46.8,161.4,48.9z M159,48.9c0-1.1-1.3-1.6-3.4-1.6c-2.2,0-3.4,0.6-3.4,1.6s1.3,1.6,3.4,1.6
		C157.7,50.6,159,50,159,48.9z"/>
	<path class="st1" d="M177.7,36.1c0,4.7-2.9,7.8-8.1,9.1l-1-2c3.9-1,6.1-2.9,6.4-5.2h-5.4v-2H177.7z M171.4,45.6H183v6.8h-11.6V45.6
		z M173.9,50.4h6.6v-2.9h-6.6V50.4z M183,35.1v9.7h-2.5v-9.7H183z"/>
	<path class="st1" d="M189.3,36.5v4.2h3.6v-4.2h2.5v12.1h-8.6V36.5H189.3z M189.3,46.5h3.6v-3.9h-3.6V46.5z M200.4,35.1v17.6h-2.5
		V35.1H200.4z"/>
	<path class="st1" d="M212.7,42.5c0,3.9-2,6.3-4.6,6.3c-2.7,0-4.6-2.4-4.6-6.3c0-3.8,1.9-6.2,4.6-6.2
		C210.8,36.3,212.7,38.7,212.7,42.5z M210.3,42.5c0-2.6-0.9-4-2.2-4c-1.3,0-2.2,1.4-2.2,4c0,2.6,0.9,4,2.2,4
		C209.4,46.5,210.3,45.1,210.3,42.5z M219.7,43.8h-2.5v8.8h-2.5V35.1h2.5v6.6h2.5V43.8z"/>
	<path class="st1" d="M234.4,36.1c0,4.7-2.9,7.8-8.1,9.1l-0.9-2c3.9-1,6.1-2.9,6.4-5.2h-5.4v-2H234.4z M228.2,45.6h11.6v6.8h-11.6
		V45.6z M230.7,50.4h6.6v-2.9h-6.6V50.4z M239.8,35.1v9.7h-2.5v-9.7H239.8z"/>
	<path class="st1" d="M258.5,44v2h-15.8v-2H258.5z M244.3,39.2c0-2.2,2.5-3.6,6.3-3.6c3.8,0,6.3,1.4,6.3,3.6s-2.5,3.6-6.3,3.6
		C246.8,42.8,244.3,41.4,244.3,39.2z M247.1,50.3h9.6v2h-12.1v-5.1h2.5V50.3z M246.9,39.2c0,1.1,1.4,1.6,3.7,1.6
		c2.4,0,3.8-0.5,3.8-1.6c0-1.1-1.4-1.6-3.8-1.6C248.3,37.6,246.9,38.1,246.9,39.2z"/>
	<path class="st1" d="M260.3,47.6c3.2,0,7.4,0,11.1-0.5l0.2,1.8c-3.9,0.7-7.9,0.7-11,0.7L260.3,47.6z M271.1,39.2h-10.5v-2h4v-1.9
		h2.5v1.9h4V39.2z M265.9,39.9c2.5,0,4.3,1.3,4.3,3.3c0,2-1.8,3.3-4.3,3.3c-2.5,0-4.3-1.3-4.3-3.3C261.6,41.2,263.4,39.9,265.9,39.9
		z M265.9,41.8c-1.2,0-1.9,0.5-1.9,1.4c0,0.9,0.8,1.4,1.9,1.4c1.1,0,1.9-0.5,1.9-1.4C267.8,42.3,267,41.8,265.9,41.8z M274.8,35.1
		v17.5h-2.5V35.1H274.8z"/>
	<path class="st1" d="M292.2,43.3c-2.8,0.6-5.5,0.7-8,0.7h-1.5v-8.2h2.5V42c2.1,0,4.3-0.2,6.7-0.7L292.2,43.3z M284.4,45.7h11.4v6.6
		h-11.4V45.7z M286.8,50.4h6.5v-2.7h-6.5V50.4z M298.1,40.8h-2.3v4.1h-2.5v-9.8h2.5v3.7h2.3V40.8z"/>
	<path class="st1" d="M315.3,46.8h-6.7v5.9h-2.5v-5.9h-6.6v-2h15.8V46.8z M300.2,41.8c3.6-0.4,5.4-2.1,5.7-3.8h-5v-2h13v2h-5
		c0.2,1.7,2.1,3.4,5.6,3.8l-0.9,2c-3.1-0.4-5.2-1.7-6.2-3.5c-1,1.8-3.2,3.1-6.2,3.5L300.2,41.8z"/>
	<path class="st1" d="M325.2,43.8c-0.9,0.9-2.1,1.4-3.4,1.4c-2.6,0-4.6-1.9-4.6-4.5c0-2.6,2-4.5,4.6-4.5c1.4,0,2.5,0.5,3.4,1.4h3.9
		v-2.4h2.5v12.8h-2.5v-4.1H325.2z M321.8,43c1.3,0,2.2-0.9,2.2-2.4c0-1.4-0.9-2.3-2.2-2.3c-1.3,0-2.2,0.9-2.2,2.3
		C319.5,42.1,320.5,43,321.8,43z M332,50.3v2H320v-5.6h2.5v3.6H332z M326.2,39.5c0.1,0.4,0.1,0.7,0.1,1.1c0,0.4,0,0.8-0.1,1.1h2.8
		v-2.3H326.2z"/>
	<path class="st1" d="M343.8,36.6h2.3v11.8h-6.9V36.6h2.4v4h2.2V36.6z M343.8,42.5h-2.2v3.9h2.2V42.5z M353.7,35.1v17.5h-2.4v-8.8
		h-1.5v8h-2.3V35.4h2.3v6.4h1.5v-6.7H353.7z"/>
	<path class="st1" d="M365.3,45.5c-1.8-0.7-3.1-1.9-3.8-3.6c-0.7,1.8-2.1,3.2-4.1,4l-1.3-2c2.9-1,4.1-3.4,4.1-5.9v-1.9h2.5v1.9
		c0,2.3,1.2,4.5,3.9,5.5L365.3,45.5z M371.2,50.3v2h-11.9v-5.6h2.5v3.6H371.2z M368.3,40.8h-3.2v-2h3.2v-3.7h2.5V48h-2.5V40.8z"/>
	<path class="st1" d="M381.9,43.3c-0.8,0.8-2,1.3-3.4,1.3c-2.6,0-4.6-1.8-4.6-4.3c0-2.5,2-4.3,4.6-4.3c1.4,0,2.6,0.5,3.4,1.3h3.9
		v-2.3h2.5v10.3h-2.5v-2.1H381.9z M378.5,42.5c1.3,0,2.2-0.8,2.2-2.2c0-1.4-1-2.2-2.2-2.2c-1.3,0-2.2,0.8-2.2,2.2
		C376.3,41.7,377.2,42.5,378.5,42.5z M388.4,49.1c0,2.2-2.3,3.5-6,3.5c-3.7,0-6-1.3-6-3.5c0-2.2,2.3-3.5,6-3.5
		C386.1,45.7,388.4,47,388.4,49.1z M385.9,49.1c0-1-1.2-1.5-3.5-1.5s-3.5,0.5-3.5,1.5c0,1,1.2,1.5,3.5,1.5S385.9,50.2,385.9,49.1z
		 M383,39.4c0.1,0.3,0.1,0.6,0.1,0.9c0,0.3,0,0.6-0.1,1h2.8v-1.9H383z"/>
	<path class="st1" d="M404.8,45.6c-1.9-0.6-3.2-1.9-4-3.5c-0.8,1.7-2.1,3.1-4.2,3.8l-1.3-2c2.9-0.9,4.1-3.2,4.1-5.4v-0.2h-3.4v-2
		h9.4v2h-3.4v0.2c0,2.1,1.2,4.2,4,5.1L404.8,45.6z M410.5,50.3v2h-11.9v-5.5h2.5v3.5H410.5z M407.6,39.6v-4.5h2.5v12.8h-2.5v-6.2
		h-2.7v-2H407.6z"/>
	<path class="st1" d="M419.2,37.7h3.8v2h-10.2v-2h3.9v-2.3h2.5V37.7z M422.4,44.8c0,2.5-1.9,4.2-4.4,4.2c-2.5,0-4.4-1.7-4.4-4.2
		c0-2.4,1.9-4.2,4.4-4.2C420.5,40.7,422.4,42.4,422.4,44.8z M420,44.8c0-1.3-0.9-2.1-2-2.1s-2.1,0.8-2.1,2.1s0.9,2.1,2.1,2.1
		S420,46.2,420,44.8z M429.2,44h-2.5v8.6h-2.5V35.1h2.5v6.8h2.5V44z"/>
	<path class="st1" d="M440.1,45.6c-1.9-0.6-3.3-1.9-4.1-3.4c-0.8,1.7-2.2,3.1-4.2,3.7l-1.3-2c2.9-0.9,4.2-3.2,4.2-5.4v-0.2h-3.5v-2
		h9.5v2h-3.5v0.2c0,2.1,1.3,4.2,4.1,5.1L440.1,45.6z M445.4,50.3v2h-12.1v-5.7h2.5v3.7H445.4z M445,47.7h-2.5V35.1h2.5V47.7z"/>
	<path class="st1" d="M468.1,48.5v2h-15.8v-2h6.7v-3.9h2.5v3.9H468.1z M452.9,43.4c3.7-0.6,5.7-2.8,5.9-5h-5.2v-2h13.2v2h-5.2
		c0.2,2.3,2.3,4.4,6,4.9l-1,2c-3.1-0.6-5.3-2-6.4-4.1c-1.1,2.1-3.3,3.6-6.3,4.2L452.9,43.4z"/>
	<path class="st1" d="M485.5,44v2h-15.8v-2H485.5z M471.3,39.2c0-2.2,2.5-3.6,6.3-3.6c3.8,0,6.3,1.4,6.3,3.6s-2.5,3.6-6.3,3.6
		C473.8,42.8,471.3,41.4,471.3,39.2z M474.1,50.3h9.6v2h-12.1v-5.1h2.5V50.3z M473.9,39.2c0,1.1,1.4,1.6,3.7,1.6
		c2.4,0,3.8-0.5,3.8-1.6c0-1.1-1.4-1.6-3.8-1.6C475.3,37.6,473.9,38.1,473.9,39.2z"/>
	<path class="st1" d="M494,39.8c0,2.8,1.4,5.9,4.3,7.1l-1.4,2c-2-0.9-3.4-2.6-4.2-4.7c-0.8,2.3-2.2,4.2-4.2,5.1l-1.4-2
		c2.9-1.3,4.4-4.5,4.4-7.5v-1h-3.6v-2.1h9.8v2.1H494V39.8z M501.7,35.1v17.5h-2.5V35.1H501.7z"/>
	<path class="st1" d="M519.3,38.9H509v-2h3.9v-1.9h2.5v1.9h3.9L519.3,38.9z M514.1,46.3c-2.5,0-4.3-1.4-4.3-3.4c0-2,1.8-3.4,4.3-3.4
		s4.3,1.4,4.3,3.4C518.4,44.9,516.6,46.3,514.1,46.3z M514,50.3h9.4v2h-11.9v-5.1h2.5V50.3z M514.1,44.4c1.1,0,1.9-0.5,1.9-1.5
		c0-0.9-0.8-1.5-1.9-1.5c-1.1,0-1.9,0.5-1.9,1.5C512.2,43.8,513,44.4,514.1,44.4z M525.1,40.4v2.1h-2.3v5.7h-2.5V35.1h2.5v5.3H525.1
		z"/>
	<path class="st1" d="M533.2,39.8c0,2.8,1.4,5.9,4.3,7.1l-1.4,2c-2-0.9-3.4-2.6-4.2-4.7c-0.8,2.3-2.2,4.2-4.2,5.1l-1.4-2
		c2.9-1.3,4.4-4.5,4.4-7.5v-1H527v-2.1h9.8v2.1h-3.6V39.8z M541,35.1v17.5h-2.5V35.1H541z"/>
	<path class="st1" d="M559.8,43.5v2h-3.7v3.1h-2.5v-3.1h-1.7v3.1h-2.5v-3.1H544v-2H559.8z M545.6,39c0-2.2,2.5-3.6,6.3-3.6
		c3.8,0,6.3,1.4,6.3,3.6c0,2.2-2.5,3.6-6.3,3.6C548.1,42.7,545.6,41.2,545.6,39z M548.2,50.3h10v2h-12.5v-5.1h2.5V50.3z M548.3,39
		c0,1.1,1.4,1.6,3.6,1.6c2.2,0,3.6-0.6,3.6-1.6c0-1.1-1.4-1.6-3.6-1.6C549.7,37.4,548.3,38,548.3,39z"/>
</g>
<g class="st0">
	<path class="st1" d="M62.7,106.1c-1.4,0.3-2.9,0.5-4.3,0.6v5.9h-2.5v-5.8c-1.5,0.1-2.9,0.1-4.2,0.1l-0.3-2.1c3.1,0,7.4,0,11.1-0.6
		L62.7,106.1z M52.4,100.2c0-2.2,2-3.7,4.6-3.7s4.6,1.5,4.6,3.7c0,2.2-1.9,3.7-4.6,3.7S52.4,102.3,52.4,100.2z M54.9,100.2
		c0,1.1,0.9,1.7,2.2,1.7c1.3,0,2.2-0.6,2.2-1.7c0-1.1-0.9-1.7-2.2-1.7C55.8,98.5,54.9,99.1,54.9,100.2z M66,95.7v17.5h-2.5V95.7H66z
		"/>
	<path class="st1" d="M83.9,110.9v2H71v-5.2h2.4v-2.3c-1.5,0.1-3,0.1-4.3,0.1l-0.3-2c3.2,0,7.4-0.1,11.1-0.5l0.2,1.8
		c-1.4,0.2-2.8,0.4-4.2,0.5v3.3h-2.4v2.4H83.9z M70,99.4c0-1.9,1.8-3.1,4.4-3.1c2.5,0,4.4,1.3,4.4,3.1c0,1.9-1.8,3.1-4.4,3.1
		C71.8,102.6,70,101.3,70,99.4z M72.4,99.4c0,0.9,0.8,1.3,2,1.3c1.2,0,2-0.4,2-1.3c0-0.9-0.8-1.3-2-1.3
		C73.2,98.1,72.4,98.6,72.4,99.4z M81.1,105.9V95.7h2.5V109h-2.5v-1.4h-3.3v-1.7H81.1z"/>
	<path class="st1" d="M95.5,105.6c-1.9-0.6-3.2-1.7-4-3.2c-0.8,1.7-2.2,3.1-4.2,3.8l-1.3-2c2.8-1,4.1-3.2,4.1-5.4h-3.5v-2h9.5v2
		h-3.4c0,2,1.2,4,4,4.8L95.5,105.6z M100.3,109.8c0,2.1-2.3,3.4-5.9,3.4c-3.6,0-5.9-1.3-5.9-3.4c0-2.1,2.3-3.4,5.9-3.4
		C98,106.4,100.3,107.7,100.3,109.8z M97.8,109.8c0-1-1.2-1.5-3.4-1.5c-2.2,0-3.4,0.5-3.4,1.5c0,1,1.2,1.5,3.4,1.5
		C96.6,111.3,97.8,110.8,97.8,109.8z M102.4,99.7v2.1h-2.3v4.3h-2.5V95.7h2.5v4H102.4z"/>
	<path class="st1" d="M109.2,107.6c1.7-0.1,3.4-0.2,5-0.4l0.1,1.8c-3.6,0.6-7.5,0.7-10.5,0.7l-0.2-2.1c1,0,2,0,3.1,0v-5.2h2.5V107.6
		z M110.6,105.4c0.4-2.5,0.5-4.4,0.5-5.9h-6.5v-2h9v1.4c0,1.7,0,3.8-0.5,6.7L110.6,105.4z M119.9,104.8h-2.4v8.4H115V95.7h2.5v7h2.4
		V104.8z"/>
	<path class="st1" d="M141.4,107.8h-6.7v5.5h-2.5v-5.5h-6.6v-2h15.8V107.8z M139.6,104.1h-12.2v-7.8h2.5v2h7.2v-2h2.5V104.1z
		 M137.1,100.3h-7.2v1.8h7.2V100.3z"/>
	<path class="st1" d="M154.4,106.1c-1.4,0.3-2.9,0.5-4.3,0.6v5.9h-2.5v-5.8c-1.5,0.1-2.9,0.1-4.2,0.1l-0.3-2.1c3.1,0,7.4,0,11.1-0.6
		L154.4,106.1z M144.2,100.2c0-2.2,2-3.7,4.6-3.7s4.6,1.5,4.6,3.7c0,2.2-1.9,3.7-4.6,3.7S144.2,102.3,144.2,100.2z M146.6,100.2
		c0,1.1,0.9,1.7,2.2,1.7c1.3,0,2.2-0.6,2.2-1.7c0-1.1-0.9-1.7-2.2-1.7C147.5,98.5,146.6,99.1,146.6,100.2z M157.7,95.7v17.5h-2.5
		V95.7H157.7z"/>
	<path class="st1" d="M175.7,110.9v2h-13v-5.2h2.4v-2.3c-1.5,0.1-3,0.1-4.3,0.1l-0.3-2c3.2,0,7.4-0.1,11.1-0.5l0.2,1.8
		c-1.4,0.2-2.8,0.4-4.2,0.5v3.3h-2.4v2.4H175.7z M161.7,99.4c0-1.9,1.8-3.1,4.4-3.1c2.5,0,4.4,1.3,4.4,3.1c0,1.9-1.8,3.1-4.4,3.1
		C163.6,102.6,161.7,101.3,161.7,99.4z M164.1,99.4c0,0.9,0.8,1.3,2,1.3c1.2,0,2-0.4,2-1.3c0-0.9-0.8-1.3-2-1.3
		C164.9,98.1,164.1,98.6,164.1,99.4z M172.8,105.9V95.7h2.5V109h-2.5v-1.4h-3.3v-1.7H172.8z"/>
	<path class="st1" d="M187.3,105.6c-1.9-0.6-3.2-1.7-4-3.2c-0.8,1.7-2.2,3.1-4.2,3.8l-1.3-2c2.8-1,4.1-3.2,4.1-5.4h-3.5v-2h9.5v2
		h-3.4c0,2,1.2,4,4,4.8L187.3,105.6z M192,109.8c0,2.1-2.3,3.4-5.9,3.4c-3.6,0-5.9-1.3-5.9-3.4c0-2.1,2.3-3.4,5.9-3.4
		C189.7,106.4,192,107.7,192,109.8z M189.5,109.8c0-1-1.2-1.5-3.4-1.5c-2.2,0-3.4,0.5-3.4,1.5c0,1,1.2,1.5,3.4,1.5
		C188.3,111.3,189.5,110.8,189.5,109.8z M194.1,99.7v2.1h-2.3v4.3h-2.5V95.7h2.5v4H194.1z"/>
	<path class="st1" d="M195.7,114.1c1.5-0.6,2.3-1.5,2.3-2.6c-0.1,0-0.1,0-0.2,0c-0.9,0-1.7-0.6-1.7-1.7c0-1,0.8-1.7,1.8-1.7
		c1.3,0,2,1,2,2.8c0,2.2-1.3,3.9-3.6,4.7L195.7,114.1z"/>
	<path class="st1" d="M212.9,108.1c1.4-0.1,2.8-0.2,4.2-0.4l0.2,1.8c-3.8,0.7-7.9,0.7-11,0.7l-0.3-2c1.3,0,2.8,0,4.4,0v-1.5
		c-1.9-0.4-3.1-1.5-3.1-3.2c0-2,1.8-3.3,4.4-3.3c2.5,0,4.3,1.3,4.3,3.3c0,1.6-1.2,2.8-3.1,3.2V108.1z M216.9,99.6h-10.5v-2h4v-1.9
		h2.5v1.9h4V99.6z M211.7,105c1.2,0,2-0.5,2-1.4c0-0.9-0.8-1.4-2-1.4c-1.2,0-2,0.5-2,1.4C209.7,104.5,210.5,105,211.7,105z
		 M220.6,95.7v17.5h-2.5V95.7H220.6z"/>
	<path class="st1" d="M232.6,96.1h2.3v16.4h-2.3v-5.7h-2.4v-2h2.4v-2.4h-2.1c-0.8,2.9-2.5,5.3-5.8,7.3l-1.4-1.7
		c3.5-2.1,5-4.6,5.3-8.1h-4.3v-2h6.8c0,0.9-0.1,1.7-0.2,2.5h1.7V96.1z M238.5,95.7v17.5h-2.4V95.7H238.5z"/>
	<path class="st1" d="M241.1,114.1c1.5-0.6,2.3-1.5,2.3-2.6c-0.1,0-0.1,0-0.2,0c-0.9,0-1.7-0.6-1.7-1.7c0-1,0.8-1.7,1.8-1.7
		c1.3,0,2,1,2,2.8c0,2.2-1.3,3.9-3.6,4.7L241.1,114.1z"/>
	<path class="st1" d="M267.3,108.9v2.1h-15.8v-2.1H267.3z M262.8,99.3h-9.7v-2h12.3v2.1c0,2.5,0,4.8-0.6,8.4l-2.5-0.2
		C262.8,104.3,262.8,101.8,262.8,99.3L262.8,99.3z"/>
	<path class="st1" d="M272.4,107.1c2.7,0,4.9-0.2,7.3-0.6l0.3,2c-2.8,0.5-5.4,0.6-8.6,0.6h-1.6V102h5.7v-2.8h-5.7v-2h8.3v6.8h-5.7
		V107.1z M283.5,95.7v17.6H281V95.7H283.5z"/>
	<path class="st1" d="M302.2,109.1v2h-15.8v-2h5.6v-6h2.5v6H302.2z M297.5,107c0.7-3.3,0.7-5.7,0.7-7.8H288v-2h12.7v1.7
		c0,2.2,0,4.7-0.7,8.4L297.5,107z"/>
	<path class="st1" d="M319,104.9c-2.5,0.4-4.7,0.5-8.3,0.5h-1.5v-8.6h8.4v2h-5.9v1.3h5.4v1.9h-5.4v1.4c3,0,4.9-0.1,7.1-0.4
		L319,104.9z M311.1,106.8h11.6v6.2h-11.6V106.8z M313.6,111h6.7v-2.3h-6.7V111z M322.7,95.7v10.4h-2.5V95.7H322.7z"/>
	<path class="st1" d="M334.9,105.6c-1.9-0.6-3.2-1.7-4-3.2c-0.8,1.7-2.2,3.1-4.2,3.8l-1.3-2c2.8-1,4.1-3.2,4.1-5.4h-3.5v-2h9.5v2
		h-3.4c0,2,1.2,4,4,4.8L334.9,105.6z M339.6,109.8c0,2.1-2.3,3.4-5.9,3.4c-3.6,0-5.9-1.3-5.9-3.4c0-2.1,2.3-3.4,5.9-3.4
		C337.4,106.4,339.6,107.7,339.6,109.8z M337.2,109.8c0-1-1.2-1.5-3.4-1.5c-2.2,0-3.4,0.5-3.4,1.5c0,1,1.2,1.5,3.4,1.5
		C336,111.3,337.2,110.8,337.2,109.8z M341.8,99.7v2.1h-2.3v4.3h-2.5V95.7h2.5v4H341.8z"/>
	<path class="st1" d="M359,102.5v2h-15.8v-2H359z M347.5,111.1h10v1.9H345v-4.7h9.6v-1H345v-1.9H357v4.6h-9.6V111.1z M357.1,101.6
		h-12v-5.5H357v2h-9.4v1.5h9.5V101.6z"/>
	<path class="st1" d="M376.5,109.2v2.1h-15.8v-2.1h6.6v-2.6h-4.8v-5.9h9.8v-1.9h-9.8v-2h12.3v5.8h-9.7v2h10.1v2h-5.3v2.6H376.5z"/>
	<path class="st1" d="M398.3,106.2h-6.7v7H389v-7h-6.5v-2h11c0.4-2.2,0.5-3.9,0.5-5.4h-9.7v-2h12.1v1.6c0,1.6,0,3.4-0.4,5.9h2.3
		V106.2z"/>
	<path class="st1" d="M409.1,105.4c-1.8-0.6-3.1-1.8-3.8-3.4c-0.8,1.8-2.2,3.2-4.2,3.9l-1.3-2c3-0.9,4.2-3.3,4.2-5.7v-1.6h2.5v1.4
		c0,2.4,1.1,4.5,3.9,5.4L409.1,105.4z M414.6,109.8c0,2.1-2.3,3.4-6,3.4c-3.7,0-6-1.3-6-3.4c0-2.2,2.3-3.4,6-3.4
		C412.3,106.4,414.6,107.7,414.6,109.8z M412.1,109.8c0-1-1.2-1.5-3.5-1.5c-2.3,0-3.5,0.5-3.5,1.5c0,1,1.2,1.5,3.5,1.5
		C410.9,111.3,412.1,110.8,412.1,109.8z M412,100.9h-3.2v-2h3.2v-3.2h2.5V106H412V100.9z"/>
	<path class="st1" d="M424.4,107.7c1.4-0.1,2.8-0.2,4.1-0.3l0.2,1.8c-3.7,0.6-7.7,0.6-10.9,0.6l-0.3-2.1c1.4,0,2.9,0,4.4,0v-2.9
		h-3.3v-7.5h9v2h-6.5v3.5h6.6v2h-3.3V107.7z M432,95.7v17.5h-2.5V95.7H432z"/>
	<path class="st1" d="M449.6,95.7v17.6H447V104h-2.9c-0.3,3.3-2.1,5.4-4.5,5.4c-2.6,0-4.5-2.4-4.5-6.3c0-3.8,1.9-6.2,4.5-6.2
		c2.4,0,4.1,1.9,4.5,5.1h2.9v-6.3H449.6z M441.8,103.2c0-2.6-0.9-4-2.1-4c-1.3,0-2.1,1.4-2.1,4c0,2.6,0.9,4,2.1,4
		C440.9,107.2,441.8,105.8,441.8,103.2z"/>
	<path class="st1" d="M456.9,100.8c0-2.5,2.1-4.2,4.8-4.2c2.7,0,4.8,1.7,4.8,4.2c0,2.5-2,4.2-4.8,4.2
		C459,105,456.9,103.3,456.9,100.8z M469.4,106.9c0,1.8,1,3.5,3.3,4.2l-1.2,1.8c-1.7-0.6-2.7-1.6-3.3-2.9c-0.6,1.3-1.6,2.5-3.2,3.1
		c-1.6-0.6-2.6-1.7-3.2-3.1c-0.6,1.3-1.7,2.3-3.2,2.9l-1.2-1.8c2.3-0.8,3.3-2.5,3.3-4.2v-0.6h2.4v0.6c0,1.4,0.6,2.8,1.9,3.8
		c1.4-1,2-2.5,2-3.8v-0.6h2.5V106.9z M459.4,100.8c0,1.3,1,2.1,2.3,2.1c1.3,0,2.3-0.8,2.3-2.1s-1-2.1-2.3-2.1
		C460.3,98.7,459.4,99.5,459.4,100.8z M471.2,105.6h-2.5v-9.9h2.5V105.6z"/>
	<path class="st1" d="M490,109.1v2.1h-15.8v-2.1H490z M488.6,101.7c0,3-2.8,5.1-6.5,5.1c-3.7,0-6.5-2-6.5-5.1c0-3.1,2.8-5.1,6.5-5.1
		C485.7,96.6,488.6,98.6,488.6,101.7z M478,101.7c0,1.9,1.7,3,4.1,3c2.4,0,4.1-1.1,4.1-3c0-1.9-1.7-3-4.1-3
		C479.7,98.6,478,99.8,478,101.7z"/>
	<path class="st1" d="M506.3,95.7v17.5h-2.5v-6.9h-3.2v2.6h-8.3V97.3h8.3v2.4h3.2v-4H506.3z M498.1,99.2h-3.4v7.8h3.4V99.2z
		 M503.8,104.4v-2.7h-3.2v2.7H503.8z"/>
	<path class="st1" d="M509.3,114.1c1.5-0.6,2.3-1.5,2.3-2.6c-0.1,0-0.1,0-0.2,0c-0.9,0-1.7-0.6-1.7-1.7c0-1,0.8-1.7,1.8-1.7
		c1.3,0,2,1,2,2.8c0,2.2-1.3,3.9-3.6,4.7L509.3,114.1z"/>
</g>
<g class="st0">
	<path class="st1" d="M18.8,137.2c-1.9-0.6-3.2-1.9-4-3.5c-0.8,1.7-2.1,3.1-4.2,3.8l-1.3-2c2.9-0.9,4.1-3.2,4.1-5.4v-0.2h-3.4v-2
		h9.4v2h-3.4v0.2c0,2.1,1.2,4.2,4,5.1L18.8,137.2z M24.5,141.9v2H12.6v-5.5h2.5v3.5H24.5z M21.6,131.2v-4.5h2.5v12.8h-2.5v-6.2h-2.7
		v-2H21.6z"/>
	<path class="st1" d="M32.4,132c0,2.6,0.9,5.3,3.4,6.6l-1.3,1.9c-1.5-0.8-2.5-2.2-3.2-3.9c-0.6,1.8-1.6,3.4-3.2,4.3l-1.4-1.9
		c2.5-1.5,3.4-4.3,3.4-7v-0.4h-2.7v-2h2.7v-2.4h2.4v2.4h2.7v2h-2.7V132z M36.1,127h2.3v16.4h-2.3v-8.1h-2v-2h2V127z M42,126.7v17.5
		h-2.4v-17.5H42z"/>
	<path class="st1" d="M64.6,133.9v2H48.8v-2h6.6v-1.6h2.5v1.6H64.6z M49.5,131.4c3.2-0.2,4.9-1.2,5.4-2.3h-4.6v-1.9h12.9v1.9h-4.6
		c0.5,1.1,2.2,2.1,5.4,2.3l-0.8,1.9c-3.3-0.3-5.5-1.4-6.4-3c-0.9,1.6-3.1,2.8-6.4,3L49.5,131.4z M53.1,142.2h10v1.9H50.6v-4.6h9.6
		v-1h-9.6v-1.8h12.1v4.5h-9.6V142.2z"/>
	<path class="st1" d="M80.9,126.7v9.4h-2.5v-3.5h-2.8c-0.5,1.9-2.3,3.2-4.5,3.2c-2.6,0-4.6-1.7-4.6-4.2s2-4.2,4.6-4.2
		c2.2,0,4,1.3,4.5,3.1h2.8v-3.9H80.9z M73.3,131.6c0-1.3-0.9-2.1-2.2-2.1c-1.3,0-2.2,0.8-2.2,2.1c0,1.3,0.9,2.1,2.2,2.1
		C72.4,133.7,73.3,132.9,73.3,131.6z M78.4,136.9h2.5v7.1H69.3v-7.1h2.5v1.7h6.6V136.9z M78.4,140.5h-6.6v1.6h6.6V140.5z"/>
	<path class="st1" d="M93.1,137.2c-1.9-0.6-3.2-1.9-4-3.5c-0.8,1.7-2.1,3.1-4.2,3.8l-1.3-2c2.9-0.9,4.1-3.2,4.1-5.4v-0.2h-3.4v-2
		h9.4v2h-3.4v0.2c0,2.1,1.2,4.2,4,5.1L93.1,137.2z M98.8,141.9v2H86.8v-5.5h2.5v3.5H98.8z M95.9,131.2v-4.5h2.5v12.8h-2.5v-6.2h-2.7
		v-2H95.9z"/>
	<path class="st1" d="M108,130.6c0,3.2,1.4,6.4,4.4,7.7l-1.4,2c-2-0.9-3.4-2.6-4.1-4.8c-0.8,2.3-2.2,4.2-4.3,5.2l-1.5-2.1
		c3.1-1.3,4.5-4.7,4.5-8.1v-2.5h2.5V130.6z M115.7,126.7v17.6h-2.5v-17.6H115.7z"/>
	<path class="st1" d="M126.2,136.4c-1.4-0.6-2.5-1.6-3.1-2.9c-0.6,1.5-1.7,2.7-3.3,3.4l-1.3-1.9c2.5-1.1,3.4-3.2,3.4-5.2v-2h2.4v2
		c0,1.9,0.9,3.8,3.2,4.7L126.2,136.4z M133.7,140.9c0,2.1-2.3,3.3-6,3.3c-3.7,0-6-1.2-6-3.3c0-2,2.4-3.3,6-3.3
		C131.4,137.7,133.7,138.9,133.7,140.9z M131.2,140.9c0-0.9-1.3-1.4-3.5-1.4c-2.3,0-3.5,0.5-3.5,1.4s1.3,1.4,3.5,1.4
		C129.9,142.3,131.2,141.9,131.2,140.9z M129.9,136.9h-2.3V127h2.3v3.9h1.4v-4.3h2.4v10.7h-2.4V133h-1.4V136.9z"/>
	<path class="st1" d="M152,133.5v2h-15.8v-2H152z M140.5,142.1h10v1.9H138v-4.7h9.6v-1H138v-1.9h12.1v4.6h-9.6V142.1z M150.2,132.6
		h-12v-5.5H150v2h-9.4v1.5h9.5V132.6z"/>
	<path class="st1" d="M169.5,133.8v2h-15.8v-2H169.5z M155.2,129.9c0-1.9,2.3-3,6.3-3c4,0,6.3,1.1,6.3,3c0,1.9-2.3,3-6.3,3
		C157.6,132.9,155.2,131.9,155.2,129.9z M158,142.2h10v1.9h-12.5v-4.6h9.6v-0.9h-9.6v-1.8h12.1v4.5H158V142.2z M157.9,129.9
		c0,0.8,1.2,1.2,3.7,1.2c2.5,0,3.7-0.3,3.7-1.2c0-0.8-1.2-1.1-3.7-1.1C159,128.8,157.9,129.2,157.9,129.9z"/>
	<path class="st1" d="M178.4,138.2c1.6,0,3.1-0.1,4.8-0.4l0.2,2c-2.1,0.4-4,0.5-6.2,0.5H176v-11.5h6.5v2h-4V138.2z M190.5,126.7
		v17.5h-2.4v-8.8h-1.6v7.9h-2.3V127h2.3v6.4h1.6v-6.7H190.5z"/>
	<path class="st1" d="M208.8,140.3v2h-15.9v-2h3.9V137h-2.6v-2h2.3v-4.9h-2.4v-2h13.3v2h-2.4v4.9h2.3v2h-2.6v3.3H208.8z M199,135
		h3.6v-4.9H199V135z M199.3,140.3h3V137h-3V140.3z"/>
	<path class="st1" d="M216.7,129.3h3.8v2h-10.2v-2h3.9V127h2.5V129.3z M219.9,136.4c0,2.5-1.9,4.2-4.4,4.2c-2.5,0-4.4-1.7-4.4-4.2
		c0-2.4,1.9-4.2,4.4-4.2C218,132.3,219.9,134,219.9,136.4z M217.5,136.4c0-1.3-0.9-2.1-2-2.1s-2.1,0.8-2.1,2.1s0.9,2.1,2.1,2.1
		S217.5,137.8,217.5,136.4z M226.7,135.6h-2.5v8.6h-2.5v-17.5h2.5v6.8h2.5V135.6z"/>
	<path class="st1" d="M242.6,126.7v17.6h-2.5v-6.5h-3.6c-0.8,1.7-2.1,2.7-3.8,2.7c-2.6,0-4.5-2.4-4.5-6.3c0-3.8,1.9-6.2,4.5-6.2
		c1.6,0,2.9,0.9,3.7,2.4h3.7v-3.6H242.6z M234.9,134.2c0-2.6-0.9-4-2.2-4c-1.3,0-2.1,1.4-2.1,4c0,2.6,0.9,4,2.1,4
		C234,138.2,234.9,136.8,234.9,134.2z M240.1,135.7v-3.4h-3c0.1,0.6,0.2,1.2,0.2,1.9c0,0.6,0,1.1-0.1,1.6H240.1z"/>
	<path class="st1" d="M265.5,133.9v2h-15.8v-2h6.6v-1.6h2.5v1.6H265.5z M250.4,131.4c3.2-0.2,4.9-1.2,5.4-2.3h-4.6v-1.9h12.9v1.9
		h-4.6c0.5,1.1,2.2,2.1,5.4,2.3l-0.8,1.9c-3.3-0.3-5.5-1.4-6.4-3c-0.9,1.6-3.1,2.8-6.4,3L250.4,131.4z M254,142.2h10v1.9h-12.5v-4.6
		h9.6v-1h-9.6v-1.8h12.1v4.5H254V142.2z"/>
	<path class="st1" d="M281.8,126.7v9.4h-2.5v-3.5h-2.8c-0.5,1.9-2.3,3.2-4.5,3.2c-2.6,0-4.6-1.7-4.6-4.2s2-4.2,4.6-4.2
		c2.2,0,4,1.3,4.5,3.1h2.8v-3.9H281.8z M274.2,131.6c0-1.3-0.9-2.1-2.2-2.1c-1.3,0-2.2,0.8-2.2,2.1c0,1.3,0.9,2.1,2.2,2.1
		C273.3,133.7,274.2,132.9,274.2,131.6z M279.3,136.9h2.5v7.1h-11.6v-7.1h2.5v1.7h6.6V136.9z M279.3,140.5h-6.6v1.6h6.6V140.5z"/>
	<path class="st1" d="M294,137.2c-1.9-0.6-3.2-1.9-4-3.5c-0.8,1.7-2.1,3.1-4.2,3.8l-1.3-2c2.9-0.9,4.1-3.2,4.1-5.4v-0.2h-3.4v-2h9.4
		v2h-3.4v0.2c0,2.1,1.2,4.2,4,5.1L294,137.2z M299.7,141.9v2h-11.9v-5.5h2.5v3.5H299.7z M296.8,131.2v-4.5h2.5v12.8h-2.5v-6.2H294
		v-2H296.8z"/>
	<path class="st1" d="M308.9,130.6c0,3.2,1.4,6.4,4.4,7.7l-1.4,2c-2-0.9-3.4-2.6-4.1-4.8c-0.8,2.3-2.2,4.2-4.3,5.2l-1.5-2.1
		c3.1-1.3,4.5-4.7,4.5-8.1v-2.5h2.5V130.6z M316.6,126.7v17.6h-2.5v-17.6H316.6z"/>
	<path class="st1" d="M339.7,135.5v2h-15.8v-2h6.6v-1.7h2.5v1.7H339.7z M324.6,132.8c3.7-0.2,5.5-1.3,5.8-2.5h-4.9v-2h5.1v-1.5h2.5
		v1.5h5.1v2h-4.9c0.3,1.2,2,2.3,5.8,2.5l-0.7,1.9c-3.2-0.2-5.4-1.1-6.5-2.5c-1.1,1.4-3.3,2.3-6.5,2.5L324.6,132.8z M337.9,141.3
		c0,1.9-2.3,3-6.1,3s-6.1-1.1-6.1-3c0-1.9,2.2-3,6.1-3S337.9,139.3,337.9,141.3z M335.3,141.3c0-0.8-1.2-1.1-3.5-1.1
		c-2.4,0-3.5,0.3-3.5,1.1c0,0.8,1.2,1.1,3.5,1.1C334.2,142.4,335.3,142,335.3,141.3z"/>
	<path class="st1" d="M352.1,135.1c-3.6,0.6-7.6,0.7-10.7,0.7l-0.2-1.9c1,0,2.1,0,3.2,0v-2.8h2.5v2.7c1.7-0.1,3.5-0.2,5.1-0.4
		L352.1,135.1z M348.4,132.6c0.2-1.3,0.3-2.3,0.3-3.2h-6.5v-2h9v1c0,1.1,0,2.5-0.4,4.4L348.4,132.6z M345.9,142.2h10v1.9h-12.5v-4.6
		h9.4v-1h-9.5v-1.8h12v4.5h-9.4V142.2z M357.5,130.4v2.1h-2.1v3.6h-2.5v-9.3h2.5v3.7H357.5z"/>
	<path class="st1" d="M372.6,135.2h-8.5v-7.4h8.5V135.2z M373.2,139.4c0.3,1.2,2,2.6,5.5,2.8l-0.8,1.9c-2.9-0.2-4.9-1.3-6-2.6
		c-1.1,1.3-3.1,2.4-6.1,2.6l-0.8-1.9c3.5-0.3,5.3-1.6,5.5-2.8h-4.8v-1.9h4.9v-1.4h2.5v1.4h4.9v1.9H373.2z M370.1,129.7h-3.6v3.5h3.6
		V129.7z M377.7,136.7h-2.5v-9.9h2.5V136.7z"/>
	<path class="st1" d="M394.4,128.5c0,5.4-1.8,9.7-8,12.7l-1.3-2c4.5-2.1,6.4-4.9,6.8-8.8H386v-2H394.4z M399.6,126.7v17.5H397v-17.5
		H399.6z"/>
	<path class="st1" d="M413.7,137.5c-3.7,0.6-7.7,0.7-10.8,0.7l-0.3-1.9c1.3,0,2.8,0,4.4,0v-0.9c-1.9-0.3-3.1-1.2-3.1-2.5
		c0-1.6,1.7-2.6,4.3-2.6c2.6,0,4.3,1,4.3,2.6c0,1.3-1.2,2.3-3.1,2.5v0.8c1.4-0.1,2.7-0.2,4-0.3L413.7,137.5z M413.3,129.8h-10.3V128
		h3.9v-1.4h2.5v1.4h3.9V129.8z M405,139.3H417v5h-2.5v-3H405V139.3z M408.2,133.8c1.2,0,1.9-0.4,1.9-1c0-0.6-0.7-1-1.9-1
		c-1.2,0-2,0.3-2,1C406.3,133.5,407,133.8,408.2,133.8z M417,126.7v11.8h-2.5v-11.8H417z"/>
	<path class="st1" d="M435.8,133.8v2H420v-2H435.8z M421.5,129.9c0-1.9,2.3-3,6.3-3c4,0,6.3,1.1,6.3,3c0,1.9-2.3,3-6.3,3
		C423.9,132.9,421.5,131.9,421.5,129.9z M424.3,142.2h10v1.9h-12.5v-4.6h9.6v-0.9h-9.6v-1.8h12.1v4.5h-9.6V142.2z M424.1,129.9
		c0,0.8,1.2,1.2,3.7,1.2c2.5,0,3.7-0.3,3.7-1.2c0-0.8-1.2-1.1-3.7-1.1C425.3,128.8,424.1,129.2,424.1,129.9z"/>
	<path class="st1" d="M450.6,135.3h-8.3v-7.4h8.3V135.3z M446.6,142.3h9.3v1.7h-11.8v-7.2h11.5v1.7h-9v1h8.8v1.7h-8.8V142.3z
		 M448.1,129.9h-3.4v3.5h3.4V129.9z M457.8,130.3v2.1h-2.3v3.6H453v-9.3h2.5v3.6H457.8z"/>
	<path class="st1" d="M475.1,140.1v2h-15.8v-2h5.6v-6h2.5v6H475.1z M470.3,138c0.7-3.3,0.7-5.7,0.7-7.8h-10.2v-2h12.7v1.7
		c0,2.2,0,4.7-0.7,8.4L470.3,138z"/>
	<path class="st1" d="M481.3,131.8c0-2.5,2.1-4.2,4.8-4.2c2.7,0,4.8,1.7,4.8,4.2c0,2.5-2,4.2-4.8,4.2
		C483.3,136,481.3,134.3,481.3,131.8z M493.8,137.9c0,1.8,1,3.5,3.3,4.2l-1.2,1.8c-1.7-0.6-2.7-1.6-3.3-2.9
		c-0.6,1.3-1.6,2.5-3.2,3.1c-1.6-0.6-2.6-1.7-3.2-3.1c-0.6,1.3-1.7,2.3-3.2,2.9l-1.2-1.8c2.3-0.8,3.3-2.5,3.3-4.2v-0.6h2.4v0.6
		c0,1.4,0.6,2.8,1.9,3.8c1.4-1,2-2.5,2-3.8v-0.6h2.5V137.9z M483.7,131.8c0,1.3,1,2.1,2.3,2.1c1.3,0,2.3-0.8,2.3-2.1s-1-2.1-2.3-2.1
		C484.7,129.7,483.7,130.5,483.7,131.8z M495.6,136.6H493v-9.9h2.5V136.6z"/>
	<path class="st1" d="M514.3,134.4v2h-15.8v-2H514.3z M512.6,133.6c-3-0.4-5.1-1.6-6.2-3.3c-1.1,1.7-3.3,2.9-6.2,3.3l-0.9-1.9
		c3.9-0.5,5.8-2.4,5.8-4.2v-0.5h2.6v0.5c0,1.8,1.9,3.7,5.8,4.2L512.6,133.6z M509.8,137.2h2.5v6.8h-12v-6.8h2.5v1.5h7V137.2z
		 M509.8,140.5h-7v1.5h7V140.5z"/>
	<path class="st1" d="M519.4,137.8c2.3-0.1,4.8-0.2,7.4-0.8l0.3,2.1c-3,0.6-5.9,0.8-8.5,0.8h-1.6v-11.5h2.5V137.8z M530.6,126.7
		v17.5h-2.5v-17.5H530.6z"/>
	<path class="st1" d="M536.6,138c2.5,0,4.6-0.2,6.8-0.6l0.2,2.1c-2.6,0.5-5,0.6-8.1,0.6h-1.5v-11.7h8.2v2h-5.7V138z M549.7,135.2
		h-2.5v9h-2.5v-17.5h2.5v6.5h2.5V135.2z"/>
	<path class="st1" d="M551.5,141c0-1,0.7-1.8,1.7-1.8c1,0,1.7,0.8,1.7,1.8c0,1-0.7,1.8-1.7,1.8C552.2,142.8,551.5,142,551.5,141z"/>
</g>
<g class="st0">
	<path class="st1" d="M14,167.8c-1.8-0.6-3.1-1.8-3.8-3.4c-0.8,1.8-2.2,3.2-4.2,3.9l-1.3-2c3-0.9,4.2-3.3,4.2-5.7V159h2.5v1.4
		c0,2.4,1.1,4.5,3.9,5.4L14,167.8z M19.5,172.2c0,2.1-2.3,3.4-6,3.4c-3.7,0-6-1.3-6-3.4c0-2.2,2.3-3.4,6-3.4
		C17.2,168.8,19.5,170,19.5,172.2z M17,172.2c0-1-1.2-1.5-3.5-1.5c-2.3,0-3.5,0.5-3.5,1.5c0,1,1.2,1.5,3.5,1.5
		C15.8,173.6,17,173.2,17,172.2z M16.9,163.3h-3.2v-2h3.2v-3.2h2.5v10.3h-2.5V163.3z"/>
	<path class="st1" d="M38,165.9v2H22.3v-2h5.8v-3.1h2.5v3.1H38z M36.3,172.3c0,2-2.4,3.3-6.2,3.3c-3.8,0-6.2-1.3-6.2-3.3
		c0-2.1,2.4-3.3,6.2-3.3C33.8,169,36.3,170.2,36.3,172.3z M33.2,164.7c0.4-1.6,0.5-2.7,0.5-3.9h-9.6v-2h12.1v1.4
		c0,1.4,0,2.9-0.5,4.7L33.2,164.7z M33.8,172.3c0-1-1.3-1.4-3.7-1.4c-2.4,0-3.7,0.5-3.7,1.4c0,0.9,1.3,1.4,3.7,1.4
		C32.4,173.7,33.8,173.2,33.8,172.3z"/>
	<path class="st1" d="M49.1,168c-1.9-0.6-3.2-1.9-4-3.4c-0.8,1.7-2.1,3.1-4.2,3.8l-1.3-2c2.8-1,4.1-3.2,4.1-5.3h-3.4v-2h9.4v2h-3.4
		c0,2,1.3,4.1,4,5L49.1,168z M42.4,169.2h11.9v6.3h-2.5v-4.3h-9.4V169.2z M54.4,158.1v10.4h-2.5v-4.2h-2.6v-2h2.6v-4.2H54.4z"/>
	<path class="st1" d="M62.2,168c-2.7,0-4.8-1.9-4.8-4.4c0-2.6,2.1-4.4,4.8-4.4s4.7,1.9,4.7,4.4C67,166.2,64.9,168,62.2,168z
		 M62.2,165.9c1.3,0,2.3-0.9,2.3-2.3c0-1.4-1-2.3-2.3-2.3c-1.3,0-2.3,0.8-2.3,2.3C59.9,165,60.9,165.9,62.2,165.9z M72.2,173.3v2
		H60.1v-5.9h2.5v3.9H72.2z M71.8,170.6h-2.5v-12.6h2.5V170.6z"/>
	<path class="st1" d="M94.8,165.3v2H79v-2h6.6v-1.6h2.5v1.6H94.8z M79.7,162.7c3.2-0.2,4.9-1.2,5.4-2.3h-4.6v-1.9h12.9v1.9h-4.6
		c0.5,1.1,2.2,2.1,5.4,2.3l-0.8,1.9c-3.3-0.3-5.5-1.4-6.4-3c-0.9,1.6-3.1,2.8-6.4,3L79.7,162.7z M83.3,173.6h10v1.9H80.8v-4.6h9.6
		v-1h-9.6v-1.8h12.1v4.5h-9.6V173.6z"/>
	<path class="st1" d="M111.1,158.1v9.4h-2.5v-3.5h-2.8c-0.5,1.9-2.3,3.2-4.5,3.2c-2.6,0-4.6-1.7-4.6-4.2s2-4.2,4.6-4.2
		c2.2,0,4,1.3,4.5,3.1h2.8v-3.9H111.1z M103.5,163c0-1.3-0.9-2.1-2.2-2.1c-1.3,0-2.2,0.8-2.2,2.1c0,1.3,0.9,2.1,2.2,2.1
		C102.6,165,103.5,164.3,103.5,163z M108.6,168.2h2.5v7.1H99.5v-7.1h2.5v1.7h6.6V168.2z M108.6,171.8H102v1.6h6.6V171.8z"/>
	<path class="st1" d="M127.6,168.6c-1.9-0.6-3.2-1.9-4-3.5c-0.8,1.7-2.1,3.1-4.2,3.8l-1.3-2c2.9-0.9,4.1-3.2,4.1-5.4v-0.2h-3.4v-2
		h9.4v2h-3.4v0.2c0,2.1,1.2,4.2,4,5.1L127.6,168.6z M133.3,173.3v2h-11.9v-5.5h2.5v3.5H133.3z M130.4,162.6v-4.5h2.5v12.8h-2.5v-6.2
		h-2.7v-2H130.4z"/>
	<path class="st1" d="M142.5,162c0,3.2,1.4,6.4,4.4,7.7l-1.4,2c-2-0.9-3.4-2.6-4.1-4.8c-0.8,2.3-2.2,4.2-4.3,5.2l-1.5-2.1
		c3.1-1.3,4.5-4.7,4.5-8.1v-2.5h2.5V162z M150.3,158v17.6h-2.5V158H150.3z"/>
	<path class="st1" d="M169.1,165.9v1.8h-15.8v-1.8H169.1z M157.5,173.7h10.1v1.7H155v-4.2h9.7v-0.9H155v-1.7h12.2v4.2h-9.7V173.7z
		 M164.7,160.1h-9.5v-1.7h12v4.1h-9.5v0.9h9.8v1.7h-12.2v-4.2h9.5V160.1z"/>
	<path class="st1" d="M186.3,168.5c-1.4,0.3-2.9,0.5-4.3,0.6v5.9h-2.5v-5.8c-1.5,0.1-2.9,0.1-4.2,0.1l-0.3-2.1c3.1,0,7.4,0,11.1-0.6
		L186.3,168.5z M176.1,162.5c0-2.2,2-3.7,4.6-3.7s4.6,1.5,4.6,3.7c0,2.2-1.9,3.7-4.6,3.7S176.1,164.7,176.1,162.5z M178.5,162.5
		c0,1.1,0.9,1.7,2.2,1.7c1.3,0,2.2-0.6,2.2-1.7c0-1.1-0.9-1.7-2.2-1.7C179.4,160.8,178.5,161.4,178.5,162.5z M189.7,158.1v17.5h-2.5
		v-17.5H189.7z"/>
	<path class="st1" d="M197.9,160.7h2.9v2h-8.4v-2h3v-2.2h2.5V160.7z M200.6,167.6c0,2.4-1.6,4.2-3.8,4.2s-3.8-1.7-3.8-4.2
		c0-2.5,1.6-4.2,3.8-4.2S200.6,165.2,200.6,167.6z M198.3,167.6c0-1.3-0.7-2.1-1.6-2.1c-0.9,0-1.6,0.8-1.6,2.1s0.7,2.1,1.6,2.1
		C197.7,169.7,198.3,168.9,198.3,167.6z M207.5,158v17.5h-2.4v-8.3h-1.3v7.6h-2.3v-16.4h2.3v6.8h1.3V158H207.5z"/>
	<path class="st1" d="M230.1,171.2v2.1h-15.8v-2.1H230.1z M225.7,161.7h-9.7v-2h12.3v2.1c0,2.5,0,4.8-0.6,8.4l-2.5-0.2
		C225.7,166.6,225.7,164.1,225.7,161.7L225.7,161.7z"/>
	<path class="st1" d="M251.9,169.5h-6.7v6.1h-2.5v-6.1h-6.6v-2h15.8V169.5z M250.3,165.5h-12.2v-6.7h2.5v4.7h9.7V165.5z"/>
	<path class="st1" d="M269.4,168.5h-6.7v7h-2.5v-7h-6.5v-2h11c0.4-2.2,0.5-3.9,0.5-5.4h-9.7v-2h12.1v1.6c0,1.6,0,3.4-0.4,5.9h2.3
		V168.5z"/>
	<path class="st1" d="M286.9,171.5v2h-15.8v-2h6.6v-3.2h-5v-9.1h2.5v2.7h7.5v-2.7h2.5v9.1h-5v3.2H286.9z M275.2,166.3h7.5v-2.5h-7.5
		V166.3z"/>
	<path class="st1" d="M291.7,169.3c2.5,0,4.6-0.2,6.8-0.6l0.2,2.1c-2.6,0.5-5,0.6-8.1,0.6h-1.5v-11.7h8.2v2h-5.7V169.3z
		 M304.8,166.6h-2.5v9h-2.5v-17.5h2.5v6.5h2.5V166.6z"/>
	<path class="st1" d="M321.1,161.6h-10.5v-2h4v-1.7h2.5v1.7h4L321.1,161.6z M315.8,168.4c-2.6,0-4.4-1.2-4.4-3.2s1.7-3.1,4.4-3.1
		c2.6,0,4.4,1.2,4.4,3.1S318.4,168.4,315.8,168.4z M313.2,169.4h11.6v6h-11.6V169.4z M315.8,166.6c1.2,0,2-0.4,2-1.3
		c0-0.9-0.8-1.3-2-1.3c-1.2,0-2,0.4-2,1.3C313.8,166.2,314.6,166.6,315.8,166.6z M315.7,173.4h6.7v-2.1h-6.7V173.4z M324.9,158.1
		v10.5h-2.5v-10.5H324.9z"/>
	<path class="st1" d="M342.4,168.4c-1.6-0.7-2.6-1.9-3.2-3.4c-0.6,1.6-1.7,3-3.5,3.7c-1.8-0.7-2.9-2.1-3.5-3.7
		c-0.6,1.5-1.6,2.7-3.2,3.4l-1.3-1.8c2.4-1,3.3-3.2,3.3-5.3v-2h2.5v2c0,1.7,0.6,3.6,2.2,4.8c1.6-1.2,2.2-3.1,2.2-4.8v-2h2.5v2
		c0,2.1,0.9,4.3,3.3,5.3L342.4,168.4z M327.8,171.4h15.8v2h-15.8V171.4z"/>
	<path class="st1" d="M361.1,171.4v2h-15.8v-2h5.6v-6h2.5v6H361.1z M356.4,169.3c0.7-3.3,0.7-5.7,0.7-7.8h-10.2v-2h12.7v1.7
		c0,2.2,0,4.7-0.7,8.4L356.4,169.3z"/>
	<path class="st1" d="M367.3,163.1c0-2.5,2.1-4.2,4.8-4.2c2.7,0,4.8,1.7,4.8,4.2c0,2.5-2,4.2-4.8,4.2
		C369.4,167.3,367.3,165.6,367.3,163.1z M379.9,169.3c0,1.8,1,3.5,3.3,4.2l-1.2,1.8c-1.7-0.6-2.7-1.6-3.3-2.9
		c-0.6,1.3-1.6,2.5-3.2,3.1c-1.6-0.6-2.6-1.7-3.2-3.1c-0.6,1.3-1.7,2.3-3.2,2.9l-1.2-1.8c2.3-0.8,3.3-2.5,3.3-4.2v-0.6h2.4v0.6
		c0,1.4,0.6,2.8,1.9,3.8c1.4-1,2-2.5,2-3.8v-0.6h2.5V169.3z M369.8,163.1c0,1.3,1,2.1,2.3,2.1c1.3,0,2.3-0.8,2.3-2.1s-1-2.1-2.3-2.1
		C370.8,161,369.8,161.8,369.8,163.1z M381.6,168h-2.5v-9.9h2.5V168z"/>
	<path class="st1" d="M400.4,166.6v2h-15.8v-2H400.4z M388.9,173.2h9.9v2h-12.4V170h2.5V173.2z M398.7,164.8h-12.1v-6.1h2.5v4.1h9.6
		V164.8z"/>
	<path class="st1" d="M422.2,169.9h-6.7v5.7H413v-5.7h-6.6v-2h15.8V169.9z M407.9,162.6c0-2.4,2.6-3.9,6.3-3.9
		c3.7,0,6.3,1.6,6.3,3.9c0,2.4-2.6,4-6.3,4C410.5,166.5,407.9,165,407.9,162.6z M410.5,162.6c0,1.3,1.5,2,3.8,2c2.3,0,3.7-0.7,3.7-2
		c0-1.3-1.5-1.9-3.7-1.9C411.9,160.6,410.5,161.3,410.5,162.6z"/>
	<path class="st1" d="M427.3,169.5c2.7,0,4.9-0.2,7.3-0.6l0.3,2c-2.8,0.5-5.4,0.6-8.6,0.6h-1.6v-7.2h5.7v-2.8h-5.7v-2h8.3v6.8h-5.7
		V169.5z M438.4,158v17.6h-2.5V158H438.4z"/>
	<path class="st1" d="M456.4,167.2c-2.5,0.4-4.7,0.5-8.3,0.5h-1.5v-8.6h8.4v2h-5.9v1.3h5.4v1.9h-5.4v1.4c3,0,4.9-0.1,7.1-0.4
		L456.4,167.2z M448.5,169.2h11.6v6.2h-11.6V169.2z M451,173.4h6.7v-2.3H451V173.4z M460.2,158.1v10.4h-2.5v-10.4H460.2z"/>
	<path class="st1" d="M478.2,173.3v2h-13V170h2.4v-2.3c-1.5,0.1-3,0.1-4.3,0.1l-0.3-2c3.2,0,7.4-0.1,11.1-0.5l0.2,1.8
		c-1.4,0.2-2.8,0.4-4.2,0.5v3.3h-2.4v2.4H478.2z M464.3,161.8c0-1.9,1.8-3.1,4.4-3.1c2.5,0,4.4,1.3,4.4,3.1c0,1.9-1.8,3.1-4.4,3.1
		C466.1,164.9,464.3,163.6,464.3,161.8z M466.7,161.8c0,0.9,0.8,1.3,2,1.3c1.2,0,2-0.4,2-1.3c0-0.9-0.8-1.3-2-1.3
		C467.5,160.5,466.7,160.9,466.7,161.8z M475.3,168.2v-10.2h2.5v13.3h-2.5v-1.4H472v-1.7H475.3z"/>
	<path class="st1" d="M496.4,164.8v2h-15.8v-2H496.4z M484.9,173.5h10v1.9h-12.5v-4.7h9.6v-1h-9.6v-1.9h12.1v4.6h-9.6V173.5z
		 M494.6,163.9h-12v-5.5h11.9v2h-9.4v1.5h9.5V163.9z"/>
	<path class="st1" d="M508.9,170.5c1.3-0.1,2.7-0.2,4-0.4l0.2,1.8c-3.7,0.7-7.6,0.7-10.6,0.7l-0.3-2c1.3,0,2.7,0,4.2,0v-1.5
		c-1.8-0.4-3-1.6-3-3.2c0-2,1.8-3.3,4.3-3.3s4.3,1.3,4.3,3.3c0,1.6-1.2,2.8-3,3.2V170.5z M512.8,162h-10.3v-2h3.9v-1.8h2.5v1.8h3.9
		V162z M507.7,167.3c1.1,0,1.9-0.5,1.9-1.4c0-0.9-0.8-1.4-1.9-1.4s-1.9,0.5-1.9,1.4C505.8,166.9,506.5,167.3,507.7,167.3z
		 M518.5,167.3h-2.2v8.3h-2.5v-17.5h2.5v7.1h2.2V167.3z"/>
	<path class="st1" d="M529.6,165.5c0,3.9-2,6.3-4.6,6.3s-4.6-2.4-4.6-6.3c0-3.8,2-6.2,4.6-6.2S529.6,161.7,529.6,165.5z
		 M522.8,165.5c0,2.6,0.9,4,2.2,4s2.2-1.4,2.2-4c0-2.6-0.9-4-2.2-4S522.8,162.9,522.8,165.5z M534.4,158v17.6h-2.5V158H534.4z"/>
	<path class="st1" d="M548.1,167.4c-2.5,0.4-4.7,0.5-8.3,0.5h-1.5v-8.6h8.4v2h-5.9v1.3h5.4v1.9h-5.4v1.4c3,0,4.9-0.1,7.1-0.4
		L548.1,167.4z M552,172.2c0,2.1-2.3,3.3-6,3.3c-3.7,0-6-1.2-6-3.3c0-2.1,2.3-3.3,6-3.3C549.7,168.9,552,170.1,552,172.2z
		 M549.4,172.2c0-1-1.2-1.4-3.5-1.4c-2.3,0-3.5,0.5-3.5,1.4c0,1,1.2,1.4,3.5,1.4C548.2,173.6,549.4,173.2,549.4,172.2z M551.9,168.7
		h-2.5v-10.6h2.5V168.7z"/>
	<path class="st1" d="M555.8,172.4c0-1,0.7-1.8,1.7-1.8c1,0,1.7,0.8,1.7,1.8c0,1-0.8,1.8-1.7,1.8
		C556.5,174.2,555.8,173.4,555.8,172.4z M556.2,162.1l-0.1-2.6h2.8l-0.1,2.6l-0.4,7h-1.8L556.2,162.1z"/>
</g>
</svg>
