<?xml version="1.0" encoding="utf-8"?>
<!-- Generator: Adobe Illustrator 21.0.0, SVG Export Plug-In . SVG Version: 6.00 Build 0)  -->
<svg version="1.1" id="레이어_1" xmlns="http://www.w3.org/2000/svg" xmlns:xlink="http://www.w3.org/1999/xlink" x="0px"
	 y="0px" viewBox="0 0 565 239.6" style="enable-background:new 0 0 565 239.6;" xml:space="preserve">
<style type="text/css">
	.st0{enable-background:new    ;}
	.st1{fill:#080808;}
</style>
<g class="st0">
	<path class="st1" d="M173.6,15.3c-2.5,0.4-4.7,0.5-8.3,0.5h-1.5V7.1h8.4v2h-5.9v1.3h5.4v1.9h-5.4v1.4c3,0,4.9-0.1,7.1-0.4
		L173.6,15.3z M165.7,17.3h11.6v6.2h-11.6V17.3z M168.1,21.5h6.7v-2.3h-6.7V21.5z M177.3,6.2v10.4h-2.5V6.2H177.3z"/>
	<path class="st1" d="M189.2,15.4H181V7.4h8.2v1.3h3.2V6.1h2.5v10.3h-2.5v-2.2h-3.2V15.4z M194.9,20.2c0,2.1-2.3,3.4-6,3.4
		c-3.7,0-6-1.3-6-3.4s2.3-3.4,6-3.4C192.7,16.8,194.9,18.1,194.9,20.2z M186.8,9.4h-3.3v4.1h3.3V9.4z M192.4,20.2
		c0-1-1.2-1.5-3.5-1.5c-2.3,0-3.5,0.5-3.5,1.5s1.2,1.5,3.5,1.5C191.2,21.7,192.4,21.2,192.4,20.2z M189.2,10.7v1.5h3.2v-1.5H189.2z"
		/>
	<path class="st1" d="M202.6,13.2c0-1,0.7-1.8,1.7-1.8c1,0,1.7,0.8,1.7,1.8c0,1-0.7,1.8-1.7,1.8C203.3,15,202.6,14.3,202.6,13.2z
		 M202.6,20.4c0-1,0.7-1.8,1.7-1.8c1,0,1.7,0.8,1.7,1.8c0,1-0.7,1.8-1.7,1.8C203.3,22.3,202.6,21.5,202.6,20.4z"/>
	<path class="st1" d="M228.3,19.3v2.1h-15.8v-2.1H228.3z M223.9,9.7h-9.7v-2h12.3v2.1c0,2.5,0,4.8-0.6,8.4l-2.5-0.2
		C223.9,14.7,223.9,12.2,223.9,9.7L223.9,9.7z"/>
	<path class="st1" d="M232.9,17.7c1.6,0,3.1-0.1,4.9-0.4l0.2,2c-2.2,0.4-4.1,0.4-6.2,0.4h-1.2v-7.1h4.2V9.8h-4.2v-2h6.6v6.8h-4.2
		V17.7z M245,6.1v17.5h-2.4v-8.9h-1.6v8.1h-2.3V6.4h2.3v6.3h1.6V6.1H245z"/>
	<path class="st1" d="M258.5,15.6c-3.5,0.6-7.4,0.6-10.4,0.6l-0.3-2.1c0.6,0,1.2,0,1.8,0V9.4h-1.4v-2h9.4v2h-1.4v4.5
		c0.7-0.1,1.4-0.1,2-0.2L258.5,15.6z M250.1,17.6H262v6.1h-2.5v-4.1h-9.4V17.6z M252,14.1c0.6,0,1.2,0,1.8-0.1V9.4H252V14.1z
		 M262,6.1v10.7h-2.5V6.1H262z"/>
	<path class="st1" d="M265.9,20.4c0-1,0.7-1.8,1.7-1.8c1,0,1.7,0.8,1.7,1.8c0,1-0.8,1.8-1.7,1.8C266.7,22.3,265.9,21.5,265.9,20.4z
		 M266.3,10.2l-0.1-2.6h2.8l-0.1,2.6l-0.4,7h-1.8L266.3,10.2z"/>
	<path class="st1" d="M292.1,19.3v2.1h-15.8v-2.1H292.1z M287.7,9.7h-9.7v-2h12.3v2.1c0,2.5,0,4.8-0.6,8.4l-2.5-0.2
		C287.7,14.7,287.7,12.2,287.7,9.7L287.7,9.7z"/>
	<path class="st1" d="M296.7,17.7c1.6,0,3.1-0.1,4.9-0.4l0.2,2c-2.2,0.4-4.1,0.4-6.2,0.4h-1.2v-7.1h4.2V9.8h-4.2v-2h6.6v6.8h-4.2
		V17.7z M308.8,6.1v17.5h-2.4v-8.9h-1.6v8.1h-2.3V6.4h2.3v6.3h1.6V6.1H308.8z"/>
	<path class="st1" d="M322.3,15.6c-3.5,0.6-7.4,0.6-10.4,0.6l-0.3-2.1c0.6,0,1.2,0,1.8,0V9.4H312v-2h9.4v2h-1.4v4.5
		c0.7-0.1,1.4-0.1,2-0.2L322.3,15.6z M313.9,17.6h11.9v6.1h-2.5v-4.1h-9.4V17.6z M315.8,14.1c0.6,0,1.2,0,1.8-0.1V9.4h-1.8V14.1z
		 M325.8,6.1v10.7h-2.5V6.1H325.8z"/>
	<path class="st1" d="M329.7,20.4c0-1,0.7-1.8,1.7-1.8c1,0,1.7,0.8,1.7,1.8c0,1-0.8,1.8-1.7,1.8C330.5,22.3,329.7,21.5,329.7,20.4z
		 M330.1,10.2L330,7.6h2.8l-0.1,2.6l-0.4,7h-1.8L330.1,10.2z"/>
	<path class="st1" d="M343.3,17.4c2.5,0,4.6-0.2,6.8-0.6l0.2,2.1c-2.6,0.5-5,0.6-8.1,0.6h-1.5V7.8h8.2v2h-5.7V17.4z M356.3,14.7
		h-2.5v9h-2.5V6.1h2.5v6.5h2.5V14.7z"/>
	<path class="st1" d="M377.7,18.2H371v5.5h-2.5v-5.5h-6.6v-2h15.8V18.2z M375.8,14.6h-12.2V6.8h2.5v2h7.2v-2h2.5V14.6z M373.4,10.8
		h-7.2v1.8h7.2V10.8z"/>
	<path class="st1" d="M385.9,10c0,3.4,1.3,6.6,4.2,7.9l-1.5,2c-1.9-1-3.2-2.7-3.9-4.9c-0.8,2.3-2.1,4.1-4,5l-1.6-2
		c3-1.3,4.3-4.7,4.3-8.1V7.5h2.5V10z M394,6.1v17.5h-2.6v-7.7h-3.1v-2.1h3.1v-2.2h-3.1V9.6h3.1V6.1H394z"/>
	<path class="st1" d="M397.8,20.4c0-1,0.7-1.8,1.7-1.8c1,0,1.7,0.8,1.7,1.8c0,1-0.8,1.8-1.7,1.8C398.6,22.3,397.8,21.5,397.8,20.4z
		 M398.2,10.2l-0.1-2.6h2.8l-0.1,2.6l-0.4,7h-1.8L398.2,10.2z"/>
</g>
<g class="st0">
	<path class="st1" d="M157.9,44.2c-2.5,0.4-4.7,0.5-8.3,0.5H148v-8.6h8.4v2h-5.9v1.3h5.4v1.9h-5.4v1.4c3,0,4.9-0.1,7.1-0.4
		L157.9,44.2z M150,46.2h11.6v6.2H150V46.2z M152.4,50.4h6.7v-2.3h-6.7V50.4z M161.6,35.1v10.4h-2.5V35.1H161.6z"/>
	<path class="st1" d="M179.7,50.3v2h-13v-5.2h2.4v-2.3c-1.5,0.1-3,0.1-4.3,0.1l-0.3-2c3.2,0,7.4-0.1,11.1-0.5l0.2,1.8
		c-1.4,0.2-2.8,0.4-4.2,0.5v3.3h-2.4v2.4H179.7z M165.8,38.8c0-1.9,1.8-3.1,4.4-3.1c2.5,0,4.4,1.3,4.4,3.1c0,1.9-1.8,3.1-4.4,3.1
		C167.6,41.9,165.8,40.7,165.8,38.8z M168.1,38.8c0,0.9,0.8,1.3,2,1.3c1.2,0,2-0.4,2-1.3c0-0.9-0.8-1.3-2-1.3
		C169,37.5,168.1,38,168.1,38.8z M176.8,45.3V35.1h2.5v13.3h-2.5V47h-3.3v-1.7H176.8z"/>
	<path class="st1" d="M186.9,42.2c0-1,0.7-1.8,1.7-1.8c1,0,1.7,0.8,1.7,1.8c0,1-0.7,1.8-1.7,1.8C187.6,44,186.9,43.2,186.9,42.2z
		 M186.9,49.4c0-1,0.7-1.8,1.7-1.8c1,0,1.7,0.8,1.7,1.8c0,1-0.7,1.8-1.7,1.8C187.6,51.2,186.9,50.4,186.9,49.4z"/>
	<path class="st1" d="M201.9,36.6h2.3v11.8h-6.9V36.6h2.4v4h2.2V36.6z M201.9,42.5h-2.2v3.9h2.2V42.5z M211.9,35.1v17.5h-2.4v-8.8
		H208v8h-2.3V35.4h2.3v6.4h1.5v-6.7H211.9z"/>
	<path class="st1" d="M223.4,45.5c-1.8-0.7-3.1-1.9-3.8-3.6c-0.7,1.8-2.1,3.2-4.1,4l-1.3-2c2.9-1,4.1-3.4,4.1-5.9v-1.9h2.5v1.9
		c0,2.3,1.2,4.5,3.9,5.5L223.4,45.5z M229.3,50.3v2h-11.9v-5.6h2.5v3.6H229.3z M226.4,40.8h-3.2v-2h3.2v-3.7h2.5V48h-2.5V40.8z"/>
	<path class="st1" d="M240,43.3c-0.8,0.8-2,1.3-3.4,1.3c-2.6,0-4.6-1.8-4.6-4.3c0-2.5,2-4.3,4.6-4.3c1.4,0,2.6,0.5,3.4,1.3h3.9v-2.3
		h2.5v10.3h-2.5v-2.1H240z M236.6,42.5c1.3,0,2.2-0.8,2.2-2.2c0-1.4-0.9-2.2-2.2-2.2c-1.3,0-2.2,0.8-2.2,2.2
		C234.4,41.7,235.3,42.5,236.6,42.5z M246.5,49.1c0,2.2-2.3,3.5-6,3.5c-3.7,0-6-1.3-6-3.5c0-2.2,2.3-3.5,6-3.5
		C244.2,45.7,246.5,47,246.5,49.1z M244,49.1c0-1-1.2-1.5-3.5-1.5s-3.5,0.5-3.5,1.5c0,1,1.2,1.5,3.5,1.5S244,50.2,244,49.1z
		 M241.2,39.4c0.1,0.3,0.1,0.6,0.1,0.9c0,0.3,0,0.6-0.1,1h2.8v-1.9H241.2z"/>
	<path class="st1" d="M263.3,42.5c0,3.9-2,6.3-4.6,6.3s-4.6-2.4-4.6-6.3c0-3.8,2-6.2,4.6-6.2S263.3,38.7,263.3,42.5z M256.5,42.5
		c0,2.6,0.9,4,2.2,4c1.3,0,2.2-1.4,2.2-4c0-2.6-0.9-4-2.2-4C257.4,38.6,256.5,40,256.5,42.5z M268.1,35.1v17.6h-2.5V35.1H268.1z"/>
	<path class="st1" d="M276.5,37.7h2.9v2h-8.4v-2h3v-2.2h2.5V37.7z M279.1,44.7c0,2.4-1.6,4.2-3.8,4.2s-3.8-1.7-3.8-4.2
		c0-2.5,1.6-4.2,3.8-4.2S279.1,42.2,279.1,44.7z M276.9,44.7c0-1.3-0.7-2.1-1.6-2.1c-0.9,0-1.6,0.8-1.6,2.1s0.7,2.1,1.6,2.1
		C276.2,46.7,276.9,46,276.9,44.7z M286.1,35.1v17.5h-2.4v-8.3h-1.3v7.6H280V35.4h2.3v6.8h1.3v-7.1H286.1z"/>
	<path class="st1" d="M292.1,46.5c2.7,0,4.9-0.2,7.3-0.6l0.3,2c-2.8,0.5-5.4,0.6-8.6,0.6h-1.6v-7.2h5.7v-2.8h-5.7v-2h8.3v6.8h-5.7
		V46.5z M303.1,35.1v17.6h-2.5V35.1H303.1z"/>
	<path class="st1" d="M320,42.5c0,3.9-2,6.3-4.6,6.3s-4.6-2.4-4.6-6.3c0-3.8,2-6.2,4.6-6.2S320,38.7,320,42.5z M313.3,42.5
		c0,2.6,0.9,4,2.2,4c1.3,0,2.2-1.4,2.2-4c0-2.6-0.9-4-2.2-4C314.2,38.6,313.3,40,313.3,42.5z M324.8,35.1v17.6h-2.5V35.1H324.8z"/>
	<path class="st1" d="M334.4,39c0,3.3,1.3,6.5,4.2,7.8l-1.5,2c-1.9-0.9-3.2-2.6-3.9-4.7c-0.8,2.2-2.1,4.1-4,5.1l-1.6-2
		c3-1.4,4.3-4.8,4.3-8.1v-2.5h2.5V39z M342.5,35.1v17.6H340v-10h-3.4v-2h3.4v-5.5H342.5z"/>
	<path class="st1" d="M354.6,45c-1.9-0.6-3.2-1.9-4-3.4c-0.8,1.8-2.1,3.2-4.2,3.9l-1.3-2c2.8-1,4-3.2,4.1-5.4h-3.4v-2h9.4v2h-3.4
		c0.1,2,1.3,4,4,4.9L354.6,45z M360,49.2c0,2.1-2.3,3.4-6,3.4c-3.7,0-6-1.2-6-3.4s2.3-3.4,6-3.4C357.7,45.9,360,47.1,360,49.2z
		 M357.5,49.2c0-1-1.2-1.5-3.5-1.5c-2.3,0-3.5,0.5-3.5,1.5c0,1,1.2,1.5,3.5,1.5C356.3,50.7,357.5,50.2,357.5,49.2z M357.4,39.3v-4.2
		h2.5v10.4h-2.5v-4.2h-2.6v-2H357.4z"/>
	<path class="st1" d="M382.9,44.2v2h-15.8v-2h6.6v-2.5h2.5v2.5H382.9z M381.1,42.8c-2.9-0.5-5-1.7-6.1-3.5c-1.1,1.8-3.2,3.1-6.1,3.5
		l-1-2c3.9-0.5,5.8-2.6,5.8-4.7v-0.5h2.6v0.5c0,2.1,1.8,4.2,5.8,4.7L381.1,42.8z M371.5,50.3h9.6v2H369v-5.1h2.5V50.3z"/>
	<path class="st1" d="M392.9,43.8c-0.9,0.9-2.1,1.4-3.4,1.4c-2.6,0-4.6-1.9-4.6-4.5c0-2.6,2-4.5,4.6-4.5c1.4,0,2.5,0.5,3.4,1.4h3.9
		v-2.4h2.5v12.8h-2.5v-4.1H392.9z M389.4,43c1.3,0,2.2-0.9,2.2-2.4c0-1.4-1-2.3-2.2-2.3c-1.3,0-2.2,0.9-2.2,2.3
		C387.2,42.1,388.1,43,389.4,43z M399.6,50.3v2h-11.9v-5.6h2.5v3.6H399.6z M393.9,39.5c0.1,0.4,0.1,0.7,0.1,1.1c0,0.4,0,0.8-0.1,1.1
		h2.8v-2.3H393.9z"/>
	<path class="st1" d="M402.2,47.6c3.2,0,7.4,0,11.1-0.5l0.2,1.8c-3.9,0.7-7.9,0.7-11,0.7L402.2,47.6z M413,39.2h-10.5v-2h4v-1.9h2.5
		v1.9h4V39.2z M407.8,39.9c2.5,0,4.3,1.3,4.3,3.3c0,2-1.8,3.3-4.3,3.3c-2.5,0-4.3-1.3-4.3-3.3C403.5,41.2,405.3,39.9,407.8,39.9z
		 M407.8,41.8c-1.2,0-1.9,0.5-1.9,1.4c0,0.9,0.8,1.4,1.9,1.4c1.1,0,1.9-0.5,1.9-1.4C409.7,42.3,408.9,41.8,407.8,41.8z M416.7,35.1
		v17.5h-2.5V35.1H416.7z"/>
</g>
<g class="st0">
	<path class="st1" d="M85.2,108.9v2.1H69.4v-2.1H85.2z M80.7,99.3H71v-2h12.3v2.1c0,2.5,0,4.8-0.6,8.4l-2.5-0.2
		C80.7,104.3,80.7,101.8,80.7,99.3L80.7,99.3z"/>
	<path class="st1" d="M89.7,107.3c1.6,0,3.1-0.1,4.9-0.4l0.2,2c-2.2,0.4-4.1,0.4-6.2,0.4h-1.2v-7.1h4.2v-2.8h-4.2v-2h6.6v6.8h-4.2
		V107.3z M101.8,95.7v17.5h-2.4v-8.9h-1.6v8.1h-2.3V96h2.3v6.3h1.6v-6.6H101.8z"/>
	<path class="st1" d="M115.3,105.1c-3.5,0.6-7.4,0.6-10.4,0.6l-0.3-2.1c0.6,0,1.2,0,1.8,0V99h-1.4v-2h9.4v2h-1.4v4.5
		c0.7-0.1,1.4-0.1,2-0.2L115.3,105.1z M106.9,107.1h11.9v6.1h-2.5v-4.1h-9.4V107.1z M108.9,103.7c0.6,0,1.2,0,1.8-0.1V99h-1.8V103.7
		z M118.9,95.7v10.7h-2.5V95.7H118.9z"/>
	<path class="st1" d="M132.6,104.9c-2.5,0.4-4.7,0.5-8.3,0.5h-1.5v-8.6h8.4v2h-5.9v1.3h5.4v1.9h-5.4v1.4c3,0,4.9-0.1,7.1-0.4
		L132.6,104.9z M124.7,106.8h11.6v6.2h-11.6V106.8z M127.2,111h6.7v-2.3h-6.7V111z M136.3,95.7v10.4h-2.5V95.7H136.3z"/>
	<path class="st1" d="M155.1,104.6v2h-15.8v-2H155.1z M140.9,99.8c0-2.2,2.5-3.6,6.3-3.6c3.8,0,6.3,1.4,6.3,3.6s-2.5,3.6-6.3,3.6
		C143.4,103.5,140.9,102.1,140.9,99.8z M143.7,110.9h9.6v2h-12.1v-5.1h2.5V110.9z M143.4,99.8c0,1.1,1.4,1.6,3.7,1.6
		c2.4,0,3.8-0.5,3.8-1.6c0-1.1-1.4-1.6-3.8-1.6C144.8,98.2,143.4,98.8,143.4,99.8z"/>
	<path class="st1" d="M176.9,102.9v2h-15.8v-2h6.6v-1.6h2.5v1.6H176.9z M161.7,100.4c3.2-0.2,4.9-1.2,5.4-2.3h-4.6v-1.9h12.9v1.9
		h-4.6c0.5,1.1,2.2,2.1,5.4,2.3l-0.8,1.9c-3.3-0.3-5.5-1.4-6.4-3c-0.9,1.6-3.1,2.8-6.4,3L161.7,100.4z M165.4,111.2h10v1.9h-12.5
		v-4.6h9.6v-1h-9.6v-1.8H175v4.5h-9.6V111.2z"/>
	<path class="st1" d="M193.2,95.7v9.4h-2.5v-3.5h-2.8c-0.5,1.9-2.3,3.2-4.5,3.2c-2.6,0-4.6-1.7-4.6-4.2s2-4.2,4.6-4.2
		c2.2,0,4,1.3,4.5,3.1h2.8v-3.9H193.2z M185.6,100.6c0-1.3-0.9-2.1-2.2-2.1c-1.3,0-2.2,0.8-2.2,2.1c0,1.3,0.9,2.1,2.2,2.1
		C184.7,102.7,185.6,101.9,185.6,100.6z M190.7,105.9h2.5v7.1h-11.6v-7.1h2.5v1.7h6.6V105.9z M190.7,109.5h-6.6v1.6h6.6V109.5z"/>
	<path class="st1" d="M205.4,106.2c-1.9-0.6-3.2-1.9-4-3.5c-0.8,1.7-2.1,3.1-4.2,3.8l-1.3-2c2.9-0.9,4.1-3.2,4.1-5.4v-0.2h-3.4v-2
		h9.4v2h-3.4v0.2c0,2.1,1.2,4.2,4,5.1L205.4,106.2z M211.1,110.9v2h-11.9v-5.5h2.5v3.5H211.1z M208.2,100.2v-4.5h2.5v12.8h-2.5v-6.2
		h-2.7v-2H208.2z"/>
	<path class="st1" d="M220.3,99.6c0,3.2,1.4,6.4,4.4,7.7l-1.4,2c-2-0.9-3.4-2.6-4.1-4.8c-0.8,2.3-2.2,4.2-4.3,5.2l-1.5-2.1
		c3.1-1.3,4.5-4.7,4.5-8.1v-2.5h2.5V99.6z M228,95.7v17.6h-2.5V95.7H228z"/>
	<path class="st1" d="M251.1,109.2v2h-15.8v-2h6.7v-3.4h2.5v3.4H251.1z M235.8,104.4c4-0.5,5.9-2.4,6.1-4.4h-5.3v-2h5.3v-2.1h2.5
		v2.1h5.3v2h-5.3c0.2,1.9,2.1,3.9,6.1,4.4l-0.9,2c-3.1-0.4-5.4-1.7-6.5-3.5c-1.2,1.8-3.4,3.1-6.5,3.5L235.8,104.4z"/>
	<path class="st1" d="M262.1,97.5c0,5.4-1.8,9.7-8,12.7l-1.3-2c4.5-2.1,6.4-4.9,6.8-8.8h-5.8v-2H262.1z M267.4,95.7v17.5h-2.5V95.7
		H267.4z"/>
	<path class="st1" d="M283.9,97.5c0,5.4-1.8,9.7-8,12.7l-1.3-2c4.5-2.1,6.4-4.9,6.8-8.8h-5.8v-2H283.9z M289.1,95.7v17.5h-2.5V95.7
		H289.1z"/>
	<path class="st1" d="M303.2,106.5c-3.7,0.6-7.7,0.7-10.8,0.7l-0.3-1.9c1.3,0,2.8,0,4.4,0v-0.9c-1.9-0.3-3.1-1.2-3.1-2.5
		c0-1.6,1.7-2.6,4.4-2.6c2.6,0,4.3,1,4.3,2.6c0,1.3-1.2,2.3-3.1,2.5v0.8c1.4-0.1,2.7-0.2,4-0.3L303.2,106.5z M302.9,98.8h-10.3V97
		h3.9v-1.4h2.5V97h3.9V98.8z M294.5,108.3h12.1v5h-2.5v-3h-9.6V108.3z M297.8,102.8c1.2,0,1.9-0.4,1.9-1c0-0.6-0.7-1-1.9-1
		c-1.2,0-2,0.3-2,1C295.8,102.5,296.6,102.8,297.8,102.8z M306.6,95.7v11.8h-2.5V95.7H306.6z"/>
	<path class="st1" d="M318.6,96h2.3v16.4h-2.3v-8.2h-1.4c-0.2,3.4-1.7,5.5-3.8,5.5c-2.3,0-3.8-2.4-3.8-6.4c0-4,1.5-6.3,3.8-6.3
		c2.1,0,3.5,1.9,3.8,5.2h1.4V96z M315,103.3c0-2.7-0.6-4-1.5-4c-1,0-1.5,1.3-1.5,4c0,2.7,0.6,4,1.5,4C314.4,107.3,315,106,315,103.3
		z M324.5,95.7v17.5h-2.4V95.7H324.5z"/>
	<path class="st1" d="M333.6,99.6c0,3.3,1.3,6.5,4.2,7.8l-1.5,2c-1.9-0.9-3.2-2.6-3.9-4.7c-0.8,2.2-2.1,4.1-4,5.1l-1.6-2
		c3-1.4,4.3-4.8,4.3-8.1v-2.5h2.5V99.6z M341.7,95.7v17.6h-2.5v-10h-3.4v-2h3.4v-5.5H341.7z"/>
	<path class="st1" d="M364.7,109.1v2h-15.8v-2H364.7z M363,106.1c-3-0.6-5.3-2.3-6.4-4.5c-1.1,2.2-3.3,3.9-6.4,4.5l-1.1-2.1
		c3.9-0.7,6.1-3.5,6.1-6v-1.3h2.7V98c0,2.6,2.2,5.3,6.1,6L363,106.1z"/>
	<path class="st1" d="M369.5,107.3c2.5,0,4.5-0.1,6.8-0.5l0.2,2c-2.7,0.4-5,0.5-8,0.5H367V97.2h8.2v2h-5.7v2.8h5.5v2h-5.5V107.3z
		 M382.5,104.4H380v8.8h-2.5V95.7h2.5v6.6h2.5V104.4z"/>
	<path class="st1" d="M399.6,109.2v2h-15.8v-2H399.6z M397.9,106.7h-12.3V97h12.2v2h-9.6v1.8h9.2v1.9h-9.2v2h9.7V106.7z"/>
	<path class="st1" d="M414.7,105.7c-1.9-0.6-3.2-1.8-4-3.4c-0.8,1.7-2.1,3-4.2,3.7l-1.3-2c2.8-0.9,4.1-3.1,4.1-5.3H406v-2h9.5v2H412
		c0.1,2,1.3,4.1,4,5L414.7,105.7z M407.7,107h11.7v6.2h-2.5V109h-9.2V107z M421.7,102h-2.3v4.3h-2.5V95.7h2.5v4.2h2.3V102z"/>
	<path class="st1" d="M437.7,95.7v9.4h-2.5v-3.5h-2.8c-0.5,1.9-2.3,3.2-4.5,3.2c-2.6,0-4.6-1.7-4.6-4.2s2-4.2,4.6-4.2
		c2.2,0,4,1.3,4.5,3.1h2.8v-3.9H437.7z M430.1,100.6c0-1.3-0.9-2.1-2.2-2.1c-1.3,0-2.2,0.8-2.2,2.1c0,1.3,0.9,2.1,2.2,2.1
		C429.2,102.7,430.1,101.9,430.1,100.6z M435.2,105.9h2.5v7.1h-11.6v-7.1h2.5v1.7h6.6V105.9z M435.2,109.5h-6.6v1.6h6.6V109.5z"/>
	<path class="st1" d="M456.3,102.8v2h-15.8v-2H456.3z M442.1,98.9c0-1.9,2.3-3,6.3-3c4,0,6.3,1.1,6.3,3c0,1.9-2.3,3-6.3,3
		C444.4,101.9,442.1,100.9,442.1,98.9z M444.8,111.2h10v1.9h-12.5v-4.6h9.6v-0.9h-9.6v-1.8h12.1v4.5h-9.6V111.2z M444.7,98.9
		c0,0.8,1.2,1.2,3.7,1.2c2.5,0,3.7-0.3,3.7-1.2c0-0.8-1.2-1.1-3.7-1.1C445.9,97.8,444.7,98.2,444.7,98.9z"/>
	<path class="st1" d="M471.2,104.3h-8.3v-7.4h8.3V104.3z M467.2,111.3h9.3v1.7h-11.8v-7.2h11.5v1.7h-9v1h8.8v1.7h-8.8V111.3z
		 M468.7,98.9h-3.4v3.5h3.4V98.9z M478.4,99.3v2.1h-2.3v3.6h-2.5v-9.3h2.5v3.6H478.4z"/>
	<path class="st1" d="M489.1,103.2c0,3.9-2,6.3-4.6,6.3c-2.7,0-4.6-2.4-4.6-6.3c0-3.8,1.9-6.2,4.6-6.2
		C487.1,96.9,489.1,99.3,489.1,103.2z M486.7,103.2c0-2.6-0.9-4-2.2-4c-1.3,0-2.2,1.4-2.2,4c0,2.6,0.9,4,2.2,4
		C485.8,107.2,486.7,105.8,486.7,103.2z M496,104.4h-2.5v8.8H491V95.7h2.5v6.6h2.5V104.4z"/>
</g>
<g class="st0">
	<path class="st1" d="M75.6,137.2c-1.9-0.6-3.2-1.9-4-3.5c-0.8,1.7-2.1,3.1-4.2,3.8l-1.3-2c2.9-0.9,4.1-3.2,4.1-5.4v-0.2h-3.4v-2
		h9.4v2h-3.4v0.2c0,2.1,1.2,4.2,4,5.1L75.6,137.2z M81.3,141.9v2H69.4v-5.5h2.5v3.5H81.3z M78.4,131.2v-4.5h2.5v12.8h-2.5v-6.2h-2.7
		v-2H78.4z"/>
	<path class="st1" d="M89.2,132c0,2.6,0.9,5.3,3.4,6.6l-1.3,1.9c-1.5-0.8-2.5-2.2-3.2-3.9c-0.6,1.8-1.6,3.4-3.2,4.3l-1.4-1.9
		c2.5-1.5,3.4-4.3,3.4-7v-0.4h-2.7v-2h2.7v-2.4h2.4v2.4h2.7v2h-2.7V132z M92.9,127h2.3v16.4h-2.3v-8.1h-2v-2h2V127z M98.8,126.7
		v17.5h-2.4v-17.5H98.8z"/>
	<path class="st1" d="M110.6,136.7c-1.9-0.6-3.2-1.9-4-3.4c-0.8,1.7-2.1,3.1-4.2,3.8l-1.3-2c2.8-1,4.1-3.2,4.1-5.3h-3.4v-2h9.4v2
		h-3.4c0,2,1.3,4.1,4,5L110.6,136.7z M103.9,137.9h11.9v6.3h-2.5v-4.3h-9.4V137.9z M115.9,126.7v10.4h-2.5v-4.2h-2.6v-2h2.6v-4.2
		H115.9z"/>
	<path class="st1" d="M123.7,136.7c-2.7,0-4.8-1.9-4.8-4.4c0-2.6,2.1-4.4,4.8-4.4s4.7,1.9,4.7,4.4
		C128.5,134.8,126.4,136.7,123.7,136.7z M123.7,134.5c1.3,0,2.3-0.9,2.3-2.3c0-1.4-1-2.3-2.3-2.3c-1.3,0-2.3,0.8-2.3,2.3
		C121.4,133.7,122.4,134.5,123.7,134.5z M133.7,141.9v2h-12.1v-5.9h2.5v3.9H133.7z M133.2,139.3h-2.5v-12.6h2.5V139.3z"/>
	<path class="st1" d="M156.3,133.9v2h-15.8v-2h6.6v-1.6h2.5v1.6H156.3z M141.2,131.4c3.2-0.2,4.9-1.2,5.4-2.3h-4.6v-1.9h12.9v1.9
		h-4.6c0.5,1.1,2.2,2.1,5.4,2.3l-0.8,1.9c-3.3-0.3-5.5-1.4-6.4-3c-0.9,1.6-3.1,2.8-6.4,3L141.2,131.4z M144.8,142.2h10v1.9h-12.5
		v-4.6h9.6v-1h-9.6v-1.8h12.1v4.5h-9.6V142.2z"/>
	<path class="st1" d="M167.3,137.2c-1.9-0.6-3.2-1.9-4-3.5c-0.8,1.7-2.1,3.1-4.2,3.8l-1.3-2c2.9-0.9,4.1-3.2,4.1-5.4v-0.2h-3.4v-2
		h9.4v2h-3.4v0.2c0,2.1,1.2,4.2,4,5.1L167.3,137.2z M173,141.9v2h-11.9v-5.5h2.5v3.5H173z M170.1,131.2v-4.5h2.5v12.8h-2.5v-6.2
		h-2.7v-2H170.1z"/>
	<path class="st1" d="M195.6,138.4h-6.7v5.9h-2.5v-5.9h-6.6v-2h15.8V138.4z M180.5,133.4c3.6-0.4,5.4-2.1,5.7-3.8h-5v-2h13v2h-5
		c0.2,1.7,2.1,3.4,5.6,3.8l-0.9,2c-3.1-0.4-5.2-1.7-6.2-3.5c-1,1.8-3.2,3.1-6.2,3.5L180.5,133.4z"/>
	<path class="st1" d="M202.8,131.4c0,2.9,0.9,5.9,3.4,7.4l-1.5,1.8c-1.6-0.9-2.5-2.4-3.1-4.3c-0.6,2-1.6,3.7-3.2,4.7l-1.5-1.8
		c2.5-1.6,3.5-4.7,3.5-7.8v-0.9h-2.8v-2h7.8v2h-2.5V131.4z M206.4,127h2.3v16.4h-2.3v-8.7h-2.2v-2h2.2V127z M212.3,126.7v17.5h-2.4
		v-17.5H212.3z"/>
	<path class="st1" d="M223.8,127h2.3v16.4h-2.3v-8.2h-1.4c-0.2,3.4-1.7,5.5-3.8,5.5c-2.3,0-3.8-2.4-3.8-6.4c0-4,1.5-6.3,3.8-6.3
		c2.1,0,3.5,1.9,3.8,5.2h1.4V127z M220.2,134.3c0-2.7-0.6-4-1.5-4c-1,0-1.5,1.3-1.5,4c0,2.7,0.6,4,1.5,4
		C219.6,138.3,220.2,137,220.2,134.3z M229.7,126.7v17.5h-2.4v-17.5H229.7z"/>
	<path class="st1" d="M245.4,135.6H237v-7.7h8.3V135.6z M246.1,139.3c0.4,1.3,2.1,2.6,5.2,3l-0.9,1.9c-2.8-0.3-4.7-1.5-5.7-2.9
		c-1,1.5-2.9,2.6-5.7,2.9l-0.9-1.9c3.2-0.4,4.8-1.6,5.2-3h-4.4v-2h11.7v2H246.1z M242.9,129.8h-3.4v3.7h3.4V129.8z M252.6,130.5v2.1
		h-2.3v3.9h-2.5v-9.8h2.5v3.8H252.6z"/>
	<path class="st1" d="M269.9,135.2v2H254v-2H269.9z M258.3,141.8h9.9v2h-12.4v-5.2h2.5V141.8z M268.1,133.4H256v-6.1h2.5v4.1h9.6
		V133.4z"/>
	<path class="st1" d="M291.6,139.9v2.1h-15.8v-2.1H291.6z M287.2,130.3h-9.7v-2h12.3v2.1c0,2.5,0,4.8-0.6,8.4l-2.5-0.2
		C287.2,135.3,287.2,132.8,287.2,130.3L287.2,130.3z"/>
	<path class="st1" d="M296.2,138.3c1.6,0,3.1-0.1,4.9-0.4l0.2,2c-2.2,0.4-4.1,0.4-6.2,0.4h-1.2v-7.1h4.2v-2.8h-4.2v-2h6.6v6.8h-4.2
		V138.3z M308.3,126.7v17.5h-2.4v-8.9h-1.6v8.1H302V127h2.3v6.3h1.6v-6.6H308.3z"/>
	<path class="st1" d="M321.8,136.1c-3.5,0.6-7.4,0.6-10.4,0.6l-0.3-2.1c0.6,0,1.2,0,1.8,0V130h-1.4v-2h9.4v2h-1.4v4.5
		c0.7-0.1,1.4-0.1,2-0.2L321.8,136.1z M313.4,138.1h11.9v6.1h-2.5v-4.1h-9.4V138.1z M315.3,134.7c0.6,0,1.2,0,1.8-0.1V130h-1.8
		V134.7z M325.3,126.7v10.7h-2.5v-10.7H325.3z"/>
	<path class="st1" d="M341.7,128c0,4.9-2.1,8.2-7.9,10.1l-1-2c2.5-0.8,4-1.7,5-2.9l-4.6,0.4l-0.3-2l5.9-0.2c0.1-0.5,0.2-0.9,0.3-1.4
		h-5.3v-2H341.7z M347.6,141.9v2h-11.9v-5.5h2.5v3.5H347.6z M344.7,132v-5.3h2.5v12.9h-2.5v-5.6h-3.1v-2H344.7z"/>
	<path class="st1" d="M357.3,136c-1.4-0.6-2.3-1.6-2.9-2.9c-0.6,1.4-1.7,2.6-3.2,3.3l-1.3-1.9c2.4-1,3.3-3.1,3.3-5v-1.9h2.4v1.8
		c0,1.9,0.9,3.8,3,4.7L357.3,136z M362.5,137.1h2.5v6.9h-11.9v-6.9h2.5v1.5h6.9V137.1z M362.5,140.5h-6.9v1.5h6.9V140.5z
		 M359.1,131.9H357v-2h2.1V127h2.3v9.3h-2.3V131.9z M364.9,126.7v9.7h-2.4v-9.7H364.9z"/>
	<path class="st1" d="M383.3,133.8v2h-15.8v-2H383.3z M369.1,129.9c0-1.9,2.3-3,6.3-3c4,0,6.3,1.1,6.3,3c0,1.9-2.3,3-6.3,3
		C371.4,132.9,369.1,131.9,369.1,129.9z M371.8,142.2h10v1.9h-12.5v-4.6h9.6v-0.9h-9.6v-1.8h12.1v4.5h-9.6V142.2z M371.7,129.9
		c0,0.8,1.2,1.2,3.7,1.2c2.5,0,3.7-0.3,3.7-1.2c0-0.8-1.2-1.1-3.7-1.1C372.9,128.8,371.7,129.2,371.7,129.9z"/>
	<path class="st1" d="M392.9,138c3.1,0,5-0.1,7.1-0.5l0.2,2.1c-2.4,0.5-4.6,0.5-8.3,0.5h-1.5v-11.8h8.5v2h-5.9V138z M403.8,126.7
		v17.6h-2.5v-17.6H403.8z"/>
	<path class="st1" d="M413.2,131.4c0,2.7,1.4,5.8,4.3,7.1l-1.4,2c-1.9-0.9-3.3-2.6-4.1-4.7c-0.8,2.3-2.2,4.2-4.2,5.1l-1.4-2
		c2.9-1.3,4.3-4.6,4.3-7.5v-1h-3.6v-2.1h9.6v2.1h-3.5V131.4z M423,135.5h-2.5v8.8H418v-17.5h2.5v6.7h2.5V135.5z"/>
	<path class="st1" d="M429.3,136.7c-2.7,0-4.8-1.9-4.8-4.4c0-2.6,2.1-4.4,4.8-4.4s4.7,1.9,4.7,4.4C434,134.8,432,136.7,429.3,136.7z
		 M429.3,134.5c1.3,0,2.3-0.9,2.3-2.3c0-1.4-1-2.3-2.3-2.3c-1.3,0-2.3,0.8-2.3,2.3C427,133.7,428,134.5,429.3,134.5z M439.2,141.9v2
		h-12.1v-5.9h2.5v3.9H439.2z M438.8,139.3h-2.5v-12.6h2.5V139.3z"/>
	<path class="st1" d="M452,130.2h-10.3v-2h3.9v-1.7h2.5v1.7h3.9L452,130.2z M446.9,136.9c-2.5,0-4.3-1.3-4.3-3.1
		c0-1.9,1.8-3.1,4.3-3.1c2.5,0,4.3,1.2,4.3,3.1C451.2,135.6,449.4,136.9,446.9,136.9z M453,137.6h2.5v6.4h-11.4v-6.4h2.5v1.3h6.4
		V137.6z M446.9,135.1c1.1,0,1.9-0.4,1.9-1.3s-0.8-1.3-1.9-1.3c-1.1,0-1.9,0.4-1.9,1.3S445.8,135.1,446.9,135.1z M453,140.9h-6.4
		v1.2h6.4V140.9z M457.8,133h-2.3v4H453v-10.2h2.5v4.2h2.3V133z"/>
	<path class="st1" d="M462.6,137.8c2.3-0.1,4.8-0.2,7.4-0.8l0.3,2.1c-3,0.6-5.9,0.8-8.5,0.8h-1.6v-11.5h2.5V137.8z M473.8,126.7
		v17.5h-2.5v-17.5H473.8z"/>
	<path class="st1" d="M479.9,138c2.5,0,4.6-0.2,6.8-0.6l0.2,2.1c-2.6,0.5-5,0.6-8.1,0.6h-1.5v-11.7h8.2v2h-5.7V138z M493,135.2h-2.5
		v9h-2.5v-17.5h2.5v6.5h2.5V135.2z"/>
	<path class="st1" d="M494.7,141c0-1,0.7-1.8,1.7-1.8c1,0,1.7,0.8,1.7,1.8c0,1-0.7,1.8-1.7,1.8C495.5,142.8,494.7,142,494.7,141z"/>
</g>
<g class="st0">
	<path class="st1" d="M89.8,169.5c1.6,0,3.1-0.1,4.8-0.4l0.2,2c-2.1,0.4-4,0.5-6.2,0.5h-1.2v-11.5h6.5v2h-4V169.5z M101.8,158v17.5
		h-2.4v-8.8h-1.6v7.9h-2.3v-16.4h2.3v6.4h1.6V158H101.8z"/>
	<path class="st1" d="M120.2,171.6v2h-15.9v-2h3.9v-3.3h-2.6v-2h2.3v-4.9h-2.4v-2h13.3v2h-2.4v4.9h2.3v2h-2.6v3.3H120.2z
		 M110.4,166.4h3.6v-4.9h-3.6V166.4z M110.7,171.6h3v-3.3h-3V171.6z"/>
	<path class="st1" d="M131.1,168c-1.9-0.6-3.2-1.9-4-3.4c-0.8,1.7-2.1,3.1-4.2,3.8l-1.3-2c2.8-1,4.1-3.2,4.1-5.3h-3.4v-2h9.4v2h-3.4
		c0,2,1.3,4.1,4,5L131.1,168z M124.5,169.2h11.9v6.3h-2.5v-4.3h-9.4V169.2z M136.4,158.1v10.4h-2.5v-4.2h-2.6v-2h2.6v-4.2H136.4z"/>
	<path class="st1" d="M155.1,171.4v2.1h-15.8v-2.1H155.1z M153.7,164c0,3-2.8,5.1-6.5,5.1c-3.7,0-6.5-2-6.5-5.1
		c0-3.1,2.8-5.1,6.5-5.1C150.9,158.9,153.7,160.9,153.7,164z M143.1,164c0,1.9,1.7,3,4.1,3c2.4,0,4.1-1.1,4.1-3c0-1.9-1.7-3-4.1-3
		C144.8,161,143.1,162.1,143.1,164z"/>
	<path class="st1" d="M172.6,171.6v2.1h-15.8v-2.1h6.6V169h-4.8v-5.9h9.8v-1.9h-9.8v-2h12.3v5.8h-9.7v2h10.1v2h-5.3v2.6H172.6z"/>
	<path class="st1" d="M194.4,171.6v2h-15.8v-2h6.6v-3.1h-5.3v-2h2.3v-5h-2.4v-2h13.3v2h-2.4v5h2.3v2h-5.3v3.1H194.4z M184.6,166.5
		h3.6v-5h-3.6V166.5z"/>
	<path class="st1" d="M211.9,171.4v2H196v-2H211.9z M210.3,168.4c-3-0.6-5.3-2.3-6.4-4.5c-1.1,2.2-3.3,3.9-6.4,4.5l-1.1-2.1
		c3.9-0.7,6.1-3.5,6.1-6v-1.3h2.7v1.3c0,2.6,2.2,5.3,6.1,6L210.3,168.4z"/>
	<path class="st1" d="M216.8,169.6c2.4,0,4.3-0.1,6.4-0.5l0.2,2c-2.5,0.4-4.8,0.5-7.7,0.5h-1.4v-12.1h8.1v2h-5.6v2.8h5v2h-5V169.6z
		 M228.2,158v17.6h-2.5v-9.4h-3v-2h3V158H228.2z"/>
	<path class="st1" d="M238.9,169.3c3.1,0,5-0.1,7.1-0.5l0.2,2.1c-2.4,0.5-4.6,0.5-8.3,0.5h-1.5v-11.8h8.5v2h-5.9V169.3z
		 M249.8,158.1v17.6h-2.5v-17.6H249.8z"/>
	<path class="st1" d="M259.2,162.8c0,2.7,1.4,5.8,4.3,7.1l-1.4,2c-1.9-0.9-3.3-2.6-4.1-4.7c-0.8,2.3-2.2,4.2-4.2,5.1l-1.4-2
		c2.9-1.3,4.3-4.6,4.3-7.5v-1h-3.6v-2.1h9.6v2.1h-3.5V162.8z M269,166.8h-2.5v8.8H264v-17.5h2.5v6.7h2.5V166.8z"/>
	<path class="st1" d="M275.3,168c-2.7,0-4.8-1.9-4.8-4.4c0-2.6,2.1-4.4,4.8-4.4c2.7,0,4.7,1.9,4.7,4.4C280,166.2,278,168,275.3,168z
		 M275.3,165.9c1.3,0,2.3-0.9,2.3-2.3c0-1.4-1-2.3-2.3-2.3c-1.3,0-2.3,0.8-2.3,2.3C273,165,274,165.9,275.3,165.9z M285.2,173.3v2
		h-12.1v-5.9h2.5v3.9H285.2z M284.8,170.6h-2.5v-12.6h2.5V170.6z"/>
	<path class="st1" d="M293.2,169.9c1.7-0.1,3.4-0.2,5-0.4l0.1,1.8c-3.6,0.6-7.5,0.7-10.5,0.7l-0.2-2.1c1,0,2,0,3.1,0v-5.2h2.5V169.9
		z M294.6,167.7c0.4-2.5,0.5-4.4,0.5-5.9h-6.5v-2h9v1.4c0,1.7,0,3.8-0.5,6.7L294.6,167.7z M303.9,167.2h-2.4v8.4H299V158h2.5v7h2.4
		V167.2z"/>
	<path class="st1" d="M325.4,164.6v2h-6.7v2.3h-2.5v-2.3h-6.6v-2h11.1c0.3-1.6,0.4-2.8,0.4-3.9h-9.6v-2h12v1.2c0,1.2,0,2.8-0.3,4.7
		H325.4z M318.7,170.1c0,1.5,1.7,3.1,5.5,3.5l-0.9,1.9c-2.9-0.3-5-1.3-6-2.8c-1.1,1.4-3.1,2.5-6,2.8l-0.9-1.9
		c3.8-0.4,5.5-2.1,5.5-3.5v-0.5h2.6V170.1z"/>
	<path class="st1" d="M342.9,171.4v2H327v-2H342.9z M327.6,166.9c3.9-0.6,5.9-3,5.9-5.4h-5.3v-2h13.2v2h-5.3c0,2.4,2.1,4.7,6,5.3
		l-0.9,2c-3.1-0.5-5.3-2-6.4-4.1c-1.1,2.1-3.3,3.6-6.3,4.2L327.6,166.9z"/>
	<path class="st1" d="M364.7,166.1v2.1h-15.8v-2.1H364.7z M362.8,172.3c0,2.1-2.3,3.2-6.1,3.2s-6.1-1.2-6.1-3.2
		c0-2.1,2.3-3.2,6.1-3.2S362.8,170.3,362.8,172.3z M362.8,164.8h-12.1v-6.3h12v2h-9.5v2.3h9.6V164.8z M360.2,172.3
		c0-0.9-1.2-1.3-3.5-1.3s-3.5,0.4-3.5,1.3c0,0.9,1.2,1.3,3.5,1.3S360.2,173.3,360.2,172.3z"/>
	<path class="st1" d="M366.4,170c3.1,0,7.4,0,11.1-0.6l0.2,1.8c-3.8,0.8-7.9,0.8-10.9,0.8L366.4,170z M376.7,163.5
		c0,2.5-2.1,4.3-4.8,4.3c-2.7,0-4.8-1.8-4.8-4.3c0-2.5,2.1-4.3,4.8-4.3C374.6,159.2,376.7,161,376.7,163.5z M369.5,163.5
		c0,1.4,1,2.2,2.4,2.2c1.3,0,2.4-0.8,2.4-2.2c0-1.4-1-2.2-2.4-2.2C370.6,161.4,369.5,162.2,369.5,163.5z M380.9,158v17.6h-2.5V158
		H380.9z"/>
	<path class="st1" d="M397.3,168c-1.9-0.6-3.2-1.8-4-3.4c-0.8,1.7-2.1,3-4.2,3.7l-1.3-2c2.8-0.9,4.1-3.1,4.1-5.3h-3.5v-2h9.5v2h-3.4
		c0.1,2,1.3,4.1,4,5L397.3,168z M390.2,169.4h11.7v6.2h-2.5v-4.2h-9.2V169.4z M404.2,164.3h-2.3v4.3h-2.5v-10.5h2.5v4.2h2.3V164.3z"
		/>
	<path class="st1" d="M420.2,158.1v9.4h-2.5v-3.5h-2.8c-0.5,1.9-2.3,3.2-4.5,3.2c-2.6,0-4.6-1.7-4.6-4.2s2-4.2,4.6-4.2
		c2.2,0,4,1.3,4.5,3.1h2.8v-3.9H420.2z M412.6,163c0-1.3-0.9-2.1-2.2-2.1c-1.3,0-2.2,0.8-2.2,2.1c0,1.3,0.9,2.1,2.2,2.1
		C411.7,165,412.6,164.3,412.6,163z M417.7,168.2h2.5v7.1h-11.6v-7.1h2.5v1.7h6.6V168.2z M417.7,171.8h-6.6v1.6h6.6V171.8z"/>
	<path class="st1" d="M438.8,165.1v2H423v-2H438.8z M424.6,161.3c0-1.9,2.3-3,6.3-3c4,0,6.3,1.1,6.3,3c0,1.9-2.3,3-6.3,3
		C427,164.3,424.6,163.2,424.6,161.3z M427.4,173.5h10v1.9h-12.5v-4.6h9.6v-0.9h-9.6V168h12.1v4.5h-9.6V173.5z M427.2,161.3
		c0,0.8,1.2,1.2,3.7,1.2c2.5,0,3.7-0.3,3.7-1.2c0-0.8-1.2-1.1-3.7-1.1C428.4,160.1,427.2,160.5,427.2,161.3z"/>
	<path class="st1" d="M451.1,160.6h3.8v2h-10.2v-2h3.9v-2.3h2.5V160.6z M454.3,167.8c0,2.5-1.9,4.2-4.4,4.2c-2.5,0-4.4-1.7-4.4-4.2
		c0-2.4,1.9-4.2,4.4-4.2C452.4,163.6,454.3,165.4,454.3,167.8z M451.9,167.8c0-1.3-0.9-2.1-2-2.1s-2.1,0.8-2.1,2.1s0.9,2.1,2.1,2.1
		S451.9,169.1,451.9,167.8z M461.1,167h-2.5v8.6h-2.5v-17.5h2.5v6.8h2.5V167z"/>
	<path class="st1" d="M477,158.1v17.5h-2.5v-6.9h-3.2v2.6H463v-11.7h8.3v2.4h3.2v-4H477z M468.8,161.6h-3.4v7.8h3.4V161.6z
		 M474.5,166.7V164h-3.2v2.7H474.5z"/>
</g>
<g class="st0">
	<path class="st1" d="M41.1,197.1c2.5,0,4.6-0.2,6.8-0.6l0.2,2.1c-2.6,0.5-5,0.6-8.1,0.6h-1.5v-11.7h8.2v2h-5.7V197.1z M54.1,194.4
		h-2.5v9h-2.5v-17.5h2.5v6.5h2.5V194.4z"/>
	<path class="st1" d="M71.2,195.4v2H55.4v-2H71.2z M66.8,188.2h-9.5v-1.9h12v4.9h-9.5v1.2h9.8v1.9H57.4v-4.9h9.5V188.2z M59.9,201.1
		h9.8v2H57.4v-4.8h2.5V201.1z"/>
	<path class="st1" d="M88,195.1c-2.5,0.4-4.7,0.5-8.3,0.5h-1.5v-8.6h8.4v2h-5.9v1.3H86v1.9h-5.4v1.4c3,0,4.9-0.1,7.1-0.4L88,195.1z
		 M80.1,197h11.6v6.2H80.1V197z M82.5,201.2h6.7V199h-6.7V201.2z M91.7,185.9v10.4h-2.5v-10.4H91.7z"/>
	<path class="st1" d="M110.5,192.7v2H94.7v-2H110.5z M99,201.3h10v1.9H96.5v-4.7h9.6v-1h-9.6v-1.9h12.1v4.6H99V201.3z M108.6,191.8
		h-12v-5.5h11.9v2h-9.4v1.5h9.5V191.8z"/>
	<path class="st1" d="M117.6,197.7c1.7-0.1,3.4-0.2,5-0.4l0.1,1.8c-3.6,0.6-7.5,0.7-10.5,0.7l-0.2-2.1c1,0,2,0,3.1,0v-5.2h2.5V197.7
		z M118.9,195.6c0.4-2.5,0.5-4.4,0.5-5.9h-6.5v-2h9v1.4c0,1.7,0,3.8-0.5,6.7L118.9,195.6z M128.2,195h-2.4v8.4h-2.5v-17.5h2.5v7h2.4
		V195z"/>
	<path class="st1" d="M140.7,190.6c0,2.8,1.4,5.9,4.3,7.1l-1.4,2c-2-0.9-3.4-2.6-4.2-4.7c-0.8,2.3-2.2,4.2-4.2,5.1l-1.4-2
		c2.9-1.3,4.4-4.5,4.4-7.5v-1h-3.6v-2.1h9.8v2.1h-3.6V190.6z M148.4,185.9v17.5h-2.5v-17.5H148.4z"/>
	<path class="st1" d="M167.2,194.4v2h-15.8v-2h6.6v-2.3h2.5v2.3H167.2z M165.4,193.1c-2.9-0.4-5.1-1.6-6.2-3.4
		c-1.1,1.7-3.2,3-6.2,3.4l-0.9-2c3.9-0.5,5.8-2.5,5.8-4.4v-0.5h2.6v0.5c0,2,1.8,4,5.8,4.4L165.4,193.1z M153.1,197.6h12.2v5.8h-2.5
		v-3.8h-9.7V197.6z"/>
	<path class="st1" d="M178.2,195.8c-1.9-0.6-3.2-1.9-4-3.4c-0.8,1.7-2.1,3.1-4.2,3.8l-1.3-2c2.8-1,4.1-3.2,4.1-5.3h-3.4v-2h9.4v2
		h-3.4c0,2,1.3,4.1,4,5L178.2,195.8z M171.6,197.1h11.9v6.3H181v-4.3h-9.4V197.1z M183.5,185.9v10.4H181v-4.2h-2.6v-2h2.6v-4.2
		H183.5z"/>
	<path class="st1" d="M202.2,199.3v2.1h-15.8v-2.1H202.2z M200.8,191.8c0,3-2.8,5.1-6.5,5.1c-3.7,0-6.5-2-6.5-5.1
		c0-3.1,2.8-5.1,6.5-5.1C197.9,186.8,200.8,188.8,200.8,191.8z M190.2,191.8c0,1.9,1.7,3,4.1,3c2.4,0,4.1-1.1,4.1-3
		c0-1.9-1.7-3-4.1-3C191.9,188.8,190.2,189.9,190.2,191.8z"/>
	<path class="st1" d="M219.7,199.4v2.1h-15.8v-2.1h6.6v-2.6h-4.8v-5.9h9.8V189h-9.8v-2h12.3v5.8h-9.7v2h10.1v2H213v2.6H219.7z"/>
	<path class="st1" d="M241.5,199.1v2.1h-15.8v-2.1H241.5z M237,189.5h-9.7v-2h12.3v2.1c0,2.5,0,4.8-0.6,8.4l-2.5-0.2
		C237,194.4,237,192,237,189.5L237,189.5z"/>
	<path class="st1" d="M246,197.5c1.6,0,3.1-0.1,4.9-0.4l0.2,2c-2.2,0.4-4.1,0.4-6.2,0.4h-1.2v-7.1h4.2v-2.8h-4.2v-2h6.6v6.8H246
		V197.5z M258.1,185.9v17.5h-2.4v-8.9h-1.6v8.1h-2.3v-16.4h2.3v6.3h1.6v-6.6H258.1z"/>
	<path class="st1" d="M271.6,195.3c-3.5,0.6-7.4,0.6-10.4,0.6l-0.3-2.1c0.6,0,1.2,0,1.8,0v-4.7h-1.4v-2h9.4v2h-1.4v4.5
		c0.7-0.1,1.4-0.1,2-0.2L271.6,195.3z M263.2,197.3h11.9v6.1h-2.5v-4.1h-9.4V197.3z M265.1,193.9c0.6,0,1.2,0,1.8-0.1v-4.7h-1.8
		V193.9z M275.1,185.9v10.7h-2.5v-10.7H275.1z"/>
	<path class="st1" d="M298.2,199.3v2h-15.8v-2h3.5v-4.3c-1.3-0.8-2.1-2.1-2.1-3.6c0-2.9,2.8-4.7,6.5-4.7c3.8,0,6.5,1.8,6.5,4.7
		c0,1.5-0.8,2.8-2.1,3.6v4.3H298.2z M286.2,191.5c0,1.7,1.6,2.7,4,2.7s4.1-1,4.1-2.7c0-1.7-1.6-2.7-4.1-2.7S286.2,189.7,286.2,191.5
		z M288.4,199.3h3.9V196c-0.6,0.1-1.3,0.2-1.9,0.2c-0.7,0-1.3-0.1-1.9-0.2V199.3z"/>
	<path class="st1" d="M315.7,199.3v2h-15.8v-2h6.6v-3.9h2.5v3.9H315.7z M314.2,195.9c-3.1-0.6-5.3-2.2-6.5-4.3
		c-1.1,2.1-3.4,3.8-6.4,4.3l-1-2.1c4-0.6,6.1-3.3,6.1-5.8v-1.3h2.7v1.3c0,2.5,2.1,5.1,6.1,5.8L314.2,195.9z"/>
	<path class="st1" d="M333.2,193.8v1.8h-15.8v-1.8H333.2z M321.6,201.6h10.1v1.7h-12.6V199h9.7v-0.9h-9.7v-1.7h12.2v4.2h-9.7V201.6z
		 M328.8,187.9h-9.5v-1.7h12v4.1h-9.5v0.9h9.8v1.7h-12.2v-4.2h9.5V187.9z"/>
	<path class="st1" d="M348.5,196.4c-1.9-0.6-3.2-1.9-4-3.5c-0.8,1.7-2.1,3.1-4.2,3.8l-1.3-2c2.9-0.9,4.1-3.2,4.1-5.4v-0.2h-3.4v-2
		h9.4v2h-3.4v0.2c0,2.1,1.2,4.2,4,5.1L348.5,196.4z M354.2,201.1v2h-11.9v-5.5h2.5v3.5H354.2z M351.3,190.4v-4.5h2.5v12.8h-2.5v-6.2
		h-2.7v-2H351.3z"/>
	<path class="st1" d="M366.8,193.6c-2.3,0.5-4.4,0.6-8.1,0.6h-1.5v-7.4h7.8v2h-5.3v3.5c3,0,4.8-0.2,6.8-0.6L366.8,193.6z
		 M361.3,201.2h9.5v2h-12v-4.9h9.1v-1h-9.1v-2h11.5v4.8h-9V201.2z M372.7,189.2v2h-2.3v3.3h-2.5v-8.7h2.5v3.3H372.7z"/>
	<path class="st1" d="M380.4,188.5h3.8v2H374v-2h3.9v-2.3h2.5V188.5z M383.6,195.6c0,2.5-1.9,4.2-4.4,4.2c-2.5,0-4.4-1.7-4.4-4.2
		c0-2.4,1.9-4.2,4.4-4.2C381.7,191.5,383.6,193.2,383.6,195.6z M381.2,195.6c0-1.3-0.9-2.1-2-2.1s-2.1,0.8-2.1,2.1s0.9,2.1,2.1,2.1
		S381.2,197,381.2,195.6z M390.3,194.8h-2.5v8.6h-2.5v-17.5h2.5v6.8h2.5V194.8z"/>
	<path class="st1" d="M406.3,185.9v17.5h-2.5v-6.9h-3.2v2.6h-8.3v-11.7h8.3v2.4h3.2v-4H406.3z M398.1,189.4h-3.4v7.8h3.4V189.4z
		 M403.8,194.6v-2.7h-3.2v2.7H403.8z"/>
	<path class="st1" d="M423,189.4h-9.6v-2h3.7v-1.6h2.5v1.6h3.4V189.4z M418.3,196.2c-2.4,0-4.1-1.3-4.1-3.2c0-1.9,1.7-3.2,4.1-3.2
		c2.4,0,4.1,1.3,4.1,3.2C422.4,194.9,420.7,196.2,418.3,196.2z M425.5,197h2.5v6.2h-11.7V197h2.5v1.3h6.8V197z M418.3,194.4
		c1,0,1.8-0.5,1.8-1.3c0-0.9-0.7-1.3-1.8-1.3c-1.1,0-1.8,0.5-1.8,1.3C416.6,193.9,417.3,194.4,418.3,194.4z M425.5,200.1h-6.8v1.2
		h6.8V200.1z M428,185.9v10.4h-2.5v-1.3h-2.3v-2h2.3v-1.5h-2.2v-2h2.2v-3.7H428z"/>
	<path class="st1" d="M445.5,185.9v9.4H443v-3.5h-2.8c-0.5,1.9-2.3,3.2-4.5,3.2c-2.6,0-4.6-1.7-4.6-4.2s2-4.2,4.6-4.2
		c2.2,0,4,1.3,4.5,3.1h2.8v-3.9H445.5z M437.9,190.8c0-1.3-0.9-2.1-2.2-2.1c-1.3,0-2.2,0.8-2.2,2.1c0,1.3,0.9,2.1,2.2,2.1
		C437,192.9,437.9,192.1,437.9,190.8z M443,196.1h2.5v7.1h-11.6v-7.1h2.5v1.7h6.6V196.1z M443,199.6h-6.6v1.6h6.6V199.6z"/>
	<path class="st1" d="M464.1,192.9v2h-15.8v-2H464.1z M449.9,189.1c0-1.9,2.3-3,6.3-3c4,0,6.3,1.1,6.3,3c0,1.9-2.3,3-6.3,3
		C452.2,192.1,449.9,191.1,449.9,189.1z M452.6,201.4h10v1.9h-12.5v-4.6h9.6v-0.9h-9.6v-1.8h12.1v4.5h-9.6V201.4z M452.5,189.1
		c0,0.8,1.2,1.2,3.7,1.2c2.5,0,3.7-0.3,3.7-1.2c0-0.8-1.2-1.1-3.7-1.1C453.7,188,452.5,188.4,452.5,189.1z"/>
	<path class="st1" d="M480.4,189.4h-10.3v-2h3.9v-1.7h2.5v1.7h3.9L480.4,189.4z M475.3,196.1c-2.5,0-4.3-1.3-4.3-3.1
		c0-1.9,1.8-3.1,4.3-3.1c2.5,0,4.3,1.2,4.3,3.1C479.6,194.8,477.8,196.1,475.3,196.1z M481.4,196.8h2.5v6.4h-11.4v-6.4h2.5v1.3h6.4
		V196.8z M475.3,194.2c1.1,0,1.9-0.4,1.9-1.3s-0.8-1.3-1.9-1.3c-1.1,0-1.9,0.4-1.9,1.3S474.2,194.2,475.3,194.2z M481.4,200H475v1.2
		h6.4V200z M486.2,192.2h-2.3v4h-2.5v-10.2h2.5v4.2h2.3V192.2z"/>
	<path class="st1" d="M491,196.9c2.3-0.1,4.8-0.2,7.4-0.8l0.3,2.1c-3,0.6-5.9,0.8-8.5,0.8h-1.6v-11.5h2.5V196.9z M502.2,185.9v17.5
		h-2.5v-17.5H502.2z"/>
	<path class="st1" d="M508.3,197.1c2.5,0,4.6-0.2,6.8-0.6l0.2,2.1c-2.6,0.5-5,0.6-8.1,0.6h-1.5v-11.7h8.2v2h-5.7V197.1z
		 M521.3,194.4h-2.5v9h-2.5v-17.5h2.5v6.5h2.5V194.4z"/>
	<path class="st1" d="M523.1,200.2c0-1,0.7-1.8,1.7-1.8c1,0,1.7,0.8,1.7,1.8c0,1-0.7,1.8-1.7,1.8C523.8,202,523.1,201.2,523.1,200.2
		z"/>
</g>
<g class="st0">
	<path class="st1" d="M13.9,222.4c-2-0.6-3.3-1.8-4.1-3.3c-0.8,1.7-2.2,3-4.3,3.6l-1.2-2c2.9-0.9,4.2-3.1,4.2-5.2v-1.3H11v1.3
		c0,2.1,1.3,4.1,4.1,4.9L13.9,222.4z M19.3,229.2v1.9H7.2v-4.8h9.2v-1H7.2v-1.9h11.7v4.7H9.7v1.1H19.3z M18.8,222.6h-2.5v-8.8h2.5
		V222.6z"/>
	<path class="st1" d="M37.6,227.1v2.1H21.8v-2.1H37.6z M33.5,220.1c0-1,0-1.9,0-2.8v0h-10v-2H36v2c0,2.5,0,5-0.8,8.8l-2.5-0.2
		c0.3-1.4,0.5-2.7,0.6-3.9l-10,0.5l-0.3-2L33.5,220.1z"/>
	<path class="st1" d="M55.1,227.1v2H39.3v-2H55.1z M53.5,224.1c-3-0.6-5.3-2.3-6.4-4.5c-1.1,2.2-3.3,3.9-6.4,4.5l-1.1-2.1
		c3.9-0.7,6.1-3.5,6.1-6v-1.3h2.7v1.3c0,2.6,2.2,5.3,6.1,6L53.5,224.1z"/>
	<path class="st1" d="M72.6,227.1v2.1H56.8v-2.1H72.6z M68.5,220.1c0-1,0-1.9,0-2.8v0h-10v-2H71v2c0,2.5,0,5-0.8,8.8l-2.5-0.2
		c0.3-1.4,0.5-2.7,0.6-3.9l-10,0.5l-0.3-2L68.5,220.1z"/>
	<path class="st1" d="M85.1,223.9c-2.5,0.5-4.7,0.6-8.4,0.6h-1.5v-5.8h5.6v-1.7h-5.6v-2h8.1v5.6h-5.6v1.9c3.1,0,5.1-0.2,7.2-0.6
		L85.1,223.9z M89.2,228.9v2H77.1v-5.4h2.5v3.4H89.2z M88.8,226.6h-2.5v-12.9h2.5V226.6z"/>
	<path class="st1" d="M107.6,225.8h-6.7v5.5h-2.5v-5.5h-6.6v-2h15.8V225.8z M105.7,222.2H93.5v-7.8H96v2h7.2v-2h2.5V222.2z
		 M103.2,218.4H96v1.8h7.2V218.4z"/>
	<path class="st1" d="M112.5,225.3c2.4,0,4.3-0.1,6.4-0.5l0.2,2c-2.5,0.4-4.8,0.5-7.7,0.5H110v-12.1h8.1v2h-5.6v2.8h5v2h-5V225.3z
		 M123.9,213.7v17.6h-2.5v-9.4h-3v-2h3v-6.2H123.9z"/>
	<path class="st1" d="M141.7,222.5c-3.6,0.6-7.4,0.6-10.5,0.6l-0.3-1.8c1.3,0,2.7,0,4.2,0v-1.4h2.5v1.3c1.3-0.1,2.7-0.2,3.9-0.3
		L141.7,222.5z M131.3,218.7c2.3-0.2,3.6-1,3.8-2h-3.3v-1.8h3.4v-1.2h2.5v1.2h3.3v1.8h-3.3c0.2,0.9,1.5,1.7,3.7,1.9l-0.8,1.8
		c-2-0.2-3.4-1-4.1-2c-0.8,1-2.2,1.8-4.3,2.1L131.3,218.7z M135.6,229.3h9.9v1.8h-12.3v-4.4h9.3v-0.9h-9.3V224h11.8v4.4h-9.3V229.3z
		 M147.1,217.4v2.1h-2.2v3.8h-2.5v-9.6h2.5v3.7H147.1z"/>
	<path class="st1" d="M156.7,221.9c-0.8,0.8-2,1.3-3.4,1.3c-2.6,0-4.6-1.8-4.6-4.3c0-2.5,2-4.3,4.6-4.3c1.4,0,2.6,0.5,3.4,1.3h3.9
		v-2.3h2.5V224h-2.5v-2.1H156.7z M153.3,221.1c1.3,0,2.2-0.8,2.2-2.2c0-1.4-0.9-2.2-2.2-2.2c-1.3,0-2.2,0.8-2.2,2.2
		C151.1,220.3,152,221.1,153.3,221.1z M163.2,227.8c0,2.2-2.3,3.5-6,3.5c-3.7,0-6-1.3-6-3.5c0-2.2,2.3-3.5,6-3.5
		C160.9,224.3,163.2,225.6,163.2,227.8z M160.7,227.8c0-1-1.2-1.5-3.5-1.5s-3.5,0.5-3.5,1.5c0,1,1.2,1.5,3.5,1.5
		S160.7,228.8,160.7,227.8z M157.8,218c0.1,0.3,0.1,0.6,0.1,0.9c0,0.3,0,0.6-0.1,1h2.8V218H157.8z"/>
	<path class="st1" d="M171.1,215.5c0,4.8-0.4,8.6-3.6,12l-2-1.4c2.3-2.6,3-5.1,3.1-8.6h-2.4v-2H171.1z M175.9,215.5
		c0,5.1-0.4,9.4-3.5,13.1l-2-1.4c2.3-2.9,2.9-5.9,3.1-9.7h-1.9v-2H175.9z M182.1,222.7h-2.3v8.6h-2.5v-17.5h2.5v6.9h2.3V222.7z"/>
	<path class="st1" d="M190.2,218.5c0,2.8,1.4,5.9,4.3,7.1l-1.4,2c-2-0.9-3.4-2.6-4.2-4.7c-0.8,2.3-2.2,4.2-4.2,5.1l-1.4-2
		c2.9-1.3,4.4-4.5,4.4-7.5v-1H184v-2.1h9.8v2.1h-3.6V218.5z M197.9,213.7v17.5h-2.5v-17.5H197.9z"/>
	<path class="st1" d="M201.1,232.1c1.5-0.6,2.3-1.5,2.3-2.6c-0.1,0-0.1,0-0.2,0c-0.9,0-1.7-0.6-1.7-1.7c0-1,0.8-1.7,1.8-1.7
		c1.3,0,2,1,2,2.8c0,2.2-1.3,3.9-3.6,4.7L201.1,232.1z"/>
	<path class="st1" d="M227.2,220.2v2h-15.8v-2h4.1c0.5-1.6,0.6-2.9,0.7-3.9h-3.3v-2h5.8v0.9c0,1.1,0,2.7-0.6,4.9h4.4
		c0.4-1.6,0.5-2.8,0.6-3.9h-3.3v-2h5.8v1.2c0,1.2,0,2.7-0.5,4.6H227.2z M215.9,229.2h9.7v1.9h-12.2v-7.7h12.1v1.8h-9.5v1.1h9.1v1.8
		h-9.1V229.2z"/>
	<path class="st1" d="M234,215.5c0,4.8-0.4,8.6-3.6,12l-2-1.4c2.3-2.6,3-5.1,3.1-8.6h-2.4v-2H234z M238.9,215.5
		c0,5.1-0.4,9.4-3.5,13.1l-2-1.4c2.3-2.9,2.9-5.9,3.1-9.7h-1.9v-2H238.9z M245.1,222.7h-2.3v8.6h-2.5v-17.5h2.5v6.9h2.3V222.7z"/>
	<path class="st1" d="M253.1,218.5c0,2.8,1.4,5.9,4.3,7.1l-1.4,2c-2-0.9-3.4-2.6-4.2-4.7c-0.8,2.3-2.2,4.2-4.2,5.1l-1.4-2
		c2.9-1.3,4.4-4.5,4.4-7.5v-1h-3.6v-2.1h9.8v2.1h-3.6V218.5z M260.9,213.7v17.5h-2.5v-17.5H260.9z"/>
	<path class="st1" d="M276.5,221c-0.8,0.8-2.1,1.3-3.5,1.3c-2.6,0-4.6-1.7-4.6-4c0-2.4,2-4.1,4.6-4.1c1.4,0,2.6,0.5,3.5,1.3h3.8
		v-1.8h2.5v8.8h-2.5V221H276.5z M273,220.3c1.3,0,2.2-0.8,2.2-2c0-1.3-0.9-2-2.2-2c-1.3,0-2.2,0.7-2.2,2
		C270.8,219.5,271.7,220.3,273,220.3z M283.3,229.1v1.9h-12v-4.8h9v-1h-9.1v-1.9h11.6v4.7h-9v1.1H283.3z M280.3,217.4h-2.8
		c0.1,0.3,0.1,0.5,0.1,0.8c0,0.3,0,0.5-0.1,0.8h2.8V217.4z"/>
	<path class="st1" d="M295.2,223c-2-0.6-3.3-1.8-4.1-3.3c-0.8,1.7-2.2,3-4.3,3.6l-1.2-2c2.9-0.9,4.2-3.1,4.2-5.3v-1.7h2.5v1.7
		c0,2.1,1.2,4.2,4.1,5L295.2,223z M288.5,224.4h11.6v6.6h-11.6V224.4z M291,229.1h6.7v-2.7H291V229.1z M300.2,213.7v9.9h-2.5v-9.9
		H300.2z"/>
	<path class="st1" d="M309.9,216.4h3.9v2h-10.4v-2h3.9V214h2.5V216.4z M313.2,223.5c0,2.5-1.9,4.2-4.5,4.2c-2.6,0-4.5-1.7-4.5-4.2
		c0-2.4,1.9-4.2,4.5-4.2C311.3,219.3,313.2,221,313.2,223.5z M310.8,223.5c0-1.3-0.9-2.1-2.1-2.1c-1.2,0-2.1,0.8-2.1,2.1
		c0,1.3,0.9,2.1,2.1,2.1C309.9,225.6,310.8,224.8,310.8,223.5z M317.6,213.7v17.5h-2.5v-17.5H317.6z"/>
	<path class="st1" d="M335.1,221.5c-2.3,0.5-4.4,0.6-8.1,0.6h-1.5v-7.4h7.8v2H328v3.5c3,0,4.8-0.2,6.8-0.6L335.1,221.5z
		 M329.6,229.1h9.5v2h-12v-4.9h9.1v-1h-9.1v-2h11.5v4.8h-9V229.1z M341,217.1v2h-2.3v3.3h-2.5v-8.7h2.5v3.3H341z"/>
	<path class="st1" d="M345.5,225.3c2.1,0,4-0.1,6.2-0.4l0.2,2.1c-2.6,0.4-4.8,0.5-7.4,0.5H343V220h5.3v-2.8H343v-2h7.8v6.8h-5.3
		V225.3z M357,213.7v17.6h-2.5v-7.1h-2.9v-2h2.9v-2.7h-2.9v-2h2.9v-3.7H357z"/>
	<path class="st1" d="M375.7,222.7v2h-15.8v-2h6.6v-1.4c-3.1-0.3-5.1-1.6-5.1-3.6c0-2.2,2.5-3.6,6.3-3.6c3.8,0,6.3,1.4,6.3,3.6
		c0,2-2,3.3-5.1,3.6v1.4H375.7z M364.3,228.9h9.6v2h-12.1v-5.1h2.5V228.9z M367.8,219.4c2.4,0,3.8-0.5,3.8-1.6
		c0-1.1-1.4-1.6-3.8-1.6c-2.3,0-3.7,0.6-3.7,1.6C364,218.9,365.4,219.4,367.8,219.4z"/>
	<path class="st1" d="M397.5,226.9v2.1h-15.8v-2.1H397.5z M393,217.4h-9.7v-2h12.3v2.1c0,2.5,0,4.8-0.6,8.4l-2.5-0.2
		C393,222.3,393,219.8,393,217.4L393,217.4z"/>
	<path class="st1" d="M402.1,225.3c1.6,0,3.1-0.1,4.9-0.4l0.2,2c-2.2,0.4-4.1,0.4-6.2,0.4h-1.2v-7.1h4.2v-2.8h-4.2v-2h6.6v6.8h-4.2
		V225.3z M414.2,213.7v17.5h-2.4v-8.9h-1.6v8.1h-2.3V214h2.3v6.3h1.6v-6.6H414.2z"/>
	<path class="st1" d="M427.6,223.2c-3.5,0.6-7.4,0.6-10.4,0.6l-0.3-2.1c0.6,0,1.2,0,1.8,0V217h-1.4v-2h9.4v2h-1.4v4.5
		c0.7-0.1,1.4-0.1,2-0.2L427.6,223.2z M419.2,225.2h11.9v6.1h-2.5v-4.1h-9.4V225.2z M421.2,221.7c0.6,0,1.2,0,1.8-0.1V217h-1.8
		V221.7z M431.2,213.7v10.7h-2.5v-10.7H431.2z"/>
	<path class="st1" d="M444.9,222.9c-2.5,0.4-4.7,0.5-8.3,0.5h-1.5v-8.6h8.4v2h-5.9v1.3h5.4v1.9h-5.4v1.4c3,0,4.9-0.1,7.1-0.4
		L444.9,222.9z M437,224.9h11.6v6.2H437V224.9z M439.5,229.1h6.7v-2.3h-6.7V229.1z M448.6,213.8v10.4h-2.5v-10.4H448.6z"/>
	<path class="st1" d="M462.3,217.6c0,3.2,1.2,6.3,4,7.7l-1.5,2c-1.8-0.9-3.1-2.6-3.8-4.7c-0.8,2.2-2.1,4.1-4,5l-1.5-2
		c2.9-1.4,4.3-4.7,4.3-8v-2.5h2.5V217.6z M472.1,222.6h-2.5v8.7h-2.5v-17.5h2.5v6.7h2.5V222.6z"/>
	<path class="st1" d="M479.5,218.2v-1.4H474v-2h8v5.3h-5.5v1.5c2.8,0,4.8-0.1,7-0.5l0.2,2c-2.4,0.5-4.7,0.5-8.2,0.5H474v-5.4H479.5z
		 M487.3,227.9c0,2.1-2.3,3.3-5.9,3.3s-5.9-1.2-5.9-3.3c0-2.1,2.3-3.3,5.9-3.3S487.3,225.8,487.3,227.9z M484.9,227.9
		c0-1-1.2-1.4-3.5-1.4c-2.3,0-3.5,0.4-3.5,1.4s1.2,1.4,3.5,1.4C483.7,229.3,484.9,228.9,484.9,227.9z M489.5,217.8v2.1h-2.3v4.4
		h-2.5v-10.5h2.5v4.1H489.5z"/>
	<path class="st1" d="M501.2,217.2h-10.3v-2h3.9v-1.7h2.5v1.7h3.9L501.2,217.2z M496,223.9c-2.5,0-4.3-1.3-4.3-3.1
		c0-1.9,1.8-3.1,4.3-3.1c2.5,0,4.3,1.2,4.3,3.1C500.3,222.7,498.5,223.9,496,223.9z M502.1,224.6h2.5v6.4h-11.4v-6.4h2.5v1.3h6.4
		V224.6z M496,222.1c1.1,0,1.9-0.4,1.9-1.3s-0.8-1.3-1.9-1.3c-1.1,0-1.9,0.4-1.9,1.3S494.9,222.1,496,222.1z M502.1,227.9h-6.4v1.2
		h6.4V227.9z M507,220h-2.3v4h-2.5v-10.2h2.5v4.2h2.3V220z"/>
	<path class="st1" d="M511.7,224.8c2.3-0.1,4.8-0.2,7.4-0.8l0.3,2.1c-3,0.6-5.9,0.8-8.5,0.8h-1.6v-11.5h2.5V224.8z M523,213.7v17.5
		h-2.5v-17.5H523z"/>
	<path class="st1" d="M529,225c2.5,0,4.6-0.2,6.8-0.6l0.2,2.1c-2.6,0.5-5,0.6-8.1,0.6h-1.5v-11.7h8.2v2H529V225z M542.1,222.3h-2.5
		v9H537v-17.5h2.5v6.5h2.5V222.3z"/>
	<path class="st1" d="M556,214.5c2.2,0,4,2,4,4.6c0,2.8-2.3,4.8-3.7,6.2c-1.7,1.7-3.6,3.9-4.3,5.1c0,0-0.1,0-0.1,0
		c-0.7-1.1-2.5-3.4-4.3-5.1c-1.4-1.4-3.7-3.4-3.7-6.2c0-2.6,1.8-4.6,4-4.6c1.8,0,3.4,0.9,3.9,3c0,0.1,0,0.1,0.1,0.1
		c0.1,0,0.1-0.1,0.1-0.1C552.6,215.4,554.2,214.5,556,214.5z"/>
</g>
</svg>
