<?xml version="1.0" encoding="utf-8"?>
<!-- Generator: Adobe Illustrator 21.0.0, SVG Export Plug-In . SVG Version: 6.00 Build 0)  -->
<svg version="1.1" id="레이어_1" xmlns="http://www.w3.org/2000/svg" xmlns:xlink="http://www.w3.org/1999/xlink" x="0px"
	 y="0px" viewBox="0 0 565 302" style="enable-background:new 0 0 565 302;" xml:space="preserve">
<style type="text/css">
	.st0{enable-background:new    ;}
	.st1{fill:#080808;}
</style>
<g class="st0">
	<path class="st1" d="M197.2,15.3c-2.5,0.4-4.7,0.5-8.3,0.5h-1.5V7.1h8.4v2h-5.9v1.3h5.4v1.9h-5.4v1.4c3,0,4.9-0.1,7.1-0.4
		L197.2,15.3z M189.2,17.3h11.6v6.2h-11.6V17.3z M191.7,21.5h6.7v-2.3h-6.7V21.5z M200.9,6.2v10.4h-2.5V6.2H200.9z"/>
	<path class="st1" d="M212.8,15.4h-8.2V7.4h8.2v1.3h3.2V6.1h2.5v10.3H216v-2.2h-3.2V15.4z M218.5,20.2c0,2.1-2.3,3.4-6,3.4
		c-3.7,0-6-1.3-6-3.4s2.3-3.4,6-3.4C216.3,16.8,218.5,18.1,218.5,20.2z M210.4,9.4H207v4.1h3.3V9.4z M216,20.2c0-1-1.2-1.5-3.5-1.5
		c-2.3,0-3.5,0.5-3.5,1.5s1.2,1.5,3.5,1.5C214.8,21.7,216,21.2,216,20.2z M212.8,10.7v1.5h3.2v-1.5H212.8z"/>
	<path class="st1" d="M226.2,13.2c0-1,0.7-1.8,1.7-1.8c1,0,1.7,0.8,1.7,1.8c0,1-0.7,1.8-1.7,1.8C226.9,15,226.2,14.3,226.2,13.2z
		 M226.2,20.4c0-1,0.7-1.8,1.7-1.8c1,0,1.7,0.8,1.7,1.8c0,1-0.7,1.8-1.7,1.8C226.9,22.3,226.2,21.5,226.2,20.4z"/>
	<path class="st1" d="M244.6,9.9H236V7.9h3V6.3h2.5v1.6h3V9.9z M240.3,16.5c-2.2,0-3.8-1.3-3.8-3.1s1.6-3,3.8-3c2.2,0,3.8,1.2,3.8,3
		S242.5,16.5,240.3,16.5z M240.3,14.7c0.9,0,1.5-0.5,1.5-1.3c0-0.8-0.6-1.3-1.5-1.3s-1.6,0.4-1.6,1.3
		C238.8,14.3,239.4,14.7,240.3,14.7z M251.1,20.5c0,2-2.3,3.2-6,3.2s-6-1.1-6-3.2c0-2,2.3-3.2,6-3.2S251.1,18.4,251.1,20.5z
		 M248.6,20.5c0-0.9-1.2-1.3-3.5-1.3s-3.5,0.4-3.5,1.3c0,0.9,1.2,1.3,3.5,1.3S248.6,21.4,248.6,20.5z M247.4,16.5H245V6.5h2.3v4h1.3
		V6.1h2.4v10.9h-2.4v-4.6h-1.3V16.5z"/>
	<path class="st1" d="M269.4,14.8v2h-15.8v-2h6.6v-1.4h-4.6V6.6h2.5v1.5h6.8V6.6h2.5v6.7h-4.7v1.4H269.4z M255.3,18h12.2v5.7H265V20
		h-9.7V18z M258.1,11.4h6.8V10h-6.8V11.4z"/>
	<path class="st1" d="M280.1,7.9c0,5.2-2,9.7-7.8,12.7l-1.4-1.9c4.1-2.1,6.2-4.9,6.7-8.7h-5.7v-2H280.1z M287.2,14.9h-2.5v8.7h-2.5
		V6.1h2.5v6.7h2.5V14.9z"/>
	<path class="st1" d="M304.4,14.4v2h-15.8v-2H304.4z M290.3,17.9h12.2v5.8H300v-3.8h-9.7V17.9z M302.7,13h-12.2V6.7h12v2H293V11h9.7
		V13z"/>
	<path class="st1" d="M316.3,9.9H306V8h3.9V6.1h2.5V8h3.9L316.3,9.9z M311.2,17.3c-2.5,0-4.3-1.4-4.3-3.4c0-2,1.8-3.4,4.3-3.4
		c2.5,0,4.3,1.4,4.3,3.4C315.5,15.9,313.7,17.3,311.2,17.3z M311,21.3h9.4v2h-11.9v-5.1h2.5V21.3z M311.2,15.4
		c1.1,0,1.9-0.5,1.9-1.5c0-0.9-0.8-1.5-1.9-1.5c-1.1,0-1.9,0.5-1.9,1.5C309.3,14.9,310.1,15.4,311.2,15.4z M322.1,11.5v2.1h-2.3v5.7
		h-2.5V6.1h2.5v5.3H322.1z"/>
	<path class="st1" d="M336.3,9.9h-8.5V7.9h3V6.3h2.5v1.6h3V9.9z M332,16.5c-2.2,0-3.8-1.3-3.8-3.1s1.6-3,3.8-3c2.2,0,3.8,1.2,3.8,3
		S334.2,16.5,332,16.5z M332,14.7c0.9,0,1.5-0.5,1.5-1.3c0-0.8-0.6-1.3-1.5-1.3s-1.6,0.4-1.6,1.3C330.5,14.3,331.1,14.7,332,14.7z
		 M342.8,20.5c0,2-2.3,3.2-6,3.2s-6-1.1-6-3.2c0-2,2.3-3.2,6-3.2S342.8,18.4,342.8,20.5z M340.3,20.5c0-0.9-1.2-1.3-3.5-1.3
		s-3.5,0.4-3.5,1.3c0,0.9,1.2,1.3,3.5,1.3S340.3,21.4,340.3,20.5z M339.1,16.5h-2.3V6.5h2.3v4h1.3V6.1h2.4v10.9h-2.4v-4.6h-1.3V16.5
		z"/>
	<path class="st1" d="M351.8,10c0,3.2,1.2,6.3,4,7.7l-1.5,2c-1.8-0.9-3.1-2.6-3.8-4.7c-0.8,2.2-2.1,4.1-4,5l-1.5-2
		c2.9-1.4,4.3-4.7,4.3-8V7.5h2.5V10z M361.6,15H359v8.7h-2.5V6.1h2.5v6.7h2.5V15z"/>
	<path class="st1" d="M373.6,15.3c-2.5,0.4-4.7,0.5-8.3,0.5h-1.5V7.1h8.4v2h-5.9v1.3h5.4v1.9h-5.4v1.4c3,0,4.9-0.1,7.1-0.4
		L373.6,15.3z M365.7,17.3h11.6v6.2h-11.6V17.3z M368.2,21.5h6.7v-2.3h-6.7V21.5z M377.3,6.2v10.4h-2.5V6.2H377.3z"/>
</g>
<g class="st0">
	<path class="st1" d="M16,44.2c-2.5,0.4-4.7,0.5-8.3,0.5H6.2v-8.6h8.4v2H8.6v1.3h5.4v1.9H8.6v1.4c3,0,4.9-0.1,7.1-0.4L16,44.2z
		 M8.1,46.2h11.6v6.2H8.1V46.2z M10.6,50.4h6.7v-2.3h-6.7V50.4z M19.7,35.1v10.4h-2.5V35.1H19.7z"/>
	<path class="st1" d="M37.8,50.3v2h-13v-5.2h2.4v-2.3c-1.5,0.1-3,0.1-4.3,0.1l-0.3-2c3.2,0,7.4-0.1,11.1-0.5l0.2,1.8
		c-1.4,0.2-2.8,0.4-4.2,0.5v3.3h-2.4v2.4H37.8z M23.9,38.8c0-1.9,1.8-3.1,4.4-3.1c2.5,0,4.4,1.3,4.4,3.1c0,1.9-1.8,3.1-4.4,3.1
		C25.7,41.9,23.9,40.7,23.9,38.8z M26.3,38.8c0,0.9,0.8,1.3,2,1.3c1.2,0,2-0.4,2-1.3c0-0.9-0.8-1.3-2-1.3
		C27.1,37.5,26.3,38,26.3,38.8z M34.9,45.3V35.1h2.5v13.3h-2.5V47h-3.3v-1.7H34.9z"/>
	<path class="st1" d="M45,42.2c0-1,0.7-1.8,1.7-1.8c1,0,1.7,0.8,1.7,1.8c0,1-0.7,1.8-1.7,1.8C45.8,44,45,43.2,45,42.2z M45,49.4
		c0-1,0.7-1.8,1.7-1.8c1,0,1.7,0.8,1.7,1.8c0,1-0.7,1.8-1.7,1.8C45.8,51.2,45,50.4,45,49.4z"/>
	<path class="st1" d="M64.2,36.1c0,4.7-2.9,7.8-8.1,9.1l-1-2c3.9-1,6.1-2.9,6.4-5.2h-5.4v-2H64.2z M57.9,45.6h11.6v6.8H57.9V45.6z
		 M60.4,50.4H67v-2.9h-6.6V50.4z M69.5,35.1v9.7H67v-9.7H69.5z"/>
	<path class="st1" d="M75.8,36.5v4.2h3.6v-4.2h2.5v12.1h-8.6V36.5H75.8z M75.8,46.5h3.6v-3.9h-3.6V46.5z M86.9,35.1v17.6h-2.5V35.1
		H86.9z"/>
	<path class="st1" d="M99.2,42.5c0,3.9-2,6.3-4.6,6.3c-2.7,0-4.6-2.4-4.6-6.3c0-3.8,1.9-6.2,4.6-6.2C97.3,36.3,99.2,38.7,99.2,42.5z
		 M96.8,42.5c0-2.6-0.9-4-2.2-4c-1.3,0-2.2,1.4-2.2,4c0,2.6,0.9,4,2.2,4C95.9,46.5,96.8,45.1,96.8,42.5z M106.2,43.8h-2.5v8.8h-2.5
		V35.1h2.5v6.6h2.5V43.8z"/>
	<path class="st1" d="M120.9,36.1c0,4.7-2.9,7.8-8.1,9.1l-1-2c3.9-1,6.1-2.9,6.4-5.2h-5.4v-2H120.9z M114.7,45.6h11.6v6.8h-11.6
		V45.6z M117.2,50.4h6.6v-2.9h-6.6V50.4z M126.3,35.1v9.7h-2.5v-9.7H126.3z"/>
	<path class="st1" d="M137.4,39.7h-8.2v-2h2.9v-2.2h2.5v2.2h2.9V39.7z M138.5,35.4h2.3v16.4h-2.3v-5h-1.9c-0.6,1.3-1.8,2.1-3.3,2.1
		c-2.2,0-3.7-1.7-3.7-4.2s1.6-4.2,3.7-4.2c1.5,0,2.8,0.9,3.3,2.2v-2h1.9V35.4z M134.8,44.7c0-1.3-0.6-2.1-1.6-2.1
		c-0.9,0-1.6,0.8-1.6,2.1c0,1.3,0.7,2.1,1.6,2.1C134.2,46.8,134.8,46.1,134.8,44.7z M138.5,44.8v-2.1h-1.9c0.2,0.6,0.4,1.2,0.4,2
		v0.1H138.5z M144.2,35.1v17.5h-2.4V35.1H144.2z"/>
	<path class="st1" d="M162.5,46.6h-6.7v6h-2.5v-6h-6.6v-2h15.8V46.6z M161,43.3c-3.1-0.5-5.2-1.9-6.4-3.8c-1.1,1.9-3.3,3.3-6.4,3.8
		l-0.9-2c4-0.6,6-2.8,6-4.9v-0.8h2.7v0.8c0,2,2,4.3,6,4.9L161,43.3z"/>
	<path class="st1" d="M184.3,43.4v2h-15.8v-2h6.6v-2.1h2.5v2.1H184.3z M182.5,42.3c-2.9-0.4-5.1-1.7-6.2-3.4
		c-1.1,1.7-3.2,2.9-6.2,3.4l-0.9-2c3.9-0.5,5.8-2.5,5.8-4.4v-0.5h2.6v0.5c0,2,1.8,4,5.8,4.4L182.5,42.3z M182.4,49.5
		c0,2-2.3,3.1-6.1,3.1s-6.1-1.1-6.1-3.1c0-2,2.3-3.1,6.1-3.1S182.4,47.5,182.4,49.5z M179.9,49.5c0-0.9-1.2-1.2-3.5-1.2
		c-2.4,0-3.5,0.4-3.5,1.2c0,0.9,1.2,1.2,3.5,1.2C178.7,50.7,179.9,50.3,179.9,49.5z"/>
	<path class="st1" d="M201.8,46.8h-3.7v5.7h-2.5v-5.7h-3.5v5.7h-2.5v-5.7H186v-2h15.8V46.8z M187.5,39.6c0-2.4,2.6-3.9,6.3-3.9
		c3.7,0,6.3,1.5,6.3,3.9c0,2.4-2.6,3.9-6.3,3.9C190.1,43.5,187.5,42,187.5,39.6z M190.1,39.6c0,1.3,1.5,1.9,3.8,1.9
		c2.3,0,3.7-0.7,3.7-1.9c0-1.2-1.5-1.9-3.7-1.9C191.5,37.7,190.1,38.4,190.1,39.6z"/>
	<path class="st1" d="M206.5,46.2c2.2-0.1,4.6-0.2,7-0.7l0.2,2.1c-2.9,0.6-5.7,0.8-8.3,0.8H204V36.7h2.5V46.2z M219.6,43.8h-2.5v8.8
		h-2.5V35.1h2.5v6.6h2.5V43.8z"/>
	<path class="st1" d="M228.3,46.2c2.2-0.1,4.6-0.2,7-0.7l0.2,2.1c-2.9,0.6-5.7,0.8-8.3,0.8h-1.5V36.7h2.5V46.2z M241.4,43.8h-2.5
		v8.8h-2.5V35.1h2.5v6.6h2.5V43.8z"/>
	<path class="st1" d="M258.5,48.5v2h-15.8v-2h6.6v-3.9h2.5v3.9H258.5z M257,45.1c-3.1-0.6-5.3-2.2-6.5-4.3c-1.1,2.1-3.4,3.8-6.4,4.3
		l-1-2.1c4-0.6,6.1-3.3,6.1-5.8v-1.3h2.7v1.3c0,2.5,2.1,5.1,6.1,5.8L257,45.1z"/>
	<path class="st1" d="M268.4,43.8c-0.9,0.9-2.1,1.4-3.4,1.4c-2.6,0-4.6-1.9-4.6-4.5c0-2.6,2-4.5,4.6-4.5c1.4,0,2.5,0.5,3.4,1.4h3.9
		v-2.4h2.5v12.8h-2.5v-4.1H268.4z M265,43c1.3,0,2.2-0.9,2.2-2.4c0-1.4-0.9-2.3-2.2-2.3c-1.3,0-2.2,0.9-2.2,2.3
		C262.8,42.1,263.7,43,265,43z M275.2,50.3v2h-11.9v-5.6h2.5v3.6H275.2z M269.5,39.5c0.1,0.4,0.1,0.7,0.1,1.1c0,0.4,0,0.8-0.1,1.1
		h2.8v-2.3H269.5z"/>
	<path class="st1" d="M291.2,36.1c0,4.7-2.9,7.8-8.1,9.1l-1-2c3.9-1,6.1-2.9,6.4-5.2h-5.4v-2H291.2z M284.9,45.6h11.6v6.8h-11.6
		V45.6z M287.4,50.4h6.6v-2.9h-6.6V50.4z M296.5,35.1v9.7H294v-9.7H296.5z"/>
	<path class="st1" d="M315.3,45.6h-3.7v7h-2.5v-7h-3.6v7H303v-7h-3.5v-2h10.8c0.4-2.3,0.5-4.1,0.5-5.5h-9.5v-2h11.9v1.1
		c0,1.5,0,3.5-0.5,6.4h2.5V45.6z"/>
	<path class="st1" d="M320.4,46.5c2.7,0,4.9-0.2,7.3-0.6l0.3,2c-2.8,0.5-5.4,0.6-8.6,0.6h-1.6v-7.2h5.7v-2.8h-5.7v-2h8.3v6.8h-5.7
		V46.5z M331.5,35.1v17.6H329V35.1H331.5z"/>
	<path class="st1" d="M348.2,45.2c-1.9-0.7-3.3-2-4-3.6c-0.8,1.8-2.2,3.2-4.2,3.9l-1.3-2c2.9-1,4.2-3.4,4.2-5.8v-1.7h2.5v1.7
		c0,2.3,1.2,4.5,4.1,5.5L348.2,45.2z M353.7,50.3v2h-12.1v-5.6h2.5v3.6H353.7z M353.3,47.9h-2.5V35.1h2.5V47.9z"/>
	<path class="st1" d="M365.3,36.9c0,5.2-2,9.7-7.8,12.7l-1.4-1.9c4.1-2.1,6.2-4.9,6.7-8.7H357v-2H365.3z M372.4,43.8h-2.5v8.7h-2.5
		V35.1h2.5v6.7h2.5V43.8z"/>
	<path class="st1" d="M389.5,44v2h-15.8v-2H389.5z M375.3,39.2c0-2.2,2.5-3.6,6.3-3.6c3.8,0,6.3,1.4,6.3,3.6s-2.5,3.6-6.3,3.6
		C377.8,42.8,375.3,41.4,375.3,39.2z M378.1,50.3h9.6v2h-12.1v-5.1h2.5V50.3z M377.9,39.2c0,1.1,1.4,1.6,3.7,1.6
		c2.4,0,3.8-0.5,3.8-1.6c0-1.1-1.4-1.6-3.8-1.6C379.3,37.6,377.9,38.1,377.9,39.2z"/>
	<path class="st1" d="M405.2,42.5c0,3.9-2,6.3-4.6,6.3s-4.6-2.4-4.6-6.3c0-3.8,2-6.2,4.6-6.2S405.2,38.7,405.2,42.5z M398.4,42.5
		c0,2.6,0.9,4,2.2,4s2.2-1.4,2.2-4c0-2.6-0.9-4-2.2-4S398.4,40,398.4,42.5z M410,35.1v17.6h-2.5V35.1H410z"/>
	<path class="st1" d="M422.1,45.5c-1.8-0.7-3.1-1.9-3.8-3.6c-0.7,1.8-2.1,3.2-4.1,4l-1.3-2c2.9-1,4.1-3.4,4.1-5.9v-1.9h2.5v1.9
		c0,2.3,1.2,4.5,3.9,5.5L422.1,45.5z M428,50.3v2H416v-5.6h2.5v3.6H428z M425.1,40.8h-3.2v-2h3.2v-3.7h2.5V48h-2.5V40.8z"/>
	<path class="st1" d="M438.7,43.3c-0.8,0.8-2,1.3-3.4,1.3c-2.6,0-4.6-1.8-4.6-4.3c0-2.5,2-4.3,4.6-4.3c1.4,0,2.6,0.5,3.4,1.3h3.9
		v-2.3h2.5v10.3h-2.5v-2.1H438.7z M435.3,42.5c1.3,0,2.2-0.8,2.2-2.2c0-1.4-1-2.2-2.2-2.2c-1.3,0-2.2,0.8-2.2,2.2
		C433,41.7,434,42.5,435.3,42.5z M445.1,49.1c0,2.2-2.3,3.5-6,3.5c-3.7,0-6-1.3-6-3.5c0-2.2,2.3-3.5,6-3.5
		C442.8,45.7,445.1,47,445.1,49.1z M442.7,49.1c0-1-1.2-1.5-3.5-1.5s-3.5,0.5-3.5,1.5c0,1,1.2,1.5,3.5,1.5S442.7,50.2,442.7,49.1z
		 M439.8,39.4c0.1,0.3,0.1,0.6,0.1,0.9c0,0.3,0,0.6-0.1,1h2.8v-1.9H439.8z"/>
	<path class="st1" d="M461.1,44.7h-8.4v-8.5h2.5v2.3h3.4v-2.3h2.5V44.7z M454.3,46.4H466v6.2h-2.5v-4.3h-9.2V46.4z M458.7,40.4h-3.4
		v2.3h3.4V40.4z M468.3,41.4H466v4.2h-2.5V35.1h2.5v4.3h2.3V41.4z"/>
	<path class="st1" d="M485.6,48.5v2h-15.8v-2h6.6v-3.9h2.5v3.9H485.6z M484,45.1c-3.1-0.6-5.3-2.2-6.5-4.3c-1.1,2.1-3.4,3.8-6.4,4.3
		l-1-2.1c4-0.6,6.1-3.3,6.1-5.8v-1.3h2.7v1.3c0,2.5,2.1,5.1,6.1,5.8L484,45.1z"/>
	<path class="st1" d="M496.8,38.9h-9.6v-2h3.7V35h2.5v1.9h3.4V38.9z M492.2,46.4c-2.4,0-4.1-1.4-4.1-3.5c0-2,1.7-3.4,4.1-3.4
		c2.4,0,4.1,1.4,4.1,3.4C496.3,45,494.5,46.4,492.2,46.4z M502.2,50.3v2h-11.9v-4.9h2.5v2.9H502.2z M492.2,44.5c1,0,1.7-0.5,1.7-1.5
		c0-1-0.7-1.5-1.7-1.5c-1,0-1.7,0.6-1.7,1.5C490.4,43.9,491.1,44.5,492.2,44.5z M499.3,45.2H497v-2h2.3v-1.7H497v-2h2.3v-4.3h2.5
		v13.3h-2.5V45.2z"/>
	<path class="st1" d="M517.9,44.7h-8.4v-8.5h2.5v2.3h3.4v-2.3h2.5V44.7z M511.1,46.4h11.7v6.2h-2.5v-4.3h-9.2V46.4z M515.4,40.4H512
		v2.3h3.4V40.4z M525.1,41.4h-2.3v4.2h-2.5V35.1h2.5v4.3h2.3V41.4z"/>
	<path class="st1" d="M533.2,39.8c0,2.8,1.4,5.9,4.3,7.1l-1.4,2c-2-0.9-3.4-2.6-4.2-4.7c-0.8,2.3-2.2,4.2-4.2,5.1l-1.4-2
		c2.9-1.3,4.4-4.5,4.4-7.5v-1H527v-2.1h9.8v2.1h-3.6V39.8z M541,35.1v17.5h-2.5V35.1H541z"/>
	<path class="st1" d="M552.2,43.3c-0.8,0.8-2,1.3-3.4,1.3c-2.6,0-4.6-1.8-4.6-4.3c0-2.5,2-4.3,4.6-4.3c1.4,0,2.6,0.5,3.4,1.3h3.9
		v-2.3h2.5v10.3h-2.5v-2.1H552.2z M548.8,42.5c1.3,0,2.2-0.8,2.2-2.2c0-1.4-1-2.2-2.2-2.2c-1.3,0-2.2,0.8-2.2,2.2
		C546.6,41.7,547.5,42.5,548.8,42.5z M558.7,49.1c0,2.2-2.3,3.5-6,3.5c-3.7,0-6-1.3-6-3.5c0-2.2,2.3-3.5,6-3.5
		C556.4,45.7,558.7,47,558.7,49.1z M556.2,49.1c0-1-1.2-1.5-3.5-1.5s-3.5,0.5-3.5,1.5c0,1,1.2,1.5,3.5,1.5S556.2,50.2,556.2,49.1z
		 M553.3,39.4c0.1,0.3,0.1,0.6,0.1,0.9c0,0.3,0,0.6-0.1,1h2.8v-1.9H553.3z"/>
</g>
<g class="st0">
	<path class="st1" d="M180.8,103.2c0,3.9-2,6.3-4.6,6.3s-4.6-2.4-4.6-6.3c0-3.8,2-6.2,4.6-6.2S180.8,99.3,180.8,103.2z M174.1,103.2
		c0,2.6,0.9,4,2.2,4c1.3,0,2.2-1.4,2.2-4c0-2.6-0.9-4-2.2-4C175,99.2,174.1,100.6,174.1,103.2z M185.6,95.7v17.6h-2.5V95.7H185.6z"
		/>
	<path class="st1" d="M198.5,100.1c0,2.8,0.8,5.7,3.1,7.3l-1.4,1.9c-1.5-0.9-2.4-2.4-3-4.2c-0.6,1.9-1.6,3.6-3.2,4.6l-1.5-1.9
		c2.6-1.6,3.5-4.7,3.5-7.7v-2.9h2.4V100.1z M202,96h2.3v16.4H202v-8.8h-2.2v-2h2.2V96z M208,95.7v17.5h-2.4V95.7H208z"/>
	<path class="st1" d="M219.4,105.4c-1.8-0.6-3.1-1.8-3.9-3.3c-0.8,1.7-2.1,3.1-4.1,3.8l-1.3-2c2.9-1,4.1-3.3,4.1-5.7v-1.6h2.5v1.8
		c0,2.1,1.2,4.2,3.9,5L219.4,105.4z M224.4,109.8c0,2.1-2.3,3.4-5.9,3.4c-3.6,0-5.9-1.3-5.9-3.4c0-2.1,2.3-3.4,5.9-3.4
		C222.1,106.5,224.4,107.7,224.4,109.8z M221.9,109.8c0-1-1.2-1.4-3.4-1.4c-2.2,0-3.4,0.5-3.4,1.4c0,1,1.2,1.4,3.4,1.4
		C220.7,111.3,221.9,110.8,221.9,109.8z M226.5,99.8v2.1h-2.3v4.2h-2.5V95.7h2.5v4H226.5z"/>
	<path class="st1" d="M237.7,97.5c0,4.8-0.6,8.5-3.6,11.9l-1.9-1.4c2.2-2.5,3-4.9,3.2-8.4h-2.3v-2H237.7z M242.5,97.5
		c0,5-0.5,9.3-3.4,13l-2-1.4c2.2-2.9,2.9-5.8,3.1-9.6h-1.9v-2H242.5z M246.7,95.7v17.5h-2.5V95.7H246.7z"/>
	<path class="st1" d="M249.9,114.1c1.5-0.6,2.3-1.5,2.3-2.6c-0.1,0-0.1,0-0.2,0c-0.9,0-1.7-0.6-1.7-1.7c0-1,0.8-1.7,1.8-1.7
		c1.3,0,2,1,2,2.8c0,2.2-1.3,3.9-3.6,4.7L249.9,114.1z"/>
	<path class="st1" d="M269.9,103.2c0,3.9-2,6.3-4.6,6.3s-4.6-2.4-4.6-6.3c0-3.8,2-6.2,4.6-6.2S269.9,99.3,269.9,103.2z M263.1,103.2
		c0,2.6,0.9,4,2.2,4c1.3,0,2.2-1.4,2.2-4c0-2.6-0.9-4-2.2-4C264,99.2,263.1,100.6,263.1,103.2z M274.7,95.7v17.6h-2.5V95.7H274.7z"
		/>
	<path class="st1" d="M287.6,100.1c0,2.8,0.8,5.7,3.1,7.3l-1.4,1.9c-1.5-0.9-2.4-2.4-3-4.2c-0.6,1.9-1.6,3.6-3.2,4.6l-1.5-1.9
		c2.6-1.6,3.5-4.7,3.5-7.7v-2.9h2.4V100.1z M291.1,96h2.3v16.4h-2.3v-8.8h-2.2v-2h2.2V96z M297,95.7v17.5h-2.4V95.7H297z"/>
	<path class="st1" d="M308.5,105.4c-1.8-0.6-3.1-1.8-3.9-3.3c-0.8,1.7-2.1,3.1-4.1,3.8l-1.3-2c2.9-1,4.1-3.3,4.1-5.7v-1.6h2.5v1.8
		c0,2.1,1.2,4.2,3.9,5L308.5,105.4z M313.4,109.8c0,2.1-2.3,3.4-5.9,3.4c-3.6,0-5.9-1.3-5.9-3.4c0-2.1,2.3-3.4,5.9-3.4
		C311.1,106.5,313.4,107.7,313.4,109.8z M310.9,109.8c0-1-1.2-1.4-3.4-1.4c-2.2,0-3.4,0.5-3.4,1.4c0,1,1.2,1.4,3.4,1.4
		C309.7,111.3,310.9,110.8,310.9,109.8z M315.5,99.8v2.1h-2.3v4.2h-2.5V95.7h2.5v4H315.5z"/>
	<path class="st1" d="M337.1,105.1v1.9h-15.8v-1.9H337.1z M336.2,98.9H322V97h5.9v-1.4h2.5V97h5.8V98.9z M335.2,110.5
		c0,1.8-2.2,2.7-6.1,2.7c-3.8,0-6.1-0.9-6.1-2.7c0-1.8,2.2-2.7,6.1-2.7C333,107.8,335.2,108.7,335.2,110.5z M329.2,99.3
		c3.8,0,5.9,0.9,5.9,2.5c0,1.6-2.1,2.5-5.9,2.5c-3.7,0-5.9-0.9-5.9-2.5C323.3,100.2,325.4,99.3,329.2,99.3z M332.6,110.5
		c0-0.6-1.1-0.9-3.5-0.9s-3.5,0.3-3.5,0.9c0,0.6,1.1,0.9,3.5,0.9S332.6,111.2,332.6,110.5z M329.2,101c-2.2,0-3.2,0.2-3.2,0.8
		c0,0.6,1,0.8,3.2,0.8c2.2,0,3.2-0.3,3.2-0.8C332.3,101.3,331.3,101,329.2,101z"/>
	<path class="st1" d="M348.4,103.2c0,3.9-2,6.3-4.6,6.3s-4.6-2.4-4.6-6.3c0-3.8,2-6.2,4.6-6.2S348.4,99.3,348.4,103.2z M341.6,103.2
		c0,2.6,0.9,4,2.2,4s2.2-1.4,2.2-4c0-2.6-0.9-4-2.2-4S341.6,100.6,341.6,103.2z M353.2,95.7v17.6h-2.5V95.7H353.2z"/>
	<path class="st1" d="M369.8,103.2c0,3.9-2,6.3-4.6,6.3c-2.7,0-4.6-2.4-4.6-6.3c0-3.8,1.9-6.2,4.6-6.2
		C367.9,96.9,369.8,99.3,369.8,103.2z M367.4,103.2c0-2.6-0.9-4-2.2-4c-1.3,0-2.2,1.4-2.2,4c0,2.6,0.9,4,2.2,4
		C366.5,107.2,367.4,105.8,367.4,103.2z M376.8,104.4h-2.5v8.8h-2.5V95.7h2.5v6.6h2.5V104.4z"/>
	<path class="st1" d="M388.9,104.6c-2.8,0.6-5.6,0.8-8.4,0.8H379V97h2.5v6.3c2.3-0.1,4.7-0.3,7.1-0.8L388.9,104.6z M393,110.9v2
		h-12.1V107h2.5v4H393z M392.5,108.4H390V95.7h2.5V108.4z"/>
</g>
<g class="st0">
	<path class="st1" d="M11.3,130.6c0,3.3,1.3,6.5,4.2,7.8l-1.5,2c-1.9-0.9-3.2-2.6-3.9-4.7c-0.8,2.2-2.1,4.1-4,5.1l-1.6-2
		c3-1.4,4.3-4.8,4.3-8.1v-2.5h2.5V130.6z M19.4,126.7v17.6h-2.5v-10h-3.4v-2h3.4v-5.5H19.4z"/>
	<path class="st1" d="M31.4,135.6v1.1h4.7v4.5h-9.6v1h10v1.9H24v-4.6h9.6v-0.9H24v-1.8h4.8v-1.1h-6.6v-2H38v2H31.4z M23.8,129.9
		c0-1.9,2.3-3,6.3-3c4,0,6.3,1.1,6.3,3c0,1.9-2.3,3-6.3,3C26.1,132.8,23.8,131.8,23.8,129.9z M26.4,129.9c0,0.8,1.2,1.2,3.7,1.2
		c2.5,0,3.7-0.3,3.7-1.2c0-0.8-1.2-1.1-3.7-1.1C27.6,128.7,26.4,129.1,26.4,129.9z"/>
	<path class="st1" d="M54.4,126.7v17.6h-2.5v-6.5h-3.6c-0.8,1.7-2.1,2.7-3.8,2.7c-2.6,0-4.5-2.4-4.5-6.3c0-3.8,1.9-6.2,4.5-6.2
		c1.6,0,2.9,0.9,3.7,2.4h3.7v-3.6H54.4z M46.7,134.2c0-2.6-0.9-4-2.2-4c-1.3,0-2.1,1.4-2.1,4c0,2.6,0.9,4,2.1,4
		C45.8,138.2,46.7,136.8,46.7,134.2z M51.9,135.7v-3.4h-3c0.1,0.6,0.2,1.2,0.2,1.9c0,0.6,0,1.1-0.1,1.6H51.9z"/>
	<path class="st1" d="M63.6,131.4c0,2.7,1.4,5.8,4.3,7.1l-1.4,2c-1.9-0.9-3.3-2.6-4.1-4.7c-0.8,2.3-2.2,4.2-4.2,5.1l-1.4-2
		c2.9-1.3,4.3-4.6,4.3-7.5v-1h-3.6v-2.1h9.6v2.1h-3.5V131.4z M73.4,135.5h-2.5v8.8h-2.5v-17.5h2.5v6.7h2.5V135.5z"/>
	<path class="st1" d="M77.6,138.2c1.6,0,3.1-0.1,4.8-0.4l0.2,2c-2.1,0.4-4,0.5-6.2,0.5h-1.2v-11.5h6.5v2h-4V138.2z M89.7,126.7v17.5
		h-2.4v-8.8h-1.6v7.9h-2.3V127h2.3v6.4h1.6v-6.7H89.7z"/>
	<path class="st1" d="M102.4,130.2H92.1v-2H96v-1.6h2.5v1.6h3.9V130.2z M97.3,137.2c-2.5,0-4.3-1.3-4.3-3.2c0-1.9,1.8-3.2,4.3-3.2
		c2.5,0,4.3,1.3,4.3,3.2C101.6,135.9,99.8,137.2,97.3,137.2z M94.2,138.4h11.7v5.8h-2.5v-3.8h-9.2V138.4z M97.3,135.3
		c1.1,0,1.9-0.4,1.9-1.3c0-0.9-0.8-1.3-1.9-1.3c-1.1,0-1.9,0.4-1.9,1.3C95.4,134.9,96.1,135.3,97.3,135.3z M108.2,133.3h-2.3v4.4
		h-2.5v-11h2.5v4.5h2.3V133.3z"/>
	<path class="st1" d="M125.5,140.1v2h-15.8v-2h3.3v-5.5h2.5v5.5h1.9v-5.5h2.5v5.5H125.5z M120.9,137.8c0.6-3.2,0.6-5.5,0.6-7.5
		h-10.4v-2H124v1.7c0,2.1,0,4.6-0.6,8.1L120.9,137.8z"/>
	<path class="st1" d="M138.2,130.6c0,3.2,1.4,6.4,4.4,7.7l-1.4,2c-2-0.9-3.4-2.6-4.1-4.8c-0.8,2.3-2.2,4.2-4.3,5.2l-1.5-2.1
		c3.1-1.3,4.5-4.7,4.5-8.1v-2.5h2.5V130.6z M145.9,126.7v17.6h-2.5v-17.6H145.9z"/>
	<path class="st1" d="M157.8,127.7c0,4.7-2.9,7.8-8.1,9.2l-1-2c3.9-1,6-2.9,6.4-5.2h-5.5v-2H157.8z M151,137.6h11.7v6.6h-2.5v-4.6
		H151V137.6z M165,132.9h-2.3v4h-2.5v-10.1h2.5v4.1h2.3V132.9z"/>
	<path class="st1" d="M169.9,138c3.1,0,5-0.1,7.1-0.5l0.2,2.1c-2.4,0.5-4.6,0.5-8.3,0.5h-1.5v-11.8h8.5v2h-5.9V138z M180.9,126.7
		v17.6h-2.5v-17.6H180.9z"/>
	<path class="st1" d="M190.3,131.4c0,2.7,1.4,5.8,4.3,7.1l-1.4,2c-1.9-0.9-3.3-2.6-4.1-4.7c-0.8,2.3-2.2,4.2-4.2,5.1l-1.4-2
		c2.9-1.3,4.3-4.6,4.3-7.5v-1h-3.6v-2.1h9.6v2.1h-3.5V131.4z M200.1,135.5h-2.5v8.8H195v-17.5h2.5v6.7h2.5V135.5z"/>
	<path class="st1" d="M206.3,136.7c-2.7,0-4.8-1.9-4.8-4.4c0-2.6,2.1-4.4,4.8-4.4s4.7,1.9,4.7,4.4
		C211.1,134.8,209,136.7,206.3,136.7z M206.3,134.5c1.3,0,2.3-0.9,2.3-2.3c0-1.4-1-2.3-2.3-2.3c-1.3,0-2.3,0.8-2.3,2.3
		C204,133.7,205.1,134.5,206.3,134.5z M216.3,141.9v2h-12.1v-5.9h2.5v3.9H216.3z M215.9,139.3h-2.5v-12.6h2.5V139.3z"/>
	<path class="st1" d="M229.1,130.2h-10.3v-2h3.9v-1.6h2.5v1.6h3.9V130.2z M224,137.2c-2.5,0-4.3-1.3-4.3-3.2c0-1.9,1.8-3.2,4.3-3.2
		c2.5,0,4.3,1.3,4.3,3.2C228.3,135.9,226.5,137.2,224,137.2z M220.9,138.4h11.7v5.8h-2.5v-3.8h-9.2V138.4z M224,135.3
		c1.1,0,1.9-0.4,1.9-1.3c0-0.9-0.8-1.3-1.9-1.3c-1.1,0-1.9,0.4-1.9,1.3C222.1,134.9,222.8,135.3,224,135.3z M234.9,133.3h-2.3v4.4
		h-2.5v-11h2.5v4.5h2.3V133.3z"/>
	<path class="st1" d="M241.7,138.6c1.7-0.1,3.4-0.2,5-0.4l0.1,1.8c-3.6,0.6-7.5,0.7-10.5,0.7l-0.2-2.1c1,0,2,0,3.1,0v-5.2h2.5V138.6
		z M243.1,136.4c0.4-2.5,0.5-4.4,0.5-5.9H237v-2h9v1.4c0,1.7,0,3.8-0.5,6.7L243.1,136.4z M252.4,135.8H250v8.4h-2.5v-17.5h2.5v7h2.4
		V135.8z"/>
	<path class="st1" d="M265.1,138.8c1.4-0.1,2.8-0.2,4.1-0.4l0.2,1.8c-3.8,0.8-7.9,0.8-10.9,0.8l-0.3-2c1.3,0,2.8,0,4.4-0.1v-2.7h2.5
		V138.8z M258.5,134.8c2.6-0.7,3.8-2.3,4-4.1h-3.5v-2h3.5v-1.9h2.5v1.9h3.6v2h-3.5c0.2,1.7,1.4,3.2,4,3.9l-1.1,1.9
		c-2-0.5-3.4-1.6-4.2-3.1c-0.8,1.5-2.2,2.7-4.2,3.2L258.5,134.8z M272.7,126.7v17.6h-2.5v-17.6H272.7z"/>
	<path class="st1" d="M284.5,127.9c0,4.7-2.9,8-8.1,9.4l-1-2c3.8-1,6-3,6.3-5.4h-5.5v-2H284.5z M289.5,140.6c0,2.2-2.3,3.6-5.9,3.6
		c-3.5,0-5.9-1.4-5.9-3.6c0-2.2,2.3-3.6,5.9-3.6C287.2,137.1,289.5,138.5,289.5,140.6z M287.1,140.6c0-1.1-1.3-1.6-3.4-1.6
		s-3.4,0.6-3.4,1.6s1.3,1.6,3.4,1.6S287.1,141.7,287.1,140.6z M291.7,130.8v2.1h-2.3v4h-2.5v-10.1h2.5v4.1H291.7z"/>
	<path class="st1" d="M299.5,131.4c0,2.7,1.4,5.8,4.3,7.1l-1.4,2c-1.9-0.9-3.3-2.6-4.1-4.7c-0.8,2.3-2.2,4.2-4.2,5.1l-1.4-2
		c2.9-1.3,4.3-4.6,4.3-7.5v-1h-3.6v-2.1h9.6v2.1h-3.5V131.4z M309.3,135.5h-2.5v8.8h-2.5v-17.5h2.5v6.7h2.5V135.5z"/>
	<path class="st1" d="M326.4,133.5v2h-15.8v-2H326.4z M314.8,142.1h10v1.9h-12.5v-4.7h9.6v-1h-9.6v-1.9h12.1v4.6h-9.6V142.1z
		 M324.5,132.6h-12v-5.5h11.9v2H315v1.5h9.5V132.6z"/>
	<path class="st1" d="M337.7,134.2c0,3.9-2,6.3-4.6,6.3c-2.6,0-4.6-2.4-4.6-6.3c0-3.8,2-6.2,4.6-6.2
		C335.7,127.9,337.7,130.3,337.7,134.2z M330.9,134.2c0,2.6,0.9,4,2.2,4c1.3,0,2.2-1.4,2.2-4c0-2.6-0.9-4-2.2-4
		C331.8,130.2,330.9,131.6,330.9,134.2z M342.5,126.7v17.6H340v-17.6H342.5z"/>
	<path class="st1" d="M365.6,140.2v2h-15.8v-2h6.6v-3.6h-5V128h12.4v8.6h-5v3.6H365.6z M353.9,134.6h7.5V130h-7.5V134.6z"/>
	<path class="st1" d="M372.3,136.7c-2.7,0-4.8-1.9-4.8-4.4c0-2.6,2.1-4.4,4.8-4.4s4.7,1.9,4.7,4.4C377,134.8,375,136.7,372.3,136.7z
		 M372.3,134.5c1.3,0,2.3-0.9,2.3-2.3c0-1.4-1-2.3-2.3-2.3c-1.3,0-2.3,0.8-2.3,2.3C370,133.7,371,134.5,372.3,134.5z M382.2,141.9v2
		h-12.1v-5.9h2.5v3.9H382.2z M381.8,139.3h-2.5v-12.6h2.5V139.3z"/>
	<path class="st1" d="M397.5,130.4H389v-1.9h3v-1.6h2.5v1.6h3V130.4z M393.3,137.1c-2.2,0-3.8-1.3-3.8-3.1s1.6-3,3.8-3
		c2.2,0,3.8,1.2,3.8,3S395.5,137.1,393.3,137.1z M393.3,135.3c0.9,0,1.5-0.5,1.5-1.3c0-0.8-0.6-1.3-1.5-1.3c-0.9,0-1.6,0.4-1.6,1.3
		C391.7,134.9,392.3,135.3,393.3,135.3z M404.1,141c0,2-2.3,3.2-6,3.2s-6-1.1-6-3.2c0-2,2.3-3.2,6-3.2S404.1,139,404.1,141z
		 M401.6,141c0-0.9-1.2-1.3-3.5-1.3s-3.5,0.4-3.5,1.3c0,0.9,1.2,1.3,3.5,1.3S401.6,142,401.6,141z M400.3,137.1H398V127h2.3v4h1.3
		v-4.3h2.4v10.9h-2.4v-4.6h-1.3V137.1z"/>
	<path class="st1" d="M422.4,135.4v2h-15.8v-2h6.6v-1.4h-4.6v-6.7h2.5v1.5h6.8v-1.5h2.5v6.7h-4.7v1.4H422.4z M408.3,138.6h12.2v5.7
		h-2.5v-3.7h-9.7V138.6z M411.1,132h6.8v-1.4h-6.8V132z"/>
	<path class="st1" d="M434.3,130.5H424v-2h3.9v-1.9h2.5v1.9h3.9L434.3,130.5z M429.2,137.9c-2.5,0-4.3-1.4-4.3-3.4
		c0-2,1.8-3.4,4.3-3.4s4.3,1.4,4.3,3.4C433.5,136.5,431.7,137.9,429.2,137.9z M429,141.9h9.4v2h-11.9v-5.1h2.5V141.9z M429.2,136
		c1.1,0,1.9-0.5,1.9-1.5c0-0.9-0.8-1.5-1.9-1.5c-1.1,0-1.9,0.5-1.9,1.5C427.3,135.5,428.1,136,429.2,136z M440.1,132.1v2.1h-2.3v5.7
		h-2.5v-13.1h2.5v5.3H440.1z"/>
	<path class="st1" d="M454.3,130.4h-8.5v-1.9h3v-1.6h2.5v1.6h3V130.4z M450,137.1c-2.2,0-3.8-1.3-3.8-3.1s1.6-3,3.8-3
		c2.2,0,3.8,1.2,3.8,3S452.2,137.1,450,137.1z M450,135.3c0.9,0,1.5-0.5,1.5-1.3c0-0.8-0.6-1.3-1.5-1.3c-0.9,0-1.6,0.4-1.6,1.3
		C448.5,134.9,449.1,135.3,450,135.3z M460.8,141c0,2-2.3,3.2-6,3.2s-6-1.1-6-3.2c0-2,2.3-3.2,6-3.2S460.8,139,460.8,141z
		 M458.3,141c0-0.9-1.2-1.3-3.5-1.3s-3.5,0.4-3.5,1.3c0,0.9,1.2,1.3,3.5,1.3S458.3,142,458.3,141z M457.1,137.1h-2.3V127h2.3v4h1.3
		v-4.3h2.4v10.9h-2.4v-4.6h-1.3V137.1z"/>
	<path class="st1" d="M469.7,130.6c0,3.2,1.2,6.3,4,7.7l-1.5,2c-1.8-0.9-3.1-2.6-3.8-4.7c-0.8,2.2-2.1,4.1-4,5l-1.5-2
		c2.9-1.4,4.3-4.7,4.3-8v-2.5h2.5V130.6z M479.5,135.5H477v8.7h-2.5v-17.5h2.5v6.7h2.5V135.5z"/>
	<path class="st1" d="M491.6,135.9c-2.5,0.4-4.7,0.5-8.3,0.5h-1.5v-8.6h8.4v2h-5.9v1.3h5.4v1.9h-5.4v1.4c3,0,4.9-0.1,7.1-0.4
		L491.6,135.9z M483.7,137.8h11.6v6.2h-11.6V137.8z M486.1,142h6.7v-2.3h-6.7V142z M495.3,126.7v10.4h-2.5v-10.4H495.3z"/>
	<path class="st1" d="M508,131.6c0,2.4-2,4.1-4.7,4.1s-4.8-1.7-4.8-4.1c0-2.4,2.1-4.1,4.8-4.1S508,129.2,508,131.6z M501,131.6
		c0,1.3,1,2.1,2.3,2.1s2.3-0.8,2.3-2.1c0-1.3-1-2.1-2.3-2.1S501,130.3,501,131.6z M503.7,136.9v1.6h6.6v-1.6h2.5v7.1h-11.6v-7.1
		H503.7z M503.7,142h6.6v-1.6h-6.6V142z M512.8,126.7v9.4h-2.5v-9.4H512.8z"/>
	<path class="st1" d="M519.1,137.8c2.3-0.1,4.8-0.2,7.4-0.8l0.3,2.1c-3,0.6-5.9,0.8-8.5,0.8h-1.6v-11.5h2.5V137.8z M530.4,126.7
		v17.5h-2.5v-17.5H530.4z"/>
	<path class="st1" d="M536.4,138c2.5,0,4.6-0.2,6.8-0.6l0.2,2.1c-2.6,0.5-5,0.6-8.1,0.6h-1.5v-11.7h8.2v2h-5.7V138z M549.5,135.2
		h-2.5v9h-2.5v-17.5h2.5v6.5h2.5V135.2z"/>
	<path class="st1" d="M553.6,135.6c-0.6,0-1.1,0.4-1.6,1.3l-1.5-1.1c1-1.6,2.1-2.1,3.1-2.1c1.7,0,2.5,1.7,3.7,1.7
		c0.6,0,1.1-0.4,1.6-1.2l1.5,1.1c-1,1.5-2.1,2.1-3.1,2.1C555.6,137.3,554.8,135.6,553.6,135.6z"/>
</g>
<g class="st0">
	<path class="st1" d="M43.9,172.2l1.3-1.8c0.8,0.8,1.9,1.4,3.1,1.4c1.4,0,2.4-0.7,2.4-2c0-1.4-0.8-2.2-3.9-2.2v-2
		c2.6,0,3.4-0.9,3.4-2.1c0-1.1-0.7-1.7-1.9-1.8c-1,0-1.8,0.5-2.7,1.3l-1.4-1.7c1.2-1.1,2.6-1.7,4.2-1.7c2.7,0,4.6,1.3,4.6,3.7
		c0,1.5-0.9,2.6-2.4,3.2v0.1c1.6,0.4,2.8,1.6,2.8,3.5c0,2.6-2.3,4.1-4.9,4.1C46.3,174.2,44.8,173.3,43.9,172.2z"/>
	<path class="st1" d="M63.3,162.9c-0.5-0.6-1.3-1-2.2-1c-1.6,0-2.9,1.2-3.1,4.7c0.8-0.9,2-1.5,2.9-1.5c2.4,0,4,1.4,4,4.4
		c0,2.9-2,4.7-4.4,4.7c-2.7,0-5.1-2.1-5.1-7.1c0-5.2,2.6-7.5,5.4-7.5c1.7,0,3,0.7,3.8,1.6L63.3,162.9z M62.4,169.5
		c0-1.7-0.8-2.5-2-2.5c-0.8,0-1.6,0.4-2.3,1.5c0.3,2.6,1.2,3.6,2.4,3.6C61.5,172.1,62.4,171.2,62.4,169.5z"/>
	<path class="st1" d="M73.5,170.5c1.4-0.1,2.8-0.2,4.2-0.4l0.2,1.8c-3.8,0.7-7.9,0.7-11,0.7l-0.3-2c1.3,0,2.8,0,4.4,0v-1.5
		c-1.9-0.4-3.1-1.5-3.1-3.2c0-2,1.8-3.3,4.4-3.3c2.5,0,4.3,1.3,4.3,3.3c0,1.6-1.2,2.8-3.1,3.2V170.5z M77.5,162H67v-2h4v-1.9h2.5
		v1.9h4V162z M72.3,167.3c1.2,0,2-0.5,2-1.4c0-0.9-0.8-1.4-2-1.4c-1.2,0-2,0.5-2,1.4C70.3,166.8,71.1,167.3,72.3,167.3z M81.2,158.1
		v17.5h-2.5v-17.5H81.2z"/>
	<path class="st1" d="M104.2,165.3v2H88.4v-2H95v-1.6h2.5v1.6H104.2z M89,162.7c3.2-0.2,4.9-1.2,5.4-2.3h-4.6v-1.9h12.9v1.9h-4.6
		c0.5,1.1,2.2,2.1,5.4,2.3l-0.8,1.9c-3.3-0.3-5.5-1.4-6.4-3c-0.9,1.6-3.1,2.8-6.4,3L89,162.7z M92.7,173.6h10v1.9H90.2v-4.6h9.6v-1
		h-9.6v-1.8h12.1v4.5h-9.6V173.6z"/>
	<path class="st1" d="M120.5,158.1v9.4H118v-3.5h-2.8c-0.5,1.9-2.3,3.2-4.5,3.2c-2.6,0-4.6-1.7-4.6-4.2s2-4.2,4.6-4.2
		c2.2,0,4,1.3,4.5,3.1h2.8v-3.9H120.5z M112.9,163c0-1.3-0.9-2.1-2.2-2.1c-1.3,0-2.2,0.8-2.2,2.1c0,1.3,0.9,2.1,2.2,2.1
		C112,165,112.9,164.3,112.9,163z M118,168.2h2.5v7.1h-11.6v-7.1h2.5v1.7h6.6V168.2z M118,171.8h-6.6v1.6h6.6V171.8z"/>
	<path class="st1" d="M132.6,168.6c-1.9-0.6-3.2-1.9-4-3.5c-0.8,1.7-2.1,3.1-4.2,3.8l-1.3-2c2.9-0.9,4.1-3.2,4.1-5.4v-0.2h-3.4v-2
		h9.4v2h-3.4v0.2c0,2.1,1.2,4.2,4,5.1L132.6,168.6z M138.3,173.3v2h-11.9v-5.5h2.5v3.5H138.3z M135.4,162.6v-4.5h2.5v12.8h-2.5v-6.2
		h-2.7v-2H135.4z"/>
	<path class="st1" d="M147.6,162c0,3.2,1.4,6.4,4.4,7.7l-1.4,2c-2-0.9-3.4-2.6-4.1-4.8c-0.8,2.3-2.2,4.2-4.3,5.2l-1.5-2.1
		c3.1-1.3,4.5-4.7,4.5-8.1v-2.5h2.5V162z M155.3,158v17.6h-2.5V158H155.3z"/>
	<path class="st1" d="M158.4,170c3.1,0,7.4,0,11.1-0.6l0.2,1.8c-3.8,0.8-7.9,0.8-10.9,0.8L158.4,170z M168.7,163.5
		c0,2.5-2.1,4.3-4.8,4.3c-2.7,0-4.8-1.8-4.8-4.3c0-2.5,2.1-4.3,4.8-4.3C166.6,159.2,168.7,161,168.7,163.5z M161.5,163.5
		c0,1.4,1,2.2,2.4,2.2c1.3,0,2.4-0.8,2.4-2.2c0-1.4-1-2.2-2.4-2.2C162.6,161.4,161.5,162.2,161.5,163.5z M172.9,158v17.6h-2.5V158
		H172.9z"/>
	<path class="st1" d="M183,169.5c1.6,0,3.1-0.1,4.8-0.4l0.2,2c-2.1,0.4-4,0.5-6.2,0.5h-1.2v-11.5h6.5v2h-4V169.5z M195.1,158v17.5
		h-2.4v-8.8h-1.6v7.9h-2.3v-16.4h2.3v6.4h1.6V158H195.1z"/>
	<path class="st1" d="M213.4,171.6v2h-15.9v-2h3.9v-3.3h-2.6v-2h2.3v-4.9h-2.4v-2h13.3v2h-2.4v4.9h2.3v2h-2.6v3.3H213.4z
		 M203.6,166.4h3.6v-4.9h-3.6V166.4z M203.9,171.6h3v-3.3h-3V171.6z"/>
	<path class="st1" d="M224.4,168c-1.9-0.6-3.2-1.9-4-3.4c-0.8,1.7-2.1,3.1-4.2,3.8l-1.3-2c2.8-1,4.1-3.2,4.1-5.3h-3.4v-2h9.4v2h-3.4
		c0,2,1.3,4.1,4,5L224.4,168z M217.7,169.2h11.9v6.3h-2.5v-4.3h-9.4V169.2z M229.7,158.1v10.4h-2.5v-4.2h-2.6v-2h2.6v-4.2H229.7z"/>
	<path class="st1" d="M237.5,168c-2.7,0-4.8-1.9-4.8-4.4c0-2.6,2.1-4.4,4.8-4.4s4.7,1.9,4.7,4.4C242.3,166.2,240.2,168,237.5,168z
		 M237.5,165.9c1.3,0,2.3-0.9,2.3-2.3c0-1.4-1-2.3-2.3-2.3c-1.3,0-2.3,0.8-2.3,2.3C235.2,165,236.2,165.9,237.5,165.9z M247.5,173.3
		v2h-12.1v-5.9h2.5v3.9H247.5z M247,170.6h-2.5v-12.6h2.5V170.6z"/>
	<path class="st1" d="M262.7,161.8h-8.5v-1.9h3v-1.6h2.5v1.6h3V161.8z M258.5,168.4c-2.2,0-3.8-1.3-3.8-3.1s1.6-3,3.8-3
		c2.2,0,3.8,1.2,3.8,3S260.7,168.4,258.5,168.4z M258.5,166.7c0.9,0,1.5-0.5,1.5-1.3c0-0.8-0.6-1.3-1.5-1.3c-0.9,0-1.6,0.4-1.6,1.3
		C256.9,166.2,257.6,166.7,258.5,166.7z M269.3,172.4c0,2-2.3,3.2-6,3.2c-3.8,0-6-1.1-6-3.2c0-2,2.3-3.2,6-3.2
		C267.1,169.2,269.3,170.3,269.3,172.4z M266.8,172.4c0-0.9-1.2-1.3-3.5-1.3c-2.3,0-3.5,0.4-3.5,1.3c0,0.9,1.2,1.3,3.5,1.3
		C265.6,173.7,266.8,173.3,266.8,172.4z M265.5,168.4h-2.3v-10.1h2.3v4h1.3v-4.3h2.4V169h-2.4v-4.6h-1.3V168.4z"/>
	<path class="st1" d="M278.2,162c0,3.2,1.2,6.3,4,7.7l-1.5,2c-1.8-0.9-3.1-2.6-3.8-4.7c-0.8,2.2-2.1,4.1-4,5l-1.5-2
		c2.9-1.4,4.3-4.7,4.3-8v-2.5h2.5V162z M288,166.9h-2.5v8.7H283v-17.5h2.5v6.7h2.5V166.9z"/>
	<path class="st1" d="M305.1,164.8v2h-15.8v-2H305.1z M293.6,173.5h10v1.9h-12.5v-4.7h9.6v-1h-9.6v-1.9h12.1v4.6h-9.6V173.5z
		 M303.2,163.9h-12v-5.5h11.9v2h-9.4v1.5h9.5V163.9z"/>
	<path class="st1" d="M322.5,165.1v2h-15.8v-2H322.5z M308.3,161.3c0-1.9,2.3-3,6.3-3c4,0,6.3,1.1,6.3,3c0,1.9-2.3,3-6.3,3
		C310.7,164.3,308.3,163.2,308.3,161.3z M311.1,173.5h10v1.9h-12.5v-4.6h9.6v-0.9h-9.6V168h12.1v4.5h-9.6V173.5z M310.9,161.3
		c0,0.8,1.2,1.2,3.7,1.2c2.5,0,3.7-0.3,3.7-1.2c0-0.8-1.2-1.1-3.7-1.1C312.1,160.1,310.9,160.5,310.9,161.3z"/>
	<path class="st1" d="M337.4,166.7H329v-7.4h8.3V166.7z M333.4,173.6h9.3v1.7h-11.8v-7.2h11.5v1.7h-9v1h8.8v1.7h-8.8V173.6z
		 M334.9,161.2h-3.4v3.5h3.4V161.2z M344.6,161.7v2.1h-2.3v3.6h-2.5v-9.3h2.5v3.6H344.6z"/>
	<path class="st1" d="M355.3,165.5c0,3.9-2,6.3-4.6,6.3c-2.7,0-4.6-2.4-4.6-6.3c0-3.8,1.9-6.2,4.6-6.2
		C353.3,159.3,355.3,161.7,355.3,165.5z M352.9,165.5c0-2.6-0.9-4-2.2-4c-1.3,0-2.2,1.4-2.2,4c0,2.6,0.9,4,2.2,4
		C352,169.5,352.9,168.1,352.9,165.5z M362.3,166.7h-2.5v8.8h-2.5v-17.5h2.5v6.6h2.5V166.7z"/>
	<path class="st1" d="M377.4,168.5c-1.9-0.6-3.3-1.9-4.1-3.4c-0.8,1.7-2.2,3.1-4.2,3.7l-1.3-2c2.9-0.9,4.2-3.2,4.2-5.4v-0.2h-3.5v-2
		h9.5v2h-3.5v0.2c0,2.1,1.3,4.2,4.1,5.1L377.4,168.5z M382.8,173.3v2h-12.1v-5.7h2.5v3.7H382.8z M382.3,170.7h-2.5v-12.7h2.5V170.7z
		"/>
	<path class="st1" d="M393.7,161.8h-8.5v-1.9h3v-1.6h2.5v1.6h3V161.8z M389.5,168.4c-2.2,0-3.8-1.3-3.8-3.1s1.6-3,3.8-3
		c2.2,0,3.8,1.2,3.8,3S391.7,168.4,389.5,168.4z M389.5,166.7c0.9,0,1.5-0.5,1.5-1.3c0-0.8-0.6-1.3-1.5-1.3c-0.9,0-1.6,0.4-1.6,1.3
		C387.9,166.2,388.6,166.7,389.5,166.7z M400.3,172.4c0,2-2.3,3.2-6,3.2s-6-1.1-6-3.2c0-2,2.3-3.2,6-3.2S400.3,170.3,400.3,172.4z
		 M397.8,172.4c0-0.9-1.2-1.3-3.5-1.3s-3.5,0.4-3.5,1.3c0,0.9,1.2,1.3,3.5,1.3S397.8,173.3,397.8,172.4z M396.5,168.4h-2.3v-10.1
		h2.3v4h1.3v-4.3h2.4V169h-2.4v-4.6h-1.3V168.4z"/>
	<path class="st1" d="M409.1,160.6h3.8v2h-10.2v-2h3.9v-2.3h2.5V160.6z M412.2,167.8c0,2.5-1.9,4.2-4.4,4.2c-2.5,0-4.4-1.7-4.4-4.2
		c0-2.4,1.9-4.2,4.4-4.2C410.3,163.6,412.2,165.4,412.2,167.8z M409.9,167.8c0-1.3-0.9-2.1-2-2.1s-2.1,0.8-2.1,2.1s0.9,2.1,2.1,2.1
		S409.9,169.1,409.9,167.8z M419,167h-2.5v8.6H414v-17.5h2.5v6.8h2.5V167z"/>
	<path class="st1" d="M436.1,171.4v2h-15.8v-2h5.6v-6h2.5v6H436.1z M431.4,169.3c0.7-3.3,0.7-5.7,0.7-7.8h-10.2v-2h12.7v1.7
		c0,2.2,0,4.7-0.7,8.4L431.4,169.3z"/>
	<path class="st1" d="M442.3,163.1c0-2.5,2.1-4.2,4.8-4.2c2.7,0,4.8,1.7,4.8,4.2c0,2.5-2,4.2-4.8,4.2
		C444.3,167.3,442.3,165.6,442.3,163.1z M454.8,169.3c0,1.8,1,3.5,3.3,4.2l-1.2,1.8c-1.7-0.6-2.7-1.6-3.3-2.9
		c-0.6,1.3-1.6,2.5-3.2,3.1c-1.6-0.6-2.6-1.7-3.2-3.1c-0.6,1.3-1.7,2.3-3.2,2.9l-1.2-1.8c2.3-0.8,3.3-2.5,3.3-4.2v-0.6h2.4v0.6
		c0,1.4,0.6,2.8,1.9,3.8c1.4-1,2-2.5,2-3.8v-0.6h2.5V169.3z M444.7,163.1c0,1.3,1,2.1,2.3,2.1c1.3,0,2.3-0.8,2.3-2.1s-1-2.1-2.3-2.1
		C445.7,161,444.7,161.8,444.7,163.1z M456.6,168H454v-9.9h2.5V168z"/>
	<path class="st1" d="M475.3,165.7v2h-15.8v-2H475.3z M473.7,164.9c-3-0.4-5.1-1.6-6.2-3.3c-1.1,1.7-3.3,2.9-6.2,3.3l-0.9-1.9
		c3.9-0.5,5.8-2.4,5.8-4.2v-0.5h2.6v0.5c0,1.8,1.9,3.7,5.8,4.2L473.7,164.9z M470.9,168.5h2.5v6.8h-12v-6.8h2.5v1.5h7V168.5z
		 M470.9,171.9h-7v1.5h7V171.9z"/>
	<path class="st1" d="M480.4,169.1c2.3-0.1,4.8-0.2,7.4-0.8l0.3,2.1c-3,0.6-5.9,0.8-8.5,0.8h-1.6v-11.5h2.5V169.1z M491.6,158v17.5
		h-2.5V158H491.6z"/>
	<path class="st1" d="M497.7,169.3c2.5,0,4.6-0.2,6.8-0.6l0.2,2.1c-2.6,0.5-5,0.6-8.1,0.6h-1.5v-11.7h8.2v2h-5.7V169.3z
		 M510.7,166.6h-2.5v9h-2.5v-17.5h2.5v6.5h2.5V166.6z"/>
	<path class="st1" d="M512.5,172.4c0-1,0.7-1.8,1.7-1.8c1,0,1.7,0.8,1.7,1.8c0,1-0.7,1.8-1.7,1.8
		C513.2,174.2,512.5,173.4,512.5,172.4z"/>
</g>
<g class="st0">
	<path class="st1" d="M80.9,190.3v10.4h-2.5v-2.2h-3.8c-0.8,0.9-2.1,1.4-3.5,1.4c-2.6,0-4.6-1.8-4.6-4.3c0-2.5,2-4.3,4.6-4.3
		c1.4,0,2.7,0.6,3.5,1.4h3.8v-2.4H80.9z M73.3,195.5c0-1.4-0.9-2.2-2.2-2.2c-1.3,0-2.2,0.8-2.2,2.2c0,1.4,0.9,2.2,2.2,2.2
		C72.4,197.7,73.3,196.9,73.3,195.5z M69,201.5h11.9v6.4h-2.5v-4.4H69V201.5z M78.4,196.5v-1.8h-2.8c0.1,0.3,0.1,0.6,0.1,0.9
		c0,0.3,0,0.6-0.1,0.9H78.4z"/>
	<path class="st1" d="M86.7,201.8c1.6,0,3.1-0.1,4.8-0.4l0.2,2c-2.1,0.4-4,0.5-6.2,0.5h-1.2v-11.5h6.5v2h-4V201.8z M98.8,190.3v17.5
		h-2.4V199h-1.6v7.9h-2.3v-16.4h2.3v6.4h1.6v-6.7H98.8z"/>
	<path class="st1" d="M112.6,202.4c1.4-0.1,2.8-0.2,4.1-0.4l0.2,1.8c-3.8,0.8-7.9,0.8-10.9,0.8l-0.3-2c1.3,0,2.8,0,4.4-0.1v-2.7h2.5
		V202.4z M106,198.4c2.6-0.7,3.8-2.3,4-4.1h-3.5v-2h3.5v-1.9h2.5v1.9h3.6v2h-3.5c0.2,1.7,1.4,3.2,4,3.9l-1.1,1.9
		c-2-0.5-3.4-1.6-4.2-3.1c-0.8,1.5-2.2,2.7-4.2,3.2L106,198.4z M120.1,190.3v17.6h-2.5v-17.6H120.1z"/>
	<path class="st1" d="M138.9,203.7v2H123v-2h5.6v-6h2.5v6H138.9z M134.1,201.6c0.7-3.3,0.7-5.7,0.7-7.8h-10.2v-2h12.7v1.7
		c0,2.2,0,4.7-0.7,8.4L134.1,201.6z"/>
	<path class="st1" d="M140.6,202.3c3.1,0,7.4,0,11.1-0.6l0.2,1.8c-3.8,0.8-7.9,0.8-10.9,0.8L140.6,202.3z M151,195.8
		c0,2.5-2.1,4.3-4.8,4.3c-2.7,0-4.8-1.8-4.8-4.3c0-2.5,2.1-4.3,4.8-4.3C148.9,191.5,151,193.3,151,195.8z M143.8,195.8
		c0,1.4,1,2.2,2.4,2.2c1.3,0,2.4-0.8,2.4-2.2c0-1.4-1-2.2-2.4-2.2C144.8,193.6,143.8,194.4,143.8,195.8z M155.1,190.3v17.6h-2.5
		v-17.6H155.1z"/>
	<path class="st1" d="M170.7,194h-8.5v-1.9h3v-1.6h2.5v1.6h3V194z M166.5,200.7c-2.2,0-3.8-1.3-3.8-3.1s1.6-3,3.8-3
		c2.2,0,3.8,1.2,3.8,3S168.7,200.7,166.5,200.7z M166.5,198.9c0.9,0,1.5-0.5,1.5-1.3c0-0.8-0.6-1.3-1.5-1.3c-0.9,0-1.6,0.4-1.6,1.3
		C164.9,198.5,165.6,198.9,166.5,198.9z M177.3,204.6c0,2-2.3,3.2-6,3.2c-3.8,0-6-1.1-6-3.2c0-2,2.3-3.2,6-3.2
		C175,201.4,177.3,202.6,177.3,204.6z M174.8,204.6c0-0.9-1.2-1.3-3.5-1.3c-2.3,0-3.5,0.4-3.5,1.3c0,0.9,1.2,1.3,3.5,1.3
		C173.6,205.9,174.8,205.5,174.8,204.6z M173.5,200.7h-2.3v-10.1h2.3v4h1.3v-4.3h2.4v10.9h-2.4v-4.6h-1.3V200.7z"/>
	<path class="st1" d="M186.2,194.2c0,3.2,1.2,6.3,4,7.7l-1.5,2c-1.8-0.9-3.1-2.6-3.8-4.7c-0.8,2.2-2.1,4.1-4,5l-1.5-2
		c2.9-1.4,4.3-4.7,4.3-8v-2.5h2.5V194.2z M196,199.1h-2.5v8.7H191v-17.5h2.5v6.7h2.5V199.1z"/>
	<path class="st1" d="M203.7,202.2c1.4-0.1,2.7-0.2,4-0.3l0.2,1.8c-3.6,0.7-7.5,0.7-10.5,0.7l-0.3-2c1.2,0,2.7,0,4.1,0v-2.5
		c-2.1-0.4-3.5-2.1-3.5-4.2c0-2.5,2.1-4.3,4.7-4.3c2.7,0,4.8,1.8,4.8,4.3c0,2.1-1.4,3.7-3.5,4.2V202.2z M202.4,197.8
		c1.3,0,2.3-0.8,2.3-2.2c0-1.4-1-2.2-2.3-2.2c-1.3,0-2.3,0.8-2.3,2.2C200.1,197,201.1,197.8,202.4,197.8z M213.4,199.2h-2.3v8.5
		h-2.5v-17.5h2.5v6.9h2.3V199.2z"/>
	<path class="st1" d="M228.7,197.7c0,3.9-2,6.3-4.6,6.3s-4.6-2.4-4.6-6.3c0-3.8,2-6.2,4.6-6.2S228.7,193.9,228.7,197.7z M222,197.7
		c0,2.6,0.9,4,2.2,4c1.3,0,2.2-1.4,2.2-4c0-2.6-0.9-4-2.2-4C222.8,193.8,222,195.2,222,197.7z M233.5,190.3v17.6H231v-17.6H233.5z"
		/>
	<path class="st1" d="M244.1,200.5h-6.9v-8.9h2.4v2.7h2.3v-2.7h2.3v3.5h1.5v-4.5h2.3V203h-2.3v-5.9h-1.5V200.5z M241.8,196.2h-2.3
		v2.3h2.3V196.2z M251.9,205.5v2h-12.2v-5.7h2.5v3.7H251.9z M251.4,203.5h-2.4v-13.2h2.4V203.5z"/>
	<path class="st1" d="M269.9,203.8v2H254v-2H269.9z M268.2,201.3h-12.3v-9.7H268v2h-9.6v1.8h9.2v1.9h-9.2v2h9.7V201.3z"/>
	<path class="st1" d="M287.3,198.2v1.8h-15.8v-1.8H287.3z M275.8,206h10.1v1.7h-12.6v-4.2h9.7v-0.9h-9.7v-1.7h12.2v4.2h-9.7V206z
		 M282.9,192.3h-9.5v-1.7h12v4.1h-9.5v0.9h9.8v1.7h-12.2v-4.2h9.5V192.3z"/>
	<path class="st1" d="M302.6,192.1c0,5.4-1.8,9.7-8,12.7l-1.3-2c4.5-2.1,6.4-4.9,6.8-8.8h-5.8v-2H302.6z M307.9,190.3v17.5h-2.5
		v-17.5H307.9z"/>
	<path class="st1" d="M322,201.1c-3.7,0.6-7.7,0.7-10.8,0.7l-0.3-1.9c1.3,0,2.8,0,4.4,0V199c-1.9-0.3-3.1-1.2-3.1-2.5
		c0-1.6,1.7-2.6,4.4-2.6c2.6,0,4.3,1,4.3,2.6c0,1.3-1.2,2.3-3.1,2.5v0.8c1.4-0.1,2.7-0.2,4-0.3L322,201.1z M321.6,193.4h-10.3v-1.8
		h3.9v-1.4h2.5v1.4h3.9V193.4z M313.3,202.8h12.1v5h-2.5v-3h-9.6V202.8z M316.5,197.4c1.2,0,1.9-0.4,1.9-1c0-0.6-0.7-1-1.9-1
		c-1.2,0-2,0.3-2,1C314.5,197,315.3,197.4,316.5,197.4z M325.3,190.3v11.8h-2.5v-11.8H325.3z"/>
	<path class="st1" d="M334.5,192.9h3.8v2h-10.2v-2h3.9v-2.3h2.5V192.9z M337.7,200c0,2.5-1.9,4.2-4.4,4.2c-2.5,0-4.4-1.7-4.4-4.2
		c0-2.4,1.9-4.2,4.4-4.2C335.8,195.9,337.7,197.6,337.7,200z M335.3,200c0-1.3-0.9-2.1-2-2.1c-1.2,0-2.1,0.8-2.1,2.1
		s0.9,2.1,2.1,2.1C334.5,202.2,335.3,201.4,335.3,200z M344.5,199.2H342v8.6h-2.5v-17.5h2.5v6.8h2.5V199.2z"/>
	<path class="st1" d="M361.6,198.8v2h-15.8v-2H361.6z M350,205.4h9.9v2h-12.4v-5.2h2.5V205.4z M359.8,197h-12.1v-6.1h2.5v4.1h9.6
		V197z"/>
	<path class="st1" d="M376.5,191.6c0,4.8-2.5,7.9-7.8,9.6l-1-2c3.9-1.2,5.7-3.1,6.1-5.6h-5.2v-2H376.5z M377.5,201.2
		c0,2,1.7,4,5.5,4.6l-1,2c-2.7-0.5-4.7-1.7-5.7-3.4c-1,1.7-3,2.9-5.7,3.4l-1-2c3.7-0.6,5.5-2.6,5.5-4.6v-0.6h2.5V201.2z M379.6,197
		h-3v-2h3v-4.6h2.5v11.6h-2.5V197z"/>
	<path class="st1" d="M394.7,197.7c0,3.9-2,6.3-4.6,6.3s-4.6-2.4-4.6-6.3c0-3.8,2-6.2,4.6-6.2S394.7,193.9,394.7,197.7z
		 M387.9,197.7c0,2.6,0.9,4,2.2,4s2.2-1.4,2.2-4c0-2.6-0.9-4-2.2-4S387.9,195.2,387.9,197.7z M399.5,190.3v17.6H397v-17.6H399.5z"/>
	<path class="st1" d="M422.6,198.8v2h-15.8v-2h6.6v-1.6h-4.7V191h11.9v6.2h-4.7v1.6H422.6z M408.5,202.1h12.2v5.8h-2.5v-3.8h-9.7
		V202.1z M411.2,195.2h6.9v-2.3h-6.9V195.2z"/>
	<path class="st1" d="M440.1,203.9v2h-15.9v-2h3.9v-3.3h-2.6v-2h2.3v-4.9h-2.4v-2h13.3v2h-2.4v4.9h2.3v2h-2.6v3.3H440.1z
		 M430.4,198.6h3.6v-4.9h-3.6V198.6z M430.7,203.9h3v-3.3h-3V203.9z"/>
	<path class="st1" d="M451.5,195.1c0,2.4-2,4.1-4.7,4.1s-4.8-1.7-4.8-4.1c0-2.4,2.1-4.1,4.8-4.1S451.5,192.8,451.5,195.1z
		 M444.4,195.1c0,1.3,1,2.1,2.3,2.1s2.3-0.8,2.3-2.1c0-1.3-1-2.1-2.3-2.1S444.4,193.9,444.4,195.1z M447.1,200.5v1.6h6.6v-1.6h2.5
		v7.1h-11.6v-7.1H447.1z M447.1,205.6h6.6V204h-6.6V205.6z M456.3,190.3v9.4h-2.5v-9.4H456.3z"/>
	<path class="st1" d="M462.6,201.3c2.3-0.1,4.8-0.2,7.4-0.8l0.3,2.1c-3,0.6-5.9,0.8-8.5,0.8h-1.6V192h2.5V201.3z M473.8,190.3v17.5
		h-2.5v-17.5H473.8z"/>
	<path class="st1" d="M479.9,201.5c2.5,0,4.6-0.2,6.8-0.6l0.2,2.1c-2.6,0.5-5,0.6-8.1,0.6h-1.5v-11.7h8.2v2h-5.7V201.5z M493,198.8
		h-2.5v9h-2.5v-17.5h2.5v6.5h2.5V198.8z"/>
	<path class="st1" d="M494.7,204.6c0-1,0.7-1.8,1.7-1.8c1,0,1.7,0.8,1.7,1.8c0,1-0.7,1.8-1.7,1.8
		C495.5,206.4,494.7,205.6,494.7,204.6z"/>
</g>
<g class="st0">
	<path class="st1" d="M38.5,231.1c1.1-0.1,2.1-0.1,3-0.3l0.2,1.8c-2.8,0.6-6.3,0.6-8.5,0.6l-0.3-2.1c0.9,0,2,0,3.2,0v-2.6
		c-1.7-0.4-2.9-1.8-2.9-3.7c0-2.3,1.7-3.9,4-3.9c2.4,0,4,1.6,4,3.9c0,1.9-1.2,3.3-2.9,3.7V231.1z M37.3,226.7c1,0,1.8-0.6,1.8-1.8
		c0-1.2-0.7-1.8-1.8-1.8c-1,0-1.7,0.7-1.7,1.8C35.6,226.1,36.3,226.7,37.3,226.7z M48.3,219.5V237h-2.4v-8.5h-1.3v7.7h-2.3v-16.4
		h2.3v6.6h1.3v-7H48.3z"/>
	<path class="st1" d="M53.7,230.7c2.2-0.1,4.6-0.2,7-0.7l0.2,2.1c-2.9,0.6-5.7,0.8-8.2,0.8h-1.5v-11.6h2.5V230.7z M64.3,225.7v3h2.3
		v2.1h-2.3v6.2h-2.5v-17.5h2.5v4.1h2.3v2.1H64.3z"/>
	<path class="st1" d="M74.4,222.1h3.8v2H68v-2h3.9v-2.3h2.5V222.1z M77.6,229.3c0,2.5-1.9,4.2-4.4,4.2c-2.5,0-4.4-1.7-4.4-4.2
		c0-2.4,1.9-4.2,4.4-4.2C75.7,225.1,77.6,226.8,77.6,229.3z M75.2,229.3c0-1.3-0.9-2.1-2-2.1s-2.1,0.8-2.1,2.1s0.9,2.1,2.1,2.1
		S75.2,230.6,75.2,229.3z M84.4,228.4h-2.5v8.6h-2.5v-17.5h2.5v6.8h2.5V228.4z"/>
	<path class="st1" d="M94.6,229.5h-8.2v-8.5h8.2v1.3h3.2v-2.8h2.5v12.7h-2.5v-4.2h-3.2V229.5z M100.6,234.7v2H88.7v-5.6h2.5v3.6
		H100.6z M92.1,222.9h-3.3v4.6h3.3V222.9z M94.6,224.3v1.8h3.2v-1.8H94.6z"/>
	<path class="st1" d="M114,223.9c0,3.1,1.4,6.3,4.3,7.6l-1.4,2c-2-1-3.3-2.8-4.1-5c-0.7,2.4-2.1,4.3-4.1,5.3l-1.5-2
		c2.9-1.4,4.3-4.7,4.3-8v-0.6h-3.6v-2h9.7v2H114V223.9z M122.1,219.5v17.6h-2.5v-9.4h-3.1v-2h3.1v-6.1H122.1z"/>
	<path class="st1" d="M125,232c3.2,0,7.4,0,11.1-0.5l0.2,1.8c-3.9,0.7-7.9,0.7-11,0.7L125,232z M135.8,223.6h-10.5v-2h4v-1.9h2.5
		v1.9h4V223.6z M130.6,224.3c2.5,0,4.3,1.3,4.3,3.3c0,2-1.8,3.3-4.3,3.3c-2.5,0-4.3-1.3-4.3-3.3
		C126.3,225.6,128.1,224.3,130.6,224.3z M130.6,226.2c-1.2,0-1.9,0.5-1.9,1.4c0,0.9,0.8,1.4,1.9,1.4c1.1,0,1.9-0.5,1.9-1.4
		C132.5,226.7,131.7,226.2,130.6,226.2z M139.5,219.5V237h-2.5v-17.5H139.5z"/>
	<path class="st1" d="M158.2,228.1v2h-15.8v-2H158.2z M146.7,234.7h9.9v2h-12.4v-5.2h2.5V234.7z M156.4,226.3h-12.1v-6.1h2.5v4.1
		h9.6V226.3z"/>
	<path class="st1" d="M178.8,219.5v10.4h-2.5v-4.2h-3.2v3.2h-8.2v-8.1h8.2v2.9h3.2v-4.2H178.8z M166.9,230.7h11.9v6.4h-2.5v-4.4
		h-9.4V230.7z M170.7,222.8h-3.3v4.2h3.3V222.8z"/>
	<path class="st1" d="M197.5,228.1v2h-15.8v-2H197.5z M185.9,234.7h9.9v2h-12.4v-5.2h2.5V234.7z M195.7,226.3h-12.1v-6.1h2.5v4.1
		h9.6V226.3z"/>
	<path class="st1" d="M212.4,220.9c0,4.8-2.5,7.9-7.8,9.6l-1-2c3.9-1.2,5.7-3.1,6.1-5.6h-5.2v-2H212.4z M213.4,230.4
		c0,2,1.7,4,5.5,4.6l-1,2c-2.7-0.5-4.7-1.7-5.7-3.4c-1,1.7-3,2.9-5.7,3.4l-1-2c3.7-0.6,5.5-2.6,5.5-4.6v-0.6h2.5V230.4z
		 M215.5,226.2h-3v-2h3v-4.6h2.5v11.6h-2.5V226.2z"/>
	<path class="st1" d="M226.3,231.4c1.7-0.1,3.4-0.2,5-0.4l0.1,1.8c-3.6,0.6-7.5,0.7-10.5,0.7l-0.2-2.1c1,0,2,0,3.1,0v-5.2h2.5V231.4
		z M227.7,229.2c0.4-2.5,0.5-4.4,0.5-5.9h-6.5v-2h9v1.4c0,1.7,0,3.8-0.5,6.7L227.7,229.2z M237,228.7h-2.4v8.4h-2.5v-17.5h2.5v7h2.4
		V228.7z"/>
	<path class="st1" d="M258.5,233v2h-15.8v-2h6.7v-4h-4.9v-8.2h2.5v6.2h9.9v2h-5v4H258.5z"/>
	<path class="st1" d="M276,228.1v2h-15.8v-2H276z M264.5,234.7h9.9v2H262v-5.2h2.5V234.7z M274.3,226.3h-12.1v-6.1h2.5v4.1h9.6
		V226.3z"/>
	<path class="st1" d="M291,220.9c0,4.8-2.5,7.9-7.8,9.6l-1-2c3.9-1.2,5.7-3.1,6.1-5.6h-5.2v-2H291z M292,230.4c0,2,1.7,4,5.5,4.6
		l-1,2c-2.7-0.5-4.7-1.7-5.7-3.4c-1,1.7-3,2.9-5.7,3.4l-1-2c3.7-0.6,5.5-2.6,5.5-4.6v-0.6h2.5V230.4z M294.1,226.2h-3v-2h3v-4.6h2.5
		v11.6h-2.5V226.2z"/>
	<path class="st1" d="M309.1,227c0,3.9-2,6.3-4.6,6.3s-4.6-2.4-4.6-6.3c0-3.8,2-6.2,4.6-6.2S309.1,223.1,309.1,227z M302.3,227
		c0,2.6,0.9,4,2.2,4s2.2-1.4,2.2-4c0-2.6-0.9-4-2.2-4S302.3,224.4,302.3,227z M313.9,219.5v17.6h-2.5v-17.6H313.9z"/>
	<path class="st1" d="M326.8,224.2c0,2.9,0.9,5.9,3.4,7.4l-1.5,1.8c-1.6-0.9-2.5-2.4-3.1-4.3c-0.6,2-1.6,3.7-3.2,4.7l-1.5-1.8
		c2.5-1.6,3.5-4.7,3.5-7.8v-0.9h-2.8v-2h7.8v2h-2.5V224.2z M330.3,219.8h2.3v16.4h-2.3v-8.7h-2.2v-2h2.2V219.8z M336.2,219.5V237
		h-2.4v-17.5H336.2z"/>
	<path class="st1" d="M343.7,228.1c-2.7,0-4.7-1.7-4.7-4c0-2.3,2-4,4.7-4c2.7,0,4.7,1.7,4.7,4C348.3,226.4,346.3,228.1,343.7,228.1z
		 M343.7,226c1.3,0,2.2-0.7,2.2-2c0-1.2-0.9-2-2.2-2s-2.3,0.7-2.3,2C341.4,225.3,342.4,226,343.7,226z M353.7,234.9v2h-12.1V232h9.2
		v-1.1h-9.2V229h11.7v4.8h-9.2v1.1H353.7z M353.2,228.3h-2.5v-8.8h2.5V228.3z"/>
	<path class="st1" d="M366.9,224.3c0,2.7,1.4,5.8,4.3,7.1l-1.4,2c-1.9-0.9-3.3-2.6-4.1-4.7c-0.8,2.3-2.2,4.2-4.2,5.1l-1.4-2
		c2.9-1.3,4.3-4.6,4.3-7.5v-1h-3.6v-2.1h9.6v2.1h-3.5V224.3z M376.7,228.3h-2.5v8.8h-2.5v-17.5h2.5v6.7h2.5V228.3z"/>
	<path class="st1" d="M387.4,229.7c-1.9-0.7-3.3-2-4-3.6c-0.8,1.8-2.2,3.2-4.2,3.9l-1.3-2c2.9-1,4.2-3.4,4.2-5.8v-1.7h2.5v1.7
		c0,2.3,1.2,4.5,4.1,5.5L387.4,229.7z M393,234.7v2h-12.1v-5.6h2.5v3.6H393z M392.5,232.3H390v-12.7h2.5V232.3z"/>
	<path class="st1" d="M400,224.6c0-2.5,2.1-4.2,4.8-4.2c2.7,0,4.8,1.7,4.8,4.2c0,2.5-2,4.2-4.8,4.2C402.1,228.8,400,227.1,400,224.6
		z M412.5,230.7c0,1.8,1,3.5,3.3,4.2l-1.2,1.8c-1.7-0.6-2.7-1.6-3.3-2.9c-0.6,1.3-1.6,2.5-3.2,3.1c-1.6-0.6-2.6-1.7-3.2-3.1
		c-0.6,1.3-1.7,2.3-3.2,2.9l-1.2-1.8c2.3-0.8,3.3-2.5,3.3-4.2v-0.6h2.4v0.6c0,1.4,0.6,2.8,1.9,3.8c1.4-1,2-2.5,2-3.8v-0.6h2.5V230.7
		z M402.5,224.6c0,1.3,1,2.1,2.3,2.1c1.3,0,2.3-0.8,2.3-2.1c0-1.3-1-2.1-2.3-2.1C403.4,222.5,402.5,223.3,402.5,224.6z M414.3,229.4
		h-2.5v-9.9h2.5V229.4z"/>
	<path class="st1" d="M426.6,221.3c0,5.4-1.8,9.7-8,12.7l-1.3-2c4.5-2.1,6.4-4.9,6.8-8.8h-5.8v-2H426.6z M431.8,219.5V237h-2.5
		v-17.5H431.8z"/>
	<path class="st1" d="M441.6,230.7c0.4,0,0.9-0.1,1.4-0.2l0.2,2c-1.3,0.3-2.2,0.3-3.1,0.3h-0.8v-11.2h3.7v2h-1.4V230.7z
		 M445.9,230.7c0.6,0,1.1-0.1,1.8-0.3l0.2,2.1c-1.3,0.3-2.4,0.3-3.4,0.3h-0.8v-11.2h3.8v2h-1.6V230.7z M454.3,219.5V237H452v-8.7
		h-1.3v7.9h-2.3v-16.4h2.3v6.5h1.3v-6.8H454.3z"/>
	<path class="st1" d="M472.4,228.2v2h-6.4v3h-2.5v-3h-6.9v-2H472.4z M460.9,234.7h9.7v2h-12.3v-5.1h2.5V234.7z M470.3,226.8h-11.9
		v-6.5h11.9V226.8z M467.9,222.2h-6.9v2.6h6.9V222.2z"/>
	<path class="st1" d="M483.8,224.4c0,2.4-2,4.1-4.7,4.1s-4.8-1.7-4.8-4.1c0-2.4,2.1-4.1,4.8-4.1S483.8,222,483.8,224.4z
		 M476.7,224.4c0,1.3,1,2.1,2.3,2.1s2.3-0.8,2.3-2.1c0-1.3-1-2.1-2.3-2.1S476.7,223.1,476.7,224.4z M479.4,229.7v1.6h6.6v-1.6h2.5
		v7.1h-11.6v-7.1H479.4z M479.4,234.9h6.6v-1.6h-6.6V234.9z M488.5,219.5v9.4H486v-9.4H488.5z"/>
	<path class="st1" d="M494.9,230.6c2.3-0.1,4.8-0.2,7.4-0.8l0.3,2.1c-3,0.6-5.9,0.8-8.5,0.8h-1.6v-11.5h2.5V230.6z M506.1,219.5V237
		h-2.5v-17.5H506.1z"/>
	<path class="st1" d="M512.1,230.8c2.5,0,4.6-0.2,6.8-0.6l0.2,2.1c-2.6,0.5-5,0.6-8.1,0.6h-1.5v-11.7h8.2v2h-5.7V230.8z
		 M525.2,228.1h-2.5v9h-2.5v-17.5h2.5v6.5h2.5V228.1z"/>
	<path class="st1" d="M527.4,233.8c0-1,0.7-1.8,1.7-1.8c1,0,1.7,0.8,1.7,1.8c0,1-0.8,1.8-1.7,1.8
		C528.2,235.7,527.4,234.9,527.4,233.8z M527.8,223.6l-0.1-2.6h2.8l-0.1,2.6l-0.4,7h-1.8L527.8,223.6z"/>
</g>
<g class="st0">
	<path class="st1" d="M128,261.9v2.1h-15.8v-2.1H128z M123.5,252.4h-9.7v-2H126v2.1c0,2.5,0,4.8-0.6,8.4l-2.5-0.2
		C123.5,257.3,123.5,254.8,123.5,252.4L123.5,252.4z"/>
	<path class="st1" d="M132.5,260.3c1.6,0,3.1-0.1,4.9-0.4l0.2,2c-2.2,0.4-4.1,0.4-6.2,0.4h-1.2v-7.1h4.2v-2.8h-4.2v-2h6.6v6.8h-4.2
		V260.3z M144.6,248.8v17.5h-2.4v-8.9h-1.6v8.1h-2.3v-16.4h2.3v6.3h1.6v-6.6H144.6z"/>
	<path class="st1" d="M153.7,252.7c0,3.3,1.3,6.5,4.2,7.8l-1.5,2c-1.9-0.9-3.2-2.6-3.9-4.7c-0.8,2.2-2.1,4.1-4,5.1l-1.6-2
		c3-1.4,4.3-4.8,4.3-8.1v-2.5h2.5V252.7z M161.8,248.8v17.6h-2.5v-10h-3.4v-2h3.4v-5.5H161.8z"/>
	<path class="st1" d="M177.3,252.5h-8.5v-1.9h3V249h2.5v1.6h3V252.5z M173.1,259.2c-2.2,0-3.8-1.3-3.8-3.1s1.6-3,3.8-3
		c2.2,0,3.8,1.2,3.8,3S175.3,259.2,173.1,259.2z M173.1,257.4c0.9,0,1.5-0.5,1.5-1.3c0-0.8-0.6-1.3-1.5-1.3c-0.9,0-1.6,0.4-1.6,1.3
		C171.5,256.9,172.1,257.4,173.1,257.4z M183.9,263.1c0,2-2.3,3.2-6,3.2c-3.8,0-6-1.1-6-3.2c0-2,2.3-3.2,6-3.2
		C181.6,259.9,183.9,261.1,183.9,263.1z M181.4,263.1c0-0.9-1.2-1.3-3.5-1.3c-2.3,0-3.5,0.4-3.5,1.3c0,0.9,1.2,1.3,3.5,1.3
		C180.2,264.4,181.4,264,181.4,263.1z M180.1,259.2h-2.3v-10.1h2.3v4h1.3v-4.3h2.4v10.9h-2.4v-4.6h-1.3V259.2z"/>
	<path class="st1" d="M192.8,252.7c0,3.2,1.2,6.3,4,7.7l-1.5,2c-1.8-0.9-3.1-2.6-3.8-4.7c-0.8,2.2-2.1,4.1-4,5l-1.5-2
		c2.9-1.4,4.3-4.7,4.3-8v-2.5h2.5V252.7z M202.6,257.6h-2.5v8.7h-2.5v-17.5h2.5v6.7h2.5V257.6z"/>
	<path class="st1" d="M214.6,257.9c-2.5,0.4-4.7,0.5-8.3,0.5h-1.5v-8.6h8.4v2h-5.9v1.3h5.4v1.9h-5.4v1.4c3,0,4.9-0.1,7.1-0.4
		L214.6,257.9z M206.7,259.9h11.6v6.2h-11.6V259.9z M209.2,264.1h6.7v-2.3h-6.7V264.1z M218.4,248.8v10.4h-2.5v-10.4H218.4z"/>
	<path class="st1" d="M230.6,257.3c-2.7,0-4.7-1.7-4.7-4c0-2.3,2-4,4.7-4c2.7,0,4.7,1.7,4.7,4C235.2,255.6,233.2,257.3,230.6,257.3z
		 M230.6,255.3c1.3,0,2.2-0.7,2.2-2c0-1.2-0.9-2-2.2-2c-1.3,0-2.3,0.7-2.3,2C228.3,254.5,229.3,255.3,230.6,255.3z M240.6,264.1v2
		h-12.1v-4.8h9.2v-1.1h-9.2v-1.9h11.7v4.8H231v1.1H240.6z M240.2,257.5h-2.5v-8.8h2.5V257.5z"/>
	<path class="st1" d="M252.8,256.2c0,3.9-2,6.3-4.6,6.3s-4.6-2.4-4.6-6.3c0-3.8,2-6.2,4.6-6.2S252.8,252.4,252.8,256.2z M246,256.2
		c0,2.6,0.9,4,2.2,4c1.3,0,2.2-1.4,2.2-4c0-2.6-0.9-4-2.2-4C246.9,252.3,246,253.6,246,256.2z M257.6,248.8v17.6h-2.5v-17.6H257.6z"
		/>
	<path class="st1" d="M268.3,260.1c2.2,0,4.4-0.2,6.8-0.7l0.3,2.1c-2.8,0.6-5.5,0.7-8.1,0.7h-1.5v-11.6h2.5V260.1z M279.6,248.8
		v17.6h-2.5v-10.1h-4.7v-2h4.7v-5.4H279.6z"/>
	<path class="st1" d="M298.2,260.6h-6.7v5.7H289v-5.7h-6.6v-2h15.8V260.6z M296.3,256.7h-12.1v-7.1h12.1V256.7z M293.9,251.6h-7.2
		v3.1h7.2V251.6z"/>
	<path class="st1" d="M320,255.9v2h-15.8v-2H320z M304.9,253.5c3.3-0.2,5-1.2,5.5-2.2h-4.8v-2h12.9v2h-4.8c0.5,1.1,2.2,2,5.5,2.2
		l-0.8,1.9c-3.2-0.2-5.4-1.3-6.4-2.7c-1,1.4-3.2,2.5-6.4,2.7L304.9,253.5z M308.5,264.3h10v1.9H306v-4.6h9.6v-1H306v-1.8h12.1v4.5
		h-9.6V264.3z"/>
	<path class="st1" d="M330.7,249.8c0,4.7-2.7,7.6-8,8.9l-1-1.9c4-1,5.9-2.8,6.2-5h-5.3v-2H330.7z M333.8,259h2.5v7.1h-11.6V259h2.5
		v1.6h6.6V259z M333.8,262.6h-6.6v1.5h6.6V262.6z M336.3,248.8v9.5h-2.5v-3.4h-3v-2h3v-4H336.3z"/>
	<path class="st1" d="M355,262.2v2h-15.8v-2h5.6v-6h2.5v6H355z M350.3,260c0.7-3.3,0.7-5.7,0.7-7.8h-10.2v-2h12.7v1.7
		c0,2.2,0,4.7-0.7,8.4L350.3,260z"/>
	<path class="st1" d="M369.4,252.5h-8.5v-1.9h3V249h2.5v1.6h3V252.5z M365.1,259.2c-2.2,0-3.8-1.3-3.8-3.1s1.6-3,3.8-3
		c2.2,0,3.8,1.2,3.8,3S367.3,259.2,365.1,259.2z M365.1,257.4c0.9,0,1.5-0.5,1.5-1.3c0-0.8-0.6-1.3-1.5-1.3c-0.9,0-1.6,0.4-1.6,1.3
		C363.6,256.9,364.2,257.4,365.1,257.4z M375.9,263.1c0,2-2.3,3.2-6,3.2s-6-1.1-6-3.2c0-2,2.3-3.2,6-3.2S375.9,261.1,375.9,263.1z
		 M373.4,263.1c0-0.9-1.2-1.3-3.5-1.3s-3.5,0.4-3.5,1.3c0,0.9,1.2,1.3,3.5,1.3S373.4,264,373.4,263.1z M372.2,259.2h-2.3v-10.1h2.3
		v4h1.3v-4.3h2.4v10.9h-2.4v-4.6h-1.3V259.2z"/>
	<path class="st1" d="M394.2,257.4v2h-15.8v-2h6.6V256h-4.6v-6.7h2.5v1.5h6.8v-1.5h2.5v6.7h-4.7v1.4H394.2z M380.2,260.6h12.2v5.7
		h-2.5v-3.7h-9.7V260.6z M382.9,254h6.8v-1.4h-6.8V254z"/>
	<path class="st1" d="M406.2,252.3h-10.3v-2h3.9v-1.7h2.5v1.7h3.9L406.2,252.3z M401,258.9c-2.5,0-4.3-1.3-4.3-3.1
		c0-1.9,1.8-3.1,4.3-3.1c2.5,0,4.3,1.2,4.3,3.1C405.3,257.7,403.6,258.9,401,258.9z M407.2,259.7h2.5v6.4h-11.4v-6.4h2.5v1.3h6.4
		V259.7z M401,257.1c1.1,0,1.9-0.4,1.9-1.3s-0.8-1.3-1.9-1.3c-1.1,0-1.9,0.4-1.9,1.3S399.9,257.1,401,257.1z M407.2,262.9h-6.4v1.2
		h6.4V262.9z M412,255h-2.3v4h-2.5v-10.2h2.5v4.2h2.3V255z"/>
	<path class="st1" d="M416.8,259.8c2.3-0.1,4.8-0.2,7.4-0.8l0.3,2.1c-3,0.6-5.9,0.8-8.5,0.8h-1.6v-11.5h2.5V259.8z M428,248.8v17.5
		h-2.5v-17.5H428z"/>
	<path class="st1" d="M434,260c2.5,0,4.6-0.2,6.8-0.6l0.2,2.1c-2.6,0.5-5,0.6-8.1,0.6h-1.5v-11.7h8.2v2H434V260z M447.1,257.3h-2.5
		v9H442v-17.5h2.5v6.5h2.5V257.3z"/>
	<path class="st1" d="M448.9,263.1c0-1,0.7-1.8,1.7-1.8c1,0,1.7,0.8,1.7,1.8c0,1-0.7,1.8-1.7,1.8
		C449.6,264.9,448.9,264.1,448.9,263.1z"/>
</g>
<g class="st0">
	<path class="st1" d="M95.7,286.9v1.1h4.7v4.5h-9.6v1h10v1.9H88.4v-4.6H98v-0.9h-9.6V288h4.8v-1.1h-6.6v-2h15.8v2H95.7z M100.3,284
		H88.5v-5.5h11.8V284z M97.9,280.4H91v1.7h6.9V280.4z"/>
	<path class="st1" d="M119.9,287.7v2H104v-2h6.7v-1.3H106v-4.9h9.5v-1.2H106v-1.9h12v4.9h-9.5v1.2h9.8v1.9h-5.1v1.3H119.9z
		 M108.5,293.6h9.8v2H106v-5.1h2.5V293.6z"/>
	<path class="st1" d="M129.4,289.3c3.1,0,5-0.1,7.1-0.5l0.2,2.1c-2.4,0.5-4.6,0.5-8.3,0.5h-1.5v-11.8h8.5v2h-5.9V289.3z M140.3,278
		v17.6h-2.5V278H140.3z"/>
	<path class="st1" d="M149.7,282.7c0,2.7,1.4,5.8,4.3,7.1l-1.4,2c-1.9-0.9-3.3-2.6-4.1-4.7c-0.8,2.3-2.2,4.2-4.2,5.1l-1.4-2
		c2.9-1.3,4.3-4.6,4.3-7.5v-1h-3.6v-2.1h9.6v2.1h-3.5V282.7z M159.5,286.8H157v8.8h-2.5V278h2.5v6.7h2.5V286.8z"/>
	<path class="st1" d="M165.8,288c-2.7,0-4.8-1.9-4.8-4.4c0-2.6,2.1-4.4,4.8-4.4s4.7,1.9,4.7,4.4C170.5,286.1,168.5,288,165.8,288z
		 M165.8,285.8c1.3,0,2.3-0.9,2.3-2.3c0-1.4-1-2.3-2.3-2.3c-1.3,0-2.3,0.8-2.3,2.3C163.5,285,164.5,285.8,165.8,285.8z M175.7,293.2
		v2h-12.1v-5.9h2.5v3.9H175.7z M175.3,290.6h-2.5V278h2.5V290.6z"/>
	<path class="st1" d="M194.1,291.5v2.1h-15.8v-2.1h6.6v-3.6h-4.8v-8.6h12.2v2h-9.7v4.6h9.8v2h-5v3.6H194.1z"/>
	<path class="st1" d="M209.3,286.8c-2-0.5-3.3-1.7-4.1-3.1c-0.8,1.6-2.2,2.9-4.3,3.5l-1.2-2c2.7-0.8,4-2.6,4.1-4.5h-3.5v-2h9.4v2
		h-3.4c0.2,1.7,1.4,3.4,4,4.1L209.3,286.8z M204.8,293.4h9.5v1.9h-12v-4.8h9.1v-1h-9.1v-1.9h11.6v4.7h-9V293.4z M216.1,281.5v2h-2.3
		v3.5h-2.5V278h2.5v3.4H216.1z"/>
	<path class="st1" d="M223.8,280.6h3.8v2h-10.2v-2h3.9v-2.3h2.5V280.6z M227,287.7c0,2.5-1.9,4.2-4.4,4.2c-2.5,0-4.4-1.7-4.4-4.2
		c0-2.4,1.9-4.2,4.4-4.2C225.1,283.6,227,285.3,227,287.7z M224.6,287.7c0-1.3-0.9-2.1-2-2.1s-2.1,0.8-2.1,2.1s0.9,2.1,2.1,2.1
		S224.6,289.1,224.6,287.7z M233.8,286.9h-2.5v8.6h-2.5V278h2.5v6.8h2.5V286.9z"/>
	<path class="st1" d="M250.9,291.4v2H235v-2h5.6v-6h2.5v6H250.9z M246.1,289.3c0.7-3.3,0.7-5.7,0.7-7.8h-10.2v-2h12.7v1.7
		c0,2.2,0,4.7-0.7,8.4L246.1,289.3z"/>
	<path class="st1" d="M272.6,285.2v2h-15.8v-2h6.6v-1.6h2.5v1.6H272.6z M257.5,282.7c3.2-0.2,4.9-1.2,5.4-2.3h-4.6v-1.9h12.9v1.9
		h-4.6c0.5,1.1,2.2,2.1,5.4,2.3l-0.8,1.9c-3.3-0.3-5.5-1.4-6.4-3c-0.9,1.6-3.1,2.8-6.4,3L257.5,282.7z M261.1,293.5h10v1.9h-12.5
		v-4.6h9.6v-1h-9.6V288h12.1v4.5h-9.6V293.5z"/>
	<path class="st1" d="M288.9,278v9.4h-2.5v-3.5h-2.8c-0.5,1.9-2.3,3.2-4.5,3.2c-2.6,0-4.6-1.7-4.6-4.2s2-4.2,4.6-4.2
		c2.2,0,4,1.3,4.5,3.1h2.8V278H288.9z M281.3,282.9c0-1.3-0.9-2.1-2.2-2.1c-1.3,0-2.2,0.8-2.2,2.1c0,1.3,0.9,2.1,2.2,2.1
		C280.4,285,281.3,284.2,281.3,282.9z M286.4,288.2h2.5v7.1h-11.6v-7.1h2.5v1.7h6.6V288.2z M286.4,291.8h-6.6v1.6h6.6V291.8z"/>
	<path class="st1" d="M301.1,288.5c-1.9-0.6-3.2-1.9-4-3.5c-0.8,1.7-2.1,3.1-4.2,3.8l-1.3-2c2.9-0.9,4.1-3.2,4.1-5.4v-0.2h-3.4v-2
		h9.4v2h-3.4v0.2c0,2.1,1.2,4.2,4,5.1L301.1,288.5z M306.8,293.2v2h-11.9v-5.5h2.5v3.5H306.8z M303.9,282.5V278h2.5v12.8h-2.5v-6.2
		h-2.7v-2H303.9z"/>
	<path class="st1" d="M316,281.9c0,3.2,1.4,6.4,4.4,7.7l-1.4,2c-2-0.9-3.4-2.6-4.1-4.8c-0.8,2.3-2.2,4.2-4.3,5.2L309,290
		c3.1-1.3,4.5-4.7,4.5-8.1v-2.5h2.5V281.9z M323.7,278v17.6h-2.5V278H323.7z"/>
	<path class="st1" d="M346.9,286.7v2h-6.5v3h-2.5v-3H331v-2H346.9z M331.7,283.9c3.4-0.4,5.1-1.8,5.4-3.2h-4.7v-2h13v2h-4.7
		c0.3,1.4,2,2.8,5.4,3.2l-0.9,2c-3.2-0.4-5.4-1.7-6.3-3.5c-0.9,1.8-3,3.1-6.3,3.5L331.7,283.9z M335.4,293.2h9.7v2h-12.3v-5h2.5
		V293.2z"/>
	<path class="st1" d="M351.9,279.4v4.2h3.6v-4.2h2.5v12.1h-8.6v-12.1H351.9z M351.9,289.5h3.6v-3.9h-3.6V289.5z M363,278v17.6h-2.5
		V278H363z"/>
	<path class="st1" d="M381.8,291.5v2.1H366v-2.1h6.6v-3.6h-4.8v-8.6H380v2h-9.7v4.6h9.8v2h-5v3.6H381.8z"/>
	<path class="st1" d="M396.2,281.7h-8.5v-1.9h3v-1.6h2.5v1.6h3V281.7z M392,288.4c-2.2,0-3.8-1.3-3.8-3.1s1.6-3,3.8-3
		c2.2,0,3.8,1.2,3.8,3S394.2,288.4,392,288.4z M392,286.6c0.9,0,1.5-0.5,1.5-1.3c0-0.8-0.6-1.3-1.5-1.3c-0.9,0-1.6,0.4-1.6,1.3
		C390.4,286.2,391.1,286.6,392,286.6z M402.8,292.3c0,2-2.3,3.2-6,3.2s-6-1.1-6-3.2c0-2,2.3-3.2,6-3.2S402.8,290.3,402.8,292.3z
		 M400.3,292.3c0-0.9-1.2-1.3-3.5-1.3s-3.5,0.4-3.5,1.3c0,0.9,1.2,1.3,3.5,1.3S400.3,293.3,400.3,292.3z M399,288.4h-2.3v-10.1h2.3
		v4h1.3V278h2.4V289h-2.4v-4.6H399V288.4z"/>
	<path class="st1" d="M421.1,286.7v2h-15.8v-2h6.6v-1.4h-4.6v-6.7h2.5v1.5h6.8v-1.5h2.5v6.7h-4.7v1.4H421.1z M407,289.9h12.2v5.7
		h-2.5v-3.7H407V289.9z M409.8,283.3h6.8v-1.4h-6.8V283.3z"/>
	<path class="st1" d="M428.2,280.7h2.9v2h-8.4v-2h3v-2.2h2.5V280.7z M430.8,287.6c0,2.4-1.6,4.2-3.8,4.2c-2.2,0-3.8-1.7-3.8-4.2
		c0-2.5,1.6-4.2,3.8-4.2C429.2,283.4,430.8,285.1,430.8,287.6z M428.6,287.6c0-1.3-0.7-2.1-1.6-2.1c-1,0-1.6,0.8-1.6,2.1
		s0.7,2.1,1.6,2.1C427.9,289.7,428.6,288.9,428.6,287.6z M437.8,278v17.5h-2.4v-8.3h-1.3v7.6h-2.3v-16.4h2.3v6.8h1.3V278H437.8z"/>
	<path class="st1" d="M456.1,291.4v2h-15.8v-2h3.5v-4.3c-1.3-0.8-2.1-2.1-2.1-3.6c0-2.9,2.8-4.7,6.5-4.7c3.8,0,6.5,1.8,6.5,4.7
		c0,1.5-0.8,2.8-2.1,3.6v4.3H456.1z M444.1,283.6c0,1.7,1.6,2.7,4,2.7s4.1-1,4.1-2.7c0-1.7-1.6-2.7-4.1-2.7S444.1,281.8,444.1,283.6
		z M446.2,291.4h3.9v-3.3c-0.6,0.1-1.3,0.2-1.9,0.2s-1.3-0.1-1.9-0.2V291.4z"/>
	<path class="st1" d="M461.3,279.4h2.3l3.3,8.5h-2.3l-1.1-3.1l-1-2.9h-0.1l-1,2.9l-1.1,3.1H458L461.3,279.4z"/>
	<path class="st1" d="M472.5,279.4h2.3l3.3,8.5h-2.3l-1.1-3.1l-1-2.9h-0.1l-1,2.9l-1.1,3.1h-2.3L472.5,279.4z"/>
</g>
</svg>
