<?xml version="1.0" encoding="utf-8"?>
<!-- Generator: Adobe Illustrator 21.0.0, SVG Export Plug-In . SVG Version: 6.00 Build 0)  -->
<svg version="1.1" id="레이어_1" xmlns="http://www.w3.org/2000/svg" xmlns:xlink="http://www.w3.org/1999/xlink" x="0px"
	 y="0px" viewBox="0 0 580 242.4" style="enable-background:new 0 0 580 242.4;" xml:space="preserve">
<style type="text/css">
	.st0{enable-background:new    ;}
	.st1{fill:#080808;}
</style>
<g class="st0">
	<path class="st1" d="M241.9,15.3c-2.5,0.4-4.7,0.5-8.3,0.5h-1.5V7.1h8.4v2h-5.9v1.3h5.4v1.9h-5.4v1.4c3,0,4.9-0.1,7.1-0.4
		L241.9,15.3z M234,17.3h11.6v6.2H234V17.3z M236.5,21.5h6.7v-2.3h-6.7V21.5z M245.7,6.2v10.4h-2.5V6.2H245.7z"/>
	<path class="st1" d="M257.6,15.4h-8.2V7.4h8.2v1.3h3.2V6.1h2.5v10.3h-2.5v-2.2h-3.2V15.4z M263.3,20.2c0,2.1-2.3,3.4-6,3.4
		c-3.7,0-6-1.3-6-3.4s2.3-3.4,6-3.4C261.1,16.8,263.3,18.1,263.3,20.2z M255.2,9.4h-3.3v4.1h3.3V9.4z M260.8,20.2
		c0-1-1.2-1.5-3.5-1.5c-2.3,0-3.5,0.5-3.5,1.5s1.2,1.5,3.5,1.5C259.6,21.7,260.8,21.2,260.8,20.2z M257.6,10.7v1.5h3.2v-1.5H257.6z"
		/>
	<path class="st1" d="M271,13.2c0-1,0.7-1.8,1.7-1.8c1,0,1.7,0.8,1.7,1.8c0,1-0.7,1.8-1.7,1.8C271.7,15,271,14.3,271,13.2z
		 M271,20.4c0-1,0.7-1.8,1.7-1.8c1,0,1.7,0.8,1.7,1.8c0,1-0.7,1.8-1.7,1.8C271.7,22.3,271,21.5,271,20.4z"/>
	<path class="st1" d="M296.7,16.2v1.9h-15.8v-1.9h6.7v-1c-2.9-0.2-4.6-1.1-4.6-2.6c0-1.7,2.1-2.7,5.9-2.7c3.7,0,5.9,0.9,5.9,2.7
		c0,1.5-1.7,2.4-4.6,2.6v1H296.7z M295.9,9.4h-14.2V7.6h5.9V6.1h2.5v1.5h5.9V9.4z M285.3,21.4h9.6v1.9h-12.1V19h2.5V21.4z
		 M288.8,13.5c2.3,0,3.3-0.3,3.3-0.9c0-0.6-1-0.9-3.3-0.9c-2.3,0-3.3,0.3-3.3,0.9C285.5,13.2,286.6,13.5,288.8,13.5z"/>
	<path class="st1" d="M307.5,15v1.1h4.7v4.5h-9.6v1h10v1.9h-12.5v-4.6h9.6v-1h-9.6v-1.9h4.8V15h-6.6v-2h15.8v2H307.5z M312.6,12.3
		c-3-0.3-5.2-1.5-6.3-3.1c-1.1,1.6-3.3,2.7-6.3,3.1l-0.8-1.9c3.9-0.4,5.8-2.1,5.8-3.8V6.2h2.6v0.3c0,1.7,1.9,3.5,5.8,3.8L312.6,12.3
		z"/>
	<path class="st1" d="M327.1,16.9c-3.7,0.6-7.7,0.7-10.8,0.7l-0.3-1.9c1.3,0,2.8,0,4.4,0v-1c-1.9-0.3-3.1-1.2-3.1-2.5
		c0-1.6,1.7-2.6,4.4-2.6c2.6,0,4.3,1,4.3,2.6c0,1.3-1.2,2.2-3.1,2.5v0.9c1.4-0.1,2.7-0.2,4-0.3L327.1,16.9z M326.7,9.2h-10.3V7.4
		h3.9V6h2.5v1.4h3.9V9.2z M325.7,18.5c0,1.4,1.6,2.9,5.5,3.2l-0.8,1.9c-2.9-0.3-4.9-1.2-5.9-2.6c-1.1,1.3-3.1,2.3-6,2.6l-0.8-1.9
		c3.9-0.3,5.5-1.8,5.5-3.2v-0.2h2.6V18.5z M321.6,13.2c1.2,0,1.9-0.3,1.9-0.9c0-0.6-0.7-0.9-1.9-0.9c-1.2,0-2,0.3-2,0.9
		C319.7,12.9,320.4,13.2,321.6,13.2z M330.4,19.2h-2.5v-13h2.5V19.2z"/>
	<path class="st1" d="M343,15.4c-2-0.6-3.3-1.8-4.1-3.3c-0.8,1.6-2.2,2.9-4.3,3.6l-1.3-2c2.8-0.8,4-2.7,4.2-4.7h-3.5v-2h9.5v2h-3.4
		c0.1,1.8,1.4,3.6,4.1,4.4L343,15.4z M345.4,16.4h2.5v7h-11.6v-7h2.5V18h6.6V16.4z M345.4,19.9h-6.6v1.5h6.6V19.9z M347.9,6.2v9.5
		h-2.5V6.2H347.9z"/>
</g>
<g class="st0">
	<path class="st1" d="M250.7,44.2c-2.5,0.4-4.7,0.5-8.3,0.5h-1.5v-8.6h8.4v2h-5.9v1.3h5.4v1.9h-5.4v1.4c3,0,4.9-0.1,7.1-0.4
		L250.7,44.2z M242.8,46.2h11.6v6.2h-11.6V46.2z M245.2,50.4h6.7v-2.3h-6.7V50.4z M254.4,35.1v10.4h-2.5V35.1H254.4z"/>
	<path class="st1" d="M272.5,50.3v2h-13v-5.2h2.4v-2.3c-1.5,0.1-3,0.1-4.3,0.1l-0.3-2c3.2,0,7.4-0.1,11.1-0.5l0.2,1.8
		c-1.4,0.2-2.8,0.4-4.2,0.5v3.3H262v2.4H272.5z M258.5,38.8c0-1.9,1.8-3.1,4.4-3.1c2.5,0,4.4,1.3,4.4,3.1c0,1.9-1.8,3.1-4.4,3.1
		C260.4,41.9,258.5,40.7,258.5,38.8z M260.9,38.8c0,0.9,0.8,1.3,2,1.3c1.2,0,2-0.4,2-1.3c0-0.9-0.8-1.3-2-1.3
		C261.7,37.5,260.9,38,260.9,38.8z M269.6,45.3V35.1h2.5v13.3h-2.5V47h-3.3v-1.7H269.6z"/>
	<path class="st1" d="M279.7,42.2c0-1,0.7-1.8,1.7-1.8c1,0,1.7,0.8,1.7,1.8c0,1-0.7,1.8-1.7,1.8C280.4,44,279.7,43.2,279.7,42.2z
		 M279.7,49.4c0-1,0.7-1.8,1.7-1.8c1,0,1.7,0.8,1.7,1.8c0,1-0.7,1.8-1.7,1.8C280.4,51.2,279.7,50.4,279.7,49.4z"/>
	<path class="st1" d="M298.8,36.1c0,4.7-2.9,7.8-8.1,9.1l-1-2c3.9-1,6.1-2.9,6.4-5.2h-5.4v-2H298.8z M292.6,45.6h11.6v6.8h-11.6
		V45.6z M295.1,50.4h6.6v-2.9h-6.6V50.4z M304.2,35.1v9.7h-2.5v-9.7H304.2z"/>
	<path class="st1" d="M322.9,44v2h-15.8v-2H322.9z M308.7,39.2c0-2.2,2.5-3.6,6.3-3.6c3.8,0,6.3,1.4,6.3,3.6s-2.5,3.6-6.3,3.6
		C311.2,42.8,308.7,41.4,308.7,39.2z M311.5,50.3h9.6v2H309v-5.1h2.5V50.3z M311.3,39.2c0,1.1,1.4,1.6,3.7,1.6
		c2.4,0,3.8-0.5,3.8-1.6c0-1.1-1.4-1.6-3.8-1.6C312.7,37.6,311.3,38.1,311.3,39.2z"/>
	<path class="st1" d="M324.7,47.6c3.2,0,7.4,0,11.1-0.5l0.2,1.8c-3.9,0.7-7.9,0.7-11,0.7L324.7,47.6z M335.5,39.2H325v-2h4v-1.9h2.5
		v1.9h4V39.2z M330.3,39.9c2.5,0,4.3,1.3,4.3,3.3c0,2-1.8,3.3-4.3,3.3c-2.5,0-4.3-1.3-4.3-3.3C326,41.2,327.8,39.9,330.3,39.9z
		 M330.3,41.8c-1.2,0-1.9,0.5-1.9,1.4c0,0.9,0.8,1.4,1.9,1.4c1.1,0,1.9-0.5,1.9-1.4C332.2,42.3,331.4,41.8,330.3,41.8z M339.2,35.1
		v17.5h-2.5V35.1H339.2z"/>
</g>
<g class="st0">
	<path class="st1" d="M29.2,104.9c-2.5,0.4-4.7,0.5-8.3,0.5h-1.5v-8.6h8.4v2h-5.9v1.3h5.4v1.9h-5.4v1.4c3,0,4.9-0.1,7.1-0.4
		L29.2,104.9z M21.3,106.8H33v6.2H21.3V106.8z M23.8,111h6.7v-2.3h-6.7V111z M33,95.7v10.4h-2.5V95.7H33z"/>
	<path class="st1" d="M45.2,105.6c-1.9-0.6-3.2-1.7-4-3.2c-0.8,1.7-2.2,3.1-4.2,3.8l-1.3-2c2.8-1,4.1-3.2,4.1-5.4h-3.5v-2h9.5v2
		h-3.4c0,2,1.2,4,4,4.8L45.2,105.6z M49.9,109.8c0,2.1-2.3,3.4-5.9,3.4c-3.6,0-5.9-1.3-5.9-3.4c0-2.1,2.3-3.4,5.9-3.4
		C47.6,106.4,49.9,107.7,49.9,109.8z M47.4,109.8c0-1-1.2-1.5-3.4-1.5c-2.2,0-3.4,0.5-3.4,1.5c0,1,1.2,1.5,3.4,1.5
		C46.2,111.3,47.4,110.8,47.4,109.8z M52,99.7v2.1h-2.3v4.3h-2.5V95.7h2.5v4H52z"/>
	<path class="st1" d="M58.9,107.6c1.7-0.1,3.4-0.2,5-0.4L64,109c-3.6,0.6-7.5,0.7-10.5,0.7l-0.2-2.1c1,0,2,0,3.1,0v-5.2h2.5V107.6z
		 M60.2,105.4c0.4-2.5,0.5-4.4,0.5-5.9h-6.5v-2h9v1.4c0,1.7,0,3.8-0.5,6.7L60.2,105.4z M69.5,104.8h-2.4v8.4h-2.5V95.7h2.5v7h2.4
		V104.8z"/>
	<path class="st1" d="M86,104.9c-2.5,0.4-4.7,0.5-8.3,0.5h-1.5v-8.6h8.4v2h-5.9v1.3H84v1.9h-5.4v1.4c3,0,4.9-0.1,7.1-0.4L86,104.9z
		 M78.1,106.8h11.6v6.2H78.1V106.8z M80.6,111h6.7v-2.3h-6.7V111z M89.7,95.7v10.4h-2.5V95.7H89.7z"/>
	<path class="st1" d="M107.8,110.9v2h-13v-5.2h2.4v-2.3c-1.5,0.1-3,0.1-4.3,0.1l-0.3-2c3.2,0,7.4-0.1,11.1-0.5l0.2,1.8
		c-1.4,0.2-2.8,0.4-4.2,0.5v3.3h-2.4v2.4H107.8z M93.9,99.4c0-1.9,1.8-3.1,4.4-3.1c2.5,0,4.4,1.3,4.4,3.1c0,1.9-1.8,3.1-4.4,3.1
		C95.7,102.6,93.9,101.3,93.9,99.4z M96.2,99.4c0,0.9,0.8,1.3,2,1.3c1.2,0,2-0.4,2-1.3c0-0.9-0.8-1.3-2-1.3
		C97.1,98.1,96.2,98.6,96.2,99.4z M104.9,105.9V95.7h2.5V109h-2.5v-1.4h-3.3v-1.7H104.9z"/>
	<path class="st1" d="M130.3,105.8v1.9h-15.8v-1.9h6.7v-1c-2.9-0.2-4.6-1.1-4.6-2.6c0-1.7,2.1-2.7,5.9-2.7c3.7,0,5.9,0.9,5.9,2.7
		c0,1.5-1.7,2.4-4.6,2.6v1H130.3z M129.5,99h-14.2v-1.9h5.9v-1.5h2.5v1.5h5.9V99z M118.9,111h9.6v1.9h-12.1v-4.3h2.5V111z
		 M122.4,103.1c2.3,0,3.3-0.3,3.3-0.9c0-0.6-1-0.9-3.3-0.9c-2.3,0-3.3,0.3-3.3,0.9C119.1,102.8,120.1,103.1,122.4,103.1z"/>
	<path class="st1" d="M138.4,100.4c0,2.7,1.4,5.8,4.3,7.1l-1.4,2c-1.9-0.9-3.3-2.6-4.1-4.7c-0.8,2.3-2.2,4.2-4.2,5.1l-1.4-2
		c2.9-1.3,4.3-4.6,4.3-7.5v-1h-3.6v-2.1h9.6v2.1h-3.5V100.4z M148.2,104.5h-2.5v8.8h-2.5V95.7h2.5v6.7h2.5V104.5z"/>
	<path class="st1" d="M156.9,107c2.5,0,4.6-0.2,6.8-0.6l0.2,2.1c-2.6,0.5-5,0.6-8.1,0.6h-1.5V97.3h8.2v2h-5.7V107z M170,104.2h-2.5
		v9h-2.5V95.7h2.5v6.5h2.5V104.2z"/>
	<path class="st1" d="M176.7,98.4h2.9v2h-8.4v-2h3v-2.2h2.5V98.4z M179.3,105.3c0,2.4-1.6,4.2-3.8,4.2s-3.8-1.7-3.8-4.2
		c0-2.5,1.6-4.2,3.8-4.2S179.3,102.8,179.3,105.3z M177.1,105.3c0-1.3-0.7-2.1-1.6-2.1c-0.9,0-1.6,0.8-1.6,2.1s0.7,2.1,1.6,2.1
		C176.4,107.4,177.1,106.6,177.1,105.3z M186.2,95.7v17.5h-2.4v-8.3h-1.3v7.6h-2.3V96h2.3v6.8h1.3v-7.1H186.2z"/>
	<path class="st1" d="M203.3,95.7v10.4h-2.5v-4.2h-3.2v3.2h-8.2V97h8.2v2.9h3.2v-4.2H203.3z M191.4,106.9h11.9v6.4h-2.5v-4.4h-9.4
		V106.9z M195.2,98.9h-3.3v4.2h3.3V98.9z"/>
	<path class="st1" d="M222,103.4v2h-15.8v-2H222z M220.3,102.6c-3-0.4-5.1-1.6-6.2-3.3c-1.1,1.7-3.3,2.9-6.2,3.3l-0.9-1.9
		c3.9-0.5,5.8-2.4,5.8-4.2v-0.5h2.6v0.5c0,1.8,1.9,3.7,5.8,4.2L220.3,102.6z M217.5,106.2h2.5v6.8h-12v-6.8h2.5v1.5h7V106.2z
		 M217.5,109.5h-7v1.5h7V109.5z"/>
	<path class="st1" d="M227.1,106.8c2.3-0.1,4.8-0.2,7.4-0.8l0.3,2.1c-3,0.6-5.9,0.8-8.5,0.8h-1.6V97.4h2.5V106.8z M238.3,95.7v17.5
		h-2.5V95.7H238.3z"/>
	<path class="st1" d="M244.3,107c2.5,0,4.6-0.2,6.8-0.6l0.2,2.1c-2.6,0.5-5,0.6-8.1,0.6h-1.5V97.3h8.2v2h-5.7V107z M257.4,104.2
		h-2.5v9h-2.5V95.7h2.5v6.5h2.5V104.2z"/>
	<path class="st1" d="M259.2,110c0-1,0.7-1.8,1.7-1.8c1,0,1.7,0.8,1.7,1.8c0,1-0.7,1.8-1.7,1.8C259.9,111.8,259.2,111,259.2,110z"/>
	<path class="st1" d="M284.9,105.8v1.9h-15.8v-1.9h6.7v-1c-2.9-0.2-4.6-1.1-4.6-2.6c0-1.7,2.1-2.7,5.9-2.7c3.7,0,5.9,0.9,5.9,2.7
		c0,1.5-1.7,2.4-4.6,2.6v1H284.9z M284.1,99h-14.2v-1.9h5.9v-1.5h2.5v1.5h5.9V99z M273.5,111h9.6v1.9H271v-4.3h2.5V111z M277,103.1
		c2.3,0,3.3-0.3,3.3-0.9c0-0.6-1-0.9-3.3-0.9c-2.3,0-3.3,0.3-3.3,0.9C273.7,102.8,274.8,103.1,277,103.1z"/>
	<path class="st1" d="M293,100.4c0,2.7,1.4,5.8,4.3,7.1l-1.4,2c-1.9-0.9-3.3-2.6-4.1-4.7c-0.8,2.3-2.2,4.2-4.2,5.1l-1.4-2
		c2.9-1.3,4.3-4.6,4.3-7.5v-1h-3.6v-2.1h9.6v2.1H293V100.4z M302.8,104.5h-2.5v8.8h-2.5V95.7h2.5v6.7h2.5V104.5z"/>
	<path class="st1" d="M314.7,98.3h3.8v2h-10.2v-2h3.9V96h2.5V98.3z M317.8,105.4c0,2.5-1.9,4.2-4.4,4.2c-2.5,0-4.4-1.7-4.4-4.2
		c0-2.4,1.9-4.2,4.4-4.2C316,101.3,317.8,103,317.8,105.4z M315.5,105.4c0-1.3-0.9-2.1-2-2.1s-2.1,0.8-2.1,2.1s0.9,2.1,2.1,2.1
		S315.5,106.8,315.5,105.4z M324.6,104.6h-2.5v8.6h-2.5V95.7h2.5v6.8h2.5V104.6z"/>
	<path class="st1" d="M341.7,104.2v2h-15.8v-2H341.7z M330.2,110.8h9.9v2h-12.4v-5.2h2.5V110.8z M340,102.4h-12.1v-6.1h2.5v4.1h9.6
		V102.4z"/>
	<path class="st1" d="M354.6,108.1c1.4-0.1,2.8-0.2,4.2-0.4l0.2,1.8c-3.8,0.7-7.9,0.7-11,0.7l-0.3-2c1.3,0,2.8,0,4.4,0v-1.5
		c-1.9-0.4-3.1-1.5-3.1-3.2c0-2,1.8-3.3,4.3-3.3c2.5,0,4.3,1.3,4.3,3.3c0,1.6-1.2,2.8-3.1,3.2V108.1z M358.6,99.6h-10.5v-2h4v-1.9
		h2.5v1.9h4V99.6z M353.4,105c1.2,0,2-0.5,2-1.4c0-0.9-0.8-1.4-2-1.4c-1.2,0-2,0.5-2,1.4C351.4,104.5,352.2,105,353.4,105z
		 M362.2,95.7v17.5h-2.5V95.7H362.2z"/>
	<path class="st1" d="M374.2,96.1h2.3v16.4h-2.3v-5.7h-2.4v-2h2.4v-2.4h-2.1c-0.8,2.9-2.5,5.3-5.8,7.3l-1.4-1.7
		c3.5-2.1,5-4.6,5.3-8.1h-4.3v-2h6.8c0,0.9-0.1,1.7-0.2,2.5h1.7V96.1z M380.2,95.7v17.5h-2.4V95.7H380.2z"/>
	<path class="st1" d="M385.8,107.1c2.5,0,4.6-0.2,6.9-0.6l0.2,2c-2.6,0.5-5,0.6-8.1,0.6h-1.5V102h5.5v-2.8h-5.6v-2h8v6.8h-5.5V107.1
		z M398.9,104.4h-2.5v8.9h-2.5V95.7h2.5v6.6h2.5V104.4z"/>
	<path class="st1" d="M406.7,99.6c0,3.3,1.3,6.5,4.2,7.8l-1.5,2c-1.9-0.9-3.2-2.6-3.9-4.7c-0.8,2.2-2.1,4.1-4,5.1l-1.6-2
		c3-1.4,4.3-4.8,4.3-8.1v-2.5h2.5V99.6z M414.8,95.7v17.6h-2.5v-10h-3.4v-2h3.4v-5.5H414.8z"/>
	<path class="st1" d="M425.8,98c-1.2,0.7-1.8,1.5-1.9,2.7c0.1,0,0.1,0,0.2,0c0.8,0,1.5,0.6,1.5,1.5c0,1-0.6,1.6-1.5,1.6
		c-1.2,0-1.8-0.9-1.8-2.6c0-2,0.9-3.4,2.8-4.4L425.8,98z"/>
	<path class="st1" d="M443.9,105.8v1.9H428v-1.9h6.7v-1c-2.9-0.2-4.6-1.1-4.6-2.6c0-1.7,2.1-2.7,5.9-2.7c3.7,0,5.9,0.9,5.9,2.7
		c0,1.5-1.7,2.4-4.6,2.6v1H443.9z M443.1,99h-14.2v-1.9h5.9v-1.5h2.5v1.5h5.9V99z M432.5,111h9.6v1.9H430v-4.3h2.5V111z M436,103.1
		c2.3,0,3.3-0.3,3.3-0.9c0-0.6-1-0.9-3.3-0.9c-2.3,0-3.3,0.3-3.3,0.9C432.7,102.8,433.7,103.1,436,103.1z"/>
	<path class="st1" d="M454.7,104.6v1.1h4.8v4.5h-9.6v1h10v1.9h-12.5v-4.6h9.6v-1h-9.6v-1.9h4.8v-1.1h-6.6v-2h15.8v2H454.7z
		 M459.7,101.9c-3-0.3-5.2-1.5-6.3-3.1c-1.1,1.6-3.3,2.7-6.3,3.1l-0.8-1.9c3.9-0.4,5.8-2.1,5.8-3.8v-0.3h2.6v0.3
		c0,1.7,1.9,3.5,5.8,3.8L459.7,101.9z"/>
	<path class="st1" d="M474.2,106.5c-3.7,0.6-7.7,0.7-10.8,0.7l-0.3-1.9c1.3,0,2.8,0,4.4,0v-1c-1.9-0.3-3.1-1.2-3.1-2.5
		c0-1.6,1.7-2.6,4.3-2.6c2.6,0,4.3,1,4.3,2.6c0,1.3-1.2,2.2-3.1,2.5v0.9c1.4-0.1,2.7-0.2,4-0.3L474.2,106.5z M473.9,98.8h-10.3V97
		h3.9v-1.4h2.5V97h3.9V98.8z M472.8,108c0,1.4,1.6,2.9,5.5,3.2l-0.8,1.9c-2.9-0.3-4.9-1.2-5.9-2.6c-1.1,1.3-3.1,2.3-6,2.6l-0.8-1.9
		c3.9-0.3,5.5-1.8,5.5-3.2v-0.2h2.6V108z M468.8,102.7c1.2,0,1.9-0.3,1.9-0.9c0-0.6-0.7-0.9-1.9-0.9c-1.2,0-2,0.3-2,0.9
		C466.8,102.4,467.5,102.7,468.8,102.7z M477.6,108.7h-2.5v-13h2.5V108.7z"/>
	<path class="st1" d="M490.2,105c-2-0.6-3.3-1.8-4.1-3.3c-0.8,1.6-2.2,2.9-4.3,3.6l-1.3-2c2.8-0.8,4-2.7,4.2-4.7h-3.5v-2h9.5v2h-3.4
		c0.1,1.8,1.4,3.6,4.1,4.4L490.2,105z M492.5,106h2.5v7h-11.6v-7h2.5v1.6h6.6V106z M492.5,109.5h-6.6v1.5h6.6V109.5z M495,95.7v9.5
		h-2.5v-9.5H495z"/>
	<path class="st1" d="M498.6,102.3c1.2-0.7,1.8-1.5,1.8-2.7c-0.1,0-0.1,0-0.2,0c-0.8,0-1.5-0.6-1.5-1.5c0-1,0.6-1.6,1.5-1.6
		c1.2,0,1.8,0.9,1.8,2.6c0,2-1,3.4-2.9,4.4L498.6,102.3z"/>
	<path class="st1" d="M513.8,103.2c0,3.9-2,6.3-4.6,6.3s-4.6-2.4-4.6-6.3c0-3.8,2-6.2,4.6-6.2S513.8,99.3,513.8,103.2z M507.1,103.2
		c0,2.6,0.9,4,2.2,4s2.2-1.4,2.2-4c0-2.6-0.9-4-2.2-4S507.1,100.6,507.1,103.2z M518.7,95.7v17.6h-2.5V95.7H518.7z"/>
	<path class="st1" d="M524.5,107.3c1.6,0,3.1-0.1,4.9-0.4l0.2,2c-2.2,0.4-4.1,0.4-6.2,0.4h-1.2v-7.1h4.2v-2.8h-4.2v-2h6.6v6.8h-4.2
		V107.3z M536.6,95.7v17.5h-2.4v-8.9h-1.6v8.1h-2.3V96h2.3v6.3h1.6v-6.6H536.6z"/>
	<path class="st1" d="M555,109.2v2h-15.8v-2h3.5v-4.3c-1.3-0.8-2.1-2.1-2.1-3.6c0-2.9,2.8-4.7,6.5-4.7c3.8,0,6.5,1.8,6.5,4.7
		c0,1.5-0.8,2.8-2.1,3.6v4.3H555z M543,101.3c0,1.7,1.6,2.7,4,2.7s4.1-1,4.1-2.7c0-1.7-1.6-2.7-4.1-2.7S543,99.5,543,101.3z
		 M545.1,109.2h3.9v-3.3c-0.6,0.1-1.3,0.2-1.9,0.2s-1.3-0.1-1.9-0.2V109.2z"/>
	<path class="st1" d="M557.1,110c0-1,0.7-1.8,1.7-1.8c1,0,1.7,0.8,1.7,1.8c0,1-0.7,1.8-1.7,1.8C557.9,111.8,557.1,111,557.1,110z"/>
</g>
<g class="st0">
	<path class="st1" d="M8.3,130.6c0,3.2,1.2,6.3,4,7.7l-1.5,2c-1.8-0.9-3.1-2.6-3.8-4.7c-0.8,2.2-2.1,4.1-4,5l-1.5-2
		c2.9-1.4,4.3-4.7,4.3-8v-2.5h2.5V130.6z M18.1,135.5h-2.5v8.7H13v-17.5h2.5v6.7h2.5V135.5z"/>
	<path class="st1" d="M28.8,135.3c-2-0.6-3.3-1.8-4.1-3.3c-0.8,1.7-2.2,3-4.3,3.6l-1.2-2c2.9-0.9,4.2-3.1,4.2-5.2v-1.3h2.5v1.3
		c0,2.1,1.3,4.1,4.1,4.9L28.8,135.3z M34.3,142.1v1.9H22.2v-4.8h9.2v-1h-9.2v-1.9h11.7v4.7h-9.2v1.1H34.3z M33.8,135.6h-2.5v-8.8
		h2.5V135.6z"/>
	<path class="st1" d="M50.8,134.2c0,3.9-2,6.3-4.6,6.3s-4.6-2.4-4.6-6.3c0-3.8,2-6.2,4.6-6.2S50.8,130.3,50.8,134.2z M44,134.2
		c0,2.6,0.9,4,2.2,4c1.3,0,2.2-1.4,2.2-4c0-2.6-0.9-4-2.2-4C44.9,130.2,44,131.6,44,134.2z M55.6,126.7v17.6h-2.5v-17.6H55.6z"/>
	<path class="st1" d="M67.8,128c0,4.7-2.9,8.2-8,9.8l-1-2c3.6-1.1,5.9-3.2,6.4-5.8h-5.5v-2H67.8z M73.6,141.9v2H61.8v-5.7h2.5v3.7
		H73.6z M70.7,131.8v-5.1h2.5v12.8h-2.5v-5.7h-3v-2H70.7z"/>
	<path class="st1" d="M83.7,128.1v4.2h3.6v-4.2h2.5v12.1h-8.6v-12.1H83.7z M83.7,138.2h3.6v-3.9h-3.6V138.2z M94.9,126.7v17.6h-2.5
		v-17.6H94.9z"/>
	<path class="st1" d="M107.2,135h-8.5v-7.4h8.5V135z M112.8,142.1v1.9h-12.1v-4.8h9.2v-1h-9.2v-1.9h11.6v4.7h-9.2v1.1H112.8z
		 M104.8,129.5h-3.6v3.5h3.6V129.5z M112.4,135.5h-2.5v-8.8h2.5V135.5z"/>
	<path class="st1" d="M120.3,136.7c-2.7,0-4.8-1.9-4.8-4.4c0-2.6,2.1-4.4,4.8-4.4s4.7,1.9,4.7,4.4
		C125.1,134.8,123,136.7,120.3,136.7z M120.3,134.5c1.3,0,2.3-0.9,2.3-2.3c0-1.4-1-2.3-2.3-2.3c-1.3,0-2.3,0.8-2.3,2.3
		C118,133.7,119,134.5,120.3,134.5z M130.3,141.9v2h-12.1v-5.9h2.5v3.9H130.3z M129.9,139.3h-2.5v-12.6h2.5V139.3z"/>
	<path class="st1" d="M135.8,138.3c1.8,0,3.2-0.2,4.8-0.5l0.2,2.1c-2,0.4-3.7,0.5-6.2,0.5h-1.2v-11.6h6.7v2h-4.2V138.3z M141.8,127
		h2.3v16.4h-2.3v-8.3h-3v-2h3V127z M147.8,126.7v17.5h-2.4v-17.5H147.8z"/>
	<path class="st1" d="M150.5,145.1c1.5-0.6,2.3-1.5,2.3-2.6c-0.1,0-0.1,0-0.2,0c-0.9,0-1.7-0.6-1.7-1.7c0-1,0.8-1.7,1.8-1.7
		c1.3,0,2,1,2,2.8c0,2.2-1.3,3.9-3.6,4.7L150.5,145.1z"/>
	<path class="st1" d="M164.1,128.1v4.2h3.6v-4.2h2.5v12.1h-8.6v-12.1H164.1z M164.1,138.2h3.6v-3.9h-3.6V138.2z M175.3,126.7v17.6
		h-2.5v-17.6H175.3z"/>
	<path class="st1" d="M187.6,135h-8.5v-7.4h8.5V135z M193.2,142.1v1.9h-12.1v-4.8h9.2v-1h-9.2v-1.9h11.6v4.7h-9.2v1.1H193.2z
		 M185.2,129.5h-3.6v3.5h3.6V129.5z M192.8,135.5h-2.5v-8.8h2.5V135.5z"/>
	<path class="st1" d="M210.8,135.9c-2.5,0.4-4.7,0.5-8.3,0.5H201v-8.6h8.4v2h-5.9v1.3h5.4v1.9h-5.4v1.4c3,0,4.9-0.1,7.1-0.4
		L210.8,135.9z M202.9,137.8h11.6v6.2h-11.6V137.8z M205.4,142h6.7v-2.3h-6.7V142z M214.6,126.7v10.4h-2.5v-10.4H214.6z"/>
	<path class="st1" d="M232.6,141.9v2h-13v-5.2h2.4v-2.3c-1.5,0.1-3,0.1-4.3,0.1l-0.3-2c3.2,0,7.4-0.1,11.1-0.5l0.2,1.8
		c-1.4,0.2-2.8,0.4-4.2,0.5v3.3h-2.4v2.4H232.6z M218.7,130.4c0-1.9,1.8-3.1,4.4-3.1c2.5,0,4.4,1.3,4.4,3.1c0,1.9-1.8,3.1-4.4,3.1
		C220.5,133.6,218.7,132.3,218.7,130.4z M221.1,130.4c0,0.9,0.8,1.3,2,1.3c1.2,0,2-0.4,2-1.3c0-0.9-0.8-1.3-2-1.3
		C221.9,129.1,221.1,129.6,221.1,130.4z M229.7,136.9v-10.2h2.5V140h-2.5v-1.4h-3.3v-1.7H229.7z"/>
	<path class="st1" d="M247.3,133.1c-0.4,2-1.9,3.2-3.9,3.2c-2.3,0-4-1.7-4-4.3c0-2.5,1.7-4.3,4-4.3c2,0,3.5,1.3,3.9,3.3h1.1V127h2.3
		v10.1h-2.3v-4H247.3z M243.4,134.2c1,0,1.8-0.8,1.8-2.2c0-1.4-0.7-2.2-1.8-2.2s-1.7,0.8-1.7,2.2
		C241.6,133.4,242.3,134.2,243.4,134.2z M242.2,137.9h12v6.4h-2.5v-4.4h-9.5V137.9z M254.2,126.7v10.4h-2.4v-10.4H254.2z"/>
	<path class="st1" d="M264.1,135.4c-1.4-0.6-2.4-1.7-3-3c-0.6,1.5-1.6,2.7-3.1,3.5l-1.4-1.9c2.4-1.1,3.3-3.3,3.3-5.5v-1.1h2.5v1.1
		c0,2.1,0.8,4.1,3,5L264.1,135.4z M272.3,142.1v1.9h-12.4v-4.7h9.4v-1h-9.4v-1.9h11.9v4.7h-9.4v1H272.3z M265.8,131.4h-2v-2h2V127
		h2.3v8.7h-2.3V131.4z M271.7,135.8h-2.4v-9.1h2.4V135.8z"/>
	<path class="st1" d="M283.6,131.1c0,2.8,0.3,5.8,2.6,7.6l-1.5,1.8c-1.1-0.9-1.8-2.2-2.3-3.7c-0.4,1.6-1.2,3-2.4,3.9
		c-1.2-0.9-1.9-2.3-2.4-3.9c-0.4,1.5-1.1,2.7-2.1,3.6l-1.6-1.7c2.2-1.7,2.5-4.8,2.5-7.6v-2.9h2.4v2.9c0,2,0.2,4.3,1.2,6.1
		c1-1.8,1.2-4,1.2-6.1v-2.9h2.4V131.1z M289.2,126.7v17.5h-2.5v-17.5H289.2z"/>
	<path class="st1" d="M300.8,128.5c0,5.2-2,9.7-7.8,12.7l-1.4-1.9c4.1-2.1,6.2-4.9,6.7-8.7h-5.7v-2H300.8z M307.9,135.5h-2.5v8.7
		h-2.5v-17.5h2.5v6.7h2.5V135.5z"/>
	<path class="st1" d="M323.8,130.3h-10.3v-2h3.9v-1.7h2.5v1.7h3.9V130.3z M318.7,137.1c-2.5,0-4.3-1.3-4.3-3.2
		c0-1.9,1.8-3.1,4.3-3.1s4.3,1.3,4.3,3.1C323,135.8,321.2,137.1,318.7,137.1z M315.9,138h11.4v6h-11.4V138z M318.7,135.2
		c1.1,0,1.9-0.4,1.9-1.3c0-0.9-0.8-1.3-1.9-1.3s-1.9,0.4-1.9,1.3C316.8,134.8,317.6,135.2,318.7,135.2z M318.4,142h6.5V140h-6.5V142
		z M329.6,133.1h-2.3v4.2h-2.5v-10.5h2.5v4.3h2.3V133.1z"/>
	<path class="st1" d="M335.3,128.7c0,4.4-0.4,8.4-2.6,11.9l-1.9-1.1c1.7-2.7,2.3-5.4,2.4-8.8h-1.8v-2H335.3z M340.5,127.1h2.3v16.4
		h-2.3v-8.2h-1.7c-0.4,2.1-1,4.2-2.2,6.1l-1.9-1.1c1.9-3,2.3-6,2.4-9.6h-1.3v-2h3.4c0,1.6,0,3.1-0.2,4.6h1.4V127.1z M346.2,126.7
		v17.5h-2.4v-17.5H346.2z"/>
	<path class="st1" d="M358.3,129.4h2.9v2h-8.4v-2h3v-2.2h2.5V129.4z M360.9,136.3c0,2.4-1.6,4.2-3.8,4.2c-2.2,0-3.8-1.7-3.8-4.2
		c0-2.5,1.6-4.2,3.8-4.2C359.3,132.1,360.9,133.8,360.9,136.3z M358.7,136.3c0-1.3-0.7-2.1-1.6-2.1c-1,0-1.6,0.8-1.6,2.1
		s0.7,2.1,1.6,2.1C358,138.4,358.7,137.6,358.7,136.3z M367.8,126.7v17.5h-2.4v-8.3h-1.3v7.6h-2.3V127h2.3v6.8h1.3v-7.1H367.8z"/>
	<path class="st1" d="M386.1,138.4h-6.7v5.9h-2.5v-5.9h-6.6v-2h15.8V138.4z M371.1,133.4c3.6-0.4,5.4-2.1,5.7-3.8h-5v-2h13v2h-5
		c0.2,1.7,2.1,3.4,5.6,3.8l-0.9,2c-3.1-0.4-5.2-1.7-6.3-3.5c-1,1.8-3.2,3.1-6.2,3.5L371.1,133.4z"/>
	<path class="st1" d="M394.4,130.6c0,3.4,1.3,6.6,4.2,7.9l-1.5,2c-1.9-1-3.2-2.7-3.9-4.9c-0.8,2.3-2.1,4.1-4,5l-1.6-2
		c3-1.3,4.3-4.7,4.3-8.1v-2.5h2.5V130.6z M402.5,126.7v17.5h-2.6v-7.7h-3.1v-2.1h3.1v-2.2h-3.1v-2.1h3.1v-3.5H402.5z"/>
	<path class="st1" d="M411.8,130.6c0,3.3,1.3,6.5,4.2,7.8l-1.5,2c-1.9-0.9-3.2-2.6-3.9-4.7c-0.8,2.2-2.1,4.1-4,5.1l-1.6-2
		c3-1.4,4.3-4.8,4.3-8.1v-2.5h2.5V130.6z M419.9,126.7v17.6h-2.5v-10h-3.4v-2h3.4v-5.5H419.9z"/>
	<path class="st1" d="M433.9,138.6c1.4-0.1,2.9-0.2,4.3-0.4l0.2,1.8c-3.8,0.8-7.9,0.8-10.9,0.8l-0.3-2c1.3,0,2.8,0,4.3,0v-2.5
		c-2.1-0.5-3.6-2.1-3.6-4.2c0-2.5,2.1-4.3,4.8-4.3c2.7,0,4.8,1.8,4.8,4.3c0,2.1-1.5,3.7-3.6,4.2V138.6z M432.7,134.2
		c1.3,0,2.4-0.8,2.4-2.2c0-1.4-1-2.2-2.4-2.2c-1.3,0-2.4,0.8-2.4,2.2C430.3,133.4,431.3,134.2,432.7,134.2z M441.6,126.7v17.6h-2.5
		v-17.6H441.6z"/>
	<path class="st1" d="M460.4,135.4v2h-15.8v-2h6.7v-1h-4.7v-4.6h9.5v-0.9h-9.5V127h12v4.5H449v1h9.8v1.9h-5.1v1H460.4z M456,138h2.5
		v6h-12v-6h2.5v1.1h7V138z M456,141h-7v1.1h7V141z"/>
	<path class="st1" d="M471.6,137.2c-1.9-0.6-3.3-1.9-4.1-3.4c-0.8,1.7-2.2,3.1-4.2,3.7l-1.3-2c2.9-0.9,4.2-3.2,4.2-5.4v-0.2h-3.5v-2
		h9.5v2h-3.5v0.2c0,2.1,1.3,4.2,4.1,5.1L471.6,137.2z M477,141.9v2h-12.1v-5.7h2.5v3.7H477z M476.5,139.4H474v-12.7h2.5V139.4z"/>
	<path class="st1" d="M488.6,135.7c-2.7,0-4.7-1.7-4.7-4.1c0-2.4,2-4.1,4.7-4.1c2.7,0,4.7,1.7,4.7,4.1
		C493.3,134,491.3,135.7,488.6,135.7z M487.8,141.7c0.9-0.1,1.8-0.2,2.7-0.5l0.3,2c-1.4,0.5-2.8,0.6-4.5,0.6h-1V137h2.4V141.7z
		 M488.6,133.7c1.3,0,2.2-0.8,2.2-2c0-1.3-1-2.1-2.2-2.1c-1.3,0-2.2,0.8-2.2,2.1C486.4,132.9,487.3,133.7,488.6,133.7z M495.9,137.1
		h3.1v1.8h-8.8v-1.8h3.2v-1.2h2.4V137.1z M498,141.8c0,1.5-1.4,2.5-3.4,2.5c-2,0-3.4-0.9-3.4-2.5c0-1.5,1.4-2.5,3.4-2.5
		C496.6,139.3,498,140.3,498,141.8z M495.8,141.8c0-0.5-0.5-0.8-1.2-0.8c-0.7,0-1.2,0.2-1.2,0.8c0,0.5,0.5,0.8,1.2,0.8
		C495.3,142.5,495.8,142.3,495.8,141.8z M499.9,130.3v2.1h-2.3v2.9h-2.5v-8.6h2.5v3.6H499.9z"/>
	<path class="st1" d="M510.6,134.2c0,3.9-2,6.3-4.6,6.3c-2.7,0-4.6-2.4-4.6-6.3c0-3.8,1.9-6.2,4.6-6.2
		C508.6,127.9,510.6,130.3,510.6,134.2z M508.2,134.2c0-2.6-0.9-4-2.2-4c-1.3,0-2.2,1.4-2.2,4c0,2.6,0.9,4,2.2,4
		C507.3,138.2,508.2,136.8,508.2,134.2z M517.5,135.4H515v8.8h-2.5v-17.5h2.5v6.6h2.5V135.4z"/>
	<path class="st1" d="M534.6,140.2v2h-15.8v-2h3.5v-4.3c-1.3-0.8-2.1-2.1-2.1-3.6c0-2.9,2.8-4.7,6.5-4.7c3.8,0,6.5,1.8,6.5,4.7
		c0,1.5-0.8,2.8-2.1,3.6v4.3H534.6z M522.6,132.3c0,1.7,1.6,2.7,4,2.7s4.1-1,4.1-2.7c0-1.7-1.6-2.7-4.1-2.7S522.6,130.5,522.6,132.3
		z M524.8,140.2h3.9v-3.3c-0.6,0.1-1.3,0.2-1.9,0.2s-1.3-0.1-1.9-0.2V140.2z"/>
	<path class="st1" d="M536.8,141c0-1,0.7-1.8,1.7-1.8c1,0,1.7,0.8,1.7,1.8c0,1-0.7,1.8-1.7,1.8C537.5,142.8,536.8,142,536.8,141z"/>
	<path class="st1" d="M546.1,128.1h2.3l3.3,8.5h-2.3l-1.1-3.1l-1-2.9h-0.1l-1,2.9l-1.1,3.1h-2.3L546.1,128.1z"/>
	<path class="st1" d="M557.2,128.1h2.3l3.3,8.5h-2.3l-1.1-3.1l-1-2.9h-0.1l-1,2.9l-1.1,3.1h-2.3L557.2,128.1z"/>
	<path class="st1" d="M578.5,131.6v2H567v-2h4.5v-2.2h2.5v2.2H578.5z M577.4,137.9c0,2-1.9,3.4-4.6,3.4s-4.6-1.4-4.6-3.4
		c0-2,2-3.4,4.6-3.4S577.4,135.9,577.4,137.9z M574.8,137.9c0-0.9-0.9-1.3-2-1.3c-1.2,0-2,0.4-2,1.3c0,0.9,0.9,1.3,2,1.3
		C573.9,139.2,574.8,138.8,574.8,137.9z"/>
</g>
<g class="st0">
	<path class="st1" d="M81.1,168.6c-1.9-0.6-3.2-1.9-4-3.5c-0.8,1.7-2.1,3.1-4.2,3.8l-1.3-2c2.9-0.9,4.1-3.2,4.1-5.4v-0.2h-3.4v-2
		h9.4v2h-3.4v0.2c0,2.1,1.2,4.2,4,5.1L81.1,168.6z M86.8,173.3v2H74.8v-5.5h2.5v3.5H86.8z M83.9,162.6v-4.5h2.5v12.8h-2.5v-6.2h-2.7
		v-2H83.9z"/>
	<path class="st1" d="M94.7,163.4c0,2.6,0.9,5.3,3.4,6.6l-1.3,1.9c-1.5-0.8-2.5-2.2-3.2-3.9c-0.6,1.8-1.6,3.4-3.2,4.3l-1.4-1.9
		c2.5-1.5,3.4-4.3,3.4-7V163h-2.7v-2h2.7v-2.4h2.4v2.4h2.7v2h-2.7V163.4z M98.3,158.3h2.3v16.4h-2.3v-8.1h-2v-2h2V158.3z M104.2,158
		v17.5h-2.4V158H104.2z"/>
	<path class="st1" d="M116,168c-1.9-0.6-3.2-1.9-4-3.4c-0.8,1.7-2.1,3.1-4.2,3.8l-1.3-2c2.8-1,4.1-3.2,4.1-5.3h-3.4v-2h9.4v2h-3.4
		c0,2,1.3,4.1,4,5L116,168z M109.4,169.2h11.9v6.3h-2.5v-4.3h-9.4V169.2z M121.3,158.1v10.4h-2.5v-4.2h-2.6v-2h2.6v-4.2H121.3z"/>
	<path class="st1" d="M140,171.4v2.1h-15.8v-2.1H140z M138.6,164c0,3-2.8,5.1-6.5,5.1c-3.7,0-6.5-2-6.5-5.1c0-3.1,2.8-5.1,6.5-5.1
		C135.8,158.9,138.6,160.9,138.6,164z M128,164c0,1.9,1.7,3,4.1,3c2.4,0,4.1-1.1,4.1-3c0-1.9-1.7-3-4.1-3
		C129.7,161,128,162.1,128,164z"/>
	<path class="st1" d="M157.5,171.6v2.1h-15.8v-2.1h6.6V169h-4.8v-5.9h9.8v-1.9h-9.8v-2h12.3v5.8H146v2h10.1v2h-5.3v2.6H157.5z"/>
	<path class="st1" d="M179.3,165.3v2h-15.8v-2h6.6v-1.6h2.5v1.6H179.3z M164.1,162.7c3.2-0.2,4.9-1.2,5.4-2.3h-4.6v-1.9h12.9v1.9
		h-4.6c0.5,1.1,2.2,2.1,5.4,2.3l-0.8,1.9c-3.3-0.3-5.5-1.4-6.4-3c-0.9,1.6-3.1,2.8-6.4,3L164.1,162.7z M167.8,173.6h10v1.9h-12.5
		v-4.6h9.6v-1h-9.6v-1.8h12.1v4.5h-9.6V173.6z"/>
	<path class="st1" d="M195.6,158.1v9.4h-2.5v-3.5h-2.8c-0.5,1.9-2.3,3.2-4.5,3.2c-2.6,0-4.6-1.7-4.6-4.2s2-4.2,4.6-4.2
		c2.2,0,4,1.3,4.5,3.1h2.8v-3.9H195.6z M188,163c0-1.3-0.9-2.1-2.2-2.1c-1.3,0-2.2,0.8-2.2,2.1c0,1.3,0.9,2.1,2.2,2.1
		C187.1,165,188,164.3,188,163z M193.1,168.2h2.5v7.1H184v-7.1h2.5v1.7h6.6V168.2z M193.1,171.8h-6.6v1.6h6.6V171.8z"/>
	<path class="st1" d="M212.1,168.6c-1.9-0.6-3.2-1.9-4-3.5c-0.8,1.7-2.1,3.1-4.2,3.8l-1.3-2c2.9-0.9,4.1-3.2,4.1-5.4v-0.2h-3.4v-2
		h9.4v2h-3.4v0.2c0,2.1,1.2,4.2,4,5.1L212.1,168.6z M217.8,173.3v2h-11.9v-5.5h2.5v3.5H217.8z M214.9,162.6v-4.5h2.5v12.8h-2.5v-6.2
		h-2.7v-2H214.9z"/>
	<path class="st1" d="M227,162c0,3.2,1.4,6.4,4.4,7.7l-1.4,2c-2-0.9-3.4-2.6-4.1-4.8c-0.8,2.3-2.2,4.2-4.3,5.2L220,170
		c3.1-1.3,4.5-4.7,4.5-8.1v-2.5h2.5V162z M234.7,158v17.6h-2.5V158H234.7z"/>
	<path class="st1" d="M251.2,158.3h2.3v16.4h-2.3v-5.4h-2c-0.6,1.7-1.8,2.7-3.2,2.7c-2.3,0-3.8-2.4-3.8-6.4c0-4,1.5-6.3,3.8-6.3
		c1.4,0,2.5,0.9,3.2,2.6h2V158.3z M247.5,165.6c0-2.7-0.6-4-1.5-4c-1,0-1.6,1.3-1.6,4c0,2.7,0.6,4,1.6,4
		C246.9,169.6,247.5,168.3,247.5,165.6z M251.2,167.3v-3.4h-1.5c0.1,0.5,0.1,1.1,0.1,1.7c0,0.6,0,1.2-0.1,1.7H251.2z M257,158v17.5
		h-2.4V158H257z"/>
	<path class="st1" d="M268.7,168.3c-1.9-0.6-3.2-1.9-4-3.5c-0.8,1.7-2.2,3.1-4.2,3.8l-1.3-2c2.9-0.9,4.2-3.3,4.2-5.7v-1.9h2.5v1.9
		c0,2.2,1.2,4.4,4,5.3L268.7,168.3z M264.5,173.3h9.4v2H262v-5.6h2.5V173.3z M275.6,163.1v2.1h-2.3v5.7h-2.5v-12.8h2.5v5.1H275.6z"
		/>
	<path class="st1" d="M292.8,165.1v2H277v-2H292.8z M278.5,161.3c0-1.9,2.3-3,6.3-3c4,0,6.3,1.1,6.3,3c0,1.9-2.3,3-6.3,3
		C280.9,164.3,278.5,163.2,278.5,161.3z M281.3,173.5h10v1.9h-12.5v-4.6h9.6v-0.9h-9.6V168h12.1v4.5h-9.6V173.5z M281.1,161.3
		c0,0.8,1.2,1.2,3.7,1.2c2.5,0,3.7-0.3,3.7-1.2c0-0.8-1.2-1.1-3.7-1.1C282.3,160.1,281.1,160.5,281.1,161.3z"/>
	<path class="st1" d="M309.4,168c-3.6,0.7-7.7,0.7-10.7,0.8l-0.2-2c1,0,2.1,0,3.2,0v-3.4h2.5v3.3c1.7-0.1,3.5-0.2,5.1-0.4L309.4,168
		z M305.7,165.3c0.3-1.6,0.4-2.9,0.4-4h-6.5v-2h9v1.1c0,1.2,0,2.9-0.4,5.1L305.7,165.3z M303.6,173.3h9.7v2h-12.2V170h2.5V173.3z
		 M314.8,163.4v2.1h-2.1v5.7h-2.5V158h2.5v5.3H314.8z"/>
	<path class="st1" d="M319.7,169.5c2.7,0,4.9-0.2,7.3-0.6l0.3,2c-2.8,0.5-5.4,0.6-8.6,0.6h-1.6v-7.2h5.7v-2.8h-5.7v-2h8.3v6.8h-5.7
		V169.5z M330.8,158v17.6h-2.5V158H330.8z"/>
	<path class="st1" d="M340,160.6h3.8v2h-10.2v-2h3.9v-2.3h2.5V160.6z M343.2,167.8c0,2.5-1.9,4.2-4.4,4.2c-2.5,0-4.4-1.7-4.4-4.2
		c0-2.4,1.9-4.2,4.4-4.2C341.3,163.6,343.2,165.4,343.2,167.8z M340.8,167.8c0-1.3-0.9-2.1-2-2.1s-2.1,0.8-2.1,2.1s0.9,2.1,2.1,2.1
		S340.8,169.1,340.8,167.8z M350,167h-2.5v8.6h-2.5v-17.5h2.5v6.8h2.5V167z"/>
	<path class="st1" d="M367,166.6v2h-15.8v-2H367z M355.5,173.2h9.9v2H353V170h2.5V173.2z M365.3,164.8h-12.1v-6.1h2.5v4.1h9.6V164.8
		z"/>
	<path class="st1" d="M387.6,158.1v10.4h-2.5v-2.2h-3.8c-0.8,0.9-2.1,1.4-3.5,1.4c-2.6,0-4.6-1.8-4.6-4.3c0-2.5,2-4.3,4.6-4.3
		c1.4,0,2.7,0.6,3.5,1.4h3.8v-2.4H387.6z M380.1,163.3c0-1.4-1-2.2-2.2-2.2c-1.3,0-2.2,0.8-2.2,2.2c0,1.4,0.9,2.2,2.2,2.2
		C379.1,165.5,380.1,164.7,380.1,163.3z M375.7,169.2h11.9v6.4h-2.5v-4.4h-9.4V169.2z M385.1,164.2v-1.8h-2.8
		c0.1,0.3,0.1,0.6,0.1,0.9c0,0.3,0,0.6-0.1,0.9H385.1z"/>
	<path class="st1" d="M400.8,161.2h-10.3v-1.9h3.9v-1.4h2.5v1.4h3.9V161.2z M395.6,167.4c-2.6,0-4.3-1.1-4.3-2.8
		c0-1.8,1.7-2.9,4.3-2.9c2.6,0,4.3,1.1,4.3,2.9C399.9,166.3,398.2,167.4,395.6,167.4z M395.2,173.6h9.5v1.8h-12v-4.5h9.1V170h-9.1
		v-1.8h11.6v4.4h-9V173.6z M395.6,165.6c1.2,0,1.9-0.4,1.9-1.1c0-0.7-0.7-1.1-1.9-1.1c-1.2,0-1.9,0.4-1.9,1.1
		C393.7,165.2,394.5,165.6,395.6,165.6z M406.6,161.8v2.1h-2.3v3.7h-2.5V158h2.5v3.7H406.6z"/>
	<path class="st1" d="M423.8,165.1v2H408v-2H423.8z M409.5,161.3c0-1.9,2.3-3,6.3-3c4,0,6.3,1.1,6.3,3c0,1.9-2.3,3-6.3,3
		C411.9,164.3,409.5,163.2,409.5,161.3z M412.3,173.5h10v1.9h-12.5v-4.6h9.6v-0.9h-9.6V168h12.1v4.5h-9.6V173.5z M412.1,161.3
		c0,0.8,1.2,1.2,3.7,1.2c2.5,0,3.7-0.3,3.7-1.2c0-0.8-1.2-1.1-3.7-1.1C413.3,160.1,412.1,160.5,412.1,161.3z"/>
	<path class="st1" d="M436,160.6h3.8v2h-10.2v-2h3.9v-2.3h2.5V160.6z M439.2,167.8c0,2.5-1.9,4.2-4.4,4.2c-2.5,0-4.4-1.7-4.4-4.2
		c0-2.4,1.9-4.2,4.4-4.2C437.3,163.6,439.2,165.4,439.2,167.8z M436.8,167.8c0-1.3-0.9-2.1-2-2.1s-2.1,0.8-2.1,2.1s0.9,2.1,2.1,2.1
		S436.8,169.1,436.8,167.8z M446,167h-2.5v8.6H441v-17.5h2.5v6.8h2.5V167z"/>
	<path class="st1" d="M463.1,171.4v2h-15.8v-2h5.6v-6h2.5v6H463.1z M458.3,169.3c0.7-3.3,0.7-5.7,0.7-7.8h-10.2v-2h12.7v1.7
		c0,2.2,0,4.7-0.7,8.4L458.3,169.3z"/>
	<path class="st1" d="M469.3,163.1c0-2.5,2.1-4.2,4.8-4.2c2.7,0,4.8,1.7,4.8,4.2c0,2.5-2,4.2-4.8,4.2
		C471.3,167.3,469.3,165.6,469.3,163.1z M481.8,169.3c0,1.8,1,3.5,3.3,4.2l-1.2,1.8c-1.7-0.6-2.7-1.6-3.3-2.9
		c-0.6,1.3-1.6,2.5-3.2,3.1c-1.6-0.6-2.6-1.7-3.2-3.1c-0.6,1.3-1.7,2.3-3.2,2.9l-1.2-1.8c2.3-0.8,3.3-2.5,3.3-4.2v-0.6h2.4v0.6
		c0,1.4,0.6,2.8,1.9,3.8c1.4-1,2-2.5,2-3.8v-0.6h2.5V169.3z M471.7,163.1c0,1.3,1,2.1,2.3,2.1c1.3,0,2.3-0.8,2.3-2.1s-1-2.1-2.3-2.1
		C472.7,161,471.7,161.8,471.7,163.1z M483.6,168H481v-9.9h2.5V168z"/>
	<path class="st1" d="M502.3,171.4v2h-15.8v-2h5.6v-6h2.5v6H502.3z M497.6,169.3c0.7-3.3,0.7-5.7,0.7-7.8h-10.2v-2h12.7v1.7
		c0,2.2,0,4.7-0.7,8.4L497.6,169.3z"/>
	<path class="st1" d="M504.2,176.4c1.5-0.6,2.3-1.5,2.3-2.6c-0.1,0-0.1,0-0.2,0c-0.9,0-1.7-0.6-1.7-1.7c0-1,0.8-1.7,1.8-1.7
		c1.3,0,2,1,2,2.8c0,2.2-1.3,3.9-3.6,4.7L504.2,176.4z"/>
</g>
<g class="st0">
	<path class="st1" d="M155.3,190.7h2.3V207h-2.3v-5.7h-2.4v-2h2.4v-2.4h-2.1c-0.8,2.9-2.5,5.3-5.8,7.3l-1.4-1.7
		c3.5-2.1,5-4.6,5.3-8.1H147v-2h6.8c0,0.9-0.1,1.7-0.2,2.5h1.7V190.7z M161.3,190.3v17.5h-2.4v-17.5H161.3z"/>
	<path class="st1" d="M172.9,200.6c-1.9-0.6-3.2-1.9-4-3.5c-0.8,1.7-2.2,3.1-4.2,3.8l-1.3-2c2.9-0.9,4.2-3.3,4.2-5.7v-1.9h2.5v1.9
		c0,2.2,1.2,4.4,4,5.3L172.9,200.6z M168.7,205.5h9.4v2h-11.9v-5.6h2.5V205.5z M179.8,195.4v2.1h-2.3v5.7H175v-12.8h2.5v5.1H179.8z"
		/>
	<path class="st1" d="M195,198.9c-2-0.6-3.3-1.8-4.1-3.3c-0.8,1.7-2.2,3-4.3,3.6l-1.2-2c2.9-0.9,4.2-3.1,4.2-5.2v-1.3h2.5v1.3
		c0,2.1,1.3,4.1,4.1,4.9L195,198.9z M200.5,205.7v1.9h-12.1v-4.8h9.2v-1h-9.2v-1.9H200v4.7h-9.2v1.1H200.5z M200,199.1h-2.5v-8.8
		h2.5V199.1z"/>
	<path class="st1" d="M218.8,201.9h-6.7v6h-2.5v-6H203v-2h15.8V201.9z M217.3,198.5c-3.1-0.5-5.2-1.9-6.4-3.8
		c-1.1,1.9-3.3,3.3-6.4,3.8l-0.9-2c4-0.6,6-2.8,6-4.9v-0.8h2.7v0.8c0,2,2,4.3,6,4.9L217.3,198.5z"/>
	<path class="st1" d="M231.1,192.9h3.8v2h-10.2v-2h3.9v-2.3h2.5V192.9z M234.2,200c0,2.5-1.9,4.2-4.4,4.2c-2.5,0-4.4-1.7-4.4-4.2
		c0-2.4,1.9-4.2,4.4-4.2C232.4,195.9,234.2,197.6,234.2,200z M231.9,200c0-1.3-0.9-2.1-2-2.1s-2.1,0.8-2.1,2.1s0.9,2.1,2.1,2.1
		S231.9,201.4,231.9,200z M241,199.2h-2.5v8.6H236v-17.5h2.5v6.8h2.5V199.2z"/>
	<path class="st1" d="M249,195c0,2.8,1.4,5.9,4.3,7.1l-1.4,2c-2-0.9-3.4-2.6-4.2-4.7c-0.8,2.3-2.2,4.2-4.2,5.1l-1.4-2
		c2.9-1.3,4.4-4.5,4.4-7.5v-1h-3.6V192h9.8v2.1H249V195z M256.8,190.3v17.5h-2.5v-17.5H256.8z"/>
	<path class="st1" d="M268.8,199.3c-2.7,0-4.7-1.7-4.7-4.1c0-2.4,2-4.1,4.7-4.1s4.7,1.7,4.7,4.1
		C273.5,197.6,271.5,199.3,268.8,199.3z M268,205.3c0.9-0.1,1.8-0.2,2.7-0.5l0.3,2c-1.4,0.5-2.8,0.6-4.5,0.6h-1v-6.8h2.4V205.3z
		 M268.8,197.3c1.3,0,2.2-0.8,2.2-2c0-1.3-0.9-2.1-2.2-2.1c-1.3,0-2.2,0.8-2.2,2.1C266.6,196.5,267.6,197.3,268.8,197.3z
		 M276.1,200.7h3.1v1.8h-8.8v-1.8h3.2v-1.2h2.4V200.7z M278.2,205.3c0,1.5-1.4,2.5-3.4,2.5s-3.4-0.9-3.4-2.5c0-1.5,1.4-2.5,3.4-2.5
		S278.2,203.8,278.2,205.3z M276,205.3c0-0.5-0.5-0.8-1.2-0.8c-0.7,0-1.2,0.2-1.2,0.8c0,0.5,0.5,0.8,1.2,0.8
		C275.5,206.1,276,205.9,276,205.3z M280.1,193.9v2.1h-2.3v2.9h-2.5v-8.6h2.5v3.6H280.1z"/>
	<path class="st1" d="M297.4,198.8v2h-15.8v-2H297.4z M285.8,205.4h9.9v2h-12.4v-5.2h2.5V205.4z M295.6,197h-12.1v-6.1h2.5v4.1h9.6
		V197z"/>
	<path class="st1" d="M312.4,191.6c0,4.8-2.5,7.9-7.8,9.6l-1-2c3.9-1.2,5.7-3.1,6.1-5.6h-5.2v-2H312.4z M313.3,201.2
		c0,2,1.7,4,5.5,4.6l-1,2c-2.7-0.5-4.7-1.7-5.7-3.4c-1,1.7-3,2.9-5.7,3.4l-1-2c3.7-0.6,5.5-2.6,5.5-4.6v-0.6h2.5V201.2z M315.4,197
		h-3v-2h3v-4.6h2.5v11.6h-2.5V197z"/>
	<path class="st1" d="M330.5,197.7c0,3.9-2,6.3-4.6,6.3s-4.6-2.4-4.6-6.3c0-3.8,2-6.2,4.6-6.2S330.5,193.9,330.5,197.7z
		 M323.7,197.7c0,2.6,0.9,4,2.2,4c1.3,0,2.2-1.4,2.2-4c0-2.6-0.9-4-2.2-4C324.6,193.8,323.7,195.2,323.7,197.7z M335.3,190.3v17.6
		h-2.5v-17.6H335.3z"/>
	<path class="st1" d="M358.4,198.8v2h-15.8v-2h6.6v-1.6h-4.7V191h11.9v6.2h-4.7v1.6H358.4z M344.3,202.1h12.2v5.8H354v-3.8h-9.7
		V202.1z M347,195.2h6.9v-2.3H347V195.2z"/>
	<path class="st1" d="M375.9,203.9v2h-15.9v-2h3.9v-3.3h-2.6v-2h2.3v-4.9h-2.4v-2h13.3v2h-2.4v4.9h2.3v2H372v3.3H375.9z
		 M366.2,198.6h3.6v-4.9h-3.6V198.6z M366.5,203.9h3v-3.3h-3V203.9z"/>
	<path class="st1" d="M387.3,195.1c0,2.4-2,4.1-4.7,4.1s-4.8-1.7-4.8-4.1c0-2.4,2.1-4.1,4.8-4.1S387.3,192.8,387.3,195.1z
		 M380.3,195.1c0,1.3,1,2.1,2.3,2.1s2.3-0.8,2.3-2.1c0-1.3-1-2.1-2.3-2.1S380.3,193.9,380.3,195.1z M383,200.5v1.6h6.6v-1.6h2.5v7.1
		h-11.6v-7.1H383z M383,205.6h6.6V204H383V205.6z M392.1,190.3v9.4h-2.5v-9.4H392.1z"/>
	<path class="st1" d="M398.4,201.3c2.3-0.1,4.8-0.2,7.4-0.8l0.3,2.1c-3,0.6-5.9,0.8-8.5,0.8H396V192h2.5V201.3z M409.7,190.3v17.5
		h-2.5v-17.5H409.7z"/>
	<path class="st1" d="M415.7,201.5c2.5,0,4.6-0.2,6.8-0.6l0.2,2.1c-2.6,0.5-5,0.6-8.1,0.6h-1.5v-11.7h8.2v2h-5.7V201.5z
		 M428.8,198.8h-2.5v9h-2.5v-17.5h2.5v6.5h2.5V198.8z"/>
	<path class="st1" d="M430.5,204.6c0-1,0.7-1.8,1.7-1.8c1,0,1.7,0.8,1.7,1.8c0,1-0.7,1.8-1.7,1.8
		C431.3,206.4,430.5,205.6,430.5,204.6z"/>
</g>
<g class="st0">
	<path class="st1" d="M117.3,223.4c0,3.3,1.3,6.5,4.2,7.8l-1.5,2c-1.9-0.9-3.2-2.6-3.9-4.7c-0.8,2.2-2.1,4.1-4,5.1l-1.6-2
		c3-1.4,4.3-4.8,4.3-8.1v-2.5h2.5V223.4z M125.4,219.5v17.6h-2.5v-10h-3.4v-2h3.4v-5.5H125.4z"/>
	<path class="st1" d="M137.4,228.4v1.1h4.7v4.5h-9.6v1h10v1.9h-12.5v-4.6h9.6v-0.9H130v-1.8h4.8v-1.1h-6.6v-2h15.8v2H137.4z
		 M129.8,222.7c0-1.9,2.3-3,6.3-3c4,0,6.3,1.1,6.3,3c0,1.9-2.3,3-6.3,3C132.2,225.7,129.8,224.6,129.8,222.7z M132.4,222.7
		c0,0.8,1.2,1.2,3.7,1.2c2.5,0,3.7-0.3,3.7-1.2c0-0.8-1.2-1.1-3.7-1.1C133.6,221.5,132.4,221.9,132.4,222.7z"/>
	<path class="st1" d="M160.4,219.5v17.6h-2.5v-6.5h-3.6c-0.8,1.7-2.1,2.7-3.8,2.7c-2.6,0-4.5-2.4-4.5-6.3c0-3.8,1.9-6.2,4.5-6.2
		c1.6,0,2.9,0.9,3.7,2.4h3.7v-3.6H160.4z M152.7,227c0-2.6-0.9-4-2.2-4c-1.3,0-2.1,1.4-2.1,4c0,2.6,0.9,4,2.1,4
		C151.8,231,152.7,229.6,152.7,227z M157.9,228.5v-3.4h-3c0.1,0.6,0.2,1.2,0.2,1.9c0,0.6,0,1.1-0.1,1.6H157.9z"/>
	<path class="st1" d="M169.6,224.3c0,2.7,1.4,5.8,4.3,7.1l-1.4,2c-1.9-0.9-3.3-2.6-4.1-4.7c-0.8,2.3-2.2,4.2-4.2,5.1l-1.4-2
		c2.9-1.3,4.3-4.6,4.3-7.5v-1h-3.6v-2.1h9.6v2.1h-3.5V224.3z M179.4,228.3h-2.5v8.8h-2.5v-17.5h2.5v6.7h2.5V228.3z"/>
	<path class="st1" d="M183.6,231c1.6,0,3.1-0.1,4.8-0.4l0.2,2c-2.1,0.4-4,0.5-6.2,0.5h-1.2v-11.5h6.5v2h-4V231z M195.7,219.5V237
		h-2.4v-8.8h-1.6v7.9h-2.3v-16.4h2.3v6.4h1.6v-6.7H195.7z"/>
	<path class="st1" d="M208.5,223.1h-10.3v-2h3.9v-1.6h2.5v1.6h3.9V223.1z M203.3,230c-2.5,0-4.3-1.3-4.3-3.2c0-1.9,1.8-3.2,4.3-3.2
		c2.5,0,4.3,1.3,4.3,3.2C207.6,228.7,205.8,230,203.3,230z M200.3,231.2h11.7v5.8h-2.5v-3.8h-9.2V231.2z M203.3,228.1
		c1.1,0,1.9-0.4,1.9-1.3c0-0.9-0.8-1.3-1.9-1.3c-1.1,0-1.9,0.4-1.9,1.3C201.4,227.7,202.2,228.1,203.3,228.1z M214.3,226.1h-2.3v4.4
		h-2.5v-11h2.5v4.5h2.3V226.1z"/>
	<path class="st1" d="M231.5,232.9v2h-15.8v-2h3.3v-5.5h2.5v5.5h1.9v-5.5h2.5v5.5H231.5z M226.9,230.6c0.6-3.2,0.6-5.5,0.6-7.5
		h-10.4v-2H230v1.7c0,2.1,0,4.6-0.6,8.1L226.9,230.6z"/>
	<path class="st1" d="M237.1,233.7l1.3-1.8c0.8,0.8,1.9,1.4,3.1,1.4c1.4,0,2.4-0.7,2.4-2c0-1.4-0.8-2.2-3.9-2.2v-2
		c2.6,0,3.4-0.9,3.4-2.1c0-1.1-0.7-1.7-1.9-1.8c-1,0-1.8,0.5-2.7,1.3l-1.4-1.7c1.2-1.1,2.6-1.7,4.2-1.7c2.7,0,4.6,1.3,4.6,3.7
		c0,1.5-0.9,2.6-2.4,3.2v0.1c1.6,0.4,2.8,1.6,2.8,3.5c0,2.6-2.3,4.1-4.9,4.1C239.6,235.7,238.1,234.8,237.1,233.7z"/>
	<path class="st1" d="M256.5,224.3c-0.5-0.6-1.3-1-2.2-1c-1.6,0-2.9,1.2-3.1,4.7c0.8-0.9,2-1.5,2.9-1.5c2.4,0,4,1.4,4,4.4
		c0,2.9-2,4.7-4.4,4.7c-2.7,0-5.1-2.1-5.1-7.1c0-5.2,2.6-7.5,5.4-7.5c1.7,0,3,0.7,3.8,1.6L256.5,224.3z M255.7,231
		c0-1.7-0.8-2.5-2-2.5c-0.8,0-1.6,0.4-2.3,1.5c0.3,2.6,1.2,3.6,2.4,3.6C254.8,233.6,255.7,232.7,255.7,231z"/>
	<path class="st1" d="M266.8,232c1.4-0.1,2.8-0.2,4.2-0.4l0.2,1.8c-3.8,0.7-7.9,0.7-11,0.7l-0.3-2c1.3,0,2.8,0,4.4,0v-1.5
		c-1.9-0.4-3.1-1.5-3.1-3.2c0-2,1.8-3.3,4.4-3.3c2.5,0,4.3,1.3,4.3,3.3c0,1.6-1.2,2.8-3.1,3.2V232z M270.8,223.4h-10.5v-2h4v-1.9
		h2.5v1.9h4V223.4z M265.5,228.8c1.2,0,2-0.5,2-1.4c0-0.9-0.8-1.4-2-1.4c-1.2,0-2,0.5-2,1.4C263.6,228.3,264.4,228.8,265.5,228.8z
		 M274.4,219.5V237h-2.5v-17.5H274.4z"/>
	<path class="st1" d="M297.4,226.7v2h-15.8v-2h6.6v-1.6h2.5v1.6H297.4z M282.3,224.2c3.2-0.2,4.9-1.2,5.4-2.3h-4.6V220H296v1.9h-4.6
		c0.5,1.1,2.2,2.1,5.4,2.3l-0.8,1.9c-3.3-0.3-5.5-1.4-6.4-3c-0.9,1.6-3.1,2.8-6.4,3L282.3,224.2z M285.9,235h10v1.9h-12.5v-4.6h9.6
		v-1h-9.6v-1.8h12.1v4.5h-9.6V235z"/>
	<path class="st1" d="M313.7,219.5v9.4h-2.5v-3.5h-2.8c-0.5,1.9-2.3,3.2-4.5,3.2c-2.6,0-4.6-1.7-4.6-4.2c0-2.4,2-4.2,4.6-4.2
		c2.2,0,4,1.3,4.5,3.1h2.8v-3.9H313.7z M306.1,224.4c0-1.3-0.9-2.1-2.2-2.1c-1.3,0-2.2,0.8-2.2,2.1c0,1.3,0.9,2.1,2.2,2.1
		C305.2,226.5,306.1,225.8,306.1,224.4z M311.2,229.7h2.5v7.1h-11.6v-7.1h2.5v1.7h6.6V229.7z M311.2,233.3h-6.6v1.6h6.6V233.3z"/>
	<path class="st1" d="M325.9,230c-1.9-0.6-3.2-1.9-4-3.5c-0.8,1.7-2.1,3.1-4.2,3.8l-1.3-2c2.9-0.9,4.1-3.2,4.1-5.4v-0.2h-3.4v-2h9.4
		v2h-3.4v0.2c0,2.1,1.2,4.2,4,5.1L325.9,230z M331.6,234.7v2h-11.9v-5.5h2.5v3.5H331.6z M328.7,224.1v-4.5h2.5v12.8h-2.5v-6.2H326
		v-2H328.7z"/>
	<path class="st1" d="M340.8,223.4c0,3.2,1.4,6.4,4.4,7.7l-1.4,2c-2-0.9-3.4-2.6-4.1-4.8c-0.8,2.3-2.2,4.2-4.3,5.2l-1.5-2.1
		c3.1-1.3,4.5-4.7,4.5-8.1v-2.5h2.5V223.4z M348.5,219.5v17.6H346v-17.6H348.5z"/>
	<path class="st1" d="M371.7,231.3H365v5.7h-2.5v-5.7h-6.6v-2h15.8V231.3z M369.8,227.5h-12.1v-7.1h12.1V227.5z M367.3,222.4h-7.2
		v3.1h7.2V222.4z"/>
	<path class="st1" d="M379.8,223.4c0,3.2,1.2,6.3,4,7.7l-1.5,2c-1.8-0.9-3.1-2.6-3.8-4.7c-0.8,2.2-2.1,4.1-4,5l-1.5-2
		c2.9-1.4,4.3-4.7,4.3-8v-2.5h2.5V223.4z M389.6,228.4H387v8.7h-2.5v-17.5h2.5v6.7h2.5V228.4z"/>
	<path class="st1" d="M397.6,222.2h3.9v2h-10.4v-2h3.9v-2.4h2.5V222.2z M400.9,229.3c0,2.5-1.9,4.2-4.5,4.2c-2.6,0-4.5-1.7-4.5-4.2
		c0-2.4,1.9-4.2,4.5-4.2C399,225.1,400.9,226.8,400.9,229.3z M398.5,229.3c0-1.3-0.9-2.1-2.1-2.1c-1.2,0-2.1,0.8-2.1,2.1
		c0,1.3,0.9,2.1,2.1,2.1C397.6,231.4,398.5,230.6,398.5,229.3z M405.3,219.5V237h-2.5v-17.5H405.3z"/>
	<path class="st1" d="M428.4,226v2h-15.8v-2h4.1c0.5-1.6,0.6-2.9,0.7-3.9h-3.3v-2h5.8v0.9c0,1.1,0,2.7-0.6,4.9h4.4
		c0.4-1.6,0.5-2.8,0.6-3.9h-3.3v-2h5.8v1.2c0,1.2,0,2.7-0.5,4.6H428.4z M417,235h9.7v1.9h-12.2v-7.7h12.1v1.8H417v1.1h9.1v1.8H417
		V235z"/>
	<path class="st1" d="M433.1,230.7c2.2-0.1,4.6-0.2,7-0.7l0.2,2.1c-2.9,0.6-5.7,0.8-8.3,0.8h-1.5v-11.6h2.5V230.7z M446.2,228.2
		h-2.5v8.8h-2.5v-17.5h2.5v6.6h2.5V228.2z"/>
	<path class="st1" d="M456.8,220.2c0,4.8-2.6,7.4-8.2,8.5l-0.9-2c4.3-0.8,6-2.4,6.2-4.5h-5.3v-2H456.8z M462.5,234.9v1.9h-12.1V232
		h9.1v-1h-9.1v-1.9h11.7v4.7H453v1.1H462.5z M462.1,228.3h-2.5v-8.8h2.5V228.3z"/>
	<path class="st1" d="M466,233.8c0-1,0.7-1.8,1.7-1.8c1,0,1.7,0.8,1.7,1.8c0,1-0.8,1.8-1.7,1.8C466.7,235.7,466,234.9,466,233.8z
		 M466.4,223.6l-0.1-2.6h2.8l-0.1,2.6l-0.4,7h-1.8L466.4,223.6z"/>
</g>
</svg>
