<?xml version="1.0" encoding="utf-8"?>
<!-- Generator: Adobe Illustrator 21.0.0, SVG Export Plug-In . SVG Version: 6.00 Build 0)  -->
<svg version="1.1" id="레이어_1" xmlns="http://www.w3.org/2000/svg" xmlns:xlink="http://www.w3.org/1999/xlink" x="0px"
	 y="0px" viewBox="0 0 567.2 213.5" style="enable-background:new 0 0 567.2 213.5;" xml:space="preserve">
<style type="text/css">
	.st0{enable-background:new    ;}
	.st1{fill:#080808;}
</style>
<g class="st0">
	<path class="st1" d="M224.6,15.3c-2.5,0.4-4.7,0.5-8.3,0.5h-1.5V7.1h8.4v2h-6v1.3h5.4v1.9h-5.4v1.4c3,0,4.9-0.1,7.1-0.4L224.6,15.3
		z M216.7,17.3h11.6v6.2h-11.6V17.3z M219.1,21.5h6.7v-2.3h-6.7V21.5z M228.3,6.2v10.4h-2.5V6.2H228.3z"/>
	<path class="st1" d="M240.2,15.4H232v-8h8.2v1.3h3.2V6.1h2.5v10.3h-2.5v-2.2h-3.2V15.4z M246,20.2c0,2.1-2.3,3.4-6,3.4
		s-6-1.3-6-3.4s2.3-3.4,6-3.4C243.7,16.8,246,18.1,246,20.2z M237.8,9.4h-3.3v4.1h3.3V9.4z M243.5,20.2c0-1-1.2-1.5-3.5-1.5
		s-3.5,0.5-3.5,1.5s1.2,1.5,3.5,1.5S243.5,21.2,243.5,20.2z M240.2,10.7v1.5h3.2v-1.5H240.2z"/>
	<path class="st1" d="M253.6,13.2c0-1,0.7-1.8,1.7-1.8s1.7,0.8,1.7,1.8s-0.7,1.8-1.7,1.8C254.3,15,253.6,14.3,253.6,13.2z
		 M253.6,20.4c0-1,0.7-1.8,1.7-1.8s1.7,0.8,1.7,1.8s-0.7,1.8-1.7,1.8C254.3,22.3,253.6,21.5,253.6,20.4z"/>
	<path class="st1" d="M271.8,14.3c-0.8,0.8-2,1.3-3.4,1.3c-2.6,0-4.6-1.8-4.6-4.3s2-4.3,4.6-4.3c1.4,0,2.6,0.5,3.4,1.3h3.9V6.1h2.5
		v10.3h-2.5v-2.1C275.7,14.3,271.8,14.3,271.8,14.3z M268.4,13.5c1.3,0,2.2-0.8,2.2-2.2s-1-2.2-2.2-2.2c-1.3,0-2.2,0.8-2.2,2.2
		C266.1,12.7,267.1,13.5,268.4,13.5z M278.2,20.2c0,2.2-2.3,3.5-6,3.5s-6-1.3-6-3.5s2.3-3.5,6-3.5S278.2,18,278.2,20.2z M275.8,20.2
		c0-1-1.2-1.5-3.5-1.5s-3.5,0.5-3.5,1.5s1.2,1.5,3.5,1.5S275.8,21.2,275.8,20.2z M272.9,10.4c0.1,0.3,0.1,0.6,0.1,0.9
		c0,0.3,0,0.6-0.1,1h2.8v-1.9H272.9z"/>
	<path class="st1" d="M290,15.8c-1.8-0.6-3.1-1.8-3.9-3.3c-0.8,1.7-2.1,3.1-4.1,3.8l-1.3-2c2.9-1,4.1-3.3,4.1-5.7V7.1h2.5v1.8
		c0,2.1,1.2,4.2,3.9,5L290,15.8z M295,20.3c0,2.1-2.3,3.4-5.9,3.4s-5.9-1.3-5.9-3.4s2.3-3.4,5.9-3.4S295,18.1,295,20.3z M292.5,20.3
		c0-1-1.2-1.4-3.4-1.4c-2.2,0-3.4,0.5-3.4,1.4c0,1,1.2,1.4,3.4,1.4C291.3,21.7,292.5,21.2,292.5,20.3z M297.1,10.2v2.1h-2.3v4.2
		h-2.5V6.2h2.5v4H297.1z"/>
	<path class="st1" d="M309.4,18.6c1.3-0.1,2.7-0.2,4-0.4l0.2,1.8c-3.7,0.7-7.6,0.7-10.6,0.7l-0.3-2c1.3,0,2.7,0,4.2,0v-1.5
		c-1.8-0.4-3-1.6-3-3.2c0-2,1.8-3.3,4.3-3.3s4.3,1.3,4.3,3.3c0,1.6-1.2,2.8-3,3.2v1.4H309.4z M313.2,10h-10.3V8h3.9V6.2h2.5V8h3.9
		V10z M308.1,15.4c1.1,0,1.9-0.5,1.9-1.4s-0.8-1.4-1.9-1.4s-1.9,0.5-1.9,1.4S307,15.4,308.1,15.4z M318.9,15.3h-2.2v8.3h-2.5V6.1
		h2.5v7.1h2.2V15.3z"/>
	<path class="st1" d="M330,13.6c0,3.9-2,6.3-4.6,6.3s-4.6-2.4-4.6-6.3c0-3.8,2-6.2,4.6-6.2S330,9.7,330,13.6z M323.2,13.6
		c0,2.6,0.9,4,2.2,4c1.3,0,2.2-1.4,2.2-4s-0.9-4-2.2-4S323.2,11,323.2,13.6z M334.8,6.1v17.6h-2.5V6.1H334.8z"/>
	<path class="st1" d="M348.6,15.5c-2.5,0.4-4.7,0.5-8.3,0.5h-1.5V7.4h8.4v2h-6v1.3h5.4v1.9h-5.4V14c3,0,4.9-0.1,7.1-0.4L348.6,15.5z
		 M352.4,20.3c0,2.1-2.3,3.3-6,3.3s-6-1.2-6-3.3s2.3-3.3,6-3.3C350.1,17,352.4,18.2,352.4,20.3z M349.9,20.3c0-1-1.2-1.4-3.5-1.4
		s-3.5,0.5-3.5,1.4c0,1,1.2,1.4,3.5,1.4C348.7,21.7,349.9,21.3,349.9,20.3z M352.3,16.7h-2.5V6.1h2.5V16.7z"/>
</g>
<g class="st0">
	<path class="st1" d="M102.6,44.2c-2.5,0.4-4.7,0.5-8.3,0.5h-1.5v-8.6h8.4v2h-5.9v1.3h5.4v1.9h-5.4v1.4c3,0,4.9-0.1,7.1-0.4
		L102.6,44.2z M94.7,46.2h11.6v6.2H94.7V46.2z M97.1,50.4h6.7v-2.3h-6.7V50.4z M106.3,35.1v10.4h-2.5V35.1H106.3z"/>
	<path class="st1" d="M124.4,50.3v2h-13v-5.2h2.4v-2.3c-1.5,0.1-3,0.1-4.3,0.1l-0.3-2c3.2,0,7.4-0.1,11.1-0.5l0.2,1.8
		c-1.4,0.2-2.8,0.4-4.2,0.5V48h-2.4v2.4L124.4,50.3L124.4,50.3z M110.5,38.8c0-1.9,1.8-3.1,4.4-3.1c2.5,0,4.4,1.3,4.4,3.1
		c0,1.9-1.8,3.1-4.4,3.1C112.3,41.9,110.5,40.7,110.5,38.8z M112.8,38.8c0,0.9,0.8,1.3,2,1.3s2-0.4,2-1.3c0-0.9-0.8-1.3-2-1.3
		C113.7,37.5,112.8,38,112.8,38.8z M121.5,45.3V35.1h2.5v13.3h-2.5V47h-3.3v-1.7H121.5z"/>
	<path class="st1" d="M131.1,42.2c0-1,0.7-1.8,1.7-1.8s1.7,0.8,1.7,1.8s-0.7,1.8-1.7,1.8S131.1,43.2,131.1,42.2z M131.1,49.4
		c0-1,0.7-1.8,1.7-1.8s1.7,0.8,1.7,1.8s-0.7,1.8-1.7,1.8S131.1,50.4,131.1,49.4z"/>
	<path class="st1" d="M156.9,48.5v2h-15.8v-2h6.7v-3.9h2.5v3.9H156.9z M141.7,43.4c3.7-0.6,5.7-2.8,5.9-5h-5.2v-2h13.2v2h-5.2
		c0.2,2.3,2.3,4.4,6,4.9l-1,2c-3.1-0.6-5.3-2-6.4-4.1c-1.1,2.1-3.3,3.6-6.3,4.2L141.7,43.4z"/>
	<path class="st1" d="M174.3,44v2h-15.8v-2H174.3z M160.1,39.2c0-2.2,2.5-3.6,6.3-3.6s6.3,1.4,6.3,3.6s-2.5,3.6-6.3,3.6
		S160.1,41.4,160.1,39.2z M162.9,50.3h9.6v2h-12.1v-5.1h2.5V50.3z M162.7,39.2c0,1.1,1.4,1.6,3.7,1.6c2.4,0,3.8-0.5,3.8-1.6
		s-1.4-1.6-3.8-1.6C164.1,37.6,162.7,38.1,162.7,39.2z"/>
	<path class="st1" d="M182.8,39.8c0,2.8,1.4,5.9,4.3,7.1l-1.4,2c-2-0.9-3.4-2.6-4.2-4.7c-0.8,2.3-2.2,4.2-4.2,5.1l-1.4-2
		c2.9-1.3,4.4-4.5,4.4-7.5v-1h-3.6v-2.1h9.8v2.1h-3.6v1H182.8z M190.5,35.1v17.5H188V35.1H190.5z"/>
	<path class="st1" d="M207,36.1c0,4.7-2.9,7.8-8.1,9.1l-1-2c3.9-1,6.1-2.9,6.4-5.2h-5.4v-2h8.1V36.1z M200.8,45.6h11.6v6.8h-11.6
		V45.6z M203.2,50.4h6.6v-2.9h-6.6V50.4z M212.3,35.1v9.7h-2.5v-9.7H212.3z"/>
	<path class="st1" d="M231.1,48.6v2.1h-15.8v-2.1h6.6V45h-4.8v-8.6h12.2v2h-9.7V43h9.8v2h-5v3.6H231.1z"/>
	<path class="st1" d="M242.4,38.9h-9.6v-2h3.7V35h2.5v1.9h3.4L242.4,38.9L242.4,38.9z M237.7,46.4c-2.4,0-4.1-1.4-4.1-3.5
		c0-2,1.7-3.4,4.1-3.4c2.4,0,4.1,1.4,4.1,3.4C241.8,45,240.1,46.4,237.7,46.4z M247.8,50.3v2h-11.9v-4.9h2.5v2.9H247.8z M237.7,44.5
		c1,0,1.7-0.5,1.7-1.5s-0.7-1.5-1.7-1.5S236,42.1,236,43C236,43.9,236.7,44.5,237.7,44.5z M244.9,45.2h-2.3v-2h2.3v-1.7h-2.3v-2h2.3
		v-4.3h2.5v13.3h-2.5V45.2z"/>
	<path class="st1" d="M263.7,36.1c0,4.7-2.9,7.8-8.1,9.1l-1-2c3.9-1,6.1-2.9,6.4-5.2h-5.4v-2h8.1V36.1z M257.5,45.6h11.6v6.8h-11.6
		V45.6z M260,50.4h6.6v-2.9H260V50.4z M269.1,35.1v9.7h-2.5v-9.7H269.1z"/>
	<path class="st1" d="M278.8,39.8c0,2.8,1.4,5.9,4.3,7.1l-1.4,2c-2-0.9-3.4-2.6-4.2-4.7c-0.8,2.3-2.2,4.2-4.2,5.1l-1.4-2
		c2.9-1.3,4.4-4.5,4.4-7.5v-1h-3.6v-2.1h9.8v2.1h-3.6L278.8,39.8L278.8,39.8z M286.5,35.1v17.5H284V35.1H286.5z"/>
	<path class="st1" d="M297.7,39.7h-8.2v-2h2.9v-2.2h2.5v2.2h2.9L297.7,39.7L297.7,39.7z M298.8,35.4h2.3v16.4h-2.3v-5h-1.9
		c-0.6,1.3-1.8,2.1-3.3,2.1c-2.2,0-3.7-1.7-3.7-4.2s1.6-4.2,3.7-4.2c1.5,0,2.8,0.9,3.3,2.2v-2h1.9V35.4z M295.1,44.7
		c0-1.3-0.6-2.1-1.6-2.1c-0.9,0-1.6,0.8-1.6,2.1s0.7,2.1,1.6,2.1C294.5,46.8,295.1,46.1,295.1,44.7z M298.8,44.8v-2.1h-1.9
		c0.2,0.6,0.4,1.2,0.4,2v0.1H298.8z M304.5,35.1v17.5h-2.4V35.1H304.5z"/>
	<path class="st1" d="M318.8,44.7h-6.9v-8.5h2.4v2.5h2.3v-2.5h2.3L318.8,44.7L318.8,44.7z M314.2,46.4h12v6.2h-2.5v-4.2h-9.5V46.4z
		 M316.5,40.6h-2.3v2.1h2.3V40.6z M326.2,35.1v10.5h-2.4v-4.2h-1.4v4.2h-2.3V35.4h2.3v4h1.4v-4.3C323.8,35.1,326.2,35.1,326.2,35.1z
		"/>
	<path class="st1" d="M344.6,48.5v2h-15.8v-2h6.6v-3.9h2.5v3.9H344.6z M343.1,45.1c-3.1-0.6-5.3-2.2-6.5-4.3
		c-1.1,2.1-3.4,3.8-6.4,4.3l-1-2.1c4-0.6,6.1-3.3,6.1-5.8v-1.3h2.7v1.3c0,2.5,2.1,5.1,6.1,5.8L343.1,45.1z"/>
	<path class="st1" d="M354.5,43.8c-0.9,0.9-2.1,1.4-3.4,1.4c-2.6,0-4.6-1.9-4.6-4.5s2-4.5,4.6-4.5c1.4,0,2.5,0.5,3.4,1.4h3.9v-2.4
		h2.5V48h-2.5v-4.1h-3.9V43.8z M351.1,43c1.3,0,2.2-0.9,2.2-2.4c0-1.4-1-2.3-2.2-2.3c-1.3,0-2.2,0.9-2.2,2.3
		C348.9,42.1,349.8,43,351.1,43z M361.3,50.3v2h-11.9v-5.6h2.5v3.6H361.3z M355.6,39.5c0.1,0.4,0.1,0.7,0.1,1.1c0,0.4,0,0.8-0.1,1.1
		h2.8v-2.3h-2.8V39.5z"/>
	<path class="st1" d="M377.5,45.2c-1.9-0.7-3.3-2-4-3.6c-0.8,1.8-2.2,3.2-4.2,3.9l-1.3-2c2.9-1,4.2-3.4,4.2-5.8V36h2.5v1.7
		c0,2.3,1.2,4.5,4.1,5.5L377.5,45.2z M383,50.3v2h-12.1v-5.6h2.5v3.6H383z M382.6,47.9h-2.5V35.1h2.5V47.9z"/>
	<path class="st1" d="M401.4,48.8v2h-15.8v-2h3.8V46c-1.2-0.6-1.8-1.5-1.8-2.6c0-2.1,2.3-3.4,5.9-3.4c3.7,0,5.9,1.3,5.9,3.4
		c0,1.1-0.6,2-1.8,2.6v2.9h3.8V48.8z M400.6,39.3h-14.4v-2h5.9v-2h2.5v2h6V39.3z M390.1,43.4c0,1,1.2,1.4,3.4,1.4
		c2.2,0,3.4-0.5,3.4-1.4c0-1-1.2-1.5-3.4-1.5C391.2,41.9,390.1,42.4,390.1,43.4z M391.8,48.8h3.3v-2.2c-0.5,0.1-1.1,0.1-1.7,0.1
		s-1.1,0-1.6-0.1L391.8,48.8L391.8,48.8z"/>
	<path class="st1" d="M418.2,35.1v17.5h-2.4v-8.7h-1.4v8h-2.3v-5.1l-1.4,1.9c-1.6-0.8-2.6-2.2-3.2-4c-0.6,2-1.6,3.7-3.2,4.6
		l-1.5-1.9c2.6-1.5,3.4-4.6,3.4-8v-0.5h-2.9v-2h7.9v2h-2.6v0.5c0,3.1,0.9,6,3.5,7.3V35.4h2.3v6.4h1.4v-6.7
		C415.8,35.1,418.2,35.1,418.2,35.1z"/>
	<path class="st1" d="M429.7,45.1c-2.7,0-4.7-1.9-4.7-4.4c0-2.6,2.1-4.4,4.7-4.4c2.7,0,4.7,1.9,4.7,4.4
		C434.4,43.2,432.3,45.1,429.7,45.1z M429.8,50.3h9.4v2h-11.9v-5.8h2.5V50.3z M429.7,42.9c1.3,0,2.3-0.9,2.3-2.3s-1-2.3-2.3-2.3
		s-2.3,0.9-2.3,2.3S428.4,42.9,429.7,42.9z M440.9,40.1v2.1h-2.3v5.7h-2.5V35.1h2.5v5H440.9z"/>
	<path class="st1" d="M458.1,43.5v2h-3.7v3.1h-2.5v-3.1h-1.7v3.1h-2.5v-3.1h-5.4v-2H458.1z M443.9,39c0-2.2,2.5-3.6,6.3-3.6
		s6.3,1.4,6.3,3.6c0,2.2-2.5,3.6-6.3,3.6C446.4,42.7,443.9,41.2,443.9,39z M446.6,50.3h10v2h-12.5v-5.1h2.5V50.3z M446.6,39
		c0,1.1,1.4,1.6,3.6,1.6s3.6-0.6,3.6-1.6c0-1.1-1.4-1.6-3.6-1.6S446.6,38,446.6,39z"/>
	<path class="st1" d="M459.9,47.6c3.2,0,7.4,0,11.1-0.5l0.2,1.8c-3.9,0.7-7.9,0.7-11,0.7L459.9,47.6z M470.7,39.2h-10.5v-2h4v-1.9
		h2.5v1.9h4V39.2z M465.5,39.9c2.5,0,4.3,1.3,4.3,3.3s-1.8,3.3-4.3,3.3s-4.3-1.3-4.3-3.3S463,39.9,465.5,39.9z M465.5,41.8
		c-1.2,0-1.9,0.5-1.9,1.4s0.8,1.4,1.9,1.4s1.9-0.5,1.9-1.4S466.6,41.8,465.5,41.8z M474.4,35.1v17.5h-2.5V35.1H474.4z"/>
</g>
<g class="st0">
	<path class="st1" d="M129.9,98c-1.2,0.7-1.8,1.5-1.9,2.7c0.1,0,0.1,0,0.2,0c0.8,0,1.5,0.6,1.5,1.5c0,1-0.6,1.6-1.5,1.6
		c-1.2,0-1.8-0.9-1.8-2.6c0-2,0.9-3.4,2.8-4.4L129.9,98z"/>
	<path class="st1" d="M140.5,103.9c-0.8,0.8-2,1.3-3.4,1.3c-2.6,0-4.6-1.8-4.6-4.3s2-4.3,4.6-4.3c1.4,0,2.6,0.5,3.4,1.3h3.9v-2.3
		h2.5V106h-2.5v-2.1H140.5z M137.1,103.1c1.3,0,2.2-0.8,2.2-2.2c0-1.4-0.9-2.2-2.2-2.2s-2.2,0.8-2.2,2.2
		C134.8,102.3,135.8,103.1,137.1,103.1z M146.9,109.8c0,2.2-2.3,3.5-6,3.5s-6-1.3-6-3.5s2.3-3.5,6-3.5S146.9,107.6,146.9,109.8z
		 M144.5,109.8c0-1-1.2-1.5-3.5-1.5s-3.5,0.5-3.5,1.5s1.2,1.5,3.5,1.5S144.5,110.8,144.5,109.8z M141.6,100c0.1,0.3,0.1,0.6,0.1,0.9
		s0,0.6-0.1,1h2.8V100H141.6z"/>
	<path class="st1" d="M158.7,105.4c-1.8-0.6-3.1-1.8-3.9-3.3c-0.8,1.7-2.1,3.1-4.1,3.8l-1.3-2c2.9-1,4.1-3.3,4.1-5.7v-1.6h2.5v1.8
		c0,2.1,1.2,4.2,3.9,5L158.7,105.4z M163.7,109.8c0,2.1-2.3,3.4-5.9,3.4c-3.6,0-5.9-1.3-5.9-3.4s2.3-3.4,5.9-3.4
		C161.4,106.5,163.7,107.7,163.7,109.8z M161.2,109.8c0-1-1.2-1.4-3.4-1.4s-3.4,0.5-3.4,1.4c0,1,1.2,1.4,3.4,1.4
		C160,111.3,161.2,110.8,161.2,109.8z M165.8,99.8v2.1h-2.3v4.2H161V95.7h2.5v4h2.3V99.8z"/>
	<path class="st1" d="M183,104.6v2h-15.8v-2H183z M168.8,99.8c0-2.2,2.5-3.6,6.3-3.6s6.3,1.4,6.3,3.6s-2.5,3.6-6.3,3.6
		C171.3,103.5,168.8,102.1,168.8,99.8z M171.6,110.9h9.6v2h-12.1v-5.1h2.5V110.9z M171.4,99.8c0,1.1,1.4,1.6,3.7,1.6
		c2.4,0,3.8-0.5,3.8-1.6s-1.4-1.6-3.8-1.6C172.8,98.2,171.4,98.8,171.4,99.8z"/>
	<path class="st1" d="M204.8,102.1v2H189v-2h4.1c0.5-1.6,0.6-2.9,0.7-3.9h-3.3v-2h5.8v0.9c0,1.1,0,2.7-0.6,4.9h4.4
		c0.4-1.6,0.5-2.8,0.6-3.9h-3.3v-2h5.8v1.2c0,1.2,0,2.7-0.5,4.6h2.1V102.1z M193.4,111.1h9.7v1.9h-12.2v-7.7H203v1.8h-9.5v1.1h9.1
		v1.8h-9.1v1.1H193.4z"/>
	<path class="st1" d="M209.7,106.8c1.4,0,2.9-0.2,4.5-0.5l0.2,2.1c-2.3,0.4-4.3,0.5-6,0.5h-1.2V97.7h2.5V106.8z M221.5,95.7v17.5
		h-2.4v-8.7h-1.6v7.9h-2.3V96h2.3v6.4h1.6v-6.7C219.1,95.7,221.5,95.7,221.5,95.7z"/>
	<path class="st1" d="M239.8,104.2v2H224v-2H239.8z M228.3,110.8h9.9v2h-12.4v-5.2h2.5V110.8z M238.1,102.4H226v-6.1h2.5v4.1h9.6
		V102.4z"/>
	<path class="st1" d="M254.7,96.1h2.3v16.3h-2.3v-8H252c-1,2-2.6,3.7-5.1,5.2l-1.4-1.8c3.5-2.1,5-4.6,5.3-8h-4.4v-2h6.9
		c0,1.7-0.2,3.2-0.6,4.6h2V96.1z M260.8,95.7v17.5h-2.4V95.7H260.8z"/>
	<path class="st1" d="M276.8,103.2c0,3.9-2,6.3-4.6,6.3c-2.7,0-4.6-2.4-4.6-6.3c0-3.8,1.9-6.2,4.6-6.2
		C274.9,96.9,276.8,99.3,276.8,103.2z M274.4,103.2c0-2.6-0.9-4-2.2-4c-1.3,0-2.2,1.4-2.2,4s0.9,4,2.2,4
		C273.5,107.2,274.4,105.8,274.4,103.2z M283.8,104.4h-2.6v8.8h-2.5V95.7h2.5v6.6h2.5v2.1H283.8z"/>
	<path class="st1" d="M288.4,106.8c2.3-0.1,4.8-0.2,7.4-0.8l0.3,2.1c-3,0.6-5.9,0.8-8.5,0.8H286V97.4h2.5L288.4,106.8L288.4,106.8z
		 M299.6,95.7v17.5h-2.5V95.7H299.6z"/>
	<path class="st1" d="M305.7,107.1c2.5,0,4.6-0.2,6.9-0.6l0.2,2c-2.6,0.5-5,0.6-8.1,0.6h-1.5V102h5.5v-2.8h-5.5v-2h8v6.8h-5.5V107.1
		z M318.7,104.4h-2.5v8.9h-2.5V95.7h2.5v6.6h2.5V104.4z"/>
	<path class="st1" d="M338.9,95.7v9.9h-2.5v-3.9h-3.2v3.1H325v-8h8.2v2.8h3.2v-4L338.9,95.7L338.9,95.7z M327.3,106.4h11.6v6.6
		h-11.6V106.4z M330.8,98.9h-3.3v4h3.3V98.9z M329.7,111h6.7v-2.7h-6.7V111z"/>
	<path class="st1" d="M357.6,108.2h-6.7v5h-2.5v-5h-6.6v-2h15.8L357.6,108.2L357.6,108.2z M342.6,103.3c3.6-0.4,5.5-2.1,5.8-3.6
		h-5.2v-2h5.2v-2h2.5v2h5.2v2h-5.2c0.3,1.5,2.2,3.2,5.8,3.6l-0.9,2c-3-0.4-5.1-1.6-6.2-3.1c-1.1,1.6-3.2,2.8-6.2,3.1L342.6,103.3z"
		/>
	<path class="st1" d="M375.1,104.2v2h-15.8v-2H375.1z M363.6,110.8h9.9v2h-12.4v-5.2h2.5V110.8z M373.3,102.4h-12.1v-6.1h2.5v4.1
		h9.6V102.4z"/>
	<path class="st1" d="M390.1,97c0,4.8-2.5,7.9-7.8,9.6l-1-2c3.9-1.2,5.7-3.1,6.1-5.6h-5.2v-2H390.1z M391,106.6c0,2,1.7,4,5.5,4.6
		l-1,2c-2.7-0.5-4.7-1.7-5.7-3.4c-1,1.7-3,2.9-5.7,3.4l-1-2c3.7-0.6,5.5-2.6,5.5-4.6V106h2.5L391,106.6L391,106.6z M393.2,102.4h-3
		v-2h3v-4.6h2.5v11.6h-2.5V102.4z"/>
	<path class="st1" d="M408.2,103.2c0,3.9-2,6.3-4.6,6.3s-4.6-2.4-4.6-6.3c0-3.8,2-6.2,4.6-6.2S408.2,99.3,408.2,103.2z M401.4,103.2
		c0,2.6,0.9,4,2.2,4s2.2-1.4,2.2-4s-0.9-4-2.2-4S401.4,100.6,401.4,103.2z M413,95.7v17.6h-2.5V95.7H413z"/>
	<path class="st1" d="M419.2,107c2.5,0,4.6-0.2,6.8-0.6l0.2,2.1c-2.6,0.5-5,0.6-8.1,0.6h-1.5V97.3h8.2v2h-5.6V107z M432.2,104.2
		h-2.5v9h-2.5V95.7h2.5v6.5h2.5V104.2z"/>
	<path class="st1" d="M434,110c0-1,0.7-1.8,1.7-1.8s1.7,0.8,1.7,1.8s-0.7,1.8-1.7,1.8C434.8,111.8,434,111,434,110z"/>
	<path class="st1" d="M437.5,102.3c1.2-0.7,1.8-1.5,1.8-2.7c-0.1,0-0.1,0-0.2,0c-0.8,0-1.5-0.6-1.5-1.5c0-1,0.6-1.6,1.5-1.6
		c1.2,0,1.8,0.9,1.8,2.6c0,2-1,3.4-2.9,4.4L437.5,102.3z"/>
</g>
<g class="st0">
	<path class="st1" d="M15.8,133.1v2H0v-2h4.1c0.5-1.6,0.6-2.9,0.7-3.9H1.5v-2h5.8v0.9c0,1.1,0,2.7-0.6,4.9h4.4
		c0.4-1.6,0.5-2.8,0.6-3.9H8.3v-2h5.8v1.2c0,1.2,0,2.7-0.5,4.6h2.2V133.1z M4.5,142.1h9.7v1.9H1.9v-7.7H14v1.8H4.5v1.1h9.1v1.8H4.5
		V142.1z"/>
	<path class="st1" d="M27.2,134.2c0,3.9-2,6.3-4.6,6.3s-4.6-2.4-4.6-6.3c0-3.8,2-6.2,4.6-6.2S27.2,130.3,27.2,134.2z M20.4,134.2
		c0,2.6,0.9,4,2.2,4c1.3,0,2.2-1.4,2.2-4s-0.9-4-2.2-4S20.4,131.6,20.4,134.2z M32,126.7v17.6h-2.5v-17.6
		C29.5,126.7,32,126.7,32,126.7z"/>
	<path class="st1" d="M42.3,137.8c2.2-0.1,4.6-0.2,7-0.7l0.2,2.1c-2.9,0.6-5.7,0.8-8.3,0.8h-1.5v-11.6h2.5L42.3,137.8L42.3,137.8z
		 M55.4,135.4h-2.5v8.8h-2.5v-17.5h2.5v6.6h2.5V135.4z"/>
	<path class="st1" d="M63.5,131.4c0,2.8,1.4,5.9,4.3,7.1l-1.4,2c-2-0.9-3.4-2.6-4.2-4.7c-0.8,2.3-2.2,4.2-4.2,5.1l-1.4-2
		c2.9-1.3,4.4-4.5,4.4-7.5v-1h-3.6v-2.1h9.8v2.1h-3.6v1H63.5z M71.3,126.7v17.5h-2.5v-17.5H71.3z"/>
	<path class="st1" d="M83.4,135.7c-2.7,0-4.7-1.7-4.7-4.1c0-2.4,2-4.1,4.7-4.1s4.7,1.7,4.7,4.1C88,134,86,135.7,83.4,135.7z
		 M82.5,141.7c0.9-0.1,1.8-0.2,2.7-0.5l0.3,2c-1.4,0.5-2.8,0.6-4.5,0.6h-1V137h2.4L82.5,141.7L82.5,141.7z M83.4,133.7
		c1.3,0,2.2-0.8,2.2-2c0-1.3-0.9-2.1-2.2-2.1c-1.3,0-2.2,0.8-2.2,2.1C81.1,132.9,82.1,133.7,83.4,133.7z M90.6,137.1h3.1v1.8h-8.8
		v-1.8h3.2v-1.2h2.4v1.2H90.6z M92.7,141.8c0,1.5-1.4,2.5-3.4,2.5s-3.4-0.9-3.4-2.5c0-1.5,1.4-2.5,3.4-2.5S92.7,140.3,92.7,141.8z
		 M90.5,141.8c0-0.5-0.5-0.8-1.2-0.8s-1.2,0.2-1.2,0.8c0,0.5,0.5,0.8,1.2,0.8C90,142.5,90.5,142.3,90.5,141.8z M94.7,130.3v2.1h-2.3
		v2.9h-2.5v-8.6h2.5v3.6H94.7z"/>
	<path class="st1" d="M111.9,135.2v2H96v-2H111.9z M100.4,141.8h9.9v2H97.8v-5.2h2.6V141.8z M110.1,133.4H98v-6.1h2.5v4.1h9.6V133.4
		z"/>
	<path class="st1" d="M126.1,134.9c-0.8,0.8-2,1.3-3.4,1.3c-2.6,0-4.6-1.8-4.6-4.3s2-4.3,4.6-4.3c1.4,0,2.6,0.5,3.4,1.3h3.9v-2.3
		h2.5V137H130v-2.1H126.1z M122.7,134.1c1.3,0,2.2-0.8,2.2-2.2s-0.9-2.2-2.2-2.2c-1.3,0-2.2,0.8-2.2,2.2
		C120.4,133.3,121.4,134.1,122.7,134.1z M132.5,140.8c0,2.2-2.3,3.5-6,3.5c-3.7,0-6-1.3-6-3.5s2.3-3.5,6-3.5
		C130.2,137.3,132.5,138.6,132.5,140.8z M130.1,140.8c0-1-1.2-1.5-3.5-1.5c-2.3,0-3.5,0.5-3.5,1.5s1.2,1.5,3.5,1.5
		C128.9,142.3,130.1,141.8,130.1,140.8z M127.2,131c0.1,0.3,0.1,0.6,0.1,0.9c0,0.3,0,0.6-0.1,1h2.8V131H127.2z"/>
	<path class="st1" d="M144.3,136.4c-1.8-0.6-3.1-1.8-3.9-3.3c-0.8,1.7-2.1,3.1-4.1,3.8l-1.3-2c2.9-1,4.1-3.3,4.1-5.7v-1.6h2.5v1.8
		c0,2.1,1.2,4.2,3.9,5L144.3,136.4z M149.3,140.8c0,2.1-2.3,3.4-5.9,3.4c-3.6,0-5.9-1.3-5.9-3.4c0-2.1,2.3-3.4,5.9-3.4
		C147,137.5,149.3,138.7,149.3,140.8z M146.8,140.8c0-1-1.2-1.4-3.4-1.4s-3.4,0.5-3.4,1.4c0,1,1.2,1.4,3.4,1.4
		C145.6,142.3,146.8,141.8,146.8,140.8z M151.4,130.8v2.1h-2.3v4.2h-2.5v-10.3h2.5v4H151.4z"/>
	<path class="st1" d="M162.8,136.9c-3.2,0.6-7,0.6-9.8,0.6l-0.3-2c0.6,0,1.2,0,1.8,0V130h-1.4v-2h9.2v2h-1.4v5.3
		c0.6,0,1.1-0.1,1.6-0.2L162.8,136.9z M167.8,141.9v2h-11.9v-5.3h2.5v3.3H167.8z M157,135.4c0.5,0,1.1,0,1.6,0V130H157V135.4z
		 M164.9,135.3h-2.1v-2h2.1v-1.5h-2.1v-2h2.1v-3.1h2.5v12.9h-2.5V135.3z"/>
	<path class="st1" d="M180,136c-2-0.6-3.3-1.8-4.1-3.3c-0.8,1.6-2.2,2.9-4.3,3.6l-1.3-2c2.8-0.8,4-2.7,4.2-4.7H171v-2h9.5v2h-3.4
		c0.1,1.8,1.4,3.6,4.1,4.4L180,136z M182.3,137h2.5v7h-11.6v-7h2.5v1.6h6.6V137z M182.3,140.5h-6.6v1.5h6.6V140.5z M184.8,126.7v9.5
		h-2.5v-9.5H184.8z"/>
	<path class="st1" d="M196.8,127h2.3v16.4h-2.3v-8.2h-1.4c-0.2,3.4-1.7,5.5-3.8,5.5c-2.3,0-3.8-2.4-3.8-6.4s1.5-6.3,3.8-6.3
		c2.1,0,3.5,1.9,3.8,5.2h1.4V127z M193.2,134.3c0-2.7-0.6-4-1.5-4c-1,0-1.5,1.3-1.5,4s0.6,4,1.5,4
		C192.7,138.3,193.2,137,193.2,134.3z M202.8,126.7v17.5h-2.4v-17.5H202.8z"/>
	<path class="st1" d="M216.3,131.4c0,2.8,1.4,5.9,4.3,7.1l-1.4,2c-2-0.9-3.4-2.6-4.2-4.7c-0.8,2.3-2.2,4.2-4.2,5.1l-1.4-2
		c2.9-1.3,4.4-4.5,4.4-7.5v-1h-3.6v-2.1h9.8v2.1h-3.6v1H216.3z M224,126.7v17.5h-2.5v-17.5H224z"/>
	<path class="st1" d="M236.8,137.4c-2-0.6-3.4-1.7-4.2-3.2c-0.8,1.6-2.2,2.9-4.2,3.5l-1.2-1.9c2.8-0.9,4.1-2.9,4.1-5v-0.1h-3.5v-2
		h3.5v-1.9h2.5v1.9h3.5v2h-3.5v0.1c0,1.9,1.3,3.9,4.1,4.7L236.8,137.4z M242,141.9v2h-12.1v-5.5h2.5v3.5H242z M241.6,139.5h-2.5
		v-12.8h2.5V139.5z"/>
	<path class="st1" d="M257.1,134.9c-0.8,0.8-2,1.3-3.4,1.3c-2.6,0-4.6-1.8-4.6-4.3s2-4.3,4.6-4.3c1.4,0,2.6,0.5,3.4,1.3h3.9v-2.3
		h2.5V137H261v-2.1H257.1z M253.7,134.1c1.3,0,2.2-0.8,2.2-2.2s-0.9-2.2-2.2-2.2s-2.2,0.8-2.2,2.2
		C251.4,133.3,252.4,134.1,253.7,134.1z M263.5,140.8c0,2.2-2.3,3.5-6,3.5c-3.7,0-6-1.3-6-3.5s2.3-3.5,6-3.5
		C261.2,137.3,263.5,138.6,263.5,140.8z M261.1,140.8c0-1-1.2-1.5-3.5-1.5s-3.5,0.5-3.5,1.5s1.2,1.5,3.5,1.5
		C259.9,142.3,261.1,141.8,261.1,140.8z M258.2,131c0.1,0.3,0.1,0.6,0.1,0.9c0,0.3,0,0.6-0.1,1h2.8V131H258.2z"/>
	<path class="st1" d="M275.3,136.4c-1.8-0.6-3.1-1.8-3.9-3.3c-0.8,1.7-2.1,3.1-4.1,3.8l-1.3-2c2.9-1,4.1-3.3,4.1-5.7v-1.6h2.5v1.8
		c0,2.1,1.2,4.2,3.9,5L275.3,136.4z M280.3,140.8c0,2.1-2.3,3.4-5.9,3.4s-5.9-1.3-5.9-3.4c0-2.1,2.3-3.4,5.9-3.4
		C278,137.5,280.3,138.7,280.3,140.8z M277.8,140.8c0-1-1.2-1.4-3.4-1.4c-2.2,0-3.4,0.5-3.4,1.4c0,1,1.2,1.4,3.4,1.4
		C276.6,142.3,277.8,141.8,277.8,140.8z M282.4,130.8v2.1h-2.3v4.2h-2.5v-10.3h2.5v4H282.4z"/>
	<path class="st1" d="M294.6,135.9c-2.5,0.4-4.7,0.5-8.3,0.5h-1.5v-8.6h8.4v2h-5.9v1.3h5.4v1.9h-5.4v1.4c3,0,4.9-0.1,7.1-0.4
		L294.6,135.9z M286.7,137.8h11.6v6.2h-11.6V137.8z M289.1,142h6.7v-2.3h-6.7V142z M298.3,126.7v10.4h-2.5v-10.4
		C295.8,126.7,298.3,126.7,298.3,126.7z"/>
	<path class="st1" d="M310.3,127h2.3v16.4h-2.3v-8.2h-1.4c-0.2,3.4-1.7,5.5-3.8,5.5c-2.3,0-3.8-2.4-3.8-6.4s1.5-6.3,3.8-6.3
		c2.1,0,3.5,1.9,3.8,5.2h1.4V127z M306.7,134.3c0-2.7-0.6-4-1.5-4c-1,0-1.5,1.3-1.5,4s0.6,4,1.5,4
		C306.2,138.3,306.7,137,306.7,134.3z M316.3,126.7v17.5h-2.4v-17.5H316.3z"/>
	<path class="st1" d="M327.7,127.1h2.3v16.3h-2.3v-8H325c-1,2-2.6,3.7-5.1,5.2l-1.4-1.8c3.5-2.1,5-4.6,5.3-8h-4.4v-2h6.9
		c0,1.7-0.2,3.2-0.6,4.6h2L327.7,127.1L327.7,127.1z M333.8,126.7v17.5h-2.4v-17.5H333.8z"/>
	<path class="st1" d="M351.3,130.3h-10.5v-2h4v-1.7h2.5v1.7h4V130.3z M346,137.1c-2.6,0-4.4-1.2-4.4-3.2s1.7-3.1,4.4-3.1
		c2.6,0,4.4,1.2,4.4,3.1S348.6,137.1,346,137.1z M343.4,138H355v6h-11.6V138z M346,135.2c1.2,0,2-0.4,2-1.3c0-0.9-0.8-1.3-2-1.3
		s-2,0.4-2,1.3S344.8,135.2,346,135.2z M345.9,142h6.7v-2h-6.7V142z M355.1,126.7v10.5h-2.5v-10.5H355.1z"/>
	<path class="st1" d="M373.8,133.8v2H358v-2H373.8z M359.6,129.9c0-1.9,2.3-3,6.3-3s6.3,1.1,6.3,3c0,1.9-2.3,3-6.3,3
		S359.6,131.9,359.6,129.9z M362.3,142.2h10v1.9h-12.5v-4.6h9.6v-0.9h-9.6v-1.8h12.1v4.5h-9.6V142.2z M362.2,129.9
		c0,0.8,1.2,1.2,3.7,1.2s3.7-0.3,3.7-1.2c0-0.8-1.2-1.1-3.7-1.1C363.4,128.8,362.2,129.2,362.2,129.9z"/>
	<path class="st1" d="M395.6,138.4h-6.7v5.9h-2.5v-5.9h-6.6v-2h15.8L395.6,138.4L395.6,138.4z M380.6,133.4c3.6-0.4,5.4-2.1,5.7-3.8
		h-5v-2h13v2h-5c0.2,1.7,2.1,3.4,5.6,3.8l-0.9,2c-3.1-0.4-5.2-1.7-6.3-3.5c-1,1.8-3.2,3.1-6.2,3.5L380.6,133.4z"/>
	<path class="st1" d="M413.1,140.1v2h-15.8v-2h5.6v-6h2.5v6H413.1z M408.4,138c0.7-3.3,0.7-5.7,0.7-7.8h-10.2v-2h12.7v1.7
		c0,2.2,0,4.7-0.7,8.4L408.4,138z"/>
	<path class="st1" d="M421.2,131.4c0,2.7,1.4,5.8,4.3,7.1l-1.4,2c-1.9-0.9-3.3-2.6-4.1-4.7c-0.8,2.3-2.2,4.2-4.2,5.1l-1.4-2
		c2.9-1.3,4.3-4.6,4.3-7.5v-1h-3.6v-2.1h9.6v2.1h-3.5L421.2,131.4L421.2,131.4z M431,135.5h-2.5v8.8H426v-17.5h2.5v6.7h2.5V135.5z"
		/>
	<path class="st1" d="M445.4,136.6h-8.3v-8.4h8.3V136.6z M441.6,141.9h9.4v2h-11.9v-5.7h2.5V141.9z M442.9,130.1h-3.4v4.5h3.4V130.1
		z M452.7,131.8v2.1h-2.3v5.7h-2.5v-12.8h2.5v5.1h2.3V131.8z"/>
	<path class="st1" d="M469.9,135.4v2h-15.8v-2H469.9z M458.4,141.9h9.8v2h-12.3v-5.2h2.5V141.9z M468.1,133.9h-12.2v-6.6h12v2h-9.5
		v2.6h9.7V133.9z"/>
	<path class="st1" d="M485.5,134.2c0,3.9-2,6.3-4.6,6.3s-4.6-2.4-4.6-6.3c0-3.8,2-6.2,4.6-6.2S485.5,130.3,485.5,134.2z
		 M478.7,134.2c0,2.6,0.9,4,2.2,4s2.2-1.4,2.2-4s-0.9-4-2.2-4S478.7,131.6,478.7,134.2z M490.3,126.7v17.6h-2.5v-17.6
		C487.8,126.7,490.3,126.7,490.3,126.7z"/>
	<path class="st1" d="M509.2,135.6v2h-15.8v-2H509.2z M504.8,129h-9.5v-1.9h12v4.7h-9.5v1h9.8v1.9h-12.3V130h9.5V129z M495.3,138.6
		h12v5.5h-12V138.6z M497.8,142h7.1v-1.5h-7.1V142z"/>
	<path class="st1" d="M520.6,131.6c0,2.4-2,4.1-4.7,4.1s-4.8-1.7-4.8-4.1c0-2.4,2.1-4.1,4.8-4.1
		C518.6,127.5,520.6,129.2,520.6,131.6z M513.5,131.6c0,1.3,1,2.1,2.3,2.1s2.3-0.8,2.3-2.1s-1-2.1-2.3-2.1S513.5,130.3,513.5,131.6z
		 M516.2,136.9v1.6h6.6v-1.6h2.5v7.1h-11.6v-7.1H516.2z M516.2,142h6.6v-1.6h-6.6V142z M525.3,126.7v9.4h-2.5v-9.4
		C522.8,126.7,525.3,126.7,525.3,126.7z"/>
	<path class="st1" d="M531.7,137.8c2.3-0.1,4.8-0.2,7.4-0.8l0.3,2.1c-3,0.6-5.9,0.8-8.5,0.8h-1.6v-11.5h2.5v9.4H531.7z M542.9,126.7
		v17.5h-2.5v-17.5H542.9z"/>
	<path class="st1" d="M548.9,138c2.5,0,4.6-0.2,6.8-0.6l0.2,2.1c-2.6,0.5-5,0.6-8.1,0.6h-1.4v-11.7h8.2v2h-5.7V138z M562,135.2h-2.5
		v9H557v-17.5h2.5v6.5h2.5V135.2z"/>
	<path class="st1" d="M563.8,141c0-1,0.7-1.8,1.7-1.8s1.7,0.8,1.7,1.8s-0.7,1.8-1.7,1.8C564.5,142.8,563.8,142,563.8,141z"/>
</g>
<g class="st0">
	<path class="st1" d="M133.8,166.2c-0.8,0.8-2,1.3-3.4,1.3c-2.6,0-4.6-1.8-4.6-4.3s2-4.3,4.6-4.3c1.4,0,2.6,0.5,3.4,1.3h3.9v-2.3
		h2.5v10.3h-2.5v-2.1h-3.9V166.2z M130.4,165.4c1.3,0,2.2-0.8,2.2-2.2s-0.9-2.2-2.2-2.2s-2.2,0.8-2.2,2.2
		C128.2,164.6,129.1,165.4,130.4,165.4z M140.3,172.1c0,2.2-2.3,3.5-6,3.5s-6-1.3-6-3.5s2.3-3.5,6-3.5
		C138,168.7,140.3,169.9,140.3,172.1z M137.8,172.1c0-1-1.2-1.5-3.5-1.5s-3.5,0.5-3.5,1.5s1.2,1.5,3.5,1.5S137.8,173.1,137.8,172.1z
		 M134.9,162.3c0.1,0.3,0.1,0.6,0.1,0.9c0,0.3,0,0.6-0.1,1h2.8v-1.9H134.9z"/>
	<path class="st1" d="M152,167.7c-1.8-0.6-3.1-1.8-3.9-3.3c-0.8,1.7-2.1,3.1-4.1,3.8l-1.3-2c2.9-1,4.1-3.3,4.1-5.7V159h2.5v1.8
		c0,2.1,1.2,4.2,3.9,5L152,167.7z M157,172.2c0,2.1-2.3,3.4-5.9,3.4c-3.6,0-5.9-1.3-5.9-3.4c0-2.1,2.3-3.4,5.9-3.4
		C154.7,168.8,157,170.1,157,172.2z M154.5,172.2c0-1-1.2-1.4-3.4-1.4s-3.4,0.5-3.4,1.4c0,1,1.2,1.4,3.4,1.4
		C153.3,173.6,154.5,173.2,154.5,172.2z M159.1,162.1v2.1h-2.3v4.2h-2.5v-10.3h2.5v4H159.1z"/>
	<path class="st1" d="M169.6,158.3h2.3v16.4h-2.3v-8.2h-1.4c-0.2,3.4-1.7,5.5-3.8,5.5c-2.3,0-3.8-2.4-3.8-6.4s1.5-6.3,3.8-6.3
		c2.1,0,3.5,1.9,3.8,5.2h1.4V158.3z M166,165.6c0-2.7-0.6-4-1.5-4c-1,0-1.5,1.3-1.5,4s0.6,4,1.5,4C165.4,169.6,166,168.3,166,165.6z
		 M175.5,158v17.5h-2.4V158H175.5z"/>
	<path class="st1" d="M197.4,158v17.5H195v-8.7h-1.4v8h-2.3v-5.1l-1.4,1.9c-1.6-0.8-2.6-2.2-3.2-4c-0.6,2-1.6,3.7-3.2,4.6l-1.5-1.9
		c2.6-1.5,3.4-4.6,3.4-8v-0.5h-2.8v-2h7.9v2h-2.6v0.5c0,3.1,0.9,6,3.5,7.3v-11.3h2.3v6.4h1.4V158H197.4z"/>
	<path class="st1" d="M215.6,165.9v2h-15.8v-2H215.6z M213.7,172.3c0,2.1-2.3,3.2-6.1,3.2s-6.1-1.2-6.1-3.2s2.3-3.2,6.1-3.2
		S213.7,170.2,213.7,172.3z M213.9,164.4h-12.1v-6h2.5v4h9.6V164.4z M211.2,172.3c0-0.9-1.2-1.3-3.5-1.3s-3.5,0.4-3.5,1.3
		c0,0.9,1.2,1.3,3.5,1.3C210,173.6,211.2,173.2,211.2,172.3z"/>
	<path class="st1" d="M217.5,163.1c0-2.5,2.1-4.2,4.7-4.2c2.7,0,4.8,1.7,4.8,4.2s-2,4.2-4.8,4.2
		C219.6,167.3,217.5,165.6,217.5,163.1z M230,169.3c0,1.8,0.9,3.5,3.3,4.2l-1.2,1.8c-1.7-0.6-2.7-1.6-3.3-2.9
		c-0.6,1.3-1.6,2.5-3.2,3.1c-1.6-0.6-2.6-1.7-3.2-3.1c-0.6,1.3-1.7,2.3-3.2,2.9l-1.2-1.8c2.3-0.8,3.3-2.5,3.3-4.2v-0.6h2.4v0.6
		c0,1.4,0.6,2.8,1.9,3.8c1.4-1,2-2.5,2-3.8v-0.6h2.5v0.6H230z M220,163.1c0,1.3,1,2.1,2.3,2.1s2.3-0.8,2.3-2.1s-1-2.1-2.3-2.1
		C220.9,161,220,161.8,220,163.1z M231.8,168h-2.5v-9.9h2.5V168z"/>
	<path class="st1" d="M250.6,171.4v2h-15.8v-2h5.6v-6h2.5v6H250.6z M245.9,169.3c0.7-3.3,0.7-5.7,0.7-7.8h-10.2v-2h12.7v1.7
		c0,2.2,0,4.7-0.7,8.4L245.9,169.3z"/>
	<path class="st1" d="M264.9,165.3c-0.8,0.8-2.1,1.3-3.5,1.3c-2.6,0-4.6-1.7-4.6-4c0-2.4,2-4.1,4.6-4.1c1.4,0,2.6,0.5,3.5,1.3h3.8
		V158h2.5v8.8h-2.5v-1.5H264.9z M261.4,164.6c1.3,0,2.2-0.8,2.2-2c0-1.3-0.9-2-2.2-2c-1.3,0-2.2,0.7-2.2,2
		C259.1,163.9,260.1,164.6,261.4,164.6z M271.7,173.4v1.9h-12v-4.8h9v-1h-9.1v-1.9h11.6v4.7h-9v1.1H271.7z M268.7,161.8h-2.8
		c0.1,0.3,0.1,0.5,0.1,0.8s0,0.5-0.1,0.8h2.8V161.8z"/>
	<path class="st1" d="M283.3,168c-1.9-0.6-3.2-1.9-4-3.4c-0.8,1.8-2.1,3.2-4.2,3.9l-1.3-2c2.8-1,4-3.2,4.1-5.4h-3.3v-2h9.4v2h-3.4
		c0.1,2,1.3,4,4,4.9L283.3,168z M288.7,172.2c0,2.1-2.3,3.4-6,3.4s-6-1.2-6-3.4s2.3-3.4,6-3.4C286.4,168.8,288.7,170.1,288.7,172.2z
		 M286.2,172.2c0-1-1.2-1.5-3.5-1.5s-3.5,0.5-3.5,1.5s1.2,1.5,3.5,1.5S286.2,173.2,286.2,172.2z M286.1,162.3v-4.2h2.5v10.4h-2.5
		v-4.2h-2.6v-2H286.1z"/>
	<path class="st1" d="M296.1,163.1c0-2.5,2.1-4.2,4.7-4.2c2.7,0,4.8,1.7,4.8,4.2s-2,4.2-4.8,4.2
		C298.1,167.3,296.1,165.6,296.1,163.1z M308.6,169.3c0,1.8,0.9,3.5,3.3,4.2l-1.2,1.8c-1.7-0.6-2.7-1.6-3.3-2.9
		c-0.6,1.3-1.6,2.5-3.2,3.1c-1.6-0.6-2.6-1.7-3.2-3.1c-0.6,1.3-1.7,2.3-3.2,2.9l-1.2-1.8c2.3-0.8,3.3-2.5,3.3-4.2v-0.6h2.4v0.6
		c0,1.4,0.6,2.8,1.9,3.8c1.4-1,2-2.5,2-3.8v-0.6h2.5L308.6,169.3L308.6,169.3z M298.5,163.1c0,1.3,1,2.1,2.3,2.1s2.3-0.8,2.3-2.1
		s-1-2.1-2.3-2.1S298.5,161.8,298.5,163.1z M310.3,168h-2.5v-9.9h2.5V168z"/>
	<path class="st1" d="M329.1,166.6v2h-15.8v-2H329.1z M317.6,173.2h9.9v2h-12.4V170h2.5V173.2z M327.4,164.8h-12.1v-6.1h2.5v4.1h9.6
		V164.8z"/>
	<path class="st1" d="M341.5,162c0,3.2,1.2,6.3,4,7.7l-1.5,2c-1.8-0.9-3.1-2.6-3.8-4.7c-0.8,2.2-2.1,4.1-4,5l-1.5-2
		c2.9-1.4,4.3-4.7,4.3-8v-2.5h2.5V162z M351.3,166.9h-2.5v8.7h-2.5v-17.5h2.5v6.7h2.5V166.9z"/>
	<path class="st1" d="M362.8,167.3c-2.4,0.5-4.7,0.5-8.2,0.5h-1.5v-5.5h5.5v-1.5h-5.5v-2h8v5.3h-5.5v1.6c2.8,0,4.8-0.1,7-0.5
		L362.8,167.3z M354.9,169.2h11.4v6.2h-11.4V169.2z M357.4,173.4h6.5v-2.2h-6.5V173.4z M368.7,164.2h-2.3v4.2h-2.5V158h2.5v4.1h2.3
		V164.2z"/>
	<path class="st1" d="M385.9,164.8v2h-15.8v-2H385.9z M374.4,173.5h10v1.9h-12.5v-4.7h9.6v-1h-9.6v-1.9H384v4.6h-9.6V173.5z
		 M384,163.9h-12v-5.5h11.9v2h-9.4v1.5h9.5V163.9z"/>
	<path class="st1" d="M397.2,165.5c0,3.9-2,6.3-4.6,6.3s-4.6-2.4-4.6-6.3c0-3.8,2-6.2,4.6-6.2S397.2,161.7,397.2,165.5z
		 M390.4,165.5c0,2.6,0.9,4,2.2,4s2.2-1.4,2.2-4s-0.9-4-2.2-4S390.4,162.9,390.4,165.5z M402,158v17.6h-2.5V158H402z"/>
	<path class="st1" d="M425.2,171.5v2h-15.8v-2h6.6v-3.6h-5v-8.6h12.4v8.6h-5v3.6H425.2z M413.4,166h7.5v-4.6h-7.5V166z"/>
	<path class="st1" d="M441.5,158v17.6H439v-6.5h-3.6c-0.8,1.7-2.1,2.7-3.8,2.7c-2.6,0-4.5-2.4-4.5-6.3c0-3.8,1.9-6.2,4.5-6.2
		c1.6,0,2.9,0.9,3.7,2.4h3.7V158H441.5z M433.8,165.5c0-2.6-0.9-4-2.2-4c-1.3,0-2.1,1.4-2.1,4s0.9,4,2.1,4
		C432.9,169.5,433.8,168.1,433.8,165.5z M439,167.1v-3.4h-3c0.1,0.6,0.2,1.2,0.2,1.9c0,0.6,0,1.1-0.1,1.6h2.9V167.1z"/>
</g>
<g class="st0">
	<path class="st1" d="M159.9,202.1h-6.7v5.7h-2.5v-5.7h-6.6v-2h15.8V202.1z M145.6,194.8c0-2.4,2.6-3.9,6.3-3.9s6.3,1.6,6.3,3.9
		c0,2.4-2.6,4-6.3,4S145.6,197.2,145.6,194.8z M148.2,194.8c0,1.3,1.5,2,3.8,2s3.7-0.7,3.7-2s-1.5-1.9-3.7-1.9
		C149.6,192.9,148.2,193.6,148.2,194.8z"/>
	<path class="st1" d="M165,201.7c2.7,0,4.9-0.2,7.3-0.6l0.3,2c-2.8,0.5-5.4,0.6-8.6,0.6h-1.6v-7.2h5.7v-2.8h-5.7v-2h8.3v6.8H165
		V201.7z M176.1,190.3v17.6h-2.5v-17.6H176.1z"/>
	<path class="st1" d="M187.9,200.2h-8.3v-8.4h8.3V200.2z M184,205.5h9.4v2h-11.9v-5.7h2.5V205.5z M185.4,193.7H182v4.5h3.4V193.7z
		 M195.1,195.4v2.1h-2.3v5.7h-2.5v-12.8h2.5v5.1h2.3V195.4z"/>
	<path class="st1" d="M196.6,202.3c3.1,0,7.4,0,11.1-0.6l0.2,1.8c-3.8,0.8-7.9,0.8-10.9,0.8L196.6,202.3z M206.9,195.8
		c0,2.5-2.1,4.3-4.8,4.3s-4.8-1.8-4.8-4.3s2.1-4.3,4.8-4.3C204.9,191.5,206.9,193.3,206.9,195.8z M199.7,195.8c0,1.4,1,2.2,2.4,2.2
		c1.3,0,2.4-0.8,2.4-2.2s-1-2.2-2.4-2.2C200.8,193.6,199.7,194.4,199.7,195.8z M211.1,190.3v17.6h-2.5v-17.6H211.1z"/>
	<path class="st1" d="M234.1,197.5v2h-15.8v-2h6.6v-1.6h2.5v1.6H234.1z M219,195c3.2-0.2,4.9-1.2,5.4-2.3h-4.6v-1.9h12.9v1.9h-4.6
		c0.5,1.1,2.2,2.1,5.4,2.3l-0.8,1.9c-3.3-0.3-5.5-1.4-6.4-3c-0.9,1.6-3.1,2.8-6.4,3L219,195z M222.6,205.8h10v1.9h-12.5v-4.6h9.6v-1
		h-9.6v-1.8h12.1v4.5h-9.6V205.8z"/>
	<path class="st1" d="M245.1,200.8c-1.9-0.6-3.2-1.9-4-3.5c-0.8,1.7-2.1,3.1-4.2,3.8l-1.3-2c2.9-0.9,4.1-3.2,4.1-5.4v-0.2h-3.3v-2
		h9.4v2h-3.4v0.2c0,2.1,1.2,4.2,4,5.1L245.1,200.8z M250.8,205.5v2h-11.9V202h2.5v3.5H250.8z M247.9,194.8v-4.5h2.5v12.8h-2.5v-6.2
		h-2.7v-2h2.7V194.8z"/>
	<path class="st1" d="M267.7,199.5c-2.1,0.5-4.1,0.6-8,0.6h-1.5v-8.4h7.8v2h-5.3v4.4c3.1,0,4.8-0.1,6.7-0.5L267.7,199.5z
		 M262.6,205.5h9.4v2h-11.9v-5.9h2.5V205.5z M273.7,195.1v2.1h-2.3v5.8h-2.5v-12.7h2.5v4.8L273.7,195.1L273.7,195.1z"/>
	<path class="st1" d="M285.1,200.5c-3.2,0.6-7,0.6-9.8,0.6l-0.3-2c0.6,0,1.2,0,1.8,0v-5.5h-1.4v-2h9.2v2h-1.4v5.3
		c0.6,0,1.1-0.1,1.6-0.2L285.1,200.5z M290.1,205.5v2h-11.9v-5.3h2.5v3.3H290.1z M279.3,199c0.5,0,1.1,0,1.6,0v-5.4h-1.6V199z
		 M287.2,198.9h-2.1v-2h2.1v-1.5h-2.1v-2h2.1v-3.1h2.5v12.9h-2.5V198.9z"/>
	<path class="st1" d="M300.8,198.5c-0.8,0.8-2,1.3-3.4,1.3c-2.6,0-4.6-1.8-4.6-4.3s2-4.3,4.6-4.3c1.4,0,2.6,0.5,3.4,1.3h3.9v-2.3
		h2.5v10.3h-2.5v-2.1h-3.9V198.5z M297.4,197.7c1.3,0,2.2-0.8,2.2-2.2s-0.9-2.2-2.2-2.2s-2.2,0.8-2.2,2.2
		C295.1,196.9,296.1,197.7,297.4,197.7z M307.2,204.4c0,2.2-2.3,3.5-6,3.5s-6-1.3-6-3.5s2.3-3.5,6-3.5S307.2,202.2,307.2,204.4z
		 M304.8,204.4c0-1-1.2-1.5-3.5-1.5s-3.5,0.5-3.5,1.5s1.2,1.5,3.5,1.5S304.8,205.4,304.8,204.4z M301.9,194.6
		c0.1,0.3,0.1,0.6,0.1,0.9c0,0.3,0,0.6-0.1,1h2.8v-1.9H301.9z"/>
	<path class="st1" d="M316.6,202.7c1.3-0.1,2.7-0.2,4-0.4l0.2,1.8c-3.7,0.7-7.6,0.7-10.6,0.7l-0.3-2c1.3,0,2.7,0,4.2,0v-1.5
		c-1.8-0.4-3-1.6-3-3.2c0-2,1.8-3.3,4.3-3.3s4.3,1.3,4.3,3.3c0,1.6-1.2,2.8-3,3.2v1.4H316.6z M320.4,194.2h-10.3v-2h3.9v-1.8h2.5
		v1.8h3.9V194.2z M315.3,199.6c1.1,0,1.9-0.5,1.9-1.4s-0.8-1.4-1.9-1.4s-1.9,0.5-1.9,1.4S314.2,199.6,315.3,199.6z M326.1,199.5
		h-2.2v8.3h-2.5v-17.5h2.5v7.1h2.2V199.5z"/>
	<path class="st1" d="M343.3,198.2v1.8h-15.8v-1.8H343.3z M331.8,206h10.1v1.7h-12.6v-4.2h9.7v-0.9h-9.7v-1.7h12.1v4.2h-9.7v0.9
		H331.8z M338.9,192.3h-9.5v-1.7h12v4.1h-9.5v0.9h9.8v1.7h-12.2v-4.2h9.5L338.9,192.3L338.9,192.3z"/>
	<path class="st1" d="M358.1,200.2h-8.3v-8.4h8.3V200.2z M354.3,205.5h9.4v2h-11.9v-5.7h2.5V205.5z M355.7,193.7h-3.4v4.5h3.4V193.7
		z M365.4,195.4v2.1h-2.3v5.7h-2.5v-12.8h2.5v5.1h2.3V195.4z"/>
	<path class="st1" d="M382.6,197.9v2h-15.8v-2H382.6z M378.2,200.8h2.5v6.7h-12.1v-6.7h2.5v1.4h7.1V200.8z M380.9,196.7h-12.2v-5.9
		h12v2h-9.5v2h9.7V196.7z M378.2,204.1h-7.1v1.4h7.1V204.1z"/>
	<path class="st1" d="M387.6,201.3c2.3-0.1,4.8-0.2,7.4-0.8l0.3,2.1c-3,0.6-5.9,0.8-8.5,0.8h-1.6V192h2.5L387.6,201.3L387.6,201.3z
		 M398.8,190.3v17.5h-2.5v-17.5H398.8z"/>
	<path class="st1" d="M404.9,201.5c2.5,0,4.6-0.2,6.8-0.6l0.2,2.1c-2.6,0.5-5,0.6-8.1,0.6h-1.4v-11.7h8.2v2h-5.7V201.5z M418,198.8
		h-2.6v9h-2.5v-17.5h2.5v6.5h2.5v2H418z"/>
	<path class="st1" d="M419.7,204.6c0-1,0.7-1.8,1.7-1.8s1.7,0.8,1.7,1.8s-0.7,1.8-1.7,1.8C420.5,206.4,419.7,205.6,419.7,204.6z"/>
</g>
</svg>
