<?xml version="1.0" encoding="utf-8"?>
<!-- Generator: Adobe Illustrator 21.0.0, SVG Export Plug-In . SVG Version: 6.00 Build 0)  -->
<svg version="1.1" id="레이어_1" xmlns="http://www.w3.org/2000/svg" xmlns:xlink="http://www.w3.org/1999/xlink" x="0px"
	 y="0px" viewBox="0 0 565 244.1" style="enable-background:new 0 0 565 244.1;" xml:space="preserve">
<style type="text/css">
	.st0{enable-background:new    ;}
	.st1{fill:#080808;}
</style>
<g class="st0">
	<path class="st1" d="M197.5,15.3c-2.5,0.4-4.7,0.5-8.3,0.5h-1.5V7.1h8.4v2h-5.9v1.3h5.4v1.9h-5.4v1.4c3,0,4.9-0.1,7.1-0.4
		L197.5,15.3z M189.6,17.3h11.6v6.2h-11.6V17.3z M192.1,21.5h6.7v-2.3h-6.7V21.5z M201.3,6.2v10.4h-2.5V6.2H201.3z"/>
	<path class="st1" d="M213.2,15.4H205V7.4h8.2v1.3h3.2V6.1h2.5v10.3h-2.5v-2.2h-3.2V15.4z M218.9,20.2c0,2.1-2.3,3.4-6,3.4
		c-3.7,0-6-1.3-6-3.4s2.3-3.4,6-3.4C216.7,16.8,218.9,18.1,218.9,20.2z M210.7,9.4h-3.3v4.1h3.3V9.4z M216.4,20.2
		c0-1-1.2-1.5-3.5-1.5c-2.3,0-3.5,0.5-3.5,1.5s1.2,1.5,3.5,1.5C215.2,21.7,216.4,21.2,216.4,20.2z M213.2,10.7v1.5h3.2v-1.5H213.2z"
		/>
	<path class="st1" d="M226.6,13.2c0-1,0.7-1.8,1.7-1.8c1,0,1.7,0.8,1.7,1.8c0,1-0.7,1.8-1.7,1.8C227.3,15,226.6,14.3,226.6,13.2z
		 M226.6,20.4c0-1,0.7-1.8,1.7-1.8c1,0,1.7,0.8,1.7,1.8c0,1-0.7,1.8-1.7,1.8C227.3,22.3,226.6,21.5,226.6,20.4z"/>
	<path class="st1" d="M239.8,14.4c-1.2,0.1-2.3,0.1-3.2,0.1l-0.2-1.9c2.3,0,6,0,8.8-0.5l0.2,1.7c-1,0.2-2.1,0.4-3.2,0.5v2.5h-2.4
		V14.4z M237.1,9.3c0-1.6,1.5-2.6,3.8-2.6c2.3,0,3.8,1,3.8,2.6c0,1.6-1.5,2.6-3.8,2.6C238.7,12,237.1,11,237.1,9.3z M249.2,17.5h2.5
		v5.9h-12.5v-5.9h2.5v1.1h7.5V17.5z M239.3,9.3c0,0.6,0.6,0.9,1.6,0.9c1,0,1.6-0.3,1.6-0.9s-0.6-0.9-1.6-0.9
		C240,8.4,239.3,8.7,239.3,9.3z M249.2,20.5h-7.5v1h7.5V20.5z M245.9,14.7V6.4h2.3v10.4h-2.3v-0.5h-2.6v-1.6H245.9z M251.7,6.1v10.8
		h-2.4V6.1H251.7z"/>
	<path class="st1" d="M262,15.9h-3.8v-2h3.8v-4h2.1v4h3.8v2h-3.8v4H262V15.9z"/>
	<path class="st1" d="M285,15.8c-3.7,0.7-7.8,0.8-10.8,0.8l-0.3-2c1.3,0,2.7,0,4.3-0.1v-1.2c-1.9-0.4-3.2-1.6-3.2-3.3
		c0-2,1.8-3.5,4.4-3.5c2.6,0,4.4,1.4,4.4,3.5c0,1.7-1.3,3-3.2,3.3v1.1c1.4-0.1,2.8-0.2,4.2-0.4L285,15.8z M276.3,17.8h12.1v5.9h-2.5
		v-3.9h-9.6V17.8z M279.4,11.6c1.2,0,2.1-0.6,2.1-1.6c0-1-0.8-1.6-2.1-1.6c-1.2,0-2.1,0.6-2.1,1.6C277.3,11,278.2,11.6,279.4,11.6z
		 M288.4,6.2V17h-2.5V6.2H288.4z"/>
	<path class="st1" d="M297.9,10.4c0,2.8,1.4,6.1,4.3,7.6l-1.4,1.9c-1.9-1-3.2-2.9-4-5.1c-0.7,2.4-2,4.4-4,5.5l-1.6-1.9
		c2.9-1.4,4.3-4.8,4.3-8.1V9.8h-3.6v-2h9.6v2h-3.5V10.4z M306,6.1v17.5h-2.5v-7h-2.8v-2.1h2.8V13h-2.8v-2.1h2.8V6.1H306z"/>
	<path class="st1" d="M313.9,16c0-3.8,1-6.9,2.8-9.8l1.7,0.7c-1.6,2.8-2.3,6-2.3,9.1c0,3.1,0.7,6.3,2.3,9.1l-1.7,0.7
		C314.9,22.9,313.9,19.8,313.9,16z"/>
	<path class="st1" d="M327.1,18c1.4-0.1,2.9-0.2,4.3-0.4l0.2,1.8c-3.8,0.8-7.9,0.8-10.9,0.8l-0.3-2c1.3,0,2.8,0,4.3,0v-2.5
		c-2.1-0.5-3.6-2.1-3.6-4.2c0-2.5,2.1-4.3,4.8-4.3c2.7,0,4.8,1.8,4.8,4.3c0,2.1-1.5,3.7-3.6,4.2V18z M325.9,13.6
		c1.3,0,2.4-0.8,2.4-2.2c0-1.4-1-2.2-2.4-2.2c-1.3,0-2.4,0.8-2.4,2.2C323.5,12.8,324.5,13.6,325.9,13.6z M334.9,6.1v17.6h-2.5V6.1
		H334.9z"/>
	<path class="st1" d="M346.8,6.5h2.3v16.4h-2.3v-5.7h-2.4v-2h2.4v-2.4h-2.1c-0.8,2.9-2.5,5.3-5.8,7.3l-1.4-1.7
		c3.5-2.1,5-4.6,5.3-8.1h-4.3v-2h6.8c0,0.9-0.1,1.7-0.2,2.5h1.7V6.5z M352.8,6.1v17.5h-2.4V6.1H352.8z"/>
	<path class="st1" d="M360.2,16.1c-2.7,0-4.8-1.9-4.8-4.4c0-2.6,2.1-4.4,4.8-4.4s4.7,1.9,4.7,4.4C365,14.2,362.9,16.1,360.2,16.1z
		 M360.2,14c1.3,0,2.3-0.9,2.3-2.3c0-1.4-1-2.3-2.3-2.3c-1.3,0-2.3,0.8-2.3,2.3C357.9,13.1,358.9,14,360.2,14z M370.2,21.3v2h-12.1
		v-5.9h2.5v3.9H370.2z M369.8,18.7h-2.5V6.2h2.5V18.7z"/>
	<path class="st1" d="M372.9,25.1c1.6-2.8,2.3-6,2.3-9.1c0-3.1-0.7-6.3-2.3-9.1l1.7-0.7c1.8,2.9,2.8,6,2.8,9.8c0,3.8-1,6.9-2.8,9.8
		L372.9,25.1z"/>
</g>
<g class="st0">
	<path class="st1" d="M101.1,44.2c-2.5,0.4-4.7,0.5-8.3,0.5h-1.5v-8.6h8.4v2h-5.9v1.3h5.4v1.9h-5.4v1.4c3,0,4.9-0.1,7.1-0.4
		L101.1,44.2z M93.2,46.2h11.6v6.2H93.2V46.2z M95.7,50.4h6.7v-2.3h-6.7V50.4z M104.9,35.1v10.4h-2.5V35.1H104.9z"/>
	<path class="st1" d="M122.9,50.3v2h-13v-5.2h2.4v-2.3c-1.5,0.1-3,0.1-4.3,0.1l-0.3-2c3.2,0,7.4-0.1,11.1-0.5l0.2,1.8
		c-1.4,0.2-2.8,0.4-4.2,0.5v3.3h-2.4v2.4H122.9z M109,38.8c0-1.9,1.8-3.1,4.4-3.1c2.5,0,4.4,1.3,4.4,3.1c0,1.9-1.8,3.1-4.4,3.1
		C110.8,41.9,109,40.7,109,38.8z M111.4,38.8c0,0.9,0.8,1.3,2,1.3c1.2,0,2-0.4,2-1.3c0-0.9-0.8-1.3-2-1.3
		C112.2,37.5,111.4,38,111.4,38.8z M120,45.3V35.1h2.5v13.3H120V47h-3.3v-1.7H120z"/>
	<path class="st1" d="M130.1,42.2c0-1,0.7-1.8,1.7-1.8c1,0,1.7,0.8,1.7,1.8c0,1-0.7,1.8-1.7,1.8C130.9,44,130.1,43.2,130.1,42.2z
		 M130.1,49.4c0-1,0.7-1.8,1.7-1.8c1,0,1.7,0.8,1.7,1.8c0,1-0.7,1.8-1.7,1.8C130.9,51.2,130.1,50.4,130.1,49.4z"/>
	<path class="st1" d="M149.4,45.6c-1.9-0.6-3.2-1.9-4-3.5c-0.8,1.7-2.1,3.1-4.2,3.8l-1.3-2c2.9-0.9,4.1-3.2,4.1-5.4v-0.2h-3.4v-2
		h9.4v2h-3.4v0.2c0,2.1,1.2,4.2,4,5.1L149.4,45.6z M155.1,50.3v2h-11.9v-5.5h2.5v3.5H155.1z M152.2,39.6v-4.5h2.5v12.8h-2.5v-6.2
		h-2.7v-2H152.2z"/>
	<path class="st1" d="M163.9,37.7h3.8v2h-10.2v-2h3.9v-2.3h2.5V37.7z M167,44.8c0,2.5-1.9,4.2-4.4,4.2c-2.5,0-4.4-1.7-4.4-4.2
		c0-2.4,1.9-4.2,4.4-4.2C165.2,40.7,167,42.4,167,44.8z M164.7,44.8c0-1.3-0.9-2.1-2-2.1s-2.1,0.8-2.1,2.1s0.9,2.1,2.1,2.1
		S164.7,46.2,164.7,44.8z M173.8,44h-2.5v8.6h-2.5V35.1h2.5v6.8h2.5V44z"/>
	<path class="st1" d="M184.7,45.6c-1.9-0.6-3.3-1.9-4.1-3.4c-0.8,1.7-2.2,3.1-4.2,3.7l-1.3-2c2.9-0.9,4.2-3.2,4.2-5.4v-0.2h-3.5v-2
		h9.5v2h-3.5v0.2c0,2.1,1.3,4.2,4.1,5.1L184.7,45.6z M190,50.3v2h-12.1v-5.7h2.5v3.7H190z M189.6,47.7h-2.5V35.1h2.5V47.7z"/>
	<path class="st1" d="M206,36.1c0,4.7-2.9,7.8-8.1,9.1l-0.9-2c3.9-1,6.1-2.9,6.4-5.2H198v-2H206z M199.8,45.6h11.6v6.8h-11.6V45.6z
		 M202.3,50.4h6.6v-2.9h-6.6V50.4z M211.4,35.1v9.7h-2.5v-9.7H211.4z"/>
	<path class="st1" d="M221.1,39.8c0,2.8,1.4,5.9,4.3,7.1l-1.4,2c-2-0.9-3.4-2.6-4.2-4.7c-0.8,2.3-2.2,4.2-4.2,5.1l-1.4-2
		c2.9-1.3,4.4-4.5,4.4-7.5v-1h-3.6v-2.1h9.8v2.1h-3.6V39.8z M228.8,35.1v17.5h-2.5V35.1H228.8z"/>
	<path class="st1" d="M246.9,50.3v2h-13v-5.2h2.4v-2.3c-1.5,0.1-3,0.1-4.3,0.1l-0.3-2c3.2,0,7.4-0.1,11.1-0.5l0.2,1.8
		c-1.4,0.2-2.8,0.4-4.2,0.5v3.3h-2.4v2.4H246.9z M233,38.8c0-1.9,1.8-3.1,4.4-3.1c2.5,0,4.4,1.3,4.4,3.1c0,1.9-1.8,3.1-4.4,3.1
		C234.8,41.9,233,40.7,233,38.8z M235.4,38.8c0,0.9,0.8,1.3,2,1.3c1.2,0,2-0.4,2-1.3c0-0.9-0.8-1.3-2-1.3
		C236.2,37.5,235.4,38,235.4,38.8z M244,45.3V35.1h2.5v13.3H244V47h-3.3v-1.7H244z"/>
	<path class="st1" d="M263.3,42.5c0,3.9-2,6.3-4.6,6.3s-4.6-2.4-4.6-6.3c0-3.8,2-6.2,4.6-6.2S263.3,38.7,263.3,42.5z M256.5,42.5
		c0,2.6,0.9,4,2.2,4c1.3,0,2.2-1.4,2.2-4c0-2.6-0.9-4-2.2-4C257.4,38.6,256.5,40,256.5,42.5z M268.1,35.1v17.6h-2.5V35.1H268.1z"/>
	<path class="st1" d="M286.9,46.8h-6.7v5.9h-2.5v-5.9h-6.6v-2h15.8V46.8z M271.8,41.8c3.6-0.4,5.4-2.1,5.7-3.8h-5v-2h13v2h-5
		c0.2,1.7,2.1,3.4,5.6,3.8l-0.9,2c-3.1-0.4-5.2-1.7-6.2-3.5c-1,1.8-3.2,3.1-6.3,3.5L271.8,41.8z"/>
	<path class="st1" d="M304.4,44v2h-15.8v-2H304.4z M290.1,39.2c0-2.2,2.5-3.6,6.3-3.6c3.8,0,6.3,1.4,6.3,3.6s-2.5,3.6-6.3,3.6
		C292.7,42.8,290.1,41.4,290.1,39.2z M293,50.3h9.6v2h-12.1v-5.1h2.5V50.3z M292.7,39.2c0,1.1,1.4,1.6,3.7,1.6
		c2.4,0,3.8-0.5,3.8-1.6c0-1.1-1.4-1.6-3.8-1.6C294.1,37.6,292.7,38.1,292.7,39.2z"/>
	<path class="st1" d="M320,42.5c0,3.9-2,6.3-4.6,6.3s-4.6-2.4-4.6-6.3c0-3.8,2-6.2,4.6-6.2S320,38.7,320,42.5z M313.3,42.5
		c0,2.6,0.9,4,2.2,4c1.3,0,2.2-1.4,2.2-4c0-2.6-0.9-4-2.2-4C314.2,38.6,313.3,40,313.3,42.5z M324.8,35.1v17.6h-2.5V35.1H324.8z"/>
	<path class="st1" d="M343.7,46.8H337v5.9h-2.5v-5.9h-6.6v-2h15.8V46.8z M328.6,41.8c3.6-0.4,5.4-2.1,5.7-3.8h-5v-2h13v2h-5
		c0.2,1.7,2.1,3.4,5.6,3.8l-0.9,2c-3.1-0.4-5.2-1.7-6.3-3.5c-1,1.8-3.2,3.1-6.2,3.5L328.6,41.8z"/>
	<path class="st1" d="M355,38.9h-9.6v-2h3.7V35h2.5v1.9h3.4V38.9z M350.3,46.4c-2.4,0-4.1-1.4-4.1-3.5c0-2,1.7-3.4,4.1-3.4
		c2.4,0,4.1,1.4,4.1,3.4C354.4,45,352.7,46.4,350.3,46.4z M360.3,50.3v2h-11.9v-4.9h2.5v2.9H360.3z M350.3,44.5c1,0,1.7-0.5,1.7-1.5
		c0-1-0.7-1.5-1.7-1.5c-1,0-1.7,0.6-1.7,1.5C348.5,43.9,349.3,44.5,350.3,44.5z M357.4,45.2h-2.3v-2h2.3v-1.7h-2.3v-2h2.3v-4.3h2.5
		v13.3h-2.5V45.2z"/>
	<path class="st1" d="M382.9,43.5v2h-3.7v3.1h-2.5v-3.1H375v3.1h-2.5v-3.1h-5.4v-2H382.9z M368.7,39c0-2.2,2.5-3.6,6.3-3.6
		c3.8,0,6.3,1.4,6.3,3.6c0,2.2-2.5,3.6-6.3,3.6C371.2,42.7,368.7,41.2,368.7,39z M371.4,50.3h10v2h-12.5v-5.1h2.5V50.3z M371.4,39
		c0,1.1,1.4,1.6,3.6,1.6c2.2,0,3.6-0.6,3.6-1.6c0-1.1-1.4-1.6-3.6-1.6C372.8,37.4,371.4,38,371.4,39z"/>
	<path class="st1" d="M394.2,38.9h-9.6v-2h3.7V35h2.5v1.9h3.4V38.9z M389.6,46.4c-2.4,0-4.1-1.4-4.1-3.5c0-2,1.7-3.4,4.1-3.4
		c2.4,0,4.1,1.4,4.1,3.4C393.6,45,391.9,46.4,389.6,46.4z M399.6,50.3v2h-11.9v-4.9h2.5v2.9H399.6z M389.6,44.5c1,0,1.7-0.5,1.7-1.5
		c0-1-0.7-1.5-1.7-1.5c-1,0-1.7,0.6-1.7,1.5C387.8,43.9,388.5,44.5,389.6,44.5z M396.7,45.2h-2.3v-2h2.3v-1.7h-2.3v-2h2.3v-4.3h2.5
		v13.3h-2.5V45.2z"/>
	<path class="st1" d="M412.2,43.7c-2.1,0.5-4.1,0.6-8,0.6h-1.5v-8.1h7.8v2h-5.3v4.1c3.1,0,4.8-0.1,6.7-0.5L412.2,43.7z M404.5,45.7
		h11.4v6.7h-11.4V45.7z M406.9,50.4h6.5v-2.8h-6.5V50.4z M418.2,41.1h-2.3v3.8h-2.5v-9.8h2.5v4h2.3V41.1z"/>
	<path class="st1" d="M439.7,48.5v2h-15.8v-2h6.6v-3c-3.1-0.4-5.3-2.1-5.3-4.7c0-2.9,2.8-4.8,6.5-4.8c3.7,0,6.5,1.9,6.5,4.8
		c0,2.6-2.2,4.4-5.3,4.7v3H439.7z M431.8,43.6c2.4,0,4.1-1,4.1-2.8s-1.7-2.8-4.1-2.8c-2.4,0-4,1-4,2.8S429.4,43.6,431.8,43.6z"/>
	<path class="st1" d="M450.6,42.5c0,3.9-2,6.3-4.6,6.3c-2.7,0-4.6-2.4-4.6-6.3c0-3.8,1.9-6.2,4.6-6.2
		C448.7,36.3,450.6,38.7,450.6,42.5z M448.2,42.5c0-2.6-0.9-4-2.2-4c-1.3,0-2.2,1.4-2.2,4c0,2.6,0.9,4,2.2,4
		C447.3,46.5,448.2,45.1,448.2,42.5z M457.6,43.8H455v8.8h-2.5V35.1h2.5v6.6h2.5V43.8z"/>
	<path class="st1" d="M474.7,43.9v2h-15.8v-2H474.7z M470.3,37.3h-9.5v-1.9h12v4.7h-9.5v1h9.8V43h-12.3v-4.7h9.5V37.3z M460.8,46.9
		h12v5.5h-12V46.9z M463.3,50.4h7.1v-1.5h-7.1V50.4z"/>
</g>
<g class="st0">
	<path class="st1" d="M154.7,104c-1.2,0.1-2.3,0.1-3.2,0.1l-0.2-1.9c2.3,0,6,0,8.8-0.5l0.2,1.7c-1,0.2-2.1,0.4-3.2,0.5v2.5h-2.4V104
		z M152,98.9c0-1.6,1.5-2.6,3.8-2.6s3.8,1,3.8,2.6c0,1.6-1.5,2.6-3.8,2.6S152,100.5,152,98.9z M164.1,107.1h2.5v5.9h-12.5v-5.9h2.5
		v1.1h7.5V107.1z M154.2,98.9c0,0.6,0.6,0.9,1.6,0.9c1,0,1.6-0.3,1.6-0.9s-0.6-0.9-1.6-0.9C154.9,98,154.2,98.3,154.2,98.9z
		 M164.1,110h-7.5v1h7.5V110z M160.8,104.3V96h2.3v10.4h-2.3v-0.5h-2.6v-1.6H160.8z M166.5,95.7v10.8h-2.4V95.7H166.5z"/>
	<path class="st1" d="M175.5,100c0,2.8,1.4,6.1,4.3,7.6l-1.4,1.9c-1.9-1-3.2-2.9-4-5.1c-0.7,2.4-2,4.4-4,5.5l-1.6-1.9
		c2.9-1.4,4.3-4.8,4.3-8.1v-0.6h-3.6v-2h9.6v2h-3.5V100z M183.6,95.7v17.5h-2.5v-7h-2.8v-2.1h2.8v-1.6h-2.8v-2.1h2.8v-4.8H183.6z"/>
	<path class="st1" d="M202.2,104.2v2h-15.8v-2H202.2z M190.7,110.8h9.9v2h-12.4v-5.2h2.5V110.8z M200.5,102.4h-12.1v-6.1h2.5v4.1
		h9.6V102.4z"/>
	<path class="st1" d="M215,107.6c1.4-0.1,2.9-0.2,4.3-0.4l0.2,1.8c-3.8,0.8-7.9,0.8-10.9,0.8l-0.3-2c1.3,0,2.8,0,4.3,0v-2.5
		c-2.1-0.5-3.6-2.1-3.6-4.2c0-2.5,2.1-4.3,4.8-4.3c2.7,0,4.8,1.8,4.8,4.3c0,2.1-1.5,3.7-3.6,4.2V107.6z M213.8,103.2
		c1.3,0,2.4-0.8,2.4-2.2c0-1.4-1-2.2-2.4-2.2c-1.3,0-2.4,0.8-2.4,2.2C211.4,102.4,212.4,103.2,213.8,103.2z M222.7,95.7v17.6h-2.5
		V95.7H222.7z"/>
	<path class="st1" d="M234.7,96.1h2.3v16.4h-2.3v-5.7h-2.4v-2h2.4v-2.4h-2.1c-0.8,2.9-2.5,5.3-5.8,7.3l-1.4-1.7
		c3.5-2.1,5-4.6,5.3-8.1h-4.3v-2h6.8c0,0.9-0.1,1.7-0.2,2.5h1.7V96.1z M240.7,95.7v17.5h-2.4V95.7H240.7z"/>
	<path class="st1" d="M248.1,105.7c-2.7,0-4.8-1.9-4.8-4.4c0-2.6,2.1-4.4,4.8-4.4s4.7,1.9,4.7,4.4
		C252.9,103.8,250.8,105.7,248.1,105.7z M248.1,103.5c1.3,0,2.3-0.9,2.3-2.3c0-1.4-1-2.3-2.3-2.3c-1.3,0-2.3,0.8-2.3,2.3
		C245.8,102.7,246.8,103.5,248.1,103.5z M258.1,110.9v2H246v-5.9h2.5v3.9H258.1z M257.6,108.3h-2.5V95.7h2.5V108.3z"/>
	<path class="st1" d="M266,107.6c1.7-0.1,3.4-0.2,5-0.4l0.1,1.8c-3.6,0.6-7.5,0.7-10.5,0.7l-0.2-2.1c1,0,2,0,3.1,0v-5.2h2.5V107.6z
		 M267.4,105.4c0.4-2.5,0.5-4.4,0.5-5.9h-6.5v-2h9v1.4c0,1.7,0,3.8-0.5,6.7L267.4,105.4z M276.7,104.8h-2.4v8.4h-2.5V95.7h2.5v7h2.4
		V104.8z"/>
	<path class="st1" d="M298.2,107.5h-6.7v5.7H289v-5.7h-6.6v-2h15.8V107.5z M296.3,103.6h-12.1v-7.1h12.1V103.6z M293.9,98.5h-7.2
		v3.1h7.2V98.5z"/>
	<path class="st1" d="M310.5,105.7c-3.6,0.7-7.7,0.7-10.7,0.8l-0.2-2c1,0,2.1,0,3.2,0v-3.4h2.5v3.3c1.7-0.1,3.5-0.2,5.1-0.4
		L310.5,105.7z M306.8,102.9c0.3-1.6,0.4-2.9,0.4-4h-6.5v-2h9v1.1c0,1.2,0,2.9-0.4,5.1L306.8,102.9z M304.7,110.9h9.7v2h-12.2v-5.3
		h2.5V110.9z M315.9,101v2.1h-2.1v5.7h-2.5V95.7h2.5v5.3H315.9z"/>
	<path class="st1" d="M327.6,99.5h-10.3v-2h3.9v-1.9h2.5v1.9h3.9L327.6,99.5z M322.5,106.9c-2.5,0-4.3-1.4-4.3-3.4
		c0-2,1.8-3.4,4.3-3.4c2.5,0,4.3,1.4,4.3,3.4C326.8,105.5,325,106.9,322.5,106.9z M322.3,110.9h9.4v2h-11.9v-5.1h2.5V110.9z
		 M322.5,105c1.1,0,1.9-0.5,1.9-1.5c0-0.9-0.8-1.5-1.9-1.5c-1.1,0-1.9,0.5-1.9,1.5C320.6,104.5,321.4,105,322.5,105z M333.4,101.1
		v2.1h-2.3v5.7h-2.5V95.7h2.5v5.3H333.4z"/>
	<path class="st1" d="M349.9,104.9c-2.5,0.4-4.7,0.5-8.3,0.5h-1.5v-8.6h8.4v2h-5.9v1.3h5.4v1.9h-5.4v1.4c3,0,4.9-0.1,7.1-0.4
		L349.9,104.9z M342,106.8h11.6v6.2H342V106.8z M344.5,111h6.7v-2.3h-6.7V111z M353.7,95.7v10.4h-2.5V95.7H353.7z"/>
	<path class="st1" d="M366.4,100.6c0,2.4-2,4.1-4.7,4.1s-4.8-1.7-4.8-4.1c0-2.4,2.1-4.1,4.8-4.1S366.4,98.2,366.4,100.6z
		 M359.3,100.6c0,1.3,1,2.1,2.3,2.1s2.3-0.8,2.3-2.1c0-1.3-1-2.1-2.3-2.1S359.3,99.3,359.3,100.6z M362,105.9v1.6h6.6v-1.6h2.5v7.1
		h-11.6v-7.1H362z M362,111h6.6v-1.6H362V111z M371.2,95.7v9.4h-2.5v-9.4H371.2z"/>
	<path class="st1" d="M377.5,106.8c2.3-0.1,4.8-0.2,7.4-0.8l0.3,2.1c-3,0.6-5.9,0.8-8.5,0.8H375V97.4h2.5V106.8z M388.7,95.7v17.5
		h-2.5V95.7H388.7z"/>
	<path class="st1" d="M394.8,107c2.5,0,4.6-0.2,6.8-0.6l0.2,2.1c-2.6,0.5-5,0.6-8.1,0.6h-1.5V97.3h8.2v2h-5.7V107z M407.8,104.2
		h-2.5v9h-2.5V95.7h2.5v6.5h2.5V104.2z"/>
	<path class="st1" d="M409.6,110c0-1,0.7-1.8,1.7-1.8c1,0,1.7,0.8,1.7,1.8c0,1-0.7,1.8-1.7,1.8C410.3,111.8,409.6,111,409.6,110z"/>
</g>
<g class="st0">
	<path class="st1" d="M20.2,135c-1.2,0.1-2.3,0.1-3.2,0.1l-0.2-1.9c2.3,0,6,0,8.8-0.5l0.2,1.7c-1,0.2-2.1,0.4-3.2,0.5v2.5h-2.4V135z
		 M17.5,129.9c0-1.6,1.5-2.6,3.8-2.6s3.8,1,3.8,2.6c0,1.6-1.5,2.6-3.8,2.6S17.5,131.5,17.5,129.9z M29.6,138.1h2.5v5.9H19.6v-5.9
		h2.5v1.1h7.5V138.1z M19.8,129.9c0,0.6,0.6,0.9,1.6,0.9c1,0,1.6-0.3,1.6-0.9s-0.6-0.9-1.6-0.9C20.4,129,19.8,129.3,19.8,129.9z
		 M29.6,141h-7.5v1h7.5V141z M26.3,135.3V127h2.3v10.4h-2.3v-0.5h-2.6v-1.6H26.3z M32.1,126.7v10.8h-2.4v-10.8H32.1z"/>
	<path class="st1" d="M41,131c0,2.8,1.4,6.1,4.3,7.6l-1.4,1.9c-1.9-1-3.2-2.9-4-5.1c-0.7,2.4-2,4.4-4,5.5l-1.6-1.9
		c2.9-1.4,4.3-4.8,4.3-8.1v-0.6h-3.6v-2h9.6v2H41V131z M49.1,126.7v17.5h-2.5v-7h-2.8v-2.1h2.8v-1.6h-2.8v-2.1h2.8v-4.8H49.1z"/>
	<path class="st1" d="M67.7,135.2v2H51.9v-2H67.7z M56.2,141.8h9.9v2H53.7v-5.2h2.5V141.8z M66,133.4H53.8v-6.1h2.5v4.1H66V133.4z"
		/>
	<path class="st1" d="M80.2,130.6c0,3.3,1.3,6.5,4.2,7.8l-1.5,2c-1.9-0.9-3.2-2.6-3.9-4.7c-0.8,2.2-2.1,4.1-4,5.1l-1.6-2
		c3-1.4,4.3-4.8,4.3-8.1v-2.5h2.5V130.6z M88.4,126.7v17.6h-2.5v-10h-3.4v-2h3.4v-5.5H88.4z"/>
	<path class="st1" d="M100.3,135.6v1.1h4.7v4.5h-9.6v1h10v1.9H93v-4.6h9.6v-0.9H93v-1.8h4.8v-1.1h-6.6v-2H107v2H100.3z M92.7,129.9
		c0-1.9,2.3-3,6.3-3c4,0,6.3,1.1,6.3,3c0,1.9-2.3,3-6.3,3C95.1,132.8,92.7,131.8,92.7,129.9z M95.3,129.9c0,0.8,1.2,1.2,3.7,1.2
		c2.5,0,3.7-0.3,3.7-1.2c0-0.8-1.2-1.1-3.7-1.1C96.5,128.7,95.3,129.1,95.3,129.9z"/>
	<path class="st1" d="M123.3,126.7v17.6h-2.5v-6.5h-3.6c-0.8,1.7-2.1,2.7-3.8,2.7c-2.6,0-4.5-2.4-4.5-6.3c0-3.8,1.9-6.2,4.5-6.2
		c1.6,0,2.9,0.9,3.7,2.4h3.7v-3.6H123.3z M115.6,134.2c0-2.6-0.9-4-2.2-4c-1.3,0-2.1,1.4-2.1,4c0,2.6,0.9,4,2.1,4
		C114.7,138.2,115.6,136.8,115.6,134.2z M120.8,135.7v-3.4h-3c0.1,0.6,0.2,1.2,0.2,1.9c0,0.6,0,1.1-0.1,1.6H120.8z"/>
	<path class="st1" d="M132.5,131.4c0,2.7,1.4,5.8,4.3,7.1l-1.4,2c-1.9-0.9-3.3-2.6-4.1-4.7c-0.8,2.3-2.2,4.2-4.2,5.1l-1.4-2
		c2.9-1.3,4.3-4.6,4.3-7.5v-1h-3.6v-2.1h9.6v2.1h-3.5V131.4z M142.4,135.5h-2.5v8.8h-2.5v-17.5h2.5v6.7h2.5V135.5z"/>
	<path class="st1" d="M146.6,138.2c1.6,0,3.1-0.1,4.8-0.4l0.2,2c-2.1,0.4-4,0.5-6.2,0.5h-1.2v-11.5h6.5v2h-4V138.2z M158.6,126.7
		v17.5h-2.4v-8.8h-1.6v7.9h-2.3V127h2.3v6.4h1.6v-6.7H158.6z"/>
	<path class="st1" d="M171.4,130.2h-10.3v-2h3.9v-1.6h2.5v1.6h3.9V130.2z M166.2,137.2c-2.5,0-4.3-1.3-4.3-3.2
		c0-1.9,1.8-3.2,4.3-3.2c2.5,0,4.3,1.3,4.3,3.2C170.5,135.9,168.7,137.2,166.2,137.2z M163.2,138.4h11.7v5.8h-2.5v-3.8h-9.2V138.4z
		 M166.2,135.3c1.1,0,1.9-0.4,1.9-1.3c0-0.9-0.8-1.3-1.9-1.3c-1.1,0-1.9,0.4-1.9,1.3C164.3,134.9,165.1,135.3,166.2,135.3z
		 M177.2,133.3h-2.3v4.4h-2.5v-11h2.5v4.5h2.3V133.3z"/>
	<path class="st1" d="M194.4,140.1v2h-15.8v-2h3.3v-5.5h2.5v5.5h1.9v-5.5h2.5v5.5H194.4z M189.9,137.8c0.6-3.2,0.6-5.5,0.6-7.5
		h-10.4v-2H193v1.7c0,2.1,0,4.6-0.6,8.1L189.9,137.8z"/>
	<path class="st1" d="M207.1,130.6c0,3.2,1.4,6.4,4.4,7.7l-1.4,2c-2-0.9-3.4-2.6-4.1-4.8c-0.8,2.3-2.2,4.2-4.3,5.2l-1.5-2.1
		c3.1-1.3,4.5-4.7,4.5-8.1v-2.5h2.5V130.6z M214.8,126.7v17.6h-2.5v-17.6H214.8z"/>
	<path class="st1" d="M226.7,127.7c0,4.7-2.9,7.8-8.1,9.2l-1-2c3.9-1,6-2.9,6.4-5.2h-5.5v-2H226.7z M219.9,137.6h11.7v6.6h-2.5v-4.6
		h-9.2V137.6z M233.9,132.9h-2.3v4h-2.5v-10.1h2.5v4.1h2.3V132.9z"/>
	<path class="st1" d="M238.9,138c3.1,0,5-0.1,7.1-0.5l0.2,2.1c-2.4,0.5-4.6,0.5-8.3,0.5h-1.5v-11.8h8.5v2h-5.9V138z M249.8,126.7
		v17.6h-2.5v-17.6H249.8z"/>
	<path class="st1" d="M259.2,131.4c0,2.7,1.4,5.8,4.3,7.1l-1.4,2c-1.9-0.9-3.3-2.6-4.1-4.7c-0.8,2.3-2.2,4.2-4.2,5.1l-1.4-2
		c2.9-1.3,4.3-4.6,4.3-7.5v-1h-3.6v-2.1h9.6v2.1h-3.5V131.4z M269,135.5h-2.5v8.8H264v-17.5h2.5v6.7h2.5V135.5z"/>
	<path class="st1" d="M275.3,136.7c-2.7,0-4.8-1.9-4.8-4.4c0-2.6,2.1-4.4,4.8-4.4c2.7,0,4.7,1.9,4.7,4.4
		C280,134.8,278,136.7,275.3,136.7z M275.3,134.5c1.3,0,2.3-0.9,2.3-2.3c0-1.4-1-2.3-2.3-2.3c-1.3,0-2.3,0.8-2.3,2.3
		C273,133.7,274,134.5,275.3,134.5z M285.2,141.9v2h-12.1v-5.9h2.5v3.9H285.2z M284.8,139.3h-2.5v-12.6h2.5V139.3z"/>
	<path class="st1" d="M293.2,138.6c1.7-0.1,3.4-0.2,5-0.4l0.1,1.8c-3.6,0.6-7.5,0.7-10.5,0.7l-0.2-2.1c1,0,2,0,3.1,0v-5.2h2.5V138.6
		z M294.6,136.4c0.4-2.5,0.5-4.4,0.5-5.9h-6.5v-2h9v1.4c0,1.7,0,3.8-0.5,6.7L294.6,136.4z M303.9,135.8h-2.4v8.4H299v-17.5h2.5v7
		h2.4V135.8z"/>
	<path class="st1" d="M325.3,133.9v2h-15.8v-2h6.6v-1.6h2.5v1.6H325.3z M310.2,131.4c3.2-0.2,4.9-1.2,5.4-2.3H311v-1.9h12.9v1.9
		h-4.6c0.5,1.1,2.2,2.1,5.4,2.3l-0.8,1.9c-3.3-0.3-5.5-1.4-6.4-3c-0.9,1.6-3.1,2.8-6.4,3L310.2,131.4z M313.8,142.2h10v1.9h-12.5
		v-4.6h9.6v-1h-9.6v-1.8h12.1v4.5h-9.6V142.2z"/>
	<path class="st1" d="M341.6,126.7v9.4h-2.5v-3.5h-2.8c-0.5,1.9-2.3,3.2-4.5,3.2c-2.6,0-4.6-1.7-4.6-4.2s2-4.2,4.6-4.2
		c2.2,0,4,1.3,4.5,3.1h2.8v-3.9H341.6z M334.1,131.6c0-1.3-0.9-2.1-2.2-2.1c-1.3,0-2.2,0.8-2.2,2.1c0,1.3,0.9,2.1,2.2,2.1
		C333.1,133.7,334.1,132.9,334.1,131.6z M339.2,136.9h2.5v7.1h-11.6v-7.1h2.5v1.7h6.6V136.9z M339.2,140.5h-6.6v1.6h6.6V140.5z"/>
	<path class="st1" d="M353.8,137.2c-1.9-0.6-3.2-1.9-4-3.5c-0.8,1.7-2.1,3.1-4.2,3.8l-1.3-2c2.9-0.9,4.1-3.2,4.1-5.4v-0.2h-3.4v-2
		h9.4v2h-3.4v0.2c0,2.1,1.2,4.2,4,5.1L353.8,137.2z M359.5,141.9v2h-11.9v-5.5h2.5v3.5H359.5z M356.6,131.2v-4.5h2.5v12.8h-2.5v-6.2
		h-2.7v-2H356.6z"/>
	<path class="st1" d="M368.8,130.6c0,3.2,1.4,6.4,4.4,7.7l-1.4,2c-2-0.9-3.4-2.6-4.1-4.8c-0.8,2.3-2.2,4.2-4.3,5.2l-1.5-2.1
		c3.1-1.3,4.5-4.7,4.5-8.1v-2.5h2.5V130.6z M376.5,126.7v17.6H374v-17.6H376.5z"/>
	<path class="st1" d="M386.4,139.1c1.4-0.1,2.8-0.2,4.2-0.4l0.2,1.8c-3.8,0.7-7.9,0.7-11,0.7l-0.3-2c1.3,0,2.8,0,4.4,0v-1.5
		c-1.9-0.4-3.1-1.5-3.1-3.2c0-2,1.8-3.3,4.3-3.3c2.5,0,4.3,1.3,4.3,3.3c0,1.6-1.2,2.8-3.1,3.2V139.1z M390.4,130.6h-10.5v-2h4v-1.9
		h2.5v1.9h4V130.6z M385.2,136c1.2,0,2-0.5,2-1.4c0-0.9-0.8-1.4-2-1.4c-1.2,0-2,0.5-2,1.4C383.2,135.5,384,136,385.2,136z
		 M394,126.7v17.5h-2.5v-17.5H394z"/>
	<path class="st1" d="M410.5,134.2c0,3.9-2,6.3-4.6,6.3c-2.7,0-4.6-2.4-4.6-6.3c0-3.8,1.9-6.2,4.6-6.2
		C408.6,127.9,410.5,130.3,410.5,134.2z M408.1,134.2c0-2.6-0.9-4-2.2-4c-1.3,0-2.2,1.4-2.2,4c0,2.6,0.9,4,2.2,4
		C407.2,138.2,408.1,136.8,408.1,134.2z M417.5,135.4h-2.5v8.8h-2.5v-17.5h2.5v6.6h2.5V135.4z"/>
	<path class="st1" d="M427.8,128.4c0,5.4-1.3,9.9-7.8,13.2l-1.3-1.9c2.9-1.4,4.6-3.1,5.5-5l-5.1,0.5l-0.3-2.1l6.1-0.4
		c0.2-0.7,0.3-1.5,0.4-2.3h-5.5v-2H427.8z M434.9,135.5h-2.5v8.7h-2.5v-17.5h2.5v6.7h2.5V135.5z"/>
	<path class="st1" d="M445.9,134.2c0,3.9-2,6.3-4.6,6.3s-4.6-2.4-4.6-6.3c0-3.8,2-6.2,4.6-6.2S445.9,130.3,445.9,134.2z
		 M439.1,134.2c0,2.6,0.9,4,2.2,4s2.2-1.4,2.2-4c0-2.6-0.9-4-2.2-4S439.1,131.6,439.1,134.2z M450.7,126.7v17.6h-2.5v-17.6H450.7z"
		/>
	<path class="st1" d="M457.1,127.8v2.3h3.6v-2.3h2.5v8.3h-8.5v-8.3H457.1z M468.3,140.9c0,2.1-2.3,3.4-6,3.4c-3.7,0-6-1.2-6-3.4
		s2.3-3.4,6-3.4C466,137.5,468.3,138.7,468.3,140.9z M457.1,134.1h3.6V132h-3.6V134.1z M458.8,140.9c0,1,1.2,1.4,3.5,1.4
		c2.3,0,3.5-0.5,3.5-1.4c0-1-1.2-1.4-3.5-1.4C460,139.4,458.8,139.9,458.8,140.9z M468.2,126.7v10.4h-2.5v-10.4H468.2z"/>
	<path class="st1" d="M481.9,130.6c0,3.2,1.2,6.3,4,7.7l-1.5,2c-1.8-0.9-3.1-2.6-3.8-4.7c-0.8,2.2-2.1,4.1-4,5l-1.5-2
		c2.9-1.4,4.3-4.7,4.3-8v-2.5h2.5V130.6z M491.7,135.5h-2.5v8.7h-2.5v-17.5h2.5v6.7h2.5V135.5z"/>
	<path class="st1" d="M502.7,134.2c0,3.9-2,6.3-4.6,6.3s-4.6-2.4-4.6-6.3c0-3.8,2-6.2,4.6-6.2S502.7,130.3,502.7,134.2z
		 M495.9,134.2c0,2.6,0.9,4,2.2,4s2.2-1.4,2.2-4c0-2.6-0.9-4-2.2-4S495.9,131.6,495.9,134.2z M507.5,126.7v17.6h-2.5v-17.6H507.5z"
		/>
	<path class="st1" d="M526.3,140.2v2h-15.8v-2H526.3z M524.6,137.7h-12.3V128h12.2v2h-9.6v1.8h9.2v1.9h-9.2v2h9.7V137.7z"/>
	<path class="st1" d="M528,138.7c3.1,0,7.4,0,11.1-0.6l0.2,1.8c-3.8,0.8-7.9,0.8-10.9,0.8L528,138.7z M538.4,132.2
		c0,2.5-2.1,4.3-4.8,4.3c-2.7,0-4.8-1.8-4.8-4.3c0-2.5,2.1-4.3,4.8-4.3C536.3,127.9,538.4,129.7,538.4,132.2z M531.2,132.2
		c0,1.4,1,2.2,2.4,2.2c1.3,0,2.4-0.8,2.4-2.2c0-1.4-1-2.2-2.4-2.2C532.2,130,531.2,130.8,531.2,132.2z M542.5,126.7v17.6H540v-17.6
		H542.5z"/>
</g>
<g class="st0">
	<path class="st1" d="M94.2,169.3c0.5-0.1,0.9-0.1,1.4-0.2l0.2,1.8c-2.7,0.6-6.2,0.6-8.4,0.6l-0.3-2c0.4,0,0.9,0,1.4,0V162h-1.1v-2
		h8v2h-1.1V169.3z M90.7,169.5c0.4,0,0.9,0,1.3-0.1V162h-1.3V169.5z M96.6,158.4h2.3v16.3h-2.3v-8.1h-1.7v-2.2h1.7V158.4z
		 M102.4,158.1v17.5h-2.4v-17.5H102.4z"/>
	<path class="st1" d="M114.4,165.5c0,3.9-2,6.3-4.6,6.3s-4.6-2.4-4.6-6.3c0-3.8,2-6.2,4.6-6.2S114.4,161.7,114.4,165.5z
		 M107.6,165.5c0,2.6,0.9,4,2.2,4c1.3,0,2.2-1.4,2.2-4c0-2.6-0.9-4-2.2-4C108.5,161.5,107.6,162.9,107.6,165.5z M119.2,158v17.6
		h-2.5V158H119.2z"/>
	<path class="st1" d="M129,162.8c0,2.8,1.4,5.9,4.3,7.1l-1.4,2c-2-0.9-3.4-2.6-4.2-4.7c-0.8,2.3-2.2,4.2-4.2,5.1l-1.4-2
		c2.9-1.3,4.4-4.5,4.4-7.5v-1h-3.6v-2.1h9.8v2.1H129V162.8z M136.7,158.1v17.5h-2.5v-17.5H136.7z"/>
	<path class="st1" d="M159.8,168.5h-6.7v7h-2.5v-7H144v-2h11c0.4-2.2,0.5-3.9,0.5-5.4h-9.7v-2H158v1.6c0,1.6,0,3.4-0.4,5.9h2.3
		V168.5z"/>
	<path class="st1" d="M170.7,167.8c-1.8-0.6-3.1-1.8-3.8-3.4c-0.8,1.8-2.2,3.2-4.2,3.9l-1.3-2c3-0.9,4.2-3.3,4.2-5.7V159h2.5v1.4
		c0,2.4,1.1,4.5,3.9,5.4L170.7,167.8z M176.2,172.2c0,2.1-2.3,3.4-6,3.4c-3.7,0-6-1.3-6-3.4c0-2.2,2.3-3.4,6-3.4
		C173.9,168.8,176.2,170,176.2,172.2z M173.7,172.2c0-1-1.2-1.5-3.5-1.5c-2.3,0-3.5,0.5-3.5,1.5c0,1,1.2,1.5,3.5,1.5
		C172.5,173.6,173.7,173.2,173.7,172.2z M173.6,163.3h-3.2v-2h3.2v-3.2h2.5v10.3h-2.5V163.3z"/>
	<path class="st1" d="M192.6,166.5h-8.5v-7.4h8.5V166.5z M193.2,170.8c0.3,1.2,2,2.6,5.5,2.8l-0.8,1.9c-2.9-0.2-4.9-1.3-6-2.6
		c-1.1,1.3-3.1,2.4-6.1,2.6l-0.8-1.9c3.5-0.3,5.3-1.6,5.5-2.8h-4.8v-1.9h4.9v-1.4h2.5v1.4h4.9v1.9H193.2z M190.2,161.1h-3.6v3.5h3.6
		V161.1z M197.8,168h-2.5v-9.9h2.5V168z"/>
	<path class="st1" d="M220.9,171.5v2h-15.8v-2h5.6v-4.2h2.5v4.2H220.9z M216.8,163.7c0.1-0.8,0.1-1.5,0.1-2.2h-10v-2h12.5v1.5
		c0,2.1,0,4.6-0.8,8.4l-2.5-0.3c0.3-1.3,0.5-2.5,0.6-3.5l-10,0.5l-0.3-2.1L216.8,163.7z"/>
	<path class="st1" d="M233.4,166.9c-2.3,0.5-4.5,0.6-8.4,0.6h-1.5v-0.9h0v-7.2h8.3v2H226v4.1c3.2,0,5.1-0.1,7.2-0.6L233.4,166.9z
		 M237.1,172.1c0,2.2-2.3,3.5-6,3.5c-3.7,0-6-1.3-6-3.5c0-2.2,2.3-3.5,6-3.5C234.8,168.7,237.1,169.9,237.1,172.1z M234.6,172.1
		c0-1-1.2-1.5-3.5-1.5c-2.3,0-3.5,0.5-3.5,1.5c0,1,1.2,1.5,3.5,1.5C233.4,173.7,234.6,173.1,234.6,172.1z M237.1,168.5h-2.5V158h2.5
		V168.5z"/>
	<path class="st1" d="M240.2,176.4c1.5-0.6,2.3-1.5,2.3-2.6c-0.1,0-0.1,0-0.2,0c-0.9,0-1.7-0.6-1.7-1.7c0-1,0.8-1.7,1.8-1.7
		c1.3,0,2,1,2,2.8c0,2.2-1.3,3.9-3.6,4.7L240.2,176.4z"/>
	<path class="st1" d="M257,162c0,3.2,1.2,6.3,4,7.7l-1.5,2c-1.8-0.9-3.1-2.6-3.8-4.7c-0.8,2.2-2.1,4.1-4,5l-1.5-2
		c2.9-1.4,4.3-4.7,4.3-8v-2.5h2.5V162z M266.8,166.9h-2.5v8.7h-2.5v-17.5h2.5v6.7h2.5V166.9z"/>
	<path class="st1" d="M277.7,165.5c0,3.9-2,6.3-4.6,6.3s-4.6-2.4-4.6-6.3c0-3.8,2-6.2,4.6-6.2S277.7,161.7,277.7,165.5z
		 M270.9,165.5c0,2.6,0.9,4,2.2,4c1.3,0,2.2-1.4,2.2-4c0-2.6-0.9-4-2.2-4C271.8,161.5,270.9,162.9,270.9,165.5z M282.5,158v17.6H280
		V158H282.5z"/>
	<path class="st1" d="M301.3,171.5v2h-15.8v-2H301.3z M299.6,169.1h-12.3v-9.7h12.2v2h-9.6v1.8h9.2v1.9h-9.2v2h9.7V169.1z"/>
	<path class="st1" d="M317.9,168c-3.6,0.7-7.7,0.7-10.7,0.8l-0.2-2c1,0,2.1,0,3.2,0v-3.4h2.5v3.3c1.7-0.1,3.5-0.2,5.1-0.4L317.9,168
		z M314.2,165.3c0.3-1.6,0.4-2.9,0.4-4H308v-2h9v1.1c0,1.2,0,2.9-0.4,5.1L314.2,165.3z M312.1,173.3h9.7v2h-12.2V170h2.5V173.3z
		 M323.3,163.4v2.1h-2.1v5.7h-2.5V158h2.5v5.3H323.3z"/>
	<path class="st1" d="M328.2,169.5c2.7,0,4.9-0.2,7.3-0.6l0.3,2c-2.8,0.5-5.4,0.6-8.6,0.6h-1.6v-7.2h5.7v-2.8h-5.7v-2h8.3v6.8h-5.7
		V169.5z M339.3,158v17.6h-2.5V158H339.3z"/>
	<path class="st1" d="M358.1,165.9v1.8h-15.8v-1.8H358.1z M346.5,173.7h10.1v1.7H344v-4.2h9.7v-0.9H344v-1.7h12.2v4.2h-9.7V173.7z
		 M353.7,160.1h-9.5v-1.7h12v4.1h-9.5v0.9h9.8v1.7h-12.2v-4.2h9.5V160.1z"/>
	<path class="st1" d="M372.9,166.7h-8.3v-7.4h8.3V166.7z M368.9,173.6h9.3v1.7h-11.8v-7.2h11.5v1.7h-9v1h8.8v1.7h-8.8V173.6z
		 M370.4,161.2H367v3.5h3.4V161.2z M380.1,161.7v2.1h-2.3v3.6h-2.5v-9.3h2.5v3.6H380.1z"/>
	<path class="st1" d="M397.3,171.4v2h-15.8v-2h5.6v-6h2.5v6H397.3z M392.6,169.3c0.7-3.3,0.7-5.7,0.7-7.8h-10.2v-2h12.7v1.7
		c0,2.2,0,4.7-0.7,8.4L392.6,169.3z"/>
	<path class="st1" d="M403.5,163.1c0-2.5,2.1-4.2,4.8-4.2c2.7,0,4.8,1.7,4.8,4.2c0,2.5-2,4.2-4.8,4.2
		C405.6,167.3,403.5,165.6,403.5,163.1z M416.1,169.3c0,1.8,1,3.5,3.3,4.2l-1.2,1.8c-1.7-0.6-2.7-1.6-3.3-2.9
		c-0.6,1.3-1.6,2.5-3.2,3.1c-1.6-0.6-2.6-1.7-3.2-3.1c-0.6,1.3-1.7,2.3-3.2,2.9l-1.2-1.8c2.3-0.8,3.3-2.5,3.3-4.2v-0.6h2.4v0.6
		c0,1.4,0.6,2.8,1.9,3.8c1.4-1,2-2.5,2-3.8v-0.6h2.5V169.3z M406,163.1c0,1.3,1,2.1,2.3,2.1c1.3,0,2.3-0.8,2.3-2.1s-1-2.1-2.3-2.1
		C407,161,406,161.8,406,163.1z M417.8,168h-2.5v-9.9h2.5V168z"/>
	<path class="st1" d="M436.6,165.7v2h-15.8v-2H436.6z M434.9,164.9c-3-0.4-5.1-1.6-6.2-3.3c-1.1,1.7-3.3,2.9-6.2,3.3l-0.9-1.9
		c3.9-0.5,5.8-2.4,5.8-4.2v-0.5h2.6v0.5c0,1.8,1.9,3.7,5.8,4.2L434.9,164.9z M432.1,168.5h2.5v6.8h-12v-6.8h2.5v1.5h7V168.5z
		 M432.1,171.9h-7v1.5h7V171.9z"/>
	<path class="st1" d="M441.7,169.1c2.3-0.1,4.8-0.2,7.4-0.8l0.3,2.1c-3,0.6-5.9,0.8-8.5,0.8h-1.6v-11.5h2.5V169.1z M452.9,158v17.5
		h-2.5V158H452.9z"/>
	<path class="st1" d="M458.9,169.3c2.5,0,4.6-0.2,6.8-0.6l0.2,2.1c-2.6,0.5-5,0.6-8.1,0.6h-1.5v-11.7h8.2v2h-5.7V169.3z M472,166.6
		h-2.5v9h-2.5v-17.5h2.5v6.5h2.5V166.6z"/>
	<path class="st1" d="M473.7,172.4c0-1,0.7-1.8,1.7-1.8c1,0,1.7,0.8,1.7,1.8c0,1-0.7,1.8-1.7,1.8
		C474.5,174.2,473.7,173.4,473.7,172.4z"/>
</g>
<g class="st0">
	<path class="st1" d="M27.9,194.1h-9.6v-2H22v-1.9h2.5v1.9h3.4V194.1z M23.2,201.6c-2.4,0-4.1-1.4-4.1-3.5c0-2,1.7-3.4,4.1-3.4
		c2.4,0,4.1,1.4,4.1,3.4C27.3,200.2,25.6,201.6,23.2,201.6z M33.3,205.5v2H21.3v-4.9h2.5v2.9H33.3z M23.2,199.7c1,0,1.7-0.5,1.7-1.5
		c0-1-0.7-1.5-1.7-1.5c-1,0-1.7,0.6-1.7,1.5C21.5,199.1,22.2,199.7,23.2,199.7z M30.4,200.4h-2.3v-2h2.3v-1.7h-2.3v-2h2.3v-4.3h2.5
		v13.3h-2.5V200.4z"/>
	<path class="st1" d="M50.9,190.3v17.5h-2.4V199h-1.4v8h-2.3v-5.1l-1.4,1.9c-1.6-0.8-2.6-2.2-3.2-4c-0.6,2-1.6,3.7-3.2,4.6l-1.5-1.9
		c2.6-1.5,3.4-4.6,3.4-8v-0.5H36v-2h7.9v2h-2.6v0.5c0,3.1,0.9,6,3.5,7.3v-11.3h2.3v6.4h1.4v-6.7H50.9z"/>
	<path class="st1" d="M67.7,198.9c-2.1,0.5-4.2,0.6-8.1,0.6h-1.5v-8H66v2h-5.4v4c3.2,0,4.9-0.2,6.8-0.6L67.7,198.9z M71.5,204.3
		c0,2.2-2.3,3.6-5.9,3.6c-3.6,0-5.9-1.3-5.9-3.6s2.3-3.6,5.9-3.6C69.2,200.7,71.5,202,71.5,204.3z M69,204.3c0-1.1-1.2-1.6-3.5-1.6
		c-2.2,0-3.4,0.5-3.4,1.6c0,1,1.2,1.6,3.4,1.6C67.8,205.8,69,205.3,69,204.3z M73.6,194.4v2h-2.3v3.9h-2.5v-10.1h2.5v4.2H73.6z"/>
	<path class="st1" d="M84.5,200.4c-1.9-0.7-3.3-2-4-3.6c-0.8,1.8-2.2,3.2-4.2,3.9l-1.3-2c2.9-1,4.2-3.4,4.2-5.8v-1.7h2.5v1.7
		c0,2.3,1.2,4.5,4.1,5.5L84.5,200.4z M90,205.5v2H77.9v-5.6h2.5v3.6H90z M89.5,203.1H87v-12.7h2.5V203.1z"/>
	<path class="st1" d="M102.2,197.7c0,3.9-2,6.3-4.6,6.3s-4.6-2.4-4.6-6.3c0-3.8,2-6.2,4.6-6.2S102.2,193.9,102.2,197.7z M95.4,197.7
		c0,2.6,0.9,4,2.2,4c1.3,0,2.2-1.4,2.2-4c0-2.6-0.9-4-2.2-4C96.3,193.8,95.4,195.2,95.4,197.7z M107,190.3v17.6h-2.5v-17.6H107z"/>
	<path class="st1" d="M130.1,203.7v2h-15.8v-2h6.6v-3.2h-5v-9.1h2.5v2.7h7.5v-2.7h2.5v9.1h-5v3.2H130.1z M118.4,198.5h7.5v-2.5h-7.5
		V198.5z"/>
	<path class="st1" d="M147.6,203.7v2h-15.8v-2h5.6v-6h2.5v6H147.6z M142.9,201.6c0.7-3.3,0.7-5.7,0.7-7.8h-10.2v-2h12.7v1.7
		c0,2.2,0,4.7-0.7,8.4L142.9,201.6z"/>
	<path class="st1" d="M153.8,195.4c0-2.5,2.1-4.2,4.7-4.2c2.7,0,4.8,1.7,4.8,4.2c0,2.5-2,4.2-4.8,4.2
		C155.9,199.6,153.8,197.8,153.8,195.4z M166.3,201.5c0,1.8,0.9,3.5,3.3,4.2l-1.2,1.8c-1.7-0.6-2.7-1.6-3.3-2.9
		c-0.6,1.3-1.6,2.5-3.2,3.1c-1.6-0.6-2.6-1.7-3.2-3.1c-0.6,1.3-1.7,2.3-3.2,2.9l-1.2-1.8c2.3-0.8,3.3-2.5,3.3-4.2v-0.6h2.4v0.6
		c0,1.4,0.6,2.8,1.9,3.8c1.4-1,2-2.5,2-3.8v-0.6h2.5V201.5z M156.3,195.4c0,1.3,1,2.1,2.3,2.1c1.3,0,2.3-0.8,2.3-2.1s-1-2.1-2.3-2.1
		C157.2,193.3,156.3,194.1,156.3,195.4z M168.1,200.2h-2.5v-9.9h2.5V200.2z"/>
	<path class="st1" d="M186.9,198.8v2H171v-2H186.9z M175.3,205.4h9.9v2h-12.4v-5.2h2.5V205.4z M185.1,197H173v-6.1h2.5v4.1h9.6V197z
		"/>
	<path class="st1" d="M202.5,197.7c0,3.9-2,6.3-4.6,6.3s-4.6-2.4-4.6-6.3c0-3.8,2-6.2,4.6-6.2S202.5,193.9,202.5,197.7z
		 M195.7,197.7c0,2.6,0.9,4,2.2,4c1.3,0,2.2-1.4,2.2-4c0-2.6-0.9-4-2.2-4C196.6,193.8,195.7,195.2,195.7,197.7z M207.3,190.3v17.6
		h-2.5v-17.6H207.3z"/>
	<path class="st1" d="M221.1,194.2c0,3.2,1.2,6.3,4,7.7l-1.5,2c-1.8-0.9-3.1-2.6-3.8-4.7c-0.8,2.2-2.1,4.1-4,5l-1.5-2
		c2.9-1.4,4.3-4.7,4.3-8v-2.5h2.5V194.2z M230.9,199.1h-2.5v8.7h-2.5v-17.5h2.5v6.7h2.5V199.1z"/>
	<path class="st1" d="M241.8,197.7c0,3.9-2,6.3-4.6,6.3s-4.6-2.4-4.6-6.3c0-3.8,2-6.2,4.6-6.2S241.8,193.9,241.8,197.7z M235,197.7
		c0,2.6,0.9,4,2.2,4c1.3,0,2.2-1.4,2.2-4c0-2.6-0.9-4-2.2-4C235.9,193.8,235,195.2,235,197.7z M246.6,190.3v17.6h-2.5v-17.6H246.6z"
		/>
	<path class="st1" d="M265.4,203.8v2h-15.8v-2H265.4z M263.7,201.3h-12.3v-9.7h12.2v2H254v1.8h9.2v1.9H254v2h9.7V201.3z"/>
	<path class="st1" d="M282.9,198.8v2h-15.8v-2H282.9z M271.4,205.4h9.9v2h-12.4v-5.2h2.5V205.4z M281.2,197H269v-6.1h2.5v4.1h9.6
		V197z"/>
	<path class="st1" d="M292.2,198.6c-1.2,0.1-2.3,0.1-3.2,0.1l-0.2-1.9c2.3,0,6,0,8.8-0.5l0.2,1.7c-1,0.2-2.1,0.4-3.2,0.5v2.5h-2.4
		V198.6z M289.5,193.5c0-1.6,1.5-2.6,3.8-2.6c2.3,0,3.8,1,3.8,2.6c0,1.6-1.5,2.6-3.8,2.6C291,196.1,289.5,195.1,289.5,193.5z
		 M301.5,201.6h2.5v5.9h-12.5v-5.9h2.5v1.1h7.5V201.6z M291.7,193.5c0,0.6,0.6,0.9,1.6,0.9c1,0,1.6-0.3,1.6-0.9s-0.6-0.9-1.6-0.9
		C292.3,192.6,291.7,192.9,291.7,193.5z M301.5,204.6H294v1h7.5V204.6z M298.3,198.9v-8.3h2.3V201h-2.3v-0.5h-2.6v-1.6H298.3z
		 M304,190.3v10.8h-2.4v-10.8H304z"/>
	<path class="st1" d="M312.9,194.6c0,2.8,1.4,6.1,4.3,7.6l-1.4,1.9c-1.9-1-3.2-2.9-4-5.1c-0.7,2.4-2,4.4-4,5.5l-1.6-1.9
		c2.9-1.4,4.3-4.8,4.3-8.1V194h-3.6v-2h9.6v2h-3.5V194.6z M321,190.3v17.5h-2.5v-7h-2.8v-2.1h2.8v-1.6h-2.8v-2.1h2.8v-4.8H321z"/>
	<path class="st1" d="M323.9,202.3c3.1,0,7.4,0,11.1-0.6l0.2,1.8c-3.8,0.8-7.9,0.8-10.9,0.8L323.9,202.3z M334.3,195.8
		c0,2.5-2.1,4.3-4.8,4.3c-2.7,0-4.8-1.8-4.8-4.3c0-2.5,2.1-4.3,4.8-4.3C332.2,191.5,334.3,193.3,334.3,195.8z M327.1,195.8
		c0,1.4,1,2.2,2.4,2.2c1.3,0,2.4-0.8,2.4-2.2c0-1.4-1-2.2-2.4-2.2C328.1,193.6,327.1,194.4,327.1,195.8z M338.4,190.3v17.6h-2.5
		v-17.6H338.4z"/>
	<path class="st1" d="M352,195c0,2.7,1.4,5.8,4.3,7.1l-1.4,2c-1.9-0.9-3.3-2.6-4.1-4.7c-0.8,2.3-2.2,4.2-4.2,5.1l-1.4-2
		c2.9-1.3,4.3-4.6,4.3-7.5v-1h-3.6V192h9.6v2.1H352V195z M361.9,199h-2.5v8.8h-2.5v-17.5h2.5v6.7h2.5V199z"/>
	<path class="st1" d="M372.3,200.2c-2,0.4-3.8,0.4-7.2,0.4h-1.3V195h5.2v-1.7h-5.2v-2h7.7v5.5h-5.1v1.8c2.5,0,4-0.1,5.8-0.4
		L372.3,200.2z M365.7,201.9h12v5.9h-2.5v-4h-9.5V201.9z M377.7,190.3v10.8h-2.5v-2.6h-2.8v-2h2.8v-1.7h-2.8v-2h2.8v-2.4
		L377.7,190.3z"/>
	<path class="st1" d="M396.4,203.7v2.1h-15.8v-2.1H396.4z M395,196.2c0,3-2.8,5.1-6.5,5.1c-3.7,0-6.5-2-6.5-5.1
		c0-3.1,2.8-5.1,6.5-5.1C392.2,191.2,395,193.2,395,196.2z M384.4,196.2c0,1.9,1.7,3,4.1,3c2.4,0,4.1-1.1,4.1-3c0-1.9-1.7-3-4.1-3
		C386.1,193.2,384.4,194.3,384.4,196.2z"/>
	<path class="st1" d="M413.9,203.8v2.1H398v-2.1h6.6v-2.6h-4.8v-5.9h9.8v-1.9h-9.8v-2h12.3v5.8h-9.7v2h10.1v2h-5.3v2.6H413.9z"/>
	<path class="st1" d="M425.4,194.9c0,2.9,0.9,5.9,3.4,7.4l-1.5,1.8c-1.6-0.9-2.5-2.4-3.1-4.3c-0.6,2-1.6,3.7-3.2,4.7l-1.5-1.8
		c2.5-1.6,3.5-4.7,3.5-7.8v-0.9h-2.8v-2h7.8v2h-2.5V194.9z M428.9,190.6h2.3V207h-2.3v-8.7h-2.2v-2h2.2V190.6z M434.8,190.3v17.5
		h-2.4v-17.5H434.8z"/>
	<path class="st1" d="M446.5,200.2c-1.9-0.6-3.2-1.8-4-3.4c-0.8,1.7-2.1,3-4.2,3.7l-1.3-2c2.8-0.9,4.1-3.1,4.1-5.3h-3.5v-2h9.5v2
		h-3.4c0.1,2,1.3,4.1,4,5L446.5,200.2z M439.4,201.6h11.7v6.2h-2.5v-4.2h-9.2V201.6z M453.4,196.6h-2.3v4.3h-2.5v-10.5h2.5v4.2h2.3
		V196.6z"/>
	<path class="st1" d="M461.1,192.9h3.8v2h-10.2v-2h3.9v-2.3h2.5V192.9z M464.3,200c0,2.5-1.9,4.2-4.4,4.2c-2.5,0-4.4-1.7-4.4-4.2
		c0-2.4,1.9-4.2,4.4-4.2C462.4,195.9,464.3,197.6,464.3,200z M461.9,200c0-1.3-0.9-2.1-2-2.1s-2.1,0.8-2.1,2.1s0.9,2.1,2.1,2.1
		S461.9,201.4,461.9,200z M471,199.2h-2.5v8.6H466v-17.5h2.5v6.8h2.5V199.2z"/>
	<path class="st1" d="M480.5,198.3c-0.8,0.8-2,1.3-3.4,1.3c-2.6,0-4.6-1.8-4.6-4.2c0-2.5,2-4.2,4.6-4.2c1.4,0,2.5,0.5,3.4,1.3h3.9
		v-2.1h2.5v9.8h-2.5v-1.8H480.5z M485.3,201.5c0,1.9,0.9,3.6,3.3,4.3l-1.3,1.8c-1.7-0.6-2.7-1.6-3.3-3c-0.6,1.4-1.6,2.5-3.2,3.2
		c-1.6-0.6-2.6-1.8-3.2-3.1c-0.6,1.3-1.7,2.4-3.2,2.9l-1.2-1.8c2.3-0.8,3.2-2.6,3.2-4.3v-0.7h2.4v0.7c0,1.4,0.6,2.9,2,3.9
		c1.4-1,2-2.6,2-3.9v-0.7h2.5V201.5z M474.9,195.4c0,1.3,0.9,2.1,2.2,2.1c1.3,0,2.2-0.8,2.2-2.1c0-1.3-0.9-2.1-2.2-2.1
		C475.8,193.2,474.9,194,474.9,195.4z M484.4,194.4h-2.8c0.1,0.3,0.1,0.6,0.1,1c0,0.3,0,0.6-0.1,0.9h2.8V194.4z"/>
	<path class="st1" d="M505.6,197.9v2h-15.8v-2H505.6z M503.9,197.1c-3-0.4-5.1-1.6-6.2-3.3c-1.1,1.7-3.3,2.9-6.2,3.3l-0.9-1.9
		c3.9-0.5,5.8-2.4,5.8-4.2v-0.5h2.6v0.5c0,1.8,1.9,3.7,5.8,4.2L503.9,197.1z M501.1,200.8h2.5v6.8h-12v-6.8h2.5v1.5h7V200.8z
		 M501.1,204.1h-7v1.5h7V204.1z"/>
	<path class="st1" d="M510.6,201.3c2.3-0.1,4.8-0.2,7.4-0.8l0.3,2.1c-3,0.6-5.9,0.8-8.5,0.8h-1.6V192h2.5V201.3z M521.8,190.3v17.5
		h-2.5v-17.5H521.8z"/>
	<path class="st1" d="M527.9,201.5c2.5,0,4.6-0.2,6.8-0.6l0.2,2.1c-2.6,0.5-5,0.6-8.1,0.6h-1.5v-11.7h8.2v2h-5.7V201.5z M541,198.8
		h-2.5v9h-2.5v-17.5h2.5v6.5h2.5V198.8z"/>
	<path class="st1" d="M542.7,204.6c0-1,0.7-1.8,1.7-1.8c1,0,1.7,0.8,1.7,1.8c0,1-0.7,1.8-1.7,1.8
		C543.5,206.4,542.7,205.6,542.7,204.6z"/>
</g>
<g class="st0">
	<path class="st1" d="M173.5,232.4c2.5,0,4.3-0.2,6.3-0.5l0.2,2c-2.4,0.4-4.4,0.5-7.6,0.5H171v-11.8h7.9v2h-5.4V232.4z M184.8,221.1
		v17.6h-2.5v-9.5h-4.3v-2h4.3v-6H184.8z"/>
	<path class="st1" d="M200.8,229.5h-8.3v-7.3h8.3V229.5z M195.9,236.1c0.9-0.1,1.8-0.2,2.7-0.5l0.3,2c-1.4,0.5-2.8,0.6-4.5,0.6h-1
		v-6.9h2.4V236.1z M198.3,224.2h-3.4v3.4h3.4V224.2z M204,231.5h3.1v1.8h-8.8v-1.8h3.2v-1.2h2.4V231.5z M206.1,236.2
		c0,1.5-1.4,2.5-3.4,2.5s-3.4-1-3.4-2.5c0-1.5,1.4-2.5,3.4-2.5S206.1,234.7,206.1,236.2z M203.9,236.2c0-0.5-0.5-0.8-1.2-0.8
		c-0.7,0-1.2,0.2-1.2,0.8c0,0.5,0.5,0.8,1.2,0.8C203.4,237,203.9,236.7,203.9,236.2z M208,224.8v2.1h-2.3v3h-2.5v-8.7h2.5v3.6H208z"
		/>
	<path class="st1" d="M219.1,228.6c0,3.9-2,6.3-4.6,6.3s-4.6-2.4-4.6-6.3c0-3.8,2-6.2,4.6-6.2S219.1,224.7,219.1,228.6z
		 M212.3,228.6c0,2.6,0.9,4,2.2,4c1.3,0,2.2-1.4,2.2-4c0-2.6-0.9-4-2.2-4C213.2,224.6,212.3,226,212.3,228.6z M223.9,221.1v17.6
		h-2.5v-17.6H223.9z"/>
	<path class="st1" d="M236,229.6c-2.7,0-4.7-1.7-4.7-4c0-2.3,2-4,4.7-4c2.7,0,4.7,1.7,4.7,4C240.7,227.9,238.7,229.6,236,229.6z
		 M235.9,236.5h9.5v1.9h-12v-4.9h9.1v-1h-9.1v-1.9H245v4.8h-9V236.5z M236,227.6c1.3,0,2.2-0.7,2.2-2c0-1.2-0.9-2-2.2-2
		c-1.3,0-2.2,0.7-2.2,2C233.8,226.8,234.7,227.6,236,227.6z M247.3,224.5v2.1H245v3.3h-2.5v-8.7h2.5v3.4H247.3z"/>
	<path class="st1" d="M264.5,234.5v2h-15.8v-2h5.6v-6h2.5v6H264.5z M259.8,232.4c0.7-3.3,0.7-5.7,0.7-7.8h-10.2v-2H263v1.7
		c0,2.2,0,4.7-0.7,8.4L259.8,232.4z"/>
	<path class="st1" d="M280,230.3c-2-0.6-3.3-1.8-4.1-3.3c-0.8,1.7-2.2,3-4.3,3.6l-1.2-2c2.9-0.9,4.2-3.1,4.2-5.2v-1.7h2.5v1.7
		c0,2.1,1.3,4.1,4.1,4.9L280,230.3z M285.3,236.5v2H273v-2h2.2v-2.9h-2.1v-2h11.9v2h-2v2.9H285.3z M277.7,236.5h2.8v-2.9h-2.8V236.5
		z M285,230.8h-2.5v-9.7h2.5V230.8z"/>
	<path class="st1" d="M303.8,228.8v2H288v-2H303.8z M302.1,228c-3-0.4-5.1-1.6-6.2-3.3c-1.1,1.7-3.3,2.9-6.2,3.3l-0.9-1.9
		c3.9-0.5,5.8-2.4,5.8-4.2v-0.5h2.6v0.5c0,1.8,1.9,3.7,5.8,4.2L302.1,228z M299.3,231.6h2.5v6.8h-12v-6.8h2.5v1.5h7V231.6z
		 M299.3,235h-7v1.5h7V235z"/>
	<path class="st1" d="M308.9,232.2c2.3-0.1,4.8-0.2,7.4-0.8l0.3,2.1c-3,0.6-5.9,0.8-8.5,0.8h-1.6v-11.5h2.5V232.2z M320.1,221.1
		v17.5h-2.5v-17.5H320.1z"/>
	<path class="st1" d="M328.1,222.9c0,4.8-0.4,8.6-3.6,12l-2-1.4c2.3-2.6,3-5.1,3.1-8.6h-2.4v-2H328.1z M332.9,222.9
		c0,5.1-0.4,9.4-3.5,13.1l-2-1.4c2.3-2.9,2.9-5.9,3.1-9.7h-1.9v-2H332.9z M339.1,230h-2.3v8.6h-2.5v-17.5h2.5v6.9h2.3V230z"/>
	<path class="st1" d="M345.7,226.1c0-0.9-0.6-1.6-1.6-1.6c-0.8,0-1.5,0.4-2.1,1.1l-1.5-1.4c1-1.1,2.3-1.9,4-1.9c2.3,0,4,1.2,4,3.6
		c0,2.7-3.3,3.6-3,6.3H343C342.5,229.2,345.7,227.9,345.7,226.1z M342.4,235.4c0-1,0.7-1.8,1.7-1.8c1,0,1.7,0.8,1.7,1.8
		c0,1-0.7,1.8-1.7,1.8C343.2,237.3,342.4,236.5,342.4,235.4z"/>
	<path class="st1" d="M357.8,229.4c-1.2,0.1-2.3,0.1-3.2,0.1l-0.2-1.9c2.3,0,6,0,8.8-0.5l0.2,1.7c-1,0.2-2.1,0.4-3.2,0.5v2.5h-2.4
		V229.4z M355.1,224.3c0-1.6,1.5-2.6,3.8-2.6s3.8,1,3.8,2.6c0,1.6-1.5,2.6-3.8,2.6S355.1,226,355.1,224.3z M367.1,232.5h2.5v5.9
		h-12.5v-5.9h2.5v1.1h7.5V232.5z M357.3,224.3c0,0.6,0.6,0.9,1.6,0.9c1,0,1.6-0.3,1.6-0.9s-0.6-0.9-1.6-0.9
		C357.9,223.4,357.3,223.7,357.3,224.3z M367.1,235.5h-7.5v1h7.5V235.5z M363.9,229.7v-8.3h2.3v10.4h-2.3v-0.5h-2.6v-1.6H363.9z
		 M369.6,221.1v10.8h-2.4v-10.8H369.6z"/>
	<path class="st1" d="M375.3,229.4c-1.2,0.1-2.3,0.1-3.2,0.1l-0.2-1.9c2.3,0,6,0,8.8-0.5l0.2,1.7c-1,0.2-2.1,0.4-3.2,0.5v2.5h-2.4
		V229.4z M372.6,224.3c0-1.6,1.5-2.6,3.8-2.6s3.8,1,3.8,2.6c0,1.6-1.5,2.6-3.8,2.6S372.6,226,372.6,224.3z M384.6,232.5h2.5v5.9
		h-12.5v-5.9h2.5v1.1h7.5V232.5z M374.8,224.3c0,0.6,0.6,0.9,1.6,0.9c1,0,1.6-0.3,1.6-0.9s-0.6-0.9-1.6-0.9
		C375.4,223.4,374.8,223.7,374.8,224.3z M384.6,235.5h-7.5v1h7.5V235.5z M381.4,229.7v-8.3h2.3v10.4h-2.3v-0.5h-2.6v-1.6H381.4z
		 M387.1,221.1v10.8h-2.4v-10.8H387.1z"/>
	<path class="st1" d="M390.4,235.4c0-1,0.7-1.8,1.7-1.8c1,0,1.7,0.8,1.7,1.8c0,1-0.8,1.8-1.7,1.8
		C391.2,237.3,390.4,236.5,390.4,235.4z M390.8,225.2l-0.1-2.6h2.8l-0.1,2.6l-0.4,7h-1.8L390.8,225.2z"/>
</g>
</svg>
