<?xml version="1.0" encoding="utf-8"?>
<!-- Generator: Adobe Illustrator 21.0.0, SVG Export Plug-In . SVG Version: 6.00 Build 0)  -->
<svg version="1.1" id="레이어_1" xmlns="http://www.w3.org/2000/svg" xmlns:xlink="http://www.w3.org/1999/xlink" x="0px"
	 y="0px" viewBox="0 0 565 388.1" style="enable-background:new 0 0 565 388.1;" xml:space="preserve">
<style type="text/css">
	.st0{enable-background:new    ;}
	.st1{fill:#080808;}
	.st2{fill:#FC4C00;}
</style>
<g class="st0">
	<path class="st1" d="M101.8,10.3h-6.3V7.9h9.3v1.7c-3.3,4-3.7,6.9-3.9,12.4H98C98.3,17.1,99.1,14,101.8,10.3z"/>
	<path class="st1" d="M122.4,19.9v2h-15.9v-2h6.6v-2c-2.9-0.3-4.7-1.5-4.7-3.4c0-2.1,2.3-3.4,5.9-3.4c3.7,0,5.9,1.3,5.9,3.4
		c0,1.9-1.8,3.1-4.7,3.4v2H122.4z M121.6,10.3h-14.4v-2h5.9v-2h2.5v2h6V10.3z M114.4,15.9c2.2,0,3.4-0.5,3.4-1.5
		c0-1-1.2-1.5-3.4-1.5c-2.2,0-3.3,0.5-3.3,1.5C111,15.5,112.2,15.9,114.4,15.9z"/>
	<path class="st1" d="M133.1,16.5c-1.8-0.7-3.1-1.9-3.8-3.6c-0.7,1.8-2.1,3.2-4.1,4l-1.3-2c2.9-1,4.1-3.4,4.1-5.9V7.2h2.5v1.9
		c0,2.3,1.2,4.5,3.9,5.5L133.1,16.5z M139,21.3v2h-11.9v-5.6h2.5v3.6H139z M136.1,11.9h-3.2v-2h3.2V6.1h2.5v12.9h-2.5V11.9z"/>
	<path class="st1" d="M148.7,17.6c1.9,0,3.3-0.1,5-0.3l0.2,2c-2,0.3-3.7,0.4-6.4,0.4h-1.2V7.9h7.1v2h-4.7v2.6h4.3v1.9h-4.3V17.6z
		 M160.8,6.1v17.5h-2.4v-8.7H157v7.9h-2.3V6.4h2.3v6.5h1.4V6.1H160.8z"/>
	<path class="st1" d="M179.1,15.2v2h-15.8v-2H179.1z M177.3,20.9c0,1.8-2.2,2.8-6.1,2.8s-6.1-1-6.1-2.8s2.2-2.8,6.1-2.8
		S177.3,19,177.3,20.9z M174.7,8.5h-9.5V6.6h12v4.7h-9.5v1h9.8v1.9h-12.3V9.5h9.5V8.5z M174.7,20.9c0-0.7-1.1-1-3.6-1
		c-2.5,0-3.6,0.3-3.6,1c0,0.7,1.1,1,3.6,1C173.6,21.8,174.7,21.5,174.7,20.9z"/>
	<path class="st1" d="M190.5,11c0,2.4-2,4.1-4.7,4.1S181,13.4,181,11c0-2.4,2.1-4.1,4.8-4.1S190.5,8.6,190.5,11z M183.4,11
		c0,1.3,1,2.1,2.3,2.1s2.3-0.8,2.3-2.1c0-1.3-1-2.1-2.3-2.1S183.4,9.7,183.4,11z M186.1,16.3v1.6h6.6v-1.6h2.5v7.1h-11.6v-7.1H186.1
		z M186.1,21.4h6.6v-1.6h-6.6V21.4z M195.3,6.1v9.4h-2.5V6.1H195.3z"/>
	<path class="st1" d="M214,16.6h-6.7v7h-2.5v-7h-6.5v-2h11c0.4-2.2,0.5-3.9,0.5-5.4H200v-2h12.1v1.6c0,1.6,0,3.4-0.4,5.9h2.3V16.6z"
		/>
	<path class="st1" d="M230.3,6.1v10.4h-2.5v-2.2H224c-0.8,0.9-2.1,1.4-3.5,1.4c-2.6,0-4.6-1.8-4.6-4.3c0-2.5,2-4.3,4.6-4.3
		c1.4,0,2.7,0.6,3.5,1.4h3.8V6.1H230.3z M222.8,11.4c0-1.4-1-2.2-2.2-2.2c-1.3,0-2.2,0.8-2.2,2.2c0,1.4,0.9,2.2,2.2,2.2
		C221.8,13.6,222.8,12.8,222.8,11.4z M218.4,17.3h11.9v6.4h-2.5v-4.4h-9.4V17.3z M227.8,12.3v-1.8H225c0.1,0.3,0.1,0.6,0.1,0.9
		c0,0.3,0,0.6-0.1,0.9H227.8z"/>
	<path class="st1" d="M233.4,24.5c1.5-0.6,2.3-1.5,2.3-2.6c-0.1,0-0.1,0-0.2,0c-0.9,0-1.7-0.6-1.7-1.7c0-1,0.8-1.7,1.8-1.7
		c1.3,0,2,1,2,2.8c0,2.2-1.3,3.9-3.6,4.7L233.4,24.5z"/>
	<path class="st1" d="M251.6,10.9c-0.5-0.6-1.3-1-2.2-1c-1.6,0-2.9,1.2-3.1,4.7c0.8-0.9,2-1.5,2.9-1.5c2.4,0,4,1.4,4,4.4
		c0,2.9-2,4.7-4.4,4.7c-2.7,0-5.1-2.1-5.1-7.1c0-5.2,2.6-7.5,5.4-7.5c1.7,0,3,0.7,3.8,1.6L251.6,10.9z M250.7,17.6
		c0-1.7-0.8-2.5-2-2.5c-0.8,0-1.6,0.4-2.3,1.5c0.3,2.6,1.2,3.6,2.4,3.6C249.8,20.2,250.7,19.3,250.7,17.6z"/>
	<path class="st1" d="M270.7,19.9v2h-15.9v-2h6.6v-2c-2.9-0.3-4.7-1.5-4.7-3.4c0-2.1,2.3-3.4,5.9-3.4c3.7,0,5.9,1.3,5.9,3.4
		c0,1.9-1.8,3.1-4.7,3.4v2H270.7z M270,10.3h-14.4v-2h5.9v-2h2.5v2h6V10.3z M262.7,15.9c2.2,0,3.4-0.5,3.4-1.5c0-1-1.2-1.5-3.4-1.5
		c-2.2,0-3.3,0.5-3.3,1.5C259.4,15.5,260.6,15.9,262.7,15.9z"/>
	<path class="st1" d="M281.5,16.5c-1.8-0.7-3.1-1.9-3.8-3.6c-0.7,1.8-2.1,3.2-4.1,4l-1.3-2c2.9-1,4.1-3.4,4.1-5.9V7.2h2.5v1.9
		c0,2.3,1.2,4.5,3.9,5.5L281.5,16.5z M287.3,21.3v2h-11.9v-5.6h2.5v3.6H287.3z M284.5,11.9h-3.2v-2h3.2V6.1h2.5v12.9h-2.5V11.9z"/>
	<path class="st1" d="M300.7,18.6c1.3-0.1,2.7-0.2,4-0.4l0.2,1.8c-3.7,0.7-7.6,0.7-10.6,0.7l-0.3-2c1.3,0,2.7,0,4.2,0v-1.5
		c-1.8-0.4-3-1.6-3-3.2c0-2,1.8-3.3,4.3-3.3s4.3,1.3,4.3,3.3c0,1.6-1.2,2.8-3,3.2V18.6z M304.6,10h-10.3v-2h3.9V6.2h2.5v1.8h3.9V10z
		 M299.4,15.4c1.1,0,1.9-0.5,1.9-1.4c0-0.9-0.8-1.4-1.9-1.4s-1.9,0.5-1.9,1.4C297.5,14.9,298.3,15.4,299.4,15.4z M310.2,15.3H308
		v8.3h-2.5V6.1h2.5v7.1h2.2V15.3z"/>
	<path class="st1" d="M317.7,10.6V9.2h-5.5v-2h8v5.3h-5.5v1.5c2.8,0,4.8-0.1,7-0.5l0.2,2c-2.4,0.5-4.7,0.5-8.2,0.5h-1.5v-5.4H317.7z
		 M325.6,20.3c0,2.1-2.3,3.3-5.9,3.3s-5.9-1.2-5.9-3.3c0-2.1,2.3-3.3,5.9-3.3S325.6,18.2,325.6,20.3z M323.1,20.3
		c0-1-1.2-1.4-3.5-1.4c-2.3,0-3.5,0.4-3.5,1.4s1.2,1.4,3.5,1.4C321.9,21.7,323.1,21.3,323.1,20.3z M327.7,10.2v2.1h-2.3v4.4h-2.5
		V6.2h2.5v4.1H327.7z"/>
	<path class="st1" d="M332.1,17.6c1.6,0,3.1-0.1,4.8-0.4l0.2,2c-2.1,0.4-4,0.5-6.2,0.5h-1.2V8.2h6.5v2h-4V17.6z M344.1,6.1v17.5
		h-2.4v-8.8h-1.6v7.9h-2.3V6.5h2.3v6.4h1.6V6.1H344.1z"/>
	<path class="st1" d="M346.8,24.5c1.5-0.6,2.3-1.5,2.3-2.6c-0.1,0-0.1,0-0.2,0c-0.9,0-1.7-0.6-1.7-1.7c0-1,0.8-1.7,1.8-1.7
		c1.3,0,2,1,2,2.8c0,2.2-1.3,3.9-3.6,4.7L346.8,24.5z"/>
	<path class="st1" d="M366.2,16c-1.9-0.6-3.1-1.9-3.9-3.4c-0.8,1.7-2.1,3-4.1,3.7l-1.3-2c2.9-1,4.1-3.3,4.1-5.6V7h2.5v1.8
		c0,2.2,1.2,4.3,3.9,5.2L366.2,16z M359.8,17.3h11.9v6.3h-2.5v-4.3h-9.4V17.3z M371.7,6.1v10.4h-2.5v-5.1H366v-2h3.2V6.1H371.7z"/>
	<path class="st1" d="M383.6,6.5h2.3v16.4h-2.3v-5.7h-2.4v-2h2.4v-2.4h-2.1c-0.8,2.9-2.5,5.3-5.8,7.3l-1.4-1.7
		c3.5-2.1,5-4.6,5.3-8.1h-4.3v-2h6.8c0,0.9-0.1,1.7-0.2,2.5h1.7V6.5z M389.6,6.1v17.5h-2.4V6.1H389.6z"/>
	<path class="st1" d="M406.6,6.1v10.4h-2.5v-2.2h-3.8c-0.8,0.9-2.1,1.4-3.5,1.4c-2.6,0-4.6-1.8-4.6-4.3c0-2.5,2-4.3,4.6-4.3
		c1.4,0,2.7,0.6,3.5,1.4h3.8V6.1H406.6z M399.1,11.4c0-1.4-1-2.2-2.2-2.2c-1.3,0-2.2,0.8-2.2,2.2c0,1.4,0.9,2.2,2.2,2.2
		C398.1,13.6,399.1,12.8,399.1,11.4z M394.7,17.3h11.9v6.4h-2.5v-4.4h-9.4V17.3z M404.1,12.3v-1.8h-2.8c0.1,0.3,0.1,0.6,0.1,0.9
		c0,0.3,0,0.6-0.1,0.9H404.1z"/>
	<path class="st1" d="M418.6,6.4h2.3v16.4h-2.3v-8.2h-1.4c-0.2,3.4-1.7,5.5-3.8,5.5c-2.3,0-3.8-2.4-3.8-6.4c0-4,1.5-6.3,3.8-6.3
		c2.1,0,3.5,1.9,3.8,5.2h1.4V6.4z M415,13.7c0-2.7-0.6-4-1.5-4c-0.9,0-1.5,1.3-1.5,4c0,2.7,0.6,4,1.5,4
		C414.4,17.7,415,16.4,415,13.7z M424.5,6.1v17.5h-2.4V6.1H424.5z"/>
	<path class="st1" d="M433.6,10c0,3.3,1.3,6.5,4.2,7.8l-1.5,2c-1.9-0.9-3.2-2.6-3.9-4.7c-0.8,2.2-2.1,4.1-4,5.1l-1.6-2
		c3-1.4,4.3-4.8,4.3-8.1V7.5h2.5V10z M441.7,6.1v17.6h-2.5v-10h-3.4v-2h3.4V6.1H441.7z"/>
	<path class="st1" d="M455.3,10c0,3.4,1.3,6.6,4.2,7.9l-1.5,2c-1.9-1-3.2-2.7-3.9-4.9c-0.8,2.3-2.1,4.1-4,5l-1.6-2
		c3-1.3,4.3-4.7,4.3-8.1V7.5h2.5V10z M463.5,6.1v17.5h-2.6v-7.7h-3.1v-2.1h3.1v-2.2h-3.1V9.6h3.1V6.1H463.5z"/>
	<path class="st1" d="M482,14v1.8h-15.7V14H482z M470.6,21.8h10v1.7h-12.5v-4.3h9.6v-0.8h-9.6v-1.7h12.1v4.2h-9.6V21.8z M480.4,13.2
		h-12.2V6.5h12v1.7h-9.6V9h9.1v1.6h-9.1v0.9h9.7V13.2z"/>
	<path class="st1" d="M498.4,6.1v17.6h-2.5v-9.4h-3.1v5.3h-8.4v-12h2.5v4.2h3.4V7.5h2.5v4.8h3.1V6.1H498.4z M490.3,13.7h-3.4v3.9
		h3.4V13.7z"/>
	<path class="st1" d="M517.1,19.5v2h-15.8v-2H517.1z M515.4,16.5c-3-0.6-5.3-2.3-6.4-4.5c-1.1,2.2-3.3,3.9-6.4,4.5l-1.1-2.1
		c3.9-0.7,6.1-3.5,6.1-6V7.2h2.7v1.3c0,2.6,2.2,5.3,6.1,6L515.4,16.5z"/>
	<path class="st1" d="M538.8,14.6v2h-6.5v3h-2.6v-3H523v-2H538.8z M524.6,10.1c0-2.2,2.5-3.6,6.3-3.6c3.8,0,6.3,1.4,6.3,3.6
		c0,2.2-2.5,3.6-6.3,3.6C527.1,13.7,524.6,12.3,524.6,10.1z M527.4,21.3h9.7v2h-12.3v-5.2h2.5V21.3z M527.3,10.1
		c0,1.1,1.4,1.6,3.6,1.6c2.2,0,3.6-0.6,3.6-1.6s-1.4-1.6-3.6-1.6C528.7,8.5,527.3,9,527.3,10.1z"/>
	<path class="st1" d="M548.9,9.9h-8.5V7.9h3V6.3h2.5v1.6h3V9.9z M544.7,16.5c-2.2,0-3.8-1.3-3.8-3.1s1.6-3,3.8-3
		c2.2,0,3.8,1.2,3.8,3S546.9,16.5,544.7,16.5z M544.7,14.7c0.9,0,1.5-0.5,1.5-1.3c0-0.8-0.6-1.3-1.5-1.3c-0.9,0-1.6,0.4-1.6,1.3
		C543.1,14.3,543.8,14.7,544.7,14.7z M555.5,20.5c0,2-2.3,3.2-6,3.2s-6-1.1-6-3.2c0-2,2.3-3.2,6-3.2S555.5,18.4,555.5,20.5z
		 M553,20.5c0-0.9-1.2-1.3-3.5-1.3s-3.5,0.4-3.5,1.3c0,0.9,1.2,1.3,3.5,1.3S553,21.4,553,20.5z M551.7,16.5h-2.3V6.5h2.3v4h1.3V6.1
		h2.4v10.9H553v-4.6h-1.3V16.5z"/>
</g>
<g class="st0">
	<path d="M11.6,9.7H1.3v-2h3.9V6h2.5v1.6h3.9V9.7z M6.5,16.6c-2.5,0-4.3-1.3-4.3-3.2c0-1.9,1.8-3.2,4.3-3.2c2.5,0,4.3,1.3,4.3,3.2
		C10.8,15.3,9,16.6,6.5,16.6z M3.5,17.8h11.7v5.8h-2.5v-3.8H3.5V17.8z M6.5,14.7c1.1,0,1.9-0.4,1.9-1.3c0-0.9-0.8-1.3-1.9-1.3
		c-1.1,0-1.9,0.4-1.9,1.3C4.6,14.3,5.4,14.7,6.5,14.7z M17.4,12.7h-2.3v4.4h-2.5v-11h2.5v4.5h2.3V12.7z"/>
	<path d="M34.7,19.5v2H18.8v-2h3.3V14h2.5v5.5h1.9V14h2.5v5.5H34.7z M30.1,17.2c0.6-3.2,0.6-5.5,0.6-7.5H20.4v-2h12.9v1.7
		c0,2.1,0,4.6-0.6,8.1L30.1,17.2z"/>
	<path d="M51,6.1v17.6h-2.5v-9.4h-3.1v5.3H37v-12h2.5v4.2h3.4V7.5h2.5v4.8h3.1V6.1H51z M42.9,13.7h-3.4v3.9h3.4V13.7z"/>
	<path d="M69.6,19.5v2H53.8v-2H69.6z M68,16.5c-3-0.6-5.3-2.3-6.4-4.5c-1.1,2.2-3.3,3.9-6.4,4.5l-1.1-2.1c3.9-0.7,6.1-3.5,6.1-6V7.2
		H63v1.3c0,2.6,2.2,5.3,6.1,6L68,16.5z"/>
</g>
<g class="st0">
	<path d="M82.5,6.1v17.3H80V6.1H82.5z"/>
</g>
<g>
	<g class="st0">
		<path class="st2" d="M96.1,79.3h3v-8.9h-2.5v-1.7c1.4-0.3,2.4-0.6,3.3-1.2h2.1v11.8h2.6v2.3h-8.5V79.3z"/>
		<path class="st2" d="M106.7,84.1c1.5-0.6,2.3-1.5,2.3-2.6c-0.1,0-0.1,0-0.2,0c-0.9,0-1.7-0.6-1.7-1.7c0-1,0.8-1.7,1.8-1.7
			c1.3,0,2,1,2,2.8c0,2.2-1.3,3.9-3.6,4.7L106.7,84.1z"/>
		<path class="st2" d="M120.6,70.5c-0.5-0.6-1.3-1-2.2-1c-1.6,0-2.9,1.2-3.1,4.7c0.8-0.9,2-1.5,2.9-1.5c2.4,0,4,1.4,4,4.4
			c0,2.9-2,4.7-4.4,4.7c-2.7,0-5.1-2.1-5.1-7.1c0-5.2,2.6-7.5,5.4-7.5c1.7,0,3,0.7,3.8,1.6L120.6,70.5z M119.7,77.2
			c0-1.7-0.8-2.5-2-2.5c-0.8,0-1.6,0.4-2.3,1.5c0.3,2.6,1.2,3.6,2.4,3.6C118.9,79.7,119.7,78.9,119.7,77.2z"/>
		<path class="st2" d="M139.7,79.4v2h-15.9v-2h6.6v-2c-2.9-0.3-4.7-1.5-4.7-3.4c0-2.1,2.3-3.4,5.9-3.4c3.7,0,5.9,1.3,5.9,3.4
			c0,1.9-1.8,3.1-4.7,3.4v2H139.7z M139,69.9h-14.4v-2h5.9v-2h2.5v2h6V69.9z M131.7,75.5c2.2,0,3.4-0.5,3.4-1.5c0-1-1.2-1.5-3.4-1.5
			c-2.2,0-3.3,0.5-3.3,1.5C128.4,75.1,129.6,75.5,131.7,75.5z"/>
		<path class="st2" d="M150.5,76.1c-1.8-0.7-3.1-1.9-3.8-3.6c-0.7,1.8-2.1,3.2-4.1,4l-1.3-2c2.9-1,4.1-3.4,4.1-5.9v-1.9h2.5v1.9
			c0,2.3,1.2,4.5,3.9,5.5L150.5,76.1z M156.4,80.9v2h-11.9v-5.6h2.5v3.6H156.4z M153.5,71.5h-3.2v-2h3.2v-3.7h2.5v12.9h-2.5V71.5z"
			/>
	</g>
	<g class="st0">
		<path class="st1" d="M170,75.6c-1.9-0.6-3.1-1.9-3.9-3.4c-0.8,1.7-2.1,3-4.1,3.7l-1.3-2c2.9-1,4.1-3.3,4.1-5.6v-1.7h2.5v1.8
			c0,2.2,1.2,4.3,3.9,5.2L170,75.6z M163.6,76.9h11.9v6.3H173v-4.3h-9.4V76.9z M175.5,65.7v10.4H173V71h-3.2v-2h3.2v-3.3H175.5z"/>
		<path class="st1" d="M187.4,66.1h2.3v16.4h-2.3v-5.7H185v-2h2.4v-2.4h-2.1c-0.8,2.9-2.5,5.3-5.8,7.3l-1.4-1.7
			c3.5-2.1,5-4.6,5.3-8.1h-4.3v-2h6.8c0,0.9-0.1,1.7-0.2,2.5h1.7V66.1z M193.4,65.7v17.5H191V65.7H193.4z"/>
		<path class="st1" d="M210.5,65.7v10.4h-2.5v-2.2h-3.8c-0.8,0.9-2.1,1.4-3.5,1.4c-2.6,0-4.6-1.8-4.6-4.3c0-2.5,2-4.3,4.6-4.3
			c1.4,0,2.7,0.6,3.5,1.4h3.8v-2.4H210.5z M202.9,71c0-1.4-0.9-2.2-2.2-2.2c-1.3,0-2.2,0.8-2.2,2.2c0,1.4,0.9,2.2,2.2,2.2
			C201.9,73.2,202.9,72.3,202.9,71z M198.5,76.9h11.9v6.4h-2.5v-4.4h-9.4V76.9z M207.9,71.9v-1.8h-2.8c0.1,0.3,0.1,0.6,0.1,0.9
			c0,0.3,0,0.6-0.1,0.9H207.9z"/>
		<path class="st1" d="M227.5,77.9h-1.7v3.6h-2.6v-3.6h-6V76l5.2-8.5h3.3v8.3h1.7V77.9z M223.2,75.8v-2.9c0-0.8,0.1-2.1,0.1-2.9
			h-0.1c-0.3,0.7-0.7,1.5-1.1,2.3l-2.2,3.5H223.2z"/>
		<path class="st1" d="M237.8,75.9h-8.3v-9h2.5v2.7h3.3v-2.6h2.5v3.5h3.1v-4.6h2.5v12.9h-2.5v-6.2h-3.1V75.9z M243.8,80.9v2h-11.9
			v-5.5h2.5v3.5H243.8z M235.4,71.5H232v2.5h3.3V71.5z"/>
		<path class="st1" d="M259.8,75v1h4.7v4.3h-9.6v0.9h10v1.8h-12.5v-4.4h9.6v-0.8h-9.6V76h4.8v-1h-6.6v-1.8h15.7V75H259.8z
			 M251.2,70.9c3.5-0.2,5.2-1,5.7-2h-4.8v-1.8h5.1v-1.4h2.5v1.4h5.1v1.8H260c0.5,1,2.2,1.8,5.7,2l-0.7,1.8c-3.2-0.2-5.5-1-6.6-2.3
			c-1.1,1.3-3.3,2.1-6.6,2.3L251.2,70.9z"/>
		<path class="st1" d="M283.9,76.2h-6.7v7h-2.5v-7h-6.5v-2h11c0.4-2.2,0.5-3.9,0.5-5.4h-9.7v-2H282v1.6c0,1.6,0,3.4-0.4,5.9h2.3
			V76.2z"/>
		<path class="st1" d="M294.6,66h2.3v16.4h-2.3v-8.2h-1.4c-0.2,3.4-1.7,5.5-3.8,5.5c-2.3,0-3.8-2.4-3.8-6.4c0-4,1.5-6.3,3.8-6.3
			c2.1,0,3.5,1.9,3.8,5.2h1.4V66z M291,73.3c0-2.7-0.6-4-1.5-4c-0.9,0-1.5,1.3-1.5,4c0,2.7,0.6,4,1.5,4C290.5,77.3,291,76,291,73.3z
			 M300.6,65.7v17.5h-2.4V65.7H300.6z"/>
		<path class="st1" d="M309.6,69.6c0,3.3,1.3,6.5,4.2,7.8l-1.5,2c-1.9-0.9-3.2-2.6-3.9-4.7c-0.8,2.2-2.1,4.1-4,5.1l-1.6-2
			c3-1.4,4.3-4.8,4.3-8.1v-2.5h2.5V69.6z M317.7,65.7v17.6h-2.5v-10h-3.4v-2h3.4v-5.5H317.7z"/>
		<path class="st1" d="M331.6,69.6c0,3.2,1.4,6.4,4.4,7.7l-1.4,2c-2-0.9-3.4-2.6-4.1-4.8c-0.8,2.3-2.2,4.2-4.3,5.2l-1.5-2.1
			c3.1-1.3,4.5-4.7,4.5-8.1v-2.5h2.5V69.6z M339.3,65.7v17.6h-2.5V65.7H339.3z"/>
		<path class="st1" d="M345.5,76.8c1.4,0,2.9-0.2,4.5-0.5l0.2,2.1c-2.3,0.4-4.3,0.5-6,0.5H343V67.7h2.5V76.8z M357.3,65.7v17.5h-2.4
			v-8.7h-1.6v7.9H351V66h2.3v6.4h1.6v-6.7H357.3z"/>
		<path class="st1" d="M374.5,65.7v17.6H372v-9.4h-3.1v5.3h-8.4v-12h2.5v4.2h3.4v-4.2h2.5v4.8h3.1v-6.2H374.5z M366.4,73.3h-3.4v3.9
			h3.4V73.3z"/>
		<path class="st1" d="M393.1,79.1v2h-15.8v-2H393.1z M391.5,76.1c-3-0.6-5.3-2.3-6.4-4.5c-1.1,2.2-3.3,3.9-6.4,4.5l-1.1-2.1
			c3.9-0.7,6.1-3.5,6.1-6v-1.3h2.7V68c0,2.6,2.2,5.3,6.1,6L391.5,76.1z"/>
		<path class="st1" d="M408.8,73.2c0,3.9-2,6.3-4.6,6.3s-4.6-2.4-4.6-6.3c0-3.8,2-6.2,4.6-6.2S408.8,69.3,408.8,73.2z M402,73.2
			c0,2.6,0.9,4,2.2,4s2.2-1.4,2.2-4c0-2.6-0.9-4-2.2-4S402,70.6,402,73.2z M413.6,65.7v17.6h-2.5V65.7H413.6z"/>
		<path class="st1" d="M432.4,74v2h-15.8v-2h3.6v-2.1c-1.3-0.6-2-1.4-2-2.6c0-2.1,2.5-3.4,6.3-3.4c3.9,0,6.3,1.3,6.3,3.4
			c0,1.1-0.7,2-2,2.6V74H432.4z M430.5,80c0,2-2.3,3.2-6.1,3.2s-6.1-1.2-6.1-3.2c0-2,2.3-3.2,6.1-3.2S430.5,78,430.5,80z
			 M420.7,69.3c0,1,1.4,1.4,3.7,1.4c2.4,0,3.8-0.5,3.8-1.4c0-1-1.4-1.5-3.8-1.5C422.1,67.9,420.7,68.4,420.7,69.3z M427.9,80
			c0-0.9-1.2-1.3-3.5-1.3s-3.5,0.4-3.5,1.3c0,0.9,1.2,1.3,3.5,1.3S427.9,80.9,427.9,80z M422.6,74h3.6v-1.4
			c-0.6,0.1-1.2,0.1-1.8,0.1c-0.7,0-1.3,0-1.8-0.1V74z"/>
	</g>
	<g class="st0">
		<path class="st2" d="M103.2,100.5c-0.5-0.6-1.3-1-2.2-1c-1.6,0-2.9,1.2-3.1,4.7c0.8-0.9,2-1.5,2.9-1.5c2.4,0,4,1.4,4,4.4
			c0,2.9-2,4.7-4.4,4.7c-2.7,0-5.1-2.1-5.1-7.1c0-5.2,2.6-7.5,5.4-7.5c1.7,0,3,0.7,3.8,1.6L103.2,100.5z M102.3,107.2
			c0-1.7-0.8-2.5-2-2.5c-0.8,0-1.6,0.4-2.3,1.5c0.3,2.6,1.2,3.6,2.4,3.6C101.5,109.7,102.3,108.9,102.3,107.2z"/>
		<path class="st2" d="M106.7,114.1c1.5-0.6,2.3-1.5,2.3-2.6c-0.1,0-0.1,0-0.2,0c-0.9,0-1.7-0.6-1.7-1.7c0-1,0.8-1.7,1.8-1.7
			c1.3,0,2,1,2,2.8c0,2.2-1.3,3.9-3.6,4.7L106.7,114.1z"/>
		<path class="st2" d="M119.1,99.9h-6.3v-2.3h9.3v1.7c-3.3,4-3.7,6.9-3.9,12.4h-2.8C115.6,106.7,116.5,103.6,119.1,99.9z"/>
		<path class="st2" d="M139.7,109.4v2h-15.9v-2h6.6v-2c-2.9-0.3-4.7-1.5-4.7-3.4c0-2.1,2.3-3.4,5.9-3.4c3.7,0,5.9,1.3,5.9,3.4
			c0,1.9-1.8,3.1-4.7,3.4v2H139.7z M139,99.9h-14.4v-2h5.9v-2h2.5v2h6V99.9z M131.7,105.5c2.2,0,3.4-0.5,3.4-1.5
			c0-1-1.2-1.5-3.4-1.5c-2.2,0-3.3,0.5-3.3,1.5C128.4,105.1,129.6,105.5,131.7,105.5z"/>
		<path class="st2" d="M150.5,106.1c-1.8-0.7-3.1-1.9-3.8-3.6c-0.7,1.8-2.1,3.2-4.1,4l-1.3-2c2.9-1,4.1-3.4,4.1-5.9v-1.9h2.5v1.9
			c0,2.3,1.2,4.5,3.9,5.5L150.5,106.1z M156.4,110.9v2h-11.9v-5.6h2.5v3.6H156.4z M153.5,101.5h-3.2v-2h3.2v-3.7h2.5v12.9h-2.5
			V101.5z"/>
	</g>
	<g class="st0">
		<path class="st1" d="M163.8,107.2c1.9,0,3.3-0.1,5-0.3l0.2,2c-2,0.3-3.7,0.4-6.4,0.4h-1.2V97.5h7.1v2h-4.7v2.6h4.3v1.9h-4.3V107.2
			z M175.9,95.7v17.5h-2.4v-8.7h-1.4v7.9h-2.3V96h2.3v6.5h1.4v-6.8H175.9z"/>
		<path class="st1" d="M194.2,104.8v2h-15.8v-2H194.2z M192.3,110.4c0,1.8-2.2,2.8-6.1,2.8s-6.1-1-6.1-2.8s2.2-2.8,6.1-2.8
			S192.3,108.6,192.3,110.4z M189.8,98.1h-9.5v-1.9h12v4.7h-9.5v1h9.8v1.9h-12.3v-4.7h9.5V98.1z M189.8,110.4c0-0.7-1.1-1-3.6-1
			c-2.5,0-3.6,0.3-3.6,1c0,0.7,1.1,1,3.6,1C188.7,111.4,189.8,111.1,189.8,110.4z"/>
		<path class="st1" d="M205.6,100.6c0,2.4-2,4.1-4.7,4.1c-2.7,0-4.8-1.7-4.8-4.1c0-2.4,2.1-4.1,4.8-4.1
			C203.6,96.4,205.6,98.2,205.6,100.6z M198.5,100.6c0,1.3,1,2.1,2.3,2.1c1.3,0,2.3-0.8,2.3-2.1c0-1.3-1-2.1-2.3-2.1
			C199.5,98.5,198.5,99.3,198.5,100.6z M201.2,105.9v1.6h6.6v-1.6h2.5v7.1h-11.6v-7.1H201.2z M201.2,111h6.6v-1.6h-6.6V111z
			 M210.4,95.7v9.4h-2.5v-9.4H210.4z"/>
		<path class="st1" d="M229.1,106.2h-6.7v7h-2.5v-7h-6.5v-2h11c0.4-2.2,0.5-3.9,0.5-5.4h-9.7v-2h12.1v1.6c0,1.6,0,3.4-0.4,5.9h2.3
			V106.2z"/>
		<path class="st1" d="M245.4,95.7v10.4h-2.5v-2.2h-3.8c-0.8,0.9-2.1,1.4-3.5,1.4c-2.6,0-4.6-1.8-4.6-4.3c0-2.5,2-4.3,4.6-4.3
			c1.4,0,2.7,0.6,3.5,1.4h3.8v-2.4H245.4z M237.9,101c0-1.4-1-2.2-2.2-2.2c-1.3,0-2.2,0.8-2.2,2.2c0,1.4,0.9,2.2,2.2,2.2
			C236.9,103.2,237.9,102.3,237.9,101z M233.5,106.9h11.9v6.4h-2.5v-4.4h-9.4V106.9z M242.9,101.9v-1.8h-2.8
			c0.1,0.3,0.1,0.6,0.1,0.9c0,0.3,0,0.6-0.1,0.9H242.9z"/>
		<path class="st1" d="M259,99.9h-6.3v-2.3h9.3v1.7c-3.3,4-3.7,6.9-3.9,12.4h-2.8C255.5,106.7,256.4,103.6,259,99.9z"/>
		<path class="st1" d="M272.8,105.9h-8.3v-9h2.5v2.7h3.3v-2.6h2.5v3.5h3.1v-4.6h2.5v12.9h-2.5v-6.2h-3.1V105.9z M278.8,110.9v2
			h-11.9v-5.5h2.5v3.5H278.8z M270.3,101.5H267v2.5h3.3V101.5z"/>
		<path class="st1" d="M294.7,105v1h4.7v4.3h-9.6v0.9h10v1.8h-12.5v-4.4h9.6v-0.8h-9.6V106h4.8v-1h-6.6v-1.8h15.7v1.8H294.7z
			 M286.2,100.9c3.5-0.2,5.2-1,5.7-2h-4.8v-1.8h5.1v-1.4h2.5v1.4h5.1v1.8H295c0.5,1,2.2,1.8,5.7,2l-0.7,1.8c-3.2-0.2-5.5-1-6.6-2.3
			c-1.1,1.3-3.3,2.1-6.6,2.3L286.2,100.9z"/>
		<path class="st1" d="M318.9,106.2h-6.7v7h-2.5v-7h-6.5v-2h11c0.4-2.2,0.5-3.9,0.5-5.4h-9.7v-2H317v1.6c0,1.6,0,3.4-0.4,5.9h2.3
			V106.2z"/>
		<path class="st1" d="M329.6,96h2.3v16.4h-2.3v-8.2h-1.4c-0.2,3.4-1.7,5.5-3.8,5.5c-2.3,0-3.8-2.4-3.8-6.4c0-4,1.5-6.3,3.8-6.3
			c2.1,0,3.5,1.9,3.8,5.2h1.4V96z M326,103.3c0-2.7-0.6-4-1.5-4c-0.9,0-1.5,1.3-1.5,4c0,2.7,0.6,4,1.5,4
			C325.4,107.3,326,106,326,103.3z M335.5,95.7v17.5h-2.4V95.7H335.5z"/>
		<path class="st1" d="M344.6,99.6c0,3.3,1.3,6.5,4.2,7.8l-1.5,2c-1.9-0.9-3.2-2.6-3.9-4.7c-0.8,2.2-2.1,4.1-4,5.1l-1.6-2
			c3-1.4,4.3-4.8,4.3-8.1v-2.5h2.5V99.6z M352.7,95.7v17.6h-2.5v-10h-3.4v-2h3.4v-5.5H352.7z"/>
		<path class="st1" d="M370.1,99.2h-10.3v-2h3.9v-1.6h2.5v1.6h3.9V99.2z M364.9,106.2c-2.5,0-4.3-1.3-4.3-3.2c0-1.9,1.8-3.2,4.3-3.2
			c2.5,0,4.3,1.3,4.3,3.2C369.2,104.9,367.5,106.2,364.9,106.2z M361.9,107.4h11.7v5.8h-2.5v-3.8h-9.2V107.4z M364.9,104.3
			c1.1,0,1.9-0.4,1.9-1.3c0-0.9-0.8-1.3-1.9-1.3c-1.1,0-1.9,0.4-1.9,1.3C363,103.9,363.8,104.3,364.9,104.3z M375.9,102.3h-2.3v4.4
			h-2.5v-11h2.5v4.5h2.3V102.3z"/>
		<path class="st1" d="M393.1,109.1v2h-15.8v-2h3.3v-5.5h2.5v5.5h1.9v-5.5h2.5v5.5H393.1z M388.6,106.8c0.6-3.2,0.6-5.5,0.6-7.5
			h-10.4v-2h12.9v1.7c0,2.1,0,4.6-0.6,8.1L388.6,106.8z"/>
		<path class="st1" d="M409.4,95.7v17.6h-2.5v-9.4h-3.1v5.3h-8.4v-12h2.5v4.2h3.4v-4.2h2.5v4.8h3.1v-6.2H409.4z M401.3,103.3h-3.4
			v3.9h3.4V103.3z"/>
		<path class="st1" d="M428.1,109.1v2h-15.8v-2H428.1z M426.5,106.1c-3-0.6-5.3-2.3-6.4-4.5c-1.1,2.2-3.3,3.9-6.4,4.5l-1.1-2.1
			c3.9-0.7,6.1-3.5,6.1-6v-1.3h2.7V98c0,2.6,2.2,5.3,6.1,6L426.5,106.1z"/>
		<path class="st1" d="M443.4,104.2h-8.5v-7.4h8.5V104.2z M444,108.4c0.3,1.2,2,2.6,5.5,2.8l-0.8,1.9c-2.9-0.2-4.9-1.3-6-2.6
			c-1.1,1.3-3.1,2.4-6.1,2.6l-0.8-1.9c3.5-0.3,5.3-1.6,5.5-2.8h-4.8v-1.9h4.9v-1.4h2.5v1.4h4.9v1.9H444z M440.9,98.7h-3.6v3.5h3.6
			V98.7z M448.5,105.7H446v-9.9h2.5V105.7z"/>
		<path class="st1" d="M462.6,99.6c0,3.2,1.4,6.4,4.4,7.7l-1.4,2c-2-0.9-3.4-2.6-4.1-4.8c-0.8,2.3-2.2,4.2-4.3,5.2l-1.5-2.1
			c3.1-1.3,4.5-4.7,4.5-8.1v-2.5h2.5V99.6z M470.3,95.7v17.6h-2.5V95.7H470.3z"/>
		<path class="st1" d="M476.5,106.8c1.4,0,2.9-0.2,4.5-0.5l0.2,2.1c-2.3,0.4-4.3,0.5-6,0.5H474V97.7h2.5V106.8z M488.3,95.7v17.5
			h-2.4v-8.7h-1.6v7.9H482V96h2.3v6.4h1.6v-6.7H488.3z"/>
		<path class="st1" d="M505.5,95.7v17.6H503v-9.4h-3.1v5.3h-8.4v-12h2.5v4.2h3.4v-4.2h2.5v4.8h3.1v-6.2H505.5z M497.4,103.3h-3.4
			v3.9h3.4V103.3z"/>
		<path class="st1" d="M524.1,109.1v2h-15.8v-2H524.1z M522.5,106.1c-3-0.6-5.3-2.3-6.4-4.5c-1.1,2.2-3.3,3.9-6.4,4.5l-1.1-2.1
			c3.9-0.7,6.1-3.5,6.1-6v-1.3h2.7V98c0,2.6,2.2,5.3,6.1,6L522.5,106.1z"/>
		<path class="st1" d="M539.7,103.2c0,3.9-2,6.3-4.6,6.3s-4.6-2.4-4.6-6.3c0-3.8,2-6.2,4.6-6.2S539.7,99.3,539.7,103.2z M533,103.2
			c0,2.6,0.9,4,2.2,4s2.2-1.4,2.2-4c0-2.6-0.9-4-2.2-4S533,100.6,533,103.2z M544.5,95.7v17.6H542V95.7H544.5z"/>
		<path class="st1" d="M563.3,104v2h-15.8v-2h3.6v-2.1c-1.3-0.6-2-1.4-2-2.6c0-2.1,2.5-3.4,6.3-3.4c3.9,0,6.3,1.3,6.3,3.4
			c0,1.1-0.7,2-2,2.6v2.1H563.3z M561.5,110c0,2-2.3,3.2-6.1,3.2s-6.1-1.2-6.1-3.2c0-2,2.3-3.2,6.1-3.2S561.5,108,561.5,110z
			 M551.7,99.3c0,1,1.4,1.4,3.7,1.4c2.4,0,3.8-0.5,3.8-1.4c0-1-1.4-1.5-3.8-1.5C553.1,97.9,551.7,98.4,551.7,99.3z M558.9,110
			c0-0.9-1.2-1.3-3.5-1.3s-3.5,0.4-3.5,1.3c0,0.9,1.2,1.3,3.5,1.3S558.9,110.9,558.9,110z M553.6,104h3.6v-1.4
			c-0.6,0.1-1.2,0.1-1.8,0.1c-0.7,0-1.3,0-1.8-0.1V104z"/>
	</g>
	<g class="st0">
		<path class="st2" d="M103.2,131.5c-0.5-0.6-1.3-1-2.2-1c-1.6,0-2.9,1.2-3.1,4.7c0.8-0.9,2-1.5,2.9-1.5c2.4,0,4,1.4,4,4.4
			c0,2.9-2,4.7-4.4,4.7c-2.7,0-5.1-2.1-5.1-7.1c0-5.2,2.6-7.5,5.4-7.5c1.7,0,3,0.7,3.8,1.6L103.2,131.5z M102.3,138.2
			c0-1.7-0.8-2.5-2-2.5c-0.8,0-1.6,0.4-2.3,1.5c0.3,2.6,1.2,3.6,2.4,3.6C101.5,140.7,102.3,139.9,102.3,138.2z"/>
		<path class="st2" d="M122.4,140.4v2h-15.9v-2h6.6v-2c-2.9-0.3-4.7-1.5-4.7-3.4c0-2.1,2.3-3.4,5.9-3.4c3.7,0,5.9,1.3,5.9,3.4
			c0,1.9-1.8,3.1-4.7,3.4v2H122.4z M121.6,130.9h-14.4v-2h5.9v-2h2.5v2h6V130.9z M114.4,136.5c2.2,0,3.4-0.5,3.4-1.5
			c0-1-1.2-1.5-3.4-1.5c-2.2,0-3.3,0.5-3.3,1.5C111,136.1,112.2,136.5,114.4,136.5z"/>
		<path class="st2" d="M133.1,137.1c-1.8-0.7-3.1-1.9-3.8-3.6c-0.7,1.8-2.1,3.2-4.1,4l-1.3-2c2.9-1,4.1-3.4,4.1-5.9v-1.9h2.5v1.9
			c0,2.3,1.2,4.5,3.9,5.5L133.1,137.1z M139,141.9v2h-11.9v-5.6h2.5v3.6H139z M136.1,132.5h-3.2v-2h3.2v-3.7h2.5v12.9h-2.5V132.5z"
			/>
	</g>
	<g class="st0">
		<path class="st1" d="M151,139.1c1.3-0.1,2.7-0.2,4-0.4l0.2,1.8c-3.7,0.7-7.6,0.7-10.6,0.7l-0.3-2c1.3,0,2.7,0,4.2,0v-1.5
			c-1.8-0.4-3-1.6-3-3.2c0-2,1.8-3.3,4.3-3.3c2.5,0,4.3,1.3,4.3,3.3c0,1.6-1.2,2.8-3,3.2V139.1z M154.8,130.6h-10.3v-2h3.9v-1.8h2.5
			v1.8h3.9V130.6z M149.7,136c1.1,0,1.9-0.5,1.9-1.4c0-0.9-0.8-1.4-1.9-1.4c-1.1,0-1.9,0.5-1.9,1.4C147.8,135.5,148.6,136,149.7,136
			z M160.5,135.9h-2.2v8.3h-2.5v-17.5h2.5v7.1h2.2V135.9z"/>
		<path class="st1" d="M168,131.1v-1.4h-5.5v-2h8v5.3H165v1.5c2.8,0,4.8-0.1,7-0.5l0.2,2c-2.4,0.5-4.7,0.5-8.1,0.5h-1.5v-5.4H168z
			 M175.8,140.9c0,2.1-2.3,3.3-5.9,3.3s-5.9-1.2-5.9-3.3c0-2.1,2.3-3.3,5.9-3.3S175.8,138.8,175.8,140.9z M173.4,140.9
			c0-1-1.2-1.4-3.5-1.4c-2.3,0-3.5,0.4-3.5,1.4s1.2,1.4,3.5,1.4C172.2,142.3,173.4,141.9,173.4,140.9z M178,130.8v2.1h-2.3v4.4h-2.5
			v-10.5h2.5v4.1H178z"/>
		<path class="st1" d="M182.3,138.2c1.6,0,3.1-0.1,4.8-0.4l0.2,2c-2.1,0.4-4,0.5-6.2,0.5h-1.2v-11.5h6.5v2h-4V138.2z M194.4,126.7
			v17.5H192v-8.8h-1.6v7.9h-2.3V127h2.3v6.4h1.6v-6.7H194.4z"/>
		<path class="st1" d="M211.5,126.7v10.4H209v-2.2h-3.8c-0.8,0.9-2.1,1.4-3.5,1.4c-2.6,0-4.6-1.8-4.6-4.3c0-2.5,2-4.3,4.6-4.3
			c1.4,0,2.7,0.6,3.5,1.4h3.8v-2.4H211.5z M203.9,132c0-1.4-1-2.2-2.2-2.2c-1.3,0-2.2,0.8-2.2,2.2c0,1.4,0.9,2.2,2.2,2.2
			C203,134.2,203.9,133.3,203.9,132z M199.6,137.9h11.9v6.4H209v-4.4h-9.4V137.9z M209,132.9v-1.8h-2.8c0.1,0.3,0.1,0.6,0.1,0.9
			c0,0.3,0,0.6-0.1,0.9H209z"/>
		<path class="st1" d="M218.3,140.9l1.3-1.8c0.8,0.8,1.9,1.4,3.1,1.4c1.4,0,2.4-0.7,2.4-2c0-1.4-0.8-2.2-3.9-2.2v-2
			c2.6,0,3.4-0.9,3.4-2.1c0-1.1-0.7-1.7-1.9-1.8c-1,0-1.8,0.5-2.7,1.3l-1.4-1.7c1.2-1.1,2.6-1.7,4.2-1.7c2.7,0,4.6,1.3,4.6,3.7
			c0,1.5-0.9,2.6-2.4,3.2v0.1c1.6,0.4,2.8,1.6,2.8,3.5c0,2.6-2.3,4.1-4.9,4.1C220.8,142.8,219.3,142,218.3,140.9z"/>
		<path class="st1" d="M238.8,136.9h-8.3v-9h2.5v2.7h3.3v-2.6h2.5v3.5h3.1v-4.6h2.5v12.9H242v-6.2h-3.1V136.9z M244.8,141.9v2h-11.9
			v-5.5h2.5v3.5H244.8z M236.4,132.5h-3.3v2.5h3.3V132.5z"/>
		<path class="st1" d="M260.8,136v1h4.7v4.3h-9.6v0.9h10v1.8h-12.5v-4.4h9.6v-0.8h-9.6V137h4.8v-1h-6.6v-1.8h15.7v1.8H260.8z
			 M252.3,131.9c3.5-0.2,5.2-1,5.7-2h-4.8v-1.8h5.1v-1.4h2.5v1.4h5.1v1.8h-4.9c0.5,1,2.2,1.8,5.7,2l-0.7,1.8c-3.2-0.2-5.5-1-6.6-2.3
			c-1.1,1.3-3.3,2.1-6.6,2.3L252.3,131.9z"/>
		<path class="st1" d="M284.9,137.2h-6.7v7h-2.5v-7h-6.5v-2h11c0.4-2.2,0.5-3.9,0.5-5.4h-9.7v-2h12.1v1.6c0,1.6,0,3.4-0.4,5.9h2.3
			V137.2z"/>
		<path class="st1" d="M295.7,127h2.3v16.4h-2.3v-8.2h-1.4c-0.2,3.4-1.7,5.5-3.8,5.5c-2.3,0-3.8-2.4-3.8-6.4c0-4,1.5-6.3,3.8-6.3
			c2.1,0,3.5,1.9,3.8,5.2h1.4V127z M292,134.3c0-2.7-0.6-4-1.5-4c-0.9,0-1.5,1.3-1.5,4c0,2.7,0.6,4,1.5,4
			C291.5,138.3,292,137,292,134.3z M301.6,126.7v17.5h-2.4v-17.5H301.6z"/>
		<path class="st1" d="M310.6,130.6c0,3.3,1.3,6.5,4.2,7.8l-1.5,2c-1.9-0.9-3.2-2.6-3.9-4.7c-0.8,2.2-2.1,4.1-4,5.1l-1.6-2
			c3-1.4,4.3-4.8,4.3-8.1v-2.5h2.5V130.6z M318.8,126.7v17.6h-2.5v-10h-3.4v-2h3.4v-5.5H318.8z"/>
		<path class="st1" d="M332.1,129.3h3.8v2h-10.2v-2h3.9V127h2.5V129.3z M335.3,136.4c0,2.5-1.9,4.2-4.4,4.2c-2.5,0-4.4-1.7-4.4-4.2
			c0-2.4,1.9-4.2,4.4-4.2C333.4,132.3,335.3,134,335.3,136.4z M332.9,136.4c0-1.3-0.9-2.1-2-2.1s-2.1,0.8-2.1,2.1s0.9,2.1,2.1,2.1
			S332.9,137.8,332.9,136.4z M342.1,135.6h-2.5v8.6h-2.5v-17.5h2.5v6.8h2.5V135.6z"/>
		<path class="st1" d="M349.7,132.2c0,2.5,1.2,5.3,4,6.6l-1.3,1.9c-1.9-0.9-3.1-2.5-3.9-4.4c-0.8,2.1-2.1,3.9-4.1,4.7l-1.3-1.9
			c2.8-1.3,4.1-4.3,4.1-6.9v-0.6h-3.6v-2h3.6v-2.4h2.5v2.4h3.5v2h-3.5V132.2z M359.6,135.6H357v8.6h-2.5v-17.5h2.5v6.8h2.5V135.6z"
			/>
		<path class="st1" d="M367.1,129.3h3.8v2h-10.2v-2h3.9V127h2.5V129.3z M370.3,136.4c0,2.5-1.9,4.2-4.4,4.2c-2.5,0-4.4-1.7-4.4-4.2
			c0-2.4,1.9-4.2,4.4-4.2C368.4,132.3,370.3,134,370.3,136.4z M367.9,136.4c0-1.3-0.9-2.1-2-2.1s-2.1,0.8-2.1,2.1s0.9,2.1,2.1,2.1
			S367.9,137.8,367.9,136.4z M377.1,135.6h-2.5v8.6H372v-17.5h2.5v6.8h2.5V135.6z"/>
		<path class="st1" d="M393,126.7v17.6h-2.5v-6.5h-3.6c-0.8,1.7-2.1,2.7-3.8,2.7c-2.6,0-4.5-2.4-4.5-6.3c0-3.8,1.9-6.2,4.5-6.2
			c1.6,0,2.9,0.9,3.7,2.4h3.7v-3.6H393z M385.3,134.2c0-2.6-0.9-4-2.2-4c-1.3,0-2.1,1.4-2.1,4c0,2.6,0.9,4,2.1,4
			C384.4,138.2,385.3,136.8,385.3,134.2z M390.5,135.7v-3.4h-3c0.1,0.6,0.2,1.2,0.2,1.9c0,0.6,0,1.1-0.1,1.6H390.5z"/>
		<path class="st1" d="M415.9,140.2v2.1h-15.8v-2.1h6.6v-3.6h-4.8v-8.6h12.2v2h-9.7v4.6h9.8v2h-5v3.6H415.9z"/>
		<path class="st1" d="M433.4,140.2v2h-15.8v-2h6.6v-3.2h-5v-9.1h2.5v2.7h7.5v-2.7h2.5v9.1h-5v3.2H433.4z M421.7,134.9h7.5v-2.5
			h-7.5V134.9z"/>
		<path class="st1" d="M440.1,140.3h3v-8.9h-2.5v-1.7c1.4-0.3,2.4-0.6,3.3-1.2h2.1v11.8h2.6v2.3h-8.5V140.3z"/>
		<path class="st1" d="M450.2,140.9l1.3-1.8c0.8,0.8,1.8,1.4,3.1,1.4c1.5,0,2.5-0.9,2.5-2.6c0-1.6-1-2.5-2.4-2.5
			c-0.8,0-1.3,0.2-2.1,0.7l-1.3-0.8l0.4-6.8h7.5v2.3h-5.1l-0.3,3c0.6-0.3,1-0.4,1.7-0.4c2.4,0,4.3,1.4,4.3,4.5
			c0,3.1-2.3,4.9-4.9,4.9C452.8,142.8,451.3,142,450.2,140.9z"/>
		<path class="st1" d="M477.6,135.7v2h-6.5v2.8h-2.5v-2.8h-6.9v-2H477.6z M466.1,141.9h9.8v2h-12.3v-4.8h2.5V141.9z M475.6,134.5
			h-11.8v-7.2h2.5v1.8h6.8v-1.8h2.5V134.5z M473.1,130.9h-6.8v1.6h6.8V130.9z"/>
		<path class="st1" d="M499.4,140.1v2h-15.8v-2h6.6v-3.9h2.5v3.9H499.4z M497.8,136.8c-3.1-0.6-5.3-2.2-6.5-4.3
			c-1.1,2.1-3.4,3.8-6.4,4.3l-1-2.1c4-0.6,6.1-3.3,6.1-5.8v-1.3h2.7v1.3c0,2.5,2.1,5.1,6.1,5.8L497.8,136.8z"/>
		<path class="st1" d="M516.9,140.2v2H501v-2h3.5v-4.3c-1.3-0.8-2.1-2.1-2.1-3.6c0-2.9,2.8-4.7,6.5-4.7c3.8,0,6.5,1.8,6.5,4.7
			c0,1.5-0.8,2.8-2.1,3.6v4.3H516.9z M504.9,132.3c0,1.7,1.6,2.7,4,2.7s4.1-1,4.1-2.7c0-1.7-1.6-2.7-4.1-2.7
			S504.9,130.5,504.9,132.3z M507,140.2h3.9v-3.3c-0.6,0.1-1.3,0.2-1.9,0.2s-1.3-0.1-1.9-0.2V140.2z"/>
	</g>
	<g class="st0">
		<path d="M25.1,70.4c0,2.8,1.4,5.9,4.3,7.1l-1.4,2c-2-0.9-3.4-2.6-4.2-4.7c-0.8,2.3-2.2,4.2-4.2,5.1l-1.4-2
			c2.9-1.3,4.4-4.5,4.4-7.5v-1h-3.6v-2.1h9.8v2.1h-3.6V70.4z M32.9,65.7v17.5h-2.5V65.7H32.9z"/>
		<path d="M42.1,68.3h3.8v2H35.8v-2h3.9V66h2.5V68.3z M45.3,75.4c0,2.5-1.9,4.2-4.4,4.2c-2.5,0-4.4-1.7-4.4-4.2
			c0-2.4,1.9-4.2,4.4-4.2C43.4,71.3,45.3,73,45.3,75.4z M42.9,75.4c0-1.3-0.9-2.1-2-2.1s-2.1,0.8-2.1,2.1s0.9,2.1,2.1,2.1
			S42.9,76.8,42.9,75.4z M52.1,74.6h-2.5v8.6h-2.5V65.7h2.5v6.8h2.5V74.6z"/>
		<path d="M62.8,74.8c-2-0.4-3.4-1.4-4.3-2.7c-0.8,1.4-2.2,2.5-4.3,3l-1.1-1.9c2.8-0.6,4.1-2.3,4.1-4v-0.1h-3.4v-2h3.4v-1.5h2.5v1.5
			h3.5v2h-3.5v0.1c0,1.6,1.3,3.1,4.1,3.7L62.8,74.8z M68.5,81.2v1.9h-12v-4.7h9v-1h-9.1v-1.9H68v4.7h-9v1.1H68.5z M65.5,69.8v-4.1
			H68v9.1h-2.5v-3h-2.7v-2H65.5z"/>
	</g>
	<g class="st0">
		<path d="M82.5,65.7V83H80V65.7H82.5z"/>
	</g>
</g>
<g>
	<g class="st0">
		<path class="st1" d="M432.4,224c-2.3,0.4-4.5,0.5-7.9,0.5H423V216h8.2v2h-5.7v1.3h5.4v1.9h-5.4v1.3c2.8,0,4.6-0.1,6.6-0.5
			L432.4,224z M433.6,225.5h2.5v6.9h-11.4v-6.9h2.5v1.5h6.5V225.5z M433.6,229h-6.5v1.5h6.5V229z M438.4,221h-2.3v3.9h-2.5v-9.7h2.5
			v3.8h2.3V221z"/>
		<path class="st1" d="M455.6,223.2v2h-15.8v-2H455.6z M454,222.2c-3-0.4-5.1-1.7-6.2-3.4c-1.1,1.7-3.2,3-6.2,3.4l-0.9-2
			c3.9-0.5,5.8-2.5,5.8-4.3v-0.5h2.6v0.5c0,1.8,1.9,3.8,5.8,4.3L454,222.2z M453.8,229.5c0,2-2.3,3.2-6.1,3.2
			c-3.8,0-6.1-1.2-6.1-3.2c0-2,2.3-3.2,6.1-3.2C451.5,226.3,453.8,227.4,453.8,229.5z M451.2,229.5c0-0.9-1.2-1.3-3.5-1.3
			c-2.3,0-3.5,0.4-3.5,1.3c0,0.9,1.2,1.3,3.5,1.3C450,230.8,451.2,230.4,451.2,229.5z"/>
		<path class="st1" d="M477.5,228.5h-6.7v4.2h-2.5v-4.2h-6.6v-2h15.8V228.5z M476.6,218.9h-14.2v-2h5.9v-1.8h2.5v1.8h5.8V218.9z
			 M469.5,219.6c3.7,0,6,1.1,6,3c0,1.9-2.3,3-6,3c-3.7,0-6-1.1-6-3C463.5,220.7,465.8,219.6,469.5,219.6z M469.5,221.5
			c-2.3,0-3.4,0.3-3.4,1.2c0,0.8,1.1,1.1,3.4,1.1c2.3,0,3.4-0.4,3.4-1.1C472.9,221.8,471.8,221.5,469.5,221.5z"/>
	</g>
	<g class="st0">
		<path class="st1" d="M98.3,196.6c1.9,0,3.3-0.1,5-0.3l0.2,2c-2,0.3-3.7,0.4-6.4,0.4h-1.2v-11.7h7.1v2h-4.7v2.6h4.3v1.9h-4.3V196.6
			z M110.3,185.1v17.5H108v-8.7h-1.4v7.9h-2.3v-16.5h2.3v6.5h1.4v-6.8H110.3z"/>
		<path class="st1" d="M128.6,194.2v2h-15.8v-2H128.6z M126.8,199.9c0,1.8-2.2,2.8-6.1,2.8s-6.1-1-6.1-2.8s2.2-2.8,6.1-2.8
			S126.8,198,126.8,199.9z M124.2,187.5h-9.5v-1.9h12v4.7h-9.5v1h9.8v1.9h-12.3v-4.7h9.5V187.5z M124.3,199.9c0-0.7-1.1-1-3.6-1
			c-2.5,0-3.6,0.3-3.6,1c0,0.7,1.1,1,3.6,1C123.2,200.8,124.3,200.5,124.3,199.9z"/>
		<path class="st1" d="M140,190c0,2.4-2,4.1-4.7,4.1c-2.7,0-4.8-1.7-4.8-4.1c0-2.4,2.1-4.1,4.8-4.1C138,185.9,140,187.6,140,190z
			 M133,190c0,1.3,1,2.1,2.3,2.1c1.3,0,2.3-0.8,2.3-2.1c0-1.3-1-2.1-2.3-2.1C134,187.9,133,188.7,133,190z M135.7,195.3v1.6h6.6
			v-1.6h2.5v7.1h-11.6v-7.1H135.7z M135.7,200.4h6.6v-1.6h-6.6V200.4z M144.8,185.1v9.4h-2.5v-9.4H144.8z"/>
		<path class="st1" d="M163.6,195.6h-6.7v7h-2.5v-7h-6.5v-2h11c0.4-2.2,0.5-3.9,0.5-5.4h-9.7v-2h12.1v1.6c0,1.6,0,3.4-0.4,5.9h2.3
			V195.6z"/>
		<path class="st1" d="M179.9,185.1v10.4h-2.5v-2.2h-3.8c-0.8,0.9-2.1,1.4-3.5,1.4c-2.6,0-4.6-1.8-4.6-4.3c0-2.5,2-4.3,4.6-4.3
			c1.4,0,2.7,0.6,3.5,1.4h3.8v-2.4H179.9z M172.3,190.4c0-1.4-1-2.2-2.2-2.2c-1.3,0-2.2,0.8-2.2,2.2c0,1.4,0.9,2.2,2.2,2.2
			C171.4,192.6,172.3,191.8,172.3,190.4z M168,196.3h11.9v6.4h-2.5v-4.4H168V196.3z M177.4,191.3v-1.8h-2.8c0.1,0.3,0.1,0.6,0.1,0.9
			c0,0.3,0,0.6-0.1,0.9H177.4z"/>
		<path class="st1" d="M196.4,193.6h-8.5v-7.4h8.5V193.6z M197,197.9c0.3,1.2,2,2.6,5.5,2.8l-0.8,1.9c-2.9-0.2-4.9-1.3-6-2.6
			c-1.1,1.3-3.1,2.4-6.1,2.6l-0.8-1.9c3.5-0.3,5.3-1.6,5.5-2.8h-4.8V196h4.9v-1.4h2.5v1.4h4.9v1.9H197z M193.9,188.2h-3.6v3.5h3.6
			V188.2z M201.5,195.1H199v-9.9h2.5V195.1z"/>
		<path class="st1" d="M215.4,197.6c1.3-0.1,2.7-0.2,4-0.4l0.2,1.8c-3.7,0.7-7.6,0.7-10.6,0.7l-0.3-2c1.3,0,2.7,0,4.2,0v-1.5
			c-1.8-0.4-3-1.6-3-3.2c0-2,1.8-3.3,4.3-3.3s4.3,1.3,4.3,3.3c0,1.6-1.2,2.8-3,3.2V197.6z M219.3,189H209v-2h3.9v-1.8h2.5v1.8h3.9
			V189z M214.1,194.4c1.1,0,1.9-0.5,1.9-1.4c0-0.9-0.8-1.4-1.9-1.4s-1.9,0.5-1.9,1.4C212.2,193.9,213,194.4,214.1,194.4z
			 M224.9,194.3h-2.2v8.3h-2.5v-17.5h2.5v7.1h2.2V194.3z"/>
		<path class="st1" d="M232.4,189.6v-1.4h-5.5v-2h8v5.3h-5.5v1.5c2.8,0,4.8-0.1,7-0.5l0.2,2c-2.4,0.5-4.7,0.5-8.2,0.5h-1.5v-5.4
			H232.4z M240.2,199.3c0,2.1-2.3,3.3-5.9,3.3s-5.9-1.2-5.9-3.3c0-2.1,2.3-3.3,5.9-3.3S240.2,197.2,240.2,199.3z M237.8,199.3
			c0-1-1.2-1.4-3.5-1.4c-2.3,0-3.5,0.4-3.5,1.4s1.2,1.4,3.5,1.4C236.6,200.7,237.8,200.3,237.8,199.3z M242.4,189.2v2.1h-2.3v4.4
			h-2.5v-10.5h2.5v4.1H242.4z"/>
		<path class="st1" d="M246.7,196.6c1.6,0,3.1-0.1,4.8-0.4l0.2,2c-2.1,0.4-4,0.5-6.2,0.5h-1.2v-11.5h6.5v2h-4V196.6z M258.8,185.1
			v17.5h-2.4v-8.8h-1.6v7.9h-2.3v-16.4h2.3v6.4h1.6v-6.7H258.8z"/>
		<path class="st1" d="M275.9,185.1v10.4h-2.5v-2.2h-3.8c-0.8,0.9-2.1,1.4-3.5,1.4c-2.6,0-4.6-1.8-4.6-4.3c0-2.5,2-4.3,4.6-4.3
			c1.4,0,2.7,0.6,3.5,1.4h3.8v-2.4H275.9z M268.3,190.4c0-1.4-1-2.2-2.2-2.2c-1.3,0-2.2,0.8-2.2,2.2c0,1.4,0.9,2.2,2.2,2.2
			C267.4,192.6,268.3,191.8,268.3,190.4z M264,196.3h11.9v6.4h-2.5v-4.4H264V196.3z M273.4,191.3v-1.8h-2.8c0.1,0.3,0.1,0.6,0.1,0.9
			c0,0.3,0,0.6-0.1,0.9H273.4z"/>
		<path class="st1" d="M287.8,185.4h2.3v16.4h-2.3v-8.2h-1.4c-0.2,3.4-1.7,5.5-3.8,5.5c-2.3,0-3.8-2.4-3.8-6.4c0-4,1.5-6.3,3.8-6.3
			c2.1,0,3.5,1.9,3.8,5.2h1.4V185.4z M284.2,192.7c0-2.7-0.6-4-1.5-4c-0.9,0-1.5,1.3-1.5,4c0,2.7,0.6,4,1.5,4
			C283.6,196.7,284.2,195.4,284.2,192.7z M293.7,185.1v17.5h-2.4v-17.5H293.7z"/>
		<path class="st1" d="M302.8,189c0,3.3,1.3,6.5,4.2,7.8l-1.5,2c-1.9-0.9-3.2-2.6-3.9-4.7c-0.8,2.2-2.1,4.1-4,5.1l-1.6-2
			c3-1.4,4.3-4.8,4.3-8.1v-2.5h2.5V189z M310.9,185.1v17.6h-2.5v-10H305v-2h3.4v-5.5H310.9z"/>
	</g>
	<g class="st0">
		<path class="st2" d="M95.3,229.4c3.8-3.4,6.1-6.1,6.1-8.2c0-1.4-0.8-2.3-2.1-2.3c-1,0-1.9,0.7-2.6,1.4l-1.5-1.5
			c1.3-1.4,2.5-2.1,4.5-2.1c2.7,0,4.4,1.7,4.4,4.3c0,2.5-2.1,5.3-4.7,7.8c0.7-0.1,1.6-0.2,2.3-0.2h3.1v2.4h-9.4V229.4z"/>
		<path class="st2" d="M106.5,223.9c0-4.9,1.9-7.2,4.8-7.2c2.8,0,4.7,2.4,4.7,7.2s-1.9,7.4-4.7,7.4
			C108.4,231.3,106.5,228.8,106.5,223.9z M113.4,223.9c0-3.9-0.9-5.1-2.1-5.1c-1.2,0-2.1,1.1-2.1,5.1c0,4,0.9,5.2,2.1,5.2
			C112.5,229.1,113.4,227.9,113.4,223.9z"/>
		<path class="st2" d="M117.7,229.4c3.8-3.4,6.1-6.1,6.1-8.2c0-1.4-0.8-2.3-2.1-2.3c-1,0-1.9,0.7-2.6,1.4l-1.5-1.5
			c1.3-1.4,2.5-2.1,4.5-2.1c2.7,0,4.4,1.7,4.4,4.3c0,2.5-2.1,5.3-4.7,7.8c0.7-0.1,1.6-0.2,2.3-0.2h3.1v2.4h-9.4V229.4z"/>
		<path class="st2" d="M137.9,225.3h-8.3v-9h2.5v2.7h3.3v-2.6h2.5v3.5h3.1v-4.6h2.5v12.9H141v-6.2h-3.1V225.3z M143.9,230.3v2H132
			v-5.5h2.5v3.5H143.9z M135.4,220.9h-3.3v2.5h3.3V220.9z"/>
		<path class="st2" d="M146.6,233.5c1.5-0.6,2.3-1.5,2.3-2.6c-0.1,0-0.1,0-0.2,0c-0.9,0-1.7-0.6-1.7-1.7c0-1,0.8-1.7,1.8-1.7
			c1.3,0,2,1,2,2.8c0,2.2-1.3,3.9-3.6,4.7L146.6,233.5z"/>
		<path class="st2" d="M157.6,228.7h3v-8.9h-2.5v-1.7c1.4-0.3,2.4-0.6,3.3-1.2h2.1v11.8h2.6v2.3h-8.5V228.7z"/>
		<path class="st2" d="M168.8,228.7h3v-8.9h-2.5v-1.7c1.4-0.3,2.4-0.6,3.3-1.2h2.1v11.8h2.6v2.3h-8.5V228.7z"/>
		<path class="st2" d="M178.9,229.3l1.3-1.8c0.8,0.8,1.8,1.4,3.1,1.4c1.5,0,2.5-0.9,2.5-2.6c0-1.6-1-2.5-2.4-2.5
			c-0.8,0-1.3,0.2-2.1,0.7l-1.3-0.8l0.4-6.8h7.5v2.3h-5.1l-0.3,3c0.6-0.3,1-0.4,1.7-0.4c2.4,0,4.3,1.4,4.3,4.5
			c0,3.1-2.3,4.9-4.9,4.9C181.4,231.3,180,230.4,178.9,229.3z"/>
		<path class="st2" d="M190.1,229.3l1.3-1.8c0.8,0.8,1.8,1.4,3.1,1.4c1.5,0,2.5-0.9,2.5-2.6c0-1.6-1-2.5-2.4-2.5
			c-0.8,0-1.3,0.2-2.1,0.7l-1.3-0.8l0.4-6.8h7.5v2.3H194l-0.3,3c0.6-0.3,1-0.4,1.7-0.4c2.4,0,4.3,1.4,4.3,4.5c0,3.1-2.3,4.9-4.9,4.9
			C192.6,231.3,191.2,230.4,190.1,229.3z"/>
		<path class="st2" d="M210.6,225.3h-8.3v-9h2.5v2.7h3.3v-2.6h2.5v3.5h3.1v-4.6h2.5v12.9h-2.5v-6.2h-3.1V225.3z M216.6,230.3v2
			h-11.9v-5.5h2.5v3.5H216.6z M208.2,220.9h-3.3v2.5h3.3V220.9z"/>
		<path class="st2" d="M219.3,233.5c1.5-0.6,2.3-1.5,2.3-2.6c-0.1,0-0.1,0-0.2,0c-0.9,0-1.7-0.6-1.7-1.7c0-1,0.8-1.7,1.8-1.7
			c1.3,0,2,1,2,2.8c0,2.2-1.3,3.9-3.6,4.7L219.3,233.5z"/>
		<path class="st2" d="M230.3,228.7h3v-8.9h-2.5v-1.7c1.4-0.3,2.4-0.6,3.3-1.2h2.1v11.8h2.6v2.3h-8.5V228.7z"/>
		<path class="st2" d="M241.5,228.7h3v-8.9H242v-1.7c1.4-0.3,2.4-0.6,3.3-1.2h2.1v11.8h2.6v2.3h-8.5V228.7z"/>
		<path class="st2" d="M251.6,229.3l1.3-1.8c0.8,0.8,1.8,1.4,3.1,1.4c1.5,0,2.5-0.9,2.5-2.6c0-1.6-1-2.5-2.4-2.5
			c-0.8,0-1.3,0.2-2.1,0.7l-1.3-0.8l0.4-6.8h7.5v2.3h-5.1l-0.3,3c0.6-0.3,1-0.4,1.7-0.4c2.4,0,4.3,1.4,4.3,4.5
			c0,3.1-2.3,4.9-4.9,4.9C254.2,231.3,252.7,230.4,251.6,229.3z"/>
		<path class="st2" d="M271.1,219.9c-0.5-0.6-1.3-1-2.2-1c-1.6,0-2.9,1.2-3.1,4.7c0.8-0.9,2-1.5,2.9-1.5c2.4,0,4,1.4,4,4.4
			c0,2.9-2,4.7-4.4,4.7c-2.7,0-5.1-2.1-5.1-7.1c0-5.2,2.6-7.5,5.4-7.5c1.7,0,3,0.7,3.8,1.6L271.1,219.9z M270.2,226.6
			c0-1.7-0.8-2.5-2-2.5c-0.8,0-1.6,0.4-2.3,1.5c0.3,2.6,1.2,3.6,2.4,3.6C269.3,229.2,270.2,228.3,270.2,226.6z"/>
		<path class="st2" d="M283.4,225.3h-8.3v-9h2.5v2.7h3.3v-2.6h2.5v3.5h3.1v-4.6h2.5v12.9h-2.5v-6.2h-3.1V225.3z M289.4,230.3v2
			h-11.9v-5.5h2.5v3.5H289.4z M280.9,220.9h-3.3v2.5h3.3V220.9z"/>
		<path class="st2" d="M292,233.5c1.5-0.6,2.3-1.5,2.3-2.6c-0.1,0-0.1,0-0.2,0c-0.9,0-1.7-0.6-1.7-1.7c0-1,0.8-1.7,1.8-1.7
			c1.3,0,2,1,2,2.8c0,2.2-1.3,3.9-3.6,4.7L292,233.5z"/>
		<path class="st2" d="M302.4,227.5c0-1.8,1.1-3,2.4-3.7v-0.1c-1.1-0.8-1.9-1.8-1.9-3.3c0-2.3,1.8-3.7,4.2-3.7
			c2.5,0,4.1,1.5,4.1,3.7c0,1.4-0.9,2.5-1.8,3.2v0.1c1.3,0.7,2.4,1.8,2.4,3.8c0,2.1-1.9,3.8-4.7,3.8
			C304.4,231.3,302.4,229.7,302.4,227.5z M309.2,227.4c0-1.5-1.3-2.1-3.1-2.8c-0.8,0.6-1.3,1.6-1.3,2.6c0,1.3,1,2.1,2.4,2.1
			C308.3,229.3,309.2,228.6,309.2,227.4z M309,220.6c0-1.1-0.7-2-1.9-2c-1,0-1.7,0.6-1.7,1.7c0,1.3,1.1,2,2.6,2.6
			C308.7,222.2,309,221.4,309,220.6z"/>
		<path class="st2" d="M313.5,229.4c3.8-3.4,6.1-6.1,6.1-8.2c0-1.4-0.8-2.3-2.1-2.3c-1,0-1.9,0.7-2.6,1.4l-1.5-1.5
			c1.3-1.4,2.5-2.1,4.5-2.1c2.7,0,4.4,1.7,4.4,4.3c0,2.5-2.1,5.3-4.7,7.8c0.7-0.1,1.6-0.2,2.3-0.2h3.1v2.4h-9.4V229.4z"/>
		<path class="st2" d="M332.2,227.4h-4.6l-1,3.6h-2.8l4.5-14.1h3.3l4.5,14.1h-2.9L332.2,227.4z M331.6,225.2l-0.4-1.5
			c-0.4-1.5-0.8-3.1-1.2-4.6h-0.1c-0.4,1.5-0.8,3.1-1.2,4.6l-0.4,1.5H331.6z"/>
		<path class="st2" d="M345.9,225.3h-8.3v-9h2.5v2.7h3.3v-2.6h2.5v3.5h3.1v-4.6h2.5v12.9H349v-6.2h-3.1V225.3z M351.9,230.3v2H340
			v-5.5h2.5v3.5H351.9z M343.4,220.9h-3.3v2.5h3.3V220.9z"/>
		<path class="st2" d="M354.5,233.5c1.5-0.6,2.3-1.5,2.3-2.6c-0.1,0-0.1,0-0.2,0c-0.9,0-1.7-0.6-1.7-1.7c0-1,0.8-1.7,1.8-1.7
			c1.3,0,2,1,2,2.8c0,2.2-1.3,3.9-3.6,4.7L354.5,233.5z"/>
		<path class="st2" d="M364.9,227.5c0-1.8,1.1-3,2.4-3.7v-0.1c-1.1-0.8-1.9-1.8-1.9-3.3c0-2.3,1.8-3.7,4.2-3.7
			c2.5,0,4.1,1.5,4.1,3.7c0,1.4-0.9,2.5-1.8,3.2v0.1c1.3,0.7,2.4,1.8,2.4,3.8c0,2.1-1.9,3.8-4.7,3.8
			C366.9,231.3,364.9,229.7,364.9,227.5z M371.7,227.4c0-1.5-1.3-2.1-3.1-2.8c-0.8,0.6-1.3,1.6-1.3,2.6c0,1.3,1,2.1,2.4,2.1
			C370.9,229.3,371.7,228.6,371.7,227.4z M371.5,220.6c0-1.1-0.7-2-1.9-2c-1,0-1.7,0.6-1.7,1.7c0,1.3,1.1,2,2.6,2.6
			C371.2,222.2,371.5,221.4,371.5,220.6z"/>
		<path class="st2" d="M376,229.4c3.8-3.4,6.1-6.1,6.1-8.2c0-1.4-0.8-2.3-2.1-2.3c-1,0-1.9,0.7-2.6,1.4l-1.5-1.5
			c1.3-1.4,2.5-2.1,4.5-2.1c2.7,0,4.4,1.7,4.4,4.3c0,2.5-2.1,5.3-4.7,7.8c0.7-0.1,1.6-0.2,2.3-0.2h3.1v2.4H376V229.4z"/>
		<path class="st2" d="M388.1,216.9h4.7c2.9,0,5.1,0.8,5.1,3.5c0,1.3-0.7,2.6-1.9,3v0.1c1.5,0.4,2.6,1.4,2.6,3.3
			c0,2.8-2.4,4.1-5.5,4.1h-5V216.9z M392.6,222.7c1.8,0,2.6-0.7,2.6-1.8c0-1.2-0.8-1.7-2.5-1.7H391v3.6H392.6z M392.9,228.8
			c1.9,0,3-0.7,3-2.1c0-1.4-1-1.9-3-1.9h-2v4.1H392.9z"/>
		<path class="st2" d="M409.2,225.3h-8.3v-9h2.5v2.7h3.3v-2.6h2.5v3.5h3.1v-4.6h2.5v12.9h-2.5v-6.2h-3.1V225.3z M415.2,230.3v2
			h-11.9v-5.5h2.5v3.5H415.2z M406.7,220.9h-3.3v2.5h3.3V220.9z"/>
	</g>
	<g class="st0">
		<path class="st1" d="M101.9,249c0,3.3,1.3,6.5,4.2,7.8l-1.5,2c-1.9-0.9-3.2-2.6-3.9-4.7c-0.8,2.2-2.1,4.1-4,5.1l-1.6-2
			c3-1.4,4.3-4.8,4.3-8.1v-2.5h2.5V249z M110,245.1v17.6h-2.5v-10h-3.4v-2h3.4v-5.5H110z"/>
		<path class="st1" d="M121.9,254v1.1h4.7v4.5h-9.6v1h10v1.9h-12.5v-4.6h9.6V257h-9.6v-1.8h4.8V254h-6.6v-2h15.8v2H121.9z
			 M114.4,248.3c0-1.9,2.3-3,6.3-3c4,0,6.3,1.1,6.3,3c0,1.9-2.3,3-6.3,3C116.7,251.3,114.4,250.2,114.4,248.3z M117,248.3
			c0,0.8,1.2,1.2,3.7,1.2c2.5,0,3.7-0.3,3.7-1.2c0-0.8-1.2-1.1-3.7-1.1C118.2,247.1,117,247.5,117,248.3z"/>
		<path class="st1" d="M145,245.1v17.6h-2.5v-6.5h-3.6c-0.8,1.7-2.1,2.7-3.8,2.7c-2.6,0-4.5-2.4-4.5-6.3c0-3.8,1.9-6.2,4.5-6.2
			c1.6,0,2.9,0.9,3.7,2.4h3.7v-3.6H145z M137.2,252.6c0-2.6-0.9-4-2.2-4c-1.3,0-2.1,1.4-2.1,4c0,2.6,0.9,4,2.1,4
			C136.4,256.6,137.2,255.2,137.2,252.6z M142.5,254.1v-3.4h-3c0.1,0.6,0.2,1.2,0.2,1.9c0,0.6,0,1.1-0.1,1.6H142.5z"/>
		<path class="st1" d="M150.7,256.6c1.6,0,3.1-0.1,4.8-0.4l0.2,2c-2.1,0.4-4,0.5-6.2,0.5h-1.2v-11.5h6.5v2h-4V256.6z M162.8,245.1
			v17.5h-2.4v-8.8h-1.6v7.9h-2.3v-16.4h2.3v6.4h1.6v-6.7H162.8z"/>
		<path class="st1" d="M178.9,255.1c-1.9-0.6-3.2-1.9-4-3.4c-0.8,1.8-2.1,3.2-4.2,3.9l-1.3-2c2.8-1,4-3.2,4.1-5.4h-3.4v-2h9.4v2
			h-3.4c0.1,2,1.3,4,4,4.9L178.9,255.1z M184.3,259.3c0,2.1-2.3,3.4-6,3.4c-3.7,0-6-1.2-6-3.4s2.3-3.4,6-3.4
			C182,255.9,184.3,257.2,184.3,259.3z M181.7,259.3c0-1-1.2-1.5-3.5-1.5c-2.3,0-3.5,0.5-3.5,1.5c0,1,1.2,1.5,3.5,1.5
			C180.5,260.8,181.7,260.3,181.7,259.3z M181.7,249.4v-4.2h2.5v10.4h-2.5v-4.2H179v-2H181.7z"/>
		<path class="st1" d="M202.9,253.8v2h-6.4v3h-2.5v-3H187v-2H202.9z M191.4,260.3h9.7v2h-12.3v-5.1h2.5V260.3z M200.8,252.4H189
			v-6.5h11.9V252.4z M198.4,247.8h-6.9v2.6h6.9V247.8z"/>
		<path class="st1" d="M224.7,258.6v2h-15.8v-2h6.6v-3.2h2.5v3.2H224.7z M216.5,254.2c-1.7,0.3-3.2,0.4-5.3,0.4H210v-8h6.1v2h-3.6v4
			c1.4,0,2.5-0.1,3.8-0.4L216.5,254.2z M223.6,254.6h-6.3v-8h6.2v2h-3.7v4h3.8V254.6z"/>
		<path class="st1" d="M242.1,253.6v2h-15.8v-2H242.1z M230.6,260.3h9.9v2h-12.4V257h2.5V260.3z M240.4,251.9h-12.1v-6.1h2.5v4.1
			h9.6V251.9z"/>
		<path class="st1" d="M263.9,258.5h-6.7v4.2h-2.5v-4.2h-6.6v-2h15.8V258.5z M263.1,248.9h-14.2v-2h5.9v-1.8h2.5v1.8h5.8V248.9z
			 M256,249.6c3.7,0,6,1.1,6,3c0,1.9-2.3,3-6,3s-6-1.1-6-3C250,250.7,252.3,249.6,256,249.6z M256,251.5c-2.3,0-3.4,0.3-3.4,1.2
			c0,0.8,1.1,1.1,3.4,1.1s3.4-0.4,3.4-1.1C259.4,251.8,258.3,251.5,256,251.5z"/>
		<path class="st1" d="M281.4,253.8v2H275v3h-2.5v-3h-6.9v-2H281.4z M269.9,260.3h9.7v2h-12.3v-5.1h2.5V260.3z M279.4,252.4h-11.9
			v-6.5h11.9V252.4z M276.9,247.8H270v2.6h6.9V247.8z"/>
		<path class="st1" d="M292.1,245.4h2.3v16.4h-2.3v-8.2h-1.4c-0.2,3.4-1.7,5.5-3.8,5.5c-2.3,0-3.8-2.4-3.8-6.4c0-4,1.5-6.3,3.8-6.3
			c2.1,0,3.5,1.9,3.8,5.2h1.4V245.4z M288.5,252.7c0-2.7-0.6-4-1.5-4c-0.9,0-1.5,1.3-1.5,4c0,2.7,0.6,4,1.5,4
			C288,256.7,288.5,255.4,288.5,252.7z M298.1,245.1v17.5h-2.4v-17.5H298.1z"/>
		<path class="st1" d="M307.1,249c0,3.3,1.3,6.5,4.2,7.8l-1.5,2c-1.9-0.9-3.2-2.6-3.9-4.7c-0.8,2.2-2.1,4.1-4,5.1l-1.6-2
			c3-1.4,4.3-4.8,4.3-8.1v-2.5h2.5V249z M315.2,245.1v17.6h-2.5v-10h-3.4v-2h3.4v-5.5H315.2z"/>
		<path class="st1" d="M328.6,247.7h3.8v2h-10.2v-2h3.9v-2.3h2.5V247.7z M331.8,254.9c0,2.5-1.9,4.2-4.4,4.2c-2.5,0-4.4-1.7-4.4-4.2
			c0-2.4,1.9-4.2,4.4-4.2C329.9,250.7,331.8,252.4,331.8,254.9z M329.4,254.9c0-1.3-0.9-2.1-2-2.1s-2.1,0.8-2.1,2.1s0.9,2.1,2.1,2.1
			S329.4,256.2,329.4,254.9z M338.6,254h-2.5v8.6h-2.5v-17.5h2.5v6.8h2.5V254z"/>
		<path class="st1" d="M346.1,250.6c0,2.5,1.2,5.3,4,6.6l-1.3,1.9c-1.9-0.9-3.1-2.5-3.9-4.4c-0.8,2.1-2.1,3.9-4.1,4.7l-1.3-1.9
			c2.8-1.3,4.1-4.3,4.1-6.9V250h-3.6v-2h3.6v-2.4h2.5v2.4h3.5v2h-3.5V250.6z M356.1,254h-2.5v8.6H351v-17.5h2.5v6.8h2.5V254z"/>
	</g>
	<g class="st0">
		<path d="M8.1,189c0,3.2,1.4,6.4,4.4,7.7l-1.4,2c-2-0.9-3.4-2.6-4.1-4.8c-0.8,2.3-2.2,4.2-4.3,5.2l-1.5-2.1
			c3.1-1.3,4.5-4.7,4.5-8.1v-2.5h2.5V189z M15.8,185.1v17.6h-2.5v-17.6H15.8z"/>
		<path d="M22,196.2c1.4,0,2.9-0.2,4.5-0.5l0.2,2.1c-2.3,0.4-4.3,0.5-6,0.5h-1.2v-11.3H22V196.2z M33.8,185.1v17.5h-2.4v-8.7h-1.6
			v7.9h-2.3v-16.4h2.3v6.4h1.6v-6.7H33.8z"/>
		<path d="M51,185.1v17.6h-2.5v-9.4h-3.1v5.3H37v-12h2.5v4.2h3.4v-4.2h2.5v4.8h3.1v-6.2H51z M42.9,192.7h-3.4v3.9h3.4V192.7z"/>
		<path d="M69.6,198.5v2H53.8v-2H69.6z M68,195.5c-3-0.6-5.3-2.3-6.4-4.5c-1.1,2.2-3.3,3.9-6.4,4.5l-1.1-2.1c3.9-0.7,6.1-3.5,6.1-6
			v-1.3H63v1.3c0,2.6,2.2,5.3,6.1,6L68,195.5z"/>
	</g>
	<g class="st0">
		<path d="M82.5,185.1v17.3H80v-17.3H82.5z"/>
	</g>
</g>
<g>
	<g class="st0">
		<path class="st1" d="M101.9,311c0,3.3,1.3,6.5,4.2,7.8l-1.5,2c-1.9-0.9-3.2-2.6-3.9-4.7c-0.8,2.2-2.1,4.1-4,5.1l-1.6-2
			c3-1.4,4.3-4.8,4.3-8.1v-2.5h2.5V311z M110,307.1v17.6h-2.5v-10h-3.4v-2h3.4v-5.5H110z"/>
		<path class="st1" d="M121.9,316v1.1h4.7v4.5h-9.6v1h10v1.9h-12.5v-4.6h9.6V319h-9.6v-1.8h4.8V316h-6.6v-2h15.8v2H121.9z
			 M114.4,310.3c0-1.9,2.3-3,6.3-3c4,0,6.3,1.1,6.3,3c0,1.9-2.3,3-6.3,3C116.7,313.3,114.4,312.2,114.4,310.3z M117,310.3
			c0,0.8,1.2,1.2,3.7,1.2c2.5,0,3.7-0.3,3.7-1.2c0-0.8-1.2-1.1-3.7-1.1C118.2,309.1,117,309.5,117,310.3z"/>
		<path class="st1" d="M146.1,316.2v2h-15.8v-2H146.1z M132,319.3h12.1v5.3h-2.5v-3.4H132V319.3z M144.4,315.2h-12.2v-7.6h12v1.9
			h-9.6v1h9.1v1.8h-9.1v1h9.7V315.2z"/>
		<path class="st1" d="M156.8,315.6h-8.3v-7.8h2.5v2.1h3.3v-2.1h2.5v1.5h3.1v-2.2h2.5v9h-2.5v-1.7h-3.1V315.6z M162.9,322.5v2h-12
			v-4.8h9v-0.9h-9.1v-1.9h11.5v4.7h-9v1H162.9z M154.3,311.8H151v1.9h3.3V311.8z M156.8,311.2v1.3h3.1v-1.3H156.8z"/>
		<path class="st1" d="M172,311c0,3.2,1.4,6.4,4.4,7.7l-1.4,2c-2-0.9-3.4-2.6-4.1-4.8c-0.8,2.3-2.2,4.2-4.3,5.2l-1.5-2.1
			c3.1-1.3,4.5-4.7,4.5-8.1v-2.5h2.5V311z M179.7,307.1v17.6h-2.5v-17.6H179.7z"/>
		<path class="st1" d="M202.9,320.6v2H187v-2h6.7v-4h-4.9v-8.2h2.5v6.2h9.9v2h-5v4H202.9z"/>
		<path class="st1" d="M219.6,322.3v2h-13v-5.2h2.4v-2.3c-1.5,0.1-3,0.1-4.3,0.1l-0.3-2c3.2,0,7.4-0.1,11.1-0.5l0.2,1.8
			c-1.4,0.2-2.8,0.4-4.2,0.5v3.3h-2.4v2.4H219.6z M205.7,310.9c0-1.9,1.8-3.1,4.4-3.1c2.5,0,4.4,1.3,4.4,3.1c0,1.9-1.8,3.1-4.4,3.1
			C207.5,314,205.7,312.7,205.7,310.9z M208.1,310.9c0,0.9,0.8,1.3,2,1.3c1.2,0,2-0.4,2-1.3c0-0.9-0.8-1.3-2-1.3
			C208.9,309.5,208.1,310,208.1,310.9z M216.7,317.3v-10.2h2.5v13.3h-2.5V319h-3.3v-1.7H216.7z"/>
		<path class="st1" d="M237.8,317.6h-6.7v7h-2.5v-7H222v-2h11c0.4-2.2,0.5-3.9,0.5-5.4h-9.7v-2H236v1.6c0,1.6,0,3.4-0.4,5.9h2.3
			V317.6z"/>
		<path class="st1" d="M250.3,319.6c1.3-0.1,2.7-0.2,4-0.4l0.2,1.8c-3.7,0.7-7.6,0.7-10.6,0.7l-0.3-2c1.3,0,2.7,0,4.2,0v-1.5
			c-1.8-0.4-3-1.6-3-3.2c0-2,1.8-3.3,4.3-3.3s4.3,1.3,4.3,3.3c0,1.6-1.2,2.8-3,3.2V319.6z M254.2,311h-10.3v-2h3.9v-1.8h2.5v1.8h3.9
			V311z M249.1,316.4c1.1,0,1.9-0.5,1.9-1.4c0-0.9-0.8-1.4-1.9-1.4s-1.9,0.5-1.9,1.4C247.2,315.9,247.9,316.4,249.1,316.4z
			 M259.9,316.3h-2.2v8.3h-2.5v-17.5h2.5v7.1h2.2V316.3z"/>
		<path class="st1" d="M267.4,311.6v-1.4h-5.5v-2h8v5.3h-5.5v1.5c2.8,0,4.8-0.1,7-0.5l0.2,2c-2.4,0.5-4.7,0.5-8.2,0.5h-1.5v-5.4
			H267.4z M275.2,321.3c0,2.1-2.3,3.3-5.9,3.3s-5.9-1.2-5.9-3.3c0-2.1,2.3-3.3,5.9-3.3S275.2,319.2,275.2,321.3z M272.7,321.3
			c0-1-1.2-1.4-3.5-1.4c-2.3,0-3.5,0.4-3.5,1.4s1.2,1.4,3.5,1.4C271.6,322.7,272.7,322.3,272.7,321.3z M277.4,311.2v2.1H275v4.4
			h-2.5v-10.5h2.5v4.1H277.4z"/>
		<path class="st1" d="M294.6,320.7v2.1h-15.8v-2.1h6.6v-2.6h-4.8v-5.9h9.8v-1.9h-9.8v-2h12.3v5.8h-9.7v2h10.1v2h-5.3v2.6H294.6z"/>
		<path class="st1" d="M308.4,311.9c-0.5-0.6-1.3-1-2.2-1c-1.6,0-2.9,1.2-3.1,4.7c0.8-0.9,2-1.5,2.9-1.5c2.4,0,4,1.4,4,4.4
			c0,2.9-2,4.7-4.4,4.7c-2.7,0-5.1-2.1-5.1-7.1c0-5.2,2.6-7.5,5.4-7.5c1.7,0,3,0.7,3.8,1.6L308.4,311.9z M307.6,318.6
			c0-1.7-0.8-2.5-2-2.5c-0.8,0-1.6,0.4-2.3,1.5c0.3,2.6,1.2,3.6,2.4,3.6C306.7,321.2,307.6,320.3,307.6,318.6z"/>
		<path class="st1" d="M311.7,321.4c3.8-3.4,6.1-6.1,6.1-8.2c0-1.4-0.8-2.3-2.1-2.3c-1,0-1.9,0.7-2.6,1.4l-1.5-1.5
			c1.3-1.4,2.5-2.1,4.5-2.1c2.7,0,4.4,1.7,4.4,4.3c0,2.5-2.1,5.3-4.7,7.8c0.7-0.1,1.6-0.2,2.3-0.2h3.1v2.4h-9.4V321.4z"/>
		<path class="st1" d="M323.7,320.7h3v-8.9h-2.5v-1.7c1.4-0.3,2.4-0.6,3.3-1.2h2.1v11.8h2.6v2.3h-8.5V320.7z"/>
	</g>
	<g class="st0">
		<path class="st1" d="M101.9,341c0,3.3,1.3,6.5,4.2,7.8l-1.5,2c-1.9-0.9-3.2-2.6-3.9-4.7c-0.8,2.2-2.1,4.1-4,5.1l-1.6-2
			c3-1.4,4.3-4.8,4.3-8.1v-2.5h2.5V341z M110,337.1v17.6h-2.5v-10h-3.4v-2h3.4v-5.5H110z"/>
		<path class="st1" d="M121.9,346v1.1h4.7v4.5h-9.6v1h10v1.9h-12.5v-4.6h9.6V349h-9.6v-1.8h4.8V346h-6.6v-2h15.8v2H121.9z
			 M114.4,340.3c0-1.9,2.3-3,6.3-3c4,0,6.3,1.1,6.3,3c0,1.9-2.3,3-6.3,3C116.7,343.3,114.4,342.2,114.4,340.3z M117,340.3
			c0,0.8,1.2,1.2,3.7,1.2c2.5,0,3.7-0.3,3.7-1.2c0-0.8-1.2-1.1-3.7-1.1C118.2,339.1,117,339.5,117,340.3z"/>
		<path class="st1" d="M145,337.1v17.6h-2.5v-6.5h-3.6c-0.8,1.7-2.1,2.7-3.8,2.7c-2.6,0-4.5-2.4-4.5-6.3c0-3.8,1.9-6.2,4.5-6.2
			c1.6,0,2.9,0.9,3.7,2.4h3.7v-3.6H145z M137.2,344.6c0-2.6-0.9-4-2.2-4c-1.3,0-2.1,1.4-2.1,4c0,2.6,0.9,4,2.1,4
			C136.4,348.6,137.2,347.2,137.2,344.6z M142.5,346.1v-3.4h-3c0.1,0.6,0.2,1.2,0.2,1.9c0,0.6,0,1.1-0.1,1.6H142.5z"/>
		<path class="st1" d="M154.2,341.8c0,2.7,1.4,5.8,4.3,7.1l-1.4,2c-1.9-0.9-3.3-2.6-4.1-4.7c-0.8,2.3-2.2,4.2-4.2,5.1l-1.4-2
			c2.9-1.3,4.3-4.6,4.3-7.5v-1H148v-2.1h9.6v2.1h-3.5V341.8z M164,345.9h-2.5v8.8h-2.5v-17.5h2.5v6.7h2.5V345.9z"/>
		<path class="st1" d="M168.2,348.6c1.6,0,3.1-0.1,4.8-0.4l0.2,2c-2.1,0.4-4,0.5-6.2,0.5h-1.2v-11.5h6.5v2h-4V348.6z M180.2,337.1
			v17.5h-2.4v-8.8h-1.6v7.9H174v-16.4h2.3v6.4h1.6v-6.7H180.2z"/>
		<path class="st1" d="M193,340.7h-10.3v-2h3.9V337h2.5v1.6h3.9V340.7z M187.9,347.6c-2.5,0-4.3-1.3-4.3-3.2c0-1.9,1.8-3.2,4.3-3.2
			c2.5,0,4.3,1.3,4.3,3.2C192.2,346.3,190.4,347.6,187.9,347.6z M184.8,348.8h11.7v5.8H194v-3.8h-9.2V348.8z M187.9,345.7
			c1.1,0,1.9-0.4,1.9-1.3c0-0.9-0.8-1.3-1.9-1.3c-1.1,0-1.9,0.4-1.9,1.3C186,345.3,186.7,345.7,187.9,345.7z M198.8,343.7h-2.3v4.4
			H194v-11h2.5v4.5h2.3V343.7z"/>
		<path class="st1" d="M216,350.5v2h-15.8v-2h3.3V345h2.5v5.5h1.9V345h2.5v5.5H216z M211.5,348.2c0.6-3.2,0.6-5.5,0.6-7.5h-10.4v-2
			h12.9v1.7c0,2.1,0,4.6-0.6,8.1L211.5,348.2z"/>
		<path class="st1" d="M237.8,350.6v2H222v-2h6.7v-3.9h2.5v3.9H237.8z M222.6,345.5c3.7-0.6,5.7-2.8,5.9-5h-5.2v-2h13.2v2h-5.2
			c0.2,2.3,2.3,4.4,6,4.9l-1,2c-3.1-0.6-5.3-2-6.4-4.1c-1.1,2.1-3.3,3.6-6.3,4.2L222.6,345.5z"/>
		<path class="st1" d="M249.1,340.7h-9.6v-2h3.7V337h2.5v1.7h3.4V340.7z M244.4,347.8c-2.4,0-4.1-1.3-4.1-3.3s1.7-3.3,4.1-3.3
			c2.4,0,4.1,1.3,4.1,3.3S246.8,347.8,244.4,347.8z M254.2,351.6c0,1.9-2.3,3.1-6,3.1c-3.7,0-6-1.1-6-3.1c0-1.9,2.3-3.1,6-3.1
			C251.9,348.5,254.2,349.6,254.2,351.6z M244.4,346c1,0,1.8-0.5,1.8-1.4s-0.7-1.4-1.8-1.4c-1.1,0-1.8,0.5-1.8,1.4
			S243.4,346,244.4,346z M251.5,351.6c0-0.8-1.2-1.2-3.3-1.2c-2.2,0-3.3,0.3-3.3,1.2c0,0.8,1.2,1.2,3.3,1.2
			C250.3,352.7,251.5,352.4,251.5,351.6z M251.6,346.5h-2.3v-2h2.3V343h-2.2v-2h2.2v-3.8h2.5v11.1h-2.5V346.5z"/>
		<path class="st1" d="M266.1,337.4h2.3v16.4h-2.3v-5.4h-2c-0.6,1.7-1.8,2.7-3.2,2.7c-2.3,0-3.8-2.4-3.8-6.4c0-4,1.5-6.3,3.8-6.3
			c1.4,0,2.5,0.9,3.2,2.6h2V337.4z M262.4,344.7c0-2.7-0.6-4-1.5-4c-1,0-1.6,1.3-1.6,4c0,2.7,0.6,4,1.6,4
			C261.9,348.7,262.4,347.4,262.4,344.7z M266.1,346.4V343h-1.5c0.1,0.5,0.1,1.1,0.1,1.7c0,0.6,0,1.2-0.1,1.7H266.1z M272,337.1
			v17.5h-2.4v-17.5H272z"/>
		<path class="st1" d="M283.6,346v1.1h4.8v4.5h-9.6v1h10v1.9h-12.5v-4.6h9.6v-1h-9.6v-1.9h4.8V346h-6.6v-2h15.8v2H283.6z
			 M288.6,343.3c-3-0.3-5.2-1.5-6.3-3.1c-1.1,1.6-3.3,2.7-6.3,3.1l-0.8-1.9c3.9-0.4,5.8-2.1,5.8-3.8v-0.3h2.6v0.3
			c0,1.7,1.9,3.5,5.8,3.8L288.6,343.3z"/>
		<path class="st1" d="M302.6,347.1c-3.6,0.7-7.7,0.7-10.7,0.8l-0.2-2c1,0,2.1,0,3.2,0v-3.4h2.5v3.3c1.7-0.1,3.5-0.2,5.1-0.4
			L302.6,347.1z M298.8,344.4c0.3-1.6,0.4-2.9,0.4-4h-6.5v-2h9v1.1c0,1.2,0,2.9-0.4,5.1L298.8,344.4z M296.7,352.3h9.7v2h-12.2v-5.3
			h2.5V352.3z M308,342.5v2.1h-2.1v5.7h-2.5v-13.1h2.5v5.3H308z"/>
	</g>
	<g class="st0">
		<path class="st1" d="M96.1,380.7h3v-8.9h-2.5v-1.7c1.4-0.3,2.4-0.6,3.3-1.2h2.1v11.8h2.6v2.3h-8.5V380.7z"/>
		<path class="st1" d="M122.3,375.8v2h-15.8v-2H122.3z M107.2,373.2c3.7-0.2,5.5-1.3,5.8-2.5H108v-2h5.1v-1.5h2.5v1.5h5.1v2h-4.9
			c0.3,1.2,2,2.3,5.8,2.5l-0.7,1.9c-3.2-0.2-5.4-1.1-6.5-2.5c-1.1,1.4-3.3,2.3-6.5,2.5L107.2,373.2z M120.5,381.7c0,1.9-2.3,3-6.1,3
			s-6.1-1-6.1-3c0-1.9,2.2-3,6.1-3S120.5,379.8,120.5,381.7z M117.9,381.7c0-0.8-1.2-1.1-3.5-1.1s-3.5,0.3-3.5,1.1
			c0,0.8,1.2,1.1,3.5,1.1S117.9,382.4,117.9,381.7z"/>
		<path class="st1" d="M134.8,368.5h2.5v12.1h-8.5v-12.1h2.5v4.2h3.5V368.5z M134.8,374.7h-3.5v3.9h3.5V374.7z M144.5,375.7H142v8.9
			h-2.5v-17.5h2.5v6.5h2.5V375.7z"/>
		<path class="st1" d="M161.6,376.1v2h-15.8v-2h6.7V375h-4.7v-4.7h9.5v-1h-9.5v-1.9h12v4.7h-9.5v1h9.8v1.9H155v1.1H161.6z
			 M147.8,379h12v5.5h-12V379z M150.2,382.5h7.1V381h-7.1V382.5z"/>
		<path class="st1" d="M170.8,368.2c0,4.2-2.1,6.9-6.4,8.4l-1.2-1.8c3.1-1,4.6-2.5,5-4.6H164v-2H170.8z M178.7,382.5v2h-12.4v-4.9
			h9.4v-1h-9.4v-2h11.9v4.8h-9.4v1.1H178.7z M174.3,375.8H172v-8.3h2.3v3.2h1.5v-3.5h2.4v8.7h-2.4v-3.2h-1.5V375.8z"/>
		<path class="st1" d="M183.8,378.6c2.4,0,4.4-0.1,6.6-0.5l0.2,2c-2.6,0.4-4.9,0.5-7.8,0.5h-1.4v-7.4h5.4v-2.6h-5.4v-2h7.9v6.6h-5.4
			V378.6z M195.4,367.1v17.6h-2.5v-9.2h-2.7v-2h2.7v-6.3H195.4z"/>
		<path class="st1" d="M201.7,378.5c2.7,0,4.9-0.2,7.3-0.6l0.3,2c-2.8,0.5-5.4,0.6-8.6,0.6h-1.6v-7.2h5.7v-2.8h-5.7v-2h8.3v6.8h-5.7
			V378.5z M212.8,367.1v17.6h-2.5v-17.6H212.8z"/>
		<path class="st1" d="M224.2,367.7h1.9l-4.7,18.8h-1.9L224.2,367.7z"/>
		<path class="st1" d="M231.4,381.3l1.3-1.8c0.8,0.8,1.9,1.4,3.1,1.4c1.4,0,2.4-0.7,2.4-2c0-1.4-0.8-2.2-3.9-2.2v-2
			c2.6,0,3.4-0.9,3.4-2.1c0-1.1-0.7-1.7-1.9-1.8c-1,0-1.8,0.5-2.7,1.3l-1.4-1.7c1.2-1.1,2.6-1.7,4.2-1.7c2.7,0,4.6,1.3,4.6,3.7
			c0,1.5-0.9,2.6-2.4,3.2v0.1c1.6,0.4,2.8,1.6,2.8,3.5c0,2.6-2.3,4.1-4.9,4.1C233.9,383.3,232.4,382.4,231.4,381.3z"/>
		<path class="st1" d="M258.7,375.8v2h-15.8v-2H258.7z M243.6,373.2c3.7-0.2,5.5-1.3,5.8-2.5h-4.9v-2h5.1v-1.5h2.5v1.5h5.1v2h-4.9
			c0.3,1.2,2,2.3,5.8,2.5l-0.7,1.9c-3.2-0.2-5.4-1.1-6.5-2.5c-1.1,1.4-3.3,2.3-6.5,2.5L243.6,373.2z M256.8,381.7c0,1.9-2.3,3-6.1,3
			s-6.1-1-6.1-3c0-1.9,2.2-3,6.1-3S256.8,379.8,256.8,381.7z M254.3,381.7c0-0.8-1.2-1.1-3.5-1.1s-3.5,0.3-3.5,1.1
			c0,0.8,1.2,1.1,3.5,1.1S254.3,382.4,254.3,381.7z"/>
		<path class="st1" d="M264.4,381.3l1.3-1.8c0.8,0.8,1.9,1.4,3.1,1.4c1.4,0,2.4-0.7,2.4-2c0-1.4-0.8-2.2-3.9-2.2v-2
			c2.6,0,3.4-0.9,3.4-2.1c0-1.1-0.7-1.7-1.9-1.8c-1,0-1.8,0.5-2.7,1.3l-1.4-1.7c1.2-1.1,2.6-1.7,4.2-1.7c2.7,0,4.6,1.3,4.6,3.7
			c0,1.5-0.9,2.6-2.4,3.2v0.1c1.6,0.4,2.8,1.6,2.8,3.5c0,2.6-2.3,4.1-4.9,4.1C266.8,383.3,265.3,382.4,264.4,381.3z"/>
		<path class="st1" d="M275.9,375.9c0-4.9,1.9-7.2,4.8-7.2c2.8,0,4.7,2.4,4.7,7.2s-1.9,7.4-4.7,7.4
			C277.8,383.3,275.9,380.8,275.9,375.9z M282.8,375.9c0-3.9-0.9-5.1-2.1-5.1c-1.2,0-2.1,1.1-2.1,5.1c0,4,0.9,5.2,2.1,5.2
			C281.9,381.1,282.8,379.9,282.8,375.9z"/>
		<path class="st1" d="M287.8,380.7h3v-8.9h-2.5v-1.7c1.4-0.3,2.4-0.6,3.3-1.2h2.1v11.8h2.6v2.3h-8.5V380.7z"/>
		<path class="st1" d="M314.1,380.9v2h-15.9v-2h6.6v-2c-2.9-0.3-4.7-1.5-4.7-3.4c0-2.1,2.3-3.4,5.9-3.4c3.7,0,5.9,1.3,5.9,3.4
			c0,1.9-1.8,3.1-4.7,3.4v2H314.1z M313.4,371.3h-14.4v-2h5.9v-2h2.5v2h6V371.3z M306.1,376.9c2.2,0,3.4-0.5,3.4-1.5
			c0-1-1.2-1.5-3.4-1.5c-2.2,0-3.3,0.5-3.3,1.5C302.8,376.5,304,376.9,306.1,376.9z"/>
	</g>
	<g class="st0">
		<path d="M51.2,318.8h-6.7v5.9H42v-5.9h-6.6v-2h15.8V318.8z M36.2,313.8c3.6-0.4,5.4-2.1,5.7-3.8h-5v-2h13v2h-5
			c0.2,1.7,2.1,3.4,5.6,3.8l-0.9,2c-3.1-0.4-5.2-1.7-6.2-3.5c-1,1.8-3.2,3.1-6.2,3.5L36.2,313.8z"/>
		<path d="M68.7,320.5v2H52.9v-2h6.6v-3.9H62v3.9H68.7z M67.2,317.2c-3.1-0.6-5.3-2.2-6.5-4.3c-1.1,2.1-3.4,3.8-6.4,4.3l-1-2.1
			c4-0.6,6.1-3.3,6.1-5.8v-1.3H62v1.3c0,2.5,2.1,5.1,6.1,5.8L67.2,317.2z"/>
	</g>
	<g class="st0">
		<path d="M82.5,307.1v17.3H80v-17.3H82.5z"/>
	</g>
</g>
</svg>
