<?xml version="1.0" encoding="utf-8"?>
<!-- Generator: Adobe Illustrator 21.0.0, SVG Export Plug-In . SVG Version: 6.00 Build 0)  -->
<svg version="1.1" id="레이어_1" xmlns="http://www.w3.org/2000/svg" xmlns:xlink="http://www.w3.org/1999/xlink" x="0px"
	 y="0px" viewBox="0 0 510 381.9" style="enable-background:new 0 0 510 381.9;" xml:space="preserve">
<style type="text/css">
	.st0{enable-background:new    ;}
	.st1{fill:#080808;}
</style>
<g class="st0">
	<path class="st1" d="M0.5,21.3l1.3-1.8C2.6,20.4,3.7,21,4.9,21c1.4,0,2.4-0.7,2.4-2c0-1.4-0.8-2.2-3.9-2.2v-2
		c2.6,0,3.4-0.9,3.4-2.1c0-1.1-0.7-1.7-1.9-1.8c-1,0-1.8,0.5-2.7,1.3l-1.4-1.7c1.2-1.1,2.6-1.7,4.2-1.7c2.7,0,4.6,1.3,4.6,3.7
		c0,1.5-0.9,2.6-2.4,3.2v0.1c1.6,0.4,2.8,1.6,2.8,3.5c0,2.6-2.3,4.1-4.9,4.1C3,23.3,1.5,22.4,0.5,21.3z"/>
	<path class="st1" d="M19.9,11.9c-0.5-0.6-1.3-1-2.2-1c-1.6,0-2.9,1.2-3.1,4.7c0.8-0.9,2-1.5,2.9-1.5c2.4,0,4,1.4,4,4.4
		c0,2.9-2,4.7-4.4,4.7c-2.7,0-5.1-2.1-5.1-7.1c0-5.2,2.6-7.5,5.4-7.5c1.7,0,3,0.7,3.8,1.6L19.9,11.9z M19,18.6c0-1.7-0.8-2.5-2-2.5
		c-0.8,0-1.6,0.4-2.3,1.5c0.3,2.6,1.2,3.6,2.4,3.6C18.2,21.2,19,20.3,19,18.6z"/>
	<path class="st1" d="M30.2,19.6c1.4-0.1,2.8-0.2,4.2-0.4l0.2,1.8c-3.8,0.7-7.9,0.7-11,0.7l-0.3-2c1.3,0,2.8,0,4.4,0v-1.5
		c-1.9-0.4-3.1-1.5-3.1-3.2c0-2,1.8-3.3,4.4-3.3c2.5,0,4.3,1.3,4.3,3.3c0,1.6-1.2,2.8-3.1,3.2V19.6z M34.1,11H23.6v-2h4V7.2h2.5v1.9
		h4V11z M28.9,16.4c1.2,0,2-0.5,2-1.4c0-0.9-0.8-1.4-2-1.4c-1.2,0-2,0.5-2,1.4C26.9,15.9,27.7,16.4,28.9,16.4z M37.8,7.1v17.5h-2.5
		V7.1H37.8z"/>
	<path class="st1" d="M60.8,14.3v2H45v-2h6.6v-1.6h2.5v1.6H60.8z M45.7,11.8c3.2-0.2,4.9-1.2,5.4-2.3h-4.6V7.6h12.9v1.9h-4.6
		c0.5,1.1,2.2,2.1,5.4,2.3l-0.8,1.9c-3.3-0.3-5.5-1.4-6.4-3c-0.9,1.6-3.1,2.8-6.4,3L45.7,11.8z M49.3,22.6h10v1.9H46.8v-4.6h9.6v-1
		h-9.6v-1.8h12.1v4.5h-9.6V22.6z"/>
	<path class="st1" d="M77.1,7.1v9.4h-2.5V13h-2.8c-0.5,1.9-2.3,3.2-4.5,3.2c-2.6,0-4.6-1.7-4.6-4.2s2-4.2,4.6-4.2
		c2.2,0,4,1.3,4.5,3.1h2.8V7.1H77.1z M69.5,12c0-1.3-0.9-2.1-2.2-2.1c-1.3,0-2.2,0.8-2.2,2.1c0,1.3,0.9,2.1,2.2,2.1
		C68.6,14.1,69.5,13.3,69.5,12z M74.6,17.3h2.5v7.1H65.5v-7.1H68V19h6.6V17.3z M74.6,20.9H68v1.6h6.6V20.9z"/>
	<path class="st1" d="M89.3,17.6c-1.9-0.6-3.2-1.9-4-3.5c-0.8,1.7-2.1,3.1-4.2,3.8l-1.3-2c2.9-0.9,4.1-3.2,4.1-5.4v-0.2h-3.4v-2h9.4
		v2h-3.4v0.2c0,2.1,1.2,4.2,4,5.1L89.3,17.6z M95,22.3v2H83v-5.5h2.5v3.5H95z M92.1,11.7V7.1h2.5v12.8h-2.5v-6.2h-2.7v-2H92.1z"/>
	<path class="st1" d="M104.2,11c0,3.2,1.4,6.4,4.4,7.7l-1.4,2c-2-0.9-3.4-2.6-4.1-4.8c-0.8,2.3-2.2,4.2-4.3,5.2l-1.5-2.1
		c3.1-1.3,4.5-4.7,4.5-8.1V8.5h2.5V11z M111.9,7.1v17.6h-2.5V7.1H111.9z"/>
	<path class="st1" d="M115.1,25.5c1.5-0.6,2.3-1.5,2.3-2.6c-0.1,0-0.1,0-0.2,0c-0.9,0-1.7-0.6-1.7-1.7c0-1,0.8-1.7,1.8-1.7
		c1.3,0,2,1,2,2.8c0,2.2-1.3,3.9-3.6,4.7L115.1,25.5z"/>
	<path class="st1" d="M125.5,19.5c0-1.8,1.1-3,2.4-3.7v-0.1c-1.1-0.8-1.9-1.8-1.9-3.3c0-2.3,1.8-3.7,4.2-3.7c2.5,0,4.1,1.5,4.1,3.7
		c0,1.4-0.9,2.5-1.8,3.2v0.1c1.3,0.7,2.4,1.8,2.4,3.8c0,2.1-1.9,3.8-4.7,3.8C127.5,23.3,125.5,21.7,125.5,19.5z M132.3,19.4
		c0-1.5-1.3-2.1-3.1-2.8c-0.8,0.6-1.3,1.6-1.3,2.6c0,1.3,1,2.1,2.4,2.1C131.4,21.3,132.3,20.6,132.3,19.4z M132.1,12.6
		c0-1.1-0.7-2-1.9-2c-1,0-1.7,0.6-1.7,1.7c0,1.3,1.1,2,2.6,2.6C131.7,14.2,132.1,13.4,132.1,12.6z"/>
	<path class="st1" d="M144.2,9.3c0,4.9-1.4,8.9-6.3,11.8l-1.5-1.7c3.5-2.1,5-4.6,5.3-8h-4.4v-2H144.2z M151.6,7.1v17.5h-2.4v-8.9
		h-1.6v8.1h-2.3V7.6h2.3v6.1h1.6V7.1H151.6z"/>
	<path class="st1" d="M154.1,19.1c3.1,0,7.4,0,11.1-0.6l0.2,1.8c-3.8,0.8-7.9,0.8-10.9,0.8L154.1,19.1z M164.5,12.6
		c0,2.5-2.1,4.3-4.8,4.3c-2.7,0-4.8-1.8-4.8-4.3c0-2.5,2.1-4.3,4.8-4.3C162.4,8.3,164.5,10.1,164.5,12.6z M157.3,12.6
		c0,1.4,1,2.2,2.4,2.2c1.3,0,2.4-0.8,2.4-2.2c0-1.4-1-2.2-2.4-2.2C158.3,10.4,157.3,11.2,157.3,12.6z M168.7,7.1v17.6h-2.5V7.1
		H168.7z"/>
	<path class="st1" d="M185.5,17.6c-1.9-0.6-3.3-1.9-4.1-3.4c-0.8,1.7-2.2,3.1-4.2,3.7l-1.3-2c2.9-0.9,4.2-3.2,4.2-5.4v-0.2h-3.5v-2
		h9.5v2h-3.5v0.2c0,2.1,1.3,4.2,4.1,5.1L185.5,17.6z M190.8,22.3v2h-12.1v-5.7h2.5v3.7H190.8z M190.4,19.8h-2.5V7.1h2.5V19.8z"/>
	<path class="st1" d="M201.8,10.9h-8.5V8.9h3V7.3h2.5v1.6h3V10.9z M197.5,17.5c-2.2,0-3.8-1.3-3.8-3.1s1.6-3,3.8-3
		c2.2,0,3.8,1.2,3.8,3S199.7,17.5,197.5,17.5z M197.5,15.7c0.9,0,1.5-0.5,1.5-1.3c0-0.8-0.6-1.3-1.5-1.3c-0.9,0-1.6,0.4-1.6,1.3
		C196,15.3,196.6,15.7,197.5,15.7z M208.3,21.5c0,2-2.3,3.2-6,3.2s-6-1.1-6-3.2c0-2,2.3-3.2,6-3.2S208.3,19.4,208.3,21.5z
		 M205.8,21.5c0-0.9-1.2-1.3-3.5-1.3s-3.5,0.4-3.5,1.3c0,0.9,1.2,1.3,3.5,1.3S205.8,22.4,205.8,21.5z M204.6,17.5h-2.3V7.5h2.3v4
		h1.3V7.1h2.4v10.9h-2.4v-4.6h-1.3V17.5z"/>
	<path class="st1" d="M221.6,16.3c-2.5,0.4-4.7,0.5-8.3,0.5h-1.5V8.1h8.4v2h-5.9v1.3h5.4v1.9h-5.4v1.4c3,0,4.9-0.1,7.1-0.4
		L221.6,16.3z M213.7,18.3h11.6v6.2h-11.6V18.3z M216.2,22.5h6.7v-2.3h-6.7V22.5z M225.4,7.2v10.4h-2.5V7.2H225.4z"/>
	<path class="st1" d="M228.5,25.5c1.5-0.6,2.3-1.5,2.3-2.6c-0.1,0-0.1,0-0.2,0c-0.9,0-1.7-0.6-1.7-1.7c0-1,0.8-1.7,1.8-1.7
		c1.3,0,2,1,2,2.8c0,2.2-1.3,3.9-3.6,4.7L228.5,25.5z"/>
	<path class="st1" d="M238.5,21.3l1.3-1.8c0.8,0.8,1.8,1.4,3.1,1.4c1.5,0,2.5-0.9,2.5-2.6c0-1.6-1-2.5-2.4-2.5
		c-0.8,0-1.3,0.2-2.1,0.7l-1.3-0.8l0.4-6.8h7.5v2.3h-5.1l-0.3,3c0.6-0.3,1-0.4,1.7-0.4c2.4,0,4.3,1.4,4.3,4.5c0,3.1-2.3,4.9-4.9,4.9
		C241,23.3,239.5,22.4,238.5,21.3z"/>
	<path class="st1" d="M250,15.9c0-4.9,1.9-7.2,4.8-7.2c2.8,0,4.7,2.4,4.7,7.2s-1.9,7.4-4.7,7.4C251.9,23.3,250,20.8,250,15.9z
		 M256.9,15.9c0-3.9-0.9-5.1-2.1-5.1c-1.2,0-2.1,1.1-2.1,5.1c0,4,0.9,5.2,2.1,5.2C256,21.1,256.9,19.9,256.9,15.9z"/>
	<path class="st1" d="M268.7,9.3c0,4.9-1.4,8.9-6.3,11.8l-1.5-1.7c3.5-2.1,5-4.6,5.3-8h-4.4v-2H268.7z M276.2,7.1v17.5h-2.4v-8.9
		h-1.6v8.1h-2.3V7.6h2.3v6.1h1.6V7.1H276.2z"/>
	<path class="st1" d="M278.7,19.1c3.1,0,7.4,0,11.1-0.6l0.2,1.8c-3.8,0.8-7.9,0.8-10.9,0.8L278.7,19.1z M289.1,12.6
		c0,2.5-2.1,4.3-4.8,4.3c-2.7,0-4.8-1.8-4.8-4.3c0-2.5,2.1-4.3,4.8-4.3C287,8.3,289.1,10.1,289.1,12.6z M281.9,12.6
		c0,1.4,1,2.2,2.4,2.2c1.3,0,2.4-0.8,2.4-2.2c0-1.4-1-2.2-2.4-2.2C282.9,10.4,281.9,11.2,281.9,12.6z M293.2,7.1v17.6h-2.5V7.1
		H293.2z"/>
	<path class="st1" d="M309.8,17c-2-0.5-3.3-1.6-4.1-3c-0.8,1.5-2.1,2.7-4.2,3.3l-1.2-1.9c2.7-0.8,4-2.6,4-4.5h-3.4v-2h3.4V7.1h2.5
		v1.8h3.5v2h-3.5c0.1,1.7,1.3,3.5,4,4.2L309.8,17z M302.8,18.1h11.4v6.3h-11.4V18.1z M305.3,22.5h6.5v-2.4h-6.5V22.5z M316.5,13.3
		h-2.3v4.1h-2.5V7.1h2.5v4.1h2.3V13.3z"/>
	<path class="st1" d="M332.6,7.1v17.6h-2.5v-6.5h-3.6c-0.8,1.7-2.1,2.7-3.8,2.7c-2.6,0-4.5-2.4-4.5-6.3c0-3.8,1.9-6.2,4.5-6.2
		c1.6,0,2.9,0.9,3.7,2.4h3.7V7.1H332.6z M324.9,14.6c0-2.6-0.9-4-2.2-4c-1.3,0-2.1,1.4-2.1,4c0,2.6,0.9,4,2.1,4
		C324,18.6,324.9,17.2,324.9,14.6z M330.1,16.1v-3.4h-3c0.1,0.6,0.2,1.2,0.2,1.9c0,0.6,0,1.1-0.1,1.6H330.1z"/>
	<path class="st1" d="M341.8,11.8c0,2.7,1.4,5.8,4.3,7.1l-1.4,2c-1.9-0.9-3.3-2.6-4.1-4.7c-0.8,2.3-2.2,4.2-4.2,5.1l-1.4-2
		c2.9-1.3,4.3-4.6,4.3-7.5v-1h-3.6V8.8h9.6v2.1h-3.5V11.8z M351.6,15.9h-2.5v8.8h-2.5V7.1h2.5v6.7h2.5V15.9z"/>
	<path class="st1" d="M359.3,19c1.4-0.1,2.7-0.2,4-0.3l0.2,1.8c-3.6,0.7-7.5,0.7-10.5,0.7l-0.3-2c1.2,0,2.7,0,4.1,0v-2.5
		c-2.1-0.4-3.5-2.1-3.5-4.2c0-2.5,2.1-4.3,4.7-4.3c2.7,0,4.8,1.8,4.8,4.3c0,2.1-1.4,3.7-3.5,4.2V19z M358,14.6
		c1.3,0,2.3-0.8,2.3-2.2c0-1.4-1-2.2-2.3-2.2c-1.3,0-2.3,0.8-2.3,2.2C355.7,13.8,356.7,14.6,358,14.6z M369,16.1h-2.3v8.5h-2.5V7.1
		h2.5V14h2.3V16.1z"/>
	<path class="st1" d="M385.5,16.3c-2.5,0.4-4.7,0.5-8.3,0.5h-1.5V8.1h8.4v2h-5.9v1.3h5.4v1.9h-5.4v1.4c3,0,4.9-0.1,7.1-0.4
		L385.5,16.3z M377.6,18.3h11.6v6.2h-11.6V18.3z M380,22.5h6.7v-2.3H380V22.5z M389.2,7.2v10.4h-2.5V7.2H389.2z"/>
	<path class="st1" d="M392.3,25.5c1.5-0.6,2.3-1.5,2.3-2.6c-0.1,0-0.1,0-0.2,0c-0.9,0-1.7-0.6-1.7-1.7c0-1,0.8-1.7,1.8-1.7
		c1.3,0,2,1,2,2.8c0,2.2-1.3,3.9-3.6,4.7L392.3,25.5z"/>
	<path class="st1" d="M410.5,11.9c-0.5-0.6-1.3-1-2.2-1c-1.6,0-2.9,1.2-3.1,4.7c0.8-0.9,2-1.5,2.9-1.5c2.4,0,4,1.4,4,4.4
		c0,2.9-2,4.7-4.4,4.7c-2.7,0-5.1-2.1-5.1-7.1c0-5.2,2.6-7.5,5.4-7.5c1.7,0,3,0.7,3.8,1.6L410.5,11.9z M409.7,18.6
		c0-1.7-0.8-2.5-2-2.5c-0.8,0-1.6,0.4-2.3,1.5c0.3,2.6,1.2,3.6,2.4,3.6C408.8,21.2,409.7,20.3,409.7,18.6z"/>
	<path class="st1" d="M420.3,11.3H414V8.9h9.3v1.7c-3.3,4-3.7,6.9-3.9,12.4h-2.8C416.8,18.1,417.6,15,420.3,11.3z"/>
	<path class="st1" d="M432.6,9.3c0,4.9-1.4,8.9-6.3,11.8l-1.5-1.7c3.5-2.1,5-4.6,5.3-8h-4.4v-2H432.6z M440,7.1v17.5h-2.4v-8.9h-1.6
		v8.1h-2.3V7.6h2.3v6.1h1.6V7.1H440z"/>
	<path class="st1" d="M442.6,19.1c3.1,0,7.4,0,11.1-0.6l0.2,1.8c-3.8,0.8-7.9,0.8-10.9,0.8L442.6,19.1z M453,12.6
		c0,2.5-2.1,4.3-4.8,4.3c-2.7,0-4.8-1.8-4.8-4.3c0-2.5,2.1-4.3,4.8-4.3C450.9,8.3,453,10.1,453,12.6z M445.8,12.6
		c0,1.4,1,2.2,2.4,2.2c1.3,0,2.4-0.8,2.4-2.2c0-1.4-1-2.2-2.4-2.2C446.8,10.4,445.8,11.2,445.8,12.6z M457.1,7.1v17.6h-2.5V7.1
		H457.1z"/>
	<path class="st1" d="M473.5,17.1c-1.9-0.6-3.2-1.8-4-3.4c-0.8,1.7-2.1,3-4.2,3.7l-1.3-2c2.8-0.9,4.1-3.1,4.1-5.3h-3.5v-2h9.5v2
		h-3.4c0.1,2,1.3,4.1,4,5L473.5,17.1z M466.4,18.5h11.7v6.2h-2.5v-4.2h-9.2V18.5z M480.4,13.4h-2.3v4.3h-2.5V7.1h2.5v4.2h2.3V13.4z"
		/>
	<path class="st1" d="M490.9,17.3v1.4h4.8v5.7h-12.1v-5.7h4.8v-1.4h-6.6v-2h15.8v2H490.9z M485.4,9.6h-2.2v-2h13v2H494v2.6h2.1v2
		h-12.8v-2h2.1V9.6z M493.2,20.7h-7.2v1.8h7.2V20.7z M491.5,9.6h-3.6v2.6h3.6V9.6z"/>
</g>
<g class="st0">
	<path class="st1" d="M16.6,68.5v2H0.8v-2h6.6v-1.4H2.8v-6.7h2.5v1.5h6.8v-1.5h2.5v6.7H10v1.4H16.6z M2.6,71.7h12.2v5.7h-2.5v-3.7
		H2.6V71.7z M5.3,65.1h6.8v-1.4H5.3V65.1z"/>
	<path class="st1" d="M27.5,69.3c-1.9-0.6-3.3-1.7-4.1-3.2c-0.8,1.7-2.2,3-4.3,3.6L18,67.8c2.8-0.9,4.1-2.9,4.1-4.9h-3.5v-2h9.4v2
		h-3.4c0.1,1.9,1.3,3.8,4,4.5L27.5,69.3z M29.6,70.2h2.5v7H20.7v-7h2.5v1.5h6.5V70.2z M29.6,73.7h-6.5v1.5h6.5V73.7z M34.4,65.7
		h-2.3v3.9h-2.5v-9.7h2.5v3.7h2.3V65.7z"/>
	<path class="st1" d="M46.1,63.7H35.8v-2h3.9v-1.9h2.5v1.9h3.9L46.1,63.7z M40.9,71.1c-2.5,0-4.3-1.4-4.3-3.4c0-2,1.8-3.4,4.3-3.4
		c2.5,0,4.3,1.4,4.3,3.4C45.2,69.7,43.4,71.1,40.9,71.1z M40.8,75.1h9.4v2H38.3V72h2.5V75.1z M40.9,69.2c1.1,0,1.9-0.5,1.9-1.5
		c0-0.9-0.8-1.5-1.9-1.5c-1.1,0-1.9,0.5-1.9,1.5C39,68.6,39.8,69.2,40.9,69.2z M51.9,65.2v2.1h-2.3V73H47V59.9h2.5v5.3H51.9z"/>
	<path class="st1" d="M66.6,61.2c0,4.8-2.5,7.9-7.8,9.6l-1-2c3.9-1.2,5.7-3.1,6.1-5.6h-5.2v-2H66.6z M67.6,70.8c0,2,1.7,4,5.5,4.6
		l-1,2c-2.7-0.5-4.7-1.7-5.7-3.4c-1,1.7-3,2.9-5.7,3.4l-1-2c3.7-0.6,5.5-2.6,5.5-4.6v-0.6h2.5V70.8z M69.7,66.6h-3v-2h3v-4.6h2.5
		v11.6h-2.5V66.6z"/>
	<path class="st1" d="M90.9,73.3v2H75v-2h6.6v-3.2h-5V61h2.5v2.7h7.5V61h2.5v9.1h-5v3.2H90.9z M79.2,68.1h7.5v-2.5h-7.5V68.1z"/>
	<path class="st1" d="M95.7,71.1c2.5,0,4.6-0.2,6.8-0.6l0.2,2.1c-2.6,0.5-5,0.6-8.1,0.6h-1.5V61.5h8.2v2h-5.7V71.1z M108.8,68.4
		h-2.5v9h-2.5V59.9h2.5v6.5h2.5V68.4z"/>
	<path class="st1" d="M124.5,69.1c-2.1,0.5-4.1,0.6-8,0.6H115v-8.4h7.8v2h-5.3v4.4c3.1,0,4.8-0.1,6.7-0.5L124.5,69.1z M119.3,75.1
		h9.4v2h-11.9v-5.9h2.5V75.1z M130.4,64.7v2.1h-2.3v5.8h-2.5V59.9h2.5v4.8H130.4z"/>
	<path class="st1" d="M147.6,68.5v2h-6.5v3h-2.5v-3h-6.9v-2H147.6z M145.9,67.5c-2.9-0.5-5.1-1.8-6.2-3.6c-1.1,1.8-3.2,3.1-6.2,3.6
		l-0.9-2c3.9-0.5,5.8-2.7,5.8-4.7v-0.6h2.6v0.6c0,1.9,2,4.1,5.8,4.6L145.9,67.5z M136.1,75.1h9.7v2h-12.3V72h2.5V75.1z"/>
	<path class="st1" d="M159.6,63.7h-10.3v-2h3.9v-1.9h2.5v1.9h3.9L159.6,63.7z M154.4,71.1c-2.5,0-4.3-1.4-4.3-3.4
		c0-2,1.8-3.4,4.3-3.4s4.3,1.4,4.3,3.4C158.7,69.7,156.9,71.1,154.4,71.1z M154.3,75.1h9.4v2h-11.9V72h2.5V75.1z M154.4,69.2
		c1.1,0,1.9-0.5,1.9-1.5c0-0.9-0.8-1.5-1.9-1.5c-1.1,0-1.9,0.5-1.9,1.5C152.5,68.6,153.3,69.2,154.4,69.2z M165.4,65.2v2.1h-2.3V73
		h-2.5V59.9h2.5v5.3H165.4z"/>
	<path class="st1" d="M180.1,61.2c0,4.8-2.5,7.9-7.8,9.6l-1-2c3.9-1.2,5.7-3.1,6.1-5.6h-5.2v-2H180.1z M181.1,70.8
		c0,2,1.7,4,5.5,4.6l-1,2c-2.7-0.5-4.7-1.7-5.7-3.4c-1,1.7-3,2.9-5.7,3.4l-1-2c3.7-0.6,5.5-2.6,5.5-4.6v-0.6h2.5V70.8z M183.2,66.6
		h-3v-2h3v-4.6h2.5v11.6h-2.5V66.6z"/>
	<path class="st1" d="M198.2,67.3c0,3.9-2,6.3-4.6,6.3s-4.6-2.4-4.6-6.3c0-3.8,2-6.2,4.6-6.2S198.2,63.5,198.2,67.3z M191.5,67.3
		c0,2.6,0.9,4,2.2,4s2.2-1.4,2.2-4c0-2.6-0.9-4-2.2-4S191.5,64.8,191.5,67.3z M203,59.9v17.6h-2.5V59.9H203z"/>
	<path class="st1" d="M213.7,71.2c2.5,0,4.3-0.2,6.3-0.5l0.2,2c-2.4,0.4-4.4,0.5-7.6,0.5h-1.4V61.4h7.9v2h-5.4V71.2z M225,59.9v17.6
		h-2.5v-9.5h-4.3v-2h4.3v-6H225z"/>
	<path class="st1" d="M237,70.1v1.5h4.8v5.8h-2.5v-3.8h-9.7v-2h4.9v-1.5h-6.6v-2h15.8v2H237z M229.4,63.7c0-2.1,2.5-3.5,6.3-3.5
		c3.9,0,6.3,1.3,6.3,3.5s-2.5,3.5-6.3,3.5C231.9,67.2,229.4,65.9,229.4,63.7z M232,63.7c0,1,1.4,1.5,3.7,1.5c2.4,0,3.8-0.5,3.8-1.5
		c0-1-1.4-1.5-3.8-1.5C233.4,62.2,232,62.7,232,63.7z"/>
	<path class="st1" d="M265.5,73.6v2h-15.8v-2h3.8v-2.9c-1.2-0.6-1.8-1.5-1.8-2.6c0-2.1,2.3-3.4,5.9-3.4c3.7,0,5.9,1.3,5.9,3.4
		c0,1.1-0.6,2-1.8,2.6v2.9H265.5z M264.7,64.1h-14.4v-2h5.9v-2h2.5v2h6V64.1z M254.1,68.2c0,1,1.2,1.4,3.4,1.4
		c2.2,0,3.4-0.5,3.4-1.4c0-1-1.2-1.5-3.4-1.5C255.3,66.7,254.1,67.2,254.1,68.2z M255.9,73.6h3.3v-2.2c-0.5,0.1-1.1,0.1-1.7,0.1
		c-0.6,0-1.1,0-1.6-0.1V73.6z"/>
	<path class="st1" d="M272.6,71.7c1.7-0.1,3.4-0.2,5-0.4l0.1,1.8c-3.6,0.6-7.5,0.7-10.5,0.7l-0.2-2.1c1,0,2,0,3.1,0v-5.2h2.5V71.7z
		 M273.9,69.5c0.4-2.5,0.5-4.4,0.5-5.9h-6.5v-2h9V63c0,1.7,0,3.8-0.5,6.7L273.9,69.5z M283.2,69h-2.4v8.4h-2.5V59.9h2.5v7h2.4V69z"
		/>
	<path class="st1" d="M293.9,69.8c-1.9-0.6-3.2-1.9-4-3.4c-0.8,1.7-2.1,3.1-4.2,3.8l-1.3-2c2.8-1,4.1-3.2,4.1-5.3h-3.4v-2h9.4v2
		h-3.4c0,2,1.3,4.1,4,5L293.9,69.8z M287.3,71.1h11.9v6.3h-2.5v-4.3h-9.4V71.1z M299.2,59.9v10.4h-2.5v-4.2h-2.6v-2h2.6v-4.2H299.2z
		"/>
	<path class="st1" d="M307,68.4c-2.7,0-4.7-1.7-4.7-4c0-2.3,2-4,4.7-4c2.7,0,4.7,1.7,4.7,4C311.7,66.7,309.7,68.4,307,68.4z
		 M307,66.4c1.3,0,2.2-0.7,2.2-2c0-1.2-0.9-2-2.2-2s-2.3,0.7-2.3,2C304.7,65.6,305.7,66.4,307,66.4z M317,75.2v2h-12.1v-4.8h9.2
		v-1.1h-9.2v-1.9h11.7v4.8h-9.2v1.1H317z M316.6,68.6h-2.5v-8.8h2.5V68.6z"/>
	<path class="st1" d="M326.4,71.1c0.4,0,0.9-0.1,1.4-0.2l0.2,2c-1.3,0.3-2.2,0.3-3.1,0.3h-0.8V62h3.7v2h-1.4V71.1z M330.7,71.1
		c0.6,0,1.1-0.1,1.8-0.3l0.2,2.1c-1.3,0.3-2.4,0.3-3.4,0.3h-0.8V62h3.8v2h-1.6V71.1z M339.1,59.9v17.5h-2.3v-8.7h-1.3v7.9h-2.3V60.2
		h2.3v6.5h1.3v-6.8H339.1z"/>
	<path class="st1" d="M350.4,61.7c0,5.2-2,9.7-7.8,12.7l-1.4-1.9c4.1-2.1,6.2-4.9,6.7-8.7h-5.7v-2H350.4z M357.5,68.6H355v8.7h-2.5
		V59.9h2.5v6.7h2.5V68.6z"/>
	<path class="st1" d="M363.4,65c0-2.5,2.1-4.2,4.8-4.2c2.7,0,4.8,1.7,4.8,4.2c0,2.5-2,4.2-4.8,4.2C365.4,69.2,363.4,67.4,363.4,65z
		 M375.9,71.1c0,1.8,1,3.5,3.3,4.2l-1.2,1.8c-1.7-0.6-2.7-1.6-3.3-2.9c-0.6,1.3-1.6,2.5-3.2,3.1c-1.6-0.6-2.6-1.7-3.2-3.1
		c-0.6,1.3-1.7,2.3-3.2,2.9l-1.2-1.8c2.3-0.8,3.3-2.5,3.3-4.2v-0.6h2.4v0.6c0,1.4,0.6,2.8,1.9,3.8c1.4-1,2-2.5,2-3.8v-0.6h2.5V71.1z
		 M365.8,65c0,1.3,1,2.1,2.3,2.1c1.3,0,2.3-0.8,2.3-2.1s-1-2.1-2.3-2.1C366.8,62.9,365.8,63.7,365.8,65z M377.7,69.8h-2.5v-9.9h2.5
		V69.8z"/>
	<path class="st1" d="M383.8,71.1c2.5,0,4.6-0.2,6.8-0.6l0.2,2.1c-2.6,0.5-5,0.6-8.1,0.6h-1.5V61.5h8.2v2h-5.7V71.1z M396.8,68.4
		h-2.5v9h-2.5V59.9h2.5v6.5h2.5V68.4z"/>
	<path class="st1" d="M398.6,74.2c0-1,0.7-1.8,1.7-1.8c1,0,1.7,0.8,1.7,1.8c0,1-0.7,1.8-1.7,1.8C399.4,76,398.6,75.2,398.6,74.2z"/>
</g>
<g class="st0">
	<path class="st1" d="M0.9,131.8c3.1,0,7.4,0,11.1-0.6l0.2,1.8c-3.8,0.8-7.9,0.8-10.9,0.8L0.9,131.8z M11.3,125.4
		c0,2.5-2.1,4.3-4.8,4.3c-2.7,0-4.8-1.8-4.8-4.3c0-2.5,2.1-4.3,4.8-4.3C9.2,121,11.3,122.9,11.3,125.4z M4.1,125.4
		c0,1.4,1,2.2,2.4,2.2c1.3,0,2.4-0.8,2.4-2.2c0-1.4-1-2.2-2.4-2.2C5.1,123.2,4.1,124,4.1,125.4z M15.4,119.9v17.6h-2.5v-17.6H15.4z"
		/>
	<path class="st1" d="M27.6,121.5v11.8h-8.4v-11.8H27.6z M21.6,123.4v7.8h3.5v-7.8H21.6z M32.8,119.9v17.5h-2.5v-17.5H32.8z"/>
	<path class="st1" d="M44.6,129.8h-8.3v-8.4h8.3V129.8z M40.8,135.1h9.4v2H38.3v-5.7h2.5V135.1z M42.2,123.3h-3.4v4.5h3.4V123.3z
		 M51.9,124.9v2.1h-2.3v5.7H47v-12.8h2.5v5.1H51.9z"/>
	<path class="st1" d="M66.4,121.7c0,5.3-1.7,9.7-7.7,12.7l-1.3-1.9c4.4-2.2,6.2-4.9,6.5-8.7h-5.7v-2H66.4z M72.2,119.9v17.5h-2.5
		v-8.8h-3.4v-2h3.4v-6.7H72.2z"/>
	<path class="st1" d="M84.4,129.9c-2-0.5-3.3-1.6-4.1-3c-0.8,1.6-2.1,2.8-4.2,3.4l-1.2-2c2.8-0.8,4-2.7,4-4.7h-3.4v-2H79v-1.9h2.5
		v1.9h3.5v2h-3.5c0,1.8,1.3,3.6,4,4.3L84.4,129.9z M89,134.1c0,2.1-2.3,3.3-5.9,3.3c-3.7,0-5.9-1.2-5.9-3.3s2.3-3.3,5.9-3.3
		C86.8,130.8,89,132,89,134.1z M86.5,134.1c0-1-1.2-1.4-3.4-1.4c-2.3,0-3.4,0.4-3.4,1.4s1.2,1.4,3.4,1.4
		C85.3,135.5,86.5,135,86.5,134.1z M91.1,124v2.1h-2.3v4.4h-2.5v-10.5h2.5v4.1H91.1z"/>
	<path class="st1" d="M102.8,123.7H92.5v-2h3.9v-1.9h2.5v1.9h3.9L102.8,123.7z M97.7,131.1c-2.5,0-4.3-1.4-4.3-3.4
		c0-2,1.8-3.4,4.3-3.4s4.3,1.4,4.3,3.4C102,129.7,100.2,131.1,97.7,131.1z M97.5,135.1h9.4v2H95V132h2.5V135.1z M97.7,129.2
		c1.1,0,1.9-0.5,1.9-1.5c0-0.9-0.8-1.5-1.9-1.5c-1.1,0-1.9,0.5-1.9,1.5C95.8,128.6,96.6,129.2,97.7,129.2z M108.6,125.2v2.1h-2.3
		v5.7h-2.5v-13.1h2.5v5.3H108.6z"/>
	<path class="st1" d="M117.5,131.4c2.5,0,4.5-0.1,6.8-0.5l0.2,2c-2.7,0.4-5,0.5-8,0.5H115v-12.1h8.2v2h-5.7v2.8h5.5v2h-5.5V131.4z
		 M130.6,128.6H128v8.8h-2.5v-17.5h2.5v6.6h2.5V128.6z"/>
	<path class="st1" d="M141.5,127.3c0,3.9-2,6.3-4.6,6.3s-4.6-2.4-4.6-6.3c0-3.8,2-6.2,4.6-6.2S141.5,123.5,141.5,127.3z
		 M134.7,127.3c0,2.6,0.9,4,2.2,4s2.2-1.4,2.2-4c0-2.6-0.9-4-2.2-4S134.7,124.8,134.7,127.3z M146.3,119.9v17.6h-2.5v-17.6H146.3z"
		/>
	<path class="st1" d="M165.1,127.7v1.8h-15.7v-1.8H165.1z M153.6,135.5h10v1.7h-12.5V133h9.6v-0.8h-9.6v-1.7h12.1v4.2h-9.6V135.5z
		 M163.4,126.9h-12.2v-6.7h12v1.7h-9.6v0.8h9.1v1.6h-9.1v0.9h9.7V126.9z"/>
	<path class="st1" d="M176.5,127.3c0,3.9-2,6.3-4.6,6.3s-4.6-2.4-4.6-6.3c0-3.8,2-6.2,4.6-6.2S176.5,123.5,176.5,127.3z
		 M169.7,127.3c0,2.6,0.9,4,2.2,4s2.2-1.4,2.2-4c0-2.6-0.9-4-2.2-4S169.7,124.8,169.7,127.3z M181.3,119.9v17.6h-2.5v-17.6H181.3z"
		/>
	<path class="st1" d="M197.8,127.3c0,3.9-2,6.3-4.6,6.3c-2.7,0-4.6-2.4-4.6-6.3c0-3.8,1.9-6.2,4.6-6.2
		C195.9,121.1,197.8,123.5,197.8,127.3z M195.4,127.3c0-2.6-0.9-4-2.2-4c-1.3,0-2.2,1.4-2.2,4c0,2.6,0.9,4,2.2,4
		C194.5,131.3,195.4,129.9,195.4,127.3z M204.8,128.6h-2.5v8.8h-2.5v-17.5h2.5v6.6h2.5V128.6z"/>
	<path class="st1" d="M209.4,130.9c2.3-0.1,4.8-0.2,7.4-0.8l0.3,2.1c-3,0.6-5.9,0.8-8.5,0.8h-1.6v-11.5h2.5V130.9z M220.6,119.9
		v17.5h-2.5v-17.5H220.6z"/>
	<path class="st1" d="M226.7,131.3c2.5,0,4.6-0.2,6.9-0.6l0.2,2c-2.6,0.5-5,0.6-8.1,0.6h-1.5v-7.2h5.5v-2.8h-5.6v-2h8v6.8h-5.5
		V131.3z M239.8,128.6h-2.5v8.9h-2.5v-17.6h2.5v6.6h2.5V128.6z"/>
	<path class="st1" d="M254.6,130.4c-1.9-0.6-3.2-1.9-4-3.5c-0.8,1.7-2.1,3.1-4.2,3.8l-1.3-2c2.9-0.9,4.1-3.2,4.1-5.4v-0.2h-3.4v-2
		h9.4v2h-3.4v0.2c0,2.1,1.2,4.2,4,5.1L254.6,130.4z M260.3,135.1v2h-11.9v-5.5h2.5v3.5H260.3z M257.4,124.4v-4.5h2.5v12.8h-2.5v-6.2
		h-2.7v-2H257.4z"/>
	<path class="st1" d="M269.6,123.8c0,3.2,1.4,6.4,4.4,7.7l-1.4,2c-2-0.9-3.4-2.6-4.1-4.8c-0.8,2.3-2.2,4.2-4.3,5.2l-1.5-2.1
		c3.1-1.3,4.5-4.7,4.5-8.1v-2.5h2.5V123.8z M277.3,119.9v17.6h-2.5v-17.6H277.3z"/>
	<path class="st1" d="M293.9,129.8c-1.9-0.6-3.2-1.9-4-3.4c-0.8,1.8-2.1,3.2-4.2,3.9l-1.3-2c2.8-1,4-3.2,4.1-5.4h-3.4v-2h9.4v2h-3.4
		c0.1,2,1.3,4,4,4.9L293.9,129.8z M299.3,134c0,2.1-2.3,3.4-6,3.4c-3.7,0-6-1.2-6-3.4s2.3-3.4,6-3.4
		C297,130.7,299.3,131.9,299.3,134z M296.8,134c0-1-1.2-1.5-3.5-1.5c-2.3,0-3.5,0.5-3.5,1.5c0,1,1.2,1.5,3.5,1.5
		C295.6,135.5,296.8,135,296.8,134z M296.7,124.1v-4.2h2.5v10.4h-2.5v-4.2h-2.6v-2H296.7z"/>
	<path class="st1" d="M317.9,133.3v2h-15.8v-2h6.6v-3.2h-5V121h2.5v2.7h7.5V121h2.5v9.1h-5v3.2H317.9z M306.2,128.1h7.5v-2.5h-7.5
		V128.1z"/>
	<path class="st1" d="M330.3,124.6c0,2.7,1.4,5.8,4.3,7.1l-1.4,2c-1.9-0.9-3.3-2.6-4.1-4.7c-0.8,2.3-2.2,4.2-4.2,5.1l-1.4-2
		c2.9-1.3,4.3-4.6,4.3-7.5v-1h-3.6v-2.1h9.6v2.1h-3.5V124.6z M340.1,128.6h-2.5v8.8H335v-17.5h2.5v6.7h2.5V128.6z"/>
	<path class="st1" d="M346.8,125.2c0,2.6,0.9,5.3,3.4,6.6l-1.3,1.9c-1.5-0.8-2.5-2.2-3.2-3.9c-0.6,1.8-1.6,3.4-3.2,4.3l-1.4-1.9
		c2.5-1.5,3.4-4.3,3.4-7v-0.4h-2.7v-2h2.7v-2.4h2.4v2.4h2.7v2h-2.7V125.2z M350.4,120.2h2.3v16.4h-2.3v-8.1h-2v-2h2V120.2z
		 M356.3,119.9v17.5H354v-17.5H356.3z"/>
	<path class="st1" d="M374.7,127.8v1.8h-15.8v-1.8H374.7z M363.1,135.5h10.1v1.7h-12.6V133h9.7v-0.9h-9.7v-1.7h12.2v4.2h-9.7V135.5z
		 M370.2,121.9h-9.5v-1.7h12v4.1h-9.5v0.9h9.8v1.7h-12.2v-4.2h9.5V121.9z"/>
	<path class="st1" d="M383.8,131.4c2.5,0,4.5-0.1,6.8-0.5l0.2,2c-2.7,0.4-5,0.5-8,0.5h-1.5v-12.1h8.2v2h-5.7v2.8h5.5v2h-5.5V131.4z
		 M396.8,128.6h-2.5v8.8h-2.5v-17.5h2.5v6.6h2.5V128.6z"/>
	<path class="st1" d="M407.8,127.3c0,3.9-2,6.3-4.6,6.3s-4.6-2.4-4.6-6.3c0-3.8,2-6.2,4.6-6.2S407.8,123.5,407.8,127.3z M401,127.3
		c0,2.6,0.9,4,2.2,4s2.2-1.4,2.2-4c0-2.6-0.9-4-2.2-4S401,124.8,401,127.3z M412.6,119.9v17.6h-2.5v-17.6H412.6z"/>
	<path class="st1" d="M431.4,127.7v1.8h-15.7v-1.8H431.4z M419.9,135.5h10v1.7h-12.5V133h9.6v-0.8h-9.6v-1.7h12.1v4.2h-9.6V135.5z
		 M429.7,126.9h-12.2v-6.7h12v1.7H420v0.8h9.1v1.6H420v0.9h9.7V126.9z"/>
	<path class="st1" d="M448.9,133.4v2.1H433v-2.1h6.6v-2.6h-4.8v-5.9h9.8V123h-9.8v-2h12.3v5.8h-9.7v2h10.1v2h-5.3v2.6H448.9z"/>
	<path class="st1" d="M461.3,123.8c0,3.2,1.2,6.3,4,7.7l-1.5,2c-1.8-0.9-3.1-2.6-3.8-4.7c-0.8,2.2-2.1,4.1-4,5l-1.5-2
		c2.9-1.4,4.3-4.7,4.3-8v-2.5h2.5V123.8z M471.1,128.7h-2.5v8.7H466v-17.5h2.5v6.7h2.5V128.7z"/>
	<path class="st1" d="M488.1,128.2v2h-15.8v-2h3.6v-2.1c-1.3-0.6-2-1.4-2-2.6c0-2.1,2.5-3.4,6.3-3.4c3.9,0,6.3,1.3,6.3,3.4
		c0,1.1-0.7,2-2,2.6v2.1H488.1z M486.3,134.2c0,2-2.3,3.2-6.1,3.2s-6.1-1.2-6.1-3.2c0-2,2.3-3.2,6.1-3.2S486.3,132.2,486.3,134.2z
		 M476.5,123.5c0,1,1.4,1.4,3.7,1.4c2.4,0,3.8-0.5,3.8-1.4c0-1-1.4-1.5-3.8-1.5C477.8,122.1,476.5,122.5,476.5,123.5z M483.7,134.2
		c0-0.9-1.2-1.3-3.5-1.3s-3.5,0.4-3.5,1.3c0,0.9,1.2,1.3,3.5,1.3S483.7,135.1,483.7,134.2z M478.4,128.2h3.6v-1.4
		c-0.6,0.1-1.2,0.1-1.8,0.1c-0.7,0-1.3,0-1.8-0.1V128.2z"/>
</g>
<g class="st0">
	<path class="st1" d="M7.1,152.5h3.8v2H0.7v-2h3.9v-2.3h2.5V152.5z M10.3,159.6c0,2.5-1.9,4.2-4.4,4.2c-2.5,0-4.4-1.7-4.4-4.2
		c0-2.4,1.9-4.2,4.4-4.2C8.4,155.5,10.3,157.2,10.3,159.6z M7.9,159.6c0-1.3-0.9-2.1-2-2.1s-2.1,0.8-2.1,2.1s0.9,2.1,2.1,2.1
		S7.9,161,7.9,159.6z M17.1,158.8h-2.5v8.6H12v-17.5h2.5v6.8h2.5V158.8z"/>
	<path class="st1" d="M33,149.9v17.6h-2.5v-6.5h-3.6c-0.8,1.7-2.1,2.7-3.8,2.7c-2.6,0-4.5-2.4-4.5-6.3c0-3.8,1.9-6.2,4.5-6.2
		c1.6,0,2.9,0.9,3.7,2.4h3.7v-3.6H33z M25.2,157.3c0-2.6-0.9-4-2.2-4c-1.3,0-2.1,1.4-2.1,4c0,2.6,0.9,4,2.1,4
		C24.4,161.3,25.2,159.9,25.2,157.3z M30.5,158.9v-3.4h-3c0.1,0.6,0.2,1.2,0.2,1.9c0,0.6,0,1.1-0.1,1.6H30.5z"/>
	<path class="st1" d="M40.3,155c0-2.5,2.1-4.2,4.7-4.2c2.7,0,4.8,1.7,4.8,4.2c0,2.5-2,4.2-4.8,4.2C42.4,159.2,40.3,157.4,40.3,155z
		 M52.9,161.1c0,1.8,1,3.5,3.3,4.2l-1.2,1.8c-1.7-0.6-2.7-1.6-3.3-2.9c-0.6,1.3-1.6,2.5-3.2,3.1c-1.6-0.6-2.6-1.7-3.2-3.1
		c-0.6,1.3-1.7,2.3-3.2,2.9l-1.2-1.8c2.3-0.8,3.3-2.5,3.3-4.2v-0.6h2.4v0.6c0,1.4,0.6,2.8,1.9,3.8c1.4-1,2-2.5,2-3.8v-0.6h2.5V161.1
		z M42.8,155c0,1.3,1,2.1,2.3,2.1c1.3,0,2.3-0.8,2.3-2.1s-1-2.1-2.3-2.1C43.8,152.9,42.8,153.7,42.8,155z M54.6,159.8h-2.5v-9.9h2.5
		V159.8z"/>
	<path class="st1" d="M73.4,158.4v2H57.6v-2H73.4z M61.9,165h9.9v2H59.4v-5.2h2.5V165z M71.7,156.6H59.5v-6.1H62v4.1h9.6V156.6z"/>
	<path class="st1" d="M95.2,163.1v2.1H79.4v-2.1H95.2z M90.7,153.5H81v-2h12.3v2.1c0,2.5,0,4.8-0.6,8.4l-2.5-0.2
		C90.7,158.4,90.7,155.9,90.7,153.5L90.7,153.5z"/>
	<path class="st1" d="M99.8,161.4c1.6,0,3.1-0.1,4.8-0.4l0.2,2c-2.1,0.4-4,0.5-6.2,0.5h-1.2v-11.5h6.5v2h-4V161.4z M111.8,149.9
		v17.5h-2.4v-8.8h-1.6v7.9h-2.3v-16.4h2.3v6.4h1.6v-6.7H111.8z"/>
	<path class="st1" d="M130.2,163.4v2.1h-15.8v-2.1h6.6v-2.6h-4.8v-5.9h9.8V153h-9.8v-2h12.3v5.8h-9.7v2h10.1v2h-5.3v2.6H130.2z"/>
	<path class="st1" d="M147.6,157.8v1.8h-15.8v-1.8H147.6z M136.1,165.5h10.1v1.7h-12.6V163h9.7v-0.9h-9.7v-1.7h12.2v4.2h-9.7V165.5z
		 M143.2,151.9h-9.5v-1.7h12v4.1h-9.5v0.9h9.8v1.7h-12.2v-4.2h9.5V151.9z"/>
	<path class="st1" d="M169.4,163.2v2.1h-15.8v-2.1H169.4z M167.7,160h-12.3v-8.6h12.2v2h-9.7v4.6h9.8V160z"/>
	<path class="st1" d="M174.2,161.3c2.4,0,4.4-0.1,6.6-0.5l0.2,2c-2.6,0.4-4.9,0.5-7.8,0.5h-1.4V156h5.4v-2.6h-5.4v-2h7.9v6.6h-5.4
		V161.3z M185.7,149.9v17.6h-2.5v-9.2h-2.7v-2h2.7v-6.3H185.7z"/>
	<path class="st1" d="M196.4,158.4c-2.1,0.4-3.9,0.5-6,0.5h-1.2v-7.8h2.5v5.7c1.5,0,2.9-0.2,4.4-0.5L196.4,158.4z M201.6,161.2
		c0,1.8,1,3.6,3.2,4.3l-1.2,1.8c-1.6-0.6-2.7-1.6-3.3-3c-0.6,1.3-1.6,2.5-3.2,3.1c-1.6-0.6-2.6-1.7-3.2-3.1
		c-0.6,1.3-1.7,2.3-3.2,2.9l-1.2-1.8c2.3-0.8,3.2-2.5,3.2-4.3v-0.8h2.4v0.8c0,1.4,0.6,2.9,1.9,3.9c1.4-1,2-2.6,2-3.9v-0.8h2.5V161.2
		z M199.6,159.7h-2.3v-9.5h2.3v3.7h1.5v-4h2.4v9.9h-2.4v-3.9h-1.5V159.7z"/>
	<path class="st1" d="M209.2,161.1c2.5,0,4.6-0.2,6.8-0.6l0.2,2.1c-2.6,0.5-5,0.6-8.1,0.6h-1.5v-11.7h8.2v2h-5.7V161.1z
		 M222.3,158.4h-2.5v9h-2.5v-17.5h2.5v6.5h2.5V158.4z"/>
	<path class="st1" d="M224,164.2c0-1,0.7-1.8,1.7-1.8c1,0,1.7,0.8,1.7,1.8c0,1-0.7,1.8-1.7,1.8C224.8,166,224,165.2,224,164.2z"/>
</g>
<g class="st0">
	<path class="st1" d="M10.4,189.8c-1.9-0.6-3.3-1.9-4.1-3.4c-0.8,1.7-2.2,3.1-4.2,3.7l-1.3-2c2.8-0.9,4.1-3.1,4.2-5.3H1.6v-2h9.5v2
		H7.6c0,2.1,1.3,4.1,4.1,5L10.4,189.8z M3.4,191.2h11.9v6.2h-2.5v-4.2H3.4V191.2z M15.3,179.9v10.5h-2.5v-10.5H15.3z"/>
	<path class="st1" d="M29,189.9c-3.6,0.7-7.7,0.7-10.7,0.8l-0.2-2c1,0,2.1,0,3.2,0v-3.4h2.5v3.3c1.7-0.1,3.5-0.2,5.1-0.4L29,189.9z
		 M25.2,187.1c0.3-1.6,0.4-2.9,0.4-4h-6.5v-2h9v1.1c0,1.2,0,2.9-0.4,5.1L25.2,187.1z M23.1,195.1h9.7v2H20.6v-5.3h2.5V195.1z
		 M34.3,185.2v2.1h-2.1v5.7h-2.5v-13.1h2.5v5.3H34.3z"/>
	<path class="st1" d="M45.1,189.8c-1.9-0.6-3.2-1.9-4-3.4c-0.8,1.7-2.1,3.1-4.2,3.8l-1.3-2c2.8-1,4.1-3.2,4.1-5.3h-3.4v-2h9.4v2
		h-3.4c0,2,1.3,4.1,4,5L45.1,189.8z M38.5,191.1h11.9v6.3h-2.5v-4.3h-9.4V191.1z M50.4,179.9v10.4h-2.5v-4.2h-2.6v-2h2.6v-4.2H50.4z
		"/>
	<path class="st1" d="M58.3,189.9c-2.7,0-4.8-1.9-4.8-4.4c0-2.6,2.1-4.4,4.8-4.4s4.7,1.9,4.7,4.4C63,188,61,189.9,58.3,189.9z
		 M58.3,187.7c1.3,0,2.3-0.9,2.3-2.3c0-1.4-1-2.3-2.3-2.3c-1.3,0-2.3,0.8-2.3,2.3C56,186.9,57,187.7,58.3,187.7z M68.2,195.1v2H56.1
		v-5.9h2.5v3.9H68.2z M67.8,192.5h-2.5v-12.6h2.5V192.5z"/>
	<path class="st1" d="M78.2,191.4c2.5,0,4.5-0.1,6.8-0.5l0.2,2c-2.7,0.4-5,0.5-8,0.5h-1.5v-12.1H84v2h-5.7v2.8h5.5v2h-5.5V191.4z
		 M91.3,188.6h-2.5v8.8h-2.5v-17.5h2.5v6.6h2.5V188.6z"/>
	<path class="st1" d="M102.2,187.3c0,3.9-2,6.3-4.6,6.3s-4.6-2.4-4.6-6.3c0-3.8,2-6.2,4.6-6.2S102.2,183.5,102.2,187.3z M95.4,187.3
		c0,2.6,0.9,4,2.2,4s2.2-1.4,2.2-4c0-2.6-0.9-4-2.2-4S95.4,184.8,95.4,187.3z M107,179.9v17.6h-2.5v-17.6H107z"/>
	<path class="st1" d="M125.8,187.7v1.8H110v-1.8H125.8z M114.3,195.5h10v1.7h-12.5V193h9.6v-0.8h-9.6v-1.7h12.1v4.2h-9.6V195.5z
		 M124.1,186.9H112v-6.7h12v1.7h-9.6v0.8h9.1v1.6h-9.1v0.9h9.7V186.9z"/>
	<path class="st1" d="M143.3,188.8v2h-15.8v-2H143.3z M129.1,184c0-2.2,2.5-3.6,6.3-3.6c3.8,0,6.3,1.4,6.3,3.6s-2.5,3.6-6.3,3.6
		C131.6,187.6,129.1,186.2,129.1,184z M131.9,195.1h9.6v2h-12.1V192h2.5V195.1z M131.7,184c0,1.1,1.4,1.6,3.7,1.6
		c2.4,0,3.8-0.5,3.8-1.6c0-1.1-1.4-1.6-3.8-1.6C133.1,182.4,131.7,182.9,131.7,184z"/>
	<path class="st1" d="M165.1,188.5v2h-15.8v-2h6.6v-1.4h-4.6v-6.7h2.5v1.5h6.8v-1.5h2.5v6.7h-4.7v1.4H165.1z M151,191.7h12.2v5.7
		h-2.5v-3.7H151V191.7z M153.8,185.1h6.8v-1.4h-6.8V185.1z"/>
	<path class="st1" d="M176,189.3c-1.9-0.6-3.3-1.7-4.1-3.2c-0.8,1.7-2.2,3-4.3,3.6l-1.2-1.9c2.8-0.9,4.1-2.9,4.1-4.9h-3.5v-2h9.4v2
		h-3.4c0.1,1.9,1.3,3.8,4,4.5L176,189.3z M178,190.2h2.5v7h-11.4v-7h2.5v1.5h6.5V190.2z M178,193.7h-6.5v1.5h6.5V193.7z
		 M182.9,185.7h-2.3v3.9H178v-9.7h2.5v3.7h2.3V185.7z"/>
	<path class="st1" d="M194.5,183.7h-10.3v-2h3.9v-1.9h2.5v1.9h3.9L194.5,183.7z M189.4,191.1c-2.5,0-4.3-1.4-4.3-3.4
		c0-2,1.8-3.4,4.3-3.4s4.3,1.4,4.3,3.4C193.7,189.7,191.9,191.1,189.4,191.1z M189.2,195.1h9.4v2h-11.9V192h2.5V195.1z M189.4,189.2
		c1.1,0,1.9-0.5,1.9-1.5c0-0.9-0.8-1.5-1.9-1.5c-1.1,0-1.9,0.5-1.9,1.5C187.5,188.6,188.3,189.2,189.4,189.2z M200.3,185.2v2.1H198
		v5.7h-2.5v-13.1h2.5v5.3H200.3z"/>
	<path class="st1" d="M211.5,182.5h2.9v2H206v-2h3v-2.2h2.5V182.5z M214.1,189.5c0,2.4-1.6,4.2-3.8,4.2c-2.2,0-3.8-1.7-3.8-4.2
		c0-2.5,1.6-4.2,3.8-4.2C212.5,185.3,214.1,187,214.1,189.5z M211.9,189.5c0-1.3-0.7-2.1-1.6-2.1c-1,0-1.6,0.8-1.6,2.1
		s0.7,2.1,1.6,2.1C211.2,191.5,211.9,190.8,211.9,189.5z M221,179.9v17.5h-2.4V189h-1.3v7.6H215v-16.4h2.3v6.8h1.3v-7.1H221z"/>
	<path class="st1" d="M232.7,189.7c-1.9-0.6-3.1-1.9-3.9-3.4c-0.8,1.7-2.1,3-4.1,3.7l-1.3-2c2.9-1,4.1-3.3,4.1-5.6v-1.7h2.5v1.8
		c0,2.2,1.2,4.3,3.9,5.2L232.7,189.7z M226.2,191.1h11.9v6.3h-2.5v-4.3h-9.4V191.1z M238.1,179.9v10.4h-2.5v-5.1h-3.2v-2h3.2v-3.3
		H238.1z"/>
	<path class="st1" d="M256.8,186.9v2H241v-2H256.8z M242.6,183.1c0-1.9,2.3-3,6.3-3c4,0,6.3,1.1,6.3,3c0,1.9-2.3,3-6.3,3
		C244.9,186.1,242.6,185.1,242.6,183.1z M245.3,195.4h10v1.9h-12.5v-4.6h9.6v-0.9h-9.6v-1.8h12.1v4.5h-9.6V195.4z M245.2,183.1
		c0,0.8,1.2,1.2,3.7,1.2c2.5,0,3.7-0.3,3.7-1.2c0-0.8-1.2-1.1-3.7-1.1C246.4,182,245.2,182.3,245.2,183.1z"/>
	<path class="st1" d="M278.6,193.3v2h-15.8v-2h3.5V189c-1.3-0.8-2.1-2.1-2.1-3.6c0-2.9,2.8-4.7,6.5-4.7c3.8,0,6.5,1.8,6.5,4.7
		c0,1.5-0.8,2.8-2.1,3.6v4.3H278.6z M266.6,185.5c0,1.7,1.6,2.7,4,2.7s4.1-1,4.1-2.7c0-1.7-1.6-2.7-4.1-2.7S266.6,183.7,266.6,185.5
		z M268.8,193.3h3.9V190c-0.6,0.1-1.3,0.2-1.9,0.2s-1.3-0.1-1.9-0.2V193.3z"/>
	<path class="st1" d="M296.1,190.4h-6.7v7h-2.5v-7h-6.5v-2h11c0.4-2.2,0.5-3.9,0.5-5.4h-9.7v-2h12.1v1.6c0,1.6,0,3.4-0.4,5.9h2.3
		V190.4z"/>
	<path class="st1" d="M304,182.5h3.8v2h-10.2v-2h3.9v-2.3h2.5V182.5z M307.2,189.6c0,2.5-1.9,4.2-4.4,4.2c-2.5,0-4.4-1.7-4.4-4.2
		c0-2.4,1.9-4.2,4.4-4.2C305.3,185.5,307.2,187.2,307.2,189.6z M304.8,189.6c0-1.3-0.9-2.1-2-2.1s-2.1,0.8-2.1,2.1s0.9,2.1,2.1,2.1
		S304.8,191,304.8,189.6z M314,188.8h-2.5v8.6H309v-17.5h2.5v6.8h2.5V188.8z"/>
	<path class="st1" d="M322,184.6c0,2.8,1.4,5.9,4.3,7.1l-1.4,2c-2-0.9-3.4-2.6-4.2-4.7c-0.8,2.3-2.2,4.2-4.2,5.1l-1.4-2
		c2.9-1.3,4.4-4.5,4.4-7.5v-1h-3.6v-2.1h9.8v2.1H322V184.6z M329.7,179.9v17.5h-2.5v-17.5H329.7z"/>
	<path class="st1" d="M341.8,188.9c-2.7,0-4.7-1.7-4.7-4.1c0-2.4,2-4.1,4.7-4.1c2.7,0,4.7,1.7,4.7,4.1
		C346.5,187.2,344.5,188.9,341.8,188.9z M341,194.9c0.9-0.1,1.8-0.2,2.7-0.5l0.3,2c-1.4,0.5-2.8,0.6-4.5,0.6h-1v-6.8h2.4V194.9z
		 M341.8,186.9c1.3,0,2.2-0.8,2.2-2c0-1.3-1-2.1-2.2-2.1c-1.3,0-2.2,0.8-2.2,2.1C339.6,186.1,340.5,186.9,341.8,186.9z M349.1,190.2
		h3.1v1.8h-8.8v-1.8h3.2V189h2.4V190.2z M351.2,194.9c0,1.5-1.4,2.5-3.4,2.5c-2,0-3.4-0.9-3.4-2.5c0-1.5,1.4-2.5,3.4-2.5
		C349.8,192.5,351.2,193.4,351.2,194.9z M349,194.9c0-0.5-0.5-0.8-1.2-0.8c-0.7,0-1.2,0.2-1.2,0.8c0,0.5,0.5,0.8,1.2,0.8
		C348.5,195.7,349,195.5,349,194.9z M353.1,183.5v2.1h-2.3v2.9h-2.5v-8.6h2.5v3.6H353.1z"/>
	<path class="st1" d="M370.3,193.2v2.1h-15.8v-2.1H370.3z M368.9,185.8c0,3-2.8,5.1-6.5,5.1c-3.7,0-6.5-2-6.5-5.1
		c0-3.1,2.8-5.1,6.5-5.1C366.1,180.8,368.9,182.8,368.9,185.8z M358.3,185.8c0,1.9,1.7,3,4.1,3c2.4,0,4.1-1.1,4.1-3
		c0-1.9-1.7-3-4.1-3C360,182.8,358.3,183.9,358.3,185.8z"/>
	<path class="st1" d="M386.7,179.9v17.5h-2.5v-6.9h-3.2v2.6h-8.3v-11.7h8.3v2.4h3.2v-4H386.7z M378.5,183.4h-3.4v7.8h3.4V183.4z
		 M384.2,188.6v-2.7h-3.2v2.7H384.2z"/>
	<path class="st1" d="M389.7,198.3c1.5-0.6,2.3-1.5,2.3-2.6c-0.1,0-0.1,0-0.2,0c-0.9,0-1.7-0.6-1.7-1.7c0-1,0.8-1.7,1.8-1.7
		c1.3,0,2,1,2,2.8c0,2.2-1.3,3.9-3.6,4.7L389.7,198.3z"/>
</g>
<g class="st0">
	<path class="st1" d="M9.7,210.9c0,4.7-2.9,7.8-8.1,9.2l-1-2c3.9-1,6-2.9,6.4-5.2H1.5v-2H9.7z M2.9,220.8h11.7v6.6h-2.5v-4.6H2.9
		V220.8z M16.9,216h-2.3v4h-2.5v-10.1h2.5v4.1h2.3V216z"/>
	<path class="st1" d="M31.9,219.7c-2-0.5-3.3-1.6-4.1-3c-0.8,1.5-2.1,2.7-4.2,3.3l-1.2-1.9c2.7-0.8,4-2.6,4-4.5h-3.4v-2h3.4v-1.8H29
		v1.8h3.5v2H29c0.1,1.7,1.3,3.5,4,4.2L31.9,219.7z M25,220.9h11.4v6.3H25V220.9z M27.5,225.2h6.5v-2.4h-6.5V225.2z M38.7,216h-2.3
		v4.1h-2.5v-10.2h2.5v4.1h2.3V216z"/>
	<path class="st1" d="M54.8,209.9v17.6h-2.5v-6.5h-3.6c-0.8,1.7-2.1,2.7-3.8,2.7c-2.6,0-4.5-2.4-4.5-6.3c0-3.8,1.9-6.2,4.5-6.2
		c1.6,0,2.9,0.9,3.7,2.4h3.7v-3.6H54.8z M47,217.3c0-2.6-0.9-4-2.2-4c-1.3,0-2.1,1.4-2.1,4c0,2.6,0.9,4,2.1,4
		C46.2,221.3,47,219.9,47,217.3z M52.3,218.9v-3.4h-3c0.1,0.6,0.2,1.2,0.2,1.9c0,0.6,0,1.1-0.1,1.6H52.3z"/>
	<path class="st1" d="M64,214.6c0,2.7,1.4,5.8,4.3,7.1l-1.4,2c-1.9-0.9-3.3-2.6-4.1-4.7c-0.8,2.3-2.2,4.2-4.2,5.1l-1.4-2
		c2.9-1.3,4.3-4.6,4.3-7.5v-1h-3.6v-2.1h9.6v2.1H64V214.6z M73.8,218.6h-2.5v8.8h-2.5v-17.5h2.5v6.7h2.5V218.6z"/>
	<path class="st1" d="M75.1,221.8c3.1,0,7.4,0,11.1-0.6l0.2,1.8c-3.8,0.8-7.9,0.8-10.9,0.8L75.1,221.8z M85.5,215.4
		c0,2.5-2.1,4.3-4.8,4.3c-2.7,0-4.8-1.8-4.8-4.3c0-2.5,2.1-4.3,4.8-4.3C83.4,211,85.5,212.9,85.5,215.4z M78.3,215.4
		c0,1.4,1,2.2,2.4,2.2c1.3,0,2.4-0.8,2.4-2.2c0-1.4-1-2.2-2.4-2.2C79.3,213.2,78.3,214,78.3,215.4z M89.6,209.9v17.6h-2.5v-17.6
		H89.6z"/>
	<path class="st1" d="M106.1,217.3c0,3.9-2,6.3-4.6,6.3c-2.7,0-4.6-2.4-4.6-6.3c0-3.8,1.9-6.2,4.6-6.2
		C104.2,211.1,106.1,213.5,106.1,217.3z M103.7,217.3c0-2.6-0.9-4-2.2-4c-1.3,0-2.2,1.4-2.2,4c0,2.6,0.9,4,2.2,4
		C102.8,221.3,103.7,219.9,103.7,217.3z M113.1,218.6h-2.5v8.8H108v-17.5h2.5v6.6h2.5V218.6z"/>
	<path class="st1" d="M124,217.3c0,3.9-2,6.3-4.6,6.3s-4.6-2.4-4.6-6.3c0-3.8,2-6.2,4.6-6.2S124,213.5,124,217.3z M117.2,217.3
		c0,2.6,0.9,4,2.2,4s2.2-1.4,2.2-4c0-2.6-0.9-4-2.2-4S117.2,214.8,117.2,217.3z M128.8,209.9v17.6h-2.5v-17.6H128.8z"/>
	<path class="st1" d="M140,219.8c-2.1,0.4-3.9,0.5-6.2,0.5h-1.2v-9.1h6.8v2H135v5.1c1.7,0,3.1-0.1,4.7-0.4L140,219.8z M147.2,225.1
		v2h-12.2v-5.7h2.5v3.7H147.2z M140.9,214.5v-4.3h2.3v12.2h-2.3v-5.9h-2.7v-2H140.9z M146.8,222.8h-2.4v-12.9h2.4V222.8z"/>
	<path class="st1" d="M152.7,221.4c2.6,0,4.7-0.1,7.1-0.5l0.2,2c-2.7,0.4-5.2,0.5-8.3,0.5h-1.5v-12.1h8.9v2h-6.3v2.8h5.6v2h-5.6
		V221.4z M163.9,209.9v17.5h-2.5v-17.5H163.9z"/>
	<path class="st1" d="M170.2,221.4c2.6,0,4.7-0.1,7.1-0.5l0.2,2c-2.7,0.4-5.2,0.5-8.3,0.5h-1.5v-12.1h8.9v2h-6.3v2.8h5.6v2h-5.6
		V221.4z M181.3,209.9v17.5h-2.5v-17.5H181.3z"/>
	<path class="st1" d="M200.1,217.8v1.8h-15.8v-1.8H200.1z M188.5,225.5h10.1v1.7H186V223h9.7v-0.9H186v-1.7h12.2v4.2h-9.7V225.5z
		 M195.7,211.9h-9.5v-1.7h12v4.1h-9.5v0.9h9.8v1.7h-12.2v-4.2h9.5V211.9z"/>
	<path class="st1" d="M215.1,218.4c-1.9-0.6-3.2-1.7-3.9-3.2c-0.8,1.7-2.2,3-4.2,3.6l-1.2-2c2.9-0.9,4.1-3,4.1-5.3v-1.1h2.5v1
		c0,2.1,1.2,4.1,4,4.9L215.1,218.4z M210.8,225.3h9.5v1.9h-12v-4.8h9.1v-1h-9.1v-1.9h11.5v4.7h-9V225.3z M222.1,213.3v2h-2.3v3.5
		h-2.5v-9h2.5v3.4H222.1z"/>
	<path class="st1" d="M227,221.3c2.7,0,4.9-0.2,7.3-0.6l0.3,2c-2.8,0.5-5.4,0.6-8.6,0.6h-1.6v-7.2h5.7v-2.8h-5.7v-2h8.3v6.8H227
		V221.3z M238.1,209.9v17.6h-2.5v-17.6H238.1z"/>
	<path class="st1" d="M256.8,218.4v2H241v-2H256.8z M245.3,225h9.9v2h-12.4v-5.2h2.5V225z M255.1,216.6H243v-6.1h2.5v4.1h9.6V216.6z
		"/>
	<path class="st1" d="M271.7,219.2h-8.4V211h2.5v2.2h3.4V211h2.5V219.2z M276.8,224c0,2.1-2.3,3.4-5.9,3.4c-3.6,0-5.9-1.3-5.9-3.4
		c0-2.1,2.3-3.4,5.9-3.4C274.5,220.6,276.8,221.9,276.8,224z M269.2,215.1h-3.4v2.2h3.4V215.1z M274.3,224c0-1-1.2-1.5-3.4-1.5
		c-2.2,0-3.4,0.5-3.4,1.5c0,1,1.2,1.5,3.4,1.5C273.1,225.5,274.3,225,274.3,224z M278.9,214v2.1h-2.3v4.2h-2.5v-10.3h2.5v4.1H278.9z
		"/>
	<path class="st1" d="M294.9,209.9v9.6h-2.5v-3.6h-3.1v3.1H281v-8.2h2.5v2.2h3.3v-2.2h2.5v3.1h3.1v-4H294.9z M292.4,220.2h2.5v6.9
		h-11.6v-6.9h2.5v1.6h6.6V220.2z M286.8,214.9h-3.3v2.1h3.3V214.9z M292.4,223.7h-6.6v1.5h6.6V223.7z"/>
	<path class="st1" d="M307.4,217.3c0,3.9-2,6.3-4.6,6.3s-4.6-2.4-4.6-6.3c0-3.8,2-6.2,4.6-6.2S307.4,213.5,307.4,217.3z
		 M300.7,217.3c0,2.6,0.9,4,2.2,4s2.2-1.4,2.2-4c0-2.6-0.9-4-2.2-4S300.7,214.8,300.7,217.3z M312.2,209.9v17.6h-2.5v-17.6H312.2z"
		/>
	<path class="st1" d="M318.4,221.1c2.5,0,4.6-0.2,6.8-0.6l0.2,2.1c-2.6,0.5-5,0.6-8.1,0.6h-1.5v-11.7h8.2v2h-5.7V221.1z
		 M331.5,218.4h-2.5v9h-2.5v-17.5h2.5v6.5h2.5V218.4z"/>
	<path class="st1" d="M333.2,224.2c0-1,0.7-1.8,1.7-1.8c1,0,1.7,0.8,1.7,1.8c0,1-0.7,1.8-1.7,1.8C334,226,333.2,225.2,333.2,224.2z"
		/>
</g>
<g class="st0">
	<path class="st1" d="M10.5,247.3c0,3.9-2,6.3-4.6,6.3s-4.6-2.4-4.6-6.3c0-3.8,2-6.2,4.6-6.2S10.5,243.5,10.5,247.3z M3.7,247.3
		c0,2.6,0.9,4,2.2,4c1.3,0,2.2-1.4,2.2-4c0-2.6-0.9-4-2.2-4C4.6,243.4,3.7,244.8,3.7,247.3z M15.3,239.9v17.6h-2.5v-17.6H15.3z"/>
	<path class="st1" d="M34.1,248.4v2H18.3v-2H34.1z M22.6,255h9.9v2H20.1v-5.2h2.5V255z M32.4,246.6H20.3v-6.1h2.5v4.1h9.6V246.6z"/>
	<path class="st1" d="M43.3,251.4c2.5,0,4.5-0.1,6.8-0.5l0.2,2c-2.7,0.4-5,0.5-8,0.5h-1.5v-12.1H49v2h-5.7v2.8h5.5v2h-5.5V251.4z
		 M56.3,248.6h-2.5v8.8h-2.5v-17.5h2.5v6.6h2.5V248.6z"/>
	<path class="st1" d="M67.3,247.3c0,3.9-2,6.3-4.6,6.3s-4.6-2.4-4.6-6.3c0-3.8,2-6.2,4.6-6.2S67.3,243.5,67.3,247.3z M60.5,247.3
		c0,2.6,0.9,4,2.2,4s2.2-1.4,2.2-4c0-2.6-0.9-4-2.2-4S60.5,244.8,60.5,247.3z M72.1,239.9v17.6h-2.5v-17.6H72.1z"/>
	<path class="st1" d="M90.8,247.7v1.8H75.1v-1.8H90.8z M79.4,255.5h10v1.7H76.9V253h9.6v-0.8h-9.6v-1.7h12.1v4.2h-9.6V255.5z
		 M89.2,246.9H77v-6.7h12v1.7h-9.6v0.8h9.1v1.6h-9.1v0.9h9.7V246.9z"/>
	<path class="st1" d="M101.6,240.2h2.3v16.4h-2.3v-8.2h-1.4c-0.2,3.4-1.7,5.5-3.8,5.5c-2.3,0-3.8-2.4-3.8-6.4c0-4,1.5-6.3,3.8-6.3
		c2.1,0,3.5,1.9,3.8,5.2h1.4V240.2z M98,247.5c0-2.7-0.6-4-1.5-4c-0.9,0-1.5,1.3-1.5,4c0,2.7,0.6,4,1.5,4
		C97.4,251.5,98,250.2,98,247.5z M107.5,239.9v17.5h-2.4v-17.5H107.5z"/>
	<path class="st1" d="M123.7,241.7c0,5.4-1.8,9.7-8,12.7l-1.3-2c4.5-2.1,6.4-4.9,6.8-8.8h-5.8v-2H123.7z M128.9,239.9v17.5h-2.5
		v-17.5H128.9z"/>
	<path class="st1" d="M134.8,251.4c1.6,0,3.1-0.1,4.8-0.4l0.2,2c-2.1,0.4-4,0.5-6.2,0.5h-1.2v-11.5h6.5v2h-4V251.4z M146.8,239.9
		v17.5h-2.4v-8.8h-1.6v7.9h-2.3v-16.4h2.3v6.4h1.6v-6.7H146.8z"/>
	<path class="st1" d="M156,244.6c0,2.8,1.4,5.9,4.3,7.1l-1.4,2c-2-0.9-3.4-2.6-4.2-4.7c-0.8,2.3-2.2,4.2-4.2,5.1l-1.4-2
		c2.9-1.3,4.4-4.5,4.4-7.5v-1h-3.6v-2.1h9.8v2.1H156V244.6z M163.8,239.9v17.5h-2.5v-17.5H163.8z"/>
	<path class="st1" d="M175.9,248.9c-2.7,0-4.7-1.7-4.7-4.1c0-2.4,2-4.1,4.7-4.1c2.7,0,4.7,1.7,4.7,4.1
		C180.5,247.2,178.5,248.9,175.9,248.9z M175,254.9c0.9-0.1,1.8-0.2,2.7-0.5l0.3,2c-1.4,0.5-2.8,0.6-4.5,0.6h-1v-6.8h2.4V254.9z
		 M175.9,246.9c1.3,0,2.2-0.8,2.2-2c0-1.3-1-2.1-2.2-2.1c-1.3,0-2.2,0.8-2.2,2.1C173.6,246.1,174.6,246.9,175.9,246.9z M183.1,250.2
		h3.1v1.8h-8.8v-1.8h3.2V249h2.4V250.2z M185.2,254.9c0,1.5-1.4,2.5-3.4,2.5c-2,0-3.4-0.9-3.4-2.5c0-1.5,1.4-2.5,3.4-2.5
		C183.9,252.5,185.2,253.4,185.2,254.9z M183,254.9c0-0.5-0.5-0.8-1.2-0.8c-0.7,0-1.2,0.2-1.2,0.8c0,0.5,0.5,0.8,1.2,0.8
		C182.5,255.7,183,255.5,183,254.9z M187.2,243.5v2.1h-2.3v2.9h-2.5v-8.6h2.5v3.6H187.2z"/>
	<path class="st1" d="M204.4,253.3v2h-15.8v-2h5.6v-6h2.5v6H204.4z M199.7,251.2c0.7-3.3,0.7-5.7,0.7-7.8h-10.2v-2h12.7v1.7
		c0,2.2,0,4.7-0.7,8.4L199.7,251.2z"/>
	<path class="st1" d="M219.5,249.8c-1.9-0.6-3.2-1.8-4-3.4c-0.8,1.7-2.1,3-4.2,3.7l-1.3-2c2.8-0.9,4.1-3.1,4.1-5.3h-3.5v-2h9.5v2
		h-3.4c0.1,2,1.3,4.1,4,5L219.5,249.8z M212.4,251.2h11.7v6.2h-2.5v-4.2h-9.2V251.2z M226.4,246.2h-2.3v4.3h-2.5v-10.5h2.5v4.2h2.3
		V246.2z"/>
	<path class="st1" d="M237,250.1v1.4h4.8v5.7h-12.1v-5.7h4.8v-1.4h-6.6v-2h15.8v2H237z M231.4,242.4h-2.2v-2h13v2H240v2.6h2.1v2
		h-12.8v-2h2.1V242.4z M239.3,253.5h-7.2v1.8h7.2V253.5z M237.5,242.4h-3.6v2.6h3.6V242.4z"/>
	<path class="st1" d="M254.4,240.2h2.3v16.4h-2.3v-8.2H253c-0.2,3.4-1.7,5.5-3.8,5.5c-2.3,0-3.8-2.4-3.8-6.4c0-4,1.5-6.3,3.8-6.3
		c2.1,0,3.5,1.9,3.8,5.2h1.4V240.2z M250.8,247.5c0-2.7-0.6-4-1.5-4c-0.9,0-1.5,1.3-1.5,4c0,2.7,0.6,4,1.5,4
		C250.2,251.5,250.8,250.2,250.8,247.5z M260.3,239.9v17.5h-2.4v-17.5H260.3z"/>
	<path class="st1" d="M270.4,251.2c2.5,0,4.3-0.2,6.3-0.5l0.2,2c-2.4,0.4-4.4,0.5-7.6,0.5h-1.4v-11.8h7.9v2h-5.4V251.2z
		 M281.8,239.9v17.6h-2.5v-9.5H275v-2h4.3v-6H281.8z"/>
	<path class="st1" d="M298.6,249.2c-2-0.6-3.3-1.8-4.1-3.3c-0.8,1.6-2.2,2.9-4.3,3.6l-1.3-2c2.8-0.8,4-2.7,4.2-4.7h-3.5v-2h9.5v2
		h-3.4c0.1,1.8,1.4,3.6,4.1,4.4L298.6,249.2z M300.9,250.1h2.5v7h-11.6v-7h2.5v1.6h6.6V250.1z M300.9,253.6h-6.6v1.5h6.6V253.6z
		 M303.4,239.9v9.5h-2.5v-9.5H303.4z"/>
	<path class="st1" d="M315.5,249.8v1.3c3,0.2,4.8,1.3,4.8,3.1c0,2-2.3,3.2-6.1,3.2s-6.1-1.2-6.1-3.2c0-1.8,1.8-2.9,4.8-3.1v-1.3
		h-6.6v-2h15.8v2H315.5z M307.1,245.2c3.2-0.3,5-1.4,5.4-2.6h-4.6v-2h12.9v2h-4.7c0.4,1.2,2.1,2.3,5.4,2.6l-0.9,1.9
		c-3.3-0.3-5.4-1.5-6.4-3.2c-0.9,1.7-3.1,2.9-6.4,3.2L307.1,245.2z M314.2,253c-2.3,0-3.5,0.4-3.5,1.3c0,0.9,1.2,1.3,3.5,1.3
		s3.5-0.4,3.5-1.3C317.8,253.3,316.6,253,314.2,253z"/>
	<path class="st1" d="M330.1,242.5h3.8v2h-10.2v-2h3.9v-2.3h2.5V242.5z M333.3,249.6c0,2.5-1.9,4.2-4.4,4.2c-2.5,0-4.4-1.7-4.4-4.2
		c0-2.4,1.9-4.2,4.4-4.2C331.4,245.5,333.3,247.2,333.3,249.6z M330.9,249.6c0-1.3-0.9-2.1-2-2.1s-2.1,0.8-2.1,2.1s0.9,2.1,2.1,2.1
		S330.9,251,330.9,249.6z M340.1,248.8h-2.5v8.6h-2.5v-17.5h2.5v6.8h2.5V248.8z"/>
	<path class="st1" d="M341.3,248.5c3.2-1.3,4.7-3,5-5.4h-4.1v-2h6.8c0,1.2-0.2,2.4-0.5,3.4h1.8v-4.2h2.3v9.4h-2.3v-3.2h-2.7
		c-1,1.6-2.7,2.9-5,3.9L341.3,248.5z M354.2,251.2c0,1.8,0.9,3.6,3.3,4.3l-1.2,1.8c-1.7-0.6-2.7-1.6-3.3-3c-0.6,1.3-1.6,2.5-3.2,3.1
		c-1.6-0.6-2.6-1.7-3.2-3.1c-0.6,1.3-1.7,2.4-3.2,2.9l-1.2-1.8c2.3-0.8,3.2-2.5,3.2-4.3v-0.8h2.4v0.8c0,1.4,0.6,2.9,1.9,3.8
		c1.4-1,2-2.5,2-3.8v-0.8h2.5V251.2z M356.2,249.8h-2.4v-10h2.4V249.8z"/>
	<path class="st1" d="M362,251.1c2.5,0,4.6-0.2,6.8-0.6l0.2,2.1c-2.6,0.5-5,0.6-8.1,0.6h-1.5v-11.7h8.2v2H362V251.1z M375.1,248.4
		h-2.5v9H370v-17.5h2.5v6.5h2.5V248.4z"/>
	<path class="st1" d="M392.1,248.4v2h-15.8v-2H392.1z M380.6,255h9.9v2h-12.4v-5.2h2.5V255z M390.4,246.6h-12.1v-6.1h2.5v4.1h9.6
		V246.6z"/>
	<path class="st1" d="M407.4,249.7c-2-0.5-3.3-1.6-4.1-3c-0.8,1.5-2.1,2.7-4.2,3.3l-1.2-1.9c2.7-0.8,4-2.6,4-4.5h-3.4v-2h3.4v-1.8
		h2.5v1.8h3.5v2h-3.5c0.1,1.7,1.3,3.5,4,4.2L407.4,249.7z M400.5,250.9h11.4v6.3h-11.4V250.9z M402.9,255.2h6.5v-2.4h-6.5V255.2z
		 M414.2,246h-2.3v4.1h-2.5v-10.2h2.5v4.1h2.3V246z"/>
	<path class="st1" d="M430.3,239.9v17.6h-2.5v-6.5h-3.6c-0.8,1.7-2.1,2.7-3.8,2.7c-2.6,0-4.5-2.4-4.5-6.3c0-3.8,1.9-6.2,4.5-6.2
		c1.6,0,2.9,0.9,3.7,2.4h3.7v-3.6H430.3z M422.5,247.3c0-2.6-0.9-4-2.2-4c-1.3,0-2.1,1.4-2.1,4c0,2.6,0.9,4,2.1,4
		C421.6,251.3,422.5,249.9,422.5,247.3z M427.7,248.9v-3.4h-3c0.1,0.6,0.2,1.2,0.2,1.9c0,0.6,0,1.1-0.1,1.6H427.7z"/>
	<path class="st1" d="M439.5,244.6c0,2.7,1.4,5.8,4.3,7.1l-1.4,2c-1.9-0.9-3.3-2.6-4.1-4.7c-0.8,2.3-2.2,4.2-4.2,5.1l-1.4-2
		c2.9-1.3,4.3-4.6,4.3-7.5v-1h-3.6v-2.1h9.6v2.1h-3.5V244.6z M449.3,248.6h-2.5v8.8h-2.5v-17.5h2.5v6.7h2.5V248.6z"/>
	<path class="st1" d="M466.4,246.7v2h-15.8v-2H466.4z M454.8,255.3h10v1.9h-12.5v-4.7h9.6v-1h-9.6v-1.9h12.1v4.6h-9.6V255.3z
		 M464.5,245.7h-12v-5.5h11.9v2H455v1.5h9.5V245.7z"/>
	<path class="st1" d="M468.1,251.8c3.1,0,7.4,0,11.1-0.6l0.2,1.8c-3.8,0.8-7.9,0.8-10.9,0.8L468.1,251.8z M478.5,245.4
		c0,2.5-2.1,4.3-4.8,4.3c-2.7,0-4.8-1.8-4.8-4.3c0-2.5,2.1-4.3,4.8-4.3C476.4,241,478.5,242.9,478.5,245.4z M471.3,245.4
		c0,1.4,1,2.2,2.4,2.2c1.3,0,2.4-0.8,2.4-2.2c0-1.4-1-2.2-2.4-2.2C472.3,243.2,471.3,244,471.3,245.4z M482.6,239.9v17.6h-2.5v-17.6
		H482.6z"/>
</g>
<g class="st0">
	<path class="st1" d="M16.7,283.4v2H0.8v-2h6.6v-3.1H2.1v-2h2.3v-5H2.1v-2h13.3v2H13v5h2.3v2H10v3.1H16.7z M6.9,278.3h3.6v-5H6.9
		V278.3z"/>
	<path class="st1" d="M34.1,282h-6.7v5.5h-2.5V282h-6.6v-2h15.8V282z M32.3,278.3H20.1v-7.8h2.5v2h7.2v-2h2.5V278.3z M29.8,274.5
		h-7.2v1.8h7.2V274.5z"/>
	<path class="st1" d="M45.5,277.3c0,3.9-2,6.3-4.6,6.3s-4.6-2.4-4.6-6.3c0-3.8,2-6.2,4.6-6.2S45.5,273.5,45.5,277.3z M38.7,277.3
		c0,2.6,0.9,4,2.2,4c1.3,0,2.2-1.4,2.2-4c0-2.6-0.9-4-2.2-4C39.6,273.4,38.7,274.8,38.7,277.3z M50.3,269.9v17.6h-2.5v-17.6H50.3z"
		/>
	<path class="st1" d="M62.6,271.7c0,5.4-1.8,9.7-8,12.7l-1.3-2c4.5-2.1,6.4-4.9,6.8-8.8h-5.8v-2H62.6z M67.8,269.9v17.5h-2.5v-17.5
		H67.8z"/>
	<path class="st1" d="M86.6,283.4v2.1H70.7v-2.1h6.6v-3.6h-4.8v-8.6h12.2v2h-9.7v4.6h9.8v2h-5v3.6H86.6z"/>
	<path class="st1" d="M98.8,272.5h3.8v2H92.4v-2h3.9v-2.3h2.5V272.5z M102,279.6c0,2.5-1.9,4.2-4.4,4.2c-2.5,0-4.4-1.7-4.4-4.2
		c0-2.4,1.9-4.2,4.4-4.2C100.1,275.5,102,277.2,102,279.6z M99.6,279.6c0-1.3-0.9-2.1-2-2.1s-2.1,0.8-2.1,2.1s0.9,2.1,2.1,2.1
		S99.6,281,99.6,279.6z M108.8,278.8h-2.5v8.6h-2.5v-17.5h2.5v6.8h2.5V278.8z"/>
	<path class="st1" d="M113.2,281.1c2.5,0,4.6-0.2,6.8-0.6l0.2,2.1c-2.6,0.5-5,0.6-8.1,0.6h-1.5v-11.7h8.2v2h-5.7V281.1z
		 M126.3,278.4h-2.5v9h-2.5v-17.5h2.5v6.5h2.5V278.4z"/>
	<path class="st1" d="M128,284.2c0-1,0.7-1.8,1.7-1.8c1,0,1.7,0.8,1.7,1.8c0,1-0.7,1.8-1.7,1.8C128.8,286,128,285.2,128,284.2z"/>
</g>
<g class="st0">
	<path class="st1" d="M10.5,337.3c0,3.9-2,6.3-4.6,6.3s-4.6-2.4-4.6-6.3c0-3.8,2-6.2,4.6-6.2S10.5,333.5,10.5,337.3z M3.7,337.3
		c0,2.6,0.9,4,2.2,4c1.3,0,2.2-1.4,2.2-4c0-2.6-0.9-4-2.2-4C4.6,333.4,3.7,334.8,3.7,337.3z M15.3,329.9v17.6h-2.5v-17.6H15.3z"/>
	<path class="st1" d="M34.1,343.4v2.1H18.3v-2.1h6.6v-2.6h-4.8v-5.9h9.8V333h-9.8v-2h12.3v5.8h-9.7v2h10.1v2h-5.3v2.6H34.1z"/>
	<path class="st1" d="M45,334.2c0,2.8,0.3,5.8,2.5,7.6l-1.5,1.8c-1.1-0.9-1.8-2.2-2.2-3.6c-0.4,1.5-1.2,2.9-2.4,3.8
		c-1.2-0.9-1.9-2.3-2.3-3.8c-0.4,1.4-1.1,2.7-2.1,3.5l-1.6-1.7c2.2-1.7,2.5-4.8,2.5-7.6v-3h2.3v3c0,2,0.2,4.3,1.2,6.1
		c1-1.8,1.2-4,1.2-6.1v-3H45V334.2z M50.8,329.9v17.5h-2.5v-9.5H46v-2.1h2.2v-5.9H50.8z"/>
	<path class="st1" d="M57.6,341.8c3.1,0,7.4,0,11.1-0.6l0.2,1.8c-3.8,0.8-7.9,0.8-10.9,0.8L57.6,341.8z M68,335.4
		c0,2.5-2.1,4.3-4.8,4.3c-2.7,0-4.8-1.8-4.8-4.3c0-2.5,2.1-4.3,4.8-4.3C65.9,331,68,332.9,68,335.4z M60.8,335.4
		c0,1.4,1,2.2,2.4,2.2c1.3,0,2.4-0.8,2.4-2.2c0-1.4-1-2.2-2.4-2.2C61.8,333.2,60.8,334,60.8,335.4z M72.2,329.9v17.6h-2.5v-17.6
		H72.2z"/>
	<path class="st1" d="M84.3,331.5v11.8h-8.4v-11.8H84.3z M78.4,333.4v7.8h3.5v-7.8H78.4z M89.5,329.9v17.5H87v-17.5H89.5z"/>
	<path class="st1" d="M101.4,339.8H93v-8.4h8.3V339.8z M97.5,345.1h9.4v2H95v-5.7h2.5V345.1z M98.9,333.3h-3.4v4.5h3.4V333.3z
		 M108.6,334.9v2.1h-2.3v5.7h-2.5v-12.8h2.5v5.1H108.6z"/>
	<path class="st1" d="M123.2,338.3h-8.3V331h8.3V338.3z M118.3,344.9c0.9-0.1,1.8-0.2,2.7-0.5l0.3,2c-1.4,0.5-2.8,0.6-4.5,0.6h-1
		v-6.9h2.4V344.9z M120.7,332.9h-3.4v3.4h3.4V332.9z M126.4,340.2h3.1v1.8h-8.8v-1.8h3.2V339h2.4V340.2z M128.5,344.9
		c0,1.5-1.4,2.5-3.4,2.5c-2,0-3.4-1-3.4-2.5c0-1.5,1.4-2.5,3.4-2.5C127.1,342.5,128.5,343.4,128.5,344.9z M126.3,344.9
		c0-0.5-0.5-0.8-1.2-0.8c-0.7,0-1.2,0.2-1.2,0.8c0,0.5,0.5,0.8,1.2,0.8C125.8,345.7,126.3,345.4,126.3,344.9z M130.4,333.5v2.1h-2.3
		v3h-2.5v-8.7h2.5v3.6H130.4z"/>
	<path class="st1" d="M147.6,343.3v2h-15.8v-2h5.6v-6h2.5v6H147.6z M142.9,341.2c0.7-3.3,0.7-5.7,0.7-7.8h-10.2v-2h12.7v1.7
		c0,2.2,0,4.7-0.7,8.4L142.9,341.2z"/>
	<path class="st1" d="M169.4,339.9v1.9h-15.8v-1.9H169.4z M168.6,333.2h-14.3v-1.9h5.9v-1.5h2.5v1.5h5.9V333.2z M158,345.1h9.6v1.9
		h-12.1v-4.4h2.5V345.1z M161.5,333.7c3.7,0,5.9,0.9,5.9,2.7c0,1.7-2.1,2.7-5.9,2.7s-5.9-0.9-5.9-2.7
		C155.6,334.7,157.8,333.7,161.5,333.7z M161.5,335.5c-2.3,0-3.3,0.3-3.3,0.9c0,0.6,1,0.9,3.3,0.9c2.3,0,3.3-0.3,3.3-0.9
		C164.8,335.8,163.8,335.5,161.5,335.5z"/>
	<path class="st1" d="M181.4,333.7h-10.3v-2h3.9v-1.9h2.5v1.9h3.9L181.4,333.7z M176.2,341.1c-2.5,0-4.3-1.4-4.3-3.4
		c0-2,1.8-3.4,4.3-3.4s4.3,1.4,4.3,3.4C180.5,339.7,178.7,341.1,176.2,341.1z M176.1,345.1h9.4v2h-11.9V342h2.5V345.1z M176.2,339.2
		c1.1,0,1.9-0.5,1.9-1.5c0-0.9-0.8-1.5-1.9-1.5c-1.1,0-1.9,0.5-1.9,1.5C174.3,338.6,175.1,339.2,176.2,339.2z M187.2,335.2v2.1h-2.3
		v5.7h-2.5v-13.1h2.5v5.3H187.2z"/>
	<path class="st1" d="M202.2,340.4c-1.9-0.6-3.2-1.9-4-3.5c-0.8,1.7-2.1,3.1-4.2,3.8l-1.3-2c2.9-0.9,4.1-3.2,4.1-5.4v-0.2h-3.4v-2
		h9.4v2h-3.4v0.2c0,2.1,1.2,4.2,4,5.1L202.2,340.4z M207.9,345.1v2H196v-5.5h2.5v3.5H207.9z M205,334.4v-4.5h2.5v12.8H205v-6.2h-2.7
		v-2H205z"/>
	<path class="st1" d="M217.1,333.8c0,3.2,1.4,6.4,4.4,7.7l-1.4,2c-2-0.9-3.4-2.6-4.1-4.8c-0.8,2.3-2.2,4.2-4.3,5.2l-1.5-2.1
		c3.1-1.3,4.5-4.7,4.5-8.1v-2.5h2.5V333.8z M224.8,329.9v17.6h-2.5v-17.6H224.8z"/>
	<path class="st1" d="M236.9,331.7c0,5.2-2,9.7-7.8,12.7l-1.4-1.9c4.1-2.1,6.2-4.9,6.7-8.7h-5.7v-2H236.9z M244,338.6h-2.5v8.7H239
		v-17.5h2.5v6.7h2.5V338.6z"/>
	<path class="st1" d="M258.9,337.3c0,3.9-2,6.3-4.6,6.3c-2.7,0-4.6-2.4-4.6-6.3c0-3.8,1.9-6.2,4.6-6.2
		C257,331.1,258.9,333.5,258.9,337.3z M256.5,337.3c0-2.6-0.9-4-2.2-4c-1.3,0-2.2,1.4-2.2,4c0,2.6,0.9,4,2.2,4
		C255.6,341.3,256.5,339.9,256.5,337.3z M265.9,338.6h-2.5v8.8h-2.5v-17.5h2.5v6.6h2.5V338.6z"/>
	<path class="st1" d="M278,338.8c-2.8,0.6-5.6,0.8-8.4,0.8h-1.5v-8.4h2.5v6.3c2.3-0.1,4.7-0.3,7.1-0.8L278,338.8z M282.1,345.1v2
		h-12.1v-5.9h2.5v4H282.1z M281.6,342.6h-2.5v-12.7h2.5V342.6z"/>
	<path class="st1" d="M284.8,348.3c1.5-0.6,2.3-1.5,2.3-2.6c-0.1,0-0.1,0-0.2,0c-0.9,0-1.7-0.6-1.7-1.7c0-1,0.8-1.7,1.8-1.7
		c1.3,0,2,1,2,2.8c0,2.2-1.3,3.9-3.6,4.7L284.8,348.3z"/>
</g>
<g class="st0">
	<path class="st1" d="M0.8,374.1c3.8-3.4,6.1-6.1,6.1-8.2c0-1.4-0.8-2.3-2.1-2.3c-1,0-1.9,0.7-2.6,1.4l-1.5-1.5
		c1.3-1.4,2.5-2.1,4.5-2.1c2.7,0,4.4,1.7,4.4,4.3c0,2.5-2.1,5.3-4.7,7.8c0.7-0.1,1.6-0.2,2.3-0.2h3.1v2.4H0.8V374.1z"/>
	<path class="st1" d="M12,368.7c0-4.9,1.9-7.2,4.8-7.2c2.8,0,4.7,2.4,4.7,7.2s-1.9,7.4-4.7,7.4C13.9,376,12,373.5,12,368.7z
		 M18.9,368.7c0-3.9-0.9-5.1-2.1-5.1c-1.2,0-2.1,1.1-2.1,5.1c0,4,0.9,5.2,2.1,5.2C18,373.8,18.9,372.6,18.9,368.7z"/>
	<path class="st1" d="M23.9,373.5h3v-8.9h-2.5v-1.7c1.4-0.3,2.4-0.6,3.3-1.2h2.1v11.8h2.6v2.3h-8.5V373.5z"/>
	<path class="st1" d="M36,372.8c0.5,0.6,1.4,1,2.2,1c1.6,0,2.9-1.2,3-4.7c-0.7,1-1.9,1.5-2.9,1.5c-2.3,0-4-1.4-4-4.4
		c0-2.9,2-4.7,4.4-4.7c2.7,0,5.1,2.1,5.1,7c0,5.3-2.6,7.6-5.4,7.6c-1.7,0-3-0.7-3.9-1.6L36,372.8z M41.2,367.1
		c-0.2-2.6-1.2-3.5-2.4-3.5c-1,0-1.9,0.9-1.9,2.6c0,1.7,0.8,2.4,2,2.4C39.7,368.6,40.5,368.1,41.2,367.1z"/>
	<path class="st1" d="M56.5,363.8c0,3.3,1.3,6.5,4.2,7.8l-1.5,2c-1.9-0.9-3.2-2.6-3.9-4.7c-0.8,2.2-2.1,4.1-4,5.1l-1.6-2
		c3-1.4,4.3-4.8,4.3-8.1v-2.5h2.5V363.8z M64.6,359.9v17.6h-2.5v-10h-3.4v-2h3.4v-5.5H64.6z"/>
	<path class="st1" d="M76.5,368.7v1.1h4.8v4.5h-9.6v1h10v1.9H69.2v-4.6h9.6v-0.9h-9.6v-1.8H74v-1.1h-6.6v-2h15.8v2H76.5z M68.9,363
		c0-1.9,2.3-3,6.3-3c4,0,6.3,1.1,6.3,3c0,1.9-2.3,3-6.3,3C71.3,366,68.9,365,68.9,363z M71.6,363c0,0.8,1.2,1.2,3.7,1.2
		c2.5,0,3.7-0.3,3.7-1.2c0-0.8-1.2-1.1-3.7-1.1C72.7,361.9,71.6,362.2,71.6,363z"/>
	<path class="st1" d="M99.5,359.9v17.6H97v-6.5h-3.6c-0.8,1.7-2.1,2.7-3.8,2.7c-2.6,0-4.5-2.4-4.5-6.3c0-3.8,1.9-6.2,4.5-6.2
		c1.6,0,2.9,0.9,3.7,2.4H97v-3.6H99.5z M91.8,367.3c0-2.6-0.9-4-2.2-4c-1.3,0-2.1,1.4-2.1,4c0,2.6,0.9,4,2.1,4
		C90.9,371.3,91.8,369.9,91.8,367.3z M97,368.9v-3.4h-3c0.1,0.6,0.2,1.2,0.2,1.9c0,0.6,0,1.1-0.1,1.6H97z"/>
	<path class="st1" d="M105.3,371.4c1.6,0,3.1-0.1,4.8-0.4l0.2,2c-2.1,0.4-4,0.5-6.2,0.5h-1.2v-11.5h6.5v2h-4V371.4z M117.3,359.9
		v17.5H115v-8.8h-1.6v7.9h-2.3v-16.4h2.3v6.4h1.6v-6.7H117.3z"/>
	<path class="st1" d="M130.9,363.8c0,3.2,1.4,6.4,4.4,7.7l-1.4,2c-2-0.9-3.4-2.6-4.1-4.8c-0.8,2.3-2.2,4.2-4.3,5.2l-1.5-2.1
		c3.1-1.3,4.5-4.7,4.5-8.1v-2.5h2.5V363.8z M138.6,359.9v17.6h-2.5v-17.6H138.6z"/>
	<path class="st1" d="M150.5,360.9c0,4.7-2.9,7.8-8.1,9.2l-1-2c3.9-1,6-2.9,6.4-5.2h-5.5v-2H150.5z M143.7,370.8h11.7v6.6h-2.5v-4.6
		h-9.2V370.8z M157.7,366h-2.3v4h-2.5v-10.1h2.5v4.1h2.3V366z"/>
	<path class="st1" d="M162.6,371.2c3.1,0,5-0.1,7.1-0.5l0.2,2.1c-2.4,0.5-4.6,0.5-8.3,0.5h-1.5v-11.8h8.5v2h-5.9V371.2z
		 M173.6,359.9v17.6h-2.5v-17.6H173.6z"/>
	<path class="st1" d="M183,364.6c0,2.7,1.4,5.8,4.3,7.1l-1.4,2c-1.9-0.9-3.3-2.6-4.1-4.7c-0.8,2.3-2.2,4.2-4.2,5.1l-1.4-2
		c2.9-1.3,4.3-4.6,4.3-7.5v-1h-3.6v-2.1h9.6v2.1H183V364.6z M192.8,368.6h-2.5v8.8h-2.5v-17.5h2.5v6.7h2.5V368.6z"/>
	<path class="st1" d="M199.1,369.9c-2.7,0-4.8-1.9-4.8-4.4c0-2.6,2.1-4.4,4.8-4.4s4.7,1.9,4.7,4.4
		C203.8,368,201.7,369.9,199.1,369.9z M199.1,367.7c1.3,0,2.3-0.9,2.3-2.3c0-1.4-1-2.3-2.3-2.3c-1.3,0-2.3,0.8-2.3,2.3
		C196.7,366.9,197.8,367.7,199.1,367.7z M209,375.1v2h-12.1v-5.9h2.5v3.9H209z M208.6,372.5h-2.5v-12.6h2.5V372.5z"/>
	<path class="st1" d="M231.6,367.1v2h-15.8v-2h6.6v-1.6h2.5v1.6H231.6z M216.5,364.6c3.2-0.2,4.9-1.2,5.4-2.3h-4.6v-1.9h12.9v1.9
		h-4.6c0.5,1.1,2.2,2.1,5.4,2.3l-0.8,1.9c-3.3-0.3-5.5-1.4-6.4-3c-0.9,1.6-3.1,2.8-6.4,3L216.5,364.6z M220.2,375.4h10v1.9h-12.5
		v-4.6h9.6v-1h-9.6v-1.8h12.1v4.5h-9.6V375.4z"/>
	<path class="st1" d="M247.9,359.9v9.4h-2.5v-3.5h-2.8c-0.5,1.9-2.3,3.2-4.5,3.2c-2.6,0-4.6-1.7-4.6-4.2s2-4.2,4.6-4.2
		c2.2,0,4,1.3,4.5,3.1h2.8v-3.9H247.9z M240.4,364.8c0-1.3-0.9-2.1-2.2-2.1c-1.3,0-2.2,0.8-2.2,2.1c0,1.3,0.9,2.1,2.2,2.1
		C239.4,366.9,240.4,366.1,240.4,364.8z M245.5,370.1h2.5v7.1h-11.6v-7.1h2.5v1.7h6.6V370.1z M245.5,373.6h-6.6v1.6h6.6V373.6z"/>
	<path class="st1" d="M264.4,370.4c-1.9-0.6-3.2-1.9-4-3.5c-0.8,1.7-2.1,3.1-4.2,3.8l-1.3-2c2.9-0.9,4.1-3.2,4.1-5.4v-0.2h-3.4v-2
		h9.4v2h-3.4v0.2c0,2.1,1.2,4.2,4,5.1L264.4,370.4z M270.1,375.1v2h-11.9v-5.5h2.5v3.5H270.1z M267.2,364.4v-4.5h2.5v12.8h-2.5v-6.2
		h-2.7v-2H267.2z"/>
	<path class="st1" d="M279.4,363.8c0,3.2,1.4,6.4,4.4,7.7l-1.4,2c-2-0.9-3.4-2.6-4.1-4.8c-0.8,2.3-2.2,4.2-4.3,5.2l-1.5-2.1
		c3.1-1.3,4.5-4.7,4.5-8.1v-2.5h2.5V363.8z M287.1,359.9v17.6h-2.5v-17.6H287.1z"/>
	<path class="st1" d="M298.9,369.8h-8.3v-8.4h8.3V369.8z M295.1,375.1h9.4v2h-11.9v-5.7h2.5V375.1z M296.5,363.3H293v4.5h3.4V363.3z
		 M306.2,364.9v2.1h-2.3v5.7h-2.5v-12.8h2.5v5.1H306.2z"/>
	<path class="st1" d="M307.6,371.8c3.1,0,7.4,0,11.1-0.6l0.2,1.8c-3.8,0.8-7.9,0.8-10.9,0.8L307.6,371.8z M318,365.4
		c0,2.5-2.1,4.3-4.8,4.3c-2.7,0-4.8-1.8-4.8-4.3c0-2.5,2.1-4.3,4.8-4.3C315.9,361,318,362.9,318,365.4z M310.8,365.4
		c0,1.4,1,2.2,2.4,2.2c1.3,0,2.4-0.8,2.4-2.2c0-1.4-1-2.2-2.4-2.2C311.8,363.2,310.8,364,310.8,365.4z M322.1,359.9v17.6h-2.5v-17.6
		H322.1z"/>
	<path class="st1" d="M329.4,371.8c3.1,0,7.4,0,11.1-0.6l0.2,1.8c-3.8,0.8-7.9,0.8-10.9,0.8L329.4,371.8z M339.8,365.4
		c0,2.5-2.1,4.3-4.8,4.3c-2.7,0-4.8-1.8-4.8-4.3c0-2.5,2.1-4.3,4.8-4.3C337.7,361,339.8,362.9,339.8,365.4z M332.6,365.4
		c0,1.4,1,2.2,2.4,2.2c1.3,0,2.4-0.8,2.4-2.2c0-1.4-1-2.2-2.4-2.2C333.6,363.2,332.6,364,332.6,365.4z M343.9,359.9v17.6h-2.5v-17.6
		H343.9z"/>
	<path class="st1" d="M356.1,361.5v11.8h-8.4v-11.8H356.1z M350.1,363.4v7.8h3.5v-7.8H350.1z M361.3,359.9v17.5h-2.5v-17.5H361.3z"
		/>
	<path class="st1" d="M380.1,367.8v1.8h-15.8v-1.8H380.1z M368.6,375.5h10.1v1.7h-12.6V373h9.7v-0.9h-9.7v-1.7h12.2v4.2h-9.7V375.5z
		 M375.7,361.9h-9.5v-1.7h12v4.1h-9.5v0.9h9.8v1.7h-12.2v-4.2h9.5V361.9z"/>
	<path class="st1" d="M395.1,360.9c0,4.7-2.9,7.7-8.2,8.9l-0.9-2c4-0.9,6-2.8,6.3-4.9h-5.5v-2H395.1z M395.6,372.3
		c0.3,1.4,2,2.8,5.2,3.2l-0.9,1.9c-2.8-0.4-4.7-1.5-5.7-3c-1,1.5-2.9,2.5-5.7,2.9l-0.9-1.9c3.3-0.4,4.9-1.8,5.2-3.2h-4.5v-2h11.7v2
		H395.6z M402.2,363.9v2.1h-2.3v3.6h-2.5v-9.7h2.5v4H402.2z"/>
	<path class="st1" d="M419.4,368.4v2h-15.8v-2H419.4z M407.9,375h9.9v2h-12.4v-5.2h2.5V375z M417.7,366.6h-12.1v-6.1h2.5v4.1h9.6
		V366.6z"/>
	<path class="st1" d="M424.2,371.1c2.5,0,4.6-0.2,6.8-0.6l0.2,2.1c-2.6,0.5-5,0.6-8.1,0.6h-1.5v-11.7h8.2v2h-5.7V371.1z
		 M437.3,368.4h-2.5v9h-2.5v-17.5h2.5v6.5h2.5V368.4z"/>
	<path class="st1" d="M439.1,374.2c0-1,0.7-1.8,1.7-1.8c1,0,1.7,0.8,1.7,1.8c0,1-0.7,1.8-1.7,1.8C439.8,376,439.1,375.2,439.1,374.2
		z"/>
</g>
</svg>
