<?xml version="1.0" encoding="utf-8"?>
<!-- Generator: Adobe Illustrator 21.0.0, SVG Export Plug-In . SVG Version: 6.00 Build 0)  -->
<svg version="1.1" id="레이어_1" xmlns="http://www.w3.org/2000/svg" xmlns:xlink="http://www.w3.org/1999/xlink" x="0px"
	 y="0px" viewBox="0 0 510 206.7" style="enable-background:new 0 0 510 206.7;" xml:space="preserve">
<style type="text/css">
	.st0{enable-background:new    ;}
	.st1{fill:#080808;}
</style>
<g class="st0">
	<path class="st1" d="M1.9,7.7h4.4v1.5H4v15.5h2.3v1.5H1.9V7.7z"/>
	<path class="st1" d="M7.7,21.3L9,19.5c0.8,0.8,1.9,1.4,3.1,1.4c1.4,0,2.4-0.7,2.4-2c0-1.4-0.8-2.2-3.9-2.2v-2
		c2.6,0,3.4-0.9,3.4-2.1c0-1.1-0.7-1.7-1.9-1.8c-1,0-1.8,0.5-2.7,1.3l-1.4-1.7c1.2-1.1,2.6-1.7,4.2-1.7c2.7,0,4.6,1.3,4.6,3.7
		c0,1.5-0.9,2.6-2.4,3.2v0.1c1.6,0.4,2.8,1.6,2.8,3.5c0,2.6-2.3,4.1-4.9,4.1C10.2,23.3,8.7,22.4,7.7,21.3z"/>
	<path class="st1" d="M27.1,11.9c-0.5-0.6-1.3-1-2.2-1c-1.6,0-2.9,1.2-3.1,4.7c0.8-0.9,2-1.5,2.9-1.5c2.4,0,4,1.4,4,4.4
		c0,2.9-2,4.7-4.4,4.7c-2.7,0-5.1-2.1-5.1-7.1c0-5.2,2.6-7.5,5.4-7.5c1.7,0,3,0.7,3.8,1.6L27.1,11.9z M26.2,18.6
		c0-1.7-0.8-2.5-2-2.5c-0.8,0-1.6,0.4-2.3,1.5c0.3,2.6,1.2,3.6,2.4,3.6C25.4,21.2,26.2,20.3,26.2,18.6z"/>
	<path class="st1" d="M30.9,21.4c0-1,0.7-1.8,1.7-1.8c1,0,1.7,0.8,1.7,1.8c0,1-0.7,1.8-1.7,1.8C31.7,23.3,30.9,22.5,30.9,21.4z"/>
	<path class="st1" d="M36.6,19.5c0-1.8,1.1-3,2.4-3.7v-0.1c-1.1-0.8-1.9-1.8-1.9-3.3c0-2.3,1.8-3.7,4.2-3.7c2.5,0,4.1,1.5,4.1,3.7
		c0,1.4-0.9,2.5-1.8,3.2v0.1c1.3,0.7,2.4,1.8,2.4,3.8c0,2.1-1.9,3.8-4.7,3.8C38.6,23.3,36.6,21.7,36.6,19.5z M43.5,19.4
		c0-1.5-1.3-2.1-3.1-2.8c-0.8,0.6-1.3,1.6-1.3,2.6c0,1.3,1,2.1,2.4,2.1C42.6,21.3,43.5,20.6,43.5,19.4z M43.2,12.6
		c0-1.1-0.7-2-1.9-2c-0.9,0-1.7,0.6-1.7,1.7c0,1.3,1.1,2,2.6,2.6C42.9,14.2,43.2,13.4,43.2,12.6z"/>
	<path class="st1" d="M48.3,21.4c0-1,0.7-1.8,1.7-1.8c1,0,1.7,0.8,1.7,1.8c0,1-0.7,1.8-1.7,1.8C49,23.3,48.3,22.5,48.3,21.4z"/>
	<path class="st1" d="M53.6,21.3l1.3-1.8c0.8,0.8,1.8,1.4,3.1,1.4c1.5,0,2.5-0.9,2.5-2.6c0-1.6-1-2.5-2.4-2.5
		c-0.8,0-1.3,0.2-2.1,0.7l-1.3-0.8l0.4-6.8h7.5v2.3h-5.1l-0.3,3c0.6-0.3,1-0.4,1.7-0.4c2.4,0,4.3,1.4,4.3,4.5c0,3.1-2.3,4.9-4.9,4.9
		C56.1,23.3,54.6,22.4,53.6,21.3z"/>
	<path class="st1" d="M65.1,15.9c0-4.9,1.9-7.2,4.8-7.2c2.8,0,4.7,2.4,4.7,7.2s-1.9,7.4-4.7,7.4C67,23.3,65.1,20.8,65.1,15.9z
		 M72,15.9c0-3.9-0.9-5.1-2.1-5.1c-1.2,0-2.1,1.1-2.1,5.1c0,4,0.9,5.2,2.1,5.2C71.1,21.1,72,19.9,72,15.9z"/>
	<path class="st1" d="M76.8,21.4c0-1,0.7-1.8,1.7-1.8c1,0,1.7,0.8,1.7,1.8c0,1-0.7,1.8-1.7,1.8C77.6,23.3,76.8,22.5,76.8,21.4z"/>
	<path class="st1" d="M90.4,11.9c-0.5-0.6-1.3-1-2.2-1c-1.6,0-2.9,1.2-3.1,4.7c0.8-0.9,2-1.5,2.9-1.5c2.4,0,4,1.4,4,4.4
		c0,2.9-2,4.7-4.4,4.7c-2.7,0-5.1-2.1-5.1-7.1c0-5.2,2.6-7.5,5.4-7.5c1.7,0,3,0.7,3.8,1.6L90.4,11.9z M89.5,18.6
		c0-1.7-0.8-2.5-2-2.5c-0.8,0-1.6,0.4-2.3,1.5c0.3,2.6,1.2,3.6,2.4,3.6C88.7,21.2,89.5,20.3,89.5,18.6z"/>
	<path class="st1" d="M100.1,11.3h-6.3V8.9h9.3v1.7c-3.3,4-3.7,6.9-3.9,12.4h-2.8C96.6,18.1,97.4,15,100.1,11.3z"/>
	<path class="st1" d="M105,24.8h2.3V9.2H105V7.7h4.4v18.5H105V24.8z"/>
	<path class="st1" d="M116.8,9.1c0-0.9,0.7-1.5,1.7-1.5c1,0,1.7,0.6,1.7,1.5c0,0.9-0.7,1.5-1.7,1.5C117.5,10.7,116.8,10,116.8,9.1z
		 M117,12.4h2.8V23H117V12.4z"/>
	<path class="st1" d="M121.8,21.8l1.3-1.7c1,0.7,1.9,1.2,2.8,1.2c1.1,0,1.5-0.5,1.5-1.1c0-0.8-1.1-1.2-2.2-1.6
		c-1.3-0.5-2.9-1.3-2.9-3.1c0-1.9,1.6-3.3,4-3.3c1.6,0,2.7,0.6,3.6,1.3l-1.3,1.7c-0.8-0.5-1.5-0.9-2.3-0.9c-1,0-1.4,0.4-1.4,1
		c0,0.8,1,1.1,2.2,1.5c1.4,0.5,3,1.2,3,3.2c0,1.9-1.5,3.4-4.2,3.4C124.4,23.3,122.9,22.6,121.8,21.8z"/>
	<path class="st1" d="M135.5,21.3l1.3-1.8c0.8,0.8,1.9,1.4,3.1,1.4c1.4,0,2.4-0.7,2.4-2c0-1.4-0.8-2.2-3.9-2.2v-2
		c2.6,0,3.4-0.9,3.4-2.1c0-1.1-0.7-1.7-1.9-1.8c-1,0-1.8,0.5-2.7,1.3l-1.4-1.7c1.2-1.1,2.6-1.7,4.2-1.7c2.7,0,4.6,1.3,4.6,3.7
		c0,1.5-0.9,2.6-2.4,3.2v0.1c1.6,0.4,2.8,1.6,2.8,3.5c0,2.6-2.3,4.1-4.9,4.1C138,23.3,136.5,22.4,135.5,21.3z"/>
	<path class="st1" d="M154.9,11.9c-0.5-0.6-1.3-1-2.2-1c-1.6,0-2.9,1.2-3.1,4.7c0.8-0.9,2-1.5,2.9-1.5c2.4,0,4,1.4,4,4.4
		c0,2.9-2,4.7-4.4,4.7c-2.7,0-5.1-2.1-5.1-7.1c0-5.2,2.6-7.5,5.4-7.5c1.7,0,3,0.7,3.8,1.6L154.9,11.9z M154.1,18.6
		c0-1.7-0.8-2.5-2-2.5c-0.8,0-1.6,0.4-2.3,1.5c0.3,2.6,1.2,3.6,2.4,3.6C153.2,21.2,154.1,20.3,154.1,18.6z"/>
	<path class="st1" d="M163.6,19.3v-4.7h-1.5v-2.1l1.6-0.1l0.3-2.8h2.3v2.8h2.6v2.2h-2.6v4.7c0,1.2,0.5,1.8,1.4,1.8
		c0.3,0,0.8-0.1,1-0.2l0.5,2c-0.6,0.2-1.3,0.4-2.2,0.4C164.6,23.3,163.6,21.7,163.6,19.3z"/>
	<path class="st1" d="M170.9,9.1c0-0.9,0.7-1.5,1.7-1.5c1,0,1.7,0.6,1.7,1.5c0,0.9-0.7,1.5-1.7,1.5C171.6,10.7,170.9,10,170.9,9.1z
		 M171.2,12.4h2.8V23h-2.8V12.4z"/>
	<path class="st1" d="M177,12.4h2.3l0.2,1.4h0.1c0.9-0.9,1.9-1.7,3.3-1.7c1.5,0,2.4,0.7,2.9,1.9c1-1,2-1.9,3.4-1.9
		c2.3,0,3.3,1.6,3.3,4.3V23h-2.8v-6.3c0-1.6-0.5-2.2-1.5-2.2c-0.6,0-1.3,0.4-2.1,1.2V23h-2.8v-6.3c0-1.6-0.5-2.2-1.5-2.2
		c-0.6,0-1.3,0.4-2.1,1.2V23H177V12.4z"/>
	<path class="st1" d="M194.6,17.7c0-3.5,2.4-5.6,5-5.6c2.9,0,4.4,2.1,4.4,5.1c0,0.5-0.1,1-0.1,1.3h-6.6c0.2,1.7,1.4,2.7,2.9,2.7
		c0.9,0,1.6-0.3,2.4-0.7l1,1.7c-1,0.7-2.4,1.2-3.7,1.2C196.9,23.3,194.6,21.2,194.6,17.7z M201.6,16.6c0-1.4-0.6-2.4-2-2.4
		c-1.1,0-2.1,0.8-2.3,2.4H201.6z"/>
	<path class="st1" d="M205.3,21.8l1.3-1.7c1,0.7,1.9,1.2,2.8,1.2c1.1,0,1.5-0.5,1.5-1.1c0-0.8-1.1-1.2-2.2-1.6
		c-1.3-0.5-2.9-1.3-2.9-3.1c0-1.9,1.6-3.3,4-3.3c1.6,0,2.7,0.6,3.6,1.3l-1.3,1.7c-0.8-0.5-1.5-0.9-2.3-0.9c-1,0-1.4,0.4-1.4,1
		c0,0.8,1,1.1,2.2,1.5c1.4,0.5,3,1.2,3,3.2c0,1.9-1.5,3.4-4.2,3.4C208,23.3,206.4,22.6,205.3,21.8z"/>
	<path class="st1" d="M215.2,25.5c1.5-0.6,2.3-1.5,2.3-2.6c-0.1,0-0.1,0-0.2,0c-0.9,0-1.7-0.6-1.7-1.7c0-1,0.8-1.7,1.8-1.7
		c1.3,0,2,1,2,2.8c0,2.2-1.3,3.9-3.6,4.7L215.2,25.5z"/>
	<path class="st1" d="M225.6,17.7c0-3.5,2.4-5.6,5-5.6c2.9,0,4.4,2.1,4.4,5.1c0,0.5-0.1,1-0.1,1.3h-6.6c0.2,1.7,1.4,2.7,2.9,2.7
		c0.9,0,1.6-0.3,2.4-0.7l1,1.7c-1,0.7-2.4,1.2-3.7,1.2C227.9,23.3,225.6,21.2,225.6,17.7z M232.6,16.6c0-1.4-0.6-2.4-2-2.4
		c-1.1,0-2.1,0.8-2.3,2.4H232.6z"/>
	<path class="st1" d="M237,9.1c0-0.9,0.7-1.5,1.7-1.5c1,0,1.7,0.6,1.7,1.5c0,0.9-0.7,1.5-1.7,1.5C237.7,10.7,237,10,237,9.1z
		 M237.3,12.4h2.8V23h-2.8V12.4z"/>
	<path class="st1" d="M242.3,24.9c0-0.9,0.6-1.7,1.5-2.2v-0.1c-0.6-0.4-1-0.9-1-1.8c0-0.8,0.6-1.5,1.2-2v-0.1
		c-0.7-0.5-1.4-1.5-1.4-2.8c0-2.5,2-3.9,4.3-3.9c0.6,0,1.2,0.1,1.6,0.3h3.8v2.1h-1.8c0.3,0.4,0.5,1,0.5,1.6c0,2.4-1.8,3.6-4.1,3.6
		c-0.4,0-0.9-0.1-1.4-0.2c-0.3,0.2-0.5,0.5-0.5,0.9c0,0.6,0.4,0.9,1.7,0.9h1.8c2.6,0,4,0.8,4,2.7c0,2.1-2.2,3.8-5.8,3.8
		C244.3,27.6,242.3,26.8,242.3,24.9z M249.9,24.3c0-0.8-0.6-0.9-1.8-0.9h-1.3c-0.6,0-1.1-0.1-1.5-0.2c-0.5,0.4-0.7,0.8-0.7,1.2
		c0,0.9,1,1.4,2.5,1.4C248.8,25.8,249.9,25.1,249.9,24.3z M248.6,16c0-1.3-0.7-2-1.7-2s-1.7,0.7-1.7,2s0.7,2,1.7,2
		S248.6,17.2,248.6,16z"/>
	<path class="st1" d="M254.4,7.8h2.8v3.8l-0.1,2c0.9-0.8,1.9-1.6,3.3-1.6c2.3,0,3.3,1.6,3.3,4.3V23h-2.8v-6.3c0-1.6-0.5-2.2-1.5-2.2
		c-0.9,0-1.4,0.4-2.2,1.2V23h-2.8V7.8z"/>
	<path class="st1" d="M266.9,19.3v-4.7h-1.5v-2.1l1.6-0.1l0.3-2.8h2.3v2.8h2.6v2.2h-2.6v4.7c0,1.2,0.5,1.8,1.4,1.8
		c0.3,0,0.8-0.1,1-0.2l0.5,2c-0.6,0.2-1.3,0.4-2.2,0.4C267.9,23.3,266.9,21.7,266.9,19.3z"/>
	<path class="st1" d="M278.8,12.4h2.3l0.2,1.1h0.1c0.9-0.8,2-1.4,3.1-1.4c2.6,0,4.2,2.1,4.2,5.4c0,3.6-2.2,5.8-4.5,5.8
		c-0.9,0-1.8-0.4-2.6-1.2l0.1,1.7v3.2h-2.8V12.4z M285.8,17.5c0-2-0.6-3.2-2.1-3.2c-0.7,0-1.4,0.4-2.1,1.1v4.7
		c0.7,0.6,1.4,0.8,1.9,0.8C284.8,21,285.8,19.9,285.8,17.5z"/>
	<path class="st1" d="M290.4,17.7c0-3.5,2.4-5.6,5-5.6c2.9,0,4.4,2.1,4.4,5.1c0,0.5-0.1,1-0.1,1.3h-6.6c0.2,1.7,1.4,2.7,2.9,2.7
		c0.9,0,1.6-0.3,2.4-0.7l1,1.7c-1,0.7-2.4,1.2-3.7,1.2C292.7,23.3,290.4,21.2,290.4,17.7z M297.4,16.6c0-1.4-0.6-2.4-2-2.4
		c-1.1,0-2.1,0.8-2.3,2.4H297.4z"/>
	<path class="st1" d="M302.1,12.4h2.3l0.2,1.9h0.1c0.8-1.4,1.9-2.1,3-2.1c0.6,0,0.9,0.1,1.3,0.2l-0.5,2.4c-0.4-0.1-0.7-0.2-1.1-0.2
		c-0.8,0-1.8,0.6-2.5,2.1V23h-2.8V12.4z"/>
	<path class="st1" d="M309.2,21.8l1.3-1.7c1,0.7,1.9,1.2,2.8,1.2c1.1,0,1.5-0.5,1.5-1.1c0-0.8-1.1-1.2-2.2-1.6
		c-1.3-0.5-2.9-1.3-2.9-3.1c0-1.9,1.6-3.3,4-3.3c1.6,0,2.7,0.6,3.6,1.3l-1.3,1.7c-0.8-0.5-1.5-0.9-2.3-0.9c-1,0-1.4,0.4-1.4,1
		c0,0.8,1,1.1,2.2,1.5c1.4,0.5,3,1.2,3,3.2c0,1.9-1.5,3.4-4.2,3.4C311.9,23.3,310.3,22.6,309.2,21.8z"/>
	<path class="st1" d="M319,17.7c0-3.6,2.5-5.6,5.1-5.6c2.7,0,5.1,2.1,5.1,5.6c0,3.5-2.5,5.6-5.1,5.6C321.4,23.3,319,21.2,319,17.7z
		 M326.4,17.7c0-2-0.8-3.3-2.3-3.3c-1.4,0-2.3,1.3-2.3,3.3c0,2,0.8,3.3,2.3,3.3C325.5,21,326.4,19.7,326.4,17.7z"/>
	<path class="st1" d="M331.5,12.4h2.3l0.2,1.4h0.1c0.9-0.9,2-1.7,3.5-1.7c2.3,0,3.3,1.6,3.3,4.3V23H338v-6.3c0-1.6-0.5-2.2-1.5-2.2
		c-0.9,0-1.4,0.4-2.2,1.2V23h-2.8V12.4z"/>
	<path class="st1" d="M343.2,20.1c0-2.3,1.8-3.5,6.1-3.9c0-1-0.5-1.8-1.8-1.8c-1,0-1.9,0.4-2.9,1l-1-1.8c1.3-0.8,2.8-1.4,4.4-1.4
		c2.7,0,4.1,1.6,4.1,4.7V23h-2.3l-0.2-1.1h-0.1c-0.9,0.8-2,1.4-3.2,1.4C344.4,23.3,343.2,21.9,343.2,20.1z M349.3,20v-2.1
		c-2.6,0.3-3.5,1-3.5,2c0,0.8,0.6,1.2,1.4,1.2C348.1,21.1,348.6,20.7,349.3,20z"/>
	<path class="st1" d="M355,20V7.8h2.8v12.3c0,0.6,0.3,0.8,0.6,0.8c0.1,0,0.2,0,0.4,0L359,23c-0.3,0.1-0.8,0.2-1.4,0.2
		C355.6,23.3,355,22,355,20z"/>
	<path class="st1" d="M365.6,19.3v-4.7h-1.5v-2.1l1.6-0.1l0.3-2.8h2.3v2.8h2.6v2.2h-2.6v4.7c0,1.2,0.5,1.8,1.4,1.8
		c0.3,0,0.8-0.1,1-0.2l0.5,2c-0.6,0.2-1.3,0.4-2.2,0.4C366.6,23.3,365.6,21.7,365.6,19.3z"/>
	<path class="st1" d="M372.2,17.7c0-3.5,2.4-5.6,5-5.6c2.9,0,4.4,2.1,4.4,5.1c0,0.5-0.1,1-0.1,1.3h-6.6c0.2,1.7,1.4,2.7,2.9,2.7
		c0.9,0,1.6-0.3,2.4-0.7l1,1.7c-1,0.7-2.4,1.2-3.7,1.2C374.5,23.3,372.2,21.2,372.2,17.7z M379.2,16.6c0-1.4-0.6-2.4-2-2.4
		c-1.1,0-2.1,0.8-2.3,2.4H379.2z"/>
	<path class="st1" d="M383.1,20.1c0-2.3,1.8-3.5,6.1-3.9c0-1-0.5-1.8-1.8-1.8c-1,0-1.9,0.4-2.9,1l-1-1.8c1.3-0.8,2.8-1.4,4.4-1.4
		c2.7,0,4.1,1.6,4.1,4.7V23h-2.3l-0.2-1.1h-0.1c-0.9,0.8-2,1.4-3.2,1.4C384.4,23.3,383.1,21.9,383.1,20.1z M389.2,20v-2.1
		c-2.6,0.3-3.5,1-3.5,2c0,0.8,0.6,1.2,1.4,1.2C388,21.1,388.6,20.7,389.2,20z"/>
	<path class="st1" d="M394.9,12.4h2.3l0.2,1.4h0.1c0.9-0.9,1.9-1.7,3.3-1.7c1.5,0,2.4,0.7,2.9,1.9c1-1,2-1.9,3.4-1.9
		c2.3,0,3.3,1.6,3.3,4.3V23h-2.8v-6.3c0-1.6-0.5-2.2-1.5-2.2c-0.6,0-1.3,0.4-2.1,1.2V23h-2.8v-6.3c0-1.6-0.5-2.2-1.5-2.2
		c-0.6,0-1.3,0.4-2.1,1.2V23h-2.8V12.4z"/>
	<path class="st1" d="M412.7,25.5c1.5-0.6,2.3-1.5,2.3-2.6c-0.1,0-0.1,0-0.2,0c-0.9,0-1.7-0.6-1.7-1.7c0-1,0.8-1.7,1.8-1.7
		c1.3,0,2,1,2,2.8c0,2.2-1.3,3.9-3.6,4.7L412.7,25.5z"/>
	<path class="st1" d="M424.1,19.3v-4.7h-1.5v-2.1l1.6-0.1l0.3-2.8h2.3v2.8h2.6v2.2h-2.6v4.7c0,1.2,0.5,1.8,1.4,1.8
		c0.3,0,0.8-0.1,1-0.2l0.5,2c-0.6,0.2-1.3,0.4-2.2,0.4C425,23.3,424.1,21.7,424.1,19.3z"/>
	<path class="st1" d="M431.7,7.8h2.8v3.8l-0.1,2c0.9-0.8,1.9-1.6,3.3-1.6c2.3,0,3.3,1.6,3.3,4.3V23h-2.8v-6.3c0-1.6-0.5-2.2-1.5-2.2
		c-0.9,0-1.4,0.4-2.2,1.2V23h-2.8V7.8z"/>
	<path class="st1" d="M443.1,17.7c0-3.5,2.4-5.6,5-5.6c2.9,0,4.4,2.1,4.4,5.1c0,0.5-0.1,1-0.1,1.3h-6.6c0.2,1.7,1.4,2.7,2.9,2.7
		c0.9,0,1.6-0.3,2.4-0.7l1,1.7c-1,0.7-2.4,1.2-3.7,1.2C445.5,23.3,443.1,21.2,443.1,17.7z M450.2,16.6c0-1.4-0.6-2.4-2-2.4
		c-1.1,0-2.1,0.8-2.3,2.4H450.2z"/>
	<path class="st1" d="M458.2,21.3l1.3-1.8c0.8,0.8,1.8,1.4,3.1,1.4c1.5,0,2.5-0.9,2.5-2.6c0-1.6-1-2.5-2.4-2.5
		c-0.8,0-1.3,0.2-2.1,0.7l-1.3-0.8l0.4-6.8h7.5v2.3h-5.1l-0.3,3c0.6-0.3,1-0.4,1.7-0.4c2.4,0,4.3,1.4,4.3,4.5c0,3.1-2.3,4.9-4.9,4.9
		C460.7,23.3,459.2,22.4,458.2,21.3z"/>
	<path class="st1" d="M469.7,15.9c0-4.9,1.9-7.2,4.8-7.2c2.8,0,4.7,2.4,4.7,7.2s-1.9,7.4-4.7,7.4C471.6,23.3,469.7,20.8,469.7,15.9z
		 M476.6,15.9c0-3.9-0.9-5.1-2.1-5.1c-1.2,0-2.1,1.1-2.1,5.1c0,4,0.9,5.2,2.1,5.2C475.7,21.1,476.6,19.9,476.6,15.9z"/>
</g>
<g class="st0">
	<path class="st1" d="M5.5,39.1c0-0.9,0.7-1.5,1.7-1.5c0.9,0,1.7,0.6,1.7,1.5c0,0.9-0.7,1.5-1.7,1.5C6.3,40.7,5.5,40,5.5,39.1z
		 M5.8,42.4h2.8V53H5.8V42.4z"/>
	<path class="st1" d="M11.6,42.4h2.3l0.2,1.4h0.1c0.9-0.9,2-1.7,3.5-1.7c2.3,0,3.3,1.6,3.3,4.3V53h-2.8v-6.3c0-1.6-0.5-2.2-1.5-2.2
		c-0.9,0-1.4,0.4-2.2,1.2V53h-2.8V42.4z"/>
	<path class="st1" d="M23.2,47.7c0-3.5,2.2-5.6,4.5-5.6c1.2,0,1.9,0.5,2.7,1.2l-0.1-1.7v-3.7H33V53h-2.3l-0.2-1.1h-0.1
		c-0.8,0.8-1.8,1.4-2.9,1.4C24.9,53.3,23.2,51.2,23.2,47.7z M30.2,49.9v-4.7c-0.6-0.6-1.3-0.8-2-0.8c-1.2,0-2.2,1.1-2.2,3.3
		c0,2.2,0.8,3.3,2.2,3.3C29,51,29.6,50.7,30.2,49.9z"/>
	<path class="st1" d="M35.7,39.1c0-0.9,0.7-1.5,1.7-1.5c0.9,0,1.7,0.6,1.7,1.5c0,0.9-0.7,1.5-1.7,1.5C36.4,40.7,35.7,40,35.7,39.1z
		 M36,42.4h2.8V53H36V42.4z"/>
	<path class="st1" d="M40.5,42.4h2.8l1.6,5.3c0.3,1,0.6,2.1,0.9,3.2h0.1c0.3-1.1,0.6-2.2,0.9-3.2l1.6-5.3H51L47.4,53h-3.2L40.5,42.4
		z"/>
	<path class="st1" d="M52.5,39.1c0-0.9,0.7-1.5,1.7-1.5c1,0,1.7,0.6,1.7,1.5c0,0.9-0.7,1.5-1.7,1.5C53.2,40.7,52.5,40,52.5,39.1z
		 M52.7,42.4h2.8V53h-2.8V42.4z"/>
	<path class="st1" d="M57.9,47.7c0-3.5,2.2-5.6,4.5-5.6c1.2,0,1.9,0.5,2.7,1.2l-0.1-1.7v-3.7h2.8V53h-2.3l-0.2-1.1h-0.1
		c-0.8,0.8-1.8,1.4-2.9,1.4C59.6,53.3,57.9,51.2,57.9,47.7z M64.9,49.9v-4.7c-0.6-0.6-1.3-0.8-2-0.8c-1.2,0-2.2,1.1-2.2,3.3
		c0,2.2,0.8,3.3,2.2,3.3C63.7,51,64.3,50.7,64.9,49.9z"/>
	<path class="st1" d="M70.6,49v-6.6h2.8v6.3c0,1.7,0.5,2.2,1.5,2.2c0.9,0,1.4-0.4,2.2-1.3v-7.2h2.8V53h-2.3l-0.2-1.5h-0.1
		c-0.9,1.1-1.9,1.8-3.4,1.8C71.6,53.3,70.6,51.7,70.6,49z"/>
	<path class="st1" d="M82.3,50.1c0-2.3,1.8-3.5,6.1-3.9c0-1-0.5-1.8-1.8-1.8c-1,0-1.9,0.4-2.9,1l-1-1.8c1.3-0.8,2.8-1.4,4.4-1.4
		c2.7,0,4.1,1.6,4.1,4.7V53h-2.3l-0.2-1.1h-0.1c-0.9,0.8-2,1.4-3.2,1.4C83.6,53.3,82.3,51.9,82.3,50.1z M88.4,50v-2.1
		c-2.6,0.3-3.5,1-3.5,2c0,0.8,0.6,1.2,1.4,1.2C87.2,51.1,87.8,50.7,88.4,50z"/>
	<path class="st1" d="M94.1,50V37.8h2.8v12.3c0,0.6,0.3,0.8,0.6,0.8c0.1,0,0.2,0,0.4,0l0.3,2.1c-0.3,0.1-0.8,0.2-1.4,0.2
		C94.8,53.3,94.1,52,94.1,50z"/>
	<path class="st1" d="M99,51.8l1.3-1.7c1,0.7,1.9,1.2,2.8,1.2c1.1,0,1.5-0.5,1.5-1.1c0-0.8-1.1-1.2-2.2-1.6
		c-1.3-0.5-2.9-1.3-2.9-3.1c0-1.9,1.6-3.3,4-3.3c1.6,0,2.7,0.6,3.6,1.3l-1.3,1.7c-0.8-0.5-1.5-0.9-2.3-0.9c-1,0-1.4,0.4-1.4,1
		c0,0.8,1,1.1,2.2,1.5c1.4,0.5,3,1.2,3,3.2c0,1.9-1.5,3.4-4.2,3.4C101.7,53.3,100.1,52.6,99,51.8z"/>
	<path class="st1" d="M113.2,50.1c0-2.3,1.8-3.5,6.1-3.9c0-1-0.5-1.8-1.8-1.8c-1,0-1.9,0.4-2.9,1l-1-1.8c1.3-0.8,2.8-1.4,4.4-1.4
		c2.7,0,4.1,1.6,4.1,4.7V53h-2.3l-0.2-1.1h-0.1c-0.9,0.8-2,1.4-3.2,1.4C114.5,53.3,113.2,51.9,113.2,50.1z M119.4,50v-2.1
		c-2.6,0.3-3.5,1-3.5,2c0,0.8,0.6,1.2,1.4,1.2C118.1,51.1,118.7,50.7,119.4,50z"/>
	<path class="st1" d="M125,42.4h2.3l0.2,1.4h0.1c0.9-0.9,2-1.7,3.5-1.7c2.3,0,3.3,1.6,3.3,4.3V53h-2.8v-6.3c0-1.6-0.5-2.2-1.5-2.2
		c-0.9,0-1.4,0.4-2.2,1.2V53H125V42.4z"/>
	<path class="st1" d="M136.6,47.7c0-3.5,2.2-5.6,4.5-5.6c1.2,0,1.9,0.5,2.7,1.2l-0.1-1.7v-3.7h2.8V53h-2.3l-0.2-1.1h-0.1
		c-0.8,0.8-1.8,1.4-2.9,1.4C138.3,53.3,136.6,51.2,136.6,47.7z M143.6,49.9v-4.7c-0.6-0.6-1.3-0.8-2-0.8c-1.2,0-2.2,1.1-2.2,3.3
		c0,2.2,0.8,3.3,2.2,3.3C142.4,51,143,50.7,143.6,49.9z"/>
	<path class="st1" d="M160.9,41.9c-0.5-0.6-1.3-1-2.2-1c-1.6,0-2.9,1.2-3.1,4.7c0.8-0.9,2-1.5,2.9-1.5c2.4,0,4,1.4,4,4.4
		c0,2.9-2,4.7-4.4,4.7c-2.7,0-5.1-2.1-5.1-7.1c0-5.2,2.6-7.5,5.4-7.5c1.7,0,3,0.7,3.8,1.6L160.9,41.9z M160.1,48.6
		c0-1.7-0.8-2.5-2-2.5c-0.8,0-1.6,0.4-2.3,1.5c0.3,2.6,1.2,3.6,2.4,3.6C159.2,51.2,160.1,50.3,160.1,48.6z"/>
	<path class="st1" d="M170.7,41.3h-6.3v-2.3h9.3v1.7c-3.3,4-3.7,6.9-3.9,12.4h-2.8C167.2,48.1,168,45,170.7,41.3z"/>
	<path class="st1" d="M179.4,51.8l1.3-1.7c1,0.7,1.9,1.2,2.8,1.2c1.1,0,1.5-0.5,1.5-1.1c0-0.8-1.1-1.2-2.2-1.6
		c-1.3-0.5-2.9-1.3-2.9-3.1c0-1.9,1.6-3.3,4-3.3c1.6,0,2.7,0.6,3.6,1.3l-1.3,1.7c-0.8-0.5-1.5-0.9-2.3-0.9c-1,0-1.4,0.4-1.4,1
		c0,0.8,1,1.1,2.2,1.5c1.4,0.5,3,1.2,3,3.2c0,1.9-1.5,3.4-4.2,3.4C182,53.3,180.5,52.6,179.4,51.8z"/>
	<path class="st1" d="M189.8,37.8h2.8v3.8l-0.1,2c0.9-0.8,1.9-1.6,3.3-1.6c2.3,0,3.3,1.6,3.3,4.3V53h-2.8v-6.3
		c0-1.6-0.5-2.2-1.5-2.2c-0.9,0-1.4,0.4-2.2,1.2V53h-2.8V37.8z"/>
	<path class="st1" d="M201.5,50.1c0-2.3,1.8-3.5,6.1-3.9c0-1-0.5-1.8-1.8-1.8c-1,0-1.9,0.4-2.9,1l-1-1.8c1.3-0.8,2.8-1.4,4.4-1.4
		c2.7,0,4.1,1.6,4.1,4.7V53h-2.3l-0.2-1.1h-0.1c-0.9,0.8-2,1.4-3.2,1.4C202.7,53.3,201.5,51.9,201.5,50.1z M207.6,50v-2.1
		c-2.6,0.3-3.5,1-3.5,2c0,0.8,0.6,1.2,1.4,1.2C206.3,51.1,206.9,50.7,207.6,50z"/>
	<path class="st1" d="M213.2,50V37.8h2.8v12.3c0,0.6,0.3,0.8,0.6,0.8c0.1,0,0.2,0,0.4,0l0.3,2.1c-0.3,0.1-0.8,0.2-1.4,0.2
		C213.9,53.3,213.2,52,213.2,50z"/>
	<path class="st1" d="M219.2,50V37.8h2.8v12.3c0,0.6,0.3,0.8,0.6,0.8c0.1,0,0.2,0,0.4,0l0.3,2.1c-0.3,0.1-0.8,0.2-1.4,0.2
		C219.9,53.3,219.2,52,219.2,50z"/>
	<path class="st1" d="M229.5,42.4h2.3l0.2,1.4h0.1c0.9-0.9,1.9-1.7,3.3-1.7c1.5,0,2.4,0.7,2.9,1.9c1-1,2-1.9,3.4-1.9
		c2.3,0,3.3,1.6,3.3,4.3V53h-2.8v-6.3c0-1.6-0.5-2.2-1.5-2.2c-0.6,0-1.3,0.4-2.1,1.2V53h-2.8v-6.3c0-1.6-0.5-2.2-1.5-2.2
		c-0.6,0-1.3,0.4-2.1,1.2V53h-2.8V42.4z"/>
	<path class="st1" d="M247.1,47.7c0-3.5,2.4-5.6,5-5.6c2.9,0,4.4,2.1,4.4,5.1c0,0.5-0.1,1-0.1,1.3h-6.6c0.2,1.7,1.4,2.7,2.9,2.7
		c0.9,0,1.6-0.3,2.4-0.7l1,1.7c-1,0.7-2.4,1.2-3.7,1.2C249.5,53.3,247.1,51.2,247.1,47.7z M254.2,46.6c0-1.4-0.6-2.4-2-2.4
		c-1.1,0-2.1,0.8-2.3,2.4H254.2z"/>
	<path class="st1" d="M258.1,50.1c0-2.3,1.8-3.5,6.1-3.9c0-1-0.5-1.8-1.8-1.8c-1,0-1.9,0.4-2.9,1l-1-1.8c1.3-0.8,2.8-1.4,4.4-1.4
		c2.7,0,4.1,1.6,4.1,4.7V53h-2.3l-0.2-1.1h-0.1c-0.9,0.8-2,1.4-3.2,1.4C259.3,53.3,258.1,51.9,258.1,50.1z M264.2,50v-2.1
		c-2.6,0.3-3.5,1-3.5,2c0,0.8,0.6,1.2,1.4,1.2C262.9,51.1,263.5,50.7,264.2,50z"/>
	<path class="st1" d="M269.8,42.4h2.3l0.2,1.4h0.1c0.9-0.9,2-1.7,3.5-1.7c2.3,0,3.3,1.6,3.3,4.3V53h-2.8v-6.3c0-1.6-0.5-2.2-1.5-2.2
		c-0.9,0-1.4,0.4-2.2,1.2V53h-2.8V42.4z"/>
	<path class="st1" d="M286.7,49.3v-4.7h-1.5v-2.1l1.6-0.1l0.3-2.8h2.3v2.8h2.6v2.2h-2.6v4.7c0,1.2,0.5,1.8,1.4,1.8
		c0.3,0,0.8-0.1,1-0.2l0.5,2c-0.6,0.2-1.3,0.4-2.2,0.4C287.7,53.3,286.7,51.7,286.7,49.3z"/>
	<path class="st1" d="M294.3,37.8h2.8v3.8l-0.1,2c0.9-0.8,1.9-1.6,3.3-1.6c2.3,0,3.3,1.6,3.3,4.3V53h-2.8v-6.3
		c0-1.6-0.5-2.2-1.5-2.2c-0.9,0-1.4,0.4-2.2,1.2V53h-2.8V37.8z"/>
	<path class="st1" d="M305.8,47.7c0-3.5,2.4-5.6,5-5.6c2.9,0,4.4,2.1,4.4,5.1c0,0.5-0.1,1-0.1,1.3h-6.6c0.2,1.7,1.4,2.7,2.9,2.7
		c0.9,0,1.6-0.3,2.4-0.7l1,1.7c-1,0.7-2.4,1.2-3.7,1.2C308.1,53.3,305.8,51.2,305.8,47.7z M312.8,46.6c0-1.4-0.6-2.4-2-2.4
		c-1.1,0-2.1,0.8-2.3,2.4H312.8z"/>
	<path class="st1" d="M321.8,42.4h2.3l0.2,1.4h0.1c0.9-0.9,2-1.7,3.5-1.7c2.3,0,3.3,1.6,3.3,4.3V53h-2.8v-6.3c0-1.6-0.5-2.2-1.5-2.2
		c-0.9,0-1.4,0.4-2.2,1.2V53h-2.8V42.4z"/>
	<path class="st1" d="M333.9,49v-6.6h2.8v6.3c0,1.7,0.5,2.2,1.5,2.2c0.9,0,1.4-0.4,2.2-1.3v-7.2h2.8V53h-2.3l-0.2-1.5h-0.1
		c-0.9,1.1-1.9,1.8-3.4,1.8C334.8,53.3,333.9,51.7,333.9,49z"/>
	<path class="st1" d="M346.1,42.4h2.3l0.2,1.4h0.1c0.9-0.9,1.9-1.7,3.3-1.7c1.5,0,2.4,0.7,2.9,1.9c1-1,2-1.9,3.4-1.9
		c2.3,0,3.3,1.6,3.3,4.3V53h-2.8v-6.3c0-1.6-0.5-2.2-1.5-2.2c-0.6,0-1.3,0.4-2.1,1.2V53h-2.8v-6.3c0-1.6-0.5-2.2-1.5-2.2
		c-0.6,0-1.3,0.4-2.1,1.2V53h-2.8V42.4z"/>
	<path class="st1" d="M366.9,51.9L366.9,51.9l-0.3,1.1h-2.2V37.8h2.8v3.8l-0.1,1.7c0.8-0.8,1.9-1.3,2.9-1.3c2.6,0,4.2,2.1,4.2,5.4
		c0,3.7-2.2,5.8-4.5,5.8C368.8,53.3,367.8,52.8,366.9,51.9z M371.4,47.5c0-2-0.6-3.2-2.1-3.2c-0.7,0-1.4,0.4-2.1,1.1v4.7
		c0.7,0.6,1.4,0.8,1.9,0.8C370.4,51,371.4,49.9,371.4,47.5z"/>
	<path class="st1" d="M376,47.7c0-3.5,2.4-5.6,5-5.6c2.9,0,4.4,2.1,4.4,5.1c0,0.5-0.1,1-0.1,1.3h-6.6c0.2,1.7,1.4,2.7,2.9,2.7
		c0.9,0,1.6-0.3,2.4-0.7l1,1.7c-1,0.7-2.4,1.2-3.7,1.2C378.3,53.3,376,51.2,376,47.7z M383,46.6c0-1.4-0.6-2.4-2-2.4
		c-1.1,0-2.1,0.8-2.3,2.4H383z"/>
	<path class="st1" d="M387.7,42.4h2.3l0.2,1.9h0.1c0.8-1.4,1.9-2.1,3-2.1c0.6,0,0.9,0.1,1.3,0.2l-0.5,2.4c-0.4-0.1-0.7-0.2-1.1-0.2
		c-0.8,0-1.8,0.6-2.5,2.1V53h-2.8V42.4z"/>
	<path class="st1" d="M399.6,47.7c0-3.6,2.5-5.6,5.1-5.6c2.7,0,5.1,2.1,5.1,5.6c0,3.5-2.5,5.6-5.1,5.6
		C402.1,53.3,399.6,51.2,399.6,47.7z M407,47.7c0-2-0.8-3.3-2.3-3.3c-1.4,0-2.3,1.3-2.3,3.3c0,2,0.8,3.3,2.3,3.3
		C406.2,51,407,49.7,407,47.7z"/>
	<path class="st1" d="M417.7,40c-0.4-0.1-0.8-0.2-1.1-0.2c-0.8,0-1.3,0.5-1.3,1.7v0.9h2v2.2h-2V53h-2.8v-8.4h-1.4v-2.1l1.4-0.1v-0.9
		c0-2.2,1-3.9,3.7-3.9c0.8,0,1.5,0.2,2,0.4L417.7,40z"/>
	<path class="st1" d="M422.5,42.4h2.8l1.2,5.3c0.2,1,0.3,2.1,0.5,3.1h0.1c0.2-1,0.4-2.1,0.7-3.1l1.3-5.3h2.5l1.3,5.3
		c0.2,1,0.4,2.1,0.7,3.1h0.1c0.2-1,0.3-2.1,0.5-3.1l1.2-5.3h2.6L435.2,53h-3.3l-1.1-4.6c-0.2-1-0.4-2-0.6-3.1h-0.1
		c-0.2,1.1-0.4,2.1-0.6,3.1l-1.1,4.6h-3.2L422.5,42.4z"/>
	<path class="st1" d="M439,47.7c0-3.6,2.5-5.6,5.1-5.6c2.7,0,5.1,2.1,5.1,5.6c0,3.5-2.5,5.6-5.1,5.6C441.5,53.3,439,51.2,439,47.7z
		 M446.4,47.7c0-2-0.8-3.3-2.3-3.3c-1.4,0-2.3,1.3-2.3,3.3c0,2,0.8,3.3,2.3,3.3C445.6,51,446.4,49.7,446.4,47.7z"/>
	<path class="st1" d="M451.6,42.4h2.3l0.2,1.9h0.1c0.8-1.4,1.9-2.1,3-2.1c0.6,0,0.9,0.1,1.3,0.2l-0.5,2.4c-0.4-0.1-0.7-0.2-1.1-0.2
		c-0.8,0-1.8,0.6-2.5,2.1V53h-2.8V42.4z"/>
	<path class="st1" d="M459.9,37.8h2.7V47h0.1l3.7-4.6h3l-3.7,4.4l4,6.3h-3l-2.6-4.4l-1.5,1.7V53h-2.7V37.8z"/>
	<path class="st1" d="M471.3,51.4c0-1,0.7-1.8,1.7-1.8c1,0,1.7,0.8,1.7,1.8c0,1-0.7,1.8-1.7,1.8C472.1,53.3,471.3,52.5,471.3,51.4z"
		/>
</g>
<g class="st0">
	<path class="st1" d="M0.3,68.9h2.9l1.1,6.9c0.2,1.5,0.4,3,0.6,4.5h0.1c0.3-1.5,0.6-3,0.9-4.5l1.6-6.9H10l1.6,6.9
		c0.3,1.4,0.6,3,0.9,4.5h0.1c0.2-1.5,0.4-3,0.6-4.5l1.1-6.9H17L14.4,83h-3.5l-1.6-7c-0.2-1.1-0.4-2.2-0.6-3.2H8.6
		C8.5,73.9,8.3,74.9,8,76l-1.5,7H3.1L0.3,68.9z"/>
	<path class="st1" d="M18.2,77.7c0-3.5,2.4-5.6,5-5.6c2.9,0,4.4,2.1,4.4,5.1c0,0.5-0.1,1-0.1,1.3h-6.6c0.2,1.7,1.4,2.7,2.9,2.7
		c0.9,0,1.6-0.3,2.4-0.7l0.9,1.7c-1,0.7-2.4,1.2-3.7,1.2C20.5,83.3,18.2,81.2,18.2,77.7z M25.2,76.6c0-1.4-0.6-2.4-2-2.4
		c-1.1,0-2.1,0.8-2.3,2.4H25.2z"/>
	<path class="st1" d="M33.7,80.1c0-2.3,1.8-3.5,6.1-3.9c0-1-0.5-1.8-1.8-1.8c-1,0-1.9,0.4-2.9,1l-1-1.8c1.3-0.8,2.8-1.4,4.4-1.4
		c2.7,0,4.1,1.6,4.1,4.7V83h-2.3l-0.2-1.1h-0.1c-0.9,0.8-2,1.4-3.2,1.4C35,83.3,33.7,81.9,33.7,80.1z M39.8,80v-2.1
		c-2.6,0.3-3.5,1-3.5,2c0,0.8,0.6,1.2,1.4,1.2C38.6,81.1,39.2,80.7,39.8,80z"/>
	<path class="st1" d="M45.5,72.4h2.3l0.2,1.9H48c0.8-1.4,1.9-2.1,3-2.1c0.6,0,0.9,0.1,1.3,0.2l-0.5,2.4c-0.4-0.1-0.7-0.2-1.1-0.2
		c-0.8,0-1.8,0.6-2.5,2.1V83h-2.8V72.4z"/>
	<path class="st1" d="M52.9,77.7c0-3.5,2.4-5.6,5-5.6c2.9,0,4.4,2.1,4.4,5.1c0,0.5-0.1,1-0.1,1.3h-6.6c0.2,1.7,1.4,2.7,2.9,2.7
		c0.9,0,1.6-0.3,2.4-0.7l1,1.7c-1,0.7-2.4,1.2-3.7,1.2C55.2,83.3,52.9,81.2,52.9,77.7z M59.9,76.6c0-1.4-0.6-2.4-2-2.4
		c-1.1,0-2.1,0.8-2.3,2.4H59.9z"/>
	<path class="st1" d="M68.2,77.7c0-3.5,2.4-5.6,5-5.6c2.9,0,4.4,2.1,4.4,5.1c0,0.5-0.1,1-0.1,1.3h-6.6c0.2,1.7,1.4,2.7,2.9,2.7
		c0.9,0,1.6-0.3,2.4-0.7l1,1.7c-1,0.7-2.4,1.2-3.7,1.2C70.5,83.3,68.2,81.2,68.2,77.7z M75.2,76.6c0-1.4-0.6-2.4-2-2.4
		c-1.1,0-2.1,0.8-2.3,2.4H75.2z"/>
	<path class="st1" d="M81.7,77.5l-3.1-5.1h3l1.1,1.9c0.3,0.6,0.6,1.2,1,1.8h0.1c0.2-0.6,0.5-1.2,0.8-1.8l0.9-1.9h2.9l-3.1,5.4
		l3.3,5.2h-3l-1.2-1.9c-0.3-0.6-0.7-1.3-1-1.9h-0.1c-0.3,0.6-0.6,1.2-0.9,1.9l-1,1.9h-2.9L81.7,77.5z"/>
	<path class="st1" d="M90.1,79.3v-4.7h-1.5v-2.1l1.6-0.1l0.3-2.8h2.3v2.8h2.6v2.2h-2.6v4.7c0,1.2,0.5,1.8,1.4,1.8
		c0.3,0,0.8-0.1,1-0.2l0.5,2c-0.6,0.2-1.3,0.4-2.2,0.4C91.1,83.3,90.1,81.7,90.1,79.3z"/>
	<path class="st1" d="M97.7,72.4h2.3l0.2,1.9h0.1c0.8-1.4,1.9-2.1,3-2.1c0.6,0,0.9,0.1,1.3,0.2l-0.5,2.4c-0.4-0.1-0.7-0.2-1.1-0.2
		c-0.8,0-1.8,0.6-2.5,2.1V83h-2.8V72.4z"/>
	<path class="st1" d="M104.8,80.1c0-2.3,1.8-3.5,6.1-3.9c0-1-0.5-1.8-1.8-1.8c-1,0-1.9,0.4-2.9,1l-1-1.8c1.3-0.8,2.8-1.4,4.4-1.4
		c2.7,0,4.1,1.6,4.1,4.7V83h-2.3l-0.2-1.1h-0.1c-0.9,0.8-2,1.4-3.2,1.4C106.1,83.3,104.8,81.9,104.8,80.1z M111,80v-2.1
		c-2.6,0.3-3.5,1-3.5,2c0,0.8,0.6,1.2,1.4,1.2C109.7,81.1,110.3,80.7,111,80z"/>
	<path class="st1" d="M115.9,77.7c0-3.6,2.5-5.6,5.1-5.6c2.7,0,5.1,2.1,5.1,5.6c0,3.5-2.5,5.6-5.1,5.6
		C118.4,83.3,115.9,81.2,115.9,77.7z M123.3,77.7c0-2-0.8-3.3-2.3-3.3c-1.4,0-2.3,1.3-2.3,3.3c0,2,0.8,3.3,2.3,3.3
		C122.5,81,123.3,79.7,123.3,77.7z"/>
	<path class="st1" d="M128.5,72.4h2.3l0.2,1.9h0.1c0.8-1.4,1.9-2.1,3-2.1c0.6,0,0.9,0.1,1.3,0.2l-0.5,2.4c-0.4-0.1-0.7-0.2-1.1-0.2
		c-0.8,0-1.8,0.6-2.5,2.1V83h-2.8V72.4z"/>
	<path class="st1" d="M135.9,77.7c0-3.5,2.2-5.6,4.5-5.6c1.2,0,1.9,0.5,2.7,1.2l-0.1-1.7v-3.7h2.8V83h-2.3l-0.2-1.1h-0.1
		c-0.8,0.8-1.8,1.4-2.9,1.4C137.7,83.3,135.9,81.2,135.9,77.7z M143,79.9v-4.7c-0.6-0.6-1.3-0.8-2-0.8c-1.2,0-2.2,1.1-2.2,3.3
		c0,2.2,0.8,3.3,2.2,3.3C141.8,81,142.4,80.7,143,79.9z"/>
	<path class="st1" d="M148.5,69.1c0-0.9,0.7-1.5,1.7-1.5c1,0,1.7,0.6,1.7,1.5c0,0.9-0.7,1.5-1.7,1.5C149.2,70.7,148.5,70,148.5,69.1
		z M148.8,72.4h2.8V83h-2.8V72.4z"/>
	<path class="st1" d="M154.6,72.4h2.3l0.2,1.4h0.1c0.9-0.9,2-1.7,3.5-1.7c2.3,0,3.3,1.6,3.3,4.3V83h-2.8v-6.3c0-1.6-0.5-2.2-1.5-2.2
		c-0.9,0-1.4,0.4-2.2,1.2V83h-2.8V72.4z"/>
	<path class="st1" d="M166.2,80.1c0-2.3,1.8-3.5,6.1-3.9c0-1-0.5-1.8-1.8-1.8c-1,0-1.9,0.4-2.9,1l-1-1.8c1.3-0.8,2.8-1.4,4.4-1.4
		c2.7,0,4.1,1.6,4.1,4.7V83h-2.3l-0.2-1.1h-0.1c-0.9,0.8-2,1.4-3.2,1.4C167.5,83.3,166.2,81.9,166.2,80.1z M172.3,80v-2.1
		c-2.6,0.3-3.5,1-3.5,2c0,0.8,0.6,1.2,1.4,1.2C171.1,81.1,171.7,80.7,172.3,80z"/>
	<path class="st1" d="M178,72.4h2.3l0.2,1.9h0.1c0.8-1.4,1.9-2.1,3-2.1c0.6,0,0.9,0.1,1.3,0.2l-0.5,2.4c-0.4-0.1-0.7-0.2-1.1-0.2
		c-0.8,0-1.8,0.6-2.5,2.1V83H178V72.4z"/>
	<path class="st1" d="M186,87.1l0.5-2.1c0.2,0.1,0.5,0.1,0.7,0.1c1.1,0,1.7-0.7,2-1.6l0.2-0.6l-4.1-10.4h2.8l1.7,4.9
		c0.3,1,0.6,2,0.9,3h0.1c0.2-1,0.5-2,0.8-3l1.5-4.9h2.7l-3.8,11c-0.9,2.5-2.1,4-4.4,4C186.8,87.3,186.4,87.2,186,87.1z"/>
	<path class="st1" d="M195.8,85.5c1.5-0.6,2.3-1.5,2.3-2.6c-0.1,0-0.1,0-0.2,0c-0.9,0-1.7-0.6-1.7-1.7c0-1,0.8-1.7,1.8-1.7
		c1.3,0,2,1,2,2.8c0,2.2-1.3,3.9-3.6,4.7L195.8,85.5z"/>
	<path class="st1" d="M211.5,79.3v-4.7H210v-2.1l1.6-0.1l0.3-2.8h2.3v2.8h2.6v2.2h-2.6v4.7c0,1.2,0.5,1.8,1.4,1.8
		c0.3,0,0.8-0.1,1-0.2l0.5,2c-0.6,0.2-1.3,0.4-2.2,0.4C212.4,83.3,211.5,81.7,211.5,79.3z"/>
	<path class="st1" d="M219,67.8h2.8v3.8l-0.1,2c0.9-0.8,1.9-1.6,3.3-1.6c2.3,0,3.3,1.6,3.3,4.3V83h-2.8v-6.3c0-1.6-0.5-2.2-1.5-2.2
		c-0.9,0-1.4,0.4-2.2,1.2V83H219V67.8z"/>
	<path class="st1" d="M230.5,77.7c0-3.5,2.4-5.6,5-5.6c2.9,0,4.4,2.1,4.4,5.1c0,0.5-0.1,1-0.1,1.3h-6.6c0.2,1.7,1.4,2.7,2.9,2.7
		c0.9,0,1.6-0.3,2.4-0.7l1,1.7c-1,0.7-2.4,1.2-3.7,1.2C232.9,83.3,230.5,81.2,230.5,77.7z M237.6,76.6c0-1.4-0.6-2.4-2-2.4
		c-1.1,0-2.1,0.8-2.3,2.4H237.6z"/>
	<path class="st1" d="M245.9,77.7c0-3.5,2.4-5.6,5-5.6c2.9,0,4.4,2.1,4.4,5.1c0,0.5-0.1,1-0.1,1.3h-6.6c0.2,1.7,1.4,2.7,2.9,2.7
		c0.9,0,1.6-0.3,2.4-0.7l1,1.7c-1,0.7-2.4,1.2-3.7,1.2C248.2,83.3,245.9,81.2,245.9,77.7z M252.9,76.6c0-1.4-0.6-2.4-2-2.4
		c-1.1,0-2.1,0.8-2.3,2.4H252.9z"/>
	<path class="st1" d="M257.6,72.4h2.3l0.2,1.4h0.1c0.9-0.9,2-1.7,3.5-1.7c2.3,0,3.3,1.6,3.3,4.3V83h-2.8v-6.3c0-1.6-0.5-2.2-1.5-2.2
		c-0.9,0-1.4,0.4-2.2,1.2V83h-2.8V72.4z"/>
	<path class="st1" d="M269.2,77.7c0-3.5,2.2-5.6,4.5-5.6c1.2,0,1.9,0.5,2.7,1.2l-0.1-1.7v-3.7h2.8V83h-2.3l-0.2-1.1h-0.1
		c-0.8,0.8-1.8,1.4-2.9,1.4C270.9,83.3,269.2,81.2,269.2,77.7z M276.2,79.9v-4.7c-0.6-0.6-1.3-0.8-2-0.8c-1.2,0-2.2,1.1-2.2,3.3
		c0,2.2,0.8,3.3,2.2,3.3C275,81,275.6,80.7,276.2,79.9z"/>
	<path class="st1" d="M285.7,77.7c0-3.6,2.5-5.6,5.1-5.6c2.7,0,5.1,2.1,5.1,5.6c0,3.5-2.5,5.6-5.1,5.6
		C288.1,83.3,285.7,81.2,285.7,77.7z M293,77.7c0-2-0.8-3.3-2.3-3.3c-1.4,0-2.3,1.3-2.3,3.3c0,2,0.8,3.3,2.3,3.3
		C292.2,81,293,79.7,293,77.7z"/>
	<path class="st1" d="M303.8,70c-0.4-0.1-0.8-0.2-1.1-0.2c-0.8,0-1.3,0.5-1.3,1.7v0.9h2v2.2h-2V83h-2.8v-8.4h-1.4v-2.1l1.4-0.1v-0.9
		c0-2.2,1-3.9,3.7-3.9c0.8,0,1.5,0.2,2,0.4L303.8,70z"/>
	<path class="st1" d="M309.9,79.3v-4.7h-1.5v-2.1l1.6-0.1l0.3-2.8h2.3v2.8h2.6v2.2h-2.6v4.7c0,1.2,0.5,1.8,1.4,1.8
		c0.3,0,0.8-0.1,1-0.2l0.5,2c-0.6,0.2-1.3,0.4-2.2,0.4C310.9,83.3,309.9,81.7,309.9,79.3z"/>
	<path class="st1" d="M317.5,67.8h2.8v3.8l-0.1,2c0.9-0.8,1.9-1.6,3.3-1.6c2.3,0,3.3,1.6,3.3,4.3V83H324v-6.3c0-1.6-0.5-2.2-1.5-2.2
		c-0.9,0-1.4,0.4-2.2,1.2V83h-2.8V67.8z"/>
	<path class="st1" d="M329,77.7c0-3.5,2.4-5.6,5-5.6c2.9,0,4.4,2.1,4.4,5.1c0,0.5-0.1,1-0.1,1.3h-6.6c0.2,1.7,1.4,2.7,2.9,2.7
		c0.9,0,1.6-0.3,2.4-0.7l1,1.7c-1,0.7-2.4,1.2-3.7,1.2C331.3,83.3,329,81.2,329,77.7z M336,76.6c0-1.4-0.6-2.4-2-2.4
		c-1.1,0-2.1,0.8-2.3,2.4H336z"/>
	<path class="st1" d="M344.3,77.7c0-3.5,2.4-5.6,5-5.6c2.9,0,4.4,2.1,4.4,5.1c0,0.5-0.1,1-0.1,1.3H347c0.2,1.7,1.4,2.7,2.9,2.7
		c0.9,0,1.6-0.3,2.4-0.7l1,1.7c-1,0.7-2.4,1.2-3.7,1.2C346.6,83.3,344.3,81.2,344.3,77.7z M351.3,76.6c0-1.4-0.6-2.4-2-2.4
		c-1.1,0-2.1,0.8-2.3,2.4H351.3z"/>
	<path class="st1" d="M356,72.4h2.3l0.2,1.4h0.1c0.9-0.9,2-1.7,3.5-1.7c2.3,0,3.3,1.6,3.3,4.3V83h-2.8v-6.3c0-1.6-0.5-2.2-1.5-2.2
		c-0.9,0-1.4,0.4-2.2,1.2V83H356V72.4z"/>
	<path class="st1" d="M367.6,77.7c0-3.5,2.2-5.6,4.5-5.6c1.2,0,1.9,0.5,2.7,1.2l-0.1-1.7v-3.7h2.8V83h-2.3l-0.2-1.1h-0.1
		c-0.8,0.8-1.8,1.4-2.9,1.4C369.3,83.3,367.6,81.2,367.6,77.7z M374.7,79.9v-4.7c-0.6-0.6-1.3-0.8-2-0.8c-1.2,0-2.2,1.1-2.2,3.3
		c0,2.2,0.8,3.3,2.2,3.3C373.4,81,374,80.7,374.7,79.9z"/>
	<path class="st1" d="M384.1,77.7c0-3.6,2.5-5.6,5.1-5.6c2.7,0,5.1,2.1,5.1,5.6c0,3.5-2.5,5.6-5.1,5.6
		C386.5,83.3,384.1,81.2,384.1,77.7z M391.5,77.7c0-2-0.8-3.3-2.3-3.3c-1.4,0-2.3,1.3-2.3,3.3c0,2,0.8,3.3,2.3,3.3
		C390.7,81,391.5,79.7,391.5,77.7z"/>
	<path class="st1" d="M402.2,70c-0.4-0.1-0.8-0.2-1.1-0.2c-0.8,0-1.3,0.5-1.3,1.7v0.9h2v2.2h-2V83H397v-8.4h-1.4v-2.1l1.4-0.1v-0.9
		c0-2.2,1-3.9,3.7-3.9c0.8,0,1.5,0.2,2,0.4L402.2,70z"/>
	<path class="st1" d="M408.3,79.3v-4.7h-1.5v-2.1l1.6-0.1l0.3-2.8h2.3v2.8h2.6v2.2h-2.6v4.7c0,1.2,0.5,1.8,1.4,1.8
		c0.3,0,0.8-0.1,1-0.2l0.5,2c-0.6,0.2-1.3,0.4-2.2,0.4C409.3,83.3,408.3,81.7,408.3,79.3z"/>
	<path class="st1" d="M415.9,67.8h2.8v3.8l-0.1,2c0.9-0.8,1.9-1.6,3.3-1.6c2.3,0,3.3,1.6,3.3,4.3V83h-2.8v-6.3
		c0-1.6-0.5-2.2-1.5-2.2c-0.9,0-1.4,0.4-2.2,1.2V83h-2.8V67.8z"/>
	<path class="st1" d="M427.4,77.7c0-3.5,2.4-5.6,5-5.6c2.9,0,4.4,2.1,4.4,5.1c0,0.5-0.1,1-0.1,1.3h-6.6c0.2,1.7,1.4,2.7,2.9,2.7
		c0.9,0,1.6-0.3,2.4-0.7l1,1.7c-1,0.7-2.4,1.2-3.7,1.2C429.7,83.3,427.4,81.2,427.4,77.7z M434.4,76.6c0-1.4-0.6-2.4-2-2.4
		c-1.1,0-2.1,0.8-2.3,2.4H434.4z"/>
</g>
<g class="st0">
	<path class="st1" d="M0.5,111.8l1.3-1.7c1,0.7,1.9,1.2,2.8,1.2c1.1,0,1.5-0.5,1.5-1.1c0-0.8-1.1-1.2-2.2-1.6
		c-1.3-0.5-2.9-1.3-2.9-3.1c0-1.9,1.6-3.3,4-3.3c1.6,0,2.7,0.6,3.6,1.3l-1.3,1.7c-0.8-0.5-1.5-0.9-2.3-0.9c-0.9,0-1.4,0.4-1.4,1
		c0,0.8,1,1.1,2.2,1.5c1.4,0.5,3,1.2,3,3.2c0,1.9-1.5,3.4-4.2,3.4C3.1,113.3,1.5,112.6,0.5,111.8z"/>
	<path class="st1" d="M10.2,107.7c0-3.5,2.4-5.6,5-5.6c2.9,0,4.4,2.1,4.4,5.1c0,0.5-0.1,1-0.1,1.3H13c0.2,1.7,1.4,2.7,2.9,2.7
		c0.9,0,1.6-0.3,2.4-0.7l0.9,1.7c-1,0.7-2.4,1.2-3.7,1.2C12.6,113.3,10.2,111.2,10.2,107.7z M17.3,106.6c0-1.4-0.6-2.4-2-2.4
		c-1.1,0-2.1,0.8-2.3,2.4H17.3z"/>
	<path class="st1" d="M21.9,102.4h2.3l0.2,1.4h0.1c0.9-0.9,1.9-1.7,3.3-1.7c1.5,0,2.4,0.7,2.9,1.9c1-1,2-1.9,3.4-1.9
		c2.3,0,3.3,1.6,3.3,4.3v6.6h-2.8v-6.3c0-1.6-0.5-2.2-1.5-2.2c-0.6,0-1.3,0.4-2.1,1.2v7.3h-2.8v-6.3c0-1.6-0.5-2.2-1.5-2.2
		c-0.6,0-1.3,0.4-2.1,1.2v7.3h-2.8V102.4z"/>
	<path class="st1" d="M39.6,107.7c0-3.5,2.4-5.6,5-5.6c2.9,0,4.4,2.1,4.4,5.1c0,0.5-0.1,1-0.1,1.3h-6.6c0.2,1.7,1.4,2.7,2.9,2.7
		c0.9,0,1.6-0.3,2.4-0.7l0.9,1.7c-1,0.7-2.4,1.2-3.7,1.2C41.9,113.3,39.6,111.2,39.6,107.7z M46.6,106.6c0-1.4-0.6-2.4-2-2.4
		c-1.1,0-2.1,0.8-2.3,2.4H46.6z"/>
	<path class="st1" d="M50.3,111.8l1.3-1.7c0.9,0.7,1.9,1.2,2.8,1.2c1.1,0,1.5-0.5,1.5-1.1c0-0.8-1.1-1.2-2.2-1.6
		c-1.3-0.5-2.9-1.3-2.9-3.1c0-1.9,1.6-3.3,4-3.3c1.6,0,2.7,0.6,3.6,1.3l-1.3,1.7c-0.8-0.5-1.5-0.9-2.3-0.9c-1,0-1.4,0.4-1.4,1
		c0,0.8,1,1.1,2.2,1.5c1.4,0.5,3,1.2,3,3.2c0,1.9-1.5,3.4-4.2,3.4C52.9,113.3,51.3,112.6,50.3,111.8z"/>
	<path class="st1" d="M60.7,109.3v-4.7h-1.5v-2.1l1.6-0.1l0.3-2.8h2.3v2.8h2.6v2.2h-2.6v4.7c0,1.2,0.5,1.8,1.4,1.8
		c0.3,0,0.8-0.1,1-0.2l0.5,2c-0.6,0.2-1.3,0.4-2.2,0.4C61.6,113.3,60.7,111.7,60.7,109.3z"/>
	<path class="st1" d="M67.2,107.7c0-3.5,2.4-5.6,5-5.6c2.9,0,4.4,2.1,4.4,5.1c0,0.5-0.1,1-0.1,1.3h-6.6c0.2,1.7,1.4,2.7,2.9,2.7
		c0.9,0,1.6-0.3,2.4-0.7l1,1.7c-1,0.7-2.4,1.2-3.7,1.2C69.5,113.3,67.2,111.2,67.2,107.7z M74.2,106.6c0-1.4-0.6-2.4-2-2.4
		c-1.1,0-2.1,0.8-2.3,2.4H74.2z"/>
	<path class="st1" d="M78.9,102.4h2.3l0.2,1.9h0.1c0.8-1.4,1.9-2.1,3-2.1c0.6,0,0.9,0.1,1.3,0.2l-0.5,2.4c-0.4-0.1-0.7-0.2-1.1-0.2
		c-0.8,0-1.8,0.6-2.5,2.1v6.3h-2.8V102.4z"/>
	<path class="st1" d="M94.7,99.4c-1.2,0.7-1.8,1.5-1.9,2.7c0.1,0,0.1,0,0.2,0c0.8,0,1.5,0.6,1.5,1.5c0,1-0.6,1.6-1.5,1.6
		c-1.2,0-1.8-0.9-1.8-2.6c0-2,0.9-3.4,2.8-4.4L94.7,99.4z"/>
	<path class="st1" d="M96.5,111.8l1.3-1.7c1,0.7,1.9,1.2,2.8,1.2c1.1,0,1.5-0.5,1.5-1.1c0-0.8-1.1-1.2-2.2-1.6
		c-1.3-0.5-2.9-1.3-2.9-3.1c0-1.9,1.6-3.3,4-3.3c1.6,0,2.7,0.6,3.6,1.3l-1.3,1.7c-0.8-0.5-1.5-0.9-2.3-0.9c-1,0-1.4,0.4-1.4,1
		c0,0.8,1,1.1,2.2,1.5c1.4,0.5,3,1.2,3,3.2c0,1.9-1.5,3.4-4.2,3.4C99.1,113.3,97.5,112.6,96.5,111.8z"/>
	<path class="st1" d="M106.8,109v-6.6h2.8v6.3c0,1.7,0.5,2.2,1.5,2.2c0.9,0,1.4-0.4,2.2-1.3v-7.2h2.8V113h-2.3l-0.2-1.5h-0.1
		c-0.9,1.1-1.9,1.8-3.4,1.8C107.7,113.3,106.8,111.7,106.8,109z"/>
	<path class="st1" d="M119,102.4h2.3l0.2,1.4h0.1c0.9-0.9,1.9-1.7,3.3-1.7c1.5,0,2.4,0.7,2.9,1.9c1-1,2-1.9,3.4-1.9
		c2.3,0,3.3,1.6,3.3,4.3v6.6h-2.8v-6.3c0-1.6-0.5-2.2-1.5-2.2c-0.6,0-1.3,0.4-2.1,1.2v7.3h-2.8v-6.3c0-1.6-0.5-2.2-1.5-2.2
		c-0.6,0-1.3,0.4-2.1,1.2v7.3H119V102.4z"/>
	<path class="st1" d="M137.3,102.4h2.3l0.2,1.4h0.1c0.9-0.9,1.9-1.7,3.3-1.7c1.5,0,2.4,0.7,2.9,1.9c1-1,2-1.9,3.4-1.9
		c2.3,0,3.3,1.6,3.3,4.3v6.6h-2.8v-6.3c0-1.6-0.5-2.2-1.5-2.2c-0.6,0-1.3,0.4-2.1,1.2v7.3h-2.8v-6.3c0-1.6-0.5-2.2-1.5-2.2
		c-0.6,0-1.3,0.4-2.1,1.2v7.3h-2.8V102.4z"/>
	<path class="st1" d="M154.9,107.7c0-3.5,2.4-5.6,5-5.6c2.9,0,4.4,2.1,4.4,5.1c0,0.5-0.1,1-0.1,1.3h-6.6c0.2,1.7,1.4,2.7,2.9,2.7
		c0.9,0,1.6-0.3,2.4-0.7l1,1.7c-1,0.7-2.4,1.2-3.7,1.2C157.3,113.3,154.9,111.2,154.9,107.7z M162,106.6c0-1.4-0.6-2.4-2-2.4
		c-1.1,0-2.1,0.8-2.3,2.4H162z"/>
	<path class="st1" d="M166.6,102.4h2.3l0.2,1.9h0.1c0.8-1.4,1.9-2.1,3-2.1c0.6,0,0.9,0.1,1.3,0.2l-0.5,2.4c-0.4-0.1-0.7-0.2-1.1-0.2
		c-0.8,0-1.8,0.6-2.5,2.1v6.3h-2.8V102.4z"/>
	<path class="st1" d="M174.9,103.7c1.2-0.7,1.8-1.5,1.8-2.7c-0.1,0-0.1,0-0.2,0c-0.8,0-1.5-0.6-1.5-1.5c0-1,0.6-1.6,1.5-1.6
		c1.2,0,1.8,0.9,1.8,2.6c0,2-1,3.4-2.9,4.4L174.9,103.7z"/>
	<path class="st1" d="M191.1,100c-0.4-0.1-0.8-0.2-1.1-0.2c-0.8,0-1.3,0.5-1.3,1.7v0.9h2v2.2h-2v8.4h-2.8v-8.4h-1.4v-2.1l1.4-0.1
		v-0.9c0-2.2,1-3.9,3.7-3.9c0.8,0,1.5,0.2,2,0.4L191.1,100z"/>
	<path class="st1" d="M191.6,107.7c0-3.5,2.4-5.6,5-5.6c2.9,0,4.4,2.1,4.4,5.1c0,0.5-0.1,1-0.1,1.3h-6.6c0.2,1.7,1.4,2.7,2.9,2.7
		c0.9,0,1.6-0.3,2.4-0.7l1,1.7c-1,0.7-2.4,1.2-3.7,1.2C193.9,113.3,191.6,111.2,191.6,107.7z M198.6,106.6c0-1.4-0.6-2.4-2-2.4
		c-1.1,0-2.1,0.8-2.3,2.4H198.6z"/>
	<path class="st1" d="M202.6,107.7c0-3.5,2.4-5.6,5-5.6c2.9,0,4.4,2.1,4.4,5.1c0,0.5-0.1,1-0.1,1.3h-6.6c0.2,1.7,1.4,2.7,2.9,2.7
		c0.9,0,1.6-0.3,2.4-0.7l1,1.7c-1,0.7-2.4,1.2-3.7,1.2C205,113.3,202.6,111.2,202.6,107.7z M209.6,106.6c0-1.4-0.6-2.4-2-2.4
		c-1.1,0-2.1,0.8-2.3,2.4H209.6z"/>
	<path class="st1" d="M214.3,110V97.8h2.8v12.3c0,0.6,0.3,0.8,0.6,0.8c0.1,0,0.2,0,0.4,0l0.3,2.1c-0.3,0.1-0.8,0.2-1.4,0.2
		C215,113.3,214.3,112,214.3,110z"/>
	<path class="st1" d="M223.9,114.9c0-0.9,0.6-1.7,1.5-2.2v-0.1c-0.6-0.4-1-0.9-1-1.8c0-0.8,0.6-1.5,1.2-2v-0.1
		c-0.7-0.5-1.4-1.5-1.4-2.8c0-2.5,2-3.9,4.3-3.9c0.6,0,1.2,0.1,1.6,0.3h3.8v2.1h-1.8c0.3,0.4,0.5,1,0.5,1.6c0,2.4-1.8,3.6-4.1,3.6
		c-0.4,0-0.9-0.1-1.4-0.2c-0.3,0.2-0.5,0.5-0.5,0.9c0,0.6,0.4,0.9,1.7,0.9h1.8c2.6,0,4,0.8,4,2.7c0,2.1-2.2,3.8-5.8,3.8
		C225.9,117.6,223.9,116.8,223.9,114.9z M231.5,114.3c0-0.8-0.6-0.9-1.8-0.9h-1.3c-0.6,0-1.1-0.1-1.5-0.2c-0.5,0.4-0.7,0.8-0.7,1.2
		c0,0.9,1,1.4,2.5,1.4C230.4,115.8,231.5,115.1,231.5,114.3z M230.2,106c0-1.3-0.7-2-1.7-2s-1.7,0.7-1.7,2s0.7,2,1.7,2
		S230.2,107.2,230.2,106z"/>
	<path class="st1" d="M236,110V97.8h2.8v12.3c0,0.6,0.3,0.8,0.6,0.8c0.1,0,0.2,0,0.4,0l0.3,2.1c-0.3,0.1-0.8,0.2-1.4,0.2
		C236.7,113.3,236,112,236,110z"/>
	<path class="st1" d="M241.4,110.1c0-2.3,1.8-3.5,6.1-3.9c0-1-0.5-1.8-1.8-1.8c-1,0-1.9,0.4-2.9,1l-1-1.8c1.3-0.8,2.8-1.4,4.4-1.4
		c2.7,0,4.1,1.6,4.1,4.7v6.2h-2.3l-0.2-1.1h-0.1c-0.9,0.8-2,1.4-3.2,1.4C242.7,113.3,241.4,111.9,241.4,110.1z M247.5,110v-2.1
		c-2.6,0.3-3.5,1-3.5,2c0,0.8,0.6,1.2,1.4,1.2C246.3,111.1,246.9,110.7,247.5,110z"/>
	<path class="st1" d="M253.2,102.4h2.3l0.2,1.4h0.1c0.9-0.9,1.9-1.7,3.3-1.7c1.5,0,2.4,0.7,2.9,1.9c1-1,2-1.9,3.4-1.9
		c2.3,0,3.3,1.6,3.3,4.3v6.6h-2.8v-6.3c0-1.6-0.5-2.2-1.5-2.2c-0.6,0-1.3,0.4-2.1,1.2v7.3h-2.8v-6.3c0-1.6-0.5-2.2-1.5-2.2
		c-0.6,0-1.3,0.4-2.1,1.2v7.3h-2.8V102.4z"/>
	<path class="st1" d="M270.8,107.7c0-3.6,2.5-5.6,5.1-5.6c2.7,0,5.1,2.1,5.1,5.6c0,3.5-2.5,5.6-5.1,5.6
		C273.3,113.3,270.8,111.2,270.8,107.7z M278.2,107.7c0-2-0.8-3.3-2.3-3.3c-1.4,0-2.3,1.3-2.3,3.3c0,2,0.8,3.3,2.3,3.3
		C277.4,111,278.2,109.7,278.2,107.7z"/>
	<path class="st1" d="M283.4,102.4h2.3l0.2,1.9h0.1c0.8-1.4,1.9-2.1,3-2.1c0.6,0,0.9,0.1,1.3,0.2l-0.5,2.4c-0.4-0.1-0.7-0.2-1.1-0.2
		c-0.8,0-1.8,0.6-2.5,2.1v6.3h-2.8V102.4z"/>
	<path class="st1" d="M290.8,107.7c0-3.6,2.5-5.6,5.1-5.6c2.7,0,5.1,2.1,5.1,5.6c0,3.5-2.5,5.6-5.1,5.6
		C293.2,113.3,290.8,111.2,290.8,107.7z M298.2,107.7c0-2-0.8-3.3-2.3-3.3c-1.4,0-2.3,1.3-2.3,3.3c0,2,0.8,3.3,2.3,3.3
		C297.3,111,298.2,109.7,298.2,107.7z"/>
	<path class="st1" d="M303.2,109v-6.6h2.8v6.3c0,1.7,0.5,2.2,1.5,2.2c0.9,0,1.4-0.4,2.2-1.3v-7.2h2.8V113h-2.3l-0.2-1.5h-0.1
		c-0.9,1.1-1.9,1.8-3.4,1.8C304.2,113.3,303.2,111.7,303.2,109z"/>
	<path class="st1" d="M314.4,111.8l1.3-1.7c1,0.7,1.9,1.2,2.8,1.2c1.1,0,1.5-0.5,1.5-1.1c0-0.8-1.1-1.2-2.2-1.6
		c-1.3-0.5-2.9-1.3-2.9-3.1c0-1.9,1.6-3.3,4-3.3c1.6,0,2.7,0.6,3.6,1.3l-1.3,1.7c-0.8-0.5-1.5-0.9-2.3-0.9c-1,0-1.4,0.4-1.4,1
		c0,0.8,1,1.1,2.2,1.5c1.4,0.5,3,1.2,3,3.2c0,1.9-1.5,3.4-4.2,3.4C317.1,113.3,315.5,112.6,314.4,111.8z"/>
	<path class="st1" d="M324.4,115.5c1.5-0.6,2.3-1.5,2.3-2.6c-0.1,0-0.1,0-0.2,0c-0.9,0-1.7-0.6-1.7-1.7c0-1,0.8-1.7,1.8-1.7
		c1.3,0,2,1,2,2.8c0,2.2-1.3,3.9-3.6,4.7L324.4,115.5z"/>
	<path class="st1" d="M334.3,111.8l1.3-1.7c1,0.7,1.9,1.2,2.8,1.2c1.1,0,1.5-0.5,1.5-1.1c0-0.8-1.1-1.2-2.2-1.6
		c-1.3-0.5-2.9-1.3-2.9-3.1c0-1.9,1.6-3.3,4-3.3c1.6,0,2.7,0.6,3.6,1.3l-1.3,1.7c-0.8-0.5-1.5-0.9-2.3-0.9c-1,0-1.4,0.4-1.4,1
		c0,0.8,1,1.1,2.2,1.5c1.4,0.5,3,1.2,3,3.2c0,1.9-1.5,3.4-4.2,3.4C337,113.3,335.4,112.6,334.3,111.8z"/>
	<path class="st1" d="M344.6,109v-6.6h2.8v6.3c0,1.7,0.5,2.2,1.5,2.2c0.9,0,1.4-0.4,2.2-1.3v-7.2h2.8V113h-2.3l-0.2-1.5h-0.1
		c-0.9,1.1-1.9,1.8-3.4,1.8C345.6,113.3,344.6,111.7,344.6,109z"/>
	<path class="st1" d="M356.9,102.4h2.3l0.2,1.4h0.1c0.9-0.9,1.9-1.7,3.3-1.7c1.5,0,2.4,0.7,2.9,1.9c1-1,2-1.9,3.4-1.9
		c2.3,0,3.3,1.6,3.3,4.3v6.6h-2.8v-6.3c0-1.6-0.5-2.2-1.5-2.2c-0.6,0-1.3,0.4-2.1,1.2v7.3h-2.8v-6.3c0-1.6-0.5-2.2-1.5-2.2
		c-0.6,0-1.3,0.4-2.1,1.2v7.3h-2.8V102.4z"/>
	<path class="st1" d="M375.2,102.4h2.3l0.2,1.4h0.1c0.9-0.9,1.9-1.7,3.3-1.7c1.5,0,2.4,0.7,2.9,1.9c1-1,2-1.9,3.4-1.9
		c2.3,0,3.3,1.6,3.3,4.3v6.6h-2.8v-6.3c0-1.6-0.5-2.2-1.5-2.2c-0.6,0-1.3,0.4-2.1,1.2v7.3h-2.8v-6.3c0-1.6-0.5-2.2-1.5-2.2
		c-0.6,0-1.3,0.4-2.1,1.2v7.3h-2.8V102.4z"/>
	<path class="st1" d="M392.8,107.7c0-3.5,2.4-5.6,5-5.6c2.9,0,4.4,2.1,4.4,5.1c0,0.5-0.1,1-0.1,1.3h-6.6c0.2,1.7,1.4,2.7,2.9,2.7
		c0.9,0,1.6-0.3,2.4-0.7l1,1.7c-1,0.7-2.4,1.2-3.7,1.2C395.1,113.3,392.8,111.2,392.8,107.7z M399.8,106.6c0-1.4-0.6-2.4-2-2.4
		c-1.1,0-2.1,0.8-2.3,2.4H399.8z"/>
	<path class="st1" d="M404.5,102.4h2.3l0.2,1.9h0.1c0.8-1.4,1.9-2.1,3-2.1c0.6,0,0.9,0.1,1.3,0.2l-0.5,2.4c-0.4-0.1-0.7-0.2-1.1-0.2
		c-0.8,0-1.8,0.6-2.5,2.1v6.3h-2.8V102.4z"/>
	<path class="st1" d="M416.5,107.7c0-3.6,2.5-5.6,5.4-5.6c1.3,0,2.3,0.5,3.1,1.2l-1.3,1.8c-0.5-0.5-1-0.7-1.6-0.7
		c-1.6,0-2.7,1.3-2.7,3.3c0,2,1.1,3.3,2.6,3.3c0.8,0,1.5-0.4,2.1-0.9l1.1,1.8c-1,0.9-2.3,1.3-3.5,1.3
		C418.7,113.3,416.5,111.2,416.5,107.7z"/>
	<path class="st1" d="M426.4,110.1c0-2.3,1.8-3.5,6.1-3.9c0-1-0.5-1.8-1.8-1.8c-1,0-1.9,0.4-2.9,1l-1-1.8c1.3-0.8,2.8-1.4,4.4-1.4
		c2.7,0,4.1,1.6,4.1,4.7v6.2H433l-0.2-1.1h-0.1c-0.9,0.8-2,1.4-3.2,1.4C427.6,113.3,426.4,111.9,426.4,110.1z M432.5,110v-2.1
		c-2.6,0.3-3.5,1-3.5,2c0,0.8,0.6,1.2,1.4,1.2C431.2,111.1,431.8,110.7,432.5,110z"/>
	<path class="st1" d="M438.1,102.4h2.3l0.2,1.4h0.1c0.9-0.9,2-1.7,3.5-1.7c2.3,0,3.3,1.6,3.3,4.3v6.6h-2.8v-6.3
		c0-1.6-0.5-2.2-1.5-2.2c-0.9,0-1.4,0.4-2.2,1.2v7.3h-2.8V102.4z"/>
	<path class="st1" d="M460.3,100c-0.4-0.1-0.8-0.2-1.1-0.2c-0.8,0-1.3,0.5-1.3,1.7v0.9h2v2.2h-2v8.4h-2.8v-8.4h-1.4v-2.1l1.4-0.1
		v-0.9c0-2.2,1-3.9,3.7-3.9c0.8,0,1.5,0.2,2,0.4L460.3,100z"/>
	<path class="st1" d="M460.8,107.7c0-3.5,2.4-5.6,5-5.6c2.9,0,4.4,2.1,4.4,5.1c0,0.5-0.1,1-0.1,1.3h-6.6c0.2,1.7,1.4,2.7,2.9,2.7
		c0.9,0,1.6-0.3,2.4-0.7l1,1.7c-1,0.7-2.4,1.2-3.7,1.2C463.1,113.3,460.8,111.2,460.8,107.7z M467.8,106.6c0-1.4-0.6-2.4-2-2.4
		c-1.1,0-2.1,0.8-2.3,2.4H467.8z"/>
	<path class="st1" d="M471.8,107.7c0-3.5,2.4-5.6,5-5.6c2.9,0,4.4,2.1,4.4,5.1c0,0.5-0.1,1-0.1,1.3h-6.6c0.2,1.7,1.4,2.7,2.9,2.7
		c0.9,0,1.6-0.3,2.4-0.7l1,1.7c-1,0.7-2.4,1.2-3.7,1.2C474.2,113.3,471.8,111.2,471.8,107.7z M478.8,106.6c0-1.4-0.6-2.4-2-2.4
		c-1.1,0-2.1,0.8-2.3,2.4H478.8z"/>
	<path class="st1" d="M483.5,110V97.8h2.8v12.3c0,0.6,0.3,0.8,0.6,0.8c0.1,0,0.2,0,0.4,0l0.3,2.1c-0.3,0.1-0.8,0.2-1.4,0.2
		C484.2,113.3,483.5,112,483.5,110z"/>
</g>
<g class="st0">
	<path class="st1" d="M0.8,137.7c0-3.6,2.5-5.6,5.4-5.6c1.3,0,2.3,0.5,3.1,1.2L8,135.1c-0.5-0.5-1-0.7-1.6-0.7
		c-1.6,0-2.7,1.3-2.7,3.3c0,2,1.1,3.3,2.6,3.3c0.8,0,1.5-0.4,2.1-0.9l1.1,1.8c-1,0.9-2.3,1.3-3.5,1.3C3.1,143.3,0.8,141.2,0.8,137.7
		z"/>
	<path class="st1" d="M10.3,137.7c0-3.6,2.5-5.6,5.1-5.6s5.1,2.1,5.1,5.6c0,3.5-2.5,5.6-5.1,5.6S10.3,141.2,10.3,137.7z M17.6,137.7
		c0-2-0.8-3.3-2.3-3.3s-2.3,1.3-2.3,3.3c0,2,0.8,3.3,2.3,3.3S17.6,139.7,17.6,137.7z"/>
	<path class="st1" d="M22.2,137.7c0-3.6,2.5-5.6,5.1-5.6s5.1,2.1,5.1,5.6c0,3.5-2.5,5.6-5.1,5.6S22.2,141.2,22.2,137.7z M29.5,137.7
		c0-2-0.8-3.3-2.3-3.3s-2.3,1.3-2.3,3.3c0,2,0.8,3.3,2.3,3.3S29.5,139.7,29.5,137.7z"/>
	<path class="st1" d="M34.7,140v-12.2h2.8v12.3c0,0.6,0.3,0.8,0.6,0.8c0.1,0,0.2,0,0.4,0l0.3,2.1c-0.3,0.1-0.8,0.2-1.4,0.2
		C35.4,143.3,34.7,142,34.7,140z"/>
	<path class="st1" d="M45.4,139.3v-4.7h-1.5v-2.1l1.6-0.1l0.3-2.8h2.3v2.8h2.6v2.2h-2.6v4.7c0,1.2,0.5,1.8,1.4,1.8
		c0.3,0,0.8-0.1,1-0.2l0.5,2c-0.6,0.2-1.3,0.4-2.2,0.4C46.4,143.3,45.4,141.7,45.4,139.3z"/>
	<path class="st1" d="M52,137.7c0-3.6,2.5-5.6,5.1-5.6c2.7,0,5.1,2.1,5.1,5.6c0,3.5-2.5,5.6-5.1,5.6C54.4,143.3,52,141.2,52,137.7z
		 M59.4,137.7c0-2-0.8-3.3-2.3-3.3c-1.4,0-2.3,1.3-2.3,3.3c0,2,0.8,3.3,2.3,3.3C58.5,141,59.4,139.7,59.4,137.7z"/>
	<path class="st1" d="M69.3,139.3v-4.7h-1.5v-2.1l1.6-0.1l0.3-2.8H72v2.8h2.6v2.2H72v4.7c0,1.2,0.5,1.8,1.4,1.8c0.3,0,0.8-0.1,1-0.2
		l0.5,2c-0.6,0.2-1.3,0.4-2.2,0.4C70.2,143.3,69.3,141.7,69.3,139.3z"/>
	<path class="st1" d="M76.8,127.8h2.8v3.8l-0.1,2c0.9-0.8,1.9-1.6,3.3-1.6c2.3,0,3.3,1.6,3.3,4.3v6.6h-2.8v-6.3
		c0-1.6-0.5-2.2-1.5-2.2c-0.9,0-1.4,0.4-2.2,1.2v7.3h-2.8V127.8z"/>
	<path class="st1" d="M88.3,137.7c0-3.5,2.4-5.6,5-5.6c2.9,0,4.4,2.1,4.4,5.1c0,0.5-0.1,1-0.1,1.3H91c0.2,1.7,1.4,2.7,2.9,2.7
		c0.9,0,1.6-0.3,2.4-0.7l1,1.7c-1,0.7-2.4,1.2-3.7,1.2C90.6,143.3,88.3,141.2,88.3,137.7z M95.3,136.6c0-1.4-0.6-2.4-2-2.4
		c-1.1,0-2.1,0.8-2.3,2.4H95.3z"/>
	<path class="st1" d="M103.3,141.8l1.3-1.7c1,0.7,1.9,1.2,2.8,1.2c1.1,0,1.5-0.5,1.5-1.1c0-0.8-1.1-1.2-2.2-1.6
		c-1.3-0.5-2.9-1.3-2.9-3.1c0-1.9,1.6-3.3,4-3.3c1.6,0,2.7,0.6,3.6,1.3l-1.3,1.7c-0.8-0.5-1.5-0.9-2.3-0.9c-1,0-1.4,0.4-1.4,1
		c0,0.8,1,1.1,2.2,1.5c1.4,0.5,3,1.2,3,3.2c0,1.9-1.5,3.4-4.2,3.4C106,143.3,104.4,142.6,103.3,141.8z"/>
	<path class="st1" d="M113.1,137.7c0-3.5,2.4-5.6,5-5.6c2.9,0,4.4,2.1,4.4,5.1c0,0.5-0.1,1-0.1,1.3h-6.6c0.2,1.7,1.4,2.7,2.9,2.7
		c0.9,0,1.6-0.3,2.4-0.7l1,1.7c-1,0.7-2.4,1.2-3.7,1.2C115.4,143.3,113.1,141.2,113.1,137.7z M120.1,136.6c0-1.4-0.6-2.4-2-2.4
		c-1.1,0-2.1,0.8-2.3,2.4H120.1z"/>
	<path class="st1" d="M124,140.1c0-2.3,1.8-3.5,6.1-3.9c0-1-0.5-1.8-1.8-1.8c-1,0-1.9,0.4-2.9,1l-1-1.8c1.3-0.8,2.8-1.4,4.4-1.4
		c2.7,0,4.1,1.6,4.1,4.7v6.2h-2.3l-0.2-1.1h-0.1c-0.9,0.8-2,1.4-3.2,1.4C125.2,143.3,124,141.9,124,140.1z M130.1,140v-2.1
		c-2.6,0.3-3.5,1-3.5,2c0,0.8,0.6,1.2,1.4,1.2C128.9,141.1,129.4,140.7,130.1,140z"/>
	<path class="st1" d="M134.7,141.8l1.3-1.7c1,0.7,1.9,1.2,2.8,1.2c1.1,0,1.5-0.5,1.5-1.1c0-0.8-1.1-1.2-2.2-1.6
		c-1.3-0.5-2.9-1.3-2.9-3.1c0-1.9,1.6-3.3,4-3.3c1.6,0,2.7,0.6,3.6,1.3l-1.3,1.7c-0.8-0.5-1.5-0.9-2.3-0.9c-1,0-1.4,0.4-1.4,1
		c0,0.8,1,1.1,2.2,1.5c1.4,0.5,3,1.2,3,3.2c0,1.9-1.5,3.4-4.2,3.4C137.4,143.3,135.8,142.6,134.7,141.8z"/>
	<path class="st1" d="M144.5,137.7c0-3.6,2.5-5.6,5.1-5.6c2.7,0,5.1,2.1,5.1,5.6c0,3.5-2.5,5.6-5.1,5.6
		C146.9,143.3,144.5,141.2,144.5,137.7z M151.9,137.7c0-2-0.8-3.3-2.3-3.3c-1.4,0-2.3,1.3-2.3,3.3c0,2,0.8,3.3,2.3,3.3
		C151,141,151.9,139.7,151.9,137.7z"/>
	<path class="st1" d="M157.1,132.4h2.3l0.2,1.4h0.1c0.9-0.9,2-1.7,3.5-1.7c2.3,0,3.3,1.6,3.3,4.3v6.6h-2.8v-6.3
		c0-1.6-0.5-2.2-1.5-2.2c-0.9,0-1.4,0.4-2.2,1.2v7.3h-2.8V132.4z"/>
	<path class="st1" d="M173.9,139.3v-4.7h-1.5v-2.1l1.6-0.1l0.3-2.8h2.3v2.8h2.6v2.2h-2.6v4.7c0,1.2,0.5,1.8,1.4,1.8
		c0.3,0,0.8-0.1,1-0.2l0.5,2c-0.6,0.2-1.3,0.4-2.2,0.4C174.9,143.3,173.9,141.7,173.9,139.3z"/>
	<path class="st1" d="M181.5,127.8h2.8v3.8l-0.1,2c0.9-0.8,1.9-1.6,3.3-1.6c2.3,0,3.3,1.6,3.3,4.3v6.6H188v-6.3
		c0-1.6-0.5-2.2-1.5-2.2c-0.9,0-1.4,0.4-2.2,1.2v7.3h-2.8V127.8z"/>
	<path class="st1" d="M193.2,140.1c0-2.3,1.8-3.5,6.1-3.9c0-1-0.5-1.8-1.8-1.8c-1,0-1.9,0.4-2.9,1l-1-1.8c1.3-0.8,2.8-1.4,4.4-1.4
		c2.7,0,4.1,1.6,4.1,4.7v6.2h-2.3l-0.2-1.1h-0.1c-0.9,0.8-2,1.4-3.2,1.4C194.4,143.3,193.2,141.9,193.2,140.1z M199.3,140v-2.1
		c-2.6,0.3-3.5,1-3.5,2c0,0.8,0.6,1.2,1.4,1.2C198,141.1,198.6,140.7,199.3,140z"/>
	<path class="st1" d="M205,139.3v-4.7h-1.5v-2.1l1.6-0.1l0.3-2.8h2.3v2.8h2.6v2.2h-2.6v4.7c0,1.2,0.5,1.8,1.4,1.8
		c0.3,0,0.8-0.1,1-0.2l0.5,2c-0.6,0.2-1.3,0.4-2.2,0.4C205.9,143.3,205,141.7,205,139.3z"/>
	<path class="st1" d="M216.3,140.1c0-2.3,1.8-3.5,6.1-3.9c0-1-0.5-1.8-1.8-1.8c-1,0-1.9,0.4-2.9,1l-1-1.8c1.3-0.8,2.8-1.4,4.4-1.4
		c2.7,0,4.1,1.6,4.1,4.7v6.2h-2.3l-0.2-1.1h-0.1c-0.9,0.8-2,1.4-3.2,1.4C217.6,143.3,216.3,141.9,216.3,140.1z M222.4,140v-2.1
		c-2.6,0.3-3.5,1-3.5,2c0,0.8,0.6,1.2,1.4,1.2C221.2,141.1,221.8,140.7,222.4,140z"/>
	<path class="st1" d="M228.1,132.4h2.3l0.2,1.4h0.1c0.9-0.9,2-1.7,3.5-1.7c2.3,0,3.3,1.6,3.3,4.3v6.6h-2.8v-6.3
		c0-1.6-0.5-2.2-1.5-2.2c-0.9,0-1.4,0.4-2.2,1.2v7.3h-2.8V132.4z"/>
	<path class="st1" d="M244.5,139v-6.6h2.8v6.3c0,1.7,0.5,2.2,1.5,2.2c0.9,0,1.4-0.4,2.2-1.3v-7.2h2.8V143h-2.3l-0.2-1.5h-0.1
		c-0.9,1.1-1.9,1.8-3.4,1.8C245.4,143.3,244.5,141.7,244.5,139z"/>
	<path class="st1" d="M256.7,132.4h2.3l0.2,1.4h0.1c0.9-0.9,1.9-1.7,3.3-1.7c1.5,0,2.4,0.7,2.9,1.9c1-1,2-1.9,3.4-1.9
		c2.3,0,3.3,1.6,3.3,4.3v6.6h-2.8v-6.3c0-1.6-0.5-2.2-1.5-2.2c-0.6,0-1.3,0.4-2.1,1.2v7.3H263v-6.3c0-1.6-0.5-2.2-1.5-2.2
		c-0.6,0-1.3,0.4-2.1,1.2v7.3h-2.8V132.4z"/>
	<path class="st1" d="M277.5,141.9L277.5,141.9l-0.3,1.1H275v-15.2h2.8v3.8l-0.1,1.7c0.8-0.8,1.9-1.3,2.9-1.3c2.6,0,4.2,2.1,4.2,5.4
		c0,3.7-2.2,5.8-4.5,5.8C279.4,143.3,278.3,142.8,277.5,141.9z M282,137.5c0-2-0.6-3.2-2.1-3.2c-0.7,0-1.4,0.4-2.1,1.1v4.7
		c0.7,0.6,1.4,0.8,1.9,0.8C281,141,282,139.9,282,137.5z"/>
	<path class="st1" d="M287.2,132.4h2.3l0.2,1.9h0.1c0.8-1.4,1.9-2.1,3-2.1c0.6,0,0.9,0.1,1.3,0.2l-0.5,2.4c-0.4-0.1-0.7-0.2-1.1-0.2
		c-0.8,0-1.8,0.6-2.5,2.1v6.3h-2.8V132.4z"/>
	<path class="st1" d="M294.6,137.7c0-3.5,2.4-5.6,5-5.6c2.9,0,4.4,2.1,4.4,5.1c0,0.5-0.1,1-0.1,1.3h-6.6c0.2,1.7,1.4,2.7,2.9,2.7
		c0.9,0,1.6-0.3,2.4-0.7l1,1.7c-1,0.7-2.4,1.2-3.7,1.2C296.9,143.3,294.6,141.2,294.6,137.7z M301.6,136.6c0-1.4-0.6-2.4-2-2.4
		c-1.1,0-2.1,0.8-2.3,2.4H301.6z"/>
	<path class="st1" d="M306.3,140v-12.2h2.8v12.3c0,0.6,0.3,0.8,0.6,0.8c0.1,0,0.2,0,0.4,0l0.3,2.1c-0.3,0.1-0.8,0.2-1.4,0.2
		C307,143.3,306.3,142,306.3,140z"/>
	<path class="st1" d="M312.3,140v-12.2h2.8v12.3c0,0.6,0.3,0.8,0.6,0.8c0.1,0,0.2,0,0.4,0l0.3,2.1c-0.3,0.1-0.8,0.2-1.4,0.2
		C313,143.3,312.3,142,312.3,140z"/>
	<path class="st1" d="M317.8,140.1c0-2.3,1.8-3.5,6.1-3.9c0-1-0.5-1.8-1.8-1.8c-1,0-1.9,0.4-2.9,1l-1-1.8c1.3-0.8,2.8-1.4,4.4-1.4
		c2.7,0,4.1,1.6,4.1,4.7v6.2h-2.3l-0.2-1.1h-0.1c-0.9,0.8-2,1.4-3.2,1.4C319,143.3,317.8,141.9,317.8,140.1z M323.9,140v-2.1
		c-2.6,0.3-3.5,1-3.5,2c0,0.8,0.6,1.2,1.4,1.2C322.6,141.1,323.2,140.7,323.9,140z"/>
	<path class="st1" d="M333.3,140.1c0-2.3,1.8-3.5,6.1-3.9c0-1-0.5-1.8-1.8-1.8c-1,0-1.9,0.4-2.9,1l-1-1.8c1.3-0.8,2.8-1.4,4.4-1.4
		c2.7,0,4.1,1.6,4.1,4.7v6.2h-2.3l-0.2-1.1h-0.1c-0.9,0.8-2,1.4-3.2,1.4C334.5,143.3,333.3,141.9,333.3,140.1z M339.4,140v-2.1
		c-2.6,0.3-3.5,1-3.5,2c0,0.8,0.6,1.2,1.4,1.2C338.2,141.1,338.7,140.7,339.4,140z"/>
	<path class="st1" d="M345.1,132.4h2.3l0.2,1.4h0.1c0.9-0.9,2-1.7,3.5-1.7c2.3,0,3.3,1.6,3.3,4.3v6.6h-2.8v-6.3
		c0-1.6-0.5-2.2-1.5-2.2c-0.9,0-1.4,0.4-2.2,1.2v7.3h-2.8V132.4z"/>
	<path class="st1" d="M356.6,137.7c0-3.5,2.2-5.6,4.5-5.6c1.2,0,1.9,0.5,2.7,1.2l-0.1-1.7v-3.7h2.8V143h-2.3l-0.2-1.1h-0.1
		c-0.8,0.8-1.8,1.4-2.9,1.4C358.3,143.3,356.6,141.2,356.6,137.7z M363.7,139.9v-4.7c-0.6-0.6-1.3-0.8-2-0.8c-1.2,0-2.2,1.1-2.2,3.3
		c0,2.2,0.8,3.3,2.2,3.3C362.4,141,363.1,140.7,363.7,139.9z"/>
	<path class="st1" d="M374.2,139.3v-4.7h-1.5v-2.1l1.6-0.1l0.3-2.8h2.3v2.8h2.6v2.2H377v4.7c0,1.2,0.5,1.8,1.4,1.8
		c0.3,0,0.8-0.1,1-0.2l0.5,2c-0.6,0.2-1.3,0.4-2.2,0.4C375.1,143.3,374.2,141.7,374.2,139.3z"/>
	<path class="st1" d="M381.8,132.4h2.3l0.2,1.9h0.1c0.8-1.4,1.9-2.1,3-2.1c0.6,0,0.9,0.1,1.3,0.2l-0.5,2.4c-0.4-0.1-0.7-0.2-1.1-0.2
		c-0.8,0-1.8,0.6-2.5,2.1v6.3h-2.8V132.4z"/>
	<path class="st1" d="M388.9,140.1c0-2.3,1.8-3.5,6.1-3.9c0-1-0.5-1.8-1.8-1.8c-1,0-1.9,0.4-2.9,1l-1-1.8c1.3-0.8,2.8-1.4,4.4-1.4
		c2.7,0,4.1,1.6,4.1,4.7v6.2h-2.3l-0.2-1.1h-0.1c-0.9,0.8-2,1.4-3.2,1.4C390.2,143.3,388.9,141.9,388.9,140.1z M395,140v-2.1
		c-2.6,0.3-3.5,1-3.5,2c0,0.8,0.6,1.2,1.4,1.2C393.8,141.1,394.4,140.7,395,140z"/>
	<path class="st1" d="M400.7,132.4h2.3l0.2,1.4h0.1c0.9-0.9,2-1.7,3.5-1.7c2.3,0,3.3,1.6,3.3,4.3v6.6h-2.8v-6.3
		c0-1.6-0.5-2.2-1.5-2.2c-0.9,0-1.4,0.4-2.2,1.2v7.3h-2.8V132.4z"/>
	<path class="st1" d="M411.9,141.8l1.3-1.7c1,0.7,1.9,1.2,2.8,1.2c1.1,0,1.5-0.5,1.5-1.1c0-0.8-1.1-1.2-2.2-1.6
		c-1.3-0.5-2.9-1.3-2.9-3.1c0-1.9,1.6-3.3,4-3.3c1.6,0,2.7,0.6,3.6,1.3l-1.3,1.7c-0.8-0.5-1.5-0.9-2.3-0.9c-1,0-1.4,0.4-1.4,1
		c0,0.8,1,1.1,2.2,1.5c1.4,0.5,3,1.2,3,3.2c0,1.9-1.5,3.4-4.2,3.4C414.5,143.3,412.9,142.6,411.9,141.8z"/>
	<path class="st1" d="M422.3,132.4h2.3l0.2,1.1h0.1c0.9-0.8,2-1.4,3.1-1.4c2.6,0,4.2,2.1,4.2,5.4c0,3.6-2.2,5.8-4.5,5.8
		c-0.9,0-1.8-0.4-2.6-1.2l0.1,1.7v3.2h-2.8V132.4z M429.3,137.5c0-2-0.6-3.2-2.1-3.2c-0.7,0-1.4,0.4-2.1,1.1v4.7
		c0.7,0.6,1.4,0.8,1.9,0.8C428.3,141,429.3,139.9,429.3,137.5z"/>
	<path class="st1" d="M433.7,140.1c0-2.3,1.8-3.5,6.1-3.9c0-1-0.5-1.8-1.8-1.8c-1,0-1.9,0.4-2.9,1l-1-1.8c1.3-0.8,2.8-1.4,4.4-1.4
		c2.7,0,4.1,1.6,4.1,4.7v6.2h-2.3l-0.2-1.1h-0.1c-0.9,0.8-2,1.4-3.2,1.4C435,143.3,433.7,141.9,433.7,140.1z M439.8,140v-2.1
		c-2.6,0.3-3.5,1-3.5,2c0,0.8,0.6,1.2,1.4,1.2C438.6,141.1,439.2,140.7,439.8,140z"/>
	<path class="st1" d="M445.5,132.4h2.3l0.2,1.9h0.1c0.8-1.4,1.9-2.1,3-2.1c0.6,0,0.9,0.1,1.3,0.2l-0.5,2.4c-0.4-0.1-0.7-0.2-1.1-0.2
		c-0.8,0-1.8,0.6-2.5,2.1v6.3h-2.8V132.4z"/>
	<path class="st1" d="M452.9,137.7c0-3.5,2.4-5.6,5-5.6c2.9,0,4.4,2.1,4.4,5.1c0,0.5-0.1,1-0.1,1.3h-6.6c0.2,1.7,1.4,2.7,2.9,2.7
		c0.9,0,1.6-0.3,2.4-0.7l1,1.7c-1,0.7-2.4,1.2-3.7,1.2C455.2,143.3,452.9,141.2,452.9,137.7z M459.9,136.6c0-1.4-0.6-2.4-2-2.4
		c-1.1,0-2.1,0.8-2.3,2.4H459.9z"/>
	<path class="st1" d="M464.6,132.4h2.3l0.2,1.4h0.1c0.9-0.9,2-1.7,3.5-1.7c2.3,0,3.3,1.6,3.3,4.3v6.6h-2.8v-6.3
		c0-1.6-0.5-2.2-1.5-2.2c-0.9,0-1.4,0.4-2.2,1.2v7.3h-2.8V132.4z"/>
	<path class="st1" d="M477.1,139.3v-4.7h-1.5v-2.1l1.6-0.1l0.3-2.8h2.3v2.8h2.6v2.2h-2.6v4.7c0,1.2,0.5,1.8,1.4,1.8
		c0.3,0,0.8-0.1,1-0.2l0.5,2c-0.6,0.2-1.3,0.4-2.2,0.4C478.1,143.3,477.1,141.7,477.1,139.3z"/>
</g>
<g class="st0">
	<path class="st1" d="M1.5,162.4h2.3l0.2,1.1H4c0.9-0.8,2-1.4,3.1-1.4c2.6,0,4.2,2.1,4.2,5.4c0,3.6-2.2,5.8-4.5,5.8
		c-0.9,0-1.8-0.4-2.6-1.2l0.1,1.7v3.2H1.5V162.4z M8.5,167.5c0-2-0.6-3.2-2.1-3.2c-0.7,0-1.4,0.4-2.1,1.1v4.7
		c0.7,0.6,1.4,0.8,1.9,0.8C7.5,171,8.5,169.9,8.5,167.5z"/>
	<path class="st1" d="M12.4,162.4h2.8l1.6,5.3c0.3,1,0.6,2.1,0.9,3.2h0.1c0.3-1.1,0.6-2.2,0.9-3.2l1.6-5.3h2.7L19.2,173H16
		L12.4,162.4z"/>
	<path class="st1" d="M23.7,167.7c0-3.6,2.5-5.6,5.4-5.6c1.3,0,2.3,0.5,3.1,1.2l-1.3,1.8c-0.5-0.5-1-0.7-1.6-0.7
		c-1.6,0-2.7,1.3-2.7,3.3c0,2,1.1,3.3,2.6,3.3c0.8,0,1.5-0.4,2.1-0.9l1.1,1.8c-1,0.9-2.3,1.3-3.5,1.3
		C26,173.3,23.7,171.2,23.7,167.7z"/>
	<path class="st1" d="M34.2,171.4c0-1,0.7-1.8,1.7-1.8c1,0,1.7,0.8,1.7,1.8c0,1-0.7,1.8-1.7,1.8C35,173.3,34.2,172.5,34.2,171.4z"/>
	<path class="st1" d="M44.2,171.2l1.6-1.9c1,0.9,2.3,1.6,3.6,1.6c1.5,0,2.2-0.6,2.2-1.6c0-1-0.9-1.4-2.1-1.9l-1.9-0.8
		c-1.4-0.6-2.8-1.7-2.8-3.8c0-2.3,2-4.1,4.9-4.1c1.6,0,3.3,0.6,4.4,1.8l-1.4,1.8c-0.9-0.7-1.8-1.2-3-1.2c-1.2,0-2,0.6-2,1.5
		c0,1,1,1.4,2.2,1.8l1.8,0.8c1.7,0.7,2.8,1.8,2.8,3.8c0,2.3-1.9,4.3-5.2,4.3C47.4,173.3,45.5,172.5,44.2,171.2z"/>
	<path class="st1" d="M56.5,159.1c0-0.9,0.7-1.5,1.7-1.5c1,0,1.7,0.6,1.7,1.5c0,0.9-0.7,1.5-1.7,1.5C57.2,160.7,56.5,160,56.5,159.1
		z M56.7,162.4h2.8V173h-2.8V162.4z"/>
	<path class="st1" d="M62.5,170v-12.2h2.8v12.3c0,0.6,0.3,0.8,0.6,0.8c0.1,0,0.2,0,0.4,0l0.3,2.1c-0.3,0.1-0.8,0.2-1.4,0.2
		C63.2,173.3,62.5,172,62.5,170z"/>
	<path class="st1" d="M68.5,157.8h2.7v9.1h0.1l3.7-4.6h3l-3.7,4.4l4,6.3h-3l-2.6-4.4l-1.5,1.7v2.7h-2.7V157.8z"/>
	<path class="st1" d="M83.3,171.8l1.3-1.7c1,0.7,1.9,1.2,2.8,1.2c1.1,0,1.5-0.5,1.5-1.1c0-0.8-1.1-1.2-2.2-1.6
		c-1.3-0.5-2.9-1.3-2.9-3.1c0-1.9,1.6-3.3,4-3.3c1.6,0,2.7,0.6,3.6,1.3l-1.3,1.7c-0.8-0.5-1.5-0.9-2.3-0.9c-1,0-1.4,0.4-1.4,1
		c0,0.8,1,1.1,2.2,1.5c1.4,0.5,3,1.2,3,3.2c0,1.9-1.5,3.4-4.2,3.4C85.9,173.3,84.3,172.6,83.3,171.8z"/>
	<path class="st1" d="M93,167.7c0-3.6,2.5-5.6,5.4-5.6c1.3,0,2.3,0.5,3.1,1.2l-1.3,1.8c-0.5-0.5-1-0.7-1.6-0.7
		c-1.6,0-2.7,1.3-2.7,3.3c0,2,1.1,3.3,2.6,3.3c0.8,0,1.5-0.4,2.1-0.9l1.1,1.8c-1,0.9-2.3,1.3-3.5,1.3C95.3,173.3,93,171.2,93,167.7z
		"/>
	<path class="st1" d="M103.7,162.4h2.3l0.2,1.9h0.1c0.8-1.4,1.9-2.1,3-2.1c0.6,0,0.9,0.1,1.3,0.2l-0.5,2.4c-0.4-0.1-0.7-0.2-1.1-0.2
		c-0.8,0-1.8,0.6-2.5,2.1v6.3h-2.8V162.4z"/>
	<path class="st1" d="M111.1,167.7c0-3.5,2.4-5.6,5-5.6c2.9,0,4.4,2.1,4.4,5.1c0,0.5-0.1,1-0.1,1.3h-6.6c0.2,1.7,1.4,2.7,2.9,2.7
		c0.9,0,1.6-0.3,2.4-0.7l1,1.7c-1,0.7-2.4,1.2-3.7,1.2C113.4,173.3,111.1,171.2,111.1,167.7z M118.1,166.6c0-1.4-0.6-2.4-2-2.4
		c-1.1,0-2.1,0.8-2.3,2.4H118.1z"/>
	<path class="st1" d="M122.1,167.7c0-3.5,2.4-5.6,5-5.6c2.9,0,4.4,2.1,4.4,5.1c0,0.5-0.1,1-0.1,1.3h-6.6c0.2,1.7,1.4,2.7,2.9,2.7
		c0.9,0,1.6-0.3,2.4-0.7l1,1.7c-1,0.7-2.4,1.2-3.7,1.2C124.5,173.3,122.1,171.2,122.1,167.7z M129.2,166.6c0-1.4-0.6-2.4-2-2.4
		c-1.1,0-2.1,0.8-2.3,2.4H129.2z"/>
	<path class="st1" d="M133.9,162.4h2.3l0.2,1.4h0.1c0.9-0.9,2-1.7,3.5-1.7c2.3,0,3.3,1.6,3.3,4.3v6.6h-2.8v-6.3
		c0-1.6-0.5-2.2-1.5-2.2c-0.9,0-1.4,0.4-2.2,1.2v7.3h-2.8V162.4z"/>
	<path class="st1" d="M150.3,162.4h2.3l0.2,1.4h0.1c0.9-0.9,1.9-1.7,3.3-1.7c1.5,0,2.4,0.7,2.9,1.9c1-1,2-1.9,3.4-1.9
		c2.3,0,3.3,1.6,3.3,4.3v6.6H163v-6.3c0-1.6-0.5-2.2-1.5-2.2c-0.6,0-1.3,0.4-2.1,1.2v7.3h-2.8v-6.3c0-1.6-0.5-2.2-1.5-2.2
		c-0.6,0-1.3,0.4-2.1,1.2v7.3h-2.8V162.4z"/>
	<path class="st1" d="M168,167.7c0-3.5,2.4-5.6,5-5.6c2.9,0,4.4,2.1,4.4,5.1c0,0.5-0.1,1-0.1,1.3h-6.6c0.2,1.7,1.4,2.7,2.9,2.7
		c0.9,0,1.6-0.3,2.4-0.7l1,1.7c-1,0.7-2.4,1.2-3.7,1.2C170.3,173.3,168,171.2,168,167.7z M175,166.6c0-1.4-0.6-2.4-2-2.4
		c-1.1,0-2.1,0.8-2.3,2.4H175z"/>
	<path class="st1" d="M178.9,170.1c0-2.3,1.8-3.5,6.1-3.9c0-1-0.5-1.8-1.8-1.8c-1,0-1.9,0.4-2.9,1l-1-1.8c1.3-0.8,2.8-1.4,4.4-1.4
		c2.7,0,4.1,1.6,4.1,4.7v6.2h-2.3l-0.2-1.1h-0.1c-0.9,0.8-2,1.4-3.2,1.4C180.2,173.3,178.9,171.9,178.9,170.1z M185,170v-2.1
		c-2.6,0.3-3.5,1-3.5,2c0,0.8,0.6,1.2,1.4,1.2C183.8,171.1,184.4,170.7,185,170z"/>
	<path class="st1" d="M190.7,162.4h2.3l0.2,1.4h0.1c0.9-0.9,2-1.7,3.5-1.7c2.3,0,3.3,1.6,3.3,4.3v6.6h-2.8v-6.3
		c0-1.6-0.5-2.2-1.5-2.2c-0.9,0-1.4,0.4-2.2,1.2v7.3h-2.8V162.4z"/>
	<path class="st1" d="M201.8,171.8l1.3-1.7c1,0.7,1.9,1.2,2.8,1.2c1.1,0,1.5-0.5,1.5-1.1c0-0.8-1.1-1.2-2.2-1.6
		c-1.3-0.5-2.9-1.3-2.9-3.1c0-1.9,1.6-3.3,4-3.3c1.6,0,2.7,0.6,3.6,1.3l-1.3,1.7c-0.8-0.5-1.5-0.9-2.3-0.9c-1,0-1.4,0.4-1.4,1
		c0,0.8,1,1.1,2.2,1.5c1.4,0.5,3,1.2,3,3.2c0,1.9-1.5,3.4-4.2,3.4C204.5,173.3,202.9,172.6,201.8,171.8z"/>
	<path class="st1" d="M215.6,171.8l1.3-1.7c1,0.7,1.9,1.2,2.8,1.2c1.1,0,1.5-0.5,1.5-1.1c0-0.8-1.1-1.2-2.2-1.6
		c-1.3-0.5-2.9-1.3-2.9-3.1c0-1.9,1.6-3.3,4-3.3c1.6,0,2.7,0.6,3.6,1.3l-1.3,1.7c-0.8-0.5-1.5-0.9-2.3-0.9c-1,0-1.4,0.4-1.4,1
		c0,0.8,1,1.1,2.2,1.5c1.4,0.5,3,1.2,3,3.2c0,1.9-1.5,3.4-4.2,3.4C218.2,173.3,216.6,172.6,215.6,171.8z"/>
	<path class="st1" d="M225.8,169v-6.6h2.8v6.3c0,1.7,0.5,2.2,1.5,2.2c0.9,0,1.4-0.4,2.2-1.3v-7.2h2.8V173h-2.3l-0.2-1.5h-0.1
		c-0.9,1.1-1.9,1.8-3.4,1.8C226.8,173.3,225.8,171.7,225.8,169z"/>
	<path class="st1" d="M238.1,162.4h2.3l0.2,1.4h0.1c0.9-0.9,1.9-1.7,3.3-1.7c1.5,0,2.4,0.7,2.9,1.9c1-1,2-1.9,3.4-1.9
		c2.3,0,3.3,1.6,3.3,4.3v6.6h-2.8v-6.3c0-1.6-0.5-2.2-1.5-2.2c-0.6,0-1.3,0.4-2.1,1.2v7.3h-2.8v-6.3c0-1.6-0.5-2.2-1.5-2.2
		c-0.6,0-1.3,0.4-2.1,1.2v7.3h-2.8V162.4z"/>
	<path class="st1" d="M256.4,162.4h2.3l0.2,1.4h0.1c0.9-0.9,1.9-1.7,3.3-1.7c1.5,0,2.4,0.7,2.9,1.9c1-1,2-1.9,3.4-1.9
		c2.3,0,3.3,1.6,3.3,4.3v6.6H269v-6.3c0-1.6-0.5-2.2-1.5-2.2c-0.6,0-1.3,0.4-2.1,1.2v7.3h-2.8v-6.3c0-1.6-0.5-2.2-1.5-2.2
		c-0.6,0-1.3,0.4-2.1,1.2v7.3h-2.8V162.4z"/>
	<path class="st1" d="M274,167.7c0-3.5,2.4-5.6,5-5.6c2.9,0,4.4,2.1,4.4,5.1c0,0.5-0.1,1-0.1,1.3h-6.6c0.2,1.7,1.4,2.7,2.9,2.7
		c0.9,0,1.6-0.3,2.4-0.7l1,1.7c-1,0.7-2.4,1.2-3.7,1.2C276.4,173.3,274,171.2,274,167.7z M281,166.6c0-1.4-0.6-2.4-2-2.4
		c-1.1,0-2.1,0.8-2.3,2.4H281z"/>
	<path class="st1" d="M285.7,162.4h2.3l0.2,1.9h0.1c0.8-1.4,1.9-2.1,3-2.1c0.6,0,0.9,0.1,1.3,0.2l-0.5,2.4c-0.4-0.1-0.7-0.2-1.1-0.2
		c-0.8,0-1.8,0.6-2.5,2.1v6.3h-2.8V162.4z"/>
	<path class="st1" d="M298.1,159.1c0-0.9,0.7-1.5,1.7-1.5c1,0,1.7,0.6,1.7,1.5c0,0.9-0.7,1.5-1.7,1.5
		C298.8,160.7,298.1,160,298.1,159.1z M298.3,162.4h2.8V173h-2.8V162.4z"/>
	<path class="st1" d="M304.1,162.4h2.3l0.2,1.4h0.1c0.9-0.9,2-1.7,3.5-1.7c2.3,0,3.3,1.6,3.3,4.3v6.6h-2.8v-6.3
		c0-1.6-0.5-2.2-1.5-2.2c-0.9,0-1.4,0.4-2.2,1.2v7.3h-2.8V162.4z"/>
	<path class="st1" d="M320.6,162.4h2.3l0.2,1.4h0.1c0.9-0.9,2-1.7,3.5-1.7c2.3,0,3.3,1.6,3.3,4.3v6.6h-2.8v-6.3
		c0-1.6-0.5-2.2-1.5-2.2c-0.9,0-1.4,0.4-2.2,1.2v7.3h-2.8V162.4z"/>
	<path class="st1" d="M332.7,169v-6.6h2.8v6.3c0,1.7,0.5,2.2,1.5,2.2c0.9,0,1.4-0.4,2.2-1.3v-7.2h2.8V173h-2.3l-0.2-1.5h-0.1
		c-0.9,1.1-1.9,1.8-3.4,1.8C333.7,173.3,332.7,171.7,332.7,169z"/>
	<path class="st1" d="M344.9,162.4h2.3l0.2,1.4h0.1c0.9-0.9,1.9-1.7,3.3-1.7c1.5,0,2.4,0.7,2.9,1.9c1-1,2-1.9,3.4-1.9
		c2.3,0,3.3,1.6,3.3,4.3v6.6h-2.8v-6.3c0-1.6-0.5-2.2-1.5-2.2c-0.6,0-1.3,0.4-2.1,1.2v7.3h-2.8v-6.3c0-1.6-0.5-2.2-1.5-2.2
		c-0.6,0-1.3,0.4-2.1,1.2v7.3h-2.8V162.4z"/>
	<path class="st1" d="M365.7,171.9L365.7,171.9l-0.3,1.1h-2.2v-15.2h2.8v3.8l-0.1,1.7c0.8-0.8,1.9-1.3,2.9-1.3
		c2.6,0,4.2,2.1,4.2,5.4c0,3.7-2.2,5.8-4.5,5.8C367.6,173.3,366.6,172.8,365.7,171.9z M370.2,167.5c0-2-0.6-3.2-2.1-3.2
		c-0.7,0-1.4,0.4-2.1,1.1v4.7c0.7,0.6,1.4,0.8,1.9,0.8C369.2,171,370.2,169.9,370.2,167.5z"/>
	<path class="st1" d="M374.8,167.7c0-3.5,2.4-5.6,5-5.6c2.9,0,4.4,2.1,4.4,5.1c0,0.5-0.1,1-0.1,1.3h-6.6c0.2,1.7,1.4,2.7,2.9,2.7
		c0.9,0,1.6-0.3,2.4-0.7l1,1.7c-1,0.7-2.4,1.2-3.7,1.2C377.1,173.3,374.8,171.2,374.8,167.7z M381.8,166.6c0-1.4-0.6-2.4-2-2.4
		c-1.1,0-2.1,0.8-2.3,2.4H381.8z"/>
	<path class="st1" d="M386.5,162.4h2.3l0.2,1.9h0.1c0.8-1.4,1.9-2.1,3-2.1c0.6,0,0.9,0.1,1.3,0.2l-0.5,2.4c-0.4-0.1-0.7-0.2-1.1-0.2
		c-0.8,0-1.8,0.6-2.5,2.1v6.3h-2.8V162.4z"/>
	<path class="st1" d="M393.6,171.8l1.3-1.7c1,0.7,1.9,1.2,2.8,1.2c1.1,0,1.5-0.5,1.5-1.1c0-0.8-1.1-1.2-2.2-1.6
		c-1.3-0.5-2.9-1.3-2.9-3.1c0-1.9,1.6-3.3,4-3.3c1.6,0,2.7,0.6,3.6,1.3l-1.3,1.7c-0.8-0.5-1.5-0.9-2.3-0.9c-1,0-1.4,0.4-1.4,1
		c0,0.8,1,1.1,2.2,1.5c1.4,0.5,3,1.2,3,3.2c0,1.9-1.5,3.4-4.2,3.4C396.2,173.3,394.6,172.6,393.6,171.8z"/>
	<path class="st1" d="M403.5,175.5c1.5-0.6,2.3-1.5,2.3-2.6c-0.1,0-0.1,0-0.2,0c-0.9,0-1.7-0.6-1.7-1.7c0-1,0.8-1.7,1.8-1.7
		c1.3,0,2,1,2,2.8c0,2.2-1.3,3.9-3.6,4.7L403.5,175.5z"/>
	<path class="st1" d="M413.8,167.7c0-3.6,2.5-5.6,5.1-5.6c2.7,0,5.1,2.1,5.1,5.6c0,3.5-2.5,5.6-5.1,5.6
		C416.3,173.3,413.8,171.2,413.8,167.7z M421.2,167.7c0-2-0.8-3.3-2.3-3.3c-1.4,0-2.3,1.3-2.3,3.3c0,2,0.8,3.3,2.3,3.3
		C420.4,171,421.2,169.7,421.2,167.7z"/>
	<path class="st1" d="M426.3,169v-6.6h2.8v6.3c0,1.7,0.5,2.2,1.5,2.2c0.9,0,1.4-0.4,2.2-1.3v-7.2h2.8V173h-2.3l-0.2-1.5h-0.1
		c-0.9,1.1-1.9,1.8-3.4,1.8C427.3,173.3,426.3,171.7,426.3,169z"/>
	<path class="st1" d="M438.5,162.4h2.3l0.2,1.9h0.1c0.8-1.4,1.9-2.1,3-2.1c0.6,0,0.9,0.1,1.3,0.2l-0.5,2.4c-0.4-0.1-0.7-0.2-1.1-0.2
		c-0.8,0-1.8,0.6-2.5,2.1v6.3h-2.8V162.4z"/>
	<path class="st1" d="M451.5,169.3v-4.7H450v-2.1l1.6-0.1l0.3-2.8h2.3v2.8h2.6v2.2h-2.6v4.7c0,1.2,0.5,1.8,1.4,1.8
		c0.3,0,0.8-0.1,1-0.2l0.5,2c-0.6,0.2-1.3,0.4-2.2,0.4C452.5,173.3,451.5,171.7,451.5,169.3z"/>
	<path class="st1" d="M458,167.7c0-3.5,2.4-5.6,5-5.6c2.9,0,4.4,2.1,4.4,5.1c0,0.5-0.1,1-0.1,1.3h-6.6c0.2,1.7,1.4,2.7,2.9,2.7
		c0.9,0,1.6-0.3,2.4-0.7l1,1.7c-1,0.7-2.4,1.2-3.7,1.2C460.4,173.3,458,171.2,458,167.7z M465.1,166.6c0-1.4-0.6-2.4-2-2.4
		c-1.1,0-2.1,0.8-2.3,2.4H465.1z"/>
	<path class="st1" d="M469,170.1c0-2.3,1.8-3.5,6.1-3.9c0-1-0.5-1.8-1.8-1.8c-1,0-1.9,0.4-2.9,1l-1-1.8c1.3-0.8,2.8-1.4,4.4-1.4
		c2.7,0,4.1,1.6,4.1,4.7v6.2h-2.3l-0.2-1.1h-0.1c-0.9,0.8-2,1.4-3.2,1.4C470.2,173.3,469,171.9,469,170.1z M475.1,170v-2.1
		c-2.6,0.3-3.5,1-3.5,2c0,0.8,0.6,1.2,1.4,1.2C473.8,171.1,474.4,170.7,475.1,170z"/>
	<path class="st1" d="M480.7,162.4h2.3l0.2,1.4h0.1c0.9-0.9,1.9-1.7,3.3-1.7c1.5,0,2.4,0.7,2.9,1.9c1-1,2-1.9,3.4-1.9
		c2.3,0,3.3,1.6,3.3,4.3v6.6h-2.8v-6.3c0-1.6-0.5-2.2-1.5-2.2c-0.6,0-1.3,0.4-2.1,1.2v7.3H487v-6.3c0-1.6-0.5-2.2-1.5-2.2
		c-0.6,0-1.3,0.4-2.1,1.2v7.3h-2.8V162.4z"/>
</g>
<g class="st0">
	<path class="st1" d="M0.5,192.4h2.8l1.2,5.3c0.2,1,0.3,2.1,0.5,3.1h0.1c0.2-1,0.4-2.1,0.7-3.1l1.3-5.3h2.5l1.3,5.3
		c0.2,1,0.4,2.1,0.7,3.1h0.1c0.2-1,0.3-2.1,0.5-3.1l1.2-5.3h2.6L13.2,203H10l-1.1-4.6c-0.2-1-0.4-2-0.6-3.1H8.1
		c-0.2,1.1-0.4,2.1-0.6,3.1L6.5,203H3.3L0.5,192.4z"/>
	<path class="st1" d="M17.1,200.1c0-2.3,1.8-3.5,6.1-3.9c0-1-0.5-1.8-1.8-1.8c-1,0-1.9,0.4-2.9,1l-1-1.8c1.3-0.8,2.8-1.4,4.4-1.4
		c2.7,0,4.1,1.6,4.1,4.7v6.2h-2.3l-0.2-1.1h-0.1c-0.9,0.8-2,1.4-3.2,1.4C18.4,203.3,17.1,201.9,17.1,200.1z M23.3,200v-2.1
		c-2.6,0.3-3.5,1-3.5,2c0,0.8,0.6,1.2,1.4,1.2C22,201.1,22.6,200.7,23.3,200z"/>
	<path class="st1" d="M28.9,192.4h2.3l0.2,1.4h0.1c0.9-0.9,2-1.7,3.5-1.7c2.3,0,3.3,1.6,3.3,4.3v6.6h-2.8v-6.3
		c0-1.6-0.5-2.2-1.5-2.2c-0.9,0-1.4,0.4-2.2,1.2v7.3h-2.8V192.4z"/>
	<path class="st1" d="M41.5,199.3v-4.7H40v-2.1l1.6-0.1l0.3-2.8h2.3v2.8h2.6v2.2h-2.6v4.7c0,1.2,0.5,1.8,1.4,1.8
		c0.3,0,0.8-0.1,1-0.2l0.5,2c-0.6,0.2-1.3,0.4-2.2,0.4C42.4,203.3,41.5,201.7,41.5,199.3z"/>
	<path class="st1" d="M48,197.7c0-3.5,2.4-5.6,5-5.6c2.9,0,4.4,2.1,4.4,5.1c0,0.5-0.1,1-0.1,1.3h-6.6c0.2,1.7,1.4,2.7,2.9,2.7
		c0.9,0,1.6-0.3,2.4-0.7l0.9,1.7c-1,0.7-2.4,1.2-3.7,1.2C50.3,203.3,48,201.2,48,197.7z M55,196.6c0-1.4-0.6-2.4-2-2.4
		c-1.1,0-2.1,0.8-2.3,2.4H55z"/>
	<path class="st1" d="M59.1,197.7c0-3.5,2.2-5.6,4.5-5.6c1.2,0,1.9,0.5,2.7,1.2l-0.1-1.7v-3.7H69V203h-2.3l-0.2-1.1h-0.1
		c-0.8,0.8-1.8,1.4-2.9,1.4C60.8,203.3,59.1,201.2,59.1,197.7z M66.2,199.9v-4.7c-0.6-0.6-1.3-0.8-2-0.8c-1.2,0-2.2,1.1-2.2,3.3
		c0,2.2,0.8,3.3,2.2,3.3C64.9,201,65.6,200.7,66.2,199.9z"/>
	<path class="st1" d="M76.7,199.3v-4.7h-1.5v-2.1l1.6-0.1l0.3-2.8h2.3v2.8h2.6v2.2h-2.6v4.7c0,1.2,0.5,1.8,1.4,1.8
		c0.3,0,0.8-0.1,1-0.2l0.5,2c-0.6,0.2-1.3,0.4-2.2,0.4C77.7,203.3,76.7,201.7,76.7,199.3z"/>
	<path class="st1" d="M83.2,197.7c0-3.6,2.5-5.6,5.1-5.6c2.7,0,5.1,2.1,5.1,5.6c0,3.5-2.5,5.6-5.1,5.6
		C85.7,203.3,83.2,201.2,83.2,197.7z M90.6,197.7c0-2-0.8-3.3-2.3-3.3c-1.4,0-2.3,1.3-2.3,3.3c0,2,0.8,3.3,2.3,3.3
		C89.8,201,90.6,199.7,90.6,197.7z"/>
	<path class="st1" d="M100.1,192.4h2.3l0.2,1.4h0.1c0.9-0.9,1.9-1.7,3.3-1.7c1.5,0,2.4,0.7,2.9,1.9c1-1,2-1.9,3.4-1.9
		c2.3,0,3.3,1.6,3.3,4.3v6.6h-2.8v-6.3c0-1.6-0.5-2.2-1.5-2.2c-0.6,0-1.3,0.4-2.1,1.2v7.3h-2.8v-6.3c0-1.6-0.5-2.2-1.5-2.2
		c-0.6,0-1.3,0.4-2.1,1.2v7.3h-2.8V192.4z"/>
	<path class="st1" d="M117.9,200.1c0-2.3,1.8-3.5,6.1-3.9c0-1-0.5-1.8-1.8-1.8c-1,0-1.9,0.4-2.9,1l-1-1.8c1.3-0.8,2.8-1.4,4.4-1.4
		c2.7,0,4.1,1.6,4.1,4.7v6.2h-2.3l-0.2-1.1h-0.1c-0.9,0.8-2,1.4-3.2,1.4C119.1,203.3,117.9,201.9,117.9,200.1z M124,200v-2.1
		c-2.6,0.3-3.5,1-3.5,2c0,0.8,0.6,1.2,1.4,1.2C122.8,201.1,123.3,200.7,124,200z"/>
	<path class="st1" d="M129.7,187.8h2.7v9.1h0.1l3.7-4.6h3l-3.7,4.4l4,6.3h-3l-2.6-4.4l-1.5,1.7v2.7h-2.7V187.8z"/>
	<path class="st1" d="M139.9,197.7c0-3.5,2.4-5.6,5-5.6c2.9,0,4.4,2.1,4.4,5.1c0,0.5-0.1,1-0.1,1.3h-6.6c0.2,1.7,1.4,2.7,2.9,2.7
		c0.9,0,1.6-0.3,2.4-0.7l1,1.7c-1,0.7-2.4,1.2-3.7,1.2C142.3,203.3,139.9,201.2,139.9,197.7z M146.9,196.6c0-1.4-0.6-2.4-2-2.4
		c-1.1,0-2.1,0.8-2.3,2.4H146.9z"/>
	<path class="st1" d="M154.9,201.8l1.3-1.7c1,0.7,1.9,1.2,2.8,1.2c1.1,0,1.5-0.5,1.5-1.1c0-0.8-1.1-1.2-2.2-1.6
		c-1.3-0.5-2.9-1.3-2.9-3.1c0-1.9,1.6-3.3,4-3.3c1.6,0,2.7,0.6,3.6,1.3l-1.3,1.7c-0.8-0.5-1.5-0.9-2.3-0.9c-1,0-1.4,0.4-1.4,1
		c0,0.8,1,1.1,2.2,1.5c1.4,0.5,3,1.2,3,3.2c0,1.9-1.5,3.4-4.2,3.4C157.6,203.3,156,202.6,154.9,201.8z"/>
	<path class="st1" d="M165.2,199v-6.6h2.8v6.3c0,1.7,0.5,2.2,1.5,2.2c0.9,0,1.4-0.4,2.2-1.3v-7.2h2.8V203h-2.3l-0.2-1.5h-0.1
		c-0.9,1.1-1.9,1.8-3.4,1.8C166.2,203.3,165.2,201.7,165.2,199z"/>
	<path class="st1" d="M177.5,192.4h2.3l0.2,1.9h0.1c0.8-1.4,1.9-2.1,3-2.1c0.6,0,0.9,0.1,1.3,0.2l-0.5,2.4c-0.4-0.1-0.7-0.2-1.1-0.2
		c-0.8,0-1.8,0.6-2.5,2.1v6.3h-2.8V192.4z"/>
	<path class="st1" d="M184.8,197.7c0-3.5,2.4-5.6,5-5.6c2.9,0,4.4,2.1,4.4,5.1c0,0.5-0.1,1-0.1,1.3h-6.6c0.2,1.7,1.4,2.7,2.9,2.7
		c0.9,0,1.6-0.3,2.4-0.7l1,1.7c-1,0.7-2.4,1.2-3.7,1.2C187.2,203.3,184.8,201.2,184.8,197.7z M191.9,196.6c0-1.4-0.6-2.4-2-2.4
		c-1.1,0-2.1,0.8-2.3,2.4H191.9z"/>
	<path class="st1" d="M201.1,188.9h2.8V203h-2.8V188.9z"/>
	<path class="st1" d="M217.1,190c-0.4-0.1-0.8-0.2-1.1-0.2c-0.8,0-1.3,0.5-1.3,1.7v0.9h2v2.2h-2v8.4h-2.8v-8.4h-1.4v-2.1l1.4-0.1
		v-0.9c0-2.2,1-3.9,3.7-3.9c0.8,0,1.5,0.2,2,0.4L217.1,190z"/>
	<path class="st1" d="M217.6,197.7c0-3.6,2.5-5.6,5.1-5.6c2.7,0,5.1,2.1,5.1,5.6c0,3.5-2.5,5.6-5.1,5.6
		C220.1,203.3,217.6,201.2,217.6,197.7z M225,197.7c0-2-0.8-3.3-2.3-3.3c-1.4,0-2.3,1.3-2.3,3.3c0,2,0.8,3.3,2.3,3.3
		C224.2,201,225,199.7,225,197.7z"/>
	<path class="st1" d="M230.1,199v-6.6h2.8v6.3c0,1.7,0.5,2.2,1.5,2.2c0.9,0,1.4-0.4,2.2-1.3v-7.2h2.8V203H237l-0.2-1.5h-0.1
		c-0.9,1.1-1.9,1.8-3.4,1.8C231.1,203.3,230.1,201.7,230.1,199z"/>
	<path class="st1" d="M242.3,192.4h2.3l0.2,1.4h0.1c0.9-0.9,2-1.7,3.5-1.7c2.3,0,3.3,1.6,3.3,4.3v6.6h-2.8v-6.3
		c0-1.6-0.5-2.2-1.5-2.2c-0.9,0-1.4,0.4-2.2,1.2v7.3h-2.8V192.4z"/>
	<path class="st1" d="M253.9,197.7c0-3.5,2.2-5.6,4.5-5.6c1.2,0,1.9,0.5,2.7,1.2l-0.1-1.7v-3.7h2.8V203h-2.3l-0.2-1.1h-0.1
		c-0.8,0.8-1.8,1.4-2.9,1.4C255.6,203.3,253.9,201.2,253.9,197.7z M260.9,199.9v-4.7c-0.6-0.6-1.3-0.8-2-0.8c-1.2,0-2.2,1.1-2.2,3.3
		c0,2.2,0.8,3.3,2.2,3.3C259.7,201,260.3,200.7,260.9,199.9z"/>
	<path class="st1" d="M270.7,189.1c0-0.9,0.7-1.5,1.7-1.5c1,0,1.7,0.6,1.7,1.5c0,0.9-0.7,1.5-1.7,1.5
		C271.4,190.7,270.7,190,270.7,189.1z M271,192.4h2.8V203H271V192.4z"/>
	<path class="st1" d="M277.2,199.3v-4.7h-1.5v-2.1l1.6-0.1l0.3-2.8h2.3v2.8h2.6v2.2H280v4.7c0,1.2,0.5,1.8,1.4,1.8
		c0.3,0,0.8-0.1,1-0.2l0.5,2c-0.6,0.2-1.3,0.4-2.2,0.4C278.2,203.3,277.2,201.7,277.2,199.3z"/>
	<path class="st1" d="M284.5,201.4c0-1,0.7-1.8,1.7-1.8c1,0,1.7,0.8,1.7,1.8c0,1-0.7,1.8-1.7,1.8
		C285.2,203.3,284.5,202.5,284.5,201.4z"/>
</g>
</svg>
