<?xml version="1.0" encoding="utf-8"?>
<!-- Generator: Adobe Illustrator 21.0.0, SVG Export Plug-In . SVG Version: 6.00 Build 0)  -->
<svg version="1.1" id="레이어_1" xmlns="http://www.w3.org/2000/svg" xmlns:xlink="http://www.w3.org/1999/xlink" x="0px"
	 y="0px" viewBox="0 0 510 178" style="enable-background:new 0 0 510 178;" xml:space="preserve">
<style type="text/css">
	.st0{enable-background:new    ;}
	.st1{fill:#080808;}
</style>
<g class="st0">
	<path class="st1" d="M1.9,7.7h4.4v1.5H4v15.5h2.3v1.5H1.9V7.7z"/>
	<path class="st1" d="M7.7,21.3L9,19.5c0.8,0.8,1.9,1.4,3.1,1.4c1.4,0,2.4-0.7,2.4-2c0-1.4-0.8-2.2-3.9-2.2v-2
		c2.6,0,3.4-0.9,3.4-2.1c0-1.1-0.7-1.7-1.9-1.8c-1,0-1.8,0.5-2.7,1.3l-1.4-1.7c1.2-1.1,2.6-1.7,4.2-1.7c2.7,0,4.6,1.3,4.6,3.7
		c0,1.5-0.9,2.6-2.4,3.2v0.1c1.6,0.4,2.8,1.6,2.8,3.5c0,2.6-2.3,4.1-4.9,4.1C10.2,23.3,8.7,22.4,7.7,21.3z"/>
	<path class="st1" d="M27.1,11.9c-0.5-0.6-1.3-1-2.2-1c-1.6,0-2.9,1.2-3.1,4.7c0.8-0.9,2-1.5,2.9-1.5c2.4,0,4,1.4,4,4.4
		c0,2.9-2,4.7-4.4,4.7c-2.7,0-5.1-2.1-5.1-7.1c0-5.2,2.6-7.5,5.4-7.5c1.7,0,3,0.7,3.8,1.6L27.1,11.9z M26.2,18.6
		c0-1.7-0.8-2.5-2-2.5c-0.8,0-1.6,0.4-2.3,1.5c0.3,2.6,1.2,3.6,2.4,3.6C25.4,21.2,26.2,20.3,26.2,18.6z"/>
	<path class="st1" d="M30.9,21.4c0-1,0.7-1.8,1.7-1.8c1,0,1.7,0.8,1.7,1.8c0,1-0.7,1.8-1.7,1.8C31.7,23.3,30.9,22.5,30.9,21.4z"/>
	<path class="st1" d="M36.6,19.5c0-1.8,1.1-3,2.4-3.7v-0.1c-1.1-0.8-1.9-1.8-1.9-3.3c0-2.3,1.8-3.7,4.2-3.7c2.5,0,4.1,1.5,4.1,3.7
		c0,1.4-0.9,2.5-1.8,3.2v0.1c1.3,0.7,2.4,1.8,2.4,3.8c0,2.1-1.9,3.8-4.7,3.8C38.6,23.3,36.6,21.7,36.6,19.5z M43.5,19.4
		c0-1.5-1.3-2.1-3.1-2.8c-0.8,0.6-1.3,1.6-1.3,2.6c0,1.3,1,2.1,2.4,2.1C42.6,21.3,43.5,20.6,43.5,19.4z M43.2,12.6
		c0-1.1-0.7-2-1.9-2c-0.9,0-1.7,0.6-1.7,1.7c0,1.3,1.1,2,2.6,2.6C42.9,14.2,43.2,13.4,43.2,12.6z"/>
	<path class="st1" d="M48.3,21.4c0-1,0.7-1.8,1.7-1.8c1,0,1.7,0.8,1.7,1.8c0,1-0.7,1.8-1.7,1.8C49,23.3,48.3,22.5,48.3,21.4z"/>
	<path class="st1" d="M53.6,21.3l1.3-1.8c0.8,0.8,1.8,1.4,3.1,1.4c1.5,0,2.5-0.9,2.5-2.6c0-1.6-1-2.5-2.4-2.5
		c-0.8,0-1.3,0.2-2.1,0.7l-1.3-0.8l0.4-6.8h7.5v2.3h-5.1l-0.3,3c0.6-0.3,1-0.4,1.7-0.4c2.4,0,4.3,1.4,4.3,4.5c0,3.1-2.3,4.9-4.9,4.9
		C56.1,23.3,54.6,22.4,53.6,21.3z"/>
	<path class="st1" d="M65.1,15.9c0-4.9,1.9-7.2,4.8-7.2c2.8,0,4.7,2.4,4.7,7.2s-1.9,7.4-4.7,7.4C67,23.3,65.1,20.8,65.1,15.9z
		 M72,15.9c0-3.9-0.9-5.1-2.1-5.1c-1.2,0-2.1,1.1-2.1,5.1c0,4,0.9,5.2,2.1,5.2C71.1,21.1,72,19.9,72,15.9z"/>
	<path class="st1" d="M76.8,21.4c0-1,0.7-1.8,1.7-1.8c1,0,1.7,0.8,1.7,1.8c0,1-0.7,1.8-1.7,1.8C77.6,23.3,76.8,22.5,76.8,21.4z"/>
	<path class="st1" d="M90.4,11.9c-0.5-0.6-1.3-1-2.2-1c-1.6,0-2.9,1.2-3.1,4.7c0.8-0.9,2-1.5,2.9-1.5c2.4,0,4,1.4,4,4.4
		c0,2.9-2,4.7-4.4,4.7c-2.7,0-5.1-2.1-5.1-7.1c0-5.2,2.6-7.5,5.4-7.5c1.7,0,3,0.7,3.8,1.6L90.4,11.9z M89.5,18.6
		c0-1.7-0.8-2.5-2-2.5c-0.8,0-1.6,0.4-2.3,1.5c0.3,2.6,1.2,3.6,2.4,3.6C88.7,21.2,89.5,20.3,89.5,18.6z"/>
	<path class="st1" d="M100.1,11.3h-6.3V8.9h9.3v1.7c-3.3,4-3.7,6.9-3.9,12.4h-2.8C96.6,18.1,97.4,15,100.1,11.3z"/>
	<path class="st1" d="M105,24.8h2.3V9.2H105V7.7h4.4v18.5H105V24.8z"/>
	<path class="st1" d="M127.8,16.1v2H112v-2H127.8z M113.6,11.3c0-2.2,2.5-3.6,6.3-3.6c3.8,0,6.3,1.4,6.3,3.6s-2.5,3.6-6.3,3.6
		C116.1,14.9,113.6,13.5,113.6,11.3z M116.5,22.3h9.6v2H114v-5.1h2.5V22.3z M116.2,11.3c0,1.1,1.4,1.6,3.7,1.6
		c2.4,0,3.8-0.5,3.8-1.6c0-1.1-1.4-1.6-3.8-1.6C117.6,9.6,116.2,10.2,116.2,11.3z"/>
	<path class="st1" d="M133.5,21.3l1.3-1.8c0.8,0.8,1.9,1.4,3.1,1.4c1.4,0,2.4-0.7,2.4-2c0-1.4-0.8-2.2-3.9-2.2v-2
		c2.6,0,3.4-0.9,3.4-2.1c0-1.1-0.7-1.7-1.9-1.8c-1,0-1.8,0.5-2.7,1.3l-1.4-1.7c1.2-1.1,2.6-1.7,4.2-1.7c2.7,0,4.6,1.3,4.6,3.7
		c0,1.5-0.9,2.6-2.4,3.2v0.1c1.6,0.4,2.8,1.6,2.8,3.5c0,2.6-2.3,4.1-4.9,4.1C136,23.3,134.5,22.4,133.5,21.3z"/>
	<path class="st1" d="M152.9,11.9c-0.5-0.6-1.3-1-2.2-1c-1.6,0-2.9,1.2-3.1,4.7c0.8-0.9,2-1.5,2.9-1.5c2.4,0,4,1.4,4,4.4
		c0,2.9-2,4.7-4.4,4.7c-2.7,0-5.1-2.1-5.1-7.1c0-5.2,2.6-7.5,5.4-7.5c1.7,0,3,0.7,3.8,1.6L152.9,11.9z M152.1,18.6
		c0-1.7-0.8-2.5-2-2.5c-0.8,0-1.6,0.4-2.3,1.5c0.3,2.6,1.2,3.6,2.4,3.6C151.2,21.2,152.1,20.3,152.1,18.6z"/>
	<path class="st1" d="M163.2,19.6c1.4-0.1,2.8-0.2,4.2-0.4l0.2,1.8c-3.8,0.7-7.9,0.7-11,0.7l-0.3-2c1.3,0,2.8,0,4.4,0v-1.5
		c-1.9-0.4-3.1-1.5-3.1-3.2c0-2,1.8-3.3,4.3-3.3c2.5,0,4.3,1.3,4.3,3.3c0,1.6-1.2,2.8-3.1,3.2V19.6z M167.2,11h-10.5v-2h4V7.2h2.5
		v1.9h4V11z M161.9,16.4c1.2,0,2-0.5,2-1.4c0-0.9-0.8-1.4-2-1.4c-1.2,0-2,0.5-2,1.4C160,15.9,160.8,16.4,161.9,16.4z M170.8,7.1
		v17.5h-2.5V7.1H170.8z"/>
	<path class="st1" d="M173.9,25.5c1.5-0.6,2.3-1.5,2.3-2.6c-0.1,0-0.1,0-0.2,0c-0.9,0-1.7-0.6-1.7-1.7c0-1,0.8-1.7,1.8-1.7
		c1.3,0,2,1,2,2.8c0,2.2-1.3,3.9-3.6,4.7L173.9,25.5z"/>
	<path class="st1" d="M184.3,19.5c0-1.8,1.1-3,2.4-3.7v-0.1c-1.1-0.8-1.9-1.8-1.9-3.3c0-2.3,1.8-3.7,4.2-3.7c2.5,0,4.1,1.5,4.1,3.7
		c0,1.4-0.9,2.5-1.8,3.2v0.1c1.3,0.7,2.4,1.8,2.4,3.8c0,2.1-1.9,3.8-4.7,3.8C186.3,23.3,184.3,21.7,184.3,19.5z M191.1,19.4
		c0-1.5-1.3-2.1-3.1-2.8c-0.8,0.6-1.3,1.6-1.3,2.6c0,1.3,1,2.1,2.4,2.1C190.2,21.3,191.1,20.6,191.1,19.4z M190.9,12.6
		c0-1.1-0.7-2-1.9-2c-1,0-1.7,0.6-1.7,1.7c0,1.3,1.1,2,2.6,2.6C190.5,14.2,190.9,13.4,190.9,12.6z"/>
	<path class="st1" d="M202.9,9.3c0,4.9-1.4,8.9-6.3,11.8l-1.5-1.7c3.5-2.1,5-4.6,5.3-8H196v-2H202.9z M210.4,7.1v17.5H208v-8.9h-1.6
		v8.1h-2.3V7.6h2.3v6.1h1.6V7.1H210.4z"/>
	<path class="st1" d="M212.9,19.1c3.1,0,7.4,0,11.1-0.6l0.2,1.8c-3.8,0.8-7.9,0.8-10.9,0.8L212.9,19.1z M223.3,12.6
		c0,2.5-2.1,4.3-4.8,4.3c-2.7,0-4.8-1.8-4.8-4.3c0-2.5,2.1-4.3,4.8-4.3C221.2,8.3,223.3,10.1,223.3,12.6z M216.1,12.6
		c0,1.4,1,2.2,2.4,2.2c1.3,0,2.4-0.8,2.4-2.2c0-1.4-1-2.2-2.4-2.2C217.1,10.4,216.1,11.2,216.1,12.6z M227.4,7.1v17.6h-2.5V7.1
		H227.4z"/>
	<path class="st1" d="M250.5,14.3v2h-15.8v-2h6.6v-1.6h2.5v1.6H250.5z M235.3,11.8c3.2-0.2,4.9-1.2,5.4-2.3h-4.6V7.6H249v1.9h-4.6
		c0.5,1.1,2.2,2.1,5.4,2.3l-0.8,1.9c-3.3-0.3-5.5-1.4-6.4-3c-0.9,1.6-3.1,2.8-6.4,3L235.3,11.8z M239,22.6h10v1.9h-12.5v-4.6h9.6v-1
		h-9.6v-1.8h12.1v4.5H239V22.6z"/>
	<path class="st1" d="M268,15.9v2h-6.5v3H259v-3h-6.9v-2H268z M252.8,13.1c3.4-0.4,5.1-1.8,5.4-3.2h-4.7v-2h13v2h-4.7
		c0.3,1.4,2,2.8,5.4,3.2l-0.9,2c-3.2-0.4-5.4-1.7-6.3-3.5c-0.9,1.8-3,3.1-6.3,3.5L252.8,13.1z M256.5,22.3h9.7v2H254v-5h2.5V22.3z"
		/>
	<path class="st1" d="M280.9,17.6c-1.4,0.3-2.9,0.5-4.3,0.6v5.9h-2.5v-5.8c-1.5,0.1-2.9,0.1-4.2,0.1l-0.3-2.1c3.1,0,7.4,0,11.1-0.6
		L280.9,17.6z M270.7,11.6c0-2.2,2-3.7,4.6-3.7s4.6,1.5,4.6,3.7c0,2.2-1.9,3.7-4.6,3.7S270.7,13.7,270.7,11.6z M273.1,11.6
		c0,1.1,0.9,1.7,2.2,1.7c1.3,0,2.2-0.6,2.2-1.7c0-1.1-0.9-1.7-2.2-1.7C274,9.9,273.1,10.5,273.1,11.6z M284.3,7.1v17.5h-2.5V7.1
		H284.3z"/>
	<path class="st1" d="M302.2,16.3c-2.5,0.4-4.7,0.5-8.3,0.5h-1.5V8.1h8.4v2h-5.9v1.3h5.4v1.9h-5.4v1.4c3,0,4.9-0.1,7.1-0.4
		L302.2,16.3z M294.3,18.3h11.6v6.2h-11.6V18.3z M296.8,22.5h6.7v-2.3h-6.7V22.5z M305.9,7.2v10.4h-2.5V7.2H305.9z"/>
	<path class="st1" d="M309.1,25.5c1.5-0.6,2.3-1.5,2.3-2.6c-0.1,0-0.1,0-0.2,0c-0.9,0-1.7-0.6-1.7-1.7c0-1,0.8-1.7,1.8-1.7
		c1.3,0,2,1,2,2.8c0,2.2-1.3,3.9-3.6,4.7L309.1,25.5z"/>
	<path class="st1" d="M319,21.3l1.3-1.8c0.8,0.8,1.8,1.4,3.1,1.4c1.5,0,2.5-0.9,2.5-2.6c0-1.6-1-2.5-2.4-2.5c-0.8,0-1.3,0.2-2.1,0.7
		l-1.3-0.8l0.4-6.8h7.5v2.3H323l-0.3,3c0.6-0.3,1-0.4,1.7-0.4c2.4,0,4.3,1.4,4.3,4.5c0,3.1-2.3,4.9-4.9,4.9
		C321.6,23.3,320.1,22.4,319,21.3z"/>
	<path class="st1" d="M330.6,15.9c0-4.9,1.9-7.2,4.8-7.2c2.8,0,4.7,2.4,4.7,7.2s-1.9,7.4-4.7,7.4C332.5,23.3,330.6,20.8,330.6,15.9z
		 M337.5,15.9c0-3.9-0.9-5.1-2.1-5.1c-1.2,0-2.1,1.1-2.1,5.1c0,4,0.9,5.2,2.1,5.2C336.5,21.1,337.5,19.9,337.5,15.9z"/>
	<path class="st1" d="M349.3,9.3c0,4.9-1.4,8.9-6.3,11.8l-1.5-1.7c3.5-2.1,5-4.6,5.3-8h-4.4v-2H349.3z M356.7,7.1v17.5h-2.4v-8.9
		h-1.6v8.1h-2.3V7.6h2.3v6.1h1.6V7.1H356.7z"/>
	<path class="st1" d="M359.3,19.1c3.1,0,7.4,0,11.1-0.6l0.2,1.8c-3.8,0.8-7.9,0.8-10.9,0.8L359.3,19.1z M369.7,12.6
		c0,2.5-2.1,4.3-4.8,4.3c-2.7,0-4.8-1.8-4.8-4.3c0-2.5,2.1-4.3,4.8-4.3C367.6,8.3,369.7,10.1,369.7,12.6z M362.5,12.6
		c0,1.4,1,2.2,2.4,2.2c1.3,0,2.4-0.8,2.4-2.2c0-1.4-1-2.2-2.4-2.2C363.5,10.4,362.5,11.2,362.5,12.6z M373.8,7.1v17.6h-2.5V7.1
		H373.8z"/>
	<path class="st1" d="M388.6,9.3c0,4.9-1.4,8.9-6.3,11.8l-1.5-1.7c3.5-2.1,5-4.6,5.3-8h-4.4v-2H388.6z M396,7.1v17.5h-2.4v-8.9h-1.6
		v8.1h-2.3V7.6h2.3v6.1h1.6V7.1H396z"/>
	<path class="st1" d="M403.5,17.1c-2.7,0-4.8-1.9-4.8-4.4c0-2.6,2.1-4.4,4.8-4.4s4.7,1.9,4.7,4.4C408.3,15.2,406.2,17.1,403.5,17.1z
		 M403.5,15c1.3,0,2.3-0.9,2.3-2.3c0-1.4-1-2.3-2.3-2.3c-1.3,0-2.3,0.8-2.3,2.3C401.2,14.1,402.2,15,403.5,15z M413.5,22.3v2h-12.1
		v-5.9h2.5v3.9H413.5z M413,19.7h-2.5V7.2h2.5V19.7z"/>
	<path class="st1" d="M421.4,19c1.7-0.1,3.4-0.2,5-0.4l0.1,1.8c-3.6,0.6-7.5,0.7-10.5,0.7l-0.2-2.1c1,0,2,0,3.1,0v-5.2h2.5V19z
		 M422.8,16.8c0.4-2.5,0.5-4.4,0.5-5.9h-6.5v-2h9v1.4c0,1.7,0,3.8-0.5,6.7L422.8,16.8z M432.1,16.3h-2.4v8.4h-2.5V7.1h2.5v7h2.4
		V16.3z"/>
	<path class="st1" d="M448.6,16.3c-2.5,0.4-4.7,0.5-8.3,0.5h-1.5V8.1h8.4v2h-5.9v1.3h5.4v1.9h-5.4v1.4c3,0,4.9-0.1,7.1-0.4
		L448.6,16.3z M440.7,18.3h11.6v6.2h-11.6V18.3z M443.1,22.5h6.7v-2.3h-6.7V22.5z M452.3,7.2v10.4h-2.5V7.2H452.3z"/>
	<path class="st1" d="M471.1,14.5v2h-15.8v-2H471.1z M458.9,9.5h-2.2V7.6h13v1.9h-2.2v2.2h2.1v1.9h-12.8v-1.9h2.1V9.5z M459.6,22.7
		h10v1.8h-12.5v-4.4h9.6v-0.9h-9.6v-1.8h12.1v4.3h-9.6V22.7z M464.9,9.5h-3.6v2.2h3.6V9.5z"/>
	<path class="st1" d="M472.9,25.5c1.5-0.6,2.3-1.5,2.3-2.6c-0.1,0-0.1,0-0.2,0c-0.9,0-1.7-0.6-1.7-1.7c0-1,0.8-1.7,1.8-1.7
		c1.3,0,2,1,2,2.8c0,2.2-1.3,3.9-3.6,4.7L472.9,25.5z"/>
</g>
<g class="st0">
	<path class="st1" d="M8.7,41.9c-0.5-0.6-1.3-1-2.2-1c-1.6,0-2.9,1.2-3.1,4.7c0.8-0.9,2-1.5,2.9-1.5c2.4,0,4,1.4,4,4.4
		c0,2.9-2,4.7-4.4,4.7c-2.7,0-5.1-2.1-5.1-7.1c0-5.2,2.6-7.5,5.4-7.5c1.7,0,3,0.7,3.8,1.6L8.7,41.9z M7.8,48.6c0-1.7-0.8-2.5-2-2.5
		c-0.8,0-1.6,0.4-2.3,1.5c0.3,2.6,1.2,3.6,2.4,3.6C7,51.2,7.8,50.3,7.8,48.6z"/>
	<path class="st1" d="M18.5,41.3h-6.3v-2.3h9.3v1.7c-3.3,4-3.7,6.9-3.9,12.4h-2.8C15,48.1,15.8,45,18.5,41.3z"/>
	<path class="st1" d="M30.8,39.3c0,4.9-1.4,8.9-6.3,11.8L23,49.3c3.5-2.1,5-4.6,5.3-8h-4.4v-2H30.8z M38.2,37.1v17.5h-2.4v-8.9h-1.6
		v8.1h-2.3V37.6h2.3v6.1h1.6v-6.6H38.2z"/>
	<path class="st1" d="M40.8,49.1c3.1,0,7.4,0,11.1-0.6l0.2,1.8c-3.8,0.8-7.9,0.8-10.9,0.8L40.8,49.1z M51.1,42.6
		c0,2.5-2.1,4.3-4.8,4.3c-2.7,0-4.8-1.8-4.8-4.3c0-2.5,2.1-4.3,4.8-4.3C49,38.3,51.1,40.1,51.1,42.6z M43.9,42.6
		c0,1.4,1,2.2,2.4,2.2c1.3,0,2.4-0.8,2.4-2.2c0-1.4-1-2.2-2.4-2.2C45,40.4,43.9,41.2,43.9,42.6z M55.3,37.1v17.6h-2.5V37.1H55.3z"/>
	<path class="st1" d="M71.6,47.1c-1.9-0.6-3.2-1.8-4-3.4c-0.8,1.7-2.1,3-4.2,3.7l-1.3-2c2.8-0.9,4.1-3.1,4.1-5.3h-3.5v-2h9.5v2h-3.4
		c0.1,2,1.3,4.1,4,5L71.6,47.1z M64.6,48.5h11.7v6.2h-2.5v-4.2h-9.2V48.5z M78.6,43.4h-2.3v4.3h-2.5V37.1h2.5v4.2h2.3V43.4z"/>
	<path class="st1" d="M94.6,37.1v9.4h-2.5V43h-2.8c-0.5,1.9-2.3,3.2-4.5,3.2c-2.6,0-4.6-1.7-4.6-4.2s2-4.2,4.6-4.2
		c2.2,0,4,1.3,4.5,3.1h2.8v-3.9H94.6z M87,42c0-1.3-0.9-2.1-2.2-2.1c-1.3,0-2.2,0.8-2.2,2.1c0,1.3,0.9,2.1,2.2,2.1
		C86.1,44.1,87,43.3,87,42z M92.1,47.3h2.5v7.1H83v-7.1h2.5V49h6.6V47.3z M92.1,50.9h-6.6v1.6h6.6V50.9z"/>
	<path class="st1" d="M117.6,48.7h-6.7v6h-2.5v-6h-6.6v-2h15.8V48.7z M116,45.4c-3.1-0.5-5.2-1.9-6.4-3.8c-1.1,1.9-3.3,3.3-6.4,3.8
		l-1-2c4-0.6,6-2.8,6-4.9v-0.8h2.7v0.8c0,2,2,4.3,6,4.9L116,45.4z"/>
	<path class="st1" d="M135.1,45v1.8h-15.8V45H135.1z M123.5,52.8h10.1v1.7H121v-4.2h9.7v-0.9H121v-1.7h12.2v4.2h-9.7V52.8z
		 M130.7,39.1h-9.5v-1.7h12v4.1h-9.5v0.9h9.8v1.7h-12.2V40h9.5V39.1z"/>
	<path class="st1" d="M141.1,49.1c3.1,0,7.4,0,11.1-0.6l0.2,1.8c-3.8,0.8-7.9,0.8-10.9,0.8L141.1,49.1z M151.5,42.6
		c0,2.5-2.1,4.3-4.8,4.3c-2.7,0-4.8-1.8-4.8-4.3c0-2.5,2.1-4.3,4.8-4.3C149.4,38.3,151.5,40.1,151.5,42.6z M144.3,42.6
		c0,1.4,1,2.2,2.4,2.2c1.3,0,2.4-0.8,2.4-2.2c0-1.4-1-2.2-2.4-2.2C145.3,40.4,144.3,41.2,144.3,42.6z M155.6,37.1v17.6h-2.5V37.1
		H155.6z"/>
	<path class="st1" d="M167.8,38.7v11.8h-8.4V38.7H167.8z M161.8,40.7v7.8h3.5v-7.8H161.8z M173,37.1v17.5h-2.5V37.1H173z"/>
	<path class="st1" d="M186.3,40.9H176v-2h3.9v-1.9h2.5V39h3.9L186.3,40.9z M181.1,48.3c-2.5,0-4.3-1.4-4.3-3.4c0-2,1.8-3.4,4.3-3.4
		s4.3,1.4,4.3,3.4C185.4,46.9,183.6,48.3,181.1,48.3z M181,52.3h9.4v2h-11.9v-5.1h2.5V52.3z M181.1,46.4c1.1,0,1.9-0.5,1.9-1.5
		c0-0.9-0.8-1.5-1.9-1.5c-1.1,0-1.9,0.5-1.9,1.5C179.2,45.9,180,46.4,181.1,46.4z M192.1,42.5v2.1h-2.3v5.7h-2.5V37.1h2.5v5.3H192.1
		z"/>
	<path class="st1" d="M196.6,48.4c2.5,0,4.6-0.2,6.8-0.6l0.2,2.1c-2.6,0.5-5,0.6-8.1,0.6h-1.5V38.8h8.2v2h-5.7V48.4z M209.7,45.7
		h-2.5v9h-2.5V37.1h2.5v6.5h2.5V45.7z"/>
	<path class="st1" d="M211.5,51.4c0-1,0.7-1.8,1.7-1.8c1,0,1.7,0.8,1.7,1.8c0,1-0.7,1.8-1.7,1.8C212.2,53.3,211.5,52.5,211.5,51.4z"
		/>
</g>
<g class="st0">
	<path class="st1" d="M16.7,78.9H9.9v5.7H7.4v-5.7H0.8v-2h15.8V78.9z M2.4,71.7c0-2.4,2.6-3.9,6.3-3.9c3.7,0,6.3,1.6,6.3,3.9
		c0,2.4-2.6,4-6.3,4C5,75.6,2.4,74.1,2.4,71.7z M4.9,71.7c0,1.3,1.5,2,3.8,2c2.3,0,3.7-0.7,3.7-2c0-1.3-1.5-1.9-3.7-1.9
		C6.4,69.7,4.9,70.4,4.9,71.7z"/>
	<path class="st1" d="M21.8,78.5c2.7,0,4.9-0.2,7.3-0.6l0.3,2c-2.8,0.5-5.4,0.6-8.6,0.6h-1.6v-7.2h5.7v-2.8h-5.7v-2h8.3v6.8h-5.7
		V78.5z M32.8,67.1v17.6h-2.5V67.1H32.8z"/>
	<path class="st1" d="M51.6,75.6v2H35.8v-2H51.6z M40.1,82.3H50v2H37.6V79h2.5V82.3z M49.9,73.9H37.7v-6.1h2.5v4.1h9.6V73.9z"/>
	<path class="st1" d="M67.8,75.4c-2.8,0.6-5.5,0.7-8,0.7h-1.5V68h2.5V74c2.1,0,4.3-0.2,6.7-0.7L67.8,75.4z M59.9,77.8h11.4v6.6H59.9
		V77.8z M62.4,82.5h6.5v-2.7h-6.5V82.5z M73.7,72.9h-2.3V77h-2.5v-9.8h2.5v3.7h2.3V72.9z"/>
	<path class="st1" d="M78.2,78.4c2.5,0,4.6-0.2,6.8-0.6l0.2,2.1c-2.6,0.5-5,0.6-8.1,0.6h-1.5V68.8h8.2v2h-5.7V78.4z M91.3,75.7h-2.5
		v9h-2.5V67.1h2.5v6.5h2.5V75.7z"/>
	<path class="st1" d="M108.4,76.6v2H92.5v-2H108.4z M104,69.4h-9.5v-1.9h12v4.9H97v1.2h9.8v1.9H94.5v-4.9h9.5V69.4z M97,82.3h9.8v2
		H94.5v-4.8H97V82.3z"/>
	<path class="st1" d="M124.6,70.9h-10.3v-2h3.9v-1.9h2.5V69h3.9L124.6,70.9z M119.5,78.3c-2.5,0-4.3-1.4-4.3-3.4
		c0-2,1.8-3.4,4.3-3.4s4.3,1.4,4.3,3.4C123.8,76.9,122,78.3,119.5,78.3z M119.3,82.3h9.4v2h-11.9v-5.1h2.5V82.3z M119.5,76.4
		c1.1,0,1.9-0.5,1.9-1.5c0-0.9-0.8-1.5-1.9-1.5c-1.1,0-1.9,0.5-1.9,1.5C117.6,75.9,118.4,76.4,119.5,76.4z M130.4,72.5v2.1h-2.3v5.7
		h-2.5V67.1h2.5v5.3H130.4z"/>
	<path class="st1" d="M142.1,70.7h-10.3v-2h3.9V67h2.5v1.6h3.9V70.7z M137,77.6c-2.5,0-4.3-1.3-4.3-3.2c0-1.9,1.8-3.2,4.3-3.2
		c2.5,0,4.3,1.3,4.3,3.2C141.2,76.3,139.5,77.6,137,77.6z M133.9,78.8h11.7v5.8h-2.5v-3.8h-9.2V78.8z M137,75.7
		c1.1,0,1.9-0.4,1.9-1.3c0-0.9-0.8-1.3-1.9-1.3c-1.1,0-1.9,0.4-1.9,1.3C135.1,75.3,135.8,75.7,137,75.7z M147.9,73.7h-2.3v4.4h-2.5
		v-11h2.5v4.5h2.3V73.7z"/>
	<path class="st1" d="M158.6,68.9c0,5.4-1.8,9.7-8,12.7l-1.3-2c4.5-2.1,6.4-4.9,6.8-8.8h-5.8v-2H158.6z M163.9,67.1v17.5h-2.5V67.1
		H163.9z"/>
	<path class="st1" d="M166.8,79.1c3.1,0,7.4,0,11.1-0.6l0.2,1.8c-3.8,0.8-7.9,0.8-10.9,0.8L166.8,79.1z M177.2,72.6
		c0,2.5-2.1,4.3-4.8,4.3c-2.7,0-4.8-1.8-4.8-4.3c0-2.5,2.1-4.3,4.8-4.3C175.1,68.3,177.2,70.1,177.2,72.6z M170,72.6
		c0,1.4,1,2.2,2.4,2.2c1.3,0,2.4-0.8,2.4-2.2c0-1.4-1-2.2-2.4-2.2C171,70.4,170,71.2,170,72.6z M181.4,67.1v17.6h-2.5V67.1H181.4z"
		/>
	<path class="st1" d="M204.4,74.3v2h-15.8v-2h6.6v-1.6h2.5v1.6H204.4z M189.2,71.8c3.2-0.2,4.9-1.2,5.4-2.3H190v-1.9h12.9v1.9h-4.6
		c0.5,1.1,2.2,2.1,5.4,2.3l-0.8,1.9c-3.3-0.3-5.5-1.4-6.4-3c-0.9,1.6-3.1,2.8-6.4,3L189.2,71.8z M192.9,82.6h10v1.9h-12.5v-4.6h9.6
		v-1h-9.6v-1.8h12.1v4.5h-9.6V82.6z"/>
	<path class="st1" d="M215.4,77.6c-1.9-0.6-3.2-1.9-4-3.5c-0.8,1.7-2.1,3.1-4.2,3.8l-1.3-2c2.9-0.9,4.1-3.2,4.1-5.4v-0.2h-3.4v-2
		h9.4v2h-3.4v0.2c0,2.1,1.2,4.2,4,5.1L215.4,77.6z M221.1,82.3v2h-11.9v-5.5h2.5v3.5H221.1z M218.2,71.7v-4.5h2.5v12.8h-2.5v-6.2
		h-2.7v-2H218.2z"/>
	<path class="st1" d="M223.6,79.1c3.1,0,7.4,0,11.1-0.6l0.2,1.8c-3.8,0.8-7.9,0.8-10.9,0.8L223.6,79.1z M234,72.6
		c0,2.5-2.1,4.3-4.8,4.3c-2.7,0-4.8-1.8-4.8-4.3c0-2.5,2.1-4.3,4.8-4.3C231.9,68.3,234,70.1,234,72.6z M226.8,72.6
		c0,1.4,1,2.2,2.4,2.2c1.3,0,2.4-0.8,2.4-2.2c0-1.4-1-2.2-2.4-2.2C227.8,70.4,226.8,71.2,226.8,72.6z M238.1,67.1v17.6h-2.5V67.1
		H238.1z"/>
	<path class="st1" d="M261.1,73.6v2h-15.8v-2h4.1c0.5-1.6,0.6-2.9,0.7-3.9h-3.3v-2h5.8v0.9c0,1.1,0,2.7-0.6,4.9h4.4
		c0.4-1.6,0.5-2.8,0.6-3.9h-3.3v-2h5.8v1.2c0,1.2,0,2.7-0.5,4.6H261.1z M249.8,82.6h9.7v1.9h-12.2v-7.7h12.1v1.8h-9.5v1.1h9.1v1.8
		h-9.1V82.6z"/>
	<path class="st1" d="M267.8,77.1c-2.7,0-4.8-1.9-4.8-4.4c0-2.6,2.1-4.4,4.8-4.4s4.7,1.9,4.7,4.4C272.6,75.2,270.5,77.1,267.8,77.1z
		 M267.8,75c1.3,0,2.3-0.9,2.3-2.3c0-1.4-1-2.3-2.3-2.3c-1.3,0-2.3,0.8-2.3,2.3C265.5,74.1,266.5,75,267.8,75z M277.8,82.3v2h-12.1
		v-5.9h2.5v3.9H277.8z M277.3,79.7h-2.5V67.2h2.5V79.7z"/>
	<path class="st1" d="M288.5,69.4c-1.2,0.7-1.8,1.5-1.9,2.7c0.1,0,0.1,0,0.2,0c0.8,0,1.5,0.6,1.5,1.5c0,1-0.6,1.6-1.5,1.6
		c-1.2,0-1.8-0.9-1.8-2.6c0-2,0.9-3.4,2.8-4.4L288.5,69.4z"/>
	<path class="st1" d="M305.4,67.1v17.6h-2.5v-6.5h-3.6c-0.8,1.7-2.1,2.7-3.8,2.7c-2.6,0-4.5-2.4-4.5-6.3c0-3.8,1.9-6.2,4.5-6.2
		c1.6,0,2.9,0.9,3.7,2.4h3.7v-3.6H305.4z M297.7,74.6c0-2.6-0.9-4-2.2-4c-1.3,0-2.1,1.4-2.1,4c0,2.6,0.9,4,2.1,4
		C296.8,78.6,297.7,77.2,297.7,74.6z M302.9,76.1v-3.4h-3c0.1,0.6,0.2,1.2,0.2,1.9c0,0.6,0,1.1-0.1,1.6H302.9z"/>
	<path class="st1" d="M324.1,76v2h-15.8v-2H324.1z M319.7,69.4h-9.5v-1.9h12v4.7h-9.5v1h9.8V75h-12.3v-4.7h9.5V69.4z M310.2,79h12
		v5.5h-12V79z M312.7,82.5h7.1V81h-7.1V82.5z"/>
	<path class="st1" d="M326.4,73.7c1.2-0.7,1.8-1.5,1.8-2.7c-0.1,0-0.1,0-0.2,0c-0.8,0-1.5-0.6-1.5-1.5c0-1,0.6-1.6,1.5-1.6
		c1.2,0,1.8,0.9,1.8,2.6c0,2-1,3.4-2.9,4.4L326.4,73.7z"/>
	<path class="st1" d="M341.6,74.6c0,3.9-2,6.3-4.6,6.3s-4.6-2.4-4.6-6.3c0-3.8,2-6.2,4.6-6.2S341.6,70.7,341.6,74.6z M334.8,74.6
		c0,2.6,0.9,4,2.2,4s2.2-1.4,2.2-4c0-2.6-0.9-4-2.2-4S334.8,72,334.8,74.6z M346.4,67.1v17.6h-2.5V67.1H346.4z"/>
	<path class="st1" d="M352.6,78.6c2.5,0,4.6-0.2,6.9-0.6l0.2,2c-2.6,0.5-5,0.6-8.1,0.6h-1.5v-7.2h5.5v-2.8h-5.6v-2h8v6.8h-5.5V78.6z
		 M365.6,75.8h-2.5v8.9h-2.5V67.1h2.5v6.6h2.5V75.8z"/>
	<path class="st1" d="M382.7,75.6v2h-15.8v-2H382.7z M371.2,82.3h9.9v2h-12.4V79h2.5V82.3z M380.9,73.9h-12.1v-6.1h2.5v4.1h9.6V73.9
		z"/>
	<path class="st1" d="M397.7,67.5h2.3v16.4h-2.3v-5.7h-2.4v-2h2.4v-2.4h-2.1c-0.8,2.9-2.5,5.3-5.8,7.3l-1.4-1.7
		c3.5-2.1,5-4.6,5.3-8.1h-4.3v-2h6.8c0,0.9-0.1,1.7-0.2,2.5h1.7V67.5z M403.7,67.1v17.5h-2.4V67.1H403.7z"/>
	<path class="st1" d="M415.4,76c-1.9-0.6-3.2-1.7-4-3.1c-0.8,1.6-2.2,2.9-4.2,3.5l-1.2-2c2.7-0.8,4-2.9,4.1-4.7h-3.4v-2h9.4v2h-3.4
		c0.1,1.8,1.3,3.6,3.9,4.3L415.4,76z M421.2,82.5v1.9h-12v-4.8h9v-1h-9.1v-1.9h11.5v4.7h-9v1.1H421.2z M418.2,70.7v-3.6h2.5V76h-2.5
		v-3.3h-2.7v-2H418.2z"/>
	<path class="st1" d="M439.4,74.2v2h-15.8v-2H439.4z M425.2,70.4c0-1.9,2.3-3,6.3-3c4,0,6.3,1.1,6.3,3c0,1.9-2.3,3-6.3,3
		C427.5,73.3,425.2,72.3,425.2,70.4z M427.9,82.6h10v1.9h-12.5v-4.6h9.6V79h-9.6v-1.8h12.1v4.5h-9.6V82.6z M427.8,70.4
		c0,0.8,1.2,1.2,3.7,1.2c2.5,0,3.7-0.3,3.7-1.2c0-0.8-1.2-1.1-3.7-1.1C429,69.2,427.8,69.6,427.8,70.4z"/>
	<path class="st1" d="M445.9,68.9h6.9v11.3h-6.9V68.9z M448.2,78.3h2.2v-7.4h-2.2V78.3z M460.4,67.1v17.5H458v-8.8h-1.5v8h-2.3V67.4
		h2.3v6.4h1.5v-6.7H460.4z"/>
	<path class="st1" d="M472.1,77.1c-2,0.4-3.8,0.4-7.2,0.4h-1.3v-5.7h5.2v-1.7h-5.2v-2h7.7v5.5H466v1.8c2.5,0,4-0.1,5.8-0.4
		L472.1,77.1z M465.5,78.7h12v5.9H475v-4h-9.5V78.7z M477.5,67.1v10.8H475v-2.6h-2.8v-2h2.8v-1.7h-2.8v-2h2.8v-2.4L477.5,67.1z"/>
	<path class="st1" d="M489.7,77.1c-1.9-0.6-3.2-1.9-4-3.4c-0.8,1.7-2.1,3.1-4.2,3.8l-1.3-2c2.8-1,4.1-3.2,4.1-5.3h-3.4v-2h9.4v2
		h-3.4c0,2,1.3,4.1,4,5L489.7,77.1z M483.1,78.3H495v6.3h-2.5v-4.3h-9.4V78.3z M495,67.2v10.4h-2.5v-4.2h-2.6v-2h2.6v-4.2H495z"/>
</g>
<g class="st0">
	<path class="st1" d="M16.7,110.5v2.1H0.8v-2.1H16.7z M15.3,103.1c0,3-2.8,5.1-6.5,5.1c-3.7,0-6.5-2-6.5-5.1c0-3.1,2.8-5.1,6.5-5.1
		C12.4,98,15.3,100,15.3,103.1z M4.7,103.1c0,1.9,1.7,3,4.1,3c2.4,0,4.1-1.1,4.1-3c0-1.9-1.7-3-4.1-3C6.3,100.1,4.7,101.2,4.7,103.1
		z"/>
	<path class="st1" d="M34.1,110.7v2.1H18.3v-2.1h6.6v-2.6h-4.8v-5.9h9.8v-1.9h-9.8v-2h12.3v5.8h-9.7v2h10.1v2h-5.3v2.6H34.1z"/>
	<path class="st1" d="M55.9,110.5v2.1H40.1v-2.1H55.9z M54.2,106.9H41.9v-8.2h2.5v6.2h9.9V106.9z"/>
	<path class="st1" d="M62.8,98.9c0,4.7-0.6,8.5-3.6,11.8l-1.9-1.4c2.2-2.5,2.9-4.9,3.1-8.4h-2.4v-2H62.8z M72.1,97.1v17.5h-2.5v-6.5
		h-3.3c-0.5,1.3-1.2,2.6-2.1,3.8l-2-1.3c2.2-2.9,2.9-5.8,3.1-9.6h-1.8v-2h4.2c0,0.9,0,1.7-0.1,2.5h2.1v-4.3H72.1z M69.6,106.1v-2.7
		h-2.2c-0.1,1-0.2,1.8-0.5,2.7H69.6z"/>
	<path class="st1" d="M94,97.1v17.6h-2.5v-6.5H88c-0.8,1.7-2.1,2.7-3.8,2.7c-2.6,0-4.5-2.4-4.5-6.3c0-3.8,1.9-6.2,4.5-6.2
		c1.6,0,2.9,0.9,3.7,2.4h3.7v-3.6H94z M86.3,104.6c0-2.6-0.9-4-2.2-4c-1.3,0-2.1,1.4-2.1,4c0,2.6,0.9,4,2.1,4
		C85.4,108.6,86.3,107.2,86.3,104.6z M91.5,106.1v-3.4h-3c0.1,0.6,0.2,1.2,0.2,1.9c0,0.6,0,1.1-0.1,1.6H91.5z"/>
	<path class="st1" d="M112.7,106v2H96.8v-2H112.7z M108.3,99.4h-9.5v-1.9h12v4.7h-9.5v1h9.8v1.9H98.8v-4.7h9.5V99.4z M98.8,109h12
		v5.5h-12V109z M101.3,112.5h7.1V111h-7.1V112.5z"/>
	<path class="st1" d="M123.4,97.4h2.3v16.4h-2.3v-8.2H122c-0.2,3.4-1.7,5.5-3.8,5.5c-2.3,0-3.8-2.4-3.8-6.4c0-4,1.5-6.3,3.8-6.3
		c2.1,0,3.5,1.9,3.8,5.2h1.4V97.4z M119.8,104.7c0-2.7-0.6-4-1.5-4c-0.9,0-1.5,1.3-1.5,4c0,2.7,0.6,4,1.5,4
		C119.2,108.7,119.8,107.4,119.8,104.7z M129.3,97.1v17.5H127V97.1H129.3z"/>
	<path class="st1" d="M145,106h-8.3v-7.7h8.3V106z M145.7,109.7c0.4,1.3,2.1,2.6,5.2,3l-0.9,1.9c-2.8-0.3-4.7-1.5-5.7-2.9
		c-1,1.5-2.9,2.6-5.7,2.9l-0.9-1.9c3.2-0.4,4.8-1.6,5.2-3h-4.4v-2h11.7v2H145.7z M142.5,100.2h-3.4v3.7h3.4V100.2z M152.2,100.9v2.1
		h-2.3v3.9h-2.5v-9.8h2.5v3.8H152.2z"/>
	<path class="st1" d="M164.9,107.9c-1.5,0.3-3.1,0.4-4.6,0.6v5.7h-2.5v-5.5c-1.4,0.1-2.8,0.1-4,0.1l-0.3-2c3.2,0,7.5,0,11.2-0.6
		L164.9,107.9z M154.1,104c2.5-0.5,3.7-1.8,3.8-3.2h-3.3v-1.9h3.4v-1.7h2.5v1.7h3.3v1.9h-3.2c0.1,1.3,1.3,2.5,3.7,3l-1,1.9
		c-1.9-0.4-3.2-1.3-4-2.4c-0.7,1.3-2.1,2.3-4.1,2.7L154.1,104z M168.4,97.1v17.5h-2.5v-3.4h-3.5v-1.9h3.5V97.1H168.4z"/>
	<path class="st1" d="M182.2,101c0,3.2,1.4,6.4,4.4,7.7l-1.4,2c-2-0.9-3.4-2.6-4.1-4.8c-0.8,2.3-2.2,4.2-4.3,5.2l-1.5-2.1
		c3.1-1.3,4.5-4.7,4.5-8.1v-2.5h2.5V101z M189.9,97.1v17.6h-2.5V97.1H189.9z"/>
	<path class="st1" d="M208,112.3v2h-13v-5.2h2.4v-2.3c-1.5,0.1-3,0.1-4.3,0.1l-0.3-2c3.2,0,7.4-0.1,11.1-0.5l0.2,1.8
		c-1.4,0.2-2.8,0.4-4.2,0.5v3.3h-2.4v2.4H208z M194.1,100.9c0-1.9,1.8-3.1,4.4-3.1c2.5,0,4.4,1.3,4.4,3.1c0,1.9-1.8,3.1-4.4,3.1
		C195.9,104,194.1,102.7,194.1,100.9z M196.4,100.9c0,0.9,0.8,1.3,2,1.3c1.2,0,2-0.4,2-1.3c0-0.9-0.8-1.3-2-1.3
		C197.3,99.5,196.4,100,196.4,100.9z M205.1,107.3V97.1h2.5v13.3h-2.5V109h-3.3v-1.7H205.1z"/>
	<path class="st1" d="M220.6,100.7h-10.3v-2h3.9V97h2.5v1.7h3.9V100.7z M215.5,107.5c-2.5,0-4.3-1.3-4.3-3.2c0-1.9,1.8-3.1,4.3-3.1
		c2.5,0,4.3,1.3,4.3,3.1C219.8,106.3,218,107.5,215.5,107.5z M212.7,108.4h11.4v6h-11.4V108.4z M215.5,105.7c1.1,0,1.9-0.4,1.9-1.3
		c0-0.9-0.8-1.3-1.9-1.3c-1.1,0-1.9,0.4-1.9,1.3C213.6,105.2,214.4,105.7,215.5,105.7z M215.2,112.5h6.5v-2.1h-6.5V112.5z
		 M226.4,103.5h-2.3v4.2h-2.5V97.2h2.5v4.3h2.3V103.5z"/>
	<path class="st1" d="M243.6,104.2v2h-15.8v-2H243.6z M229.4,100.4c0-1.9,2.3-3,6.3-3c4,0,6.3,1.1,6.3,3c0,1.9-2.3,3-6.3,3
		C231.7,103.3,229.4,102.3,229.4,100.4z M232.1,112.6h10v1.9h-12.5v-4.6h9.6V109h-9.6v-1.8h12.1v4.5h-9.6V112.6z M232,100.4
		c0,0.8,1.2,1.2,3.7,1.2c2.5,0,3.7-0.3,3.7-1.2c0-0.8-1.2-1.1-3.7-1.1C233.2,99.2,232,99.6,232,100.4z"/>
	<path class="st1" d="M265.5,110.5v2.1h-15.8v-2.1H265.5z M263.8,106.9h-12.4v-8.2h2.5v6.2h9.9V106.9z"/>
	<path class="st1" d="M272.5,98c0,3.6-1,5.9-3.8,7.8l-1.6-1.6c1.8-1.2,2.7-2.3,3-4.3h-2.3v-2H272.5z M282.2,112.5v1.9h-12.3v-4.8
		h9.3v-1h-9.3v-1.9h11.8v4.7h-9.3v1.1H282.2z M272.1,104.8c1.9-1.4,2.7-2.7,2.9-4.8h-2v-2h4.4c0,3.7-0.7,6.1-3.6,8.3L272.1,104.8z
		 M281.6,106h-2.5v-8.9h2.5V106z"/>
	<path class="st1" d="M304.7,108.7H298v6h-2.5v-6h-6.6v-2h15.8V108.7z M303.2,105.4c-3.1-0.5-5.2-1.9-6.4-3.8
		c-1.1,1.9-3.3,3.3-6.4,3.8l-1-2c4-0.6,6-2.8,6-4.9v-0.8h2.7v0.8c0,2,2,4.3,6,4.9L303.2,105.4z"/>
	<path class="st1" d="M310.9,102.2c0-2.5,2.1-4.2,4.8-4.2c2.7,0,4.8,1.7,4.8,4.2c0,2.5-2,4.2-4.8,4.2
		C313,106.4,310.9,104.7,310.9,102.2z M323.5,108.3c0,1.8,1,3.5,3.3,4.2l-1.2,1.8c-1.7-0.6-2.7-1.6-3.3-2.9
		c-0.6,1.3-1.6,2.5-3.2,3.1c-1.6-0.6-2.6-1.7-3.2-3.1c-0.6,1.3-1.7,2.3-3.2,2.9l-1.2-1.8c2.3-0.8,3.3-2.5,3.3-4.2v-0.6h2.4v0.6
		c0,1.4,0.6,2.8,1.9,3.8c1.4-1,2-2.5,2-3.8v-0.6h2.5V108.3z M313.4,102.2c0,1.3,1,2.1,2.3,2.1c1.3,0,2.3-0.8,2.3-2.1s-1-2.1-2.3-2.1
		C314.4,100.1,313.4,100.9,313.4,102.2z M325.2,107h-2.5v-9.9h2.5V107z"/>
	<path class="st1" d="M344,105.6v2h-15.8v-2H344z M332.5,112.3h9.9v2H330V109h2.5V112.3z M342.3,103.9h-12.1v-6.1h2.5v4.1h9.6V103.9
		z"/>
	<path class="st1" d="M358.3,108.3c0.7-0.1,1.4-0.1,2-0.2l0.2,1.8c-3.6,0.6-7.5,0.7-10.5,0.7l-0.3-2.1c0.6,0,1.3,0,2,0v-7.8h-1.5v-2
		h9.7v2h-1.5V108.3z M354.1,108.5c0.6,0,1.2,0,1.8-0.1v-7.7h-1.8V108.5z M366.2,105.8h-2.5v8.8h-2.5V97.2h2.5v6.6h2.5V105.8z"/>
	<path class="st1" d="M370.6,108.6c2.5,0,4.6-0.2,6.9-0.6l0.2,2c-2.6,0.5-5,0.6-8.1,0.6h-1.5v-7.2h5.5v-2.8h-5.6v-2h8v6.8h-5.5
		V108.6z M383.7,105.8h-2.5v8.9h-2.5V97.1h2.5v6.6h2.5V105.8z"/>
	<path class="st1" d="M400.7,104.3v2h-15.8v-2h6.6v-1.9h2.5v1.9H400.7z M399.1,103.4c-3-0.4-5.1-1.4-6.2-3c-1.1,1.6-3.3,2.6-6.3,3
		l-0.8-1.9c4-0.4,5.8-2.1,5.8-3.9v-0.4h2.6v0.4c0,1.8,1.8,3.5,5.8,3.9L399.1,103.4z M389.2,112.6h10v1.9h-12.5v-4.6h9.6V109h-9.6
		v-1.8h12.1v4.5h-9.6V112.6z"/>
	<path class="st1" d="M407.9,109c1.7-0.1,3.4-0.2,5-0.4l0.1,1.8c-3.6,0.6-7.5,0.7-10.5,0.7l-0.2-2.1c1,0,2,0,3.1,0v-5.2h2.5V109z
		 M409.2,106.8c0.4-2.5,0.5-4.4,0.5-5.9h-6.5v-2h9v1.4c0,1.7,0,3.8-0.5,6.7L409.2,106.8z M418.5,106.3h-2.4v8.4h-2.5V97.1h2.5v7h2.4
		V106.3z"/>
	<path class="st1" d="M440,109.5h-6.7v5.1h-2.5v-5.1h-6.6v-2H440V109.5z M438.4,106.3h-12.2v-8.4h12v2h-9.6v1.3h9.2v1.9h-9.2v1.3
		h9.7V106.3z"/>
	<path class="st1" d="M450.6,106.4h-8.2v-8.1h8.2v1.3h3.2v-2.5h2.5v10.3h-2.5v-2.2h-3.2V106.4z M456.4,111.2c0,2.1-2.3,3.4-6,3.4
		c-3.7,0-6-1.3-6-3.4s2.3-3.4,6-3.4C454.1,107.8,456.4,109.1,456.4,111.2z M448.2,100.4h-3.3v4.1h3.3V100.4z M453.9,111.2
		c0-1-1.2-1.5-3.5-1.5c-2.3,0-3.5,0.5-3.5,1.5s1.2,1.5,3.5,1.5C452.7,112.7,453.9,112.2,453.9,111.2z M450.6,101.7v1.5h3.2v-1.5
		H450.6z"/>
	<path class="st1" d="M469.4,100.9h-10.3v-2h3.9v-1.9h2.5V99h3.9L469.4,100.9z M464.3,108.3c-2.5,0-4.3-1.4-4.3-3.4
		c0-2,1.8-3.4,4.3-3.4s4.3,1.4,4.3,3.4C468.6,106.9,466.8,108.3,464.3,108.3z M464.1,112.3h9.4v2h-11.9v-5.1h2.5V112.3z
		 M464.3,106.4c1.1,0,1.9-0.5,1.9-1.5c0-0.9-0.8-1.5-1.9-1.5c-1.1,0-1.9,0.5-1.9,1.5C462.4,105.9,463.2,106.4,464.3,106.4z
		 M475.2,102.5v2.1h-2.3v5.7h-2.5V97.1h2.5v5.3H475.2z"/>
</g>
<g class="st0">
	<path class="st1" d="M1.5,132.4h2.3l0.2,1.1H4c0.9-0.8,2-1.4,3.1-1.4c2.6,0,4.2,2.1,4.2,5.4c0,3.6-2.2,5.8-4.5,5.8
		c-0.9,0-1.8-0.4-2.6-1.2l0.1,1.7v3.2H1.5V132.4z M8.5,137.5c0-2-0.6-3.2-2.1-3.2c-0.7,0-1.4,0.4-2.1,1.1v4.7
		c0.7,0.6,1.4,0.8,1.9,0.8C7.5,141,8.5,139.9,8.5,137.5z"/>
	<path class="st1" d="M12.4,132.4h2.8l1.6,5.3c0.3,1,0.6,2.1,0.9,3.2h0.1c0.3-1.1,0.6-2.2,0.9-3.2l1.6-5.3h2.7L19.2,143H16
		L12.4,132.4z"/>
	<path class="st1" d="M23.7,137.7c0-3.6,2.5-5.6,5.4-5.6c1.3,0,2.3,0.5,3.1,1.2l-1.3,1.8c-0.5-0.5-1-0.7-1.6-0.7
		c-1.6,0-2.7,1.3-2.7,3.3c0,2,1.1,3.3,2.6,3.3c0.8,0,1.5-0.4,2.1-0.9l1.1,1.8c-1,0.9-2.3,1.3-3.5,1.3
		C26,143.3,23.7,141.2,23.7,137.7z"/>
	<path class="st1" d="M49.5,135v1.8H33.7V135H49.5z M38,142.8h10.1v1.7H35.5v-4.2h9.7v-0.9h-9.7v-1.7h12.2v4.2H38V142.8z
		 M45.1,129.1h-9.5v-1.7h12v4.1h-9.5v0.9h9.8v1.7H35.7V130h9.5V129.1z"/>
	<path class="st1" d="M65.2,134.6c0,3.9-2,6.3-4.6,6.3s-4.6-2.4-4.6-6.3c0-3.8,2-6.2,4.6-6.2S65.2,130.7,65.2,134.6z M58.4,134.6
		c0,2.6,0.9,4,2.2,4s2.2-1.4,2.2-4c0-2.6-0.9-4-2.2-4S58.4,132,58.4,134.6z M70,127.1v17.6h-2.5v-17.6H70z"/>
	<path class="st1" d="M88.8,135.4v2H73v-2h3.6v-2.1c-1.3-0.6-2-1.4-2-2.6c0-2.1,2.5-3.4,6.3-3.4c3.9,0,6.3,1.3,6.3,3.4
		c0,1.1-0.7,2-2,2.6v2.1H88.8z M86.9,141.5c0,2-2.3,3.2-6.1,3.2s-6.1-1.2-6.1-3.2c0-2,2.3-3.2,6.1-3.2S86.9,139.4,86.9,141.5z
		 M77.1,130.8c0,1,1.4,1.4,3.7,1.4c2.4,0,3.8-0.5,3.8-1.4c0-1-1.4-1.5-3.8-1.5C78.5,129.3,77.1,129.8,77.1,130.8z M84.4,141.5
		c0-0.9-1.2-1.3-3.5-1.3s-3.5,0.4-3.5,1.3c0,0.9,1.2,1.3,3.5,1.3S84.4,142.4,84.4,141.5z M79,135.4h3.6V134
		c-0.6,0.1-1.2,0.1-1.8,0.1c-0.7,0-1.3,0-1.8-0.1V135.4z"/>
	<path class="st1" d="M95.9,129.8h2.9v2h-8.4v-2h3v-2.2h2.5V129.8z M98.5,136.7c0,2.4-1.6,4.2-3.8,4.2c-2.2,0-3.8-1.7-3.8-4.2
		c0-2.5,1.6-4.2,3.8-4.2C96.9,132.5,98.5,134.3,98.5,136.7z M96.3,136.7c0-1.3-0.7-2.1-1.6-2.1c-1,0-1.6,0.8-1.6,2.1
		s0.7,2.1,1.6,2.1C95.6,138.8,96.3,138,96.3,136.7z M105.5,127.1v17.5h-2.4v-8.3h-1.3v7.6h-2.3v-16.4h2.3v6.8h1.3v-7.1H105.5z"/>
	<path class="st1" d="M121.8,135.8c-2-0.6-3.3-1.8-4.1-3.3c-0.8,1.7-2.2,3-4.3,3.6l-1.2-2c2.9-0.9,4.2-3.1,4.2-5.2v-1.3h2.5v1.3
		c0,2.1,1.3,4.1,4.1,4.9L121.8,135.8z M127.2,142.6v1.9h-12.1v-4.8h9.2v-1h-9.2v-1.9h11.7v4.7h-9.2v1.1H127.2z M126.8,136h-2.5v-8.8
		h2.5V136z"/>
	<path class="st1" d="M145.6,140.5v2.1h-15.8v-2.1H145.6z M141.5,133.5c0-1,0-1.9,0-2.8v0h-10v-2H144v2c0,2.5,0,5-0.8,8.8l-2.5-0.2
		c0.3-1.4,0.5-2.7,0.6-3.9l-10,0.5l-0.3-2L141.5,133.5z"/>
	<path class="st1" d="M163.1,140.5v2h-15.8v-2H163.1z M161.4,137.5c-3-0.6-5.3-2.3-6.4-4.5c-1.1,2.2-3.3,3.9-6.4,4.5l-1.1-2.1
		c3.9-0.7,6.1-3.5,6.1-6v-1.3h2.7v1.3c0,2.6,2.2,5.3,6.1,6L161.4,137.5z"/>
	<path class="st1" d="M180.5,140.5v2.1h-15.8v-2.1H180.5z M176.4,133.5c0-1,0-1.9,0-2.8v0h-10v-2h12.4v2c0,2.5,0,5-0.8,8.8l-2.5-0.2
		c0.3-1.4,0.5-2.7,0.6-3.9l-10,0.5l-0.3-2L176.4,133.5z"/>
	<path class="st1" d="M193,137.3c-2.5,0.5-4.7,0.6-8.4,0.6h-1.5V132h5.6v-1.7H183v-2h8.1v5.6h-5.6v1.9c3.1,0,5.1-0.2,7.2-0.6
		L193,137.3z M197.1,142.3v2H185V139h2.5v3.4H197.1z M196.7,140h-2.5v-12.9h2.5V140z"/>
	<path class="st1" d="M215.5,140.5v2.1h-15.8v-2.1H215.5z M214.1,133.1c0,3-2.8,5.1-6.5,5.1c-3.7,0-6.5-2-6.5-5.1
		c0-3.1,2.8-5.1,6.5-5.1C211.2,128,214.1,130,214.1,133.1z M203.5,133.1c0,1.9,1.7,3,4.1,3c2.4,0,4.1-1.1,4.1-3c0-1.9-1.7-3-4.1-3
		C205.2,130.1,203.5,131.2,203.5,133.1z"/>
	<path class="st1" d="M233,140.7v2.1h-15.8v-2.1h6.6v-2.6H219v-5.9h9.8v-1.9h-9.8v-2h12.3v5.8h-9.7v2h10.1v2h-5.3v2.6H233z"/>
	<path class="st1" d="M254.7,134.8v2H248v1.7h-2.5v-1.7h-6.6v-2H254.7z M253.1,133.9c-3-0.4-5.1-1.6-6.3-3.2
		c-1.1,1.7-3.3,2.8-6.3,3.2l-0.9-1.9c4-0.5,5.9-2.4,5.9-4.1v-0.5h2.6v0.5c0,1.8,1.9,3.7,5.8,4.1L253.1,133.9z M248.1,139.5
		c0,1.4,1.7,2.9,5.6,3.2l-0.8,1.9c-2.9-0.3-5-1.3-6.1-2.6c-1,1.3-3.1,2.4-6,2.6l-0.8-1.9c3.8-0.3,5.6-1.9,5.6-3.2v-0.3h2.6V139.5z"
		/>
	<path class="st1" d="M262.8,131.8c0,2.7,1.4,5.8,4.3,7.1l-1.4,2c-1.9-0.9-3.3-2.6-4.1-4.7c-0.8,2.3-2.2,4.2-4.2,5.1l-1.4-2
		c2.9-1.3,4.3-4.6,4.3-7.5v-1h-3.6v-2.1h9.6v2.1h-3.5V131.8z M272.6,135.9h-2.5v8.8h-2.5v-17.5h2.5v6.7h2.5V135.9z"/>
	<path class="st1" d="M289.7,135v1.8h-15.8V135H289.7z M278.2,142.8h10.1v1.7h-12.6v-4.2h9.7v-0.9h-9.7v-1.7h12.2v4.2h-9.7V142.8z
		 M285.3,129.1h-9.5v-1.7h12v4.1h-9.5v0.9h9.8v1.7h-12.2V130h9.5V129.1z"/>
	<path class="st1" d="M291.6,145.5c1.5-0.6,2.3-1.5,2.3-2.6c-0.1,0-0.1,0-0.2,0c-0.9,0-1.7-0.6-1.7-1.7c0-1,0.8-1.7,1.8-1.7
		c1.3,0,2,1,2,2.8c0,2.2-1.3,3.9-3.6,4.7L291.6,145.5z"/>
	<path class="st1" d="M317.7,138.9H311v5.7h-2.5v-5.7h-6.6v-2h15.8V138.9z M303.4,131.7c0-2.4,2.6-3.9,6.3-3.9
		c3.7,0,6.3,1.6,6.3,3.9c0,2.4-2.6,4-6.3,4C306,135.6,303.4,134.1,303.4,131.7z M306,131.7c0,1.3,1.5,2,3.8,2c2.3,0,3.7-0.7,3.7-2
		c0-1.3-1.5-1.9-3.7-1.9C307.4,129.7,306,130.4,306,131.7z"/>
	<path class="st1" d="M322.8,138.5c2.7,0,4.9-0.2,7.3-0.6l0.3,2c-2.8,0.5-5.4,0.6-8.6,0.6h-1.6v-7.2h5.7v-2.8h-5.7v-2h8.3v6.8h-5.7
		V138.5z M333.9,127.1v17.6h-2.5v-17.6H333.9z"/>
	<path class="st1" d="M336.9,139.1c3.1,0,7.4,0,11.1-0.6l0.2,1.8c-3.8,0.8-7.9,0.8-10.9,0.8L336.9,139.1z M347.3,132.6
		c0,2.5-2.1,4.3-4.8,4.3c-2.7,0-4.8-1.8-4.8-4.3c0-2.5,2.1-4.3,4.8-4.3C345.2,128.3,347.3,130.1,347.3,132.6z M340.1,132.6
		c0,1.4,1,2.2,2.4,2.2c1.3,0,2.4-0.8,2.4-2.2c0-1.4-1-2.2-2.4-2.2C341.1,130.4,340.1,131.2,340.1,132.6z M351.4,127.1v17.6h-2.5
		v-17.6H351.4z"/>
	<path class="st1" d="M374.4,134.3v2h-15.8v-2h6.6v-1.6h2.5v1.6H374.4z M359.3,131.8c3.2-0.2,4.9-1.2,5.4-2.3H360v-1.9H373v1.9h-4.6
		c0.5,1.1,2.2,2.1,5.4,2.3l-0.8,1.9c-3.3-0.3-5.5-1.4-6.4-3c-0.9,1.6-3.1,2.8-6.4,3L359.3,131.8z M362.9,142.6h10v1.9h-12.5v-4.6
		h9.6v-1h-9.6v-1.8h12.1v4.5h-9.6V142.6z"/>
	<path class="st1" d="M385.4,137.6c-1.9-0.6-3.2-1.9-4-3.5c-0.8,1.7-2.1,3.1-4.2,3.8l-1.3-2c2.9-0.9,4.1-3.2,4.1-5.4v-0.2h-3.4v-2
		h9.4v2h-3.4v0.2c0,2.1,1.2,4.2,4,5.1L385.4,137.6z M391.1,142.3v2h-11.9v-5.5h2.5v3.5H391.1z M388.2,131.7v-4.5h2.5v12.8h-2.5v-6.2
		h-2.7v-2H388.2z"/>
	<path class="st1" d="M409.4,134.2v2h-15.8v-2H409.4z M395.1,130.4c0-1.9,2.3-3,6.3-3c4,0,6.3,1.1,6.3,3c0,1.9-2.3,3-6.3,3
		C397.5,133.3,395.1,132.3,395.1,130.4z M397.9,142.6h10v1.9h-12.5v-4.6h9.6V139h-9.6v-1.8h12.1v4.5h-9.6V142.6z M397.7,130.4
		c0,0.8,1.2,1.2,3.7,1.2c2.5,0,3.7-0.3,3.7-1.2c0-0.8-1.2-1.1-3.7-1.1C398.9,129.2,397.7,129.6,397.7,130.4z"/>
	<path class="st1" d="M430,127.1v17.6h-2.5v-6.5H424c-0.8,1.7-2.1,2.7-3.8,2.7c-2.6,0-4.5-2.4-4.5-6.3c0-3.8,1.9-6.2,4.5-6.2
		c1.6,0,2.9,0.9,3.7,2.4h3.7v-3.6H430z M422.3,134.6c0-2.6-0.9-4-2.2-4c-1.3,0-2.1,1.4-2.1,4c0,2.6,0.9,4,2.1,4
		C421.4,138.6,422.3,137.2,422.3,134.6z M427.5,136.1v-3.4h-3c0.1,0.6,0.2,1.2,0.2,1.9c0,0.6,0,1.1-0.1,1.6H427.5z"/>
	<path class="st1" d="M448.7,136v2h-15.8v-2H448.7z M444.3,129.4h-9.5v-1.9h12v4.7h-9.5v1h9.8v1.9h-12.3v-4.7h9.5V129.4z M434.8,139
		h12v5.5h-12V139z M437.3,142.5h7.1V141h-7.1V142.5z"/>
	<path class="st1" d="M459.4,127.4h2.3v16.4h-2.3v-8.2H458c-0.2,3.4-1.7,5.5-3.8,5.5c-2.3,0-3.8-2.4-3.8-6.4c0-4,1.5-6.3,3.8-6.3
		c2.1,0,3.5,1.9,3.8,5.2h1.4V127.4z M455.8,134.7c0-2.7-0.6-4-1.5-4c-0.9,0-1.5,1.3-1.5,4c0,2.7,0.6,4,1.5,4
		C455.2,138.7,455.8,137.4,455.8,134.7z M465.3,127.1v17.5H463v-17.5H465.3z"/>
</g>
<g class="st0">
	<path class="st1" d="M16.7,165.3v2H0.8v-2h6.6v-1.9H2.8v-6h2.5v4h9.6v2H10v1.9H16.7z M2.6,168.6h12.1v6h-2.5v-4H2.6V168.6z"/>
	<path class="st1" d="M23.3,167.1c-2.7,0-4.8-1.9-4.8-4.4c0-2.6,2.1-4.4,4.8-4.4s4.7,1.9,4.7,4.4C28.1,165.2,26,167.1,23.3,167.1z
		 M23.3,165c1.3,0,2.3-0.9,2.3-2.3c0-1.4-1-2.3-2.3-2.3c-1.3,0-2.3,0.8-2.3,2.3C21,164.1,22,165,23.3,165z M33.3,172.3v2H21.2v-5.9
		h2.5v3.9H33.3z M32.8,169.7h-2.5v-12.6h2.5V169.7z"/>
	<path class="st1" d="M38.9,168.4c2.5,0,4.6-0.2,6.8-0.6l0.2,2.1c-2.6,0.5-5,0.6-8.1,0.6h-1.5v-11.7h8.2v2h-5.7V168.4z M52,165.7
		h-2.5v9H47v-17.5h2.5v6.5H52V165.7z"/>
	<path class="st1" d="M69.1,165.6v2H53.3v-2H69.1z M57.6,172.3h9.9v2H55V169h2.5V172.3z M67.4,163.9H55.2v-6.1h2.5v4.1h9.6V163.9z"
		/>
	<path class="st1" d="M75.1,169.1c3.1,0,7.4,0,11.1-0.6l0.2,1.8c-3.8,0.8-7.9,0.8-10.9,0.8L75.1,169.1z M85.5,162.6
		c0,2.5-2.1,4.3-4.8,4.3c-2.7,0-4.8-1.8-4.8-4.3c0-2.5,2.1-4.3,4.8-4.3C83.4,158.3,85.5,160.1,85.5,162.6z M78.3,162.6
		c0,1.4,1,2.2,2.4,2.2c1.3,0,2.4-0.8,2.4-2.2c0-1.4-1-2.2-2.4-2.2C79.3,160.4,78.3,161.2,78.3,162.6z M89.6,157.1v17.6h-2.5v-17.6
		H89.6z"/>
	<path class="st1" d="M101.8,158.7v11.8h-8.4v-11.8H101.8z M95.9,160.7v7.8h3.5v-7.8H95.9z M107,157.1v17.5h-2.5v-17.5H107z"/>
	<path class="st1" d="M125.9,165v1.8H110V165H125.9z M114.3,172.8h10.1v1.7h-12.6v-4.2h9.7v-0.9h-9.7v-1.7H124v4.2h-9.7V172.8z
		 M121.4,159.1h-9.5v-1.7h12v4.1h-9.5v0.9h9.8v1.7H112V160h9.5V159.1z"/>
	<path class="st1" d="M141.9,165.8c-2.1,0.5-4.1,0.6-8,0.6h-1.5v-8.1h7.8v2H135v4.1c3.1,0,4.8-0.1,6.7-0.5L141.9,165.8z
		 M134.2,167.7h11.4v6.7h-11.4V167.7z M136.7,172.5h6.5v-2.8h-6.5V172.5z M147.9,163.1h-2.3v3.8h-2.5v-9.8h2.5v4h2.3V163.1z"/>
	<path class="st1" d="M158.6,164.6c0,3.9-2,6.3-4.6,6.3c-2.7,0-4.6-2.4-4.6-6.3c0-3.8,1.9-6.2,4.6-6.2
		C156.6,158.4,158.6,160.7,158.6,164.6z M156.2,164.6c0-2.6-0.9-4-2.2-4c-1.3,0-2.2,1.4-2.2,4c0,2.6,0.9,4,2.2,4
		C155.3,168.6,156.2,167.2,156.2,164.6z M165.5,165.8H163v8.8h-2.5v-17.5h2.5v6.6h2.5V165.8z"/>
	<path class="st1" d="M170,168.2c1.4,0,2.9-0.2,4.5-0.5l0.2,2.1c-2.3,0.4-4.3,0.5-6,0.5h-1.2v-11.3h2.5V168.2z M181.8,157.1v17.5
		h-2.4v-8.7h-1.6v7.9h-2.3v-16.4h2.3v6.4h1.6v-6.7H181.8z"/>
	<path class="st1" d="M200.1,170.5v2h-15.8v-2h5.6v-6h2.5v6H200.1z M195.4,168.4c0.7-3.3,0.7-5.7,0.7-7.8h-10.2v-2h12.7v1.7
		c0,2.2,0,4.7-0.7,8.4L195.4,168.4z"/>
	<path class="st1" d="M208.1,161.8c0,2.7,1.4,5.8,4.3,7.1l-1.4,2c-1.9-0.9-3.3-2.6-4.1-4.7c-0.8,2.3-2.2,4.2-4.2,5.1l-1.4-2
		c2.9-1.3,4.3-4.6,4.3-7.5v-1H202v-2.1h9.6v2.1h-3.5V161.8z M218,165.9h-2.5v8.8h-2.5v-17.5h2.5v6.7h2.5V165.9z"/>
	<path class="st1" d="M231.9,160.8h-8.5v-1.9h3v-1.6h2.5v1.6h3V160.8z M223.9,164.4c0-1.8,1.6-3,3.8-3c2.2,0,3.8,1.2,3.8,3
		c0,1.8-1.6,3.1-3.8,3.1C225.5,167.4,223.9,166.2,223.9,164.4z M236.5,168.8c0,1.6,1,3.2,3.2,3.8l-1.2,1.8c-1.7-0.5-2.8-1.5-3.4-2.8
		c-0.6,1.3-1.6,2.3-3.1,2.9c-1.6-0.6-2.6-1.6-3.2-2.8c-0.6,1.2-1.7,2.2-3.3,2.7l-1.2-1.8c2.3-0.7,3.2-2.3,3.2-3.8v-0.3h2.4v0.3
		c0,1.3,0.6,2.6,1.9,3.4c1.4-0.9,2-2.3,2-3.4v-0.3h2.5V168.8z M226.2,164.4c0,0.8,0.6,1.3,1.6,1.3c0.9,0,1.5-0.5,1.5-1.3
		c0-0.8-0.6-1.3-1.5-1.3C226.8,163.1,226.2,163.6,226.2,164.4z M234.8,167.7h-2.3v-10.4h2.3v4.3h1.3v-4.5h2.4v10.8h-2.4v-4.3h-1.3
		V167.7z"/>
	<path class="st1" d="M244.2,168.4c2.5,0,4.6-0.2,6.8-0.6l0.2,2.1c-2.6,0.5-5,0.6-8.1,0.6h-1.5v-11.7h8.2v2h-5.7V168.4z
		 M257.2,165.7h-2.5v9h-2.5v-17.5h2.5v6.5h2.5V165.7z"/>
	<path class="st1" d="M259,171.4c0-1,0.7-1.8,1.7-1.8c1,0,1.7,0.8,1.7,1.8c0,1-0.7,1.8-1.7,1.8C259.7,173.3,259,172.5,259,171.4z"/>
</g>
</svg>
