<?xml version="1.0" encoding="utf-8"?>
<!-- Generator: Adobe Illustrator 21.0.0, SVG Export Plug-In . SVG Version: 6.00 Build 0)  -->
<svg version="1.1" id="레이어_1" xmlns="http://www.w3.org/2000/svg" xmlns:xlink="http://www.w3.org/1999/xlink" x="0px"
	 y="0px" viewBox="0 0 600 251" style="enable-background:new 0 0 600 251;" xml:space="preserve">
<style type="text/css">
	.st0{enable-background:new    ;}
</style>
<g class="st0">
	<path d="M125.9,12.8h-13v-2.5h4.9V7.9h3.2v2.4h4.9L125.9,12.8z M119.4,22.1c-3.2,0-5.4-1.7-5.4-4.3c0-2.5,2.3-4.2,5.4-4.2
		s5.4,1.8,5.4,4.2C124.9,20.3,122.6,22.1,119.4,22.1z M119.2,27.2h11.9v2.5h-15v-6.4h3.2V27.2z M119.4,19.7c1.4,0,2.4-0.6,2.4-1.9
		c0-1.2-1-1.8-2.4-1.8c-1.4,0-2.4,0.6-2.4,1.8C117,19,118,19.7,119.4,19.7z M133.3,14.7v2.6h-2.9v7.2h-3.2V8h3.2v6.7H133.3z"/>
	<path d="M154.1,7.9V30h-3V19h-1.8v10.1h-3v-6.4l-1.8,2.4c-2-1.1-3.2-2.8-4-5c-0.7,2.5-2,4.6-4.1,5.9l-1.9-2.4
		c3.3-1.9,4.3-5.8,4.3-10.1v-0.6h-3.6v-2.6h10v2.6H142v0.6c0,3.9,1.1,7.5,4.4,9.2V8.3h3v8.1h1.8V7.9H154.1z"/>
	<path d="M177.1,19v2.5h-8.2v3.7h-3.2v-3.7h-8.7V19H177.1z M158,15.4c4.3-0.5,6.5-2.3,6.9-4h-5.9V8.9h16.4v2.5h-6
		c0.4,1.8,2.5,3.6,6.9,4l-1.2,2.5c-4.1-0.5-6.8-2.2-8-4.4c-1.1,2.3-3.8,4-8,4.4L158,15.4z M162.6,27.2h12.3v2.5h-15.5v-6.4h3.2V27.2
		z"/>
</g>
<g class="st0">
	<path d="M39.6,72.9h4.7c2.9,0,5.1,0.8,5.1,3.5c0,1.3-0.7,2.6-1.9,3v0.1c1.5,0.4,2.6,1.4,2.6,3.3c0,2.8-2.4,4.1-5.5,4.1h-5V72.9z
		 M44,78.7c1.8,0,2.6-0.7,2.6-1.8c0-1.2-0.8-1.7-2.5-1.7h-1.7v3.6H44z M44.4,84.8c1.9,0,3-0.7,3-2.1c0-1.4-1-1.9-3-1.9h-2v4.1H44.4z
		"/>
	<path d="M54.9,79.7l-3.7-6.8h3.1l1.4,2.9c0.3,0.7,0.6,1.3,1,2.2h0.1c0.3-0.9,0.6-1.6,0.9-2.2l1.3-2.9h3l-3.7,6.9l4,7.1h-3.1
		l-1.6-3.1c-0.4-0.7-0.7-1.5-1.1-2.3h-0.1c-0.4,0.9-0.7,1.6-1,2.3L53.9,87h-3L54.9,79.7z"/>
</g>
<g class="st0">
	<path d="M77,78.6c0,3.9-2,6.3-4.6,6.3c-2.7,0-4.6-2.4-4.6-6.3c0-3.8,1.9-6.2,4.6-6.2C75,72.4,77,74.7,77,78.6z M74.6,78.6
		c0-2.6-0.9-4-2.2-4c-1.3,0-2.2,1.4-2.2,4c0,2.6,0.9,4,2.2,4C73.7,82.6,74.6,81.2,74.6,78.6z M83.9,79.8h-2.5v8.8h-2.5V71.1h2.5v6.6
		h2.5V79.8z"/>
	<path d="M94.9,78.6c0,3.9-2,6.3-4.6,6.3s-4.6-2.4-4.6-6.3c0-3.8,2-6.2,4.6-6.2S94.9,74.7,94.9,78.6z M88.1,78.6c0,2.6,0.9,4,2.2,4
		c1.3,0,2.2-1.4,2.2-4c0-2.6-0.9-4-2.2-4C89,74.6,88.1,76,88.1,78.6z M99.7,71.1v17.6h-2.5V71.1H99.7z"/>
	<path d="M110.8,81.1c-2.1,0.4-3.9,0.5-6.2,0.5h-1.2v-9.1h6.8v2h-4.3v5.1c1.7,0,3.1-0.1,4.7-0.4L110.8,81.1z M118.1,86.3v2h-12.2
		v-5.7h2.5v3.7H118.1z M111.8,75.8v-4.3h2.3v12.2h-2.3v-5.9h-2.7v-2H111.8z M117.7,84.1h-2.4V71.1h2.4V84.1z"/>
	<path d="M123.6,82.7c2.6,0,4.7-0.1,7.1-0.5l0.2,2c-2.7,0.4-5.2,0.5-8.3,0.5h-1.5V72.6h8.9v2h-6.3v2.8h5.6v2h-5.6V82.7z M134.7,71.1
		v17.5h-2.5V71.1H134.7z"/>
	<path d="M141.1,82.7c2.6,0,4.7-0.1,7.1-0.5l0.2,2c-2.7,0.4-5.2,0.5-8.3,0.5h-1.5V72.6h8.9v2h-6.3v2.8h5.6v2h-5.6V82.7z M152.2,71.1
		v17.5h-2.5V71.1H152.2z"/>
	<path d="M155.3,89.5c1.5-0.6,2.3-1.5,2.3-2.6c-0.1,0-0.1,0-0.2,0c-0.9,0-1.7-0.6-1.7-1.7c0-1,0.8-1.7,1.8-1.7c1.3,0,2,1,2,2.8
		c0,2.2-1.3,3.9-3.6,4.7L155.3,89.5z"/>
	<path d="M175.9,74.9h-10.3v-2h3.9v-1.9h2.5V73h3.9L175.9,74.9z M170.7,82.3c-2.5,0-4.3-1.4-4.3-3.4c0-2,1.8-3.4,4.3-3.4
		s4.3,1.4,4.3,3.4C175,80.9,173.2,82.3,170.7,82.3z M170.6,86.3h9.4v2h-11.9v-5.1h2.5V86.3z M170.7,80.4c1.1,0,1.9-0.5,1.9-1.5
		c0-0.9-0.8-1.5-1.9-1.5c-1.1,0-1.9,0.5-1.9,1.5C168.8,79.9,169.6,80.4,170.7,80.4z M181.7,76.5v2.1h-2.3v5.7h-2.5V71.1h2.5v5.3
		H181.7z"/>
	<path d="M198.9,77.3v2h-15.8v-2h11.2c0.3-1.4,0.3-2.5,0.4-3.5H185v-2h12V73c0,1.1,0,2.5-0.3,4.3H198.9z M187.4,86.6h10.1v1.9h-12.6
		v-5h9.7v-1.1h-9.7v-1.9H197v4.9h-9.7V86.6z"/>
	<path d="M204.1,82.4c3.1,0,5-0.1,7.1-0.5l0.2,2.1c-2.4,0.5-4.6,0.5-8.3,0.5h-1.5V72.7h8.5v2h-5.9V82.4z M215,71.1v17.6h-2.5V71.1
		H215z"/>
	<path d="M224.4,75.8c0,2.7,1.4,5.8,4.3,7.1l-1.4,2c-1.9-0.9-3.3-2.6-4.1-4.7c-0.8,2.3-2.2,4.2-4.2,5.1l-1.4-2
		c2.9-1.3,4.3-4.6,4.3-7.5v-1h-3.6v-2.1h9.6v2.1h-3.5V75.8z M234.3,79.9h-2.5v8.8h-2.5V71.1h2.5v6.7h2.5V79.9z"/>
	<path d="M240.5,81.1c-2.7,0-4.8-1.9-4.8-4.4c0-2.6,2.1-4.4,4.8-4.4s4.7,1.9,4.7,4.4C245.3,79.2,243.2,81.1,240.5,81.1z M240.5,79
		c1.3,0,2.3-0.9,2.3-2.3c0-1.4-1-2.3-2.3-2.3c-1.3,0-2.3,0.8-2.3,2.3C238.2,78.1,239.2,79,240.5,79z M250.5,86.3v2h-12.1v-5.9h2.5
		v3.9H250.5z M250,83.7h-2.5V71.2h2.5V83.7z"/>
</g>
<g class="st0">
	<path d="M428.7,20.4H418V9.7h10.7V20.4z M435.8,27.1v2.5h-15.3v-7.3h3.2v4.8H435.8z M425.6,12.2h-4.5v5.7h4.5V12.2z M435.3,23.7
		h-3.2V8h3.2V23.7z"/>
	<path d="M450.4,19.9h-10.4V9.3h3.1v3h4.2v-3h3.1v1.9h3.9V8h3.2v13.2h-3.2v-2.9h-3.9V19.9z M457.6,25.8c0,2.7-2.9,4.3-7.6,4.3
		c-4.7,0-7.6-1.6-7.6-4.3c0-2.7,2.9-4.2,7.6-4.2C454.7,21.6,457.6,23.1,457.6,25.8z M447.3,14.7h-4.2v2.7h4.2V14.7z M454.4,25.8
		c0-1.2-1.5-1.8-4.4-1.8c-2.9,0-4.4,0.6-4.4,1.8s1.5,1.8,4.4,1.8C452.9,27.7,454.4,27.1,454.4,25.8z M450.4,13.7v2h3.9v-2H450.4z"/>
	<path d="M472.3,8.8c0,5.8-3.4,9.3-9.9,10.8l-1.1-2.5c4.8-1.1,7.1-3.2,7.5-5.8h-6.3V8.8H472.3z M480,27.4v2.5h-15v-6.2h11.4v-1.3
		H465v-2.5h14.6V26h-11.4v1.4H480z M476.4,15.2h-3.9v-2.5h3.9V7.9h3.2V19h-3.2V15.2z"/>
</g>
<g class="st0">
	<path d="M357.6,75.4v1h4.7v4.3h-9.6v0.9h10v1.8h-12.5v-4.4h9.6v-0.8h-9.6v-1.8h4.8v-1h-6.6v-1.8h15.7v1.8H357.6z M349.1,71.3
		c3.5-0.2,5.2-1,5.7-2H350v-1.8h5.1v-1.4h2.5v1.4h5.1v1.8h-4.9c0.5,1,2.2,1.8,5.7,2l-0.7,1.8c-3.2-0.2-5.5-1-6.6-2.3
		c-1.1,1.3-3.3,2.1-6.6,2.3L349.1,71.3z"/>
	<path d="M376.4,76c-3.4,0.6-7.4,0.7-10.3,0.7l-0.3-2l1.8,0v-5.1h-1.4v-2h9.3v2h-1.4v4.8c0.7-0.1,1.3-0.1,2-0.2L376.4,76z
		 M370.9,81.3h9.4v2h-11.9v-5.5h2.5V81.3z M370.1,74.6c0.6,0,1.2,0,1.8-0.1v-5h-1.8V74.6z M382,71.1v2.1h-2.3V79h-2.5V66.1h2.5v4.9
		H382z"/>
	<path d="M386.9,77.4c3.1,0,5-0.1,7.1-0.5l0.2,2.1c-2.4,0.5-4.6,0.5-8.3,0.5h-1.5V67.7h8.5v2h-5.9V77.4z M397.9,66.1v17.6h-2.5V66.1
		H397.9z"/>
	<path d="M407.3,70.8c0,2.7,1.4,5.8,4.3,7.1l-1.4,2c-1.9-0.9-3.3-2.6-4.1-4.7c-0.8,2.3-2.2,4.2-4.2,5.1l-1.4-2
		c2.9-1.3,4.3-4.6,4.3-7.5v-1h-3.6v-2.1h9.6v2.1h-3.5V70.8z M417.1,74.9h-2.5v8.8h-2.5V66.1h2.5v6.7h2.5V74.9z"/>
	<path d="M423.4,76.1c-2.7,0-4.8-1.9-4.8-4.4c0-2.6,2.1-4.4,4.8-4.4s4.7,1.9,4.7,4.4C428.1,74.2,426,76.1,423.4,76.1z M423.4,74
		c1.3,0,2.3-0.9,2.3-2.3c0-1.4-1-2.3-2.3-2.3c-1.3,0-2.3,0.8-2.3,2.3C421.1,73.1,422.1,74,423.4,74z M433.3,81.3v2h-12.1v-5.9h2.5
		v3.9H433.3z M432.9,78.7h-2.5V66.2h2.5V78.7z"/>
	<path d="M436,84.5c1.5-0.6,2.3-1.5,2.3-2.6c-0.1,0-0.1,0-0.2,0c-0.9,0-1.7-0.6-1.7-1.7c0-1,0.8-1.7,1.8-1.7c1.3,0,2,1,2,2.8
		c0,2.2-1.3,3.9-3.6,4.7L436,84.5z"/>
	<path d="M449.5,77.7c2.5,0,4.5-0.1,6.8-0.5l0.2,2c-2.7,0.4-5,0.5-8,0.5H447V67.6h8.2v2h-5.7v2.8h5.5v2h-5.5V77.7z M462.6,74.8H460
		v8.8h-2.5V66.1h2.5v6.6h2.5V74.8z"/>
	<path d="M473.5,73.6c0,3.9-2,6.3-4.6,6.3s-4.6-2.4-4.6-6.3c0-3.8,2-6.2,4.6-6.2S473.5,69.7,473.5,73.6z M466.7,73.6
		c0,2.6,0.9,4,2.2,4s2.2-1.4,2.2-4c0-2.6-0.9-4-2.2-4S466.7,71,466.7,73.6z M478.3,66.1v17.6h-2.5V66.1H478.3z"/>
	<path d="M497.1,79.6v2h-15.8v-2h6.6v-3.1h-5.3v-2h2.3v-5h-2.4v-2h13.3v2h-2.4v5h2.3v2h-5.3v3.1H497.1z M487.4,74.5h3.6v-5h-3.6
		V74.5z"/>
	<path d="M514.6,79.3v2.1h-15.8v-2.1H514.6z M510.1,69.7h-9.7v-2h12.3v2.1c0,2.5,0,4.8-0.6,8.4l-2.5-0.2
		C510.1,74.7,510.1,72.2,510.1,69.7L510.1,69.7z"/>
	<path d="M519.1,77.7c1.6,0,3.1-0.1,4.9-0.4l0.2,2c-2.2,0.4-4.1,0.4-6.2,0.4h-1.2v-7.1h4.2v-2.8h-4.2v-2h6.6v6.8h-4.2V77.7z
		 M531.2,66.1v17.5h-2.4v-8.9h-1.6v8.1H525V66.4h2.3v6.3h1.6v-6.6H531.2z"/>
	<path d="M542.5,77.3c0.7,0,1.5-0.1,2.2-0.2l0.2,1.8c-3.7,0.6-7.7,0.7-10.8,0.7l-0.3-2.1c0.6,0,1.3,0,2,0v-7.8h-1.5v-2h9.8v2h-1.5
		V77.3z M538.1,77.5c0.6,0,1.3,0,2-0.1v-7.7h-2V77.5z M548.3,66.2v17.5h-2.5V66.2H548.3z"/>
</g>
<g class="st0">
	<path d="M125.2,153.4c0,4.9-2.5,7.9-5.8,7.9c-3.3,0-5.8-3-5.8-7.9c0-4.8,2.5-7.9,5.8-7.9C122.7,145.5,125.2,148.5,125.2,153.4z
		 M116.6,153.4c0,3.3,1.1,5,2.8,5c1.6,0,2.8-1.8,2.8-5c0-3.3-1.1-5-2.8-5C117.7,148.4,116.6,150.1,116.6,153.4z M131.2,143.9v22.2
		h-3.2v-22.2H131.2z"/>
	<path d="M154.1,143.9V166h-3v-11h-1.8v10.1h-3v-6.4l-1.8,2.4c-2-1.1-3.2-2.8-4-5c-0.7,2.5-2,4.6-4.1,5.9l-1.9-2.4
		c3.3-1.9,4.3-5.8,4.3-10.1v-0.6h-3.6v-2.6h10v2.6H142v0.6c0,3.9,1.1,7.5,4.4,9.2v-14.3h3v8.1h1.8v-8.5H154.1z"/>
	<path d="M176.2,163.2v2.5h-16.4v-6.6h3.1v-3c-1.9,0.1-3.8,0.1-5.4,0.1l-0.4-2.5c4,0,9.4-0.1,14.1-0.7l0.2,2.3
		c-1.7,0.3-3.5,0.5-5.3,0.6v4.2h-3v3H176.2z M158.6,148.7c0-2.4,2.3-4,5.5-4c3.2,0,5.5,1.6,5.5,4c0,2.4-2.3,3.9-5.5,3.9
		C160.9,152.6,158.6,151,158.6,148.7z M161.6,148.7c0,1.1,1,1.6,2.5,1.6c1.5,0,2.5-0.6,2.5-1.6s-1-1.7-2.5-1.7
		C162.6,147,161.6,147.6,161.6,148.7z M172.5,156.8V144h3.2v16.8h-3.2V159h-4.2v-2.2H172.5z"/>
</g>
<g class="st0">
	<path d="M49.5,212.1c-2.7,0-4.8-1.9-4.8-4.4c0-2.6,2.1-4.4,4.8-4.4s4.8,1.9,4.8,4.4C54.2,210.2,52.1,212.1,49.5,212.1z M49.5,210
		c1.3,0,2.3-0.9,2.3-2.3c0-1.4-1-2.3-2.3-2.3c-1.3,0-2.3,0.8-2.3,2.3C47.1,209.1,48.2,210,49.5,210z M59.4,217.3v2H47.3v-5.9h2.5
		v3.9H59.4z M59,214.7h-2.5v-12.6H59V214.7z"/>
	<path d="M77.8,215.6v2H61.9v-2h6.6v-3.1h-5.3v-2h2.3v-5h-2.4v-2h13.3v2h-2.4v5h2.3v2h-5.3v3.1H77.8z M68,210.5h3.6v-5H68V210.5z"/>
	<path d="M95.2,215.3v2.1H79.4v-2.1H95.2z M90.8,205.7H81v-2h12.3v2.1c0,2.5,0,4.8-0.6,8.4l-2.5-0.2
		C90.8,210.7,90.8,208.2,90.8,205.7L90.8,205.7z"/>
	<path d="M99.8,213.7c1.6,0,3.1-0.1,4.9-0.4l0.2,2c-2.2,0.4-4.1,0.4-6.2,0.4h-1.2v-7.1h4.2v-2.8h-4.2v-2h6.6v6.8h-4.2V213.7z
		 M111.9,202.1v17.5h-2.4v-8.9h-1.6v8.1h-2.3v-16.4h2.3v6.3h1.6v-6.6H111.9z"/>
	<path d="M125.4,211.6c-3.5,0.6-7.4,0.6-10.4,0.6l-0.3-2.1c0.6,0,1.2,0,1.8,0v-4.7h-1.4v-2h9.4v2h-1.4v4.5c0.7-0.1,1.4-0.1,2-0.2
		L125.4,211.6z M117,213.6h11.9v6.1h-2.5v-4.1H117V213.6z M118.9,210.1c0.6,0,1.2,0,1.8-0.1v-4.7h-1.8V210.1z M128.9,202.1v10.7
		h-2.5v-10.7H128.9z"/>
	<path d="M132,220.5c1.5-0.6,2.3-1.5,2.3-2.6c-0.1,0-0.1,0-0.2,0c-0.9,0-1.7-0.6-1.7-1.7c0-1,0.8-1.7,1.8-1.7c1.3,0,2,1,2,2.8
		c0,2.2-1.3,3.9-3.6,4.7L132,220.5z"/>
	<path d="M158.2,215.3v2.1h-15.8v-2.1H158.2z M153.7,205.7H144v-2h12.3v2.1c0,2.5,0,4.8-0.6,8.4l-2.5-0.2
		C153.7,210.7,153.7,208.2,153.7,205.7L153.7,205.7z"/>
	<path d="M162.7,213.7c1.6,0,3.1-0.1,4.9-0.4l0.2,2c-2.2,0.4-4.1,0.4-6.2,0.4h-1.2v-7.1h4.2v-2.8h-4.2v-2h6.6v6.8h-4.2V213.7z
		 M174.8,202.1v17.5h-2.4v-8.9h-1.6v8.1h-2.3v-16.4h2.3v6.3h1.6v-6.6H174.8z"/>
	<path d="M188.3,211.6c-3.5,0.6-7.4,0.6-10.4,0.6l-0.3-2.1c0.6,0,1.2,0,1.8,0v-4.7H178v-2h9.4v2h-1.4v4.5c0.7-0.1,1.4-0.1,2-0.2
		L188.3,211.6z M179.9,213.6h11.9v6.1h-2.5v-4.1h-9.4V213.6z M181.8,210.1c0.6,0,1.2,0,1.8-0.1v-4.7h-1.8V210.1z M191.8,202.1v10.7
		h-2.5v-10.7H191.8z"/>
	<path d="M198.3,213.4c3.1,0,5-0.1,7.1-0.5l0.2,2.1c-2.4,0.5-4.6,0.5-8.3,0.5h-1.5v-11.8h8.5v2h-5.9V213.4z M209.3,202.1v17.6h-2.5
		v-17.6H209.3z"/>
	<path d="M218.7,206.8c0,2.7,1.4,5.8,4.3,7.1l-1.4,2c-1.9-0.9-3.3-2.6-4.1-4.7c-0.8,2.3-2.2,4.2-4.2,5.1l-1.4-2
		c2.9-1.3,4.3-4.6,4.3-7.5v-1h-3.6v-2.1h9.6v2.1h-3.5V206.8z M228.5,210.9H226v8.8h-2.5v-17.5h2.5v6.7h2.5V210.9z"/>
	<path d="M234.8,212.1c-2.7,0-4.8-1.9-4.8-4.4c0-2.6,2.1-4.4,4.8-4.4s4.7,1.9,4.7,4.4C239.5,210.2,237.4,212.1,234.8,212.1z
		 M234.8,210c1.3,0,2.3-0.9,2.3-2.3c0-1.4-1-2.3-2.3-2.3c-1.3,0-2.3,0.8-2.3,2.3C232.4,209.1,233.5,210,234.8,210z M244.7,217.3v2
		h-12.1v-5.9h2.5v3.9H244.7z M244.3,214.7h-2.5v-12.6h2.5V214.7z"/>
</g>
<g class="st0">
	<path d="M436.8,158.8h-4.6v7.2h-3.2v-7.2h-4.4v7.2h-3.2v-7.2h-4.5v-2.6h20V158.8z M418.7,149.6c0-3,3.3-4.9,8-4.9
		c4.7,0,8,1.9,8,4.9c0,3-3.3,4.9-8,4.9C422,154.6,418.7,152.7,418.7,149.6z M422,149.6c0,1.6,1.8,2.4,4.8,2.4c2.9,0,4.7-0.8,4.7-2.4
		c0-1.6-1.8-2.4-4.7-2.4C423.8,147.2,422,148.1,422,149.6z"/>
	<path d="M449.2,154.3c-1.1,1.1-2.6,1.7-4.3,1.7c-3.3,0-5.8-2.3-5.8-5.4c0-3.1,2.5-5.4,5.8-5.4c1.8,0,3.3,0.6,4.3,1.7h4.9V144h3.2
		v13h-3.2v-2.6H449.2z M444.9,153.3c1.6,0,2.8-1,2.8-2.7c0-1.7-1.2-2.7-2.8-2.7s-2.8,1-2.8,2.7C442.1,152.3,443.3,153.3,444.9,153.3
		z M457.4,161.7c0,2.7-2.9,4.4-7.6,4.4c-4.7,0-7.6-1.6-7.6-4.4c0-2.8,2.9-4.4,7.6-4.4C454.5,157.4,457.4,159,457.4,161.7z
		 M454.3,161.7c0-1.3-1.6-1.9-4.5-1.9s-4.4,0.6-4.4,1.9s1.5,1.9,4.4,1.9S454.3,163,454.3,161.7z M450.6,149.4
		c0.1,0.4,0.1,0.8,0.1,1.2c0,0.4,0,0.8-0.1,1.2h3.5v-2.4H450.6z"/>
	<path d="M480,143.9V166h-3v-11h-1.8v10.1h-3v-6.4l-1.8,2.4c-2-1.1-3.2-2.8-4-5c-0.7,2.5-2,4.6-4.1,5.9l-1.9-2.4
		c3.3-1.9,4.3-5.8,4.3-10.1v-0.6h-3.6v-2.6h10v2.6h-3.3v0.6c0,3.9,1.1,7.5,4.4,9.2v-14.3h3v8.1h1.8v-8.5H480z"/>
</g>
<g class="st0">
	<path d="M378.6,211.7v-7.7h2.8v8c0,2.9,1,3.9,2.7,3.9c1.7,0,2.7-1,2.7-3.9v-8h2.7v7.7c0,4.7-2,6.6-5.4,6.6
		C380.7,218.3,378.6,216.3,378.6,211.7z"/>
	<path d="M395.2,210.7l-3.7-6.8h3.1l1.4,2.9c0.3,0.7,0.6,1.3,1,2.2h0.1c0.3-0.9,0.6-1.6,0.9-2.2l1.3-2.9h3l-3.7,6.9l4,7.1h-3.1
		l-1.6-3.1c-0.4-0.7-0.7-1.5-1.1-2.3h-0.1c-0.4,0.9-0.7,1.6-1,2.3l-1.5,3.1h-3L395.2,210.7z"/>
	<path d="M403.9,220.5c1.5-0.6,2.3-1.5,2.3-2.6c-0.1,0-0.1,0-0.2,0c-0.9,0-1.7-0.6-1.7-1.7c0-1,0.8-1.7,1.8-1.7c1.3,0,2,1,2,2.8
		c0,2.2-1.3,3.9-3.6,4.7L403.9,220.5z"/>
	<path d="M410.2,211.7v-7.7h2.8v8c0,2.9,1,3.9,2.7,3.9c1.7,0,2.7-1,2.7-3.9v-8h2.7v7.7c0,4.7-2,6.6-5.4,6.6
		C412.2,218.3,410.2,216.3,410.2,211.7z"/>
	<path d="M424.4,203.9h2.8V218h-2.8V203.9z"/>
</g>
<g class="st0">
	<path d="M439.1,212.1c-2.7,0-4.8-1.9-4.8-4.4c0-2.6,2.1-4.4,4.8-4.4s4.8,1.9,4.8,4.4C443.9,210.2,441.8,212.1,439.1,212.1z
		 M439.1,210c1.3,0,2.3-0.9,2.3-2.3c0-1.4-1-2.3-2.3-2.3c-1.3,0-2.3,0.8-2.3,2.3C436.8,209.1,437.8,210,439.1,210z M449.1,217.3v2
		H437v-5.9h2.5v3.9H449.1z M448.6,214.7h-2.5v-12.6h2.5V214.7z"/>
	<path d="M454.9,213.7c2.4,0,4.3-0.1,6.4-0.5l0.2,2c-2.5,0.4-4.8,0.5-7.7,0.5h-1.4v-12.1h8.1v2h-5.6v2.8h5v2h-5V213.7z M466.3,202.1
		v17.6h-2.5v-9.4h-3v-2h3v-6.2H466.3z"/>
	<path d="M477.2,212c-2,0.4-3.7,0.4-6.3,0.4h-1.2v-5.5h3.7v-1.6h-3.7v-2h6.2v5.3h-3.7v1.7c1.8,0,3.2-0.1,4.8-0.4L477.2,212z
		 M472.1,213.7H484v5.9h-2.5v-3.9h-9.4V213.7z M478.1,208.3h-1.6v-2h1.6v-3.8h2.3v10.4h-2.3V208.3z M484,202.1V213h-2.4v-10.9H484z"
		/>
	<path d="M490,213.7c2.6,0,4.7-0.1,7.1-0.5l0.2,2c-2.7,0.4-5.2,0.5-8.3,0.5h-1.5v-12.1h8.9v2H490v2.8h5.6v2H490V213.7z M501.1,202.1
		v17.5h-2.5v-17.5H501.1z"/>
	<path d="M519.9,215.5v2.1H504v-2.1H519.9z M508.2,203.3v2.8h7.5v-2.8h2.5v9.3h-12.4v-9.3H508.2z M508.2,210.6h7.5v-2.5h-7.5V210.6z
		"/>
</g>
<g class="st0">
	<path d="M389.3,238.3c-0.8,0.8-2,1.3-3.4,1.3c-2.6,0-4.6-1.8-4.6-4.3c0-2.5,2-4.3,4.6-4.3c1.4,0,2.6,0.5,3.4,1.3h3.9v-2.3h2.5v10.3
		h-2.5v-2.1H389.3z M385.9,237.5c1.3,0,2.2-0.8,2.2-2.2c0-1.4-1-2.2-2.2-2.2c-1.3,0-2.2,0.8-2.2,2.2
		C383.7,236.7,384.6,237.5,385.9,237.5z M395.8,244.2c0,2.2-2.3,3.5-6,3.5c-3.7,0-6-1.3-6-3.5c0-2.2,2.3-3.5,6-3.5
		C393.5,240.7,395.8,242,395.8,244.2z M393.3,244.2c0-1-1.2-1.5-3.5-1.5s-3.5,0.5-3.5,1.5c0,1,1.2,1.5,3.5,1.5
		S393.3,245.2,393.3,244.2z M390.4,234.4c0.1,0.3,0.1,0.6,0.1,0.9c0,0.3,0,0.6-0.1,1h2.8v-1.9H390.4z"/>
	<path d="M407.6,239.8c-1.8-0.6-3.1-1.8-3.9-3.3c-0.8,1.7-2.1,3.1-4.1,3.8l-1.3-2c2.9-1,4.1-3.3,4.1-5.7v-1.6h2.5v1.8
		c0,2.1,1.2,4.2,3.9,5L407.6,239.8z M412.5,244.3c0,2.1-2.3,3.4-5.9,3.4c-3.6,0-5.9-1.3-5.9-3.4c0-2.1,2.3-3.4,5.9-3.4
		C410.2,240.9,412.5,242.1,412.5,244.3z M410,244.3c0-1-1.2-1.4-3.4-1.4c-2.2,0-3.4,0.5-3.4,1.4c0,1,1.2,1.4,3.4,1.4
		C408.8,245.7,410,245.2,410,244.3z M414.6,234.2v2.1h-2.3v4.2h-2.5v-10.3h2.5v4H414.6z"/>
	<path d="M416.2,248.5c1.5-0.6,2.3-1.5,2.3-2.6c-0.1,0-0.1,0-0.2,0c-0.9,0-1.7-0.6-1.7-1.7c0-1,0.8-1.7,1.8-1.7c1.3,0,2,1,2,2.8
		c0,2.2-1.3,3.9-3.6,4.7L416.2,248.5z"/>
	<path d="M442.4,243.6v2h-15.8v-2h6.6V240h-5v-8.6h12.4v8.6h-5v3.6H442.4z M430.6,238h7.5v-4.6h-7.5V238z"/>
	<path d="M453.1,240.9c-1.8-0.7-3.1-2.1-3.8-3.7c-0.7,1.8-2.1,3.2-4.1,4l-1.3-2c2.9-1,4.1-3.5,4.1-6v-2h2.5v2c0,2.4,1.1,4.8,3.9,5.8
		L453.1,240.9z M459,245.3v2h-11.9v-5.4h2.5v3.4H459z M456.1,237.8h-2.9v-2h2.9v-1.4h-2.9v-2h2.9v-2.3h2.5v13h-2.5V237.8z"/>
	<path d="M465,241.4c3.1,0,5-0.1,7.1-0.5l0.2,2.1c-2.4,0.5-4.6,0.5-8.3,0.5h-1.5v-11.8h8.5v2H465V241.4z M476,230.1v17.6h-2.5v-17.6
		H476z"/>
	<path d="M485.4,234.8c0,2.7,1.4,5.8,4.3,7.1l-1.4,2c-1.9-0.9-3.3-2.6-4.1-4.7c-0.8,2.3-2.2,4.2-4.2,5.1l-1.4-2
		c2.9-1.3,4.3-4.6,4.3-7.5v-1h-3.6v-2.1h9.6v2.1h-3.5V234.8z M495.2,238.9h-2.5v8.8h-2.5v-17.5h2.5v6.7h2.5V238.9z"/>
	<path d="M501.5,240.1c-2.7,0-4.8-1.9-4.8-4.4c0-2.6,2.1-4.4,4.8-4.4s4.7,1.9,4.7,4.4C506.2,238.2,504.1,240.1,501.5,240.1z
		 M501.5,238c1.3,0,2.3-0.9,2.3-2.3c0-1.4-1-2.3-2.3-2.3c-1.3,0-2.3,0.8-2.3,2.3C499.1,237.1,500.2,238,501.5,238z M511.4,245.3v2
		h-12.1v-5.9h2.5v3.9H511.4z M511,242.7h-2.5v-12.6h2.5V242.7z"/>
</g>
</svg>
